  0
SECTION
  2
HEADER
  9
$ACADVER
  1
AC1027
  9
$ACADMAINTVER
 70
105
  9
$DWGCODEPAGE
  3
ANSI_1252
  9
$LASTSAVEDBY
  1
ezdxf
  9
$REQUIREDVERSIONS
160
0
  9
$INSBASE
 10
0.0
 20
0.0
 30
0.0
  9
$EXTMIN
 10
1e+20
 20
1e+20
 30
1e+20
  9
$EXTMAX
 10
-1e+20
 20
-1e+20
 30
-1e+20
  9
$LIMMIN
 10
0.0
 20
0.0
  9
$LIMMAX
 10
420.0
 20
297.0
  9
$ORTHOMODE
 70
0
  9
$REGENMODE
 70
1
  9
$FILLMODE
 70
1
  9
$QTEXTMODE
 70
0
  9
$MIRRTEXT
 70
1
  9
$LTSCALE
 40
1.0
  9
$ATTMODE
 70
1
  9
$TEXTSIZE
 40
2.5
  9
$TRACEWID
 40
1.0
  9
$TEXTSTYLE
  7
Standard
  9
$CLAYER
  8
0
  9
$CELTYPE
  6
ByLayer
  9
$CECOLOR
 62
256
  9
$CELTSCALE
 40
1.0
  9
$DISPSILH
 70
0
  9
$DIMSCALE
 40
1.0
  9
$DIMASZ
 40
2.5
  9
$DIMEXO
 40
0.625
  9
$DIMDLI
 40
3.75
  9
$DIMRND
 40
0.0
  9
$DIMDLE
 40
0.0
  9
$DIMEXE
 40
1.25
  9
$DIMTP
 40
0.0
  9
$DIMTM
 40
0.0
  9
$DIMTXT
 40
2.5
  9
$DIMCEN
 40
2.5
  9
$DIMTSZ
 40
0.0
  9
$DIMTOL
 70
0
  9
$DIMLIM
 70
0
  9
$DIMTIH
 70
0
  9
$DIMTOH
 70
0
  9
$DIMSE1
 70
0
  9
$DIMSE2
 70
0
  9
$DIMTAD
 70
1
  9
$DIMZIN
 70
8
  9
$DIMBLK
  1

  9
$DIMASO
 70
1
  9
$DIMSHO
 70
1
  9
$DIMPOST
  1

  9
$DIMAPOST
  1

  9
$DIMALT
 70
0
  9
$DIMALTD
 70
3
  9
$DIMALTF
 40
0.03937007874
  9
$DIMLFAC
 40
1.0
  9
$DIMTOFL
 70
1
  9
$DIMTVP
 40
0.0
  9
$DIMTIX
 70
0
  9
$DIMSOXD
 70
0
  9
$DIMSAH
 70
0
  9
$DIMBLK1
  1

  9
$DIMBLK2
  1

  9
$DIMSTYLE
  2
ISO-25
  9
$DIMCLRD
 70
0
  9
$DIMCLRE
 70
0
  9
$DIMCLRT
 70
0
  9
$DIMTFAC
 40
1.0
  9
$DIMGAP
 40
0.625
  9
$DIMJUST
 70
0
  9
$DIMSD1
 70
0
  9
$DIMSD2
 70
0
  9
$DIMTOLJ
 70
0
  9
$DIMTZIN
 70
8
  9
$DIMALTZ
 70
0
  9
$DIMALTTZ
 70
0
  9
$DIMUPT
 70
0
  9
$DIMDEC
 70
2
  9
$DIMTDEC
 70
2
  9
$DIMALTU
 70
2
  9
$DIMALTTD
 70
3
  9
$DIMTXSTY
  7
Standard
  9
$DIMAUNIT
 70
0
  9
$DIMADEC
 70
0
  9
$DIMALTRND
 40
0.0
  9
$DIMAZIN
 70
0
  9
$DIMDSEP
 70
44
  9
$DIMATFIT
 70
3
  9
$DIMFRAC
 70
0
  9
$DIMLDRBLK
  1

  9
$DIMLUNIT
 70
2
  9
$DIMLWD
 70
-2
  9
$DIMLWE
 70
-2
  9
$DIMTMOVE
 70
0
  9
$DIMFXL
 40
1.0
  9
$DIMFXLON
 70
0
  9
$DIMJOGANG
 40
0.785398163397
  9
$DIMTFILL
 70
0
  9
$DIMTFILLCLR
 70
0
  9
$DIMARCSYM
 70
0
  9
$DIMLTYPE
  6

  9
$DIMLTEX1
  6

  9
$DIMLTEX2
  6

  9
$DIMTXTDIRECTION
 70
0
  9
$LUNITS
 70
2
  9
$LUPREC
 70
4
  9
$SKETCHINC
 40
1.0
  9
$FILLETRAD
 40
10.0
  9
$AUNITS
 70
0
  9
$AUPREC
 70
2
  9
$MENU
  1
.
  9
$ELEVATION
 40
0.0
  9
$PELEVATION
 40
0.0
  9
$THICKNESS
 40
0.0
  9
$LIMCHECK
 70
0
  9
$CHAMFERA
 40
0.0
  9
$CHAMFERB
 40
0.0
  9
$CHAMFERC
 40
0.0
  9
$CHAMFERD
 40
0.0
  9
$SKPOLY
 70
0
  9
$TDCREATE
 40
2461286.521342593
  9
$TDUCREATE
 40
2458532.153996898
  9
$TDUPDATE
 40
2461286.521342593
  9
$TDUUPDATE
 40
2458532.1544311
  9
$TDINDWG
 40
0.0
  9
$TDUSRTIMER
 40
0.0
  9
$USRTIMER
 70
1
  9
$ANGBASE
 50
0.0
  9
$ANGDIR
 70
0
  9
$PDMODE
 70
0
  9
$PDSIZE
 40
0.0
  9
$PLINEWID
 40
0.0
  9
$SPLFRAME
 70
0
  9
$SPLINETYPE
 70
6
  9
$SPLINESEGS
 70
8
  9
$HANDSEED
  5
1FE
  9
$SURFTAB1
 70
6
  9
$SURFTAB2
 70
6
  9
$SURFTYPE
 70
6
  9
$SURFU
 70
6
  9
$SURFV
 70
6
  9
$UCSBASE
  2

  9
$UCSNAME
  2

  9
$UCSORG
 10
0.0
 20
0.0
 30
0.0
  9
$UCSXDIR
 10
1.0
 20
0.0
 30
0.0
  9
$UCSYDIR
 10
0.0
 20
1.0
 30
0.0
  9
$UCSORTHOREF
  2

  9
$UCSORTHOVIEW
 70
0
  9
$UCSORGTOP
 10
0.0
 20
0.0
 30
0.0
  9
$UCSORGBOTTOM
 10
0.0
 20
0.0
 30
0.0
  9
$UCSORGLEFT
 10
0.0
 20
0.0
 30
0.0
  9
$UCSORGRIGHT
 10
0.0
 20
0.0
 30
0.0
  9
$UCSORGFRONT
 10
0.0
 20
0.0
 30
0.0
  9
$UCSORGBACK
 10
0.0
 20
0.0
 30
0.0
  9
$PUCSBASE
  2

  9
$PUCSNAME
  2

  9
$PUCSORG
 10
0.0
 20
0.0
 30
0.0
  9
$PUCSXDIR
 10
1.0
 20
0.0
 30
0.0
  9
$PUCSYDIR
 10
0.0
 20
1.0
 30
0.0
  9
$PUCSORTHOREF
  2

  9
$PUCSORTHOVIEW
 70
0
  9
$PUCSORGTOP
 10
0.0
 20
0.0
 30
0.0
  9
$PUCSORGBOTTOM
 10
0.0
 20
0.0
 30
0.0
  9
$PUCSORGLEFT
 10
0.0
 20
0.0
 30
0.0
  9
$PUCSORGRIGHT
 10
0.0
 20
0.0
 30
0.0
  9
$PUCSORGFRONT
 10
0.0
 20
0.0
 30
0.0
  9
$PUCSORGBACK
 10
0.0
 20
0.0
 30
0.0
  9
$USERI1
 70
0
  9
$USERI2
 70
0
  9
$USERI3
 70
0
  9
$USERI4
 70
0
  9
$USERI5
 70
0
  9
$USERR1
 40
0.0
  9
$USERR2
 40
0.0
  9
$USERR3
 40
0.0
  9
$USERR4
 40
0.0
  9
$USERR5
 40
0.0
  9
$WORLDVIEW
 70
1
  9
$SHADEDGE
 70
3
  9
$SHADEDIF
 70
70
  9
$TILEMODE
 70
1
  9
$MAXACTVP
 70
64
  9
$PINSBASE
 10
0.0
 20
0.0
 30
0.0
  9
$PLIMCHECK
 70
0
  9
$PEXTMIN
 10
1e+20
 20
1e+20
 30
1e+20
  9
$PEXTMAX
 10
-1e+20
 20
-1e+20
 30
-1e+20
  9
$PLIMMIN
 10
0.0
 20
0.0
  9
$PLIMMAX
 10
420.0
 20
297.0
  9
$UNITMODE
 70
0
  9
$VISRETAIN
 70
1
  9
$PLINEGEN
 70
0
  9
$PSLTSCALE
 70
1
  9
$TREEDEPTH
 70
3020
  9
$CMLSTYLE
  2
Standard
  9
$CMLJUST
 70
0
  9
$CMLSCALE
 40
20.0
  9
$PROXYGRAPHICS
 70
1
  9
$MEASUREMENT
 70
1
  9
$CELWEIGHT
370
-1
  9
$ENDCAPS
280
0
  9
$JOINSTYLE
280
0
  9
$LWDISPLAY
290
0
  9
$INSUNITS
 70
4
  9
$HYPERLINKBASE
  1

  9
$STYLESHEET
  1

  9
$XEDIT
290
1
  9
$CEPSNTYPE
380
0
  9
$PSTYLEMODE
290
1
  9
$FINGERPRINTGUID
  2
{E3CF2660-300D-4C02-9CC4-5F2D81DFCAE8}
  9
$VERSIONGUID
  2
{E169BBEB-EF62-4E97-93ED-A19078848063}
  9
$EXTNAMES
290
1
  9
$PSVPSCALE
 40
0.0
  9
$OLESTARTUP
290
0
  9
$SORTENTS
280
127
  9
$INDEXCTL
280
0
  9
$HIDETEXT
280
1
  9
$XCLIPFRAME
280
1
  9
$HALOGAP
280
0
  9
$OBSCOLOR
 70
257
  9
$OBSLTYPE
280
0
  9
$INTERSECTIONDISPLAY
280
0
  9
$INTERSECTIONCOLOR
 70
257
  9
$DIMASSOC
280
2
  9
$PROJECTNAME
  1

  9
$CAMERADISPLAY
290
0
  9
$LENSLENGTH
 40
50.0
  9
$CAMERAHEIGHT
 40
0.0
  9
$STEPSPERSEC
 40
24.0
  9
$STEPSIZE
 40
100.0
  9
$3DDWFPREC
 40
2.0
  9
$PSOLWIDTH
 40
0.005
  9
$PSOLHEIGHT
 40
0.08
  9
$LOFTANG1
 40
1.570796326795
  9
$LOFTANG2
 40
1.570796326795
  9
$LOFTMAG1
 40
0.0
  9
$LOFTMAG2
 40
0.0
  9
$LOFTPARAM
 70
7
  9
$LOFTNORMALS
280
1
  9
$LATITUDE
 40
37.795
  9
$LONGITUDE
 40
-122.394
  9
$NORTHDIRECTION
 40
0.0
  9
$TIMEZONE
 70
-8000
  9
$LIGHTGLYPHDISPLAY
280
1
  9
$TILEMODELIGHTSYNCH
280
1
  9
$CMATERIAL
347
20
  9
$SOLIDHIST
280
0
  9
$SHOWHIST
280
1
  9
$DWFFRAME
280
2
  9
$DGNFRAME
280
2
  9
$REALWORLDSCALE
290
1
  9
$INTERFERECOLOR
 62
256
  9
$CSHADOW
280
0
  9
$SHADOWPLANELOCATION
 40
0.0
  0
ENDSEC
  0
SECTION
  2
CLASSES
  0
CLASS
  1
ACDBDICTIONARYWDFLT
  2
AcDbDictionaryWithDefault
  3
ObjectDBX Classes
 90
0
 91
0
280
0
281
0
  0
CLASS
  1
SUN
  2
AcDbSun
  3
SCENEOE
 90
1153
 91
0
280
0
281
0
  0
CLASS
  1
VISUALSTYLE
  2
AcDbVisualStyle
  3
ObjectDBX Classes
 90
4095
 91
0
280
0
281
0
  0
CLASS
  1
MATERIAL
  2
AcDbMaterial
  3
ObjectDBX Classes
 90
1153
 91
0
280
0
281
0
  0
CLASS
  1
SCALE
  2
AcDbScale
  3
ObjectDBX Classes
 90
1153
 91
0
280
0
281
0
  0
CLASS
  1
TABLESTYLE
  2
AcDbTableStyle
  3
ObjectDBX Classes
 90
4095
 91
0
280
0
281
0
  0
CLASS
  1
MLEADERSTYLE
  2
AcDbMLeaderStyle
  3
ACDB_MLEADERSTYLE_CLASS
 90
4095
 91
0
280
0
281
0
  0
CLASS
  1
DICTIONARYVAR
  2
AcDbDictionaryVar
  3
ObjectDBX Classes
 90
0
 91
0
280
0
281
0
  0
CLASS
  1
CELLSTYLEMAP
  2
AcDbCellStyleMap
  3
ObjectDBX Classes
 90
1152
 91
0
280
0
281
0
  0
CLASS
  1
MENTALRAYRENDERSETTINGS
  2
AcDbMentalRayRenderSettings
  3
SCENEOE
 90
1024
 91
0
280
0
281
0
  0
CLASS
  1
ACDBDETAILVIEWSTYLE
  2
AcDbDetailViewStyle
  3
ObjectDBX Classes
 90
1025
 91
0
280
0
281
0
  0
CLASS
  1
ACDBSECTIONVIEWSTYLE
  2
AcDbSectionViewStyle
  3
ObjectDBX Classes
 90
1025
 91
0
280
0
281
0
  0
CLASS
  1
RASTERVARIABLES
  2
AcDbRasterVariables
  3
ISM
 90
0
 91
0
280
0
281
0
  0
CLASS
  1
LAYOUT
  2
AcDbLayout
  3
ObjectDBX Classes
 90
0
 91
0
280
0
281
0
  0
CLASS
  1
ACDBPLACEHOLDER
  2
AcDbPlaceHolder
  3
ObjectDBX Classes
 90
0
 91
0
280
0
281
0
  0
ENDSEC
  0
SECTION
  2
TABLES
  0
TABLE
  2
VPORT
  5
8
330
0
100
AcDbSymbolTable
 70
1
  0
VPORT
  5
1FA
330
8
100
AcDbSymbolTableRecord
100
AcDbViewportTableRecord
  2
*Active
 70
0
 10
0.0
 20
0.0
 11
1.0
 21
1.0
 12
0.7718792144000517
 22
-0.05357622329041689
 13
0.0
 23
0.0
 14
0.5
 24
0.5
 15
0.5
 25
0.5
 16
0.0
 26
0.0
 36
1.0
 17
0.0
 27
0.0
 37
0.0
 40
62.34668562083543
 41
1.34
 42
50.0
 43
0.0
 44
0.0
 50
0.0
 51
0.0
 71
0
 72
1000
 73
1
 74
3
 75
0
 76
0
 77
0
 78
0
281
0
 65
1
110
0.0
120
0.0
130
0.0
111
1.0
121
0.0
131
0.0
112
0.0
122
1.0
132
0.0
 79
0
146
0.0
  0
ENDTAB
  0
TABLE
  2
LTYPE
  5
2
330
0
100
AcDbSymbolTable
 70
3
  0
LTYPE
  5
24
330
2
100
AcDbSymbolTableRecord
100
AcDbLinetypeTableRecord
  2
ByBlock
 70
0
  3

 72
65
 73
0
 40
0.0
  0
LTYPE
  5
25
330
2
100
AcDbSymbolTableRecord
100
AcDbLinetypeTableRecord
  2
ByLayer
 70
0
  3

 72
65
 73
0
 40
0.0
  0
LTYPE
  5
26
330
2
100
AcDbSymbolTableRecord
100
AcDbLinetypeTableRecord
  2
Continuous
 70
0
  3

 72
65
 73
0
 40
0.0
  0
ENDTAB
  0
TABLE
  2
LAYER
  5
1
330
0
100
AcDbSymbolTable
 70
2
  0
LAYER
  5
27
330
1
100
AcDbSymbolTableRecord
100
AcDbLayerTableRecord
  2
0
 70
0
 62
7
  6
Continuous
370
-3
390
13
347
21
  0
LAYER
  5
28
330
1
100
AcDbSymbolTableRecord
100
AcDbLayerTableRecord
  2
Defpoints
 70
0
 62
7
  6
Continuous
290
0
370
-3
390
13
347
21
  0
ENDTAB
  0
TABLE
  2
STYLE
  5
5
330
0
100
AcDbSymbolTable
 70
1
  0
STYLE
  5
29
330
5
100
AcDbSymbolTableRecord
100
AcDbTextStyleTableRecord
  2
Standard
 70
0
 40
0.0
 41
1.0
 50
0.0
 71
0
 42
2.5
  3
txt
  4

  0
ENDTAB
  0
TABLE
  2
VIEW
  5
7
330
0
100
AcDbSymbolTable
 70
0
  0
ENDTAB
  0
TABLE
  2
UCS
  5
6
330
0
100
AcDbSymbolTable
 70
0
  0
ENDTAB
  0
TABLE
  2
APPID
  5
3
330
0
100
AcDbSymbolTable
 70
3
  0
APPID
  5
2A
330
3
100
AcDbSymbolTableRecord
100
AcDbRegAppTableRecord
  2
ACAD
 70
0
  0
APPID
  5
1FB
330
3
100
AcDbSymbolTableRecord
100
AcDbRegAppTableRecord
  2
HATCHBACKGROUNDCOLOR
 70
0
  0
APPID
  5
1FC
330
3
100
AcDbSymbolTableRecord
100
AcDbRegAppTableRecord
  2
EZDXF
 70
0
  0
ENDTAB
  0
TABLE
  2
DIMSTYLE
  5
4
330
0
100
AcDbSymbolTable
 70
1
100
AcDbDimStyleTable
  0
DIMSTYLE
105
2B
330
4
100
AcDbSymbolTableRecord
100
AcDbDimStyleTableRecord
  2
Standard
 70
0
 40
1.0
 41
2.5
 42
0.625
 43
3.75
 44
1.25
 45
0.0
 46
0.0
 47
0.0
 48
0.0
 49
2.5
140
2.5
141
2.5
142
0.0
143
0.03937007874
144
1.0
145
0.0
146
1.0
147
0.625
148
0.0
 69
0
 70
0
 71
0
 72
0
 73
0
 74
0
 75
0
 76
0
 77
1
 78
8
 79
3
170
0
171
3
172
1
173
0
174
0
175
0
176
0
177
0
178
0
179
2
271
2
272
2
273
2
274
3
275
0
276
0
277
2
278
44
279
0
280
0
281
0
282
0
283
0
284
8
285
0
286
0
288
0
289
3
290
0
371
-2
372
-2
  0
ENDTAB
  0
TABLE
  2
BLOCK_RECORD
  5
9
330
0
100
AcDbSymbolTable
 70
2
  0
BLOCK_RECORD
  5
17
330
9
100
AcDbSymbolTableRecord
100
AcDbBlockTableRecord
  2
*Model_Space
340
1A
 70
0
280
1
281
0
  0
BLOCK_RECORD
  5
1B
330
9
100
AcDbSymbolTableRecord
100
AcDbBlockTableRecord
  2
*Paper_Space
340
1E
 70
0
280
1
281
0
  0
ENDTAB
  0
ENDSEC
  0
SECTION
  2
BLOCKS
  0
BLOCK
  5
18
330
17
100
AcDbEntity
  8
0
100
AcDbBlockBegin
  2
*Model_Space
 70
0
 10
0.0
 20
0.0
 30
0.0
  3
*Model_Space
  1

  0
ENDBLK
  5
19
330
17
100
AcDbEntity
  8
0
100
AcDbBlockEnd
  0
BLOCK
  5
1C
330
1B
100
AcDbEntity
  8
0
100
AcDbBlockBegin
  2
*Paper_Space
 70
0
 10
0.0
 20
0.0
 30
0.0
  3
*Paper_Space
  1

  0
ENDBLK
  5
1D
330
1B
100
AcDbEntity
  8
0
100
AcDbBlockEnd
  0
ENDSEC
  0
SECTION
  2
ENTITIES
  0
LINE
  5
2F
330
17
100
AcDbEntity
  8
0
100
AcDbLine
 10
-2.7146452933677514
 20
7.183029509697361
 30
0.0
 11
-3.077867945683848
 21
6.803620988870978
 31
0.0
  0
LINE
  5
30
330
17
100
AcDbEntity
  8
0
100
AcDbLine
 10
-3.077867945683845
 20
6.8036209888709696
 30
0.0
 11
-2.9437133607500545
 21
6.116662890901249
 31
0.0
  0
LINE
  5
31
330
17
100
AcDbEntity
  8
0
100
AcDbLine
 10
-2.94371336075005
 20
6.116662890901248
 30
0.0
 11
-0.9078547917186548
 21
5.8974049253378915
 31
0.0
  0
LINE
  5
32
330
17
100
AcDbEntity
  8
0
100
AcDbLine
 10
-0.9078547917186544
 20
5.897404925337889
 30
0.0
 11
-0.9534723561048235
 21
-6.084509945066369
 31
0.0
  0
LINE
  5
33
330
17
100
AcDbEntity
  8
0
100
AcDbLine
 10
-0.9534723561048242
 20
-6.08450994506637
 30
0.0
 11
-2.95180699021473
 21
-6.296409812858369
 31
0.0
  0
LINE
  5
34
330
17
100
AcDbEntity
  8
0
100
AcDbLine
 10
-2.9518069902147275
 20
-6.296409812858371
 30
0.0
 11
-3.1563494554449094
 21
-6.92009271933548
 31
0.0
  0
LINE
  5
35
330
17
100
AcDbEntity
  8
0
100
AcDbLine
 10
-3.1563494554449103
 20
-6.920092719335481
 30
0.0
 11
-2.7384353638265497
 21
-7.36277712686404
 31
0.0
  0
LINE
  5
36
330
17
100
AcDbEntity
  8
0
100
AcDbLine
 10
-2.7384353638265506
 20
-7.362777126864039
 30
0.0
 11
0.23254886224931526
 21
-7.275405277505461
 31
0.0
  0
LINE
  5
37
330
17
100
AcDbEntity
  8
0
100
AcDbLine
 10
0.23254886224931526
 20
-7.275405277505462
 30
0.0
 11
3.1915761794467197
 21
-7.362777126864039
 31
0.0
  0
LINE
  5
38
330
17
100
AcDbEntity
  8
0
100
AcDbLine
 10
3.191576179446719
 20
-7.36277712686404
 30
0.0
 11
3.5628917660179504
 21
-6.943882094584731
 31
0.0
  0
LINE
  5
39
330
17
100
AcDbEntity
  8
0
100
AcDbLine
 10
3.562891766017957
 20
-6.943882094584728
 30
0.0
 11
3.428737876293704
 21
-6.336141038069379
 31
0.0
  0
LINE
  5
3A
330
17
100
AcDbEntity
  8
0
100
AcDbLine
 10
3.4287378762937006
 20
-6.336141038069376
 30
0.0
 11
1.3982748285022406
 21
-6.0984892184966855
 31
0.0
  0
LINE
  5
3B
330
17
100
AcDbEntity
  8
0
100
AcDbLine
 10
1.3982748285022333
 20
-6.098489218496688
 30
0.0
 11
1.443401574953167
 21
5.888575764179879
 31
0.0
  0
LINE
  5
3C
330
17
100
AcDbEntity
  8
0
100
AcDbLine
 10
1.4434015749531701
 20
5.88857576417988
 30
0.0
 11
3.46773287460183
 21
6.07791260635118
 31
0.0
  0
LINE
  5
3D
330
17
100
AcDbEntity
  8
0
100
AcDbLine
 10
3.4677328746018268
 20
6.07791260635118
 30
0.0
 11
3.681595318925249
 21
6.65352524918499
 31
0.0
  0
LINE
  5
3E
330
17
100
AcDbEntity
  8
0
100
AcDbLine
 10
3.6815953189252544
 20
6.653525249184994
 30
0.0
 11
3.301940693921711
 21
7.15899472548048
 31
0.0
  0
LINE
  5
3F
330
17
100
AcDbEntity
  8
0
100
AcDbLine
 10
3.3019406939217104
 20
7.158994725480481
 30
0.0
 11
0.2938315832003111
 21
7.07711016502112
 31
0.0
  0
LINE
  5
40
330
17
100
AcDbEntity
  8
0
100
AcDbLine
 10
0.2938315832003111
 20
7.0771101650211214
 30
0.0
 11
-2.7146452933677505
 21
7.183029509697359
 31
0.0
  0
LINE
  5
41
330
17
100
AcDbEntity
  8
0
100
AcDbLine
 10
-1.7517759092104752
 20
-9.739784750106969
 30
0.0
 11
0.39616434185971816
 21
-12.274246210807284
 31
0.0
  0
LINE
  5
42
330
17
100
AcDbEntity
  8
0
100
AcDbLine
 10
0.39616434185967975
 20
-12.274246210807286
 30
0.0
 11
2.2600989820681514
 21
-9.803306045776779
 31
0.0
  0
LINE
  5
43
330
17
100
AcDbEntity
  8
0
100
AcDbLine
 10
2.260098982068179
 20
-9.8033060457768
 30
0.0
 11
0.24704954283463576
 21
-7.284050208135351
 31
0.0
  0
LINE
  5
44
330
17
100
AcDbEntity
  8
0
100
AcDbLine
 10
0.24704954283463654
 20
-7.28405020813535
 30
0.0
 11
-1.7517759092105019
 21
-9.739784750106988
 31
0.0
  0
LINE
  5
45
330
17
100
AcDbEntity
  8
0
100
AcDbLine
 10
-44.37617054247423
 20
6.339125077234437
 30
0.0
 11
-43.55677641755354
 21
4.494356668834221
 31
0.0
  0
LINE
  5
46
330
17
100
AcDbEntity
  8
0
100
AcDbLine
 10
-43.556776417553486
 20
4.494356668834244
 30
0.0
 11
-42.97158587288712
 21
2.5784384304818246
 31
0.0
  0
LINE
  5
47
330
17
100
AcDbEntity
  8
0
100
AcDbLine
 10
-42.97158587288706
 20
2.578438430481826
 30
0.0
 11
-42.60304278196134
 21
0.6138847231300512
 31
0.0
  0
LINE
  5
48
330
17
100
AcDbEntity
  8
0
100
AcDbLine
 10
-42.60304278196145
 20
0.6138847231300364
 30
0.0
 11
-42.57449269058214
 21
0.2784818540492641
 31
0.0
  0
LINE
  5
49
330
17
100
AcDbEntity
  8
0
100
AcDbLine
 10
-42.57449269058215
 20
0.278481854049292
 30
0.0
 11
-42.33685886765764
 21
0.7598773361109694
 31
0.0
  0
LINE
  5
4A
330
17
100
AcDbEntity
  8
0
100
AcDbLine
 10
-42.33685886765762
 20
0.7598773361109684
 30
0.0
 11
-41.96343471055158
 21
1.2259944763947364
 31
0.0
  0
LINE
  5
4B
330
17
100
AcDbEntity
  8
0
100
AcDbLine
 10
-41.96343471055158
 20
1.2259944763947335
 30
0.0
 11
-41.47031493652461
 21
1.6705448263286913
 31
0.0
  0
LINE
  5
4C
330
17
100
AcDbEntity
  8
0
100
AcDbLine
 10
-41.4703149365246
 20
1.6705448263286764
 30
0.0
 11
-40.1807707607786
 21
2.487189397518626
 31
0.0
  0
LINE
  5
4D
330
17
100
AcDbEntity
  8
0
100
AcDbLine
 10
-40.1807707607786
 20
2.487189397518638
 30
0.0
 11
-38.57979356739881
 21
3.1943002296339014
 31
0.0
  0
LINE
  5
4E
330
17
100
AcDbEntity
  8
0
100
AcDbLine
 10
-38.5797935673988
 20
3.194300229633882
 30
0.0
 11
-36.778954059412094
 21
3.7763658074179665
 31
0.0
  0
LINE
  5
4F
330
17
100
AcDbEntity
  8
0
100
AcDbLine
 10
-36.7789540594121
 20
3.77636580741797
 30
0.0
 11
-34.8898187685881
 21
4.217874615614409
 31
0.0
  0
LINE
  5
50
330
17
100
AcDbEntity
  8
0
100
AcDbLine
 10
-34.8898187685881
 20
4.217874615614409
 30
0.0
 11
-33.0239590931634
 21
4.503315138966687
 31
0.0
  0
LINE
  5
51
330
17
100
AcDbEntity
  8
0
100
AcDbLine
 10
-33.0239590931634
 20
4.503315138966685
 30
0.0
 11
-31.2929415649075
 21
4.61717586221833
 31
0.0
  0
LINE
  5
52
330
17
100
AcDbEntity
  8
0
100
AcDbLine
 10
-31.2929415649075
 20
4.617175862218328
 30
0.0
 11
-29.339435432355902
 21
4.5871066591942515
 31
0.0
  0
LINE
  5
53
330
17
100
AcDbEntity
  8
0
100
AcDbLine
 10
-29.339435432355902
 20
4.587106659194253
 30
0.0
 11
-27.3756770447179
 21
4.4364957692391265
 31
0.0
  0
LINE
  5
54
330
17
100
AcDbEntity
  8
0
100
AcDbLine
 10
-27.3756770447179
 20
4.436495769239134
 30
0.0
 11
-25.4821904373831
 21
4.154476372033187
 31
0.0
  0
LINE
  5
55
330
17
100
AcDbEntity
  8
0
100
AcDbLine
 10
-25.4821904373831
 20
4.154476372033183
 30
0.0
 11
-23.739497560112497
 21
3.7301816472567166
 31
0.0
  0
LINE
  5
56
330
17
100
AcDbEntity
  8
0
100
AcDbLine
 10
-23.739497560112486
 20
3.7301816472567344
 30
0.0
 11
-22.228121753085997
 21
3.1527447745899417
 31
0.0
  0
LINE
  5
57
330
17
100
AcDbEntity
  8
0
100
AcDbLine
 10
-22.228121753086008
 20
3.1527447745899164
 30
0.0
 11
-21.028587051693318
 21
2.4112982385035795
 31
0.0
  0
LINE
  5
58
330
17
100
AcDbEntity
  8
0
100
AcDbLine
 10
-21.028587051693332
 20
2.4112982385035777
 30
0.0
 11
-20.57092296420647
 21
1.9756757694824243
 31
0.0
  0
LINE
  5
59
330
17
100
AcDbEntity
  8
0
100
AcDbLine
 10
-20.570922964206407
 20
1.9756757694824587
 30
0.0
 11
-20.22141471048586
 21
1.4949759138875676
 31
0.0
  0
LINE
  5
5A
330
17
100
AcDbEntity
  8
0
100
AcDbLine
 10
-20.221414710485856
 20
1.4949759138875582
 30
0.0
 11
-19.99012892467096
 21
0.9678402322779545
 31
0.0
  0
LINE
  5
5B
330
17
100
AcDbEntity
  8
0
100
AcDbLine
 10
-19.99012892467102
 20
0.9678402322779329
 30
0.0
 11
-19.887129460062777
 21
0.39291028521240323
 31
0.0
  0
LINE
  5
5C
330
17
100
AcDbEntity
  8
0
100
AcDbLine
 10
-19.887129460062724
 20
0.3929102852124193
 30
0.0
 11
-19.93433001657148
 21
-0.10042291814330997
 31
0.0
  0
LINE
  5
5D
330
17
100
AcDbEntity
  8
0
100
AcDbLine
 10
-19.93433001657151
 20
-0.10042291814330362
 30
0.0
 11
-20.12686621304589
 21
-0.5791157037961705
 31
0.0
  0
LINE
  5
5E
330
17
100
AcDbEntity
  8
0
100
AcDbLine
 10
-20.126866213045925
 20
-0.5791157037961473
 30
0.0
 11
-20.45216309932642
 21
-1.040927411398728
 31
0.0
  0
LINE
  5
5F
330
17
100
AcDbEntity
  8
0
100
AcDbLine
 10
-20.45216309932639
 20
-1.0409274113987523
 30
0.0
 11
-20.897643639624857
 21
-1.4836173806036723
 31
0.0
  0
LINE
  5
60
330
17
100
AcDbEntity
  8
0
100
AcDbLine
 10
-20.897643639624864
 20
-1.4836173806036816
 30
0.0
 11
-22.098848929542093
 21
-2.3026673768020025
 31
0.0
  0
LINE
  5
61
330
17
100
AcDbEntity
  8
0
100
AcDbLine
 10
-22.098848929542093
 20
-2.3026673768020056
 30
0.0
 11
-23.629868577330786
 21
-3.01833623835467
 31
0.0
  0
LINE
  5
62
330
17
100
AcDbEntity
  8
0
100
AcDbLine
 10
-23.629868577330797
 20
-3.0183362383546477
 30
0.0
 11
-25.390090467943
 21
-3.6126965968536315
 31
0.0
  0
LINE
  5
63
330
17
100
AcDbEntity
  8
0
100
AcDbLine
 10
-25.390090467942997
 20
-3.6126965968536515
 30
0.0
 11
-27.27890109591179
 21
-4.067819693471894
 31
0.0
  0
LINE
  5
64
330
17
100
AcDbEntity
  8
0
100
AcDbLine
 10
-27.278901095911795
 20
-4.067819693471888
 30
0.0
 11
-29.195688346189197
 21
-4.365776074172782
 31
0.0
  0
LINE
  5
65
330
17
100
AcDbEntity
  8
0
100
AcDbLine
 10
-29.1956883461892
 20
-4.365776074172776
 30
0.0
 11
-31.0398387133084
 21
-4.488638370548358
 31
0.0
  0
LINE
  5
66
330
17
100
AcDbEntity
  8
0
100
AcDbLine
 10
-31.0398387133084
 20
-4.488638370548347
 30
0.0
 11
-32.804535667729496
 21
-4.467120940075816
 31
0.0
  0
LINE
  5
67
330
17
100
AcDbEntity
  8
0
100
AcDbLine
 10
-32.804535667729496
 20
-4.46712094007581
 30
0.0
 11
-34.7231339388587
 21
-4.33641528966993
 31
0.0
  0
LINE
  5
68
330
17
100
AcDbEntity
  8
0
100
AcDbLine
 10
-34.7231339388587
 20
-4.336415289669937
 30
0.0
 11
-36.6742436841259
 21
-4.078128955740525
 31
0.0
  0
LINE
  5
69
330
17
100
AcDbEntity
  8
0
100
AcDbLine
 10
-36.6742436841259
 20
-4.078128955740518
 30
0.0
 11
-38.536475756170994
 21
-3.673871560325901
 31
0.0
  0
LINE
  5
6A
330
17
100
AcDbEntity
  8
0
100
AcDbLine
 10
-38.536475756171
 20
-3.6738715603259124
 30
0.0
 11
-40.188440312423815
 21
-3.105251335045488
 31
0.0
  0
LINE
  5
6B
330
17
100
AcDbEntity
  8
0
100
AcDbLine
 10
-40.18844031242383
 20
-3.1052513350454953
 30
0.0
 11
-41.5087475103149
 21
-2.3538765115183873
 31
0.0
  0
LINE
  5
6C
330
17
100
AcDbEntity
  8
0
100
AcDbLine
 10
-41.50874751031488
 20
-2.353876511518372
 30
0.0
 11
-42.00659540442332
 21
-1.903909088848803
 31
0.0
  0
LINE
  5
6D
330
17
100
AcDbEntity
  8
0
100
AcDbLine
 10
-42.006595404423344
 20
-1.9039090888488135
 30
0.0
 11
-42.37600820248362
 21
-1.401356711783134
 31
0.0
  0
LINE
  5
6E
330
17
100
AcDbEntity
  8
0
100
AcDbLine
 10
-42.37600820248356
 20
-1.4013567117831047
 30
0.0
 11
-42.44626561961985
 21
-1.2279135869726692
 31
0.0
  0
LINE
  5
6F
330
17
100
AcDbEntity
  8
0
100
AcDbLine
 10
-42.44626561961987
 20
-1.2279135869726874
 30
0.0
 11
-42.433593103891326
 21
-1.3767887018490532
 31
0.0
  0
LINE
  5
70
330
17
100
AcDbEntity
  8
0
100
AcDbLine
 10
-42.43359310389134
 20
-1.3767887018490605
 30
0.0
 11
-42.44568140737286
 21
-3.3710660930835394
 31
0.0
  0
LINE
  5
71
330
17
100
AcDbEntity
  8
0
100
AcDbLine
 10
-42.44568140737287
 20
-3.3710660930835346
 30
0.0
 11
-42.621752956311425
 21
-5.346432394410908
 31
0.0
  0
LINE
  5
72
330
17
100
AcDbEntity
  8
0
100
AcDbLine
 10
-42.621752956311376
 20
-5.346432394410915
 30
0.0
 11
-42.94425301461242
 21
-7.280371854459233
 31
0.0
  0
LINE
  5
73
330
17
100
AcDbEntity
  8
0
100
AcDbLine
 10
-42.94425301461243
 20
-7.28037185445924
 30
0.0
 11
-43.26518537540079
 21
-8.431820302389193
 31
0.0
  0
LINE
  5
74
330
17
100
AcDbEntity
  8
0
100
AcDbLine
 10
-43.26518537540087
 20
-8.431820302389179
 30
0.0
 11
-43.709731554077536
 21
-9.381678840005303
 31
0.0
  0
LINE
  5
75
330
17
100
AcDbEntity
  8
0
100
AcDbLine
 10
-43.70973155407751
 20
-9.381678840005314
 30
0.0
 11
-44.273620878438315
 21
-10.149613554775192
 31
0.0
  0
LINE
  5
76
330
17
100
AcDbEntity
  8
0
100
AcDbLine
 10
-44.27362087843835
 20
-10.149613554775145
 30
0.0
 11
-44.95258198106945
 21
-10.755292619794847
 31
0.0
  0
LINE
  5
77
330
17
100
AcDbEntity
  8
0
100
AcDbLine
 10
-44.952581981069414
 20
-10.755292619794877
 30
0.0
 11
-45.742344884976184
 21
-11.21838281774152
 31
0.0
  0
LINE
  5
78
330
17
100
AcDbEntity
  8
0
100
AcDbLine
 10
-45.7423448849762
 20
-11.218382817741501
 30
0.0
 11
-46.6386389179544
 21
-11.558550931292102
 31
0.0
  0
LINE
  5
79
330
17
100
AcDbEntity
  8
0
100
AcDbLine
 10
-46.638638917954395
 20
-11.558550931292144
 30
0.0
 11
-47.637192017380784
 21
-11.795465828752446
 31
0.0
  0
LINE
  5
7A
330
17
100
AcDbEntity
  8
0
100
AcDbLine
 10
-47.63719201738079
 20
-11.795465828752468
 30
0.0
 11
-48.73373420626059
 21
-11.948793597589928
 31
0.0
  0
LINE
  5
7B
330
17
100
AcDbEntity
  8
0
100
AcDbLine
 10
-48.733734206260635
 20
-11.948793597589901
 30
0.0
 11
-48.70528484146476
 21
7.426567668445222
 31
0.0
  0
LINE
  5
7C
330
17
100
AcDbEntity
  8
0
100
AcDbLine
 10
-48.705284841464696
 20
7.426567668445225
 30
0.0
 11
-46.99711676516
 21
7.710204818250734
 31
0.0
  0
LINE
  5
7D
330
17
100
AcDbEntity
  8
0
100
AcDbLine
 10
-46.99711676516
 20
7.710204818250743
 30
0.0
 11
-45.447322288534096
 21
8.090226513891404
 31
0.0
  0
LINE
  5
7E
330
17
100
AcDbEntity
  8
0
100
AcDbLine
 10
-45.44732228853408
 20
8.090226513891398
 30
0.0
 11
-44.37617054247415
 21
6.339125077234479
 31
0.0
  0
LINE
  5
7F
330
17
100
AcDbEntity
  8
0
100
AcDbLine
 10
-41.13483943707232
 20
5.717983218436179
 30
0.0
 11
-41.350065932809876
 21
6.1509200361942815
 31
0.0
  0
LINE
  5
80
330
17
100
AcDbEntity
  8
0
100
AcDbLine
 10
-41.35006593280988
 20
6.150920036194278
 30
0.0
 11
-42.39267585120511
 21
7.73632453587807
 31
0.0
  0
LINE
  5
81
330
17
100
AcDbEntity
  8
0
100
AcDbLine
 10
-42.3926758512051
 20
7.7363245358780794
 30
0.0
 11
-44.39870506450368
 21
10.37912675608241
 31
0.0
  0
LINE
  5
82
330
17
100
AcDbEntity
  8
0
100
AcDbLine
 10
-44.39870506450372
 20
10.379126756082382
 30
0.0
 11
-45.29453956397605
 21
11.78849794335237
 31
0.0
  0
LINE
  5
83
330
17
100
AcDbEntity
  8
0
100
AcDbLine
 10
-45.29453956397602
 20
11.78849794335239
 30
0.0
 11
-46.015331424628954
 21
13.323224448408375
 31
0.0
  0
LINE
  5
84
330
17
100
AcDbEntity
  8
0
100
AcDbLine
 10
-46.015331424628904
 20
13.323224448408407
 30
0.0
 11
-49.04569766877341
 21
12.434421993433219
 31
0.0
  0
LINE
  5
85
330
17
100
AcDbEntity
  8
0
100
AcDbLine
 10
-49.04569766877343
 20
12.434421993433196
 30
0.0
 11
-50.206733056259964
 21
21.055612607961205
 31
0.0
  0
LINE
  5
86
330
17
100
AcDbEntity
  8
0
100
AcDbLine
 10
-50.20673305626
 20
21.055612607961212
 30
0.0
 11
-50.521854855713
 21
21.083724796130188
 31
0.0
  0
LINE
  5
87
330
17
100
AcDbEntity
  8
0
100
AcDbLine
 10
-50.52185485571295
 20
21.083724796130216
 30
0.0
 11
-50.79853295802308
 21
20.93690975026347
 31
0.0
  0
LINE
  5
88
330
17
100
AcDbEntity
  8
0
100
AcDbLine
 10
-50.79853295802317
 20
20.9369097502635
 30
0.0
 11
-50.782345699093824
 21
12.0692381550047
 31
0.0
  0
LINE
  5
89
330
17
100
AcDbEntity
  8
0
100
AcDbLine
 10
-50.78234569909381
 20
12.069238155004744
 30
0.0
 11
-53.41955356812981
 21
11.735292862046656
 31
0.0
  0
LINE
  5
8A
330
17
100
AcDbEntity
  8
0
100
AcDbLine
 10
-53.4195535681298
 20
11.735292862046693
 30
0.0
 11
-55.8313418294494
 21
11.737408384676906
 31
0.0
  0
LINE
  5
8B
330
17
100
AcDbEntity
  8
0
100
AcDbLine
 10
-55.83134182944941
 20
11.737408384676819
 30
0.0
 11
-56.9452885891631
 21
11.875352556813171
 31
0.0
  0
LINE
  5
8C
330
17
100
AcDbEntity
  8
0
100
AcDbLine
 10
-56.945288589163084
 20
11.875352556813262
 30
0.0
 11
-57.99398159103339
 21
12.110348675943152
 31
0.0
  0
LINE
  5
8D
330
17
100
AcDbEntity
  8
0
100
AcDbLine
 10
-57.993981591033396
 20
12.110348675943124
 30
0.0
 11
-58.97445646158158
 21
12.446742496901068
 31
0.0
  0
LINE
  5
8E
330
17
100
AcDbEntity
  8
0
100
AcDbLine
 10
-58.97445646158156
 20
12.446742496901088
 30
0.0
 11
-59.88374535128148
 21
12.888879079312131
 31
0.0
  0
LINE
  5
8F
330
17
100
AcDbEntity
  8
0
100
AcDbLine
 10
-59.883745351281426
 20
12.888879079312103
 30
0.0
 11
-59.89355545310037
 21
13.125549263014301
 31
0.0
  0
LINE
  5
90
330
17
100
AcDbEntity
  8
0
100
AcDbLine
 10
-59.893555453100404
 20
13.12554926301431
 30
0.0
 11
-58.80475511765804
 21
13.90715318775965
 31
0.0
  0
LINE
  5
91
330
17
100
AcDbEntity
  8
0
100
AcDbLine
 10
-58.80475511765804
 20
13.907153187759638
 30
0.0
 11
-57.845311726113906
 21
14.793464706953008
 31
0.0
  0
LINE
  5
92
330
17
100
AcDbEntity
  8
0
100
AcDbLine
 10
-57.845311726113884
 20
14.793464706952994
 30
0.0
 11
-57.482372024080554
 21
15.290271177170565
 31
0.0
  0
LINE
  5
93
330
17
100
AcDbEntity
  8
0
100
AcDbLine
 10
-57.48237202408061
 20
15.290271177170604
 30
0.0
 11
-57.23370043808943
 21
15.830516425075915
 31
0.0
  0
LINE
  5
94
330
17
100
AcDbEntity
  8
0
100
AcDbLine
 10
-57.2337004380894
 20
15.830516425075901
 30
0.0
 11
-57.126605494081005
 21
16.4199547000317
 31
0.0
  0
LINE
  5
95
330
17
100
AcDbEntity
  8
0
100
AcDbLine
 10
-57.12660549408096
 20
16.419954700031703
 30
0.0
 11
-57.18839710841524
 21
17.064338860981394
 31
0.0
  0
LINE
  5
96
330
17
100
AcDbEntity
  8
0
100
AcDbLine
 10
-57.18839710841525
 20
17.06433886098138
 30
0.0
 11
-57.43374767843391
 21
17.785661861722897
 31
0.0
  0
LINE
  5
97
330
17
100
AcDbEntity
  8
0
100
AcDbLine
 10
-57.433747678433946
 20
17.785661861722872
 30
0.0
 11
-57.76217022680626
 21
18.27162375832596
 31
0.0
  0
LINE
  5
98
330
17
100
AcDbEntity
  8
0
100
AcDbLine
 10
-57.76217022680622
 20
18.271623758325973
 30
0.0
 11
-58.15570818632358
 21
18.577812115190028
 31
0.0
  0
LINE
  5
99
330
17
100
AcDbEntity
  8
0
100
AcDbLine
 10
-58.155708186323615
 20
18.577812115189964
 30
0.0
 11
-58.59640359935822
 21
18.75981449671425
 31
0.0
  0
LINE
  5
9A
330
17
100
AcDbEntity
  8
0
100
AcDbLine
 10
-58.596403599358204
 20
18.759814496714284
 30
0.0
 11
-59.547439821935114
 21
18.973611591340948
 31
0.0
  0
LINE
  5
9B
330
17
100
AcDbEntity
  8
0
100
AcDbLine
 10
-59.5474398219351
 20
18.973611591341008
 30
0.0
 11
-60.02186610664099
 21
19.116581433242015
 31
0.0
  0
LINE
  5
9C
330
17
100
AcDbEntity
  8
0
100
AcDbLine
 10
-60.02186610664102
 20
19.116581433241958
 30
0.0
 11
-60.47162079519129
 21
19.357714862190907
 31
0.0
  0
LINE
  5
9D
330
17
100
AcDbEntity
  8
0
100
AcDbLine
 10
-60.4716207951913
 20
19.3577148621909
 30
0.0
 11
-60.783484842739895
 21
19.7186189906911
 31
0.0
  0
LINE
  5
9E
330
17
100
AcDbEntity
  8
0
100
AcDbLine
 10
-60.78348484273985
 20
19.718618990691112
 30
0.0
 11
-60.93030823112112
 21
20.20503903038119
 31
0.0
  0
LINE
  5
9F
330
17
100
AcDbEntity
  8
0
100
AcDbLine
 10
-60.93030823112119
 20
20.2050390303812
 30
0.0
 11
-60.91701095824961
 21
20.771244097719702
 31
0.0
  0
LINE
  5
A0
330
17
100
AcDbEntity
  8
0
100
AcDbLine
 10
-60.917010958249584
 20
20.7712440977197
 30
0.0
 11
-60.74851302203982
 21
21.371500528327307
 31
0.0
  0
LINE
  5
A1
330
17
100
AcDbEntity
  8
0
100
AcDbLine
 10
-60.74851302203982
 20
21.371500528327378
 30
0.0
 11
-61.09959662057793
 21
21.252117060489976
 31
0.0
  0
LINE
  5
A2
330
17
100
AcDbEntity
  8
0
100
AcDbLine
 10
-61.09959662057794
 20
21.252117060489947
 30
0.0
 11
-61.34515227741086
 21
21.051995432724652
 31
0.0
  0
LINE
  5
A3
330
17
100
AcDbEntity
  8
0
100
AcDbLine
 10
-61.34515227741082
 20
21.051995432724667
 30
0.0
 11
-61.574806406435364
 21
20.497964874850584
 31
0.0
  0
LINE
  5
A4
330
17
100
AcDbEntity
  8
0
100
AcDbLine
 10
-61.57480640643538
 20
20.4979648748506
 30
0.0
 11
-61.54772521401422
 21
19.8862694664717
 31
0.0
  0
LINE
  5
A5
330
17
100
AcDbEntity
  8
0
100
AcDbLine
 10
-61.54772521401422
 20
19.886269466471692
 30
0.0
 11
-61.37415780983876
 21
19.393767733725873
 31
0.0
  0
LINE
  5
A6
330
17
100
AcDbEntity
  8
0
100
AcDbLine
 10
-61.374157809838785
 20
19.39376773372582
 30
0.0
 11
-61.14133422052137
 21
19.145509102201327
 31
0.0
  0
LINE
  5
A7
330
17
100
AcDbEntity
  8
0
100
AcDbLine
 10
-61.14133422052136
 20
19.145509102201384
 30
0.0
 11
-60.797268762289484
 21
18.968626243729638
 31
0.0
  0
LINE
  5
A8
330
17
100
AcDbEntity
  8
0
100
AcDbLine
 10
-60.7972687622895
 20
18.968626243729606
 30
0.0
 11
-59.903151430381016
 21
18.681486628261563
 31
0.0
  0
LINE
  5
A9
330
17
100
AcDbEntity
  8
0
100
AcDbLine
 10
-59.90315143038097
 20
18.681486628261656
 30
0.0
 11
-58.947275158986585
 21
18.23735340405173
 31
0.0
  0
LINE
  5
AA
330
17
100
AcDbEntity
  8
0
100
AcDbLine
 10
-58.94727515898661
 20
18.23735340405168
 30
0.0
 11
-58.52601224301407
 21
17.86422818704782
 31
0.0
  0
LINE
  5
AB
330
17
100
AcDbEntity
  8
0
100
AcDbLine
 10
-58.52601224301407
 20
17.864228187047814
 30
0.0
 11
-58.185112073817805
 21
17.3412310878298
 31
0.0
  0
LINE
  5
AC
330
17
100
AcDbEntity
  8
0
100
AcDbLine
 10
-58.185112073817805
 20
17.3412310878298
 30
0.0
 11
-58.0343816078218
 21
16.9214524442252
 31
0.0
  0
LINE
  5
AD
330
17
100
AcDbEntity
  8
0
100
AcDbLine
 10
-58.03438160782178
 20
16.921452444225203
 30
0.0
 11
-57.98625642262481
 21
16.48754227630091
 31
0.0
  0
LINE
  5
AE
330
17
100
AcDbEntity
  8
0
100
AcDbLine
 10
-57.98625642262491
 20
16.4875422763009
 30
0.0
 11
-58.05720950827729
 21
16.0365883512941
 31
0.0
  0
LINE
  5
AF
330
17
100
AcDbEntity
  8
0
100
AcDbLine
 10
-58.057209508277275
 20
16.03658835129409
 30
0.0
 11
-58.263715940457935
 21
15.565679826860674
 31
0.0
  0
LINE
  5
B0
330
17
100
AcDbEntity
  8
0
100
AcDbLine
 10
-58.26371594045789
 20
15.56567982686062
 30
0.0
 11
-58.622249404426725
 21
15.07190516544695
 31
0.0
  0
LINE
  5
B1
330
17
100
AcDbEntity
  8
0
100
AcDbLine
 10
-58.622249404426796
 20
15.071905165446998
 30
0.0
 11
-59.149284280653106
 21
14.552352829499707
 31
0.0
  0
LINE
  5
B2
330
17
100
AcDbEntity
  8
0
100
AcDbLine
 10
-59.14928428065311
 20
14.552352829499723
 30
0.0
 11
-60.77475579175573
 21
13.424269678999645
 31
0.0
  0
LINE
  5
B3
330
17
100
AcDbEntity
  8
0
100
AcDbLine
 10
-60.77475579175566
 20
13.424269678999591
 30
0.0
 11
-60.98168143528895
 21
12.29666552787259
 31
0.0
  0
LINE
  5
B4
330
17
100
AcDbEntity
  8
0
100
AcDbLine
 10
-60.98168143528901
 20
12.2966655278726
 30
0.0
 11
-60.94998961319858
 21
11.139170842573298
 31
0.0
  0
LINE
  5
B5
330
17
100
AcDbEntity
  8
0
100
AcDbLine
 10
-60.94998961319854
 20
11.139170842573291
 30
0.0
 11
-60.68432571563064
 21
9.96613335758821
 31
0.0
  0
LINE
  5
B6
330
17
100
AcDbEntity
  8
0
100
AcDbLine
 10
-60.684325715630614
 20
9.966133357588213
 30
0.0
 11
-60.18933235189338
 21
8.791900112194309
 31
0.0
  0
LINE
  5
B7
330
17
100
AcDbEntity
  8
0
100
AcDbLine
 10
-60.1893323518934
 20
8.7919001121943
 30
0.0
 11
-59.19531271387739
 21
8.31402628337958
 31
0.0
  0
LINE
  5
B8
330
17
100
AcDbEntity
  8
0
100
AcDbLine
 10
-59.1953127138774
 20
8.314026283379572
 30
0.0
 11
-58.34858712110119
 21
7.753305724102128
 31
0.0
  0
LINE
  5
B9
330
17
100
AcDbEntity
  8
0
100
AcDbLine
 10
-58.34858712110118
 20
7.753305724102136
 30
0.0
 11
-57.64041122797062
 21
7.111681545026228
 31
0.0
  0
LINE
  5
BA
330
17
100
AcDbEntity
  8
0
100
AcDbLine
 10
-57.640411227970596
 20
7.111681545026248
 30
0.0
 11
-57.0620406888916
 21
6.391098942444839
 31
0.0
  0
LINE
  5
BB
330
17
100
AcDbEntity
  8
0
100
AcDbLine
 10
-57.06204068889165
 20
6.39109894244481
 30
0.0
 11
-56.60473115827012
 21
5.593500331812708
 31
0.0
  0
LINE
  5
BC
330
17
100
AcDbEntity
  8
0
100
AcDbLine
 10
-56.60473115827014
 20
5.593500331812702
 30
0.0
 11
-56.25973690009285
 21
4.720830909422769
 31
0.0
  0
LINE
  5
BD
330
17
100
AcDbEntity
  8
0
100
AcDbLine
 10
-56.25973690009279
 20
4.720830909422791
 30
0.0
 11
-56.018313568765606
 21
3.7750337859393386
 31
0.0
  0
LINE
  5
BE
330
17
100
AcDbEntity
  8
0
100
AcDbLine
 10
-56.018313568765585
 20
3.775033785939342
 30
0.0
 11
-55.871716818694416
 21
2.7580534624457282
 31
0.0
  0
LINE
  5
BF
330
17
100
AcDbEntity
  8
0
100
AcDbLine
 10
-55.871716818694395
 20
2.75805346244573
 30
0.0
 11
-55.828022899105406
 21
0.51831913413302
 31
0.0
  0
LINE
  5
C0
330
17
100
AcDbEntity
  8
0
100
AcDbLine
 10
-55.828022899105456
 20
0.518319134133025
 30
0.0
 11
-56.05869690052514
 21
-1.9828216285246363
 31
0.0
  0
LINE
  5
C1
330
17
100
AcDbEntity
  8
0
100
AcDbLine
 10
-56.05869690052513
 20
-1.9828216285246356
 30
0.0
 11
-56.49378058215287
 21
-4.729816988117454
 31
0.0
  0
LINE
  5
C2
330
17
100
AcDbEntity
  8
0
100
AcDbLine
 10
-56.49378058215291
 20
-4.72981698811745
 30
0.0
 11
-57.0633170936071
 21
-7.7071144120260495
 31
0.0
  0
LINE
  5
C3
330
17
100
AcDbEntity
  8
0
100
AcDbLine
 10
-57.06331709360704
 20
-7.707114412026024
 30
0.0
 11
-56.51236422836658
 21
-8.93559485782614
 31
0.0
  0
LINE
  5
C4
330
17
100
AcDbEntity
  8
0
100
AcDbLine
 10
-56.5123642283666
 20
-8.935594857826148
 30
0.0
 11
-55.853138734157
 21
-10.144945917923602
 31
0.0
  0
LINE
  5
C5
330
17
100
AcDbEntity
  8
0
100
AcDbLine
 10
-55.85313873415701
 20
-10.144945917923605
 30
0.0
 11
-54.34663147953919
 21
-12.571004745470795
 31
0.0
  0
LINE
  5
C6
330
17
100
AcDbEntity
  8
0
100
AcDbLine
 10
-54.3466314795392
 20
-12.571004745470793
 30
0.0
 11
-55.792031901219595
 21
-13.021989259697406
 31
0.0
  0
LINE
  5
C7
330
17
100
AcDbEntity
  8
0
100
AcDbLine
 10
-55.7920319012196
 20
-13.021989259697389
 30
0.0
 11
-57.02254374929559
 21
-13.631669255619812
 31
0.0
  0
LINE
  5
C8
330
17
100
AcDbEntity
  8
0
100
AcDbLine
 10
-57.022543749295615
 20
-13.631669255619784
 30
0.0
 11
-58.07122910386092
 21
-14.375534425695772
 31
0.0
  0
LINE
  5
C9
330
17
100
AcDbEntity
  8
0
100
AcDbLine
 10
-58.07122910386089
 20
-14.375534425695818
 30
0.0
 11
-58.97115282584746
 21
-15.229074462383135
 31
0.0
  0
LINE
  5
CA
330
17
100
AcDbEntity
  8
0
100
AcDbLine
 10
-58.97115282584754
 20
-15.22907446238311
 30
0.0
 11
-58.47218981563686
 21
-16.967887375211117
 31
0.0
  0
LINE
  5
CB
330
17
100
AcDbEntity
  8
0
100
AcDbLine
 10
-58.47218981563676
 20
-16.96788737521108
 30
0.0
 11
-58.08927952435742
 21
-17.793252654870763
 31
0.0
  0
LINE
  5
CC
330
17
100
AcDbEntity
  8
0
100
AcDbLine
 10
-58.08927952435748
 20
-17.793252654870788
 30
0.0
 11
-57.61992270761727
 21
-18.557087718983283
 31
0.0
  0
LINE
  5
CD
330
17
100
AcDbEntity
  8
0
100
AcDbLine
 10
-57.61992270761728
 20
-18.557087718983283
 30
0.0
 11
-57.06599851680287
 21
-19.23526323483418
 31
0.0
  0
LINE
  5
CE
330
17
100
AcDbEntity
  8
0
100
AcDbLine
 10
-57.06599851680287
 20
-19.235263234834168
 30
0.0
 11
-56.42938749371992
 21
-19.80365195533783
 31
0.0
  0
LINE
  5
CF
330
17
100
AcDbEntity
  8
0
100
AcDbLine
 10
-56.4293874937199
 20
-19.803651955337802
 30
0.0
 11
-55.71196878975506
 21
-20.238125242989426
 31
0.0
  0
LINE
  5
D0
330
17
100
AcDbEntity
  8
0
100
AcDbLine
 10
-55.7119687897551
 20
-20.238125242989483
 30
0.0
 11
-54.91562225150454
 21
-20.514556545912907
 31
0.0
  0
LINE
  5
D1
330
17
100
AcDbEntity
  8
0
100
AcDbLine
 10
-54.91562225150451
 20
-20.514556545912882
 30
0.0
 11
-53.9424290056783
 21
-20.587474293725315
 31
0.0
  0
LINE
  5
D2
330
17
100
AcDbEntity
  8
0
100
AcDbLine
 10
-53.9424290056783
 20
-20.5874742937253
 30
0.0
 11
-53.45359797930359
 21
-20.381260544760934
 31
0.0
  0
LINE
  5
D3
330
17
100
AcDbEntity
  8
0
100
AcDbLine
 10
-53.45359797930358
 20
-20.381260544760913
 30
0.0
 11
-53.32078514878199
 21
-20.11545065318961
 31
0.0
  0
LINE
  5
D4
330
17
100
AcDbEntity
  8
0
100
AcDbLine
 10
-53.320785148782015
 20
-20.115450653189612
 30
0.0
 11
-53.41564510009593
 21
-20.009577192343023
 31
0.0
  0
LINE
  5
D5
330
17
100
AcDbEntity
  8
0
100
AcDbLine
 10
-53.4156451000959
 20
-20.009577192343038
 30
0.0
 11
-54.4368773251361
 21
-20.047909655959558
 31
0.0
  0
LINE
  5
D6
330
17
100
AcDbEntity
  8
0
100
AcDbLine
 10
-54.4368773251361
 20
-20.04790965595959
 30
0.0
 11
-55.32102813307921
 21
-19.797524378452238
 31
0.0
  0
LINE
  5
D7
330
17
100
AcDbEntity
  8
0
100
AcDbLine
 10
-55.3210281330792
 20
-19.7975243784522
 30
0.0
 11
-55.880155272091
 21
-19.357081326480596
 31
0.0
  0
LINE
  5
D8
330
17
100
AcDbEntity
  8
0
100
AcDbLine
 10
-55.88015527209095
 20
-19.357081326480582
 30
0.0
 11
-55.979103055500055
 21
-19.09642015676258
 31
0.0
  0
LINE
  5
D9
330
17
100
AcDbEntity
  8
0
100
AcDbLine
 10
-55.97910305550015
 20
-19.096420156762587
 30
0.0
 11
-55.92631649033747
 21
-18.825242552332888
 31
0.0
  0
LINE
  5
DA
330
17
100
AcDbEntity
  8
0
100
AcDbLine
 10
-55.92631649033738
 20
-18.825242552332917
 30
0.0
 11
-55.21209296941842
 21
-17.876099385333486
 31
0.0
  0
LINE
  5
DB
330
17
100
AcDbEntity
  8
0
100
AcDbLine
 10
-55.21209296941847
 20
-17.876099385333408
 30
0.0
 11
-54.09092298258416
 21
-17.067257846020407
 31
0.0
  0
LINE
  5
DC
330
17
100
AcDbEntity
  8
0
100
AcDbLine
 10
-54.09092298258412
 20
-17.067257846020453
 30
0.0
 11
-52.616172204543915
 21
-16.50158530918956
 31
0.0
  0
LINE
  5
DD
330
17
100
AcDbEntity
  8
0
100
AcDbLine
 10
-52.61617220454391
 20
-16.501585309189547
 30
0.0
 11
-51.76288105287202
 21
-16.342084774846438
 31
0.0
  0
LINE
  5
DE
330
17
100
AcDbEntity
  8
0
100
AcDbLine
 10
-51.76288105287201
 20
-16.342084774846413
 30
0.0
 11
-50.84120700521701
 21
-16.281951930474584
 31
0.0
  0
LINE
  5
DF
330
17
100
AcDbEntity
  8
0
100
AcDbLine
 10
-50.84120700521695
 20
-16.2819519304747
 30
0.0
 11
-50.85665803724344
 21
-19.8835162368739
 31
0.0
  0
LINE
  5
E0
330
17
100
AcDbEntity
  8
0
100
AcDbLine
 10
-50.85665803724344
 20
-19.883516236873945
 30
0.0
 11
-49.065073158653206
 21
-21.47865297490821
 31
0.0
  0
LINE
  5
E1
330
17
100
AcDbEntity
  8
0
100
AcDbLine
 10
-49.065073158653206
 20
-21.478652974908186
 30
0.0
 11
-48.117899520280595
 21
-20.97367362133841
 31
0.0
  0
LINE
  5
E2
330
17
100
AcDbEntity
  8
0
100
AcDbLine
 10
-48.11789952028062
 20
-20.973673621338403
 30
0.0
 11
-48.58385259111297
 21
-18.632043125957416
 31
0.0
  0
LINE
  5
E3
330
17
100
AcDbEntity
  8
0
100
AcDbLine
 10
-48.58385259111295
 20
-18.632043125957406
 30
0.0
 11
-48.79872656531707
 21
-16.228241431833307
 31
0.0
  0
LINE
  5
E4
330
17
100
AcDbEntity
  8
0
100
AcDbLine
 10
-48.798726565317004
 20
-16.228241431833332
 30
0.0
 11
-47.5109030331826
 21
-16.280966818556465
 31
0.0
  0
LINE
  5
E5
330
17
100
AcDbEntity
  8
0
100
AcDbLine
 10
-47.51090303318259
 20
-16.28096681855647
 30
0.0
 11
-46.3366551883883
 21
-16.221393617864333
 31
0.0
  0
LINE
  5
E6
330
17
100
AcDbEntity
  8
0
100
AcDbLine
 10
-46.33665518838829
 20
-16.22139361786436
 30
0.0
 11
-45.270612537237774
 21
-16.05536993240742
 31
0.0
  0
LINE
  5
E7
330
17
100
AcDbEntity
  8
0
100
AcDbLine
 10
-45.270612537237774
 20
-16.055369932407373
 30
0.0
 11
-44.3074052812441
 21
-15.788745255255192
 31
0.0
  0
LINE
  5
E8
330
17
100
AcDbEntity
  8
0
100
AcDbLine
 10
-44.30740528124412
 20
-15.788745255255156
 30
0.0
 11
-43.44166223150132
 21
-15.42736768905826
 31
0.0
  0
LINE
  5
E9
330
17
100
AcDbEntity
  8
0
100
AcDbLine
 10
-43.4416622315013
 20
-15.427367689058308
 30
0.0
 11
-42.668012894312575
 21
-14.977086726886142
 31
0.0
  0
LINE
  5
EA
330
17
100
AcDbEntity
  8
0
100
AcDbLine
 10
-42.66801289431257
 20
-14.977086726886144
 30
0.0
 11
-41.98108608077216
 21
-14.443749776179756
 31
0.0
  0
LINE
  5
EB
330
17
100
AcDbEntity
  8
0
100
AcDbLine
 10
-41.98108608077216
 20
-14.44374977617974
 30
0.0
 11
-41.375512687602495
 21
-13.833207720427705
 31
0.0
  0
LINE
  5
EC
330
17
100
AcDbEntity
  8
0
100
AcDbLine
 10
-41.37551268760251
 20
-13.833207720427698
 30
0.0
 11
-40.38694071154193
 21
-12.403897923550574
 31
0.0
  0
LINE
  5
ED
330
17
100
AcDbEntity
  8
0
100
AcDbLine
 10
-40.38694071154198
 20
-12.403897923550563
 30
0.0
 11
-39.6593316261398
 21
-10.735947719134797
 31
0.0
  0
LINE
  5
EE
330
17
100
AcDbEntity
  8
0
100
AcDbLine
 10
-39.659331626139696
 20
-10.735947719134826
 30
0.0
 11
-39.14972217703351
 21
-8.876147490060777
 31
0.0
  0
LINE
  5
EF
330
17
100
AcDbEntity
  8
0
100
AcDbLine
 10
-39.14972217703363
 20
-8.876147490060745
 30
0.0
 11
-38.815146329022774
 21
-6.8712869239988486
 31
0.0
  0
LINE
  5
F0
330
17
100
AcDbEntity
  8
0
100
AcDbLine
 10
-38.81514632902272
 20
-6.871286923998859
 30
0.0
 11
-38.73602119576308
 21
-5.8239054879284335
 31
0.0
  0
LINE
  5
F1
330
17
100
AcDbEntity
  8
0
100
AcDbLine
 10
-38.736021195763
 20
-5.82390548792844
 30
0.0
 11
-36.5498595740672
 21
-6.279881901254421
 31
0.0
  0
LINE
  5
F2
330
17
100
AcDbEntity
  8
0
100
AcDbLine
 10
-36.5498595740672
 20
-6.279881901254427
 30
0.0
 11
-33.89926335971
 21
-6.619128166954993
 31
0.0
  0
LINE
  5
F3
330
17
100
AcDbEntity
  8
0
100
AcDbLine
 10
-33.89926335971
 20
-6.619128166954996
 30
0.0
 11
-31.4396036646755
 21
-6.75062148976968
 31
0.0
  0
LINE
  5
F4
330
17
100
AcDbEntity
  8
0
100
AcDbLine
 10
-31.4396036646755
 20
-6.750621489769684
 30
0.0
 11
-29.0356754424151
 21
-6.706125298371517
 31
0.0
  0
LINE
  5
F5
330
17
100
AcDbEntity
  8
0
100
AcDbLine
 10
-29.0356754424151
 20
-6.706125298371508
 30
0.0
 11
-26.399406801467602
 21
-6.496369456800864
 31
0.0
  0
LINE
  5
F6
330
17
100
AcDbEntity
  8
0
100
AcDbLine
 10
-26.399406801467602
 20
-6.496369456800873
 30
0.0
 11
-23.7026667491024
 21
-6.098832652009467
 31
0.0
  0
LINE
  5
F7
330
17
100
AcDbEntity
  8
0
100
AcDbLine
 10
-23.702666749102395
 20
-6.098832652009472
 30
0.0
 11
-21.117327073426697
 21
-5.49099357094897
 31
0.0
  0
LINE
  5
F8
330
17
100
AcDbEntity
  8
0
100
AcDbLine
 10
-21.117327073426697
 20
-5.490993570948967
 30
0.0
 11
-20.88732776984019
 21
-5.407003255299087
 31
0.0
  0
LINE
  5
F9
330
17
100
AcDbEntity
  8
0
100
AcDbLine
 10
-20.887327769840184
 20
-5.407003255299067
 30
0.0
 11
-20.758519001689614
 21
-6.069304322007502
 31
0.0
  0
LINE
  5
FA
330
17
100
AcDbEntity
  8
0
100
AcDbLine
 10
-20.7585190016896
 20
-6.069304322007493
 30
0.0
 11
-22.3377138897621
 21
-6.273110560334814
 31
0.0
  0
LINE
  5
FB
330
17
100
AcDbEntity
  8
0
100
AcDbLine
 10
-22.3377138897621
 20
-6.27311056033482
 30
0.0
 11
-22.4171763401841
 21
-6.91224449883843
 31
0.0
  0
LINE
  5
FC
330
17
100
AcDbEntity
  8
0
100
AcDbLine
 10
-22.417176340184096
 20
-6.912244498838426
 30
0.0
 11
-22.053708974109906
 21
-7.291653019664817
 31
0.0
  0
LINE
  5
FD
330
17
100
AcDbEntity
  8
0
100
AcDbLine
 10
-22.0537089741099
 20
-7.2916530196648095
 30
0.0
 11
-19.548187696140698
 21
-7.2001731771343715
 31
0.0
  0
LINE
  5
FE
330
17
100
AcDbEntity
  8
0
100
AcDbLine
 10
-19.548187696140698
 20
-7.200173177134372
 30
0.0
 11
-17.0434019498648
 21
-7.296313009211423
 31
0.0
  0
LINE
  5
FF
330
17
100
AcDbEntity
  8
0
100
AcDbLine
 10
-17.043401949864812
 20
-7.296313009211406
 30
0.0
 11
-16.66031438015273
 21
-6.968407696736825
 31
0.0
  0
LINE
  5
100
330
17
100
AcDbEntity
  8
0
100
AcDbLine
 10
-16.66031438015274
 20
-6.9684076967368656
 30
0.0
 11
-16.75547327156886
 21
-6.280713371864264
 31
0.0
  0
LINE
  5
101
330
17
100
AcDbEntity
  8
0
100
AcDbLine
 10
-16.7554732715689
 20
-6.280713371864263
 30
0.0
 11
-17.9157731273621
 21
-6.109035547218498
 31
0.0
  0
LINE
  5
102
330
17
100
AcDbEntity
  8
0
100
AcDbLine
 10
-17.915773127362108
 20
-6.109035547218498
 30
0.0
 11
-16.975697392159287
 21
-3.5593341762145956
 31
0.0
  0
LINE
  5
103
330
17
100
AcDbEntity
  8
0
100
AcDbLine
 10
-16.9756973921593
 20
-3.5593341762145925
 30
0.0
 11
-16.968323490802028
 21
-3.5543254134561
 31
0.0
  0
LINE
  5
104
330
17
100
AcDbEntity
  8
0
100
AcDbLine
 10
-16.968323490802042
 20
-3.554325413456096
 30
0.0
 11
-16.269243719292906
 21
-2.903530030128573
 31
0.0
  0
LINE
  5
105
330
17
100
AcDbEntity
  8
0
100
AcDbLine
 10
-16.269243719292856
 20
-2.90353003012861
 30
0.0
 11
-15.748400379229784
 21
-2.180453015717692
 31
0.0
  0
LINE
  5
106
330
17
100
AcDbEntity
  8
0
100
AcDbLine
 10
-15.748400379229885
 20
-2.180453015717646
 30
0.0
 11
-15.427276140608502
 21
-1.3822787715864393
 31
0.0
  0
LINE
  5
107
330
17
100
AcDbEntity
  8
0
100
AcDbLine
 10
-15.427276140608493
 20
-1.3822787715864409
 30
0.0
 11
-15.327355759052905
 21
-0.5061930895169413
 31
0.0
  0
LINE
  5
108
330
17
100
AcDbEntity
  8
0
100
AcDbLine
 10
-15.327355759052816
 20
-0.5061930895169318
 30
0.0
 11
-15.439676593173385
 21
0.416996514935267
 31
0.0
  0
LINE
  5
109
330
17
100
AcDbEntity
  8
0
100
AcDbLine
 10
-15.439676593173457
 20
0.4169965149352454
 30
0.0
 11
-15.473341552971135
 21
0.5154000175016258
 31
0.0
  0
LINE
  5
10A
330
17
100
AcDbEntity
  8
0
100
AcDbLine
 10
-15.4733415529711
 20
0.5154000175016378
 30
0.0
 11
-14.626908510378504
 21
2.8111208922625712
 31
0.0
  0
LINE
  5
10B
330
17
100
AcDbEntity
  8
0
100
AcDbLine
 10
-14.626908510378467
 20
2.8111208922625837
 30
0.0
 11
-11.07807376195955
 21
-6.08450994506636
 31
0.0
  0
LINE
  5
10C
330
17
100
AcDbEntity
  8
0
100
AcDbLine
 10
-11.078073761959603
 20
-6.084509945066372
 30
0.0
 11
-12.335248981523199
 21
-6.259621409630187
 31
0.0
  0
LINE
  5
10D
330
17
100
AcDbEntity
  8
0
100
AcDbLine
 10
-12.335248981523165
 20
-6.259621409630198
 30
0.0
 11
-12.480194608936838
 21
-6.878398917593051
 31
0.0
  0
LINE
  5
10E
330
17
100
AcDbEntity
  8
0
100
AcDbLine
 10
-12.480194608936852
 20
-6.878398917593101
 30
0.0
 11
-12.132668397614903
 21
-7.321328734089253
 31
0.0
  0
LINE
  5
10F
330
17
100
AcDbEntity
  8
0
100
AcDbLine
 10
-12.1326683976149
 20
-7.3213287340892474
 30
0.0
 11
-9.78009460886474
 21
-7.2240856044721955
 31
0.0
  0
LINE
  5
110
330
17
100
AcDbEntity
  8
0
100
AcDbLine
 10
-9.78009460886474
 20
-7.224085604472201
 30
0.0
 11
-7.42623259683701
 21
-7.314462149462658
 31
0.0
  0
LINE
  5
111
330
17
100
AcDbEntity
  8
0
100
AcDbLine
 10
-7.4262325968370115
 20
-7.314462149462658
 30
0.0
 11
-7.034805988692649
 21
-6.9674267560759215
 31
0.0
  0
LINE
  5
112
330
17
100
AcDbEntity
  8
0
100
AcDbLine
 10
-7.034805988692651
 20
-6.967426756075921
 30
0.0
 11
-7.123097600272648
 21
-6.304012624387822
 31
0.0
  0
LINE
  5
113
330
17
100
AcDbEntity
  8
0
100
AcDbLine
 10
-7.123097600272641
 20
-6.304012624387824
 30
0.0
 11
-8.54214123787261
 21
-6.093829924159617
 31
0.0
  0
LINE
  5
114
330
17
100
AcDbEntity
  8
0
100
AcDbLine
 10
-8.542141237872608
 20
-6.093829924159621
 30
0.0
 11
-5.961326681092794
 21
5.9285523983585104
 31
0.0
  0
LINE
  5
115
330
17
100
AcDbEntity
  8
0
100
AcDbLine
 10
-5.9613266810928
 20
5.9285523983585104
 30
0.0
 11
-4.507701930554149
 21
6.116662890901248
 31
0.0
  0
LINE
  5
116
330
17
100
AcDbEntity
  8
0
100
AcDbLine
 10
-4.507701930554152
 20
6.11666289090125
 30
0.0
 11
-4.278143740446151
 21
6.708952915390101
 31
0.0
  0
LINE
  5
117
330
17
100
AcDbEntity
  8
0
100
AcDbLine
 10
-4.27814374044615
 20
6.708952915390101
 30
0.0
 11
-4.7046415842548965
 21
7.197990418998165
 31
0.0
  0
LINE
  5
118
330
17
100
AcDbEntity
  8
0
100
AcDbLine
 10
-4.70464158425489
 20
7.197990418998167
 30
0.0
 11
-7.460690657687111
 21
7.080697446247534
 31
0.0
  0
LINE
  5
119
330
17
100
AcDbEntity
  8
0
100
AcDbLine
 10
-7.460690657687111
 20
7.080697446247531
 30
0.0
 11
-10.216739731119299
 21
7.150656382257727
 31
0.0
  0
LINE
  5
11A
330
17
100
AcDbEntity
  8
0
100
AcDbLine
 10
-10.216739731119317
 20
7.150656382257748
 30
0.0
 11
-10.579716279258287
 21
6.771983393124649
 31
0.0
  0
LINE
  5
11B
330
17
100
AcDbEntity
  8
0
100
AcDbLine
 10
-10.57971627925828
 20
6.771983393124664
 30
0.0
 11
-10.46101342156052
 21
6.156394116112247
 31
0.0
  0
LINE
  5
11C
330
17
100
AcDbEntity
  8
0
100
AcDbLine
 10
-10.4610134215605
 20
6.156394116112247
 30
0.0
 11
-8.439869657652752
 21
5.916780415217673
 31
0.0
  0
LINE
  5
11D
330
17
100
AcDbEntity
  8
0
100
AcDbLine
 10
-8.439869657652752
 20
5.916780415217681
 30
0.0
 11
-10.332254357866642
 21
-3.9797345591252338
 31
0.0
  0
LINE
  5
11E
330
17
100
AcDbEntity
  8
0
100
AcDbLine
 10
-10.33225435786667
 20
-3.97973455912527
 30
0.0
 11
-14.81673547527552
 21
6.886517079211042
 31
0.0
  0
LINE
  5
11F
330
17
100
AcDbEntity
  8
0
100
AcDbLine
 10
-14.8167354752755
 20
6.886517079211047
 30
0.0
 11
-15.5431793894886
 21
6.838692224535367
 31
0.0
  0
LINE
  5
120
330
17
100
AcDbEntity
  8
0
100
AcDbLine
 10
-15.543179389488651
 20
6.8386922245353885
 30
0.0
 11
-16.96818916862894
 21
2.9092477072698335
 31
0.0
  0
LINE
  5
121
330
17
100
AcDbEntity
  8
0
100
AcDbLine
 10
-16.9681891686289
 20
2.90924770726982
 30
0.0
 11
-17.536763656811697
 21
3.4022019473613536
 31
0.0
  0
LINE
  5
122
330
17
100
AcDbEntity
  8
0
100
AcDbLine
 10
-17.5367636568117
 20
3.4022019473613483
 30
0.0
 11
-18.404591639965094
 21
3.9839984790534704
 31
0.0
  0
LINE
  5
123
330
17
100
AcDbEntity
  8
0
100
AcDbLine
 10
-18.404591639965094
 20
3.983998479053475
 30
0.0
 11
-20.456763996062104
 21
4.967521843434562
 31
0.0
  0
LINE
  5
124
330
17
100
AcDbEntity
  8
0
100
AcDbLine
 10
-20.456763996062104
 20
4.967521843434564
 30
0.0
 11
-21.08532426627441
 21
5.167970960660028
 31
0.0
  0
LINE
  5
125
330
17
100
AcDbEntity
  8
0
100
AcDbLine
 10
-21.085324266274466
 20
5.167970960660041
 30
0.0
 11
-21.189676835044928
 21
5.946456129642129
 31
0.0
  0
LINE
  5
126
330
17
100
AcDbEntity
  8
0
100
AcDbLine
 10
-21.189676835044995
 20
5.946456129642098
 30
0.0
 11
-19.163138245106698
 21
6.16497786830261
 31
0.0
  0
LINE
  5
127
330
17
100
AcDbEntity
  8
0
100
AcDbLine
 10
-19.163138245106712
 20
6.164977868302614
 30
0.0
 11
-18.958104961941295
 21
6.859048655076097
 31
0.0
  0
LINE
  5
128
330
17
100
AcDbEntity
  8
0
100
AcDbLine
 10
-18.958104961941288
 20
6.859048655076113
 30
0.0
 11
-19.353210618971364
 21
7.246059987431961
 31
0.0
  0
LINE
  5
129
330
17
100
AcDbEntity
  8
0
100
AcDbLine
 10
-19.353210618971403
 20
7.246059987431917
 30
0.0
 11
-21.8878250257705
 21
7.155438728683385
 31
0.0
  0
LINE
  5
12A
330
17
100
AcDbEntity
  8
0
100
AcDbLine
 10
-21.8878250257705
 20
7.155438728683381
 30
0.0
 11
-24.4218874361949
 21
7.252437144542339
 31
0.0
  0
LINE
  5
12B
330
17
100
AcDbEntity
  8
0
100
AcDbLine
 10
-24.421887436194893
 20
7.252437144542332
 30
0.0
 11
-24.785845620204302
 21
6.873273337474033
 31
0.0
  0
LINE
  5
12C
330
17
100
AcDbEntity
  8
0
100
AcDbLine
 10
-24.785845620204228
 20
6.873273337474038
 30
0.0
 11
-24.707364110443176
 21
6.2338946852123645
 31
0.0
  0
LINE
  5
12D
330
17
100
AcDbEntity
  8
0
100
AcDbLine
 10
-24.707364110443297
 20
6.233894685212363
 30
0.0
 11
-23.1083036097652
 21
6.012674838327111
 31
0.0
  0
LINE
  5
12E
330
17
100
AcDbEntity
  8
0
100
AcDbLine
 10
-23.108303609765244
 20
6.012674838327101
 30
0.0
 11
-23.06206711871435
 21
5.774938869079509
 31
0.0
  0
LINE
  5
12F
330
17
100
AcDbEntity
  8
0
100
AcDbLine
 10
-23.0620671187143
 20
5.774938869079524
 30
0.0
 11
-25.4441666468023
 21
6.283642489475677
 31
0.0
  0
LINE
  5
130
330
17
100
AcDbEntity
  8
0
100
AcDbLine
 10
-25.4441666468023
 20
6.283642489475668
 30
0.0
 11
-28.160535245320002
 21
6.655867410125238
 31
0.0
  0
LINE
  5
131
330
17
100
AcDbEntity
  8
0
100
AcDbLine
 10
-28.160535245320002
 20
6.655867410125237
 30
0.0
 11
-30.8794420538681
 21
6.863953358380797
 31
0.0
  0
LINE
  5
132
330
17
100
AcDbEntity
  8
0
100
AcDbLine
 10
-30.8794420538681
 20
6.863953358380804
 30
0.0
 11
-33.294858613776995
 21
6.887184480369434
 31
0.0
  0
LINE
  5
133
330
17
100
AcDbEntity
  8
0
100
AcDbLine
 10
-33.294858613776995
 20
6.887184480369444
 30
0.0
 11
-35.897639011182704
 21
6.7201346656314636
 31
0.0
  0
LINE
  5
134
330
17
100
AcDbEntity
  8
0
100
AcDbLine
 10
-35.897639011182704
 20
6.720134665631466
 30
0.0
 11
-38.538144954276504
 21
6.344852213424973
 31
0.0
  0
LINE
  5
135
330
17
100
AcDbEntity
  8
0
100
AcDbLine
 10
-38.538144954276504
 20
6.344852213424982
 30
0.0
 11
-41.0667367608306
 21
5.743385423008118
 31
0.0
  0
LINE
  5
136
330
17
100
AcDbEntity
  8
0
100
AcDbLine
 10
-41.0667367608306
 20
5.7433854230081165
 30
0.0
 11
-41.13483943707231
 21
5.717983218436214
 31
0.0
  0
LINE
  5
137
330
17
100
AcDbEntity
  8
0
100
AcDbLine
 10
-55.1459166685154
 20
7.5482140433353475
 30
0.0
 11
-52.864711005513
 21
7.290942020124772
 31
0.0
  0
LINE
  5
138
330
17
100
AcDbEntity
  8
0
100
AcDbLine
 10
-52.864711005513
 20
7.290942020124768
 30
0.0
 11
-50.699940426689004
 21
7.264699945618392
 31
0.0
  0
LINE
  5
139
330
17
100
AcDbEntity
  8
0
100
AcDbLine
 10
-50.69994042668896
 20
7.264699945618397
 30
0.0
 11
-50.794608500169836
 21
-12.0728919765276
 31
0.0
  0
LINE
  5
13A
330
17
100
AcDbEntity
  8
0
100
AcDbLine
 10
-50.7946085001698
 20
-12.072891976527544
 30
0.0
 11
-51.9627565764601
 21
-12.097172169712055
 31
0.0
  0
LINE
  5
13B
330
17
100
AcDbEntity
  8
0
100
AcDbLine
 10
-51.96275657646011
 20
-12.097172169712106
 30
0.0
 11
-52.493755537483494
 21
-11.048733614533495
 31
0.0
  0
LINE
  5
13C
330
17
100
AcDbEntity
  8
0
100
AcDbLine
 10
-52.49375553748353
 20
-11.048733614533507
 30
0.0
 11
-52.77988362307087
 21
-9.93882463182811
 31
0.0
  0
LINE
  5
13D
330
17
100
AcDbEntity
  8
0
100
AcDbLine
 10
-52.77988362307087
 20
-9.938824631828096
 30
0.0
 11
-52.86809111429652
 21
-8.78249303208919
 31
0.0
  0
LINE
  5
13E
330
17
100
AcDbEntity
  8
0
100
AcDbLine
 10
-52.86809111429646
 20
-8.78249303208919
 30
0.0
 11
-52.80532898744434
 21
-7.594788016229164
 31
0.0
  0
LINE
  5
13F
330
17
100
AcDbEntity
  8
0
100
AcDbLine
 10
-52.80532898744439
 20
-7.594788016229162
 30
0.0
 11
-52.414699784642416
 21
-5.185452454166668
 31
0.0
  0
LINE
  5
140
330
17
100
AcDbEntity
  8
0
100
AcDbLine
 10
-52.41469978464242
 20
-5.185452454166666
 30
0.0
 11
-51.983603129726575
 21
-2.831207381682395
 31
0.0
  0
LINE
  5
141
330
17
100
AcDbEntity
  8
0
100
AcDbLine
 10
-51.98360312972655
 20
-2.831207381682395
 30
0.0
 11
-51.84867825262244
 21
-1.433126397342046
 31
0.0
  0
LINE
  5
142
330
17
100
AcDbEntity
  8
0
100
AcDbLine
 10
-51.84867825262241
 20
-1.43312639734205
 30
0.0
 11
-51.85329235833938
 21
-0.07252972097943722
 31
0.0
  0
LINE
  5
143
330
17
100
AcDbEntity
  8
0
100
AcDbLine
 10
-51.85329235833943
 20
-0.07252972097944044
 30
0.0
 11
-52.00342146808336
 21
1.2549464776880535
 31
0.0
  0
LINE
  5
144
330
17
100
AcDbEntity
  8
0
100
AcDbLine
 10
-52.00342146808338
 20
1.2549464776880415
 30
0.0
 11
-52.305040212641
 21
2.553664638523878
 31
0.0
  0
LINE
  5
145
330
17
100
AcDbEntity
  8
0
100
AcDbLine
 10
-52.30504021264099
 20
2.553664638523883
 30
0.0
 11
-52.76412391800861
 21
3.827987896601128
 31
0.0
  0
LINE
  5
146
330
17
100
AcDbEntity
  8
0
100
AcDbLine
 10
-52.764123918008615
 20
3.8279878966011243
 30
0.0
 11
-53.38664721497299
 21
5.082277996573736
 31
0.0
  0
LINE
  5
147
330
17
100
AcDbEntity
  8
0
100
AcDbLine
 10
-53.38664721497295
 20
5.082277996573762
 30
0.0
 11
-54.17858681994947
 21
6.3208994639338405
 31
0.0
  0
LINE
  5
148
330
17
100
AcDbEntity
  8
0
100
AcDbLine
 10
-54.17858681994947
 20
6.3208994639338405
 30
0.0
 11
-55.14591666851536
 21
7.548214043335367
 31
0.0
  0
LINE
  5
149
330
17
100
AcDbEntity
  8
0
100
AcDbLine
 10
-53.21527180647709
 20
-0.21875522915623308
 30
0.0
 11
-54.48789805806719
 21
0.4169450694293036
 31
0.0
  0
LINE
  5
14A
330
17
100
AcDbEntity
  8
0
100
AcDbLine
 10
-54.48789805806716
 20
0.41694506942928644
 30
0.0
 11
-54.49344722061544
 21
2.4895920416888595
 31
0.0
  0
LINE
  5
14B
330
17
100
AcDbEntity
  8
0
100
AcDbLine
 10
-54.49344722061545
 20
2.4895920416888657
 30
0.0
 11
-54.74271807723015
 21
4.637286883791454
 31
0.0
  0
LINE
  5
14C
330
17
100
AcDbEntity
  8
0
100
AcDbLine
 10
-54.74271807723021
 20
4.637286883791443
 30
0.0
 11
-54.093049628566995
 21
3.2561432894741325
 31
0.0
  0
LINE
  5
14D
330
17
100
AcDbEntity
  8
0
100
AcDbLine
 10
-54.093049628566945
 20
3.2561432894741493
 30
0.0
 11
-53.63934754024846
 21
2.001044660806525
 31
0.0
  0
LINE
  5
14E
330
17
100
AcDbEntity
  8
0
100
AcDbLine
 10
-53.63934754024845
 20
2.0010446608065218
 30
0.0
 11
-53.35546915273255
 21
0.8500571368016004
 31
0.0
  0
LINE
  5
14F
330
17
100
AcDbEntity
  8
0
100
AcDbLine
 10
-53.35546915273254
 20
0.850057136801597
 30
0.0
 11
-53.21527180647706
 21
-0.2187552291562494
 31
0.0
  0
LINE
  5
150
330
17
100
AcDbEntity
  8
0
100
AcDbLine
 10
-54.5332702134858
 20
-0.29061486804881276
 30
0.0
 11
-53.187803382342196
 21
-0.9689885186186364
 31
0.0
  0
LINE
  5
151
330
17
100
AcDbEntity
  8
0
100
AcDbLine
 10
-53.18780338234213
 20
-0.9689885186186397
 30
0.0
 11
-53.26088937086326
 21
-2.2001670726434623
 31
0.0
  0
LINE
  5
152
330
17
100
AcDbEntity
  8
0
100
AcDbLine
 10
-53.260889370863296
 20
-2.200167072643455
 30
0.0
 11
-54.6404464970103
 21
-1.3991654113130454
 31
0.0
  0
LINE
  5
153
330
17
100
AcDbEntity
  8
0
100
AcDbLine
 10
-54.640446497010274
 20
-1.3991654113130423
 30
0.0
 11
-54.53327021348572
 21
-0.29061486804881875
 31
0.0
  0
LINE
  5
154
330
17
100
AcDbEntity
  8
0
100
AcDbLine
 10
-54.728002576897
 20
-2.102065359244529
 30
0.0
 11
-53.3560482622794
 21
-2.9082171328472715
 31
0.0
  0
LINE
  5
155
330
17
100
AcDbEntity
  8
0
100
AcDbLine
 10
-53.35604826227945
 20
-2.9082171328472617
 30
0.0
 11
-53.552497098044945
 21
-4.0287857634294735
 31
0.0
  0
LINE
  5
156
330
17
100
AcDbEntity
  8
0
100
AcDbLine
 10
-53.55249709804489
 20
-4.028785763429455
 30
0.0
 11
-54.897473806462784
 21
-3.247895123672162
 31
0.0
  0
LINE
  5
157
330
17
100
AcDbEntity
  8
0
100
AcDbLine
 10
-54.8974738064628
 20
-3.24789512367219
 30
0.0
 11
-54.728002576897
 21
-2.10206535924453
 31
0.0
  0
LINE
  5
158
330
17
100
AcDbEntity
  8
0
100
AcDbLine
 10
-55.00955479329208
 20
-3.938286861559959
 30
0.0
 11
-53.68272722512539
 21
-4.715008329705895
 31
0.0
  0
LINE
  5
159
330
17
100
AcDbEntity
  8
0
100
AcDbLine
 10
-53.682727225125355
 20
-4.715008329705918
 30
0.0
 11
-53.932151027838856
 21
-6.166915217471218
 31
0.0
  0
LINE
  5
15A
330
17
100
AcDbEntity
  8
0
100
AcDbLine
 10
-53.93215102783891
 20
-6.166915217471228
 30
0.0
 11
-55.25799765534462
 21
-5.396570906435731
 31
0.0
  0
LINE
  5
15B
330
17
100
AcDbEntity
  8
0
100
AcDbLine
 10
-55.25799765534459
 20
-5.396570906435713
 30
0.0
 11
-55.00955479329202
 21
-3.9382868615600133
 31
0.0
  0
LINE
  5
15C
330
17
100
AcDbEntity
  8
0
100
AcDbLine
 10
-55.376455799284315
 20
-6.082793472712154
 30
0.0
 11
-54.02436709727222
 21
-6.876191627303588
 31
0.0
  0
LINE
  5
15D
330
17
100
AcDbEntity
  8
0
100
AcDbLine
 10
-54.0243670972722
 20
-6.87619162730357
 30
0.0
 11
-54.13473161174719
 21
-8.626052810141159
 31
0.0
  0
LINE
  5
15E
330
17
100
AcDbEntity
  8
0
100
AcDbLine
 10
-54.13473161174724
 20
-8.62605281014116
 30
0.0
 11
-54.042760951281565
 21
-10.631776131242203
 31
0.0
  0
LINE
  5
15F
330
17
100
AcDbEntity
  8
0
100
AcDbLine
 10
-54.04276095128155
 20
-10.631776131242223
 30
0.0
 11
-55.61263586026083
 21
-7.488592673365563
 31
0.0
  0
LINE
  5
160
330
17
100
AcDbEntity
  8
0
100
AcDbLine
 10
-55.612635860260745
 20
-7.4885926733655594
 30
0.0
 11
-55.37645579928425
 21
-6.082793472712138
 31
0.0
  0
LINE
  5
161
330
17
100
AcDbEntity
  8
0
100
AcDbLine
 10
28.873641600440536
 20
5.4889064933711795
 30
0.0
 11
28.874886446194864
 21
5.82505516371963
 31
0.0
  0
LINE
  5
162
330
17
100
AcDbEntity
  8
0
100
AcDbLine
 10
28.8748864461948
 20
5.825055163719626
 30
0.0
 11
30.9004447906816
 21
6.014391310681394
 31
0.0
  0
LINE
  5
163
330
17
100
AcDbEntity
  8
0
100
AcDbLine
 10
30.900444790681522
 20
6.014391310681429
 30
0.0
 11
31.11381641706969
 21
6.590984894176124
 31
0.0
  0
LINE
  5
164
330
17
100
AcDbEntity
  8
0
100
AcDbLine
 10
31.113816417069742
 20
6.590984894176151
 30
0.0
 11
30.73440720103386
 21
7.095964247745901
 31
0.0
  0
LINE
  5
165
330
17
100
AcDbEntity
  8
0
100
AcDbLine
 10
30.7344072010339
 20
7.09596424774593
 30
0.0
 11
27.7260220921251
 21
7.013865562748256
 31
0.0
  0
LINE
  5
166
330
17
100
AcDbEntity
  8
0
100
AcDbLine
 10
27.7260220921251
 20
7.013865562748252
 30
0.0
 11
24.717084986841503
 21
7.119754318204729
 31
0.0
  0
LINE
  5
167
330
17
100
AcDbEntity
  8
0
100
AcDbLine
 10
24.71708498684155
 20
7.119754318204687
 30
0.0
 11
24.353617620767352
 21
6.7410813290716085
 31
0.0
  0
LINE
  5
168
330
17
100
AcDbEntity
  8
0
100
AcDbLine
 10
24.35361762076736
 20
6.7410813290716725
 30
0.0
 11
24.488016919459238
 21
6.053632413166697
 31
0.0
  0
LINE
  5
169
330
17
100
AcDbEntity
  8
0
100
AcDbLine
 10
24.488016919459202
 20
6.053632413166688
 30
0.0
 11
26.5246117153935
 21
5.833884324877621
 31
0.0
  0
LINE
  5
16A
330
17
100
AcDbEntity
  8
0
100
AcDbLine
 10
26.524611715393554
 20
5.83388432487763
 30
0.0
 11
26.519956466025647
 21
4.6242014608288
 31
0.0
  0
LINE
  5
16B
330
17
100
AcDbEntity
  8
0
100
AcDbLine
 10
26.51995646602552
 20
4.624201460828757
 30
0.0
 11
26.508507881608907
 21
4.61993097762534
 31
0.0
  0
LINE
  5
16C
330
17
100
AcDbEntity
  8
0
100
AcDbLine
 10
26.5085078816089
 20
4.619930977625362
 30
0.0
 11
25.519808682202502
 21
4.0999490021823775
 31
0.0
  0
LINE
  5
16D
330
17
100
AcDbEntity
  8
0
100
AcDbLine
 10
25.51980868220249
 20
4.099949002182397
 30
0.0
 11
24.65260569242558
 21
3.5121966103611144
 31
0.0
  0
LINE
  5
16E
330
17
100
AcDbEntity
  8
0
100
AcDbLine
 10
24.652605692425606
 20
3.512196610361082
 30
0.0
 11
23.92560908662814
 21
2.854425494509127
 31
0.0
  0
LINE
  5
16F
330
17
100
AcDbEntity
  8
0
100
AcDbLine
 10
23.92560908662817
 20
2.8544254945091154
 30
0.0
 11
23.357528343950747
 21
2.1243887373933035
 31
0.0
  0
LINE
  5
170
330
17
100
AcDbEntity
  8
0
100
AcDbLine
 10
23.357528343950666
 20
2.1243887373933577
 30
0.0
 11
22.967072248324154
 21
1.319838726570783
 31
0.0
  0
LINE
  5
171
330
17
100
AcDbEntity
  8
0
100
AcDbLine
 10
22.967072248324218
 20
1.3198387265707563
 30
0.0
 11
22.77295166930818
 21
0.4385271543890746
 31
0.0
  0
LINE
  5
172
330
17
100
AcDbEntity
  8
0
100
AcDbLine
 10
22.772951669308107
 20
0.4385271543890687
 30
0.0
 11
22.796943350533496
 21
-0.5001100060419407
 31
0.0
  0
LINE
  5
173
330
17
100
AcDbEntity
  8
0
100
AcDbLine
 10
22.79694335053354
 20
-0.5001100060419552
 30
0.0
 11
23.045361185042673
 21
-1.3676765904082782
 31
0.0
  0
LINE
  5
174
330
17
100
AcDbEntity
  8
0
100
AcDbLine
 10
23.04536118504274
 20
-1.3676765904082486
 30
0.0
 11
23.49729952675823
 21
-2.165764628556521
 31
0.0
  0
LINE
  5
175
330
17
100
AcDbEntity
  8
0
100
AcDbLine
 10
23.497299526758173
 20
-2.165764628556562
 30
0.0
 11
24.131853424812263
 21
-2.8959661503334035
 31
0.0
  0
LINE
  5
176
330
17
100
AcDbEntity
  8
0
100
AcDbLine
 10
24.131853424812316
 20
-2.8959661503333516
 30
0.0
 11
24.92811723312763
 21
-3.5598724903757657
 31
0.0
  0
LINE
  5
177
330
17
100
AcDbEntity
  8
0
100
AcDbLine
 10
24.928117233127608
 20
-3.5598724903757883
 30
0.0
 11
25.865186000836324
 21
-4.159075678530369
 31
0.0
  0
LINE
  5
178
330
17
100
AcDbEntity
  8
0
100
AcDbLine
 10
25.865186000836303
 20
-4.159075678530403
 30
0.0
 11
26.4850661073633
 21
-4.442180521886296
 31
0.0
  0
LINE
  5
179
330
17
100
AcDbEntity
  8
0
100
AcDbLine
 10
26.48506610736334
 20
-4.44218052188629
 30
0.0
 11
26.47850333307206
 21
-6.14754042280093
 31
0.0
  0
LINE
  5
17A
330
17
100
AcDbEntity
  8
0
100
AcDbLine
 10
26.478503333072002
 20
-6.147540422800936
 30
0.0
 11
24.4804141079298
 21
-6.3596856995605435
 31
0.0
  0
LINE
  5
17B
330
17
100
AcDbEntity
  8
0
100
AcDbLine
 10
24.480414107929796
 20
-6.359685699560539
 30
0.0
 11
24.27587164269961
 21
-6.983613319795734
 31
0.0
  0
LINE
  5
17C
330
17
100
AcDbEntity
  8
0
100
AcDbLine
 10
24.27587164269961
 20
-6.983613319795719
 30
0.0
 11
24.69378573431794
 21
-7.425316786663313
 31
0.0
  0
LINE
  5
17D
330
17
100
AcDbEntity
  8
0
100
AcDbLine
 10
24.693785734317903
 20
-7.425316786663352
 30
0.0
 11
27.6649840849322
 21
-7.33831270315143
 31
0.0
  0
LINE
  5
17E
330
17
100
AcDbEntity
  8
0
100
AcDbLine
 10
27.6649840849322
 20
-7.338312703151432
 30
0.0
 11
30.6240426865589
 21
-7.42531678666335
 31
0.0
  0
LINE
  5
17F
330
17
100
AcDbEntity
  8
0
100
AcDbLine
 10
30.624042686558866
 20
-7.425316786663317
 30
0.0
 11
30.994622741436732
 21
-7.007157981286947
 31
0.0
  0
LINE
  5
180
330
17
100
AcDbEntity
  8
0
100
AcDbLine
 10
30.99462274143674
 20
-7.007157981286911
 30
0.0
 11
30.861203688196262
 21
-6.399907742706798
 31
0.0
  0
LINE
  5
181
330
17
100
AcDbEntity
  8
0
100
AcDbLine
 10
30.861203688196298
 20
-6.399907742706797
 30
0.0
 11
28.8304952314372
 21
-6.162010514166495
 31
0.0
  0
LINE
  5
182
330
17
100
AcDbEntity
  8
0
100
AcDbLine
 10
28.830495231437215
 20
-6.162010514166489
 30
0.0
 11
28.833316046032383
 21
-5.40029921606348
 31
0.0
  0
LINE
  5
183
330
17
100
AcDbEntity
  8
0
100
AcDbLine
 10
28.8333160460324
 20
-5.400299216063483
 30
0.0
 11
30.603399829687604
 21
-5.940696118783799
 31
0.0
  0
LINE
  5
184
330
17
100
AcDbEntity
  8
0
100
AcDbLine
 10
30.6033998296876
 20
-5.9406961187838085
 30
0.0
 11
33.2737970021632
 21
-6.484677422757134
 31
0.0
  0
LINE
  5
185
330
17
100
AcDbEntity
  8
0
100
AcDbLine
 10
33.2737970021632
 20
-6.484677422757138
 30
0.0
 11
35.9220628741425
 21
-6.814418783626854
 31
0.0
  0
LINE
  5
186
330
17
100
AcDbEntity
  8
0
100
AcDbLine
 10
35.9220628741425
 20
-6.814418783626853
 30
0.0
 11
38.3809564482639
 21
-6.942655744956177
 31
0.0
  0
LINE
  5
187
330
17
100
AcDbEntity
  8
0
100
AcDbLine
 10
38.3809564482639
 20
-6.942655744956168
 30
0.0
 11
40.7858822962141
 21
-6.901575813237571
 31
0.0
  0
LINE
  5
188
330
17
100
AcDbEntity
  8
0
100
AcDbLine
 10
40.7858822962141
 20
-6.901575813237575
 30
0.0
 11
43.424629359171696
 21
-6.701432633976506
 31
0.0
  0
LINE
  5
189
330
17
100
AcDbEntity
  8
0
100
AcDbLine
 10
43.424629359171696
 20
-6.7014326339765065
 30
0.0
 11
46.1248294694176
 21
-6.317647769095821
 31
0.0
  0
LINE
  5
18A
330
17
100
AcDbEntity
  8
0
100
AcDbLine
 10
46.1248294694176
 20
-6.3176477690958155
 30
0.0
 11
48.54957096940869
 21
-5.763262568232625
 31
0.0
  0
LINE
  5
18B
330
17
100
AcDbEntity
  8
0
100
AcDbLine
 10
48.54957096940872
 20
-5.763262568232639
 30
0.0
 11
48.56147564304948
 21
-6.2216073519829775
 31
0.0
  0
LINE
  5
18C
330
17
100
AcDbEntity
  8
0
100
AcDbLine
 10
48.5614756430494
 20
-6.221607351982981
 30
0.0
 11
46.5523499664596
 21
-6.422716177295099
 31
0.0
  0
LINE
  5
18D
330
17
100
AcDbEntity
  8
0
100
AcDbLine
 10
46.55234996645965
 20
-6.422716177295112
 30
0.0
 11
46.39391518834135
 21
-6.999555169757474
 31
0.0
  0
LINE
  5
18E
330
17
100
AcDbEntity
  8
0
100
AcDbLine
 10
46.39391518834136
 20
-6.999555169757423
 30
0.0
 11
46.713972975528414
 21
-7.469708001420951
 31
0.0
  0
LINE
  5
18F
330
17
100
AcDbEntity
  8
0
100
AcDbLine
 10
46.7139729755284
 20
-7.46970800142096
 30
0.0
 11
50.8244403981412
 21
-7.63868841305152
 31
0.0
  0
LINE
  5
190
330
17
100
AcDbEntity
  8
0
100
AcDbLine
 10
50.8244403981412
 20
-7.638688413051529
 30
0.0
 11
59.58469030090778
 21
3.443387550930076
 31
0.0
  0
LINE
  5
191
330
17
100
AcDbEntity
  8
0
100
AcDbLine
 10
59.584690300907816
 20
3.4433875509300593
 30
0.0
 11
59.446121830604575
 21
-6.259866818597799
 31
0.0
  0
LINE
  5
192
330
17
100
AcDbEntity
  8
0
100
AcDbLine
 10
59.446121830604596
 20
-6.259866818597805
 30
0.0
 11
57.338158213713
 21
-6.485992063997275
 31
0.0
  0
LINE
  5
193
330
17
100
AcDbEntity
  8
0
100
AcDbLine
 10
57.33815821371296
 20
-6.485992063997256
 30
0.0
 11
57.11767389852104
 21
-7.157253720972871
 31
0.0
  0
LINE
  5
194
330
17
100
AcDbEntity
  8
0
100
AcDbLine
 10
57.11767389852108
 20
-7.1572537209729
 30
0.0
 11
57.48016032393431
 21
-7.560206903290463
 31
0.0
  0
LINE
  5
195
330
17
100
AcDbEntity
  8
0
100
AcDbLine
 10
57.4801603239343
 20
-7.560206903290472
 30
0.0
 11
60.1040785674037
 21
-7.476452924378047
 31
0.0
  0
LINE
  5
196
330
17
100
AcDbEntity
  8
0
100
AcDbLine
 10
60.1040785674037
 20
-7.476452924378049
 30
0.0
 11
62.7276283498168
 21
-7.580317924863574
 31
0.0
  0
LINE
  5
197
330
17
100
AcDbEntity
  8
0
100
AcDbLine
 10
62.72762834981678
 20
-7.580317924863556
 30
0.0
 11
63.11856483523546
 21
-7.20458775771331
 31
0.0
  0
LINE
  5
198
330
17
100
AcDbEntity
  8
0
100
AcDbLine
 10
63.11856483523548
 20
-7.2045877577133535
 30
0.0
 11
62.98465565926931
 21
-6.5257232892082815
 31
0.0
  0
LINE
  5
199
330
17
100
AcDbEntity
  8
0
100
AcDbLine
 10
62.98465565926931
 20
-6.5257232892082815
 30
0.0
 11
61.4697175985599
 21
-6.315294484802922
 31
0.0
  0
LINE
  5
19A
330
17
100
AcDbEntity
  8
0
100
AcDbLine
 10
61.469717598559846
 20
-6.315294484802925
 30
0.0
 11
61.262270547871545
 21
-3.7322038119891547
 31
0.0
  0
LINE
  5
19B
330
17
100
AcDbEntity
  8
0
100
AcDbLine
 10
61.26227054787164
 20
-3.7322038119891485
 30
0.0
 11
61.15438167456857
 21
-0.3010993231215269
 31
0.0
  0
LINE
  5
19C
330
17
100
AcDbEntity
  8
0
100
AcDbLine
 10
61.15438167456859
 20
-0.30109932312152843
 30
0.0
 11
61.03733341557602
 21
7.833935431341793
 31
0.0
  0
LINE
  5
19D
330
17
100
AcDbEntity
  8
0
100
AcDbLine
 10
61.037333415576
 20
7.833935431341794
 30
0.0
 11
60.427630477738795
 21
8.055155278227026
 31
0.0
  0
LINE
  5
19E
330
17
100
AcDbEntity
  8
0
100
AcDbLine
 10
60.42763047773875
 20
8.055155278227083
 30
0.0
 11
54.2823009055889
 21
0.4905016843030947
 31
0.0
  0
LINE
  5
19F
330
17
100
AcDbEntity
  8
0
100
AcDbLine
 10
54.282300905588905
 20
0.4905016843030888
 30
0.0
 11
54.1116636254009
 21
0.9892165352138871
 31
0.0
  0
LINE
  5
1A0
330
17
100
AcDbEntity
  8
0
100
AcDbLine
 10
54.11166362540091
 20
0.9892165352138905
 30
0.0
 11
53.65607682401949
 21
1.7683566373494546
 31
0.0
  0
LINE
  5
1A1
330
17
100
AcDbEntity
  8
0
100
AcDbLine
 10
53.656076824019486
 20
1.768356637349447
 30
0.0
 11
53.04937858181411
 21
2.4792181249330296
 31
0.0
  0
LINE
  5
1A2
330
17
100
AcDbEntity
  8
0
100
AcDbLine
 10
53.04937858181411
 20
2.479218124933036
 30
0.0
 11
52.30524992732249
 21
3.124282200812803
 31
0.0
  0
LINE
  5
1A3
330
17
100
AcDbEntity
  8
0
100
AcDbLine
 10
52.305249927322514
 20
3.1242822008128286
 30
0.0
 11
51.43736980345362
 21
3.7060293726276172
 31
0.0
  0
LINE
  5
1A4
330
17
100
AcDbEntity
  8
0
100
AcDbLine
 10
51.437369803453606
 20
3.706029372627607
 30
0.0
 11
50.21197323494711
 21
4.293242017403594
 31
0.0
  0
LINE
  5
1A5
330
17
100
AcDbEntity
  8
0
100
AcDbLine
 10
50.21197323494716
 20
4.293242017403578
 30
0.0
 11
50.254714094482644
 21
5.695805977300078
 31
0.0
  0
LINE
  5
1A6
330
17
100
AcDbEntity
  8
0
100
AcDbLine
 10
50.2547140944826
 20
5.695805977300075
 30
0.0
 11
52.442875693489505
 21
5.9032912645130775
 31
0.0
  0
LINE
  5
1A7
330
17
100
AcDbEntity
  8
0
100
AcDbLine
 10
52.442875693489476
 20
5.903291264513088
 30
0.0
 11
52.631721717725526
 21
6.550763546239452
 31
0.0
  0
LINE
  5
1A8
330
17
100
AcDbEntity
  8
0
100
AcDbLine
 10
52.63172171772556
 20
6.550763546239395
 30
0.0
 11
52.29277995380348
 21
6.9539621375246154
 31
0.0
  0
LINE
  5
1A9
330
17
100
AcDbEntity
  8
0
100
AcDbLine
 10
52.292779953803496
 20
6.953962137524623
 30
0.0
 11
49.5412678178293
 21
6.8841867368329765
 31
0.0
  0
LINE
  5
1AA
330
17
100
AcDbEntity
  8
0
100
AcDbLine
 10
49.5412678178293
 20
6.884186736832984
 30
0.0
 11
46.7890208453714
 21
7.00129617426506
 31
0.0
  0
LINE
  5
1AB
330
17
100
AcDbEntity
  8
0
100
AcDbLine
 10
46.789020845371404
 20
7.00129617426505
 30
0.0
 11
46.393915188341346
 21
6.55885648049453
 31
0.0
  0
LINE
  5
1AC
330
17
100
AcDbEntity
  8
0
100
AcDbLine
 10
46.393915188341325
 20
6.558856480494577
 30
0.0
 11
46.559952777989075
 21
5.943512612449766
 31
0.0
  0
LINE
  5
1AD
330
17
100
AcDbEntity
  8
0
100
AcDbLine
 10
46.559952777989096
 20
5.943512612449773
 30
0.0
 11
48.2507385301652
 21
5.742159073379577
 31
0.0
  0
LINE
  5
1AE
330
17
100
AcDbEntity
  8
0
100
AcDbLine
 10
48.25073853016514
 20
5.742159073379579
 30
0.0
 11
48.26883419098746
 21
5.04545356118185
 31
0.0
  0
LINE
  5
1AF
330
17
100
AcDbEntity
  8
0
100
AcDbLine
 10
48.268834190987505
 20
5.045453561181861
 30
0.0
 11
47.0019211196914
 21
5.4494612576392685
 31
0.0
  0
LINE
  5
1B0
330
17
100
AcDbEntity
  8
0
100
AcDbLine
 10
47.001921119691396
 20
5.4494612576392605
 30
0.0
 11
44.397354728977604
 21
6.005772798014018
 31
0.0
  0
LINE
  5
1B1
330
17
100
AcDbEntity
  8
0
100
AcDbLine
 10
44.397354728977604
 20
6.005772798014021
 30
0.0
 11
41.6808088520272
 21
6.378275802479578
 31
0.0
  0
LINE
  5
1B2
330
17
100
AcDbEntity
  8
0
100
AcDbLine
 10
41.6808088520272
 20
6.3782758024795765
 30
0.0
 11
38.96171920337
 21
6.586815722564763
 31
0.0
  0
LINE
  5
1B3
330
17
100
AcDbEntity
  8
0
100
AcDbLine
 10
38.96171920337
 20
6.586815722564766
 30
0.0
 11
36.546837259597304
 21
6.609743037984414
 31
0.0
  0
LINE
  5
1B4
330
17
100
AcDbEntity
  8
0
100
AcDbLine
 10
36.546837259597304
 20
6.609743037984402
 30
0.0
 11
33.9443996004949
 21
6.442498564575225
 31
0.0
  0
LINE
  5
1B5
330
17
100
AcDbEntity
  8
0
100
AcDbLine
 10
33.9443996004949
 20
6.4424985645752315
 30
0.0
 11
31.304081363976998
 21
6.0671020980042
 31
0.0
  0
LINE
  5
1B6
330
17
100
AcDbEntity
  8
0
100
AcDbLine
 10
31.304081363977
 20
6.067102098004181
 30
0.0
 11
28.873641600440507
 21
5.488906493371156
 31
0.0
  0
LINE
  5
1B7
330
17
100
AcDbEntity
  8
0
100
AcDbLine
 10
29.08018668982361
 20
-3.3246886646701
 30
0.0
 11
27.72458857005361
 21
-2.6773714146711507
 31
0.0
  0
LINE
  5
1B8
330
17
100
AcDbEntity
  8
0
100
AcDbLine
 10
27.724588570053587
 20
-2.677371414671183
 30
0.0
 11
26.785904135373872
 21
-1.9793323718434044
 31
0.0
  0
LINE
  5
1B9
330
17
100
AcDbEntity
  8
0
100
AcDbLine
 10
26.78590413537386
 20
-1.9793323718434013
 30
0.0
 11
26.50234067777958
 21
-1.619602452256247
 31
0.0
  0
LINE
  5
1BA
330
17
100
AcDbEntity
  8
0
100
AcDbLine
 10
26.50234067777959
 20
-1.619602452256234
 30
0.0
 11
26.35832871677813
 21
-1.2571633010916987
 31
0.0
  0
LINE
  5
1BB
330
17
100
AcDbEntity
  8
0
100
AcDbLine
 10
26.358328716778175
 20
-1.257163301091709
 30
0.0
 11
26.352564734482023
 21
-0.8891541310927161
 31
0.0
  0
LINE
  5
1BC
330
17
100
AcDbEntity
  8
0
100
AcDbLine
 10
26.352564734482034
 20
-0.8891541310927547
 30
0.0
 11
26.466827984057357
 21
-0.482746452570904
 31
0.0
  0
LINE
  5
1BD
330
17
100
AcDbEntity
  8
0
100
AcDbLine
 10
26.466827984057346
 20
-0.48274645257091653
 30
0.0
 11
27.040217346782228
 21
0.41147655118764304
 31
0.0
  0
LINE
  5
1BE
330
17
100
AcDbEntity
  8
0
100
AcDbLine
 10
27.040217346782196
 20
0.4114765511876655
 30
0.0
 11
28.048057750453406
 21
1.3579216099624136
 31
0.0
  0
LINE
  5
1BF
330
17
100
AcDbEntity
  8
0
100
AcDbLine
 10
28.048057750453403
 20
1.357921609962414
 30
0.0
 11
29.459910835781113
 21
2.2890046235317603
 31
0.0
  0
LINE
  5
1C0
330
17
100
AcDbEntity
  8
0
100
AcDbLine
 10
29.459910835781116
 20
2.2890046235317425
 30
0.0
 11
31.24533615784692
 21
3.137141491674159
 31
0.0
  0
LINE
  5
1C1
330
17
100
AcDbEntity
  8
0
100
AcDbLine
 10
31.245336157846904
 20
3.137141491674185
 30
0.0
 11
33.37389535736109
 21
3.834748114168134
 31
0.0
  0
LINE
  5
1C2
330
17
100
AcDbEntity
  8
0
100
AcDbLine
 10
33.3738953573611
 20
3.834748114168121
 30
0.0
 11
35.8151479894049
 21
4.314241781211038
 31
0.0
  0
LINE
  5
1C3
330
17
100
AcDbEntity
  8
0
100
AcDbLine
 10
35.8151479894049
 20
4.314241781211045
 30
0.0
 11
38.538654999479306
 21
4.508037697371915
 31
0.0
  0
LINE
  5
1C4
330
17
100
AcDbEntity
  8
0
100
AcDbLine
 10
38.538654999479306
 20
4.508037697371914
 30
0.0
 11
41.3175917613874
 21
4.427754204483183
 31
0.0
  0
LINE
  5
1C5
330
17
100
AcDbEntity
  8
0
100
AcDbLine
 10
41.3175917613874
 20
4.427754204483181
 30
0.0
 11
43.7419042225701
 21
4.1513416722173275
 31
0.0
  0
LINE
  5
1C6
330
17
100
AcDbEntity
  8
0
100
AcDbLine
 10
43.7419042225701
 20
4.1513416722173355
 30
0.0
 11
45.8048481552799
 21
3.7142961092677256
 31
0.0
  0
LINE
  5
1C7
330
17
100
AcDbEntity
  8
0
100
AcDbLine
 10
45.8048481552799
 20
3.7142961092677167
 30
0.0
 11
47.49967655093109
 21
3.1521170003753296
 31
0.0
  0
LINE
  5
1C8
330
17
100
AcDbEntity
  8
0
100
AcDbLine
 10
47.49967655093109
 20
3.152117000375327
 30
0.0
 11
48.8196451817761
 21
2.5003003542335187
 31
0.0
  0
LINE
  5
1C9
330
17
100
AcDbEntity
  8
0
100
AcDbLine
 10
48.819645181776124
 20
2.500300354233545
 30
0.0
 11
49.75800773443882
 21
1.794344960373779
 31
0.0
  0
LINE
  5
1CA
330
17
100
AcDbEntity
  8
0
100
AcDbLine
 10
49.758007734438806
 20
1.794344960373758
 30
0.0
 11
50.308019981171675
 21
1.0697482179083802
 31
0.0
  0
LINE
  5
1CB
330
17
100
AcDbEntity
  8
0
100
AcDbLine
 10
50.30801998117167
 20
1.0697482179083926
 30
0.0
 11
50.462934913388935
 21
0.36200822115945336
 31
0.0
  0
LINE
  5
1CC
330
17
100
AcDbEntity
  8
0
100
AcDbLine
 10
50.46293491338893
 20
0.3620082211594387
 30
0.0
 11
50.202927240638466
 21
-0.5388783660400098
 31
0.0
  0
LINE
  5
1CD
330
17
100
AcDbEntity
  8
0
100
AcDbLine
 10
50.20292724063851
 20
-0.538878366040028
 30
0.0
 11
49.556324666046706
 21
-1.4187320838163304
 31
0.0
  0
LINE
  5
1CE
330
17
100
AcDbEntity
  8
0
100
AcDbLine
 10
49.556324666046685
 20
-1.418732083816308
 30
0.0
 11
48.54556994398378
 21
-2.2527965204500355
 31
0.0
  0
LINE
  5
1CF
330
17
100
AcDbEntity
  8
0
100
AcDbLine
 10
48.54556994398378
 20
-2.252796520450027
 30
0.0
 11
47.1931086096582
 21
-3.0163131785932142
 31
0.0
  0
LINE
  5
1D0
330
17
100
AcDbEntity
  8
0
100
AcDbLine
 10
47.1931086096582
 20
-3.0163131785932187
 30
0.0
 11
45.521382027021204
 21
-3.6845256465264202
 31
0.0
  0
LINE
  5
1D1
330
17
100
AcDbEntity
  8
0
100
AcDbLine
 10
45.521382027021204
 20
-3.6845256465264375
 30
0.0
 11
43.552835731281206
 21
-4.2326768173206935
 31
0.0
  0
LINE
  5
1D2
330
17
100
AcDbEntity
  8
0
100
AcDbLine
 10
43.5528357312812
 20
-4.2326768173206615
 30
0.0
 11
41.3099131720181
 21
-4.6360081936279816
 31
0.0
  0
LINE
  5
1D3
330
17
100
AcDbEntity
  8
0
100
AcDbLine
 10
41.3099131720181
 20
-4.63600819362799
 30
0.0
 11
38.8150571036021
 21
-4.869764058938491
 31
0.0
  0
LINE
  5
1D4
330
17
100
AcDbEntity
  8
0
100
AcDbLine
 10
38.8150571036021
 20
-4.869764058938498
 30
0.0
 11
36.78781565681901
 21
-4.874919732887142
 31
0.0
  0
LINE
  5
1D5
330
17
100
AcDbEntity
  8
0
100
AcDbLine
 10
36.78781565681901
 20
-4.874919732887155
 30
0.0
 11
34.7065126305768
 21
-4.696399655948705
 31
0.0
  0
LINE
  5
1D6
330
17
100
AcDbEntity
  8
0
100
AcDbLine
 10
34.7065126305768
 20
-4.696399655948709
 30
0.0
 11
32.6653440510789
 21
-4.360793507399568
 31
0.0
  0
LINE
  5
1D7
330
17
100
AcDbEntity
  8
0
100
AcDbLine
 10
32.665344051078904
 20
-4.360793507399544
 30
0.0
 11
30.758503858899708
 21
-3.894692356935149
 31
0.0
  0
LINE
  5
1D8
330
17
100
AcDbEntity
  8
0
100
AcDbLine
 10
30.758503858899708
 20
-3.894692356935156
 30
0.0
 11
29.080186689823602
 21
-3.3246886646701137
 31
0.0
  0
LINE
  5
1D9
330
17
100
AcDbEntity
  8
0
100
AcDbLine
 10
19.68053588809002
 20
8.213099238410072
 30
0.0
 11
9.186826185953567
 21
-4.706179168547891
 31
0.0
  0
LINE
  5
1DA
330
17
100
AcDbEntity
  8
0
100
AcDbLine
 10
9.186826185953576
 20
-4.7061791685479
 30
0.0
 11
9.508599750285326
 21
5.85350452851551
 31
0.0
  0
LINE
  5
1DB
330
17
100
AcDbEntity
  8
0
100
AcDbLine
 10
9.50859975028533
 20
5.853504528515508
 30
0.0
 11
11.6967620445018
 21
6.061235224696125
 31
0.0
  0
LINE
  5
1DC
330
17
100
AcDbEntity
  8
0
100
AcDbLine
 10
11.69676204450177
 20
6.061235224696128
 30
0.0
 11
11.885608068737833
 21
6.7089529153901
 31
0.0
  0
LINE
  5
1DD
330
17
100
AcDbEntity
  8
0
100
AcDbLine
 10
11.885608068737834
 20
6.708952915390138
 30
0.0
 11
11.54593007791292
 21
7.1121515066753185
 31
0.0
  0
LINE
  5
1DE
330
17
100
AcDbEntity
  8
0
100
AcDbLine
 10
11.5459300779129
 20
7.112151506675298
 30
0.0
 11
8.794510404807559
 21
7.0418553940381825
 31
0.0
  0
LINE
  5
1DF
330
17
100
AcDbEntity
  8
0
100
AcDbLine
 10
8.794510404807559
 20
7.041855394038177
 30
0.0
 11
6.04217096948078
 21
7.158994725480482
 31
0.0
  0
LINE
  5
1E0
330
17
100
AcDbEntity
  8
0
100
AcDbLine
 10
6.042170969480773
 20
7.158994725480486
 30
0.0
 11
5.648292357288827
 21
6.716800440677632
 31
0.0
  0
LINE
  5
1E1
330
17
100
AcDbEntity
  8
0
100
AcDbLine
 10
5.648292357288828
 20
6.71680044067763
 30
0.0
 11
5.813593720033714
 21
6.1009664499071175
 31
0.0
  0
LINE
  5
1E2
330
17
100
AcDbEntity
  8
0
100
AcDbLine
 10
5.813593720033721
 20
6.1009664499071246
 30
0.0
 11
7.504624185967871
 21
5.900348442530254
 31
0.0
  0
LINE
  5
1E3
330
17
100
AcDbEntity
  8
0
100
AcDbLine
 10
7.504624185967868
 20
5.900348442530249
 30
0.0
 11
7.814871176126431
 21
-6.065135150396119
 31
0.0
  0
LINE
  5
1E4
330
17
100
AcDbEntity
  8
0
100
AcDbLine
 10
7.81487117612643
 20
-6.06513515039612
 30
0.0
 11
5.80550009056903
 21
-6.26550774880538
 31
0.0
  0
LINE
  5
1E5
330
17
100
AcDbEntity
  8
0
100
AcDbLine
 10
5.805500090569029
 20
-6.26550774880538
 30
0.0
 11
5.6482923572888275
 21
-6.841611209574429
 31
0.0
  0
LINE
  5
1E6
330
17
100
AcDbEntity
  8
0
100
AcDbLine
 10
5.648292357288833
 20
-6.8416112095744275
 30
0.0
 11
5.9668776906701515
 21
-7.31200945020554
 31
0.0
  0
LINE
  5
1E7
330
17
100
AcDbEntity
  8
0
100
AcDbLine
 10
5.9668776906701515
 20
-7.312009450205535
 30
0.0
 11
10.0778359312182
 21
-7.4814799845617825
 31
0.0
  0
LINE
  5
1E8
330
17
100
AcDbEntity
  8
0
100
AcDbLine
 10
10.077835931218251
 20
-7.48147998456183
 30
0.0
 11
18.838576651920107
 21
3.6013315111131137
 31
0.0
  0
LINE
  5
1E9
330
17
100
AcDbEntity
  8
0
100
AcDbLine
 10
18.83857665192005
 20
3.60133151111312
 30
0.0
 11
18.69951736368155
 21
-6.102659085317609
 31
0.0
  0
LINE
  5
1EA
330
17
100
AcDbEntity
  8
0
100
AcDbLine
 10
18.6995173636816
 20
-6.102659085317603
 30
0.0
 11
16.5917991557576
 21
-6.328048103814237
 31
0.0
  0
LINE
  5
1EB
330
17
100
AcDbEntity
  8
0
100
AcDbLine
 10
16.591799155757617
 20
-6.328048103814246
 30
0.0
 11
16.37057930887238
 21
-6.999555169757464
 31
0.0
  0
LINE
  5
1EC
330
17
100
AcDbEntity
  8
0
100
AcDbLine
 10
16.37057930887235
 20
-6.999555169757516
 30
0.0
 11
16.734046674946494
 21
-7.402508352075027
 31
0.0
  0
LINE
  5
1ED
330
17
100
AcDbEntity
  8
0
100
AcDbLine
 10
16.7340466749465
 20
-7.402508352075028
 30
0.0
 11
19.357750098668
 21
-7.318539553414754
 31
0.0
  0
LINE
  5
1EE
330
17
100
AcDbEntity
  8
0
100
AcDbLine
 10
19.357750098668
 20
-7.318539553414743
 30
0.0
 11
21.981269291861402
 21
-7.422373964680529
 31
0.0
  0
LINE
  5
1EF
330
17
100
AcDbEntity
  8
0
100
AcDbLine
 10
21.981269291861416
 20
-7.422373964680554
 30
0.0
 11
22.372205082070582
 21
-7.046643797530271
 31
0.0
  0
LINE
  5
1F0
330
17
100
AcDbEntity
  8
0
100
AcDbLine
 10
22.37220508207059
 20
-7.046643797530292
 30
0.0
 11
22.238541315072016
 21
-6.368269451750928
 31
0.0
  0
LINE
  5
1F1
330
17
100
AcDbEntity
  8
0
100
AcDbLine
 10
22.238541315072002
 20
-6.368269451750936
 30
0.0
 11
20.723358540604597
 21
-6.156860401894193
 31
0.0
  0
LINE
  5
1F2
330
17
100
AcDbEntity
  8
0
100
AcDbLine
 10
20.72335854060454
 20
-6.156860401894175
 30
0.0
 11
20.515670252205854
 21
-3.5739185039219556
 31
0.0
  0
LINE
  5
1F3
330
17
100
AcDbEntity
  8
0
100
AcDbLine
 10
20.515670252205826
 20
-3.5739185039219583
 30
0.0
 11
20.407746618425772
 21
-0.142940543190603
 31
0.0
  0
LINE
  5
1F4
330
17
100
AcDbEntity
  8
0
100
AcDbLine
 10
20.40774661842579
 20
-0.14294054319060168
 30
0.0
 11
20.290974357620605
 21
7.991634677766779
 31
0.0
  0
LINE
  5
1F5
330
17
100
AcDbEntity
  8
0
100
AcDbLine
 10
20.29097435762061
 20
7.991634677766808
 30
0.0
 11
19.680535888090017
 21
8.213099238410138
 31
0.0
  0
LINE
  5
1F6
330
17
100
AcDbEntity
  8
0
100
AcDbLine
 10
25.602209088140548
 20
-9.803306045776836
 30
0.0
 11
27.749903930243132
 21
-12.338012220235258
 31
0.0
  0
LINE
  5
1F7
330
17
100
AcDbEntity
  8
0
100
AcDbLine
 10
27.74990393024315
 20
-12.338012220235163
 30
0.0
 11
29.613348447725908
 21
-9.866336523511357
 31
0.0
  0
LINE
  5
1F8
330
17
100
AcDbEntity
  8
0
100
AcDbLine
 10
29.61334844772592
 20
-9.866336523511333
 30
0.0
 11
27.60029831328284
 21
-7.347080685869882
 31
0.0
  0
LINE
  5
1F9
330
17
100
AcDbEntity
  8
0
100
AcDbLine
 10
27.60029831328282
 20
-7.3470806858699245
 30
0.0
 11
25.60220908814058
 21
-9.803306045776772
 31
0.0
  0
ENDSEC
  0
SECTION
  2
OBJECTS
  0
DICTIONARY
  5
A
330
0
100
AcDbDictionary
281
1
  3
ACAD_COLOR
350
B
  3
ACAD_GROUP
350
C
  3
ACAD_LAYOUT
350
D
  3
ACAD_MATERIAL
350
E
  3
ACAD_MLEADERSTYLE
350
F
  3
ACAD_MLINESTYLE
350
10
  3
ACAD_PLOTSETTINGS
350
11
  3
ACAD_PLOTSTYLENAME
350
12
  3
ACAD_SCALELIST
350
14
  3
ACAD_TABLESTYLE
350
15
  3
ACAD_VISUALSTYLE
350
16
  3
EZDXF_META
350
2D
  0
DICTIONARY
  5
B
330
A
100
AcDbDictionary
281
1
  0
DICTIONARY
  5
C
330
A
100
AcDbDictionary
281
1
  0
DICTIONARY
  5
D
330
A
100
AcDbDictionary
281
1
  3
Model
350
1A
  3
Layout1
350
1E
  0
DICTIONARY
  5
E
330
A
100
AcDbDictionary
281
1
  3
ByBlock
350
1F
  3
ByLayer
350
20
  3
Global
350
21
  0
DICTIONARY
  5
F
330
A
100
AcDbDictionary
281
1
  3
Standard
350
2C
  0
DICTIONARY
  5
10
330
A
100
AcDbDictionary
281
1
  3
Standard
350
22
  0
DICTIONARY
  5
11
330
A
100
AcDbDictionary
281
1
  0
ACDBDICTIONARYWDFLT
  5
12
330
A
100
AcDbDictionary
281
1
  3
Normal
350
13
100
AcDbDictionaryWithDefault
340
13
  0
ACDBPLACEHOLDER
  5
13
330
12
  0
DICTIONARY
  5
14
330
A
100
AcDbDictionary
281
1
  0
DICTIONARY
  5
15
330
A
100
AcDbDictionary
281
1
  0
DICTIONARY
  5
16
330
A
100
AcDbDictionary
281
1
  0
LAYOUT
  5
1A
330
D
100
AcDbPlotSettings
  1

  4
A3
  6

 40
7.5
 41
20.0
 42
7.5
 43
20.0
 44
420.0
 45
297.0
 46
0.0
 47
0.0
 48
0.0
 49
0.0
140
0.0
141
0.0
142
1.0
143
1.0
 70
1024
 72
1
 73
0
 74
5
  7

 75
16
 76
0
 77
2
 78
300
147
1.0
148
0.0
149
0.0
100
AcDbLayout
  1
Model
 70
1
 71
0
 10
0.0
 20
0.0
 11
420.0
 21
297.0
 12
0.0
 22
0.0
 32
0.0
 14
1e+20
 24
1e+20
 34
1e+20
 15
-1e+20
 25
-1e+20
 35
-1e+20
146
0.0
 13
0.0
 23
0.0
 33
0.0
 16
1.0
 26
0.0
 36
0.0
 17
0.0
 27
1.0
 37
0.0
 76
1
330
17
  0
LAYOUT
  5
1E
330
D
100
AcDbPlotSettings
  1

  4
A3
  6

 40
7.5
 41
20.0
 42
7.5
 43
20.0
 44
420.0
 45
297.0
 46
0.0
 47
0.0
 48
0.0
 49
0.0
140
0.0
141
0.0
142
1.0
143
1.0
 70
0
 72
1
 73
0
 74
5
  7

 75
16
 76
0
 77
2
 78
300
147
1.0
148
0.0
149
0.0
100
AcDbLayout
  1
Layout1
 70
1
 71
1
 10
0.0
 20
0.0
 11
420.0
 21
297.0
 12
0.0
 22
0.0
 32
0.0
 14
1e+20
 24
1e+20
 34
1e+20
 15
-1e+20
 25
-1e+20
 35
-1e+20
146
0.0
 13
0.0
 23
0.0
 33
0.0
 16
1.0
 26
0.0
 36
0.0
 17
0.0
 27
1.0
 37
0.0
 76
1
330
1B
  0
MATERIAL
  5
1F
102
{ACAD_REACTORS
330
E
102
}
330
E
100
AcDbMaterial
  1
ByBlock
  2

 70
0
 40
1.0
 71
1
 41
1.0
 91
-1023410177
 42
1.0
 72
1
  3

 73
1
 74
1
 75
1
 44
0.5
 73
0
 45
1.0
 46
1.0
 77
1
  4

 78
1
 79
1
170
1
 48
1.0
171
1
  6

172
1
173
1
174
1
140
1.0
141
1.0
175
1
  7

176
1
177
1
178
1
143
1.0
179
1
  8

270
1
271
1
272
1
145
1.0
146
1.0
273
1
  9

274
1
275
1
276
1
 42
1.0
 72
1
  3

 73
1
 74
1
 75
1
 94
63
  0
MATERIAL
  5
20
102
{ACAD_REACTORS
330
E
102
}
330
E
100
AcDbMaterial
  1
ByLayer
  2

 70
0
 40
1.0
 71
1
 41
1.0
 91
-1023410177
 42
1.0
 72
1
  3

 73
1
 74
1
 75
1
 44
0.5
 73
0
 45
1.0
 46
1.0
 77
1
  4

 78
1
 79
1
170
1
 48
1.0
171
1
  6

172
1
173
1
174
1
140
1.0
141
1.0
175
1
  7

176
1
177
1
178
1
143
1.0
179
1
  8

270
1
271
1
272
1
145
1.0
146
1.0
273
1
  9

274
1
275
1
276
1
 42
1.0
 72
1
  3

 73
1
 74
1
 75
1
 94
63
  0
MATERIAL
  5
21
102
{ACAD_REACTORS
330
E
102
}
330
E
100
AcDbMaterial
  1
Global
  2

 70
0
 40
1.0
 71
1
 41
1.0
 91
-1023410177
 42
1.0
 72
1
  3

 73
1
 74
1
 75
1
 44
0.5
 73
0
 45
1.0
 46
1.0
 77
1
  4

 78
1
 79
1
170
1
 48
1.0
171
1
  6

172
1
173
1
174
1
140
1.0
141
1.0
175
1
  7

176
1
177
1
178
1
143
1.0
179
1
  8

270
1
271
1
272
1
145
1.0
146
1.0
273
1
  9

274
1
275
1
276
1
 42
1.0
 72
1
  3

 73
1
 74
1
 75
1
 94
63
  0
MLINESTYLE
  5
22
102
{ACAD_REACTORS
330
10
102
}
330
10
100
AcDbMlineStyle
  2
Standard
 70
0
  3

 62
256
 51
90.0
 52
90.0
 71
2
 49
0.5
 62
256
  6
BYLAYER
 49
-0.5
 62
256
  6
BYLAYER
  0
MLEADERSTYLE
  5
2C
102
{ACAD_REACTORS
330
F
102
}
330
F
100
AcDbMLeaderStyle
179
2
170
2
171
1
172
0
 90
2
 40
0.0
 41
0.0
173
1
 91
-1056964608
 92
-2
290
1
 42
2.0
291
1
 43
8.0
  3
Standard
 44
4.0
300

342
29
174
1
175
1
176
0
178
1
 93
-1056964608
 45
4.0
292
0
297
0
 46
4.0
 94
-1056964608
 47
1.0
 49
1.0
140
1.0
294
1
141
0.0
177
0
142
1.0
295
0
296
0
143
3.75
271
0
272
9
273
9
  0
DICTIONARY
  5
2D
330
A
100
AcDbDictionary
280
1
281
1
  3
CREATED_BY_EZDXF
350
2E
  3
WRITTEN_BY_EZDXF
350
1FD
  0
DICTIONARYVAR
  5
2E
330
2D
100
DictionaryVariables
280
0
  1
1.4.4 @ 2026-09-02T12:30:44.397479+00:00
  0
DICTIONARYVAR
  5
1FD
330
2D
100
DictionaryVariables
280
0
  1
1.4.4 @ 2026-09-02T12:30:44.459194+00:00
  0
ENDSEC
  0
EOF
