  0
SECTION
  2
HEADER
  9
$ACADVER
  1
AC1027
  9
$ACADMAINTVER
 70
105
  9
$DWGCODEPAGE
  3
ANSI_1252
  9
$LASTSAVEDBY
  1
ezdxf
  9
$REQUIREDVERSIONS
160
0
  9
$INSBASE
 10
0.0
 20
0.0
 30
0.0
  9
$EXTMIN
 10
1e+20
 20
1e+20
 30
1e+20
  9
$EXTMAX
 10
-1e+20
 20
-1e+20
 30
-1e+20
  9
$LIMMIN
 10
0.0
 20
0.0
  9
$LIMMAX
 10
420.0
 20
297.0
  9
$ORTHOMODE
 70
0
  9
$REGENMODE
 70
1
  9
$FILLMODE
 70
1
  9
$QTEXTMODE
 70
0
  9
$MIRRTEXT
 70
1
  9
$LTSCALE
 40
1.0
  9
$ATTMODE
 70
1
  9
$TEXTSIZE
 40
2.5
  9
$TRACEWID
 40
1.0
  9
$TEXTSTYLE
  7
Standard
  9
$CLAYER
  8
0
  9
$CELTYPE
  6
ByLayer
  9
$CECOLOR
 62
256
  9
$CELTSCALE
 40
1.0
  9
$DISPSILH
 70
0
  9
$DIMSCALE
 40
1.0
  9
$DIMASZ
 40
2.5
  9
$DIMEXO
 40
0.625
  9
$DIMDLI
 40
3.75
  9
$DIMRND
 40
0.0
  9
$DIMDLE
 40
0.0
  9
$DIMEXE
 40
1.25
  9
$DIMTP
 40
0.0
  9
$DIMTM
 40
0.0
  9
$DIMTXT
 40
2.5
  9
$DIMCEN
 40
2.5
  9
$DIMTSZ
 40
0.0
  9
$DIMTOL
 70
0
  9
$DIMLIM
 70
0
  9
$DIMTIH
 70
0
  9
$DIMTOH
 70
0
  9
$DIMSE1
 70
0
  9
$DIMSE2
 70
0
  9
$DIMTAD
 70
1
  9
$DIMZIN
 70
8
  9
$DIMBLK
  1

  9
$DIMASO
 70
1
  9
$DIMSHO
 70
1
  9
$DIMPOST
  1

  9
$DIMAPOST
  1

  9
$DIMALT
 70
0
  9
$DIMALTD
 70
3
  9
$DIMALTF
 40
0.03937007874
  9
$DIMLFAC
 40
1.0
  9
$DIMTOFL
 70
1
  9
$DIMTVP
 40
0.0
  9
$DIMTIX
 70
0
  9
$DIMSOXD
 70
0
  9
$DIMSAH
 70
0
  9
$DIMBLK1
  1

  9
$DIMBLK2
  1

  9
$DIMSTYLE
  2
ISO-25
  9
$DIMCLRD
 70
0
  9
$DIMCLRE
 70
0
  9
$DIMCLRT
 70
0
  9
$DIMTFAC
 40
1.0
  9
$DIMGAP
 40
0.625
  9
$DIMJUST
 70
0
  9
$DIMSD1
 70
0
  9
$DIMSD2
 70
0
  9
$DIMTOLJ
 70
0
  9
$DIMTZIN
 70
8
  9
$DIMALTZ
 70
0
  9
$DIMALTTZ
 70
0
  9
$DIMUPT
 70
0
  9
$DIMDEC
 70
2
  9
$DIMTDEC
 70
2
  9
$DIMALTU
 70
2
  9
$DIMALTTD
 70
3
  9
$DIMTXSTY
  7
Standard
  9
$DIMAUNIT
 70
0
  9
$DIMADEC
 70
0
  9
$DIMALTRND
 40
0.0
  9
$DIMAZIN
 70
0
  9
$DIMDSEP
 70
44
  9
$DIMATFIT
 70
3
  9
$DIMFRAC
 70
0
  9
$DIMLDRBLK
  1

  9
$DIMLUNIT
 70
2
  9
$DIMLWD
 70
-2
  9
$DIMLWE
 70
-2
  9
$DIMTMOVE
 70
0
  9
$DIMFXL
 40
1.0
  9
$DIMFXLON
 70
0
  9
$DIMJOGANG
 40
0.785398163397
  9
$DIMTFILL
 70
0
  9
$DIMTFILLCLR
 70
0
  9
$DIMARCSYM
 70
0
  9
$DIMLTYPE
  6

  9
$DIMLTEX1
  6

  9
$DIMLTEX2
  6

  9
$DIMTXTDIRECTION
 70
0
  9
$LUNITS
 70
2
  9
$LUPREC
 70
4
  9
$SKETCHINC
 40
1.0
  9
$FILLETRAD
 40
10.0
  9
$AUNITS
 70
0
  9
$AUPREC
 70
2
  9
$MENU
  1
.
  9
$ELEVATION
 40
0.0
  9
$PELEVATION
 40
0.0
  9
$THICKNESS
 40
0.0
  9
$LIMCHECK
 70
0
  9
$CHAMFERA
 40
0.0
  9
$CHAMFERB
 40
0.0
  9
$CHAMFERC
 40
0.0
  9
$CHAMFERD
 40
0.0
  9
$SKPOLY
 70
0
  9
$TDCREATE
 40
2461288.6410069442
  9
$TDUCREATE
 40
2458532.153996898
  9
$TDUPDATE
 40
2461288.6410069442
  9
$TDUUPDATE
 40
2458532.1544311
  9
$TDINDWG
 40
0.0
  9
$TDUSRTIMER
 40
0.0
  9
$USRTIMER
 70
1
  9
$ANGBASE
 50
0.0
  9
$ANGDIR
 70
0
  9
$PDMODE
 70
0
  9
$PDSIZE
 40
0.0
  9
$PLINEWID
 40
0.0
  9
$SPLFRAME
 70
0
  9
$SPLINETYPE
 70
6
  9
$SPLINESEGS
 70
8
  9
$HANDSEED
  5
1FE
  9
$SURFTAB1
 70
6
  9
$SURFTAB2
 70
6
  9
$SURFTYPE
 70
6
  9
$SURFU
 70
6
  9
$SURFV
 70
6
  9
$UCSBASE
  2

  9
$UCSNAME
  2

  9
$UCSORG
 10
0.0
 20
0.0
 30
0.0
  9
$UCSXDIR
 10
1.0
 20
0.0
 30
0.0
  9
$UCSYDIR
 10
0.0
 20
1.0
 30
0.0
  9
$UCSORTHOREF
  2

  9
$UCSORTHOVIEW
 70
0
  9
$UCSORGTOP
 10
0.0
 20
0.0
 30
0.0
  9
$UCSORGBOTTOM
 10
0.0
 20
0.0
 30
0.0
  9
$UCSORGLEFT
 10
0.0
 20
0.0
 30
0.0
  9
$UCSORGRIGHT
 10
0.0
 20
0.0
 30
0.0
  9
$UCSORGFRONT
 10
0.0
 20
0.0
 30
0.0
  9
$UCSORGBACK
 10
0.0
 20
0.0
 30
0.0
  9
$PUCSBASE
  2

  9
$PUCSNAME
  2

  9
$PUCSORG
 10
0.0
 20
0.0
 30
0.0
  9
$PUCSXDIR
 10
1.0
 20
0.0
 30
0.0
  9
$PUCSYDIR
 10
0.0
 20
1.0
 30
0.0
  9
$PUCSORTHOREF
  2

  9
$PUCSORTHOVIEW
 70
0
  9
$PUCSORGTOP
 10
0.0
 20
0.0
 30
0.0
  9
$PUCSORGBOTTOM
 10
0.0
 20
0.0
 30
0.0
  9
$PUCSORGLEFT
 10
0.0
 20
0.0
 30
0.0
  9
$PUCSORGRIGHT
 10
0.0
 20
0.0
 30
0.0
  9
$PUCSORGFRONT
 10
0.0
 20
0.0
 30
0.0
  9
$PUCSORGBACK
 10
0.0
 20
0.0
 30
0.0
  9
$USERI1
 70
0
  9
$USERI2
 70
0
  9
$USERI3
 70
0
  9
$USERI4
 70
0
  9
$USERI5
 70
0
  9
$USERR1
 40
0.0
  9
$USERR2
 40
0.0
  9
$USERR3
 40
0.0
  9
$USERR4
 40
0.0
  9
$USERR5
 40
0.0
  9
$WORLDVIEW
 70
1
  9
$SHADEDGE
 70
3
  9
$SHADEDIF
 70
70
  9
$TILEMODE
 70
1
  9
$MAXACTVP
 70
64
  9
$PINSBASE
 10
0.0
 20
0.0
 30
0.0
  9
$PLIMCHECK
 70
0
  9
$PEXTMIN
 10
1e+20
 20
1e+20
 30
1e+20
  9
$PEXTMAX
 10
-1e+20
 20
-1e+20
 30
-1e+20
  9
$PLIMMIN
 10
0.0
 20
0.0
  9
$PLIMMAX
 10
420.0
 20
297.0
  9
$UNITMODE
 70
0
  9
$VISRETAIN
 70
1
  9
$PLINEGEN
 70
0
  9
$PSLTSCALE
 70
1
  9
$TREEDEPTH
 70
3020
  9
$CMLSTYLE
  2
Standard
  9
$CMLJUST
 70
0
  9
$CMLSCALE
 40
20.0
  9
$PROXYGRAPHICS
 70
1
  9
$MEASUREMENT
 70
1
  9
$CELWEIGHT
370
-1
  9
$ENDCAPS
280
0
  9
$JOINSTYLE
280
0
  9
$LWDISPLAY
290
0
  9
$INSUNITS
 70
4
  9
$HYPERLINKBASE
  1

  9
$STYLESHEET
  1

  9
$XEDIT
290
1
  9
$CEPSNTYPE
380
0
  9
$PSTYLEMODE
290
1
  9
$FINGERPRINTGUID
  2
{E3CF2660-300D-4C02-9CC4-5F2D81DFCAE8}
  9
$VERSIONGUID
  2
{85C13531-D64E-4D4A-9598-367447CC8CAA}
  9
$EXTNAMES
290
1
  9
$PSVPSCALE
 40
0.0
  9
$OLESTARTUP
290
0
  9
$SORTENTS
280
127
  9
$INDEXCTL
280
0
  9
$HIDETEXT
280
1
  9
$XCLIPFRAME
280
1
  9
$HALOGAP
280
0
  9
$OBSCOLOR
 70
257
  9
$OBSLTYPE
280
0
  9
$INTERSECTIONDISPLAY
280
0
  9
$INTERSECTIONCOLOR
 70
257
  9
$DIMASSOC
280
2
  9
$PROJECTNAME
  1

  9
$CAMERADISPLAY
290
0
  9
$LENSLENGTH
 40
50.0
  9
$CAMERAHEIGHT
 40
0.0
  9
$STEPSPERSEC
 40
24.0
  9
$STEPSIZE
 40
100.0
  9
$3DDWFPREC
 40
2.0
  9
$PSOLWIDTH
 40
0.005
  9
$PSOLHEIGHT
 40
0.08
  9
$LOFTANG1
 40
1.570796326795
  9
$LOFTANG2
 40
1.570796326795
  9
$LOFTMAG1
 40
0.0
  9
$LOFTMAG2
 40
0.0
  9
$LOFTPARAM
 70
7
  9
$LOFTNORMALS
280
1
  9
$LATITUDE
 40
37.795
  9
$LONGITUDE
 40
-122.394
  9
$NORTHDIRECTION
 40
0.0
  9
$TIMEZONE
 70
-8000
  9
$LIGHTGLYPHDISPLAY
280
1
  9
$TILEMODELIGHTSYNCH
280
1
  9
$CMATERIAL
347
20
  9
$SOLIDHIST
280
0
  9
$SHOWHIST
280
1
  9
$DWFFRAME
280
2
  9
$DGNFRAME
280
2
  9
$REALWORLDSCALE
290
1
  9
$INTERFERECOLOR
 62
256
  9
$CSHADOW
280
0
  9
$SHADOWPLANELOCATION
 40
0.0
  0
ENDSEC
  0
SECTION
  2
CLASSES
  0
CLASS
  1
ACDBDICTIONARYWDFLT
  2
AcDbDictionaryWithDefault
  3
ObjectDBX Classes
 90
0
 91
0
280
0
281
0
  0
CLASS
  1
SUN
  2
AcDbSun
  3
SCENEOE
 90
1153
 91
0
280
0
281
0
  0
CLASS
  1
VISUALSTYLE
  2
AcDbVisualStyle
  3
ObjectDBX Classes
 90
4095
 91
0
280
0
281
0
  0
CLASS
  1
MATERIAL
  2
AcDbMaterial
  3
ObjectDBX Classes
 90
1153
 91
0
280
0
281
0
  0
CLASS
  1
SCALE
  2
AcDbScale
  3
ObjectDBX Classes
 90
1153
 91
0
280
0
281
0
  0
CLASS
  1
TABLESTYLE
  2
AcDbTableStyle
  3
ObjectDBX Classes
 90
4095
 91
0
280
0
281
0
  0
CLASS
  1
MLEADERSTYLE
  2
AcDbMLeaderStyle
  3
ACDB_MLEADERSTYLE_CLASS
 90
4095
 91
0
280
0
281
0
  0
CLASS
  1
DICTIONARYVAR
  2
AcDbDictionaryVar
  3
ObjectDBX Classes
 90
0
 91
0
280
0
281
0
  0
CLASS
  1
CELLSTYLEMAP
  2
AcDbCellStyleMap
  3
ObjectDBX Classes
 90
1152
 91
0
280
0
281
0
  0
CLASS
  1
MENTALRAYRENDERSETTINGS
  2
AcDbMentalRayRenderSettings
  3
SCENEOE
 90
1024
 91
0
280
0
281
0
  0
CLASS
  1
ACDBDETAILVIEWSTYLE
  2
AcDbDetailViewStyle
  3
ObjectDBX Classes
 90
1025
 91
0
280
0
281
0
  0
CLASS
  1
ACDBSECTIONVIEWSTYLE
  2
AcDbSectionViewStyle
  3
ObjectDBX Classes
 90
1025
 91
0
280
0
281
0
  0
CLASS
  1
RASTERVARIABLES
  2
AcDbRasterVariables
  3
ISM
 90
0
 91
0
280
0
281
0
  0
CLASS
  1
LAYOUT
  2
AcDbLayout
  3
ObjectDBX Classes
 90
0
 91
0
280
0
281
0
  0
CLASS
  1
ACDBPLACEHOLDER
  2
AcDbPlaceHolder
  3
ObjectDBX Classes
 90
0
 91
0
280
0
281
0
  0
ENDSEC
  0
SECTION
  2
TABLES
  0
TABLE
  2
VPORT
  5
8
330
0
100
AcDbSymbolTable
 70
1
  0
VPORT
  5
1FA
330
8
100
AcDbSymbolTableRecord
100
AcDbViewportTableRecord
  2
*Active
 70
0
 10
0.0
 20
0.0
 11
1.0
 21
1.0
 12
0.7718792144000517
 22
-0.05357622329041689
 13
0.0
 23
0.0
 14
0.5
 24
0.5
 15
0.5
 25
0.5
 16
0.0
 26
0.0
 36
1.0
 17
0.0
 27
0.0
 37
0.0
 40
62.34668562083543
 41
1.34
 42
50.0
 43
0.0
 44
0.0
 50
0.0
 51
0.0
 71
0
 72
1000
 73
1
 74
3
 75
0
 76
0
 77
0
 78
0
281
0
 65
1
110
0.0
120
0.0
130
0.0
111
1.0
121
0.0
131
0.0
112
0.0
122
1.0
132
0.0
 79
0
146
0.0
  0
ENDTAB
  0
TABLE
  2
LTYPE
  5
2
330
0
100
AcDbSymbolTable
 70
3
  0
LTYPE
  5
24
330
2
100
AcDbSymbolTableRecord
100
AcDbLinetypeTableRecord
  2
ByBlock
 70
0
  3

 72
65
 73
0
 40
0.0
  0
LTYPE
  5
25
330
2
100
AcDbSymbolTableRecord
100
AcDbLinetypeTableRecord
  2
ByLayer
 70
0
  3

 72
65
 73
0
 40
0.0
  0
LTYPE
  5
26
330
2
100
AcDbSymbolTableRecord
100
AcDbLinetypeTableRecord
  2
Continuous
 70
0
  3

 72
65
 73
0
 40
0.0
  0
ENDTAB
  0
TABLE
  2
LAYER
  5
1
330
0
100
AcDbSymbolTable
 70
2
  0
LAYER
  5
27
330
1
100
AcDbSymbolTableRecord
100
AcDbLayerTableRecord
  2
0
 70
0
 62
7
  6
Continuous
370
-3
390
13
347
21
  0
LAYER
  5
28
330
1
100
AcDbSymbolTableRecord
100
AcDbLayerTableRecord
  2
Defpoints
 70
0
 62
7
  6
Continuous
290
0
370
-3
390
13
347
21
  0
ENDTAB
  0
TABLE
  2
STYLE
  5
5
330
0
100
AcDbSymbolTable
 70
1
  0
STYLE
  5
29
330
5
100
AcDbSymbolTableRecord
100
AcDbTextStyleTableRecord
  2
Standard
 70
0
 40
0.0
 41
1.0
 50
0.0
 71
0
 42
2.5
  3
txt
  4

  0
ENDTAB
  0
TABLE
  2
VIEW
  5
7
330
0
100
AcDbSymbolTable
 70
0
  0
ENDTAB
  0
TABLE
  2
UCS
  5
6
330
0
100
AcDbSymbolTable
 70
0
  0
ENDTAB
  0
TABLE
  2
APPID
  5
3
330
0
100
AcDbSymbolTable
 70
3
  0
APPID
  5
2A
330
3
100
AcDbSymbolTableRecord
100
AcDbRegAppTableRecord
  2
ACAD
 70
0
  0
APPID
  5
1FB
330
3
100
AcDbSymbolTableRecord
100
AcDbRegAppTableRecord
  2
HATCHBACKGROUNDCOLOR
 70
0
  0
APPID
  5
1FC
330
3
100
AcDbSymbolTableRecord
100
AcDbRegAppTableRecord
  2
EZDXF
 70
0
  0
ENDTAB
  0
TABLE
  2
DIMSTYLE
  5
4
330
0
100
AcDbSymbolTable
 70
1
100
AcDbDimStyleTable
  0
DIMSTYLE
105
2B
330
4
100
AcDbSymbolTableRecord
100
AcDbDimStyleTableRecord
  2
Standard
 70
0
 40
1.0
 41
2.5
 42
0.625
 43
3.75
 44
1.25
 45
0.0
 46
0.0
 47
0.0
 48
0.0
 49
2.5
140
2.5
141
2.5
142
0.0
143
0.03937007874
144
1.0
145
0.0
146
1.0
147
0.625
148
0.0
 69
0
 70
0
 71
0
 72
0
 73
0
 74
0
 75
0
 76
0
 77
1
 78
8
 79
3
170
0
171
3
172
1
173
0
174
0
175
0
176
0
177
0
178
0
179
2
271
2
272
2
273
2
274
3
275
0
276
0
277
2
278
44
279
0
280
0
281
0
282
0
283
0
284
8
285
0
286
0
288
0
289
3
290
0
371
-2
372
-2
  0
ENDTAB
  0
TABLE
  2
BLOCK_RECORD
  5
9
330
0
100
AcDbSymbolTable
 70
2
  0
BLOCK_RECORD
  5
17
330
9
100
AcDbSymbolTableRecord
100
AcDbBlockTableRecord
  2
*Model_Space
340
1A
 70
0
280
1
281
0
  0
BLOCK_RECORD
  5
1B
330
9
100
AcDbSymbolTableRecord
100
AcDbBlockTableRecord
  2
*Paper_Space
340
1E
 70
0
280
1
281
0
  0
ENDTAB
  0
ENDSEC
  0
SECTION
  2
BLOCKS
  0
BLOCK
  5
18
330
17
100
AcDbEntity
  8
0
100
AcDbBlockBegin
  2
*Model_Space
 70
0
 10
0.0
 20
0.0
 30
0.0
  3
*Model_Space
  1

  0
ENDBLK
  5
19
330
17
100
AcDbEntity
  8
0
100
AcDbBlockEnd
  0
BLOCK
  5
1C
330
1B
100
AcDbEntity
  8
0
100
AcDbBlockBegin
  2
*Paper_Space
 70
0
 10
0.0
 20
0.0
 30
0.0
  3
*Paper_Space
  1

  0
ENDBLK
  5
1D
330
1B
100
AcDbEntity
  8
0
100
AcDbBlockEnd
  0
ENDSEC
  0
SECTION
  2
ENTITIES
  0
LINE
  5
2F
330
17
100
AcDbEntity
  8
0
100
AcDbLine
 10
4.258403722167854
 20
-7.290181956278195
 30
0.0
 11
4.6216263744839505
 21
-6.910773435451812
 31
0.0
  0
LINE
  5
30
330
17
100
AcDbEntity
  8
0
100
AcDbLine
 10
4.621626374483947
 20
-6.910773435451803
 30
0.0
 11
4.487471789550157
 21
-6.223815337482082
 31
0.0
  0
LINE
  5
31
330
17
100
AcDbEntity
  8
0
100
AcDbLine
 10
4.487471789550153
 20
-6.2238153374820815
 30
0.0
 11
2.4516132205187575
 21
-6.004557371918725
 31
0.0
  0
LINE
  5
32
330
17
100
AcDbEntity
  8
0
100
AcDbLine
 10
2.451613220518757
 20
-6.004557371918723
 30
0.0
 11
2.497230784904928
 21
5.977357498485535
 31
0.0
  0
LINE
  5
33
330
17
100
AcDbEntity
  8
0
100
AcDbLine
 10
2.4972307849049282
 20
5.977357498485536
 30
0.0
 11
4.495565419014834
 21
6.189257366277535
 31
0.0
  0
LINE
  5
34
330
17
100
AcDbEntity
  8
0
100
AcDbLine
 10
4.495565419014832
 20
6.189257366277538
 30
0.0
 11
4.700107884245014
 21
6.812940272754647
 31
0.0
  0
LINE
  5
35
330
17
100
AcDbEntity
  8
0
100
AcDbLine
 10
4.700107884245014
 20
6.8129402727546475
 30
0.0
 11
4.282193792626654
 21
7.255624680283206
 31
0.0
  0
LINE
  5
36
330
17
100
AcDbEntity
  8
0
100
AcDbLine
 10
4.282193792626655
 20
7.255624680283205
 30
0.0
 11
1.311209566550789
 21
7.168252830924628
 31
0.0
  0
LINE
  5
37
330
17
100
AcDbEntity
  8
0
100
AcDbLine
 10
1.311209566550789
 20
7.1682528309246285
 30
0.0
 11
-1.6478177506466154
 21
7.255624680283205
 31
0.0
  0
LINE
  5
38
330
17
100
AcDbEntity
  8
0
100
AcDbLine
 10
-1.6478177506466145
 20
7.255624680283206
 30
0.0
 11
-2.019133337217846
 21
6.836729648003897
 31
0.0
  0
LINE
  5
39
330
17
100
AcDbEntity
  8
0
100
AcDbLine
 10
-2.019133337217853
 20
6.836729648003894
 30
0.0
 11
-1.8849794474936
 21
6.2289885914885454
 31
0.0
  0
LINE
  5
3A
330
17
100
AcDbEntity
  8
0
100
AcDbLine
 10
-1.8849794474935964
 20
6.228988591488542
 30
0.0
 11
0.14548360029786345
 21
5.991336771915852
 31
0.0
  0
LINE
  5
3B
330
17
100
AcDbEntity
  8
0
100
AcDbLine
 10
0.14548360029787077
 20
5.991336771915854
 30
0.0
 11
0.10035685384693571
 21
-5.995728210760713
 31
0.0
  0
LINE
  5
3C
330
17
100
AcDbEntity
  8
0
100
AcDbLine
 10
0.1003568538469326
 20
-5.9957282107607135
 30
0.0
 11
-1.9239744458017274
 21
-6.185065052932014
 31
0.0
  0
LINE
  5
3D
330
17
100
AcDbEntity
  8
0
100
AcDbLine
 10
-1.9239744458017243
 20
-6.185065052932014
 30
0.0
 11
-2.1378368901251465
 21
-6.760677695765823
 31
0.0
  0
LINE
  5
3E
330
17
100
AcDbEntity
  8
0
100
AcDbLine
 10
-2.137836890125152
 20
-6.7606776957658266
 30
0.0
 11
-1.7581822651216084
 21
-7.266147172061314
 31
0.0
  0
LINE
  5
3F
330
17
100
AcDbEntity
  8
0
100
AcDbLine
 10
-1.758182265121608
 20
-7.266147172061315
 30
0.0
 11
1.2499268455997914
 21
-7.1842626116019535
 31
0.0
  0
LINE
  5
40
330
17
100
AcDbEntity
  8
0
100
AcDbLine
 10
1.2499268455997914
 20
-7.184262611601955
 30
0.0
 11
4.258403722167853
 21
-7.290181956278193
 31
0.0
  0
LINE
  5
41
330
17
100
AcDbEntity
  8
0
100
AcDbLine
 10
3.2955343380105795
 20
9.632632303526135
 30
0.0
 11
1.1475940869403867
 21
12.16709376422645
 31
0.0
  0
LINE
  5
42
330
17
100
AcDbEntity
  8
0
100
AcDbLine
 10
1.147594086940425
 20
12.167093764226452
 30
0.0
 11
-0.7163405532680467
 21
9.696153599195945
 31
0.0
  0
LINE
  5
43
330
17
100
AcDbEntity
  8
0
100
AcDbLine
 10
-0.7163405532680742
 20
9.696153599195966
 30
0.0
 11
1.2967088859654685
 21
7.1768977615545175
 31
0.0
  0
LINE
  5
44
330
17
100
AcDbEntity
  8
0
100
AcDbLine
 10
1.2967088859654679
 20
7.176897761554517
 30
0.0
 11
3.295534338010606
 21
9.632632303526155
 31
0.0
  0
LINE
  5
45
330
17
100
AcDbEntity
  8
0
100
AcDbLine
 10
45.91992897127433
 20
-6.446277523815276
 30
0.0
 11
45.100534846353646
 21
-4.60150911541506
 31
0.0
  0
LINE
  5
46
330
17
100
AcDbEntity
  8
0
100
AcDbLine
 10
45.10053484635359
 20
-4.601509115415083
 30
0.0
 11
44.51534430168722
 21
-2.6855908770626638
 31
0.0
  0
LINE
  5
47
330
17
100
AcDbEntity
  8
0
100
AcDbLine
 10
44.515344301687165
 20
-2.685590877062665
 30
0.0
 11
44.146801210761446
 21
-0.7210371697108903
 31
0.0
  0
LINE
  5
48
330
17
100
AcDbEntity
  8
0
100
AcDbLine
 10
44.14680121076155
 20
-0.7210371697108755
 30
0.0
 11
44.11825111938224
 21
-0.38563430063010323
 31
0.0
  0
LINE
  5
49
330
17
100
AcDbEntity
  8
0
100
AcDbLine
 10
44.11825111938225
 20
-0.3856343006301311
 30
0.0
 11
43.88061729645774
 21
-0.8670297826918085
 31
0.0
  0
LINE
  5
4A
330
17
100
AcDbEntity
  8
0
100
AcDbLine
 10
43.88061729645772
 20
-0.8670297826918075
 30
0.0
 11
43.507193139351685
 21
-1.3331469229755752
 31
0.0
  0
LINE
  5
4B
330
17
100
AcDbEntity
  8
0
100
AcDbLine
 10
43.507193139351685
 20
-1.3331469229755724
 30
0.0
 11
43.01407336532471
 21
-1.7776972729095302
 31
0.0
  0
LINE
  5
4C
330
17
100
AcDbEntity
  8
0
100
AcDbLine
 10
43.014073365324705
 20
-1.7776972729095153
 30
0.0
 11
41.7245291895787
 21
-2.5943418440994646
 31
0.0
  0
LINE
  5
4D
330
17
100
AcDbEntity
  8
0
100
AcDbLine
 10
41.7245291895787
 20
-2.5943418440994765
 30
0.0
 11
40.12355199619891
 21
-3.30145267621474
 31
0.0
  0
LINE
  5
4E
330
17
100
AcDbEntity
  8
0
100
AcDbLine
 10
40.123551996198906
 20
-3.3014526762147205
 30
0.0
 11
38.3227124882122
 21
-3.8835182539988047
 31
0.0
  0
LINE
  5
4F
330
17
100
AcDbEntity
  8
0
100
AcDbLine
 10
38.322712488212204
 20
-3.8835182539988082
 30
0.0
 11
36.4335771973882
 21
-4.325027062195248
 31
0.0
  0
LINE
  5
50
330
17
100
AcDbEntity
  8
0
100
AcDbLine
 10
36.4335771973882
 20
-4.325027062195248
 30
0.0
 11
34.5677175219635
 21
-4.610467585547525
 31
0.0
  0
LINE
  5
51
330
17
100
AcDbEntity
  8
0
100
AcDbLine
 10
34.5677175219635
 20
-4.610467585547523
 30
0.0
 11
32.836699993707605
 21
-4.724328308799167
 31
0.0
  0
LINE
  5
52
330
17
100
AcDbEntity
  8
0
100
AcDbLine
 10
32.836699993707605
 20
-4.724328308799166
 30
0.0
 11
30.883193861156006
 21
-4.694259105775089
 31
0.0
  0
LINE
  5
53
330
17
100
AcDbEntity
  8
0
100
AcDbLine
 10
30.883193861156006
 20
-4.694259105775091
 30
0.0
 11
28.919435473518003
 21
-4.543648215819964
 31
0.0
  0
LINE
  5
54
330
17
100
AcDbEntity
  8
0
100
AcDbLine
 10
28.919435473518003
 20
-4.543648215819971
 30
0.0
 11
27.025948866183203
 21
-4.2616288186140245
 31
0.0
  0
LINE
  5
55
330
17
100
AcDbEntity
  8
0
100
AcDbLine
 10
27.025948866183203
 20
-4.26162881861402
 30
0.0
 11
25.2832559889126
 21
-3.8373340938375535
 31
0.0
  0
LINE
  5
56
330
17
100
AcDbEntity
  8
0
100
AcDbLine
 10
25.28325598891259
 20
-3.8373340938375713
 30
0.0
 11
23.7718801818861
 21
-3.259897221170778
 31
0.0
  0
LINE
  5
57
330
17
100
AcDbEntity
  8
0
100
AcDbLine
 10
23.77188018188611
 20
-3.259897221170753
 30
0.0
 11
22.57234548049342
 21
-2.518450685084416
 31
0.0
  0
LINE
  5
58
330
17
100
AcDbEntity
  8
0
100
AcDbLine
 10
22.572345480493436
 20
-2.518450685084414
 30
0.0
 11
22.114681393006574
 21
-2.0828282160632607
 31
0.0
  0
LINE
  5
59
330
17
100
AcDbEntity
  8
0
100
AcDbLine
 10
22.11468139300651
 20
-2.082828216063295
 30
0.0
 11
21.765173139285963
 21
-1.6021283604684038
 31
0.0
  0
LINE
  5
5A
330
17
100
AcDbEntity
  8
0
100
AcDbLine
 10
21.76517313928596
 20
-1.6021283604683945
 30
0.0
 11
21.533887353471062
 21
-1.0749926788587907
 31
0.0
  0
LINE
  5
5B
330
17
100
AcDbEntity
  8
0
100
AcDbLine
 10
21.533887353471123
 20
-1.0749926788587691
 30
0.0
 11
21.43088788886288
 21
-0.5000627317932396
 31
0.0
  0
LINE
  5
5C
330
17
100
AcDbEntity
  8
0
100
AcDbLine
 10
21.430887888862827
 20
-0.5000627317932556
 30
0.0
 11
21.478088445371583
 21
-0.006729528437526347
 31
0.0
  0
LINE
  5
5D
330
17
100
AcDbEntity
  8
0
100
AcDbLine
 10
21.478088445371615
 20
-0.006729528437532703
 30
0.0
 11
21.670624641845993
 21
0.47196325721533416
 31
0.0
  0
LINE
  5
5E
330
17
100
AcDbEntity
  8
0
100
AcDbLine
 10
21.67062464184603
 20
0.47196325721531096
 30
0.0
 11
21.995921528126523
 21
0.9337749648178916
 31
0.0
  0
LINE
  5
5F
330
17
100
AcDbEntity
  8
0
100
AcDbLine
 10
21.995921528126495
 20
0.933774964817916
 30
0.0
 11
22.44140206842496
 21
1.3764649340228359
 31
0.0
  0
LINE
  5
60
330
17
100
AcDbEntity
  8
0
100
AcDbLine
 10
22.441402068424967
 20
1.3764649340228452
 30
0.0
 11
23.642607358342197
 21
2.195514930221166
 31
0.0
  0
LINE
  5
61
330
17
100
AcDbEntity
  8
0
100
AcDbLine
 10
23.642607358342197
 20
2.195514930221169
 30
0.0
 11
25.17362700613089
 21
2.911183791773833
 31
0.0
  0
LINE
  5
62
330
17
100
AcDbEntity
  8
0
100
AcDbLine
 10
25.1736270061309
 20
2.911183791773811
 30
0.0
 11
26.933848896743104
 21
3.5055441502727946
 31
0.0
  0
LINE
  5
63
330
17
100
AcDbEntity
  8
0
100
AcDbLine
 10
26.9338488967431
 20
3.5055441502728146
 30
0.0
 11
28.822659524711895
 21
3.960667246891057
 31
0.0
  0
LINE
  5
64
330
17
100
AcDbEntity
  8
0
100
AcDbLine
 10
28.8226595247119
 20
3.9606672468910507
 30
0.0
 11
30.7394467749893
 21
4.258623627591945
 31
0.0
  0
LINE
  5
65
330
17
100
AcDbEntity
  8
0
100
AcDbLine
 10
30.739446774989304
 20
4.2586236275919385
 30
0.0
 11
32.5835971421085
 21
4.381485923967521
 31
0.0
  0
LINE
  5
66
330
17
100
AcDbEntity
  8
0
100
AcDbLine
 10
32.5835971421085
 20
4.381485923967509
 30
0.0
 11
34.3482940965296
 21
4.359968493494978
 31
0.0
  0
LINE
  5
67
330
17
100
AcDbEntity
  8
0
100
AcDbLine
 10
34.3482940965296
 20
4.359968493494971
 30
0.0
 11
36.266892367658805
 21
4.229262843089092
 31
0.0
  0
LINE
  5
68
330
17
100
AcDbEntity
  8
0
100
AcDbLine
 10
36.266892367658805
 20
4.229262843089098
 30
0.0
 11
38.218002112926
 21
3.970976509159687
 31
0.0
  0
LINE
  5
69
330
17
100
AcDbEntity
  8
0
100
AcDbLine
 10
38.218002112926
 20
3.97097650915968
 30
0.0
 11
40.0802341849711
 21
3.5667191137450622
 31
0.0
  0
LINE
  5
6A
330
17
100
AcDbEntity
  8
0
100
AcDbLine
 10
40.080234184971104
 20
3.5667191137450738
 30
0.0
 11
41.73219874122392
 21
2.998098888464649
 31
0.0
  0
LINE
  5
6B
330
17
100
AcDbEntity
  8
0
100
AcDbLine
 10
41.73219874122393
 20
2.9980988884646567
 30
0.0
 11
43.052505939115
 21
2.2467240649375486
 31
0.0
  0
LINE
  5
6C
330
17
100
AcDbEntity
  8
0
100
AcDbLine
 10
43.05250593911499
 20
2.2467240649375335
 30
0.0
 11
43.550353833223426
 21
1.7967566422679642
 31
0.0
  0
LINE
  5
6D
330
17
100
AcDbEntity
  8
0
100
AcDbLine
 10
43.55035383322345
 20
1.7967566422679746
 30
0.0
 11
43.91976663128372
 21
1.2942042652022951
 31
0.0
  0
LINE
  5
6E
330
17
100
AcDbEntity
  8
0
100
AcDbLine
 10
43.919766631283665
 20
1.2942042652022658
 30
0.0
 11
43.990024048419954
 21
1.1207611403918303
 31
0.0
  0
LINE
  5
6F
330
17
100
AcDbEntity
  8
0
100
AcDbLine
 10
43.990024048419976
 20
1.1207611403918485
 30
0.0
 11
43.97735153269143
 21
1.2696362552682143
 31
0.0
  0
LINE
  5
70
330
17
100
AcDbEntity
  8
0
100
AcDbLine
 10
43.97735153269144
 20
1.2696362552682217
 30
0.0
 11
43.98943983617296
 21
3.2639136465027003
 31
0.0
  0
LINE
  5
71
330
17
100
AcDbEntity
  8
0
100
AcDbLine
 10
43.98943983617297
 20
3.2639136465026954
 30
0.0
 11
44.16551138511153
 21
5.2392799478300685
 31
0.0
  0
LINE
  5
72
330
17
100
AcDbEntity
  8
0
100
AcDbLine
 10
44.16551138511148
 20
5.239279947830076
 30
0.0
 11
44.488011443412525
 21
7.173219407878394
 31
0.0
  0
LINE
  5
73
330
17
100
AcDbEntity
  8
0
100
AcDbLine
 10
44.48801144341253
 20
7.173219407878401
 30
0.0
 11
44.808943804200894
 21
8.324667855808354
 31
0.0
  0
LINE
  5
74
330
17
100
AcDbEntity
  8
0
100
AcDbLine
 10
44.80894380420097
 20
8.32466785580834
 30
0.0
 11
45.25348998287764
 21
9.274526393424464
 31
0.0
  0
LINE
  5
75
330
17
100
AcDbEntity
  8
0
100
AcDbLine
 10
45.25348998287761
 20
9.274526393424475
 30
0.0
 11
45.81737930723842
 21
10.042461108194352
 31
0.0
  0
LINE
  5
76
330
17
100
AcDbEntity
  8
0
100
AcDbLine
 10
45.817379307238454
 20
10.042461108194306
 30
0.0
 11
46.49634040986955
 21
10.648140173214008
 31
0.0
  0
LINE
  5
77
330
17
100
AcDbEntity
  8
0
100
AcDbLine
 10
46.49634040986952
 20
10.648140173214038
 30
0.0
 11
47.28610331377629
 21
11.111230371160682
 31
0.0
  0
LINE
  5
78
330
17
100
AcDbEntity
  8
0
100
AcDbLine
 10
47.2861033137763
 20
11.111230371160662
 30
0.0
 11
48.182397346754506
 21
11.451398484711262
 31
0.0
  0
LINE
  5
79
330
17
100
AcDbEntity
  8
0
100
AcDbLine
 10
48.1823973467545
 20
11.451398484711305
 30
0.0
 11
49.18095044618089
 21
11.688313382171607
 31
0.0
  0
LINE
  5
7A
330
17
100
AcDbEntity
  8
0
100
AcDbLine
 10
49.180950446180894
 20
11.688313382171629
 30
0.0
 11
50.277492635060696
 21
11.841641151009089
 31
0.0
  0
LINE
  5
7B
330
17
100
AcDbEntity
  8
0
100
AcDbLine
 10
50.27749263506074
 20
11.841641151009062
 30
0.0
 11
50.24904327026486
 21
-7.533720115026062
 31
0.0
  0
LINE
  5
7C
330
17
100
AcDbEntity
  8
0
100
AcDbLine
 10
50.2490432702648
 20
-7.533720115026065
 30
0.0
 11
48.540875193960105
 21
-7.817357264831573
 31
0.0
  0
LINE
  5
7D
330
17
100
AcDbEntity
  8
0
100
AcDbLine
 10
48.540875193960105
 20
-7.817357264831582
 30
0.0
 11
46.9910807173342
 21
-8.197378960472243
 31
0.0
  0
LINE
  5
7E
330
17
100
AcDbEntity
  8
0
100
AcDbLine
 10
46.991080717334185
 20
-8.197378960472237
 30
0.0
 11
45.91992897127425
 21
-6.4462775238153185
 31
0.0
  0
LINE
  5
7F
330
17
100
AcDbEntity
  8
0
100
AcDbLine
 10
42.678597865872426
 20
-5.825135665017018
 30
0.0
 11
42.89382436160998
 21
-6.258072482775121
 31
0.0
  0
LINE
  5
80
330
17
100
AcDbEntity
  8
0
100
AcDbLine
 10
42.89382436160999
 20
-6.258072482775117
 30
0.0
 11
43.936434280005216
 21
-7.843476982458909
 31
0.0
  0
LINE
  5
81
330
17
100
AcDbEntity
  8
0
100
AcDbLine
 10
43.9364342800052
 20
-7.843476982458919
 30
0.0
 11
45.942463493303784
 21
-10.48627920266325
 31
0.0
  0
LINE
  5
82
330
17
100
AcDbEntity
  8
0
100
AcDbLine
 10
45.942463493303826
 20
-10.486279202663221
 30
0.0
 11
46.838297992776155
 21
-11.89565038993321
 31
0.0
  0
LINE
  5
83
330
17
100
AcDbEntity
  8
0
100
AcDbLine
 10
46.83829799277613
 20
-11.895650389933229
 30
0.0
 11
47.55908985342906
 21
-13.430376894989214
 31
0.0
  0
LINE
  5
84
330
17
100
AcDbEntity
  8
0
100
AcDbLine
 10
47.55908985342901
 20
-13.430376894989246
 30
0.0
 11
50.58945609757351
 21
-12.541574440014058
 31
0.0
  0
LINE
  5
85
330
17
100
AcDbEntity
  8
0
100
AcDbLine
 10
50.58945609757353
 20
-12.541574440014035
 30
0.0
 11
51.75049148506007
 21
-21.162765054542046
 31
0.0
  0
LINE
  5
86
330
17
100
AcDbEntity
  8
0
100
AcDbLine
 10
51.7504914850601
 20
-21.162765054542053
 30
0.0
 11
52.065613284513105
 21
-21.19087724271103
 31
0.0
  0
LINE
  5
87
330
17
100
AcDbEntity
  8
0
100
AcDbLine
 10
52.065613284513056
 20
-21.190877242711057
 30
0.0
 11
52.342291386823184
 21
-21.044062196844312
 31
0.0
  0
LINE
  5
88
330
17
100
AcDbEntity
  8
0
100
AcDbLine
 10
52.34229138682328
 20
-21.04406219684434
 30
0.0
 11
52.32610412789393
 21
-12.17639060158554
 31
0.0
  0
LINE
  5
89
330
17
100
AcDbEntity
  8
0
100
AcDbLine
 10
52.32610412789391
 20
-12.176390601585585
 30
0.0
 11
54.96331199692991
 21
-11.842445308627497
 31
0.0
  0
LINE
  5
8A
330
17
100
AcDbEntity
  8
0
100
AcDbLine
 10
54.9633119969299
 20
-11.842445308627534
 30
0.0
 11
57.3751002582495
 21
-11.844560831257747
 31
0.0
  0
LINE
  5
8B
330
17
100
AcDbEntity
  8
0
100
AcDbLine
 10
57.37510025824951
 20
-11.84456083125766
 30
0.0
 11
58.4890470179632
 21
-11.982505003394012
 31
0.0
  0
LINE
  5
8C
330
17
100
AcDbEntity
  8
0
100
AcDbLine
 10
58.48904701796319
 20
-11.982505003394103
 30
0.0
 11
59.53774001983349
 21
-12.217501122523993
 31
0.0
  0
LINE
  5
8D
330
17
100
AcDbEntity
  8
0
100
AcDbLine
 10
59.5377400198335
 20
-12.217501122523965
 30
0.0
 11
60.518214890381685
 21
-12.55389494348191
 31
0.0
  0
LINE
  5
8E
330
17
100
AcDbEntity
  8
0
100
AcDbLine
 10
60.518214890381664
 20
-12.553894943481929
 30
0.0
 11
61.42750378008159
 21
-12.996031525892972
 31
0.0
  0
LINE
  5
8F
330
17
100
AcDbEntity
  8
0
100
AcDbLine
 10
61.42750378008153
 20
-12.996031525892944
 30
0.0
 11
61.43731388190047
 21
-13.232701709595142
 31
0.0
  0
LINE
  5
90
330
17
100
AcDbEntity
  8
0
100
AcDbLine
 10
61.43731388190051
 20
-13.232701709595151
 30
0.0
 11
60.34851354645814
 21
-14.014305634340491
 31
0.0
  0
LINE
  5
91
330
17
100
AcDbEntity
  8
0
100
AcDbLine
 10
60.34851354645814
 20
-14.014305634340479
 30
0.0
 11
59.38907015491401
 21
-14.90061715353385
 31
0.0
  0
LINE
  5
92
330
17
100
AcDbEntity
  8
0
100
AcDbLine
 10
59.38907015491399
 20
-14.900617153533835
 30
0.0
 11
59.02613045288066
 21
-15.397423623751406
 31
0.0
  0
LINE
  5
93
330
17
100
AcDbEntity
  8
0
100
AcDbLine
 10
59.026130452880714
 20
-15.397423623751445
 30
0.0
 11
58.77745886688953
 21
-15.937668871656756
 31
0.0
  0
LINE
  5
94
330
17
100
AcDbEntity
  8
0
100
AcDbLine
 10
58.7774588668895
 20
-15.937668871656742
 30
0.0
 11
58.67036392288111
 21
-16.52710714661254
 31
0.0
  0
LINE
  5
95
330
17
100
AcDbEntity
  8
0
100
AcDbLine
 10
58.670363922881066
 20
-16.527107146612543
 30
0.0
 11
58.73215553721534
 21
-17.171491307562235
 31
0.0
  0
LINE
  5
96
330
17
100
AcDbEntity
  8
0
100
AcDbLine
 10
58.732155537215355
 20
-17.17149130756222
 30
0.0
 11
58.977506107234014
 21
-17.892814308303738
 31
0.0
  0
LINE
  5
97
330
17
100
AcDbEntity
  8
0
100
AcDbLine
 10
58.97750610723405
 20
-17.892814308303713
 30
0.0
 11
59.305928655606365
 21
-18.3787762049068
 31
0.0
  0
LINE
  5
98
330
17
100
AcDbEntity
  8
0
100
AcDbLine
 10
59.30592865560632
 20
-18.378776204906814
 30
0.0
 11
59.69946661512368
 21
-18.68496456177087
 31
0.0
  0
LINE
  5
99
330
17
100
AcDbEntity
  8
0
100
AcDbLine
 10
59.69946661512372
 20
-18.684964561770805
 30
0.0
 11
60.14016202815832
 21
-18.86696694329509
 31
0.0
  0
LINE
  5
9A
330
17
100
AcDbEntity
  8
0
100
AcDbLine
 10
60.14016202815831
 20
-18.866966943295125
 30
0.0
 11
61.09119825073522
 21
-19.08076403792179
 31
0.0
  0
LINE
  5
9B
330
17
100
AcDbEntity
  8
0
100
AcDbLine
 10
61.091198250735204
 20
-19.08076403792185
 30
0.0
 11
61.565624535441096
 21
-19.223733879822856
 31
0.0
  0
LINE
  5
9C
330
17
100
AcDbEntity
  8
0
100
AcDbLine
 10
61.565624535441124
 20
-19.2237338798228
 30
0.0
 11
62.015379223991395
 21
-19.464867308771748
 31
0.0
  0
LINE
  5
9D
330
17
100
AcDbEntity
  8
0
100
AcDbLine
 10
62.0153792239914
 20
-19.46486730877174
 30
0.0
 11
62.32724327154
 21
-19.82577143727194
 31
0.0
  0
LINE
  5
9E
330
17
100
AcDbEntity
  8
0
100
AcDbLine
 10
62.327243271539956
 20
-19.825771437271953
 30
0.0
 11
62.47406665992122
 21
-20.31219147696203
 31
0.0
  0
LINE
  5
9F
330
17
100
AcDbEntity
  8
0
100
AcDbLine
 10
62.47406665992129
 20
-20.31219147696204
 30
0.0
 11
62.460769387049716
 21
-20.878396544300543
 31
0.0
  0
LINE
  5
A0
330
17
100
AcDbEntity
  8
0
100
AcDbLine
 10
62.46076938704969
 20
-20.87839654430054
 30
0.0
 11
62.29227145083993
 21
-21.478652974908147
 31
0.0
  0
LINE
  5
A1
330
17
100
AcDbEntity
  8
0
100
AcDbLine
 10
62.29227145083993
 20
-21.47865297490822
 30
0.0
 11
62.64335504937803
 21
-21.359269507070817
 31
0.0
  0
LINE
  5
A2
330
17
100
AcDbEntity
  8
0
100
AcDbLine
 10
62.643355049378044
 20
-21.35926950707079
 30
0.0
 11
62.888910706210964
 21
-21.159147879305493
 31
0.0
  0
LINE
  5
A3
330
17
100
AcDbEntity
  8
0
100
AcDbLine
 10
62.88891070621092
 20
-21.159147879305507
 30
0.0
 11
63.11856483523547
 21
-20.605117321431425
 31
0.0
  0
LINE
  5
A4
330
17
100
AcDbEntity
  8
0
100
AcDbLine
 10
63.11856483523548
 20
-20.60511732143144
 30
0.0
 11
63.091483642814325
 21
-19.99342191305254
 31
0.0
  0
LINE
  5
A5
330
17
100
AcDbEntity
  8
0
100
AcDbLine
 10
63.091483642814325
 20
-19.993421913052533
 30
0.0
 11
62.91791623863887
 21
-19.500920180306714
 31
0.0
  0
LINE
  5
A6
330
17
100
AcDbEntity
  8
0
100
AcDbLine
 10
62.91791623863889
 20
-19.50092018030666
 30
0.0
 11
62.685092649321476
 21
-19.252661548782168
 31
0.0
  0
LINE
  5
A7
330
17
100
AcDbEntity
  8
0
100
AcDbLine
 10
62.68509264932146
 20
-19.252661548782225
 30
0.0
 11
62.34102719108959
 21
-19.07577869031048
 31
0.0
  0
LINE
  5
A8
330
17
100
AcDbEntity
  8
0
100
AcDbLine
 10
62.3410271910896
 20
-19.075778690310447
 30
0.0
 11
61.44690985918112
 21
-18.788639074842404
 31
0.0
  0
LINE
  5
A9
330
17
100
AcDbEntity
  8
0
100
AcDbLine
 10
61.446909859181076
 20
-18.788639074842497
 30
0.0
 11
60.49103358778669
 21
-18.344505850632572
 31
0.0
  0
LINE
  5
AA
330
17
100
AcDbEntity
  8
0
100
AcDbLine
 10
60.49103358778672
 20
-18.344505850632522
 30
0.0
 11
60.069770671814176
 21
-17.971380633628662
 31
0.0
  0
LINE
  5
AB
330
17
100
AcDbEntity
  8
0
100
AcDbLine
 10
60.069770671814176
 20
-17.971380633628655
 30
0.0
 11
59.72887050261791
 21
-17.44838353441064
 31
0.0
  0
LINE
  5
AC
330
17
100
AcDbEntity
  8
0
100
AcDbLine
 10
59.72887050261791
 20
-17.44838353441064
 30
0.0
 11
59.5781400366219
 21
-17.02860489080604
 31
0.0
  0
LINE
  5
AD
330
17
100
AcDbEntity
  8
0
100
AcDbLine
 10
59.57814003662188
 20
-17.028604890806044
 30
0.0
 11
59.530014851424916
 21
-16.59469472288175
 31
0.0
  0
LINE
  5
AE
330
17
100
AcDbEntity
  8
0
100
AcDbLine
 10
59.530014851425015
 20
-16.59469472288174
 30
0.0
 11
59.60096793707739
 21
-16.14374079787494
 31
0.0
  0
LINE
  5
AF
330
17
100
AcDbEntity
  8
0
100
AcDbLine
 10
59.60096793707738
 20
-16.14374079787493
 30
0.0
 11
59.80747436925804
 21
-15.672832273441514
 31
0.0
  0
LINE
  5
B0
330
17
100
AcDbEntity
  8
0
100
AcDbLine
 10
59.807474369257996
 20
-15.672832273441461
 30
0.0
 11
60.16600783322683
 21
-15.17905761202779
 31
0.0
  0
LINE
  5
B1
330
17
100
AcDbEntity
  8
0
100
AcDbLine
 10
60.1660078332269
 20
-15.179057612027838
 30
0.0
 11
60.69304270945321
 21
-14.659505276080548
 31
0.0
  0
LINE
  5
B2
330
17
100
AcDbEntity
  8
0
100
AcDbLine
 10
60.693042709453216
 20
-14.659505276080564
 30
0.0
 11
62.318514220555834
 21
-13.531422125580486
 31
0.0
  0
LINE
  5
B3
330
17
100
AcDbEntity
  8
0
100
AcDbLine
 10
62.31851422055576
 20
-13.531422125580432
 30
0.0
 11
62.52543986408905
 21
-12.40381797445343
 31
0.0
  0
LINE
  5
B4
330
17
100
AcDbEntity
  8
0
100
AcDbLine
 10
62.525439864089115
 20
-12.40381797445344
 30
0.0
 11
62.493748041998685
 21
-11.24632328915414
 31
0.0
  0
LINE
  5
B5
330
17
100
AcDbEntity
  8
0
100
AcDbLine
 10
62.49374804199864
 20
-11.246323289154132
 30
0.0
 11
62.228084144430746
 21
-10.073285804169052
 31
0.0
  0
LINE
  5
B6
330
17
100
AcDbEntity
  8
0
100
AcDbLine
 10
62.22808414443072
 20
-10.073285804169053
 30
0.0
 11
61.73309078069348
 21
-8.89905255877515
 31
0.0
  0
LINE
  5
B7
330
17
100
AcDbEntity
  8
0
100
AcDbLine
 10
61.7330907806935
 20
-8.899052558775141
 30
0.0
 11
60.739071142677496
 21
-8.42117872996042
 31
0.0
  0
LINE
  5
B8
330
17
100
AcDbEntity
  8
0
100
AcDbLine
 10
60.7390711426775
 20
-8.421178729960413
 30
0.0
 11
59.89234554990129
 21
-7.860458170682969
 31
0.0
  0
LINE
  5
B9
330
17
100
AcDbEntity
  8
0
100
AcDbLine
 10
59.892345549901286
 20
-7.860458170682977
 30
0.0
 11
59.18416965677072
 21
-7.2188339916070685
 31
0.0
  0
LINE
  5
BA
330
17
100
AcDbEntity
  8
0
100
AcDbLine
 10
59.1841696567707
 20
-7.218833991607089
 30
0.0
 11
58.6057991176917
 21
-6.49825138902568
 31
0.0
  0
LINE
  5
BB
330
17
100
AcDbEntity
  8
0
100
AcDbLine
 10
58.60579911769175
 20
-6.498251389025651
 30
0.0
 11
58.14848958707022
 21
-5.700652778393549
 31
0.0
  0
LINE
  5
BC
330
17
100
AcDbEntity
  8
0
100
AcDbLine
 10
58.148489587070245
 20
-5.700652778393543
 30
0.0
 11
57.80349532889295
 21
-4.82798335600361
 31
0.0
  0
LINE
  5
BD
330
17
100
AcDbEntity
  8
0
100
AcDbLine
 10
57.80349532889289
 20
-4.827983356003632
 30
0.0
 11
57.56207199756571
 21
-3.882186232520179
 31
0.0
  0
LINE
  5
BE
330
17
100
AcDbEntity
  8
0
100
AcDbLine
 10
57.56207199756569
 20
-3.8821862325201826
 30
0.0
 11
57.41547524749452
 21
-2.8652059090265687
 31
0.0
  0
LINE
  5
BF
330
17
100
AcDbEntity
  8
0
100
AcDbLine
 10
57.4154752474945
 20
-2.8652059090265705
 30
0.0
 11
57.37178132790551
 21
-0.6254715807138608
 31
0.0
  0
LINE
  5
C0
330
17
100
AcDbEntity
  8
0
100
AcDbLine
 10
57.37178132790556
 20
-0.6254715807138658
 30
0.0
 11
57.602455329325245
 21
1.8756691819437956
 31
0.0
  0
LINE
  5
C1
330
17
100
AcDbEntity
  8
0
100
AcDbLine
 10
57.60245532932523
 20
1.875669181943795
 30
0.0
 11
58.037539010952976
 21
4.622664541536613
 31
0.0
  0
LINE
  5
C2
330
17
100
AcDbEntity
  8
0
100
AcDbLine
 10
58.03753901095301
 20
4.622664541536609
 30
0.0
 11
58.6070755224072
 21
7.599961965445209
 31
0.0
  0
LINE
  5
C3
330
17
100
AcDbEntity
  8
0
100
AcDbLine
 10
58.60707552240714
 20
7.599961965445183
 30
0.0
 11
58.05612265716668
 21
8.8284424112453
 31
0.0
  0
LINE
  5
C4
330
17
100
AcDbEntity
  8
0
100
AcDbLine
 10
58.0561226571667
 20
8.828442411245307
 30
0.0
 11
57.3968971629571
 21
10.037793471342761
 31
0.0
  0
LINE
  5
C5
330
17
100
AcDbEntity
  8
0
100
AcDbLine
 10
57.39689716295711
 20
10.037793471342765
 30
0.0
 11
55.890389908339294
 21
12.463852298889954
 31
0.0
  0
LINE
  5
C6
330
17
100
AcDbEntity
  8
0
100
AcDbLine
 10
55.8903899083393
 20
12.463852298889952
 30
0.0
 11
57.3357903300197
 21
12.914836813116565
 31
0.0
  0
LINE
  5
C7
330
17
100
AcDbEntity
  8
0
100
AcDbLine
 10
57.335790330019705
 20
12.914836813116548
 30
0.0
 11
58.5663021780957
 21
13.524516809038971
 31
0.0
  0
LINE
  5
C8
330
17
100
AcDbEntity
  8
0
100
AcDbLine
 10
58.56630217809572
 20
13.524516809038943
 30
0.0
 11
59.614987532661026
 21
14.268381979114931
 31
0.0
  0
LINE
  5
C9
330
17
100
AcDbEntity
  8
0
100
AcDbLine
 10
59.61498753266099
 20
14.268381979114977
 30
0.0
 11
60.514911254647565
 21
15.121922015802294
 31
0.0
  0
LINE
  5
CA
330
17
100
AcDbEntity
  8
0
100
AcDbLine
 10
60.51491125464764
 20
15.12192201580227
 30
0.0
 11
60.01594824443696
 21
16.860734928630276
 31
0.0
  0
LINE
  5
CB
330
17
100
AcDbEntity
  8
0
100
AcDbLine
 10
60.01594824443686
 20
16.86073492863024
 30
0.0
 11
59.633037953157526
 21
17.686100208289922
 31
0.0
  0
LINE
  5
CC
330
17
100
AcDbEntity
  8
0
100
AcDbLine
 10
59.63303795315758
 20
17.686100208289947
 30
0.0
 11
59.163681136417374
 21
18.449935272402442
 31
0.0
  0
LINE
  5
CD
330
17
100
AcDbEntity
  8
0
100
AcDbLine
 10
59.16368113641738
 20
18.449935272402442
 30
0.0
 11
58.609756945602975
 21
19.128110788253338
 31
0.0
  0
LINE
  5
CE
330
17
100
AcDbEntity
  8
0
100
AcDbLine
 10
58.609756945602975
 20
19.128110788253327
 30
0.0
 11
57.973145922520025
 21
19.69649950875699
 31
0.0
  0
LINE
  5
CF
330
17
100
AcDbEntity
  8
0
100
AcDbLine
 10
57.973145922520004
 20
19.69649950875696
 30
0.0
 11
57.255727218555165
 21
20.130972796408585
 31
0.0
  0
LINE
  5
D0
330
17
100
AcDbEntity
  8
0
100
AcDbLine
 10
57.2557272185552
 20
20.130972796408642
 30
0.0
 11
56.45938068030464
 21
20.407404099332066
 31
0.0
  0
LINE
  5
D1
330
17
100
AcDbEntity
  8
0
100
AcDbLine
 10
56.45938068030461
 20
20.40740409933204
 30
0.0
 11
55.4861874344784
 21
20.480321847144474
 31
0.0
  0
LINE
  5
D2
330
17
100
AcDbEntity
  8
0
100
AcDbLine
 10
55.4861874344784
 20
20.48032184714446
 30
0.0
 11
54.99735640810369
 21
20.274108098180093
 31
0.0
  0
LINE
  5
D3
330
17
100
AcDbEntity
  8
0
100
AcDbLine
 10
54.997356408103684
 20
20.274108098180072
 30
0.0
 11
54.86454357758209
 21
20.008298206608767
 31
0.0
  0
LINE
  5
D4
330
17
100
AcDbEntity
  8
0
100
AcDbLine
 10
54.86454357758212
 20
20.00829820660877
 30
0.0
 11
54.95940352889603
 21
19.902424745762183
 31
0.0
  0
LINE
  5
D5
330
17
100
AcDbEntity
  8
0
100
AcDbLine
 10
54.959403528896004
 20
19.902424745762197
 30
0.0
 11
55.980635753936205
 21
19.940757209378717
 31
0.0
  0
LINE
  5
D6
330
17
100
AcDbEntity
  8
0
100
AcDbLine
 10
55.980635753936205
 20
19.94075720937875
 30
0.0
 11
56.86478656187931
 21
19.690371931871397
 31
0.0
  0
LINE
  5
D7
330
17
100
AcDbEntity
  8
0
100
AcDbLine
 10
56.864786561879306
 20
19.690371931871358
 30
0.0
 11
57.423913700891106
 21
19.249928879899755
 31
0.0
  0
LINE
  5
D8
330
17
100
AcDbEntity
  8
0
100
AcDbLine
 10
57.423913700891056
 20
19.24992887989974
 30
0.0
 11
57.52286148430016
 21
18.98926771018174
 31
0.0
  0
LINE
  5
D9
330
17
100
AcDbEntity
  8
0
100
AcDbLine
 10
57.52286148430025
 20
18.989267710181746
 30
0.0
 11
57.47007491913757
 21
18.718090105752047
 31
0.0
  0
LINE
  5
DA
330
17
100
AcDbEntity
  8
0
100
AcDbLine
 10
57.47007491913748
 20
18.718090105752076
 30
0.0
 11
56.755851398218525
 21
17.768946938752645
 31
0.0
  0
LINE
  5
DB
330
17
100
AcDbEntity
  8
0
100
AcDbLine
 10
56.755851398218574
 20
17.768946938752567
 30
0.0
 11
55.634681411384264
 21
16.960105399439566
 31
0.0
  0
LINE
  5
DC
330
17
100
AcDbEntity
  8
0
100
AcDbLine
 10
55.63468141138422
 20
16.960105399439612
 30
0.0
 11
54.15993063334402
 21
16.39443286260872
 31
0.0
  0
LINE
  5
DD
330
17
100
AcDbEntity
  8
0
100
AcDbLine
 10
54.15993063334401
 20
16.394432862608706
 30
0.0
 11
53.30663948167212
 21
16.234932328265597
 31
0.0
  0
LINE
  5
DE
330
17
100
AcDbEntity
  8
0
100
AcDbLine
 10
53.306639481672114
 20
16.23493232826557
 30
0.0
 11
52.38496543401711
 21
16.174799483893743
 31
0.0
  0
LINE
  5
DF
330
17
100
AcDbEntity
  8
0
100
AcDbLine
 10
52.384965434017055
 20
16.17479948389386
 30
0.0
 11
52.400416466043545
 21
19.776363790293058
 31
0.0
  0
LINE
  5
E0
330
17
100
AcDbEntity
  8
0
100
AcDbLine
 10
52.400416466043545
 20
19.776363790293104
 30
0.0
 11
50.60883158745331
 21
21.37150052832737
 31
0.0
  0
LINE
  5
E1
330
17
100
AcDbEntity
  8
0
100
AcDbLine
 10
50.60883158745331
 20
21.371500528327346
 30
0.0
 11
49.6616579490807
 21
20.86652117475757
 31
0.0
  0
LINE
  5
E2
330
17
100
AcDbEntity
  8
0
100
AcDbLine
 10
49.66165794908073
 20
20.866521174757562
 30
0.0
 11
50.127611019913076
 21
18.524890679376576
 31
0.0
  0
LINE
  5
E3
330
17
100
AcDbEntity
  8
0
100
AcDbLine
 10
50.127611019913054
 20
18.524890679376565
 30
0.0
 11
50.34248499411717
 21
16.121088985252467
 31
0.0
  0
LINE
  5
E4
330
17
100
AcDbEntity
  8
0
100
AcDbLine
 10
50.34248499411711
 20
16.12108898525249
 30
0.0
 11
49.054661461982704
 21
16.173814371975624
 31
0.0
  0
LINE
  5
E5
330
17
100
AcDbEntity
  8
0
100
AcDbLine
 10
49.0546614619827
 20
16.17381437197563
 30
0.0
 11
47.8804136171884
 21
16.114241171283492
 31
0.0
  0
LINE
  5
E6
330
17
100
AcDbEntity
  8
0
100
AcDbLine
 10
47.880413617188395
 20
16.11424117128352
 30
0.0
 11
46.81437096603788
 21
15.948217485826579
 31
0.0
  0
LINE
  5
E7
330
17
100
AcDbEntity
  8
0
100
AcDbLine
 10
46.81437096603788
 20
15.948217485826532
 30
0.0
 11
45.851163710044204
 21
15.681592808674353
 31
0.0
  0
LINE
  5
E8
330
17
100
AcDbEntity
  8
0
100
AcDbLine
 10
45.851163710044226
 20
15.681592808674317
 30
0.0
 11
44.98542066030142
 21
15.32021524247742
 31
0.0
  0
LINE
  5
E9
330
17
100
AcDbEntity
  8
0
100
AcDbLine
 10
44.9854206603014
 20
15.320215242477468
 30
0.0
 11
44.21177132311268
 21
14.869934280305303
 31
0.0
  0
LINE
  5
EA
330
17
100
AcDbEntity
  8
0
100
AcDbLine
 10
44.21177132311267
 20
14.869934280305305
 30
0.0
 11
43.52484450957226
 21
14.336597329598916
 31
0.0
  0
LINE
  5
EB
330
17
100
AcDbEntity
  8
0
100
AcDbLine
 10
43.52484450957226
 20
14.3365973295989
 30
0.0
 11
42.9192711164026
 21
13.726055273846866
 31
0.0
  0
LINE
  5
EC
330
17
100
AcDbEntity
  8
0
100
AcDbLine
 10
42.91927111640261
 20
13.726055273846859
 30
0.0
 11
41.930699140342035
 21
12.296745476969734
 31
0.0
  0
LINE
  5
ED
330
17
100
AcDbEntity
  8
0
100
AcDbLine
 10
41.930699140342085
 20
12.296745476969724
 30
0.0
 11
41.203090054939906
 21
10.628795272553958
 31
0.0
  0
LINE
  5
EE
330
17
100
AcDbEntity
  8
0
100
AcDbLine
 10
41.2030900549398
 20
10.628795272553987
 30
0.0
 11
40.693480605833614
 21
8.768995043479938
 31
0.0
  0
LINE
  5
EF
330
17
100
AcDbEntity
  8
0
100
AcDbLine
 10
40.693480605833734
 20
8.768995043479906
 30
0.0
 11
40.35890475782288
 21
6.76413447741801
 31
0.0
  0
LINE
  5
F0
330
17
100
AcDbEntity
  8
0
100
AcDbLine
 10
40.35890475782282
 20
6.764134477418021
 30
0.0
 11
40.27977962456318
 21
5.716753041347595
 31
0.0
  0
LINE
  5
F1
330
17
100
AcDbEntity
  8
0
100
AcDbLine
 10
40.279779624563105
 20
5.7167530413476015
 30
0.0
 11
38.0936180028673
 21
6.172729454673583
 31
0.0
  0
LINE
  5
F2
330
17
100
AcDbEntity
  8
0
100
AcDbLine
 10
38.0936180028673
 20
6.172729454673589
 30
0.0
 11
35.4430217885101
 21
6.511975720374155
 31
0.0
  0
LINE
  5
F3
330
17
100
AcDbEntity
  8
0
100
AcDbLine
 10
35.4430217885101
 20
6.511975720374158
 30
0.0
 11
32.983362093475606
 21
6.643469043188842
 31
0.0
  0
LINE
  5
F4
330
17
100
AcDbEntity
  8
0
100
AcDbLine
 10
32.983362093475606
 20
6.643469043188847
 30
0.0
 11
30.579433871215205
 21
6.59897285179068
 31
0.0
  0
LINE
  5
F5
330
17
100
AcDbEntity
  8
0
100
AcDbLine
 10
30.579433871215205
 20
6.598972851790671
 30
0.0
 11
27.943165230267706
 21
6.389217010220027
 31
0.0
  0
LINE
  5
F6
330
17
100
AcDbEntity
  8
0
100
AcDbLine
 10
27.943165230267706
 20
6.389217010220036
 30
0.0
 11
25.246425177902502
 21
5.99168020542863
 31
0.0
  0
LINE
  5
F7
330
17
100
AcDbEntity
  8
0
100
AcDbLine
 10
25.2464251779025
 20
5.9916802054286356
 30
0.0
 11
22.6610855022268
 21
5.383841124368134
 31
0.0
  0
LINE
  5
F8
330
17
100
AcDbEntity
  8
0
100
AcDbLine
 10
22.6610855022268
 20
5.38384112436813
 30
0.0
 11
22.431086198640294
 21
5.299850808718251
 31
0.0
  0
LINE
  5
F9
330
17
100
AcDbEntity
  8
0
100
AcDbLine
 10
22.431086198640287
 20
5.29985080871823
 30
0.0
 11
22.302277430489717
 21
5.962151875426666
 31
0.0
  0
LINE
  5
FA
330
17
100
AcDbEntity
  8
0
100
AcDbLine
 10
22.302277430489703
 20
5.962151875426657
 30
0.0
 11
23.881472318562203
 21
6.165958113753978
 31
0.0
  0
LINE
  5
FB
330
17
100
AcDbEntity
  8
0
100
AcDbLine
 10
23.881472318562203
 20
6.165958113753984
 30
0.0
 11
23.960934768984202
 21
6.805092052257594
 31
0.0
  0
LINE
  5
FC
330
17
100
AcDbEntity
  8
0
100
AcDbLine
 10
23.9609347689842
 20
6.8050920522575895
 30
0.0
 11
23.59746740291001
 21
7.18450057308398
 31
0.0
  0
LINE
  5
FD
330
17
100
AcDbEntity
  8
0
100
AcDbLine
 10
23.597467402910002
 20
7.184500573083973
 30
0.0
 11
21.0919461249408
 21
7.093020730553535
 31
0.0
  0
LINE
  5
FE
330
17
100
AcDbEntity
  8
0
100
AcDbLine
 10
21.0919461249408
 20
7.093020730553536
 30
0.0
 11
18.587160378664905
 21
7.189160562630588
 31
0.0
  0
LINE
  5
FF
330
17
100
AcDbEntity
  8
0
100
AcDbLine
 10
18.587160378664915
 20
7.189160562630571
 30
0.0
 11
18.204072808952834
 21
6.861255250155989
 31
0.0
  0
LINE
  5
100
330
17
100
AcDbEntity
  8
0
100
AcDbLine
 10
18.204072808952844
 20
6.86125525015603
 30
0.0
 11
18.299231700368964
 21
6.173560925283429
 31
0.0
  0
LINE
  5
101
330
17
100
AcDbEntity
  8
0
100
AcDbLine
 10
18.299231700369003
 20
6.173560925283428
 30
0.0
 11
19.459531556162204
 21
6.001883100637662
 31
0.0
  0
LINE
  5
102
330
17
100
AcDbEntity
  8
0
100
AcDbLine
 10
19.45953155616221
 20
6.001883100637662
 30
0.0
 11
18.51945582095939
 21
3.4521817296337596
 31
0.0
  0
LINE
  5
103
330
17
100
AcDbEntity
  8
0
100
AcDbLine
 10
18.519455820959404
 20
3.4521817296337565
 30
0.0
 11
18.51208191960213
 21
3.447172966875264
 31
0.0
  0
LINE
  5
104
330
17
100
AcDbEntity
  8
0
100
AcDbLine
 10
18.512081919602146
 20
3.44717296687526
 30
0.0
 11
17.81300214809301
 21
2.7963775835477374
 31
0.0
  0
LINE
  5
105
330
17
100
AcDbEntity
  8
0
100
AcDbLine
 10
17.81300214809296
 20
2.7963775835477747
 30
0.0
 11
17.29215880802989
 21
2.0733005691368565
 31
0.0
  0
LINE
  5
106
330
17
100
AcDbEntity
  8
0
100
AcDbLine
 10
17.29215880802999
 20
2.0733005691368103
 30
0.0
 11
16.971034569408605
 21
1.2751263250056035
 31
0.0
  0
LINE
  5
107
330
17
100
AcDbEntity
  8
0
100
AcDbLine
 10
16.971034569408594
 20
1.275126325005605
 30
0.0
 11
16.87111418785301
 21
0.3990406429361055
 31
0.0
  0
LINE
  5
108
330
17
100
AcDbEntity
  8
0
100
AcDbLine
 10
16.871114187852918
 20
0.399040642936096
 30
0.0
 11
16.983435021973488
 21
-0.5241489615161028
 31
0.0
  0
LINE
  5
109
330
17
100
AcDbEntity
  8
0
100
AcDbLine
 10
16.983435021973563
 20
-0.5241489615160811
 30
0.0
 11
17.01709998177124
 21
-0.6225524640824616
 31
0.0
  0
LINE
  5
10A
330
17
100
AcDbEntity
  8
0
100
AcDbLine
 10
17.017099981771203
 20
-0.6225524640824736
 30
0.0
 11
16.17066693917861
 21
-2.918273338843407
 31
0.0
  0
LINE
  5
10B
330
17
100
AcDbEntity
  8
0
100
AcDbLine
 10
16.17066693917857
 20
-2.918273338843419
 30
0.0
 11
12.621832190759653
 21
5.9773574984855244
 31
0.0
  0
LINE
  5
10C
330
17
100
AcDbEntity
  8
0
100
AcDbLine
 10
12.621832190759706
 20
5.977357498485537
 30
0.0
 11
13.879007410323302
 21
6.152468963049351
 31
0.0
  0
LINE
  5
10D
330
17
100
AcDbEntity
  8
0
100
AcDbLine
 10
13.879007410323268
 20
6.152468963049363
 30
0.0
 11
14.023953037736941
 21
6.7712464710122156
 31
0.0
  0
LINE
  5
10E
330
17
100
AcDbEntity
  8
0
100
AcDbLine
 10
14.023953037736955
 20
6.771246471012265
 30
0.0
 11
13.676426826415009
 21
7.214176287508417
 31
0.0
  0
LINE
  5
10F
330
17
100
AcDbEntity
  8
0
100
AcDbLine
 10
13.676426826415005
 20
7.214176287508412
 30
0.0
 11
11.323853037664843
 21
7.116933157891361
 31
0.0
  0
LINE
  5
110
330
17
100
AcDbEntity
  8
0
100
AcDbLine
 10
11.323853037664843
 20
7.116933157891366
 30
0.0
 11
8.969991025637114
 21
7.207309702881823
 31
0.0
  0
LINE
  5
111
330
17
100
AcDbEntity
  8
0
100
AcDbLine
 10
8.969991025637116
 20
7.207309702881823
 30
0.0
 11
8.578564417492753
 21
6.860274309495087
 31
0.0
  0
LINE
  5
112
330
17
100
AcDbEntity
  8
0
100
AcDbLine
 10
8.578564417492755
 20
6.860274309495086
 30
0.0
 11
8.666856029072752
 21
6.196860177806987
 31
0.0
  0
LINE
  5
113
330
17
100
AcDbEntity
  8
0
100
AcDbLine
 10
8.666856029072745
 20
6.19686017780699
 30
0.0
 11
10.085899666672713
 21
5.986677477578782
 31
0.0
  0
LINE
  5
114
330
17
100
AcDbEntity
  8
0
100
AcDbLine
 10
10.085899666672711
 20
5.9866774775787865
 30
0.0
 11
7.505085109892897
 21
-6.035704844939345
 31
0.0
  0
LINE
  5
115
330
17
100
AcDbEntity
  8
0
100
AcDbLine
 10
7.505085109892902
 20
-6.035704844939345
 30
0.0
 11
6.051460359354252
 21
-6.223815337482082
 31
0.0
  0
LINE
  5
116
330
17
100
AcDbEntity
  8
0
100
AcDbLine
 10
6.051460359354254
 20
-6.223815337482085
 30
0.0
 11
5.821902169246253
 21
-6.816105361970935
 31
0.0
  0
LINE
  5
117
330
17
100
AcDbEntity
  8
0
100
AcDbLine
 10
5.821902169246252
 20
-6.816105361970935
 30
0.0
 11
6.248400013054999
 21
-7.305142865579
 31
0.0
  0
LINE
  5
118
330
17
100
AcDbEntity
  8
0
100
AcDbLine
 10
6.248400013054993
 20
-7.305142865579001
 30
0.0
 11
9.004449086487213
 21
-7.1878498928283685
 31
0.0
  0
LINE
  5
119
330
17
100
AcDbEntity
  8
0
100
AcDbLine
 10
9.004449086487213
 20
-7.187849892828366
 30
0.0
 11
11.760498159919402
 21
-7.257808828838562
 31
0.0
  0
LINE
  5
11A
330
17
100
AcDbEntity
  8
0
100
AcDbLine
 10
11.76049815991942
 20
-7.2578088288385825
 30
0.0
 11
12.12347470805839
 21
-6.879135839705484
 31
0.0
  0
LINE
  5
11B
330
17
100
AcDbEntity
  8
0
100
AcDbLine
 10
12.123474708058383
 20
-6.879135839705499
 30
0.0
 11
12.004771850360623
 21
-6.263546562693081
 31
0.0
  0
LINE
  5
11C
330
17
100
AcDbEntity
  8
0
100
AcDbLine
 10
12.004771850360603
 20
-6.263546562693081
 30
0.0
 11
9.983628086452855
 21
-6.0239328617985075
 31
0.0
  0
LINE
  5
11D
330
17
100
AcDbEntity
  8
0
100
AcDbLine
 10
9.983628086452855
 20
-6.0239328617985155
 30
0.0
 11
11.876012786666745
 21
3.8725821125443987
 31
0.0
  0
LINE
  5
11E
330
17
100
AcDbEntity
  8
0
100
AcDbLine
 10
11.876012786666774
 20
3.872582112544435
 30
0.0
 11
16.360493904075625
 21
-6.993669525791877
 31
0.0
  0
LINE
  5
11F
330
17
100
AcDbEntity
  8
0
100
AcDbLine
 10
16.360493904075604
 20
-6.993669525791883
 30
0.0
 11
17.086937818288703
 21
-6.945844671116203
 31
0.0
  0
LINE
  5
120
330
17
100
AcDbEntity
  8
0
100
AcDbLine
 10
17.086937818288753
 20
-6.945844671116224
 30
0.0
 11
18.511947597429042
 21
-3.0164001538506695
 31
0.0
  0
LINE
  5
121
330
17
100
AcDbEntity
  8
0
100
AcDbLine
 10
18.511947597429003
 20
-3.016400153850656
 30
0.0
 11
19.0805220856118
 21
-3.5093543939421896
 31
0.0
  0
LINE
  5
122
330
17
100
AcDbEntity
  8
0
100
AcDbLine
 10
19.080522085611804
 20
-3.5093543939421843
 30
0.0
 11
19.948350068765198
 21
-4.091150925634307
 31
0.0
  0
LINE
  5
123
330
17
100
AcDbEntity
  8
0
100
AcDbLine
 10
19.948350068765198
 20
-4.091150925634311
 30
0.0
 11
22.000522424862208
 21
-5.074674290015398
 31
0.0
  0
LINE
  5
124
330
17
100
AcDbEntity
  8
0
100
AcDbLine
 10
22.000522424862208
 20
-5.0746742900154
 30
0.0
 11
22.629082695074512
 21
-5.275123407240865
 31
0.0
  0
LINE
  5
125
330
17
100
AcDbEntity
  8
0
100
AcDbLine
 10
22.62908269507457
 20
-5.275123407240877
 30
0.0
 11
22.73343526384503
 21
-6.053608576222966
 31
0.0
  0
LINE
  5
126
330
17
100
AcDbEntity
  8
0
100
AcDbLine
 10
22.7334352638451
 20
-6.053608576222935
 30
0.0
 11
20.7068966739068
 21
-6.272130314883446
 31
0.0
  0
LINE
  5
127
330
17
100
AcDbEntity
  8
0
100
AcDbLine
 10
20.706896673906815
 20
-6.272130314883451
 30
0.0
 11
20.5018633907414
 21
-6.966201101656933
 31
0.0
  0
LINE
  5
128
330
17
100
AcDbEntity
  8
0
100
AcDbLine
 10
20.50186339074139
 20
-6.966201101656949
 30
0.0
 11
20.896969047771467
 21
-7.353212434012797
 31
0.0
  0
LINE
  5
129
330
17
100
AcDbEntity
  8
0
100
AcDbLine
 10
20.896969047771506
 20
-7.353212434012754
 30
0.0
 11
23.431583454570603
 21
-7.262591175264221
 31
0.0
  0
LINE
  5
12A
330
17
100
AcDbEntity
  8
0
100
AcDbLine
 10
23.431583454570603
 20
-7.262591175264218
 30
0.0
 11
25.965645864995004
 21
-7.359589591123175
 31
0.0
  0
LINE
  5
12B
330
17
100
AcDbEntity
  8
0
100
AcDbLine
 10
25.965645864994997
 20
-7.359589591123169
 30
0.0
 11
26.329604049004406
 21
-6.980425784054869
 31
0.0
  0
LINE
  5
12C
330
17
100
AcDbEntity
  8
0
100
AcDbLine
 10
26.32960404900433
 20
-6.980425784054875
 30
0.0
 11
26.25112253924328
 21
-6.341047131793201
 31
0.0
  0
LINE
  5
12D
330
17
100
AcDbEntity
  8
0
100
AcDbLine
 10
26.2511225392434
 20
-6.341047131793199
 30
0.0
 11
24.652062038565305
 21
-6.119827284907948
 31
0.0
  0
LINE
  5
12E
330
17
100
AcDbEntity
  8
0
100
AcDbLine
 10
24.652062038565347
 20
-6.119827284907937
 30
0.0
 11
24.605825547514453
 21
-5.882091315660346
 31
0.0
  0
LINE
  5
12F
330
17
100
AcDbEntity
  8
0
100
AcDbLine
 10
24.605825547514403
 20
-5.88209131566036
 30
0.0
 11
26.987925075602405
 21
-6.390794936056515
 31
0.0
  0
LINE
  5
130
330
17
100
AcDbEntity
  8
0
100
AcDbLine
 10
26.987925075602405
 20
-6.390794936056506
 30
0.0
 11
29.704293674120105
 21
-6.763019856706076
 31
0.0
  0
LINE
  5
131
330
17
100
AcDbEntity
  8
0
100
AcDbLine
 10
29.704293674120105
 20
-6.763019856706074
 30
0.0
 11
32.42320048266821
 21
-6.971105804961634
 31
0.0
  0
LINE
  5
132
330
17
100
AcDbEntity
  8
0
100
AcDbLine
 10
32.42320048266821
 20
-6.971105804961641
 30
0.0
 11
34.8386170425771
 21
-6.994336926950273
 31
0.0
  0
LINE
  5
133
330
17
100
AcDbEntity
  8
0
100
AcDbLine
 10
34.8386170425771
 20
-6.994336926950282
 30
0.0
 11
37.44139743998281
 21
-6.827287112212302
 31
0.0
  0
LINE
  5
134
330
17
100
AcDbEntity
  8
0
100
AcDbLine
 10
37.44139743998281
 20
-6.827287112212304
 30
0.0
 11
40.08190338307661
 21
-6.452004660005811
 31
0.0
  0
LINE
  5
135
330
17
100
AcDbEntity
  8
0
100
AcDbLine
 10
40.08190338307661
 20
-6.45200466000582
 30
0.0
 11
42.610495189630704
 21
-5.850537869588957
 31
0.0
  0
LINE
  5
136
330
17
100
AcDbEntity
  8
0
100
AcDbLine
 10
42.610495189630704
 20
-5.850537869588956
 30
0.0
 11
42.67859786587241
 21
-5.825135665017053
 31
0.0
  0
LINE
  5
137
330
17
100
AcDbEntity
  8
0
100
AcDbLine
 10
56.6896750973155
 20
-7.655366489916188
 30
0.0
 11
54.408469434313105
 21
-7.398094466705612
 31
0.0
  0
LINE
  5
138
330
17
100
AcDbEntity
  8
0
100
AcDbLine
 10
54.408469434313105
 20
-7.398094466705608
 30
0.0
 11
52.24369885548911
 21
-7.371852392199232
 31
0.0
  0
LINE
  5
139
330
17
100
AcDbEntity
  8
0
100
AcDbLine
 10
52.243698855489065
 20
-7.371852392199237
 30
0.0
 11
52.33836692896994
 21
11.96573952994676
 31
0.0
  0
LINE
  5
13A
330
17
100
AcDbEntity
  8
0
100
AcDbLine
 10
52.338366928969904
 20
11.965739529946703
 30
0.0
 11
53.506515005260205
 21
11.990019723131214
 31
0.0
  0
LINE
  5
13B
330
17
100
AcDbEntity
  8
0
100
AcDbLine
 10
53.50651500526021
 20
11.990019723131265
 30
0.0
 11
54.0375139662836
 21
10.941581167952654
 31
0.0
  0
LINE
  5
13C
330
17
100
AcDbEntity
  8
0
100
AcDbLine
 10
54.03751396628363
 20
10.941581167952666
 30
0.0
 11
54.323642051870976
 21
9.83167218524727
 31
0.0
  0
LINE
  5
13D
330
17
100
AcDbEntity
  8
0
100
AcDbLine
 10
54.323642051870976
 20
9.831672185247255
 30
0.0
 11
54.41184954309662
 21
8.67534058550835
 31
0.0
  0
LINE
  5
13E
330
17
100
AcDbEntity
  8
0
100
AcDbLine
 10
54.411849543096565
 20
8.67534058550835
 30
0.0
 11
54.349087416244444
 21
7.487635569648324
 31
0.0
  0
LINE
  5
13F
330
17
100
AcDbEntity
  8
0
100
AcDbLine
 10
54.349087416244494
 20
7.487635569648322
 30
0.0
 11
53.95845821344252
 21
5.078300007585828
 31
0.0
  0
LINE
  5
140
330
17
100
AcDbEntity
  8
0
100
AcDbLine
 10
53.958458213442526
 20
5.078300007585826
 30
0.0
 11
53.52736155852668
 21
2.724054935101555
 31
0.0
  0
LINE
  5
141
330
17
100
AcDbEntity
  8
0
100
AcDbLine
 10
53.52736155852666
 20
2.724054935101555
 30
0.0
 11
53.392436681422545
 21
1.3259739507612058
 31
0.0
  0
LINE
  5
142
330
17
100
AcDbEntity
  8
0
100
AcDbLine
 10
53.39243668142252
 20
1.3259739507612098
 30
0.0
 11
53.397050787139484
 21
-0.03462272560140302
 31
0.0
  0
LINE
  5
143
330
17
100
AcDbEntity
  8
0
100
AcDbLine
 10
53.397050787139534
 20
-0.0346227256013998
 30
0.0
 11
53.54717989688346
 21
-1.3620989242688937
 31
0.0
  0
LINE
  5
144
330
17
100
AcDbEntity
  8
0
100
AcDbLine
 10
53.547179896883485
 20
-1.3620989242688817
 30
0.0
 11
53.84879864144111
 21
-2.660817085104718
 31
0.0
  0
LINE
  5
145
330
17
100
AcDbEntity
  8
0
100
AcDbLine
 10
53.84879864144109
 20
-2.660817085104723
 30
0.0
 11
54.30788234680871
 21
-3.9351403431819683
 31
0.0
  0
LINE
  5
146
330
17
100
AcDbEntity
  8
0
100
AcDbLine
 10
54.30788234680872
 20
-3.9351403431819647
 30
0.0
 11
54.93040564377309
 21
-5.189430443154576
 31
0.0
  0
LINE
  5
147
330
17
100
AcDbEntity
  8
0
100
AcDbLine
 10
54.93040564377306
 20
-5.189430443154602
 30
0.0
 11
55.722345248749576
 21
-6.4280519105146805
 31
0.0
  0
LINE
  5
148
330
17
100
AcDbEntity
  8
0
100
AcDbLine
 10
55.722345248749576
 20
-6.4280519105146805
 30
0.0
 11
56.689675097315465
 21
-7.655366489916208
 31
0.0
  0
LINE
  5
149
330
17
100
AcDbEntity
  8
0
100
AcDbLine
 10
54.759030235277194
 20
0.11160278257539268
 30
0.0
 11
56.03165648686729
 21
-0.5240975160101441
 31
0.0
  0
LINE
  5
14A
330
17
100
AcDbEntity
  8
0
100
AcDbLine
 10
56.03165648686726
 20
-0.524097516010127
 30
0.0
 11
56.03720564941554
 21
-2.5967444882697
 31
0.0
  0
LINE
  5
14B
330
17
100
AcDbEntity
  8
0
100
AcDbLine
 10
56.037205649415554
 20
-2.596744488269706
 30
0.0
 11
56.286476506030255
 21
-4.744439330372295
 31
0.0
  0
LINE
  5
14C
330
17
100
AcDbEntity
  8
0
100
AcDbLine
 10
56.28647650603031
 20
-4.744439330372284
 30
0.0
 11
55.6368080573671
 21
-3.363295736054973
 31
0.0
  0
LINE
  5
14D
330
17
100
AcDbEntity
  8
0
100
AcDbLine
 10
55.63680805736705
 20
-3.3632957360549898
 30
0.0
 11
55.18310596904856
 21
-2.1081971073873653
 31
0.0
  0
LINE
  5
14E
330
17
100
AcDbEntity
  8
0
100
AcDbLine
 10
55.183105969048555
 20
-2.108197107387362
 30
0.0
 11
54.89922758153266
 21
-0.9572095833824409
 31
0.0
  0
LINE
  5
14F
330
17
100
AcDbEntity
  8
0
100
AcDbLine
 10
54.89922758153264
 20
-0.9572095833824374
 30
0.0
 11
54.759030235277166
 21
0.111602782575409
 31
0.0
  0
LINE
  5
150
330
17
100
AcDbEntity
  8
0
100
AcDbLine
 10
56.0770286422859
 20
0.1834624214679722
 30
0.0
 11
54.7315618111423
 21
0.861836072037796
 31
0.0
  0
LINE
  5
151
330
17
100
AcDbEntity
  8
0
100
AcDbLine
 10
54.731561811142235
 20
0.8618360720377992
 30
0.0
 11
54.804647799663364
 21
2.093014626062622
 31
0.0
  0
LINE
  5
152
330
17
100
AcDbEntity
  8
0
100
AcDbLine
 10
54.8046477996634
 20
2.0930146260626143
 30
0.0
 11
56.184204925810405
 21
1.292012964732205
 31
0.0
  0
LINE
  5
153
330
17
100
AcDbEntity
  8
0
100
AcDbLine
 10
56.18420492581038
 20
1.2920129647322018
 30
0.0
 11
56.077028642285825
 21
0.1834624214679782
 31
0.0
  0
LINE
  5
154
330
17
100
AcDbEntity
  8
0
100
AcDbLine
 10
56.2717610056971
 20
1.9949129126636884
 30
0.0
 11
54.899806691079505
 21
2.801064686266431
 31
0.0
  0
LINE
  5
155
330
17
100
AcDbEntity
  8
0
100
AcDbLine
 10
54.899806691079554
 20
2.8010646862664212
 30
0.0
 11
55.09625552684505
 21
3.9216333168486335
 31
0.0
  0
LINE
  5
156
330
17
100
AcDbEntity
  8
0
100
AcDbLine
 10
55.09625552684499
 20
3.921633316848615
 30
0.0
 11
56.44123223526289
 21
3.1407426770913216
 31
0.0
  0
LINE
  5
157
330
17
100
AcDbEntity
  8
0
100
AcDbLine
 10
56.4412322352629
 20
3.1407426770913496
 30
0.0
 11
56.2717610056971
 21
1.9949129126636898
 31
0.0
  0
LINE
  5
158
330
17
100
AcDbEntity
  8
0
100
AcDbLine
 10
56.553313222092186
 20
3.8311344149791187
 30
0.0
 11
55.226485653925494
 21
4.607855883125055
 31
0.0
  0
LINE
  5
159
330
17
100
AcDbEntity
  8
0
100
AcDbLine
 10
55.22648565392546
 20
4.607855883125078
 30
0.0
 11
55.47590945663896
 21
6.059762770890378
 31
0.0
  0
LINE
  5
15A
330
17
100
AcDbEntity
  8
0
100
AcDbLine
 10
55.475909456639016
 20
6.059762770890388
 30
0.0
 11
56.80175608414472
 21
5.28941845985489
 31
0.0
  0
LINE
  5
15B
330
17
100
AcDbEntity
  8
0
100
AcDbLine
 10
56.80175608414469
 20
5.289418459854872
 30
0.0
 11
56.55331322209212
 21
3.831134414979173
 31
0.0
  0
LINE
  5
15C
330
17
100
AcDbEntity
  8
0
100
AcDbLine
 10
56.92021422808442
 20
5.9756410261313135
 30
0.0
 11
55.56812552607232
 21
6.769039180722748
 31
0.0
  0
LINE
  5
15D
330
17
100
AcDbEntity
  8
0
100
AcDbLine
 10
55.5681255260723
 20
6.76903918072273
 30
0.0
 11
55.678490040547295
 21
8.518900363560318
 31
0.0
  0
LINE
  5
15E
330
17
100
AcDbEntity
  8
0
100
AcDbLine
 10
55.678490040547345
 20
8.51890036356032
 30
0.0
 11
55.58651938008167
 21
10.524623684661362
 31
0.0
  0
LINE
  5
15F
330
17
100
AcDbEntity
  8
0
100
AcDbLine
 10
55.586519380081654
 20
10.524623684661382
 30
0.0
 11
57.156394289060934
 21
7.381440226784722
 31
0.0
  0
LINE
  5
160
330
17
100
AcDbEntity
  8
0
100
AcDbLine
 10
57.15639428906085
 20
7.381440226784719
 30
0.0
 11
56.920214228084355
 21
5.9756410261312976
 31
0.0
  0
LINE
  5
161
330
17
100
AcDbEntity
  8
0
100
AcDbLine
 10
-27.329883171640432
 20
-5.59605893995201
 30
0.0
 11
-27.33112801739476
 21
-5.93220761030046
 31
0.0
  0
LINE
  5
162
330
17
100
AcDbEntity
  8
0
100
AcDbLine
 10
-27.331128017394697
 20
-5.932207610300456
 30
0.0
 11
-29.356686361881497
 21
-6.121543757262224
 31
0.0
  0
LINE
  5
163
330
17
100
AcDbEntity
  8
0
100
AcDbLine
 10
-29.35668636188142
 20
-6.121543757262259
 30
0.0
 11
-29.570057988269586
 21
-6.698137340756954
 31
0.0
  0
LINE
  5
164
330
17
100
AcDbEntity
  8
0
100
AcDbLine
 10
-29.57005798826964
 20
-6.698137340756981
 30
0.0
 11
-29.190648772233757
 21
-7.203116694326731
 31
0.0
  0
LINE
  5
165
330
17
100
AcDbEntity
  8
0
100
AcDbLine
 10
-29.190648772233796
 20
-7.20311669432676
 30
0.0
 11
-26.182263663324996
 21
-7.121018009329086
 31
0.0
  0
LINE
  5
166
330
17
100
AcDbEntity
  8
0
100
AcDbLine
 10
-26.182263663324996
 20
-7.121018009329082
 30
0.0
 11
-23.1733265580414
 21
-7.22690676478556
 31
0.0
  0
LINE
  5
167
330
17
100
AcDbEntity
  8
0
100
AcDbLine
 10
-23.173326558041445
 20
-7.226906764785518
 30
0.0
 11
-22.80985919196725
 21
-6.84823377565244
 31
0.0
  0
LINE
  5
168
330
17
100
AcDbEntity
  8
0
100
AcDbLine
 10
-22.809859191967256
 20
-6.848233775652504
 30
0.0
 11
-22.944258490659134
 21
-6.160784859747528
 31
0.0
  0
LINE
  5
169
330
17
100
AcDbEntity
  8
0
100
AcDbLine
 10
-22.9442584906591
 20
-6.160784859747519
 30
0.0
 11
-24.980853286593398
 21
-5.941036771458451
 31
0.0
  0
LINE
  5
16A
330
17
100
AcDbEntity
  8
0
100
AcDbLine
 10
-24.98085328659345
 20
-5.94103677145846
 30
0.0
 11
-24.976198037225544
 21
-4.7313539074096305
 31
0.0
  0
LINE
  5
16B
330
17
100
AcDbEntity
  8
0
100
AcDbLine
 10
-24.976198037225416
 20
-4.731353907409587
 30
0.0
 11
-24.964749452808803
 21
-4.72708342420617
 31
0.0
  0
LINE
  5
16C
330
17
100
AcDbEntity
  8
0
100
AcDbLine
 10
-24.964749452808796
 20
-4.727083424206192
 30
0.0
 11
-23.9760502534024
 21
-4.207101448763208
 31
0.0
  0
LINE
  5
16D
330
17
100
AcDbEntity
  8
0
100
AcDbLine
 10
-23.976050253402388
 20
-4.207101448763227
 30
0.0
 11
-23.108847263625478
 21
-3.619349056941945
 31
0.0
  0
LINE
  5
16E
330
17
100
AcDbEntity
  8
0
100
AcDbLine
 10
-23.108847263625503
 20
-3.6193490569419127
 30
0.0
 11
-22.381850657828036
 21
-2.9615779410899576
 31
0.0
  0
LINE
  5
16F
330
17
100
AcDbEntity
  8
0
100
AcDbLine
 10
-22.381850657828068
 20
-2.961577941089946
 30
0.0
 11
-21.813769915150644
 21
-2.2315411839741346
 31
0.0
  0
LINE
  5
170
330
17
100
AcDbEntity
  8
0
100
AcDbLine
 10
-21.813769915150562
 20
-2.2315411839741888
 30
0.0
 11
-21.42331381952405
 21
-1.4269911731516138
 31
0.0
  0
LINE
  5
171
330
17
100
AcDbEntity
  8
0
100
AcDbLine
 10
-21.423313819524115
 20
-1.4269911731515872
 30
0.0
 11
-21.229193240508078
 21
-0.5456796009699056
 31
0.0
  0
LINE
  5
172
330
17
100
AcDbEntity
  8
0
100
AcDbLine
 10
-21.229193240508003
 20
-0.5456796009698998
 30
0.0
 11
-21.253184921733393
 21
0.39295755946110955
 31
0.0
  0
LINE
  5
173
330
17
100
AcDbEntity
  8
0
100
AcDbLine
 10
-21.253184921733435
 20
0.3929575594611241
 30
0.0
 11
-21.50160275624257
 21
1.2605241438274473
 31
0.0
  0
LINE
  5
174
330
17
100
AcDbEntity
  8
0
100
AcDbLine
 10
-21.501602756242637
 20
1.2605241438274177
 30
0.0
 11
-21.953541097958126
 21
2.0586121819756897
 31
0.0
  0
LINE
  5
175
330
17
100
AcDbEntity
  8
0
100
AcDbLine
 10
-21.95354109795807
 20
2.058612181975731
 30
0.0
 11
-22.58809499601216
 21
2.788813703752573
 31
0.0
  0
LINE
  5
176
330
17
100
AcDbEntity
  8
0
100
AcDbLine
 10
-22.588094996012213
 20
2.788813703752521
 30
0.0
 11
-23.384358804327526
 21
3.452720043794935
 31
0.0
  0
LINE
  5
177
330
17
100
AcDbEntity
  8
0
100
AcDbLine
 10
-23.384358804327505
 20
3.4527200437949577
 30
0.0
 11
-24.32142757203622
 21
4.051923231949539
 31
0.0
  0
LINE
  5
178
330
17
100
AcDbEntity
  8
0
100
AcDbLine
 10
-24.3214275720362
 20
4.051923231949573
 30
0.0
 11
-24.941307678563195
 21
4.335028075305466
 31
0.0
  0
LINE
  5
179
330
17
100
AcDbEntity
  8
0
100
AcDbLine
 10
-24.941307678563238
 20
4.33502807530546
 30
0.0
 11
-24.934744904271955
 21
6.040387976220099
 31
0.0
  0
LINE
  5
17A
330
17
100
AcDbEntity
  8
0
100
AcDbLine
 10
-24.9347449042719
 20
6.040387976220106
 30
0.0
 11
-22.936655679129696
 21
6.252533252979712
 31
0.0
  0
LINE
  5
17B
330
17
100
AcDbEntity
  8
0
100
AcDbLine
 10
-22.936655679129693
 20
6.252533252979708
 30
0.0
 11
-22.732113213899506
 21
6.876460873214903
 31
0.0
  0
LINE
  5
17C
330
17
100
AcDbEntity
  8
0
100
AcDbLine
 10
-22.732113213899506
 20
6.876460873214888
 30
0.0
 11
-23.15002730551784
 21
7.318164340082482
 31
0.0
  0
LINE
  5
17D
330
17
100
AcDbEntity
  8
0
100
AcDbLine
 10
-23.1500273055178
 20
7.318164340082521
 30
0.0
 11
-26.121225656132097
 21
7.2311602565705995
 31
0.0
  0
LINE
  5
17E
330
17
100
AcDbEntity
  8
0
100
AcDbLine
 10
-26.121225656132097
 20
7.231160256570602
 30
0.0
 11
-29.080284257758798
 21
7.31816434008252
 31
0.0
  0
LINE
  5
17F
330
17
100
AcDbEntity
  8
0
100
AcDbLine
 10
-29.080284257758763
 20
7.318164340082487
 30
0.0
 11
-29.45086431263663
 21
6.900005534706117
 31
0.0
  0
LINE
  5
180
330
17
100
AcDbEntity
  8
0
100
AcDbLine
 10
-29.450864312636636
 20
6.9000055347060805
 30
0.0
 11
-29.31744525939616
 21
6.292755296125968
 31
0.0
  0
LINE
  5
181
330
17
100
AcDbEntity
  8
0
100
AcDbLine
 10
-29.317445259396195
 20
6.292755296125967
 30
0.0
 11
-27.286736802637098
 21
6.0548580675856645
 31
0.0
  0
LINE
  5
182
330
17
100
AcDbEntity
  8
0
100
AcDbLine
 10
-27.28673680263711
 20
6.054858067585659
 30
0.0
 11
-27.28955761723228
 21
5.29314676948265
 31
0.0
  0
LINE
  5
183
330
17
100
AcDbEntity
  8
0
100
AcDbLine
 10
-27.289557617232298
 20
5.293146769482653
 30
0.0
 11
-29.0596414008875
 21
5.8335436722029685
 31
0.0
  0
LINE
  5
184
330
17
100
AcDbEntity
  8
0
100
AcDbLine
 10
-29.059641400887497
 20
5.833543672202978
 30
0.0
 11
-31.730038573363096
 21
6.377524976176304
 31
0.0
  0
LINE
  5
185
330
17
100
AcDbEntity
  8
0
100
AcDbLine
 10
-31.730038573363096
 20
6.377524976176309
 30
0.0
 11
-34.378304445342394
 21
6.707266337046025
 31
0.0
  0
LINE
  5
186
330
17
100
AcDbEntity
  8
0
100
AcDbLine
 10
-34.378304445342394
 20
6.707266337046024
 30
0.0
 11
-36.8371980194638
 21
6.835503298375348
 31
0.0
  0
LINE
  5
187
330
17
100
AcDbEntity
  8
0
100
AcDbLine
 10
-36.8371980194638
 20
6.835503298375339
 30
0.0
 11
-39.242123867413994
 21
6.794423366656742
 31
0.0
  0
LINE
  5
188
330
17
100
AcDbEntity
  8
0
100
AcDbLine
 10
-39.242123867413994
 20
6.794423366656747
 30
0.0
 11
-41.88087093037159
 21
6.594280187395677
 31
0.0
  0
LINE
  5
189
330
17
100
AcDbEntity
  8
0
100
AcDbLine
 10
-41.88087093037159
 20
6.594280187395678
 30
0.0
 11
-44.581071040617495
 21
6.210495322514992
 31
0.0
  0
LINE
  5
18A
330
17
100
AcDbEntity
  8
0
100
AcDbLine
 10
-44.581071040617495
 20
6.210495322514987
 30
0.0
 11
-47.00581254060859
 21
5.656110121651797
 31
0.0
  0
LINE
  5
18B
330
17
100
AcDbEntity
  8
0
100
AcDbLine
 10
-47.005812540608616
 20
5.656110121651811
 30
0.0
 11
-47.01771721424937
 21
6.11445490540215
 31
0.0
  0
LINE
  5
18C
330
17
100
AcDbEntity
  8
0
100
AcDbLine
 10
-47.017717214249295
 20
6.1144549054021535
 30
0.0
 11
-45.0085915376595
 21
6.3155637307142705
 31
0.0
  0
LINE
  5
18D
330
17
100
AcDbEntity
  8
0
100
AcDbLine
 10
-45.00859153765955
 20
6.315563730714284
 30
0.0
 11
-44.85015675954125
 21
6.892402723176645
 31
0.0
  0
LINE
  5
18E
330
17
100
AcDbEntity
  8
0
100
AcDbLine
 10
-44.85015675954126
 20
6.892402723176595
 30
0.0
 11
-45.17021454672831
 21
7.362555554840123
 31
0.0
  0
LINE
  5
18F
330
17
100
AcDbEntity
  8
0
100
AcDbLine
 10
-45.170214546728296
 20
7.362555554840132
 30
0.0
 11
-49.280681969341096
 21
7.531535966470693
 31
0.0
  0
LINE
  5
190
330
17
100
AcDbEntity
  8
0
100
AcDbLine
 10
-49.280681969341096
 20
7.531535966470702
 30
0.0
 11
-58.04093187210768
 21
-3.550539997510903
 31
0.0
  0
LINE
  5
191
330
17
100
AcDbEntity
  8
0
100
AcDbLine
 10
-58.04093187210771
 20
-3.550539997510886
 30
0.0
 11
-57.90236340180447
 21
6.152714372016972
 31
0.0
  0
LINE
  5
192
330
17
100
AcDbEntity
  8
0
100
AcDbLine
 10
-57.90236340180449
 20
6.152714372016979
 30
0.0
 11
-55.7943997849129
 21
6.378839617416448
 31
0.0
  0
LINE
  5
193
330
17
100
AcDbEntity
  8
0
100
AcDbLine
 10
-55.794399784912855
 20
6.378839617416429
 30
0.0
 11
-55.57391546972094
 21
7.050101274392044
 31
0.0
  0
LINE
  5
194
330
17
100
AcDbEntity
  8
0
100
AcDbLine
 10
-55.57391546972098
 20
7.050101274392073
 30
0.0
 11
-55.9364018951342
 21
7.453054456709636
 31
0.0
  0
LINE
  5
195
330
17
100
AcDbEntity
  8
0
100
AcDbLine
 10
-55.936401895134196
 20
7.453054456709645
 30
0.0
 11
-58.56032013860359
 21
7.36930047779722
 31
0.0
  0
LINE
  5
196
330
17
100
AcDbEntity
  8
0
100
AcDbLine
 10
-58.56032013860359
 20
7.369300477797222
 30
0.0
 11
-61.183869921016694
 21
7.473165478282748
 31
0.0
  0
LINE
  5
197
330
17
100
AcDbEntity
  8
0
100
AcDbLine
 10
-61.18386992101668
 20
7.473165478282731
 30
0.0
 11
-61.57480640643536
 21
7.097435311132484
 31
0.0
  0
LINE
  5
198
330
17
100
AcDbEntity
  8
0
100
AcDbLine
 10
-61.57480640643538
 20
7.097435311132528
 30
0.0
 11
-61.440897230469204
 21
6.418570842627456
 31
0.0
  0
LINE
  5
199
330
17
100
AcDbEntity
  8
0
100
AcDbLine
 10
-61.440897230469204
 20
6.418570842627456
 30
0.0
 11
-59.9259591697598
 21
6.208142038222095
 31
0.0
  0
LINE
  5
19A
330
17
100
AcDbEntity
  8
0
100
AcDbLine
 10
-59.92595916975974
 20
6.208142038222098
 30
0.0
 11
-59.71851211907144
 21
3.6250513654083285
 31
0.0
  0
LINE
  5
19B
330
17
100
AcDbEntity
  8
0
100
AcDbLine
 10
-59.718512119071534
 20
3.6250513654083223
 30
0.0
 11
-59.610623245768465
 21
0.19394687654070047
 31
0.0
  0
LINE
  5
19C
330
17
100
AcDbEntity
  8
0
100
AcDbLine
 10
-59.61062324576849
 20
0.19394687654070203
 30
0.0
 11
-59.49357498677592
 21
-7.9410878779226195
 31
0.0
  0
LINE
  5
19D
330
17
100
AcDbEntity
  8
0
100
AcDbLine
 10
-59.4935749867759
 20
-7.94108787792262
 30
0.0
 11
-58.88387204893869
 21
-8.162307724807853
 31
0.0
  0
LINE
  5
19E
330
17
100
AcDbEntity
  8
0
100
AcDbLine
 10
-58.88387204893865
 20
-8.16230772480791
 30
0.0
 11
-52.738542476788794
 21
-0.5976541308839219
 31
0.0
  0
LINE
  5
19F
330
17
100
AcDbEntity
  8
0
100
AcDbLine
 10
-52.7385424767888
 20
-0.5976541308839161
 30
0.0
 11
-52.5679051966008
 21
-1.0963689817947142
 31
0.0
  0
LINE
  5
1A0
330
17
100
AcDbEntity
  8
0
100
AcDbLine
 10
-52.567905196600805
 20
-1.0963689817947178
 30
0.0
 11
-52.11231839521939
 21
-1.8755090839302817
 31
0.0
  0
LINE
  5
1A1
330
17
100
AcDbEntity
  8
0
100
AcDbLine
 10
-52.11231839521938
 20
-1.8755090839302742
 30
0.0
 11
-51.50562015301401
 21
-2.5863705715138567
 31
0.0
  0
LINE
  5
1A2
330
17
100
AcDbEntity
  8
0
100
AcDbLine
 10
-51.50562015301401
 20
-2.586370571513863
 30
0.0
 11
-50.76149149852239
 21
-3.2314346473936304
 31
0.0
  0
LINE
  5
1A3
330
17
100
AcDbEntity
  8
0
100
AcDbLine
 10
-50.76149149852241
 20
-3.231434647393656
 30
0.0
 11
-49.89361137465352
 21
-3.813181819208445
 31
0.0
  0
LINE
  5
1A4
330
17
100
AcDbEntity
  8
0
100
AcDbLine
 10
-49.8936113746535
 20
-3.8131818192084346
 30
0.0
 11
-48.668214806147006
 21
-4.400394463984422
 31
0.0
  0
LINE
  5
1A5
330
17
100
AcDbEntity
  8
0
100
AcDbLine
 10
-48.668214806147056
 20
-4.400394463984406
 30
0.0
 11
-48.71095566568254
 21
-5.802958423880906
 31
0.0
  0
LINE
  5
1A6
330
17
100
AcDbEntity
  8
0
100
AcDbLine
 10
-48.7109556656825
 20
-5.802958423880902
 30
0.0
 11
-50.8991172646894
 21
-6.010443711093905
 31
0.0
  0
LINE
  5
1A7
330
17
100
AcDbEntity
  8
0
100
AcDbLine
 10
-50.89911726468937
 20
-6.010443711093916
 30
0.0
 11
-51.08796328892542
 21
-6.657915992820279
 31
0.0
  0
LINE
  5
1A8
330
17
100
AcDbEntity
  8
0
100
AcDbLine
 10
-51.08796328892546
 20
-6.6579159928202225
 30
0.0
 11
-50.74902152500338
 21
-7.061114584105443
 31
0.0
  0
LINE
  5
1A9
330
17
100
AcDbEntity
  8
0
100
AcDbLine
 10
-50.74902152500339
 20
-7.061114584105451
 30
0.0
 11
-47.9975093890292
 21
-6.991339183413804
 31
0.0
  0
LINE
  5
1AA
330
17
100
AcDbEntity
  8
0
100
AcDbLine
 10
-47.9975093890292
 20
-6.991339183413811
 30
0.0
 11
-45.24526241657129
 21
-7.108448620845889
 31
0.0
  0
LINE
  5
1AB
330
17
100
AcDbEntity
  8
0
100
AcDbLine
 10
-45.2452624165713
 20
-7.108448620845879
 30
0.0
 11
-44.85015675954124
 21
-6.666008927075358
 31
0.0
  0
LINE
  5
1AC
330
17
100
AcDbEntity
  8
0
100
AcDbLine
 10
-44.85015675954122
 20
-6.6660089270754055
 30
0.0
 11
-45.01619434918897
 21
-6.050665059030594
 31
0.0
  0
LINE
  5
1AD
330
17
100
AcDbEntity
  8
0
100
AcDbLine
 10
-45.01619434918899
 20
-6.050665059030601
 30
0.0
 11
-46.7069801013651
 21
-5.849311519960405
 31
0.0
  0
LINE
  5
1AE
330
17
100
AcDbEntity
  8
0
100
AcDbLine
 10
-46.70698010136503
 20
-5.849311519960406
 30
0.0
 11
-46.72507576218736
 21
-5.152606007762677
 31
0.0
  0
LINE
  5
1AF
330
17
100
AcDbEntity
  8
0
100
AcDbLine
 10
-46.7250757621874
 20
-5.152606007762689
 30
0.0
 11
-45.4581626908913
 21
-5.556613704220097
 31
0.0
  0
LINE
  5
1B0
330
17
100
AcDbEntity
  8
0
100
AcDbLine
 10
-45.45816269089129
 20
-5.556613704220089
 30
0.0
 11
-42.8535963001775
 21
-6.112925244594846
 31
0.0
  0
LINE
  5
1B1
330
17
100
AcDbEntity
  8
0
100
AcDbLine
 10
-42.8535963001775
 20
-6.11292524459485
 30
0.0
 11
-40.137050423227095
 21
-6.485428249060407
 31
0.0
  0
LINE
  5
1B2
330
17
100
AcDbEntity
  8
0
100
AcDbLine
 10
-40.137050423227095
 20
-6.485428249060405
 30
0.0
 11
-37.4179607745699
 21
-6.693968169145593
 31
0.0
  0
LINE
  5
1B3
330
17
100
AcDbEntity
  8
0
100
AcDbLine
 10
-37.4179607745699
 20
-6.693968169145595
 30
0.0
 11
-35.0030788307972
 21
-6.716895484565243
 31
0.0
  0
LINE
  5
1B4
330
17
100
AcDbEntity
  8
0
100
AcDbLine
 10
-35.0030788307972
 20
-6.7168954845652316
 30
0.0
 11
-32.400641171694794
 21
-6.549651011156055
 31
0.0
  0
LINE
  5
1B5
330
17
100
AcDbEntity
  8
0
100
AcDbLine
 10
-32.400641171694794
 20
-6.549651011156061
 30
0.0
 11
-29.760322935176895
 21
-6.17425454458503
 31
0.0
  0
LINE
  5
1B6
330
17
100
AcDbEntity
  8
0
100
AcDbLine
 10
-29.760322935176898
 20
-6.174254544585011
 30
0.0
 11
-27.329883171640404
 21
-5.596058939951987
 31
0.0
  0
LINE
  5
1B7
330
17
100
AcDbEntity
  8
0
100
AcDbLine
 10
-27.536428261023506
 20
3.2175362180892697
 30
0.0
 11
-26.180830141253505
 21
2.5702189680903205
 31
0.0
  0
LINE
  5
1B8
330
17
100
AcDbEntity
  8
0
100
AcDbLine
 10
-26.180830141253484
 20
2.570218968090353
 30
0.0
 11
-25.24214570657377
 21
1.872179925262574
 31
0.0
  0
LINE
  5
1B9
330
17
100
AcDbEntity
  8
0
100
AcDbLine
 10
-25.242145706573755
 20
1.8721799252625708
 30
0.0
 11
-24.958582248979475
 21
1.5124500056754167
 31
0.0
  0
LINE
  5
1BA
330
17
100
AcDbEntity
  8
0
100
AcDbLine
 10
-24.958582248979486
 20
1.5124500056754036
 30
0.0
 11
-24.814570287978025
 21
1.1500108545108683
 31
0.0
  0
LINE
  5
1BB
330
17
100
AcDbEntity
  8
0
100
AcDbLine
 10
-24.81457028797807
 20
1.1500108545108785
 30
0.0
 11
-24.80880630568192
 21
0.7820016845118855
 31
0.0
  0
LINE
  5
1BC
330
17
100
AcDbEntity
  8
0
100
AcDbLine
 10
-24.80880630568193
 20
0.782001684511924
 30
0.0
 11
-24.923069555257253
 21
0.3755940059900733
 31
0.0
  0
LINE
  5
1BD
330
17
100
AcDbEntity
  8
0
100
AcDbLine
 10
-24.923069555257243
 20
0.37559400599008586
 30
0.0
 11
-25.496458917982125
 21
-0.5186289977684736
 31
0.0
  0
LINE
  5
1BE
330
17
100
AcDbEntity
  8
0
100
AcDbLine
 10
-25.496458917982093
 20
-0.518628997768496
 30
0.0
 11
-26.504299321653303
 21
-1.465074056543244
 31
0.0
  0
LINE
  5
1BF
330
17
100
AcDbEntity
  8
0
100
AcDbLine
 10
-26.5042993216533
 20
-1.4650740565432445
 30
0.0
 11
-27.91615240698101
 21
-2.3961570701125905
 31
0.0
  0
LINE
  5
1C0
330
17
100
AcDbEntity
  8
0
100
AcDbLine
 10
-27.916152406981013
 20
-2.3961570701125727
 30
0.0
 11
-29.701577729046818
 21
-3.2442939382549887
 31
0.0
  0
LINE
  5
1C1
330
17
100
AcDbEntity
  8
0
100
AcDbLine
 10
-29.7015777290468
 20
-3.244293938255015
 30
0.0
 11
-31.83013692856099
 21
-3.9419005607489637
 31
0.0
  0
LINE
  5
1C2
330
17
100
AcDbEntity
  8
0
100
AcDbLine
 10
-31.830136928560997
 20
-3.941900560748951
 30
0.0
 11
-34.271389560604796
 21
-4.421394227791867
 31
0.0
  0
LINE
  5
1C3
330
17
100
AcDbEntity
  8
0
100
AcDbLine
 10
-34.271389560604796
 20
-4.4213942277918745
 30
0.0
 11
-36.9948965706792
 21
-4.615190143952744
 31
0.0
  0
LINE
  5
1C4
330
17
100
AcDbEntity
  8
0
100
AcDbLine
 10
-36.9948965706792
 20
-4.615190143952743
 30
0.0
 11
-39.773833332587294
 21
-4.534906651064011
 31
0.0
  0
LINE
  5
1C5
330
17
100
AcDbEntity
  8
0
100
AcDbLine
 10
-39.773833332587294
 20
-4.534906651064009
 30
0.0
 11
-42.198145793769996
 21
-4.258494118798156
 31
0.0
  0
LINE
  5
1C6
330
17
100
AcDbEntity
  8
0
100
AcDbLine
 10
-42.198145793769996
 20
-4.258494118798164
 30
0.0
 11
-44.261089726479796
 21
-3.8214485558485536
 31
0.0
  0
LINE
  5
1C7
330
17
100
AcDbEntity
  8
0
100
AcDbLine
 10
-44.261089726479796
 20
-3.8214485558485447
 30
0.0
 11
-45.95591812213099
 21
-3.2592694469561576
 31
0.0
  0
LINE
  5
1C8
330
17
100
AcDbEntity
  8
0
100
AcDbLine
 10
-45.95591812213099
 20
-3.259269446956155
 30
0.0
 11
-47.275886752976
 21
-2.6074528008143467
 31
0.0
  0
LINE
  5
1C9
330
17
100
AcDbEntity
  8
0
100
AcDbLine
 10
-47.27588675297602
 20
-2.607452800814373
 30
0.0
 11
-48.21424930563872
 21
-1.901497406954607
 31
0.0
  0
LINE
  5
1CA
330
17
100
AcDbEntity
  8
0
100
AcDbLine
 10
-48.2142493056387
 20
-1.9014974069545858
 30
0.0
 11
-48.76426155237157
 21
-1.1769006644892077
 31
0.0
  0
LINE
  5
1CB
330
17
100
AcDbEntity
  8
0
100
AcDbLine
 10
-48.764261552371565
 20
-1.1769006644892201
 30
0.0
 11
-48.91917648458883
 21
-0.4691606677402811
 31
0.0
  0
LINE
  5
1CC
330
17
100
AcDbEntity
  8
0
100
AcDbLine
 10
-48.919176484588824
 20
-0.46916066774026643
 30
0.0
 11
-48.65916881183836
 21
0.43172591945918204
 31
0.0
  0
LINE
  5
1CD
330
17
100
AcDbEntity
  8
0
100
AcDbLine
 10
-48.659168811838406
 20
0.43172591945920025
 30
0.0
 11
-48.0125662372466
 21
1.3115796372355026
 31
0.0
  0
LINE
  5
1CE
330
17
100
AcDbEntity
  8
0
100
AcDbLine
 10
-48.01256623724658
 20
1.3115796372354802
 30
0.0
 11
-47.001811515183675
 21
2.1456440738692075
 31
0.0
  0
LINE
  5
1CF
330
17
100
AcDbEntity
  8
0
100
AcDbLine
 10
-47.001811515183675
 20
2.145644073869199
 30
0.0
 11
-45.6493501808581
 21
2.9091607320123862
 31
0.0
  0
LINE
  5
1D0
330
17
100
AcDbEntity
  8
0
100
AcDbLine
 10
-45.6493501808581
 20
2.9091607320123907
 30
0.0
 11
-43.9776235982211
 21
3.577373199945592
 31
0.0
  0
LINE
  5
1D1
330
17
100
AcDbEntity
  8
0
100
AcDbLine
 10
-43.9776235982211
 20
3.5773731999456095
 30
0.0
 11
-42.0090773024811
 21
4.125524370739865
 31
0.0
  0
LINE
  5
1D2
330
17
100
AcDbEntity
  8
0
100
AcDbLine
 10
-42.009077302481096
 20
4.125524370739833
 30
0.0
 11
-39.766154743217996
 21
4.528855747047153
 31
0.0
  0
LINE
  5
1D3
330
17
100
AcDbEntity
  8
0
100
AcDbLine
 10
-39.766154743217996
 20
4.528855747047162
 30
0.0
 11
-37.271298674802
 21
4.762611612357662
 31
0.0
  0
LINE
  5
1D4
330
17
100
AcDbEntity
  8
0
100
AcDbLine
 10
-37.271298674802
 20
4.762611612357668
 30
0.0
 11
-35.2440572280189
 21
4.767767286306313
 31
0.0
  0
LINE
  5
1D5
330
17
100
AcDbEntity
  8
0
100
AcDbLine
 10
-35.2440572280189
 20
4.767767286306325
 30
0.0
 11
-33.1627542017767
 21
4.589247209367875
 31
0.0
  0
LINE
  5
1D6
330
17
100
AcDbEntity
  8
0
100
AcDbLine
 10
-33.1627542017767
 20
4.58924720936788
 30
0.0
 11
-31.121585622278793
 21
4.2536410608187385
 31
0.0
  0
LINE
  5
1D7
330
17
100
AcDbEntity
  8
0
100
AcDbLine
 10
-31.1215856222788
 20
4.2536410608187145
 30
0.0
 11
-29.214745430099605
 21
3.787539910354319
 31
0.0
  0
LINE
  5
1D8
330
17
100
AcDbEntity
  8
0
100
AcDbLine
 10
-29.214745430099605
 20
3.787539910354326
 30
0.0
 11
-27.5364282610235
 21
3.2175362180892835
 31
0.0
  0
LINE
  5
1D9
330
17
100
AcDbEntity
  8
0
100
AcDbLine
 10
-18.136777459289917
 20
-8.320251684990904
 30
0.0
 11
-7.643067757153464
 21
4.599026721967058
 31
0.0
  0
LINE
  5
1DA
330
17
100
AcDbEntity
  8
0
100
AcDbLine
 10
-7.643067757153473
 20
4.599026721967067
 30
0.0
 11
-7.964841321485222
 21
-5.9606569750963425
 31
0.0
  0
LINE
  5
1DB
330
17
100
AcDbEntity
  8
0
100
AcDbLine
 10
-7.964841321485226
 20
-5.960656975096341
 30
0.0
 11
-10.153003615701696
 21
-6.168387671276957
 31
0.0
  0
LINE
  5
1DC
330
17
100
AcDbEntity
  8
0
100
AcDbLine
 10
-10.153003615701667
 20
-6.16838767127696
 30
0.0
 11
-10.34184963993773
 21
-6.816105361970932
 31
0.0
  0
LINE
  5
1DD
330
17
100
AcDbEntity
  8
0
100
AcDbLine
 10
-10.341849639937731
 20
-6.81610536197097
 30
0.0
 11
-10.002171649112817
 21
-7.2193039532561505
 31
0.0
  0
LINE
  5
1DE
330
17
100
AcDbEntity
  8
0
100
AcDbLine
 10
-10.002171649112796
 20
-7.21930395325613
 30
0.0
 11
-7.2507519760074555
 21
-7.149007840619015
 31
0.0
  0
LINE
  5
1DF
330
17
100
AcDbEntity
  8
0
100
AcDbLine
 10
-7.2507519760074555
 20
-7.14900784061901
 30
0.0
 11
-4.498412540680677
 21
-7.266147172061315
 31
0.0
  0
LINE
  5
1E0
330
17
100
AcDbEntity
  8
0
100
AcDbLine
 10
-4.49841254068067
 20
-7.266147172061319
 30
0.0
 11
-4.104533928488724
 21
-6.823952887258465
 31
0.0
  0
LINE
  5
1E1
330
17
100
AcDbEntity
  8
0
100
AcDbLine
 10
-4.104533928488726
 20
-6.8239528872584625
 30
0.0
 11
-4.269835291233612
 21
-6.20811889648795
 31
0.0
  0
LINE
  5
1E2
330
17
100
AcDbEntity
  8
0
100
AcDbLine
 10
-4.269835291233618
 20
-6.2081188964879574
 30
0.0
 11
-5.960865757167769
 21
-6.007500889111087
 31
0.0
  0
LINE
  5
1E3
330
17
100
AcDbEntity
  8
0
100
AcDbLine
 10
-5.960865757167766
 20
-6.007500889111082
 30
0.0
 11
-6.271112747326327
 21
5.957982703815286
 31
0.0
  0
LINE
  5
1E4
330
17
100
AcDbEntity
  8
0
100
AcDbLine
 10
-6.271112747326326
 20
5.957982703815287
 30
0.0
 11
-4.261741661768926
 21
6.158355302224547
 31
0.0
  0
LINE
  5
1E5
330
17
100
AcDbEntity
  8
0
100
AcDbLine
 10
-4.261741661768925
 20
6.158355302224547
 30
0.0
 11
-4.104533928488723
 21
6.734458762993596
 31
0.0
  0
LINE
  5
1E6
330
17
100
AcDbEntity
  8
0
100
AcDbLine
 10
-4.1045339284887286
 20
6.734458762993595
 30
0.0
 11
-4.423119261870047
 21
7.204857003624707
 31
0.0
  0
LINE
  5
1E7
330
17
100
AcDbEntity
  8
0
100
AcDbLine
 10
-4.423119261870047
 20
7.204857003624702
 30
0.0
 11
-8.534077502418095
 21
7.37432753798095
 31
0.0
  0
LINE
  5
1E8
330
17
100
AcDbEntity
  8
0
100
AcDbLine
 10
-8.534077502418146
 20
7.374327537980997
 30
0.0
 11
-17.294818223120004
 21
-3.7084839576939452
 31
0.0
  0
LINE
  5
1E9
330
17
100
AcDbEntity
  8
0
100
AcDbLine
 10
-17.294818223119947
 20
-3.7084839576939514
 30
0.0
 11
-17.155758934881447
 21
5.995506638736778
 31
0.0
  0
LINE
  5
1EA
330
17
100
AcDbEntity
  8
0
100
AcDbLine
 10
-17.155758934881497
 20
5.995506638736772
 30
0.0
 11
-15.048040726957495
 21
6.220895657233405
 31
0.0
  0
LINE
  5
1EB
330
17
100
AcDbEntity
  8
0
100
AcDbLine
 10
-15.048040726957513
 20
6.220895657233414
 30
0.0
 11
-14.826820880072276
 21
6.892402723176632
 31
0.0
  0
LINE
  5
1EC
330
17
100
AcDbEntity
  8
0
100
AcDbLine
 10
-14.826820880072248
 20
6.892402723176684
 30
0.0
 11
-15.190288246146391
 21
7.295355905494195
 31
0.0
  0
LINE
  5
1ED
330
17
100
AcDbEntity
  8
0
100
AcDbLine
 10
-15.190288246146398
 20
7.295355905494196
 30
0.0
 11
-17.813991669867896
 21
7.211387106833923
 31
0.0
  0
LINE
  5
1EE
330
17
100
AcDbEntity
  8
0
100
AcDbLine
 10
-17.813991669867896
 20
7.211387106833912
 30
0.0
 11
-20.4375108630613
 21
7.315221518099698
 31
0.0
  0
LINE
  5
1EF
330
17
100
AcDbEntity
  8
0
100
AcDbLine
 10
-20.437510863061313
 20
7.315221518099723
 30
0.0
 11
-20.82844665327048
 21
6.93949135094944
 31
0.0
  0
LINE
  5
1F0
330
17
100
AcDbEntity
  8
0
100
AcDbLine
 10
-20.828446653270486
 20
6.939491350949461
 30
0.0
 11
-20.694782886271913
 21
6.261117005170097
 31
0.0
  0
LINE
  5
1F1
330
17
100
AcDbEntity
  8
0
100
AcDbLine
 10
-20.6947828862719
 20
6.261117005170105
 30
0.0
 11
-19.179600111804493
 21
6.0497079553133615
 31
0.0
  0
LINE
  5
1F2
330
17
100
AcDbEntity
  8
0
100
AcDbLine
 10
-19.179600111804437
 20
6.049707955313344
 30
0.0
 11
-18.97191182340575
 21
3.4667660573411245
 31
0.0
  0
LINE
  5
1F3
330
17
100
AcDbEntity
  8
0
100
AcDbLine
 10
-18.971911823405723
 20
3.466766057341127
 30
0.0
 11
-18.86398818962567
 21
0.03578809660977163
 31
0.0
  0
LINE
  5
1F4
330
17
100
AcDbEntity
  8
0
100
AcDbLine
 10
-18.863988189625687
 20
0.035788096609770295
 30
0.0
 11
-18.747215928820502
 21
-8.098787124347611
 31
0.0
  0
LINE
  5
1F5
330
17
100
AcDbEntity
  8
0
100
AcDbLine
 10
-18.747215928820506
 20
-8.09878712434764
 30
0.0
 11
-18.136777459289913
 21
-8.32025168499097
 31
0.0
  0
LINE
  5
1F6
330
17
100
AcDbEntity
  8
0
100
AcDbLine
 10
-24.058450659340444
 20
9.696153599196006
 30
0.0
 11
-26.20614550144303
 21
12.230859773654428
 31
0.0
  0
LINE
  5
1F7
330
17
100
AcDbEntity
  8
0
100
AcDbLine
 10
-26.206145501443046
 20
12.230859773654332
 30
0.0
 11
-28.069590018925805
 21
9.759184076930527
 31
0.0
  0
LINE
  5
1F8
330
17
100
AcDbEntity
  8
0
100
AcDbLine
 10
-28.069590018925815
 20
9.759184076930502
 30
0.0
 11
-26.056539884482735
 21
7.239928239289052
 31
0.0
  0
LINE
  5
1F9
330
17
100
AcDbEntity
  8
0
100
AcDbLine
 10
-26.056539884482717
 20
7.239928239289094
 30
0.0
 11
-24.058450659340476
 21
9.696153599195942
 31
0.0
  0
ENDSEC
  0
SECTION
  2
OBJECTS
  0
DICTIONARY
  5
A
330
0
100
AcDbDictionary
281
1
  3
ACAD_COLOR
350
B
  3
ACAD_GROUP
350
C
  3
ACAD_LAYOUT
350
D
  3
ACAD_MATERIAL
350
E
  3
ACAD_MLEADERSTYLE
350
F
  3
ACAD_MLINESTYLE
350
10
  3
ACAD_PLOTSETTINGS
350
11
  3
ACAD_PLOTSTYLENAME
350
12
  3
ACAD_SCALELIST
350
14
  3
ACAD_TABLESTYLE
350
15
  3
ACAD_VISUALSTYLE
350
16
  3
EZDXF_META
350
2D
  0
DICTIONARY
  5
B
330
A
100
AcDbDictionary
281
1
  0
DICTIONARY
  5
C
330
A
100
AcDbDictionary
281
1
  0
DICTIONARY
  5
D
330
A
100
AcDbDictionary
281
1
  3
Model
350
1A
  3
Layout1
350
1E
  0
DICTIONARY
  5
E
330
A
100
AcDbDictionary
281
1
  3
ByBlock
350
1F
  3
ByLayer
350
20
  3
Global
350
21
  0
DICTIONARY
  5
F
330
A
100
AcDbDictionary
281
1
  3
Standard
350
2C
  0
DICTIONARY
  5
10
330
A
100
AcDbDictionary
281
1
  3
Standard
350
22
  0
DICTIONARY
  5
11
330
A
100
AcDbDictionary
281
1
  0
ACDBDICTIONARYWDFLT
  5
12
330
A
100
AcDbDictionary
281
1
  3
Normal
350
13
100
AcDbDictionaryWithDefault
340
13
  0
ACDBPLACEHOLDER
  5
13
330
12
  0
DICTIONARY
  5
14
330
A
100
AcDbDictionary
281
1
  0
DICTIONARY
  5
15
330
A
100
AcDbDictionary
281
1
  0
DICTIONARY
  5
16
330
A
100
AcDbDictionary
281
1
  0
LAYOUT
  5
1A
330
D
100
AcDbPlotSettings
  1

  4
A3
  6

 40
7.5
 41
20.0
 42
7.5
 43
20.0
 44
420.0
 45
297.0
 46
0.0
 47
0.0
 48
0.0
 49
0.0
140
0.0
141
0.0
142
1.0
143
1.0
 70
1024
 72
1
 73
0
 74
5
  7

 75
16
 76
0
 77
2
 78
300
147
1.0
148
0.0
149
0.0
100
AcDbLayout
  1
Model
 70
1
 71
0
 10
0.0
 20
0.0
 11
420.0
 21
297.0
 12
0.0
 22
0.0
 32
0.0
 14
1e+20
 24
1e+20
 34
1e+20
 15
-1e+20
 25
-1e+20
 35
-1e+20
146
0.0
 13
0.0
 23
0.0
 33
0.0
 16
1.0
 26
0.0
 36
0.0
 17
0.0
 27
1.0
 37
0.0
 76
1
330
17
  0
LAYOUT
  5
1E
330
D
100
AcDbPlotSettings
  1

  4
A3
  6

 40
7.5
 41
20.0
 42
7.5
 43
20.0
 44
420.0
 45
297.0
 46
0.0
 47
0.0
 48
0.0
 49
0.0
140
0.0
141
0.0
142
1.0
143
1.0
 70
0
 72
1
 73
0
 74
5
  7

 75
16
 76
0
 77
2
 78
300
147
1.0
148
0.0
149
0.0
100
AcDbLayout
  1
Layout1
 70
1
 71
1
 10
0.0
 20
0.0
 11
420.0
 21
297.0
 12
0.0
 22
0.0
 32
0.0
 14
1e+20
 24
1e+20
 34
1e+20
 15
-1e+20
 25
-1e+20
 35
-1e+20
146
0.0
 13
0.0
 23
0.0
 33
0.0
 16
1.0
 26
0.0
 36
0.0
 17
0.0
 27
1.0
 37
0.0
 76
1
330
1B
  0
MATERIAL
  5
1F
102
{ACAD_REACTORS
330
E
102
}
330
E
100
AcDbMaterial
  1
ByBlock
  2

 70
0
 40
1.0
 71
1
 41
1.0
 91
-1023410177
 42
1.0
 72
1
  3

 73
1
 74
1
 75
1
 44
0.5
 73
0
 45
1.0
 46
1.0
 77
1
  4

 78
1
 79
1
170
1
 48
1.0
171
1
  6

172
1
173
1
174
1
140
1.0
141
1.0
175
1
  7

176
1
177
1
178
1
143
1.0
179
1
  8

270
1
271
1
272
1
145
1.0
146
1.0
273
1
  9

274
1
275
1
276
1
 42
1.0
 72
1
  3

 73
1
 74
1
 75
1
 94
63
  0
MATERIAL
  5
20
102
{ACAD_REACTORS
330
E
102
}
330
E
100
AcDbMaterial
  1
ByLayer
  2

 70
0
 40
1.0
 71
1
 41
1.0
 91
-1023410177
 42
1.0
 72
1
  3

 73
1
 74
1
 75
1
 44
0.5
 73
0
 45
1.0
 46
1.0
 77
1
  4

 78
1
 79
1
170
1
 48
1.0
171
1
  6

172
1
173
1
174
1
140
1.0
141
1.0
175
1
  7

176
1
177
1
178
1
143
1.0
179
1
  8

270
1
271
1
272
1
145
1.0
146
1.0
273
1
  9

274
1
275
1
276
1
 42
1.0
 72
1
  3

 73
1
 74
1
 75
1
 94
63
  0
MATERIAL
  5
21
102
{ACAD_REACTORS
330
E
102
}
330
E
100
AcDbMaterial
  1
Global
  2

 70
0
 40
1.0
 71
1
 41
1.0
 91
-1023410177
 42
1.0
 72
1
  3

 73
1
 74
1
 75
1
 44
0.5
 73
0
 45
1.0
 46
1.0
 77
1
  4

 78
1
 79
1
170
1
 48
1.0
171
1
  6

172
1
173
1
174
1
140
1.0
141
1.0
175
1
  7

176
1
177
1
178
1
143
1.0
179
1
  8

270
1
271
1
272
1
145
1.0
146
1.0
273
1
  9

274
1
275
1
276
1
 42
1.0
 72
1
  3

 73
1
 74
1
 75
1
 94
63
  0
MLINESTYLE
  5
22
102
{ACAD_REACTORS
330
10
102
}
330
10
100
AcDbMlineStyle
  2
Standard
 70
0
  3

 62
256
 51
90.0
 52
90.0
 71
2
 49
0.5
 62
256
  6
BYLAYER
 49
-0.5
 62
256
  6
BYLAYER
  0
MLEADERSTYLE
  5
2C
102
{ACAD_REACTORS
330
F
102
}
330
F
100
AcDbMLeaderStyle
179
2
170
2
171
1
172
0
 90
2
 40
0.0
 41
0.0
173
1
 91
-1056964608
 92
-2
290
1
 42
2.0
291
1
 43
8.0
  3
Standard
 44
4.0
300

342
29
174
1
175
1
176
0
178
1
 93
-1056964608
 45
4.0
292
0
297
0
 46
4.0
 94
-1056964608
 47
1.0
 49
1.0
140
1.0
294
1
141
0.0
177
0
142
1.0
295
0
296
0
143
3.75
271
0
272
9
273
9
  0
DICTIONARY
  5
2D
330
A
100
AcDbDictionary
280
1
281
1
  3
CREATED_BY_EZDXF
350
2E
  3
WRITTEN_BY_EZDXF
350
1FD
  0
DICTIONARYVAR
  5
2E
330
2D
100
DictionaryVariables
280
0
  1
1.4.4 @ 2026-09-02T12:30:44.397479+00:00
  0
DICTIONARYVAR
  5
1FD
330
2D
100
DictionaryVariables
280
0
  1
1.4.4 @ 2026-09-04T14:23:03.047274+00:00
  0
ENDSEC
  0
EOF
