ISO-10303-21;
HEADER;
/* Generated by software containing ST-Developer
 * from STEP Tools, Inc. (www.steptools.com) 
 */
/* OPTION: using custom renumber hook */

FILE_DESCRIPTION(
/* description */ ('STEP AP242 Edition 2',
'CAx-IF Rec.Pracs.---Representation and Presentation of Product Manufa
cturing Information (PMI)---4.0---2014-10-13',
'CAx-IF Rec.Pracs.---3D Tessellated Geometry---0.4---2014-09-14','2;1',
'CAx-IF Rec.Pracs.---User Defined Attributes---1.5---2016-08-15'),
/* implementation_level */ '2;1');

FILE_NAME(
/* name */ 'Topper',
/* time_stamp */ '2026-09-03T08:38:20Z',
/* author */ (''),
/* organization */ (''),
/* preprocessor_version */ 'ST-DEVELOPER v20',
/* originating_system */ 'ONSHAPE BY PTC INC, 1.220',
/* authorisation */ '  ');

FILE_SCHEMA (('AP242_MANAGED_MODEL_BASED_3D_ENGINEERING_MIM_LF { 1 0 10303 442 3 1 4 }'));
ENDSEC;

DATA;
#10=SHAPE_REPRESENTATION_RELATIONSHIP('','',#229,#11);
#11=ADVANCED_BREP_SHAPE_REPRESENTATION('',(#227),#357);
#12=ORIENTED_EDGE('',*,*,#68,.F.);
#13=ORIENTED_EDGE('',*,*,#69,.T.);
#14=ORIENTED_EDGE('',*,*,#70,.T.);
#15=ORIENTED_EDGE('',*,*,#71,.F.);
#16=ORIENTED_EDGE('',*,*,#72,.F.);
#17=ORIENTED_EDGE('',*,*,#73,.T.);
#18=ORIENTED_EDGE('',*,*,#74,.T.);
#19=ORIENTED_EDGE('',*,*,#75,.F.);
#20=ORIENTED_EDGE('',*,*,#76,.F.);
#21=ORIENTED_EDGE('',*,*,#70,.F.);
#22=ORIENTED_EDGE('',*,*,#77,.F.);
#23=ORIENTED_EDGE('',*,*,#74,.F.);
#24=ORIENTED_EDGE('',*,*,#78,.T.);
#25=ORIENTED_EDGE('',*,*,#79,.T.);
#26=ORIENTED_EDGE('',*,*,#80,.T.);
#27=ORIENTED_EDGE('',*,*,#79,.F.);
#28=ORIENTED_EDGE('',*,*,#81,.F.);
#29=ORIENTED_EDGE('',*,*,#82,.T.);
#30=ORIENTED_EDGE('',*,*,#73,.F.);
#31=ORIENTED_EDGE('',*,*,#83,.F.);
#32=ORIENTED_EDGE('',*,*,#84,.F.);
#33=ORIENTED_EDGE('',*,*,#81,.T.);
#34=ORIENTED_EDGE('',*,*,#78,.F.);
#35=ORIENTED_EDGE('',*,*,#80,.F.);
#36=ORIENTED_EDGE('',*,*,#85,.T.);
#37=ORIENTED_EDGE('',*,*,#86,.T.);
#38=ORIENTED_EDGE('',*,*,#71,.T.);
#39=ORIENTED_EDGE('',*,*,#76,.T.);
#40=ORIENTED_EDGE('',*,*,#72,.T.);
#41=ORIENTED_EDGE('',*,*,#86,.F.);
#42=ORIENTED_EDGE('',*,*,#87,.F.);
#43=ORIENTED_EDGE('',*,*,#83,.T.);
#44=ORIENTED_EDGE('',*,*,#85,.F.);
#45=ORIENTED_EDGE('',*,*,#82,.F.);
#46=ORIENTED_EDGE('',*,*,#84,.T.);
#47=ORIENTED_EDGE('',*,*,#87,.T.);
#48=ORIENTED_EDGE('',*,*,#88,.T.);
#49=ORIENTED_EDGE('',*,*,#68,.T.);
#50=ORIENTED_EDGE('',*,*,#89,.F.);
#51=ORIENTED_EDGE('',*,*,#90,.F.);
#52=ORIENTED_EDGE('',*,*,#91,.T.);
#53=ORIENTED_EDGE('',*,*,#92,.T.);
#54=ORIENTED_EDGE('',*,*,#69,.F.);
#55=ORIENTED_EDGE('',*,*,#88,.F.);
#56=ORIENTED_EDGE('',*,*,#89,.T.);
#57=ORIENTED_EDGE('',*,*,#75,.T.);
#58=ORIENTED_EDGE('',*,*,#93,.F.);
#59=ORIENTED_EDGE('',*,*,#94,.F.);
#60=ORIENTED_EDGE('',*,*,#93,.T.);
#61=ORIENTED_EDGE('',*,*,#77,.T.);
#62=ORIENTED_EDGE('',*,*,#92,.F.);
#63=ORIENTED_EDGE('',*,*,#95,.F.);
#64=ORIENTED_EDGE('',*,*,#90,.T.);
#65=ORIENTED_EDGE('',*,*,#94,.T.);
#66=ORIENTED_EDGE('',*,*,#95,.T.);
#67=ORIENTED_EDGE('',*,*,#91,.F.);
#68=EDGE_CURVE('',#96,#97,#114,.T.);
#69=EDGE_CURVE('',#96,#98,#115,.T.);
#70=EDGE_CURVE('',#98,#99,#116,.T.);
#71=EDGE_CURVE('',#100,#99,#117,.T.);
#72=EDGE_CURVE('',#101,#100,#118,.T.);
#73=EDGE_CURVE('',#101,#102,#119,.T.);
#74=EDGE_CURVE('',#102,#103,#120,.T.);
#75=EDGE_CURVE('',#97,#103,#121,.T.);
#76=EDGE_CURVE('',#99,#104,#122,.T.);
#77=EDGE_CURVE('',#103,#98,#123,.T.);
#78=EDGE_CURVE('',#102,#105,#124,.T.);
#79=EDGE_CURVE('',#105,#104,#125,.T.);
#80=EDGE_CURVE('',#106,#104,#126,.T.);
#81=EDGE_CURVE('',#107,#105,#127,.T.);
#82=EDGE_CURVE('',#107,#106,#128,.T.);
#83=EDGE_CURVE('',#108,#101,#129,.T.);
#84=EDGE_CURVE('',#107,#108,#130,.T.);
#85=EDGE_CURVE('',#106,#109,#131,.T.);
#86=EDGE_CURVE('',#109,#100,#132,.T.);
#87=EDGE_CURVE('',#108,#109,#133,.T.);
#88=EDGE_CURVE('',#110,#96,#134,.T.);
#89=EDGE_CURVE('',#111,#97,#135,.T.);
#90=EDGE_CURVE('',#110,#111,#136,.T.);
#91=EDGE_CURVE('',#110,#112,#137,.T.);
#92=EDGE_CURVE('',#112,#98,#138,.T.);
#93=EDGE_CURVE('',#113,#103,#139,.T.);
#94=EDGE_CURVE('',#111,#113,#140,.T.);
#95=EDGE_CURVE('',#113,#112,#141,.T.);
#96=VERTEX_POINT('',#300);
#97=VERTEX_POINT('',#301);
#98=VERTEX_POINT('',#303);
#99=VERTEX_POINT('',#305);
#100=VERTEX_POINT('',#307);
#101=VERTEX_POINT('',#309);
#102=VERTEX_POINT('',#311);
#103=VERTEX_POINT('',#313);
#104=VERTEX_POINT('',#317);
#105=VERTEX_POINT('',#320);
#106=VERTEX_POINT('',#324);
#107=VERTEX_POINT('',#326);
#108=VERTEX_POINT('',#330);
#109=VERTEX_POINT('',#334);
#110=VERTEX_POINT('',#341);
#111=VERTEX_POINT('',#343);
#112=VERTEX_POINT('',#347);
#113=VERTEX_POINT('',#351);
#114=LINE('',#299,#142);
#115=LINE('',#302,#143);
#116=LINE('',#304,#144);
#117=LINE('',#306,#145);
#118=LINE('',#308,#146);
#119=LINE('',#310,#147);
#120=LINE('',#312,#148);
#121=LINE('',#314,#149);
#122=LINE('',#316,#150);
#123=LINE('',#318,#151);
#124=LINE('',#319,#152);
#125=LINE('',#321,#153);
#126=LINE('',#323,#154);
#127=LINE('',#325,#155);
#128=LINE('',#327,#156);
#129=LINE('',#329,#157);
#130=LINE('',#331,#158);
#131=LINE('',#333,#159);
#132=LINE('',#335,#160);
#133=LINE('',#337,#161);
#134=LINE('',#340,#162);
#135=LINE('',#342,#163);
#136=LINE('',#344,#164);
#137=LINE('',#346,#165);
#138=LINE('',#348,#166);
#139=LINE('',#350,#167);
#140=LINE('',#352,#168);
#141=LINE('',#354,#169);
#142=VECTOR('',#247,1.);
#143=VECTOR('',#248,1.);
#144=VECTOR('',#249,1.);
#145=VECTOR('',#250,1.);
#146=VECTOR('',#251,1.);
#147=VECTOR('',#252,1.);
#148=VECTOR('',#253,1.);
#149=VECTOR('',#254,1.);
#150=VECTOR('',#257,1.);
#151=VECTOR('',#258,1.);
#152=VECTOR('',#259,1.);
#153=VECTOR('',#260,1.);
#154=VECTOR('',#263,1.);
#155=VECTOR('',#264,1.);
#156=VECTOR('',#265,1.);
#157=VECTOR('',#268,1.);
#158=VECTOR('',#269,1.);
#159=VECTOR('',#272,1.);
#160=VECTOR('',#273,1.);
#161=VECTOR('',#276,1.);
#162=VECTOR('',#281,1.);
#163=VECTOR('',#282,1.);
#164=VECTOR('',#283,1.);
#165=VECTOR('',#286,1.);
#166=VECTOR('',#287,1.);
#167=VECTOR('',#290,1.);
#168=VECTOR('',#291,1.);
#169=VECTOR('',#294,1.);
#170=EDGE_LOOP('',(#12,#13,#14,#15,#16,#17,#18,#19));
#171=EDGE_LOOP('',(#20,#21,#22,#23,#24,#25));
#172=EDGE_LOOP('',(#26,#27,#28,#29));
#173=EDGE_LOOP('',(#30,#31,#32,#33,#34));
#174=EDGE_LOOP('',(#35,#36,#37,#38,#39));
#175=EDGE_LOOP('',(#40,#41,#42,#43));
#176=EDGE_LOOP('',(#44,#45,#46,#47));
#177=EDGE_LOOP('',(#48,#49,#50,#51));
#178=EDGE_LOOP('',(#52,#53,#54,#55));
#179=EDGE_LOOP('',(#56,#57,#58,#59));
#180=EDGE_LOOP('',(#60,#61,#62,#63));
#181=EDGE_LOOP('',(#64,#65,#66,#67));
#182=FACE_BOUND('',#170,.T.);
#183=FACE_BOUND('',#171,.T.);
#184=FACE_BOUND('',#172,.T.);
#185=FACE_BOUND('',#173,.T.);
#186=FACE_BOUND('',#174,.T.);
#187=FACE_BOUND('',#175,.T.);
#188=FACE_BOUND('',#176,.T.);
#189=FACE_BOUND('',#177,.T.);
#190=FACE_BOUND('',#178,.T.);
#191=FACE_BOUND('',#179,.T.);
#192=FACE_BOUND('',#180,.T.);
#193=FACE_BOUND('',#181,.T.);
#194=PLANE('',#231);
#195=PLANE('',#232);
#196=PLANE('',#233);
#197=PLANE('',#234);
#198=PLANE('',#235);
#199=PLANE('',#236);
#200=PLANE('',#237);
#201=PLANE('',#238);
#202=PLANE('',#239);
#203=PLANE('',#240);
#204=PLANE('',#241);
#205=PLANE('',#242);
#206=ADVANCED_FACE('',(#182),#194,.T.);
#207=ADVANCED_FACE('',(#183),#195,.T.);
#208=ADVANCED_FACE('',(#184),#196,.F.);
#209=ADVANCED_FACE('',(#185),#197,.F.);
#210=ADVANCED_FACE('',(#186),#198,.T.);
#211=ADVANCED_FACE('',(#187),#199,.F.);
#212=ADVANCED_FACE('',(#188),#200,.T.);
#213=ADVANCED_FACE('',(#189),#201,.F.);
#214=ADVANCED_FACE('',(#190),#202,.T.);
#215=ADVANCED_FACE('',(#191),#203,.F.);
#216=ADVANCED_FACE('',(#192),#204,.F.);
#217=ADVANCED_FACE('',(#193),#205,.F.);
#218=CLOSED_SHELL('',(#206,#207,#208,#209,#210,#211,#212,#213,#214,#215,
#216,#217));
#219=STYLED_ITEM('',(#220),#227);
#220=PRESENTATION_STYLE_ASSIGNMENT((#221));
#221=SURFACE_STYLE_USAGE(.BOTH.,#222);
#222=SURFACE_SIDE_STYLE('',(#223));
#223=SURFACE_STYLE_FILL_AREA(#224);
#224=FILL_AREA_STYLE('',(#225));
#225=FILL_AREA_STYLE_COLOUR('',#226);
#226=COLOUR_RGB('',0.866666666666667,0.32156862745098,0.156862745098039);
#227=MANIFOLD_SOLID_BREP('Topper',#218);
#228=SHAPE_DEFINITION_REPRESENTATION(#362,#229);
#229=SHAPE_REPRESENTATION('Topper',(#230),#357);
#230=AXIS2_PLACEMENT_3D('',#297,#243,#244);
#231=AXIS2_PLACEMENT_3D('',#298,#245,#246);
#232=AXIS2_PLACEMENT_3D('',#315,#255,#256);
#233=AXIS2_PLACEMENT_3D('',#322,#261,#262);
#234=AXIS2_PLACEMENT_3D('',#328,#266,#267);
#235=AXIS2_PLACEMENT_3D('',#332,#270,#271);
#236=AXIS2_PLACEMENT_3D('',#336,#274,#275);
#237=AXIS2_PLACEMENT_3D('',#338,#277,#278);
#238=AXIS2_PLACEMENT_3D('',#339,#279,#280);
#239=AXIS2_PLACEMENT_3D('',#345,#284,#285);
#240=AXIS2_PLACEMENT_3D('',#349,#288,#289);
#241=AXIS2_PLACEMENT_3D('',#353,#292,#293);
#242=AXIS2_PLACEMENT_3D('',#355,#295,#296);
#243=DIRECTION('',(0.,0.,1.));
#244=DIRECTION('',(1.,0.,0.));
#245=DIRECTION('',(-1.30612372544018E-16,0.831660004167414,-0.555285185709341));
#246=DIRECTION('',(0.,0.555285185709341,0.831660004167414));
#247=DIRECTION('',(1.,-2.34568183996042E-16,-5.86533474700314E-16));
#248=DIRECTION('',(7.25044316496438E-33,-0.555285185709341,-0.831660004167414));
#249=DIRECTION('',(-1.,0.,2.3521674250533E-16));
#250=DIRECTION('',(-1.95620357052228E-16,-0.555285185709341,-0.831660004167414));
#251=DIRECTION('',(-1.,0.,2.3521674250533E-16));
#252=DIRECTION('',(-1.95620357052228E-16,-0.555285185709341,-0.831660004167414));
#253=DIRECTION('',(-1.,0.,2.3521674250533E-16));
#254=DIRECTION('',(-1.46702785651039E-15,-0.555285185709341,-0.831660004167414));
#255=DIRECTION('',(-2.3521674250533E-16,0.,-1.));
#256=DIRECTION('',(-1.,0.,2.3521674250533E-16));
#257=DIRECTION('',(0.,-1.,0.));
#258=DIRECTION('',(-1.,0.,2.3521674250533E-16));
#259=DIRECTION('',(0.,-1.,0.));
#260=DIRECTION('',(-1.,0.,2.3521674250533E-16));
#261=DIRECTION('',(0.,1.,0.));
#262=DIRECTION('',(0.,0.,1.));
#263=DIRECTION('',(-2.3521674250533E-16,0.,-1.));
#264=DIRECTION('',(-2.3521674250533E-16,0.,-1.));
#265=DIRECTION('',(-1.,0.,2.3521674250533E-16));
#266=DIRECTION('',(-1.,0.,2.3521674250533E-16));
#267=DIRECTION('',(0.,-1.,0.));
#268=DIRECTION('',(-2.3521674250533E-16,0.,-1.));
#269=DIRECTION('',(0.,1.,0.));
#270=DIRECTION('',(-1.,0.,2.3521674250533E-16));
#271=DIRECTION('',(0.,-1.,0.));
#272=DIRECTION('',(0.,1.,0.));
#273=DIRECTION('',(-2.3521674250533E-16,0.,-1.));
#274=DIRECTION('',(0.,-1.,0.));
#275=DIRECTION('',(0.,0.,-1.));
#276=DIRECTION('',(-1.,0.,2.3521674250533E-16));
#277=DIRECTION('',(2.3521674250533E-16,0.,1.));
#278=DIRECTION('',(1.,0.,-2.3521674250533E-16));
#279=DIRECTION('',(2.34568183996042E-16,1.,-5.51743641349397E-32));
#280=DIRECTION('',(-1.,2.34568183996042E-16,0.));
#281=DIRECTION('',(-2.3521674250533E-16,0.,-1.));
#282=DIRECTION('',(-2.3521674250533E-16,0.,-1.));
#283=DIRECTION('',(1.,-2.34568183996042E-16,-2.3521674250533E-16));
#284=DIRECTION('',(1.,3.52288089231727E-16,-2.3521674250533E-16));
#285=DIRECTION('',(-3.52288089231727E-16,1.,0.));
#286=DIRECTION('',(3.52288089231727E-16,-1.,-8.28640567725137E-32));
#287=DIRECTION('',(-2.3521674250533E-16,0.,-1.));
#288=DIRECTION('',(1.,-2.28964779212329E-15,-2.3521674250533E-16));
#289=DIRECTION('',(2.28964779212329E-15,1.,0.));
#290=DIRECTION('',(-2.3521674250533E-16,0.,-1.));
#291=DIRECTION('',(-2.28964779212329E-15,-1.,5.38563495147759E-31));
#292=DIRECTION('',(0.,-1.,0.));
#293=DIRECTION('',(0.,0.,-1.));
#294=DIRECTION('',(-1.,0.,2.3521674250533E-16));
#295=DIRECTION('',(2.3521674250533E-16,0.,1.));
#296=DIRECTION('',(1.,0.,-2.3521674250533E-16));
#297=CARTESIAN_POINT('',(0.,0.,0.));
#298=CARTESIAN_POINT('',(0.2415,-0.005475,0.03605));
#299=CARTESIAN_POINT('',(0.1035,-0.000444228148567501,0.043584671996666));
#300=CARTESIAN_POINT('',(-0.0331,-0.000444228148567467,0.0435846719966661));
#301=CARTESIAN_POINT('',(0.2401,-0.000444228148567531,0.0435846719966659));
#302=CARTESIAN_POINT('',(-0.0331,-0.00569711407428374,0.0357173359983331));
#303=CARTESIAN_POINT('',(-0.0331,-0.01095,0.02785));
#304=CARTESIAN_POINT('',(0.2415,-0.01095,0.02785));
#305=CARTESIAN_POINT('',(-0.0345,-0.01095,0.02785));
#306=CARTESIAN_POINT('',(-0.0345,-0.005475,0.03605));
#307=CARTESIAN_POINT('',(-0.0345,0.,0.04425));
#308=CARTESIAN_POINT('',(0.2415,0.,0.04425));
#309=CARTESIAN_POINT('',(0.2415,0.,0.04425));
#310=CARTESIAN_POINT('',(0.2415,-0.005475,0.03605));
#311=CARTESIAN_POINT('',(0.2415,-0.01095,0.02785));
#312=CARTESIAN_POINT('',(0.2415,-0.01095,0.02785));
#313=CARTESIAN_POINT('',(0.2401,-0.01095,0.02785));
#314=CARTESIAN_POINT('',(0.2401,-0.00569711407428377,0.035717335998333));
#315=CARTESIAN_POINT('',(0.2415,-0.01135,0.02785));
#316=CARTESIAN_POINT('',(-0.0345,-0.01135,0.02785));
#317=CARTESIAN_POINT('',(-0.0345,-0.01175,0.02785));
#318=CARTESIAN_POINT('',(0.2415,-0.01095,0.02785));
#319=CARTESIAN_POINT('',(0.2415,-0.01135,0.02785));
#320=CARTESIAN_POINT('',(0.2415,-0.01175,0.02785));
#321=CARTESIAN_POINT('',(0.2415,-0.01175,0.02785));
#322=CARTESIAN_POINT('',(0.2415,-0.01175,-6.4919820931471E-17));
#323=CARTESIAN_POINT('',(-0.0345,-0.01175,0.));
#324=CARTESIAN_POINT('',(-0.0345,-0.01175,0.04845));
#325=CARTESIAN_POINT('',(0.2415,-0.01175,-6.4919820931471E-17));
#326=CARTESIAN_POINT('',(0.2415,-0.01175,0.04845));
#327=CARTESIAN_POINT('',(0.2415,-0.01175,0.04845));
#328=CARTESIAN_POINT('',(0.2415,-0.005875,-0.000500000000000057));
#329=CARTESIAN_POINT('',(0.2415,0.,0.04845));
#330=CARTESIAN_POINT('',(0.2415,0.,0.04845));
#331=CARTESIAN_POINT('',(0.2415,-0.01175,0.04845));
#332=CARTESIAN_POINT('',(-0.0345,-0.005875,-0.000499999999999992));
#333=CARTESIAN_POINT('',(-0.0345,-0.01175,0.04845));
#334=CARTESIAN_POINT('',(-0.0345,0.,0.04845));
#335=CARTESIAN_POINT('',(-0.0345,0.,0.04845));
#336=CARTESIAN_POINT('',(0.2415,0.,0.04845));
#337=CARTESIAN_POINT('',(0.2415,0.,0.04845));
#338=CARTESIAN_POINT('',(0.2415,-0.01175,0.04845));
#339=CARTESIAN_POINT('',(0.1035,-0.000444228148567501,0.451764413184263));
#340=CARTESIAN_POINT('',(-0.0331,-0.000444228148567467,0.451764413184263));
#341=CARTESIAN_POINT('',(-0.0331,-0.000444228148567467,0.04725));
#342=CARTESIAN_POINT('',(0.2401,-0.000444228148567531,0.451764413184263));
#343=CARTESIAN_POINT('',(0.2401,-0.000444228148567531,0.04725));
#344=CARTESIAN_POINT('',(0.1035,-0.000444228148567501,0.04725));
#345=CARTESIAN_POINT('',(-0.0331,-0.00569711407428374,0.44389707718593));
#346=CARTESIAN_POINT('',(-0.0331,-0.00569711407428374,0.04725));
#347=CARTESIAN_POINT('',(-0.0331,-0.01095,0.04725));
#348=CARTESIAN_POINT('',(-0.0331,-0.01095,0.436029741187597));
#349=CARTESIAN_POINT('',(0.2401,-0.00569711407428377,0.44389707718593));
#350=CARTESIAN_POINT('',(0.2401,-0.01095,0.436029741187597));
#351=CARTESIAN_POINT('',(0.2401,-0.01095,0.04725));
#352=CARTESIAN_POINT('',(0.2401,-0.00569711407428377,0.04725));
#353=CARTESIAN_POINT('',(0.2415,-0.01095,0.436029741187597));
#354=CARTESIAN_POINT('',(0.2415,-0.01095,0.04725));
#355=CARTESIAN_POINT('',(0.2415,-0.01175,0.04725));
#356=MECHANICAL_DESIGN_GEOMETRIC_PRESENTATION_REPRESENTATION('',(#219),
#357);
#357=(
GEOMETRIC_REPRESENTATION_CONTEXT(3)
GLOBAL_UNCERTAINTY_ASSIGNED_CONTEXT((#358))
GLOBAL_UNIT_ASSIGNED_CONTEXT((#361,#360,#359))
REPRESENTATION_CONTEXT('Topper','TOP_LEVEL_ASSEMBLY_PART')
);
#358=UNCERTAINTY_MEASURE_WITH_UNIT(LENGTH_MEASURE(1.E-8),#361,
'DISTANCE_ACCURACY_VALUE','Maximum Tolerance applied to model');
#359=(
NAMED_UNIT(*)
SI_UNIT($,.STERADIAN.)
SOLID_ANGLE_UNIT()
);
#360=(
NAMED_UNIT(*)
PLANE_ANGLE_UNIT()
SI_UNIT($,.RADIAN.)
);
#361=(
LENGTH_UNIT()
NAMED_UNIT(*)
SI_UNIT($,.METRE.)
);
#362=PRODUCT_DEFINITION_SHAPE('','',#363);
#363=PRODUCT_DEFINITION('','',#365,#364);
#364=PRODUCT_DEFINITION_CONTEXT('',#371,'design');
#365=PRODUCT_DEFINITION_FORMATION_WITH_SPECIFIED_SOURCE('','',#367,
 .NOT_KNOWN.);
#366=PRODUCT_RELATED_PRODUCT_CATEGORY('','',(#367));
#367=PRODUCT('Topper','Topper','Topper',(#369));
#368=PRODUCT_CATEGORY('','');
#369=PRODUCT_CONTEXT('',#371,'mechanical');
#370=APPLICATION_PROTOCOL_DEFINITION('international standard',
'ap242_managed_model_based_3d_engineering',2020,#371);
#371=APPLICATION_CONTEXT('managed model based 3d engineering');
ENDSEC;
END-ISO-10303-21;
