ISO-10303-21;
HEADER;
/* Generated by software containing ST-Developer
 * from STEP Tools, Inc. (www.steptools.com) 
 */
/* OPTION: using custom renumber hook */

FILE_DESCRIPTION(
/* description */ ('STEP AP242 Edition 2',
'CAx-IF Rec.Pracs.---Representation and Presentation of Product Manufa
cturing Information (PMI)---4.0---2014-10-13',
'CAx-IF Rec.Pracs.---3D Tessellated Geometry---0.4---2014-09-14','2;1',
'CAx-IF Rec.Pracs.---User Defined Attributes---1.5---2016-08-15'),
/* implementation_level */ '2;1');

FILE_NAME(
/* name */ 'Topper',
/* time_stamp */ '2026-09-03T08:38:44Z',
/* author */ (''),
/* organization */ (''),
/* preprocessor_version */ 'ST-DEVELOPER v20',
/* originating_system */ 'ONSHAPE BY PTC INC, 1.220',
/* authorisation */ '  ');

FILE_SCHEMA (('AP242_MANAGED_MODEL_BASED_3D_ENGINEERING_MIM_LF { 1 0 10303 442 3 1 4 }'));
ENDSEC;

DATA;
#10=SHAPE_REPRESENTATION_RELATIONSHIP('','',#1148,#11);
#11=ADVANCED_BREP_SHAPE_REPRESENTATION('',(#1146),#1886);
#12=CYLINDRICAL_SURFACE('',#1212,0.002);
#13=CYLINDRICAL_SURFACE('',#1213,0.002);
#14=CYLINDRICAL_SURFACE('',#1214,0.002);
#15=CYLINDRICAL_SURFACE('',#1215,0.002);
#16=CYLINDRICAL_SURFACE('',#1219,0.002);
#17=CYLINDRICAL_SURFACE('',#1220,0.002);
#18=CYLINDRICAL_SURFACE('',#1221,0.002);
#19=CYLINDRICAL_SURFACE('',#1222,0.002);
#20=CYLINDRICAL_SURFACE('',#1226,0.002);
#21=CYLINDRICAL_SURFACE('',#1227,0.002);
#22=CYLINDRICAL_SURFACE('',#1228,0.002);
#23=CYLINDRICAL_SURFACE('',#1229,0.002);
#24=CYLINDRICAL_SURFACE('',#1233,0.002);
#25=CYLINDRICAL_SURFACE('',#1234,0.002);
#26=CYLINDRICAL_SURFACE('',#1235,0.002);
#27=CYLINDRICAL_SURFACE('',#1236,0.002);
#28=CIRCLE('',#1152,0.002);
#29=CIRCLE('',#1153,0.002);
#30=CIRCLE('',#1154,0.002);
#31=CIRCLE('',#1155,0.002);
#32=CIRCLE('',#1159,0.002);
#33=CIRCLE('',#1160,0.002);
#34=CIRCLE('',#1161,0.002);
#35=CIRCLE('',#1162,0.002);
#36=CIRCLE('',#1166,0.002);
#37=CIRCLE('',#1167,0.002);
#38=CIRCLE('',#1168,0.002);
#39=CIRCLE('',#1169,0.002);
#40=CIRCLE('',#1170,0.002);
#41=CIRCLE('',#1171,0.002);
#42=CIRCLE('',#1172,0.002);
#43=CIRCLE('',#1173,0.002);
#44=CIRCLE('',#1174,0.002);
#45=CIRCLE('',#1175,0.002);
#46=CIRCLE('',#1176,0.002);
#47=CIRCLE('',#1177,0.002);
#48=CIRCLE('',#1178,0.002);
#49=CIRCLE('',#1179,0.002);
#50=CIRCLE('',#1180,0.002);
#51=CIRCLE('',#1181,0.002);
#52=CIRCLE('',#1188,0.002);
#53=CIRCLE('',#1189,0.002);
#54=CIRCLE('',#1190,0.002);
#55=CIRCLE('',#1191,0.002);
#56=CIRCLE('',#1202,0.002);
#57=CIRCLE('',#1203,0.002);
#58=CIRCLE('',#1204,0.002);
#59=CIRCLE('',#1205,0.002);
#60=ORIENTED_EDGE('',*,*,#386,.F.);
#61=ORIENTED_EDGE('',*,*,#387,.T.);
#62=ORIENTED_EDGE('',*,*,#388,.T.);
#63=ORIENTED_EDGE('',*,*,#389,.T.);
#64=ORIENTED_EDGE('',*,*,#390,.F.);
#65=ORIENTED_EDGE('',*,*,#389,.F.);
#66=ORIENTED_EDGE('',*,*,#391,.T.);
#67=ORIENTED_EDGE('',*,*,#392,.T.);
#68=ORIENTED_EDGE('',*,*,#393,.T.);
#69=ORIENTED_EDGE('',*,*,#394,.F.);
#70=ORIENTED_EDGE('',*,*,#395,.T.);
#71=ORIENTED_EDGE('',*,*,#396,.F.);
#72=ORIENTED_EDGE('',*,*,#397,.T.);
#73=ORIENTED_EDGE('',*,*,#398,.T.);
#74=ORIENTED_EDGE('',*,*,#399,.T.);
#75=ORIENTED_EDGE('',*,*,#400,.T.);
#76=ORIENTED_EDGE('',*,*,#401,.F.);
#77=ORIENTED_EDGE('',*,*,#402,.F.);
#78=ORIENTED_EDGE('',*,*,#403,.T.);
#79=ORIENTED_EDGE('',*,*,#404,.T.);
#80=ORIENTED_EDGE('',*,*,#402,.T.);
#81=ORIENTED_EDGE('',*,*,#405,.T.);
#82=ORIENTED_EDGE('',*,*,#406,.T.);
#83=ORIENTED_EDGE('',*,*,#407,.F.);
#84=ORIENTED_EDGE('',*,*,#406,.F.);
#85=ORIENTED_EDGE('',*,*,#408,.T.);
#86=ORIENTED_EDGE('',*,*,#409,.T.);
#87=ORIENTED_EDGE('',*,*,#410,.T.);
#88=ORIENTED_EDGE('',*,*,#411,.F.);
#89=ORIENTED_EDGE('',*,*,#412,.T.);
#90=ORIENTED_EDGE('',*,*,#413,.F.);
#91=ORIENTED_EDGE('',*,*,#414,.T.);
#92=ORIENTED_EDGE('',*,*,#415,.T.);
#93=ORIENTED_EDGE('',*,*,#416,.T.);
#94=ORIENTED_EDGE('',*,*,#417,.T.);
#95=ORIENTED_EDGE('',*,*,#418,.F.);
#96=ORIENTED_EDGE('',*,*,#419,.F.);
#97=ORIENTED_EDGE('',*,*,#420,.F.);
#98=ORIENTED_EDGE('',*,*,#421,.T.);
#99=ORIENTED_EDGE('',*,*,#422,.T.);
#100=ORIENTED_EDGE('',*,*,#423,.T.);
#101=ORIENTED_EDGE('',*,*,#424,.T.);
#102=ORIENTED_EDGE('',*,*,#392,.F.);
#103=ORIENTED_EDGE('',*,*,#425,.F.);
#104=ORIENTED_EDGE('',*,*,#426,.T.);
#105=ORIENTED_EDGE('',*,*,#427,.T.);
#106=ORIENTED_EDGE('',*,*,#428,.T.);
#107=ORIENTED_EDGE('',*,*,#423,.F.);
#108=ORIENTED_EDGE('',*,*,#429,.F.);
#109=ORIENTED_EDGE('',*,*,#430,.T.);
#110=ORIENTED_EDGE('',*,*,#431,.T.);
#111=ORIENTED_EDGE('',*,*,#432,.F.);
#112=ORIENTED_EDGE('',*,*,#433,.T.);
#113=ORIENTED_EDGE('',*,*,#434,.F.);
#114=ORIENTED_EDGE('',*,*,#435,.T.);
#115=ORIENTED_EDGE('',*,*,#436,.T.);
#116=ORIENTED_EDGE('',*,*,#437,.T.);
#117=ORIENTED_EDGE('',*,*,#438,.T.);
#118=ORIENTED_EDGE('',*,*,#439,.T.);
#119=ORIENTED_EDGE('',*,*,#440,.F.);
#120=ORIENTED_EDGE('',*,*,#441,.T.);
#121=ORIENTED_EDGE('',*,*,#442,.F.);
#122=ORIENTED_EDGE('',*,*,#443,.T.);
#123=ORIENTED_EDGE('',*,*,#444,.T.);
#124=ORIENTED_EDGE('',*,*,#445,.T.);
#125=ORIENTED_EDGE('',*,*,#446,.T.);
#126=ORIENTED_EDGE('',*,*,#447,.T.);
#127=ORIENTED_EDGE('',*,*,#448,.F.);
#128=ORIENTED_EDGE('',*,*,#449,.T.);
#129=ORIENTED_EDGE('',*,*,#450,.F.);
#130=ORIENTED_EDGE('',*,*,#451,.T.);
#131=ORIENTED_EDGE('',*,*,#452,.T.);
#132=ORIENTED_EDGE('',*,*,#453,.T.);
#133=ORIENTED_EDGE('',*,*,#454,.T.);
#134=ORIENTED_EDGE('',*,*,#455,.T.);
#135=ORIENTED_EDGE('',*,*,#456,.F.);
#136=ORIENTED_EDGE('',*,*,#457,.T.);
#137=ORIENTED_EDGE('',*,*,#458,.F.);
#138=ORIENTED_EDGE('',*,*,#459,.T.);
#139=ORIENTED_EDGE('',*,*,#460,.T.);
#140=ORIENTED_EDGE('',*,*,#461,.T.);
#141=ORIENTED_EDGE('',*,*,#400,.F.);
#142=ORIENTED_EDGE('',*,*,#462,.T.);
#143=ORIENTED_EDGE('',*,*,#456,.T.);
#144=ORIENTED_EDGE('',*,*,#463,.T.);
#145=ORIENTED_EDGE('',*,*,#409,.F.);
#146=ORIENTED_EDGE('',*,*,#464,.F.);
#147=ORIENTED_EDGE('',*,*,#417,.F.);
#148=ORIENTED_EDGE('',*,*,#465,.T.);
#149=ORIENTED_EDGE('',*,*,#448,.T.);
#150=ORIENTED_EDGE('',*,*,#466,.T.);
#151=ORIENTED_EDGE('',*,*,#467,.F.);
#152=ORIENTED_EDGE('',*,*,#468,.F.);
#153=ORIENTED_EDGE('',*,*,#469,.F.);
#154=ORIENTED_EDGE('',*,*,#470,.T.);
#155=ORIENTED_EDGE('',*,*,#440,.T.);
#156=ORIENTED_EDGE('',*,*,#471,.T.);
#157=ORIENTED_EDGE('',*,*,#472,.F.);
#158=ORIENTED_EDGE('',*,*,#473,.F.);
#159=ORIENTED_EDGE('',*,*,#420,.T.);
#160=ORIENTED_EDGE('',*,*,#474,.T.);
#161=ORIENTED_EDGE('',*,*,#475,.T.);
#162=ORIENTED_EDGE('',*,*,#476,.F.);
#163=ORIENTED_EDGE('',*,*,#477,.F.);
#164=ORIENTED_EDGE('',*,*,#478,.F.);
#165=ORIENTED_EDGE('',*,*,#479,.T.);
#166=ORIENTED_EDGE('',*,*,#480,.T.);
#167=ORIENTED_EDGE('',*,*,#475,.F.);
#168=ORIENTED_EDGE('',*,*,#481,.T.);
#169=ORIENTED_EDGE('',*,*,#467,.T.);
#170=ORIENTED_EDGE('',*,*,#482,.T.);
#171=ORIENTED_EDGE('',*,*,#483,.F.);
#172=ORIENTED_EDGE('',*,*,#484,.T.);
#173=ORIENTED_EDGE('',*,*,#485,.F.);
#174=ORIENTED_EDGE('',*,*,#486,.T.);
#175=ORIENTED_EDGE('',*,*,#487,.T.);
#176=ORIENTED_EDGE('',*,*,#488,.T.);
#177=ORIENTED_EDGE('',*,*,#469,.T.);
#178=ORIENTED_EDGE('',*,*,#489,.F.);
#179=ORIENTED_EDGE('',*,*,#480,.F.);
#180=ORIENTED_EDGE('',*,*,#490,.T.);
#181=ORIENTED_EDGE('',*,*,#491,.T.);
#182=ORIENTED_EDGE('',*,*,#492,.F.);
#183=ORIENTED_EDGE('',*,*,#493,.F.);
#184=ORIENTED_EDGE('',*,*,#494,.T.);
#185=ORIENTED_EDGE('',*,*,#425,.T.);
#186=ORIENTED_EDGE('',*,*,#495,.F.);
#187=ORIENTED_EDGE('',*,*,#496,.F.);
#188=ORIENTED_EDGE('',*,*,#497,.T.);
#189=ORIENTED_EDGE('',*,*,#464,.T.);
#190=ORIENTED_EDGE('',*,*,#498,.F.);
#191=ORIENTED_EDGE('',*,*,#404,.F.);
#192=ORIENTED_EDGE('',*,*,#499,.T.);
#193=ORIENTED_EDGE('',*,*,#468,.T.);
#194=ORIENTED_EDGE('',*,*,#500,.F.);
#195=ORIENTED_EDGE('',*,*,#422,.F.);
#196=ORIENTED_EDGE('',*,*,#501,.T.);
#197=ORIENTED_EDGE('',*,*,#473,.T.);
#198=ORIENTED_EDGE('',*,*,#502,.F.);
#199=ORIENTED_EDGE('',*,*,#503,.F.);
#200=ORIENTED_EDGE('',*,*,#504,.T.);
#201=ORIENTED_EDGE('',*,*,#432,.T.);
#202=ORIENTED_EDGE('',*,*,#505,.F.);
#203=ORIENTED_EDGE('',*,*,#491,.F.);
#204=ORIENTED_EDGE('',*,*,#494,.F.);
#205=ORIENTED_EDGE('',*,*,#506,.F.);
#206=ORIENTED_EDGE('',*,*,#507,.F.);
#207=ORIENTED_EDGE('',*,*,#429,.T.);
#208=ORIENTED_EDGE('',*,*,#426,.F.);
#209=ORIENTED_EDGE('',*,*,#431,.F.);
#210=ORIENTED_EDGE('',*,*,#508,.T.);
#211=ORIENTED_EDGE('',*,*,#509,.T.);
#212=ORIENTED_EDGE('',*,*,#492,.T.);
#213=ORIENTED_EDGE('',*,*,#505,.T.);
#214=ORIENTED_EDGE('',*,*,#493,.T.);
#215=ORIENTED_EDGE('',*,*,#509,.F.);
#216=ORIENTED_EDGE('',*,*,#510,.F.);
#217=ORIENTED_EDGE('',*,*,#506,.T.);
#218=ORIENTED_EDGE('',*,*,#508,.F.);
#219=ORIENTED_EDGE('',*,*,#430,.F.);
#220=ORIENTED_EDGE('',*,*,#507,.T.);
#221=ORIENTED_EDGE('',*,*,#510,.T.);
#222=ORIENTED_EDGE('',*,*,#387,.F.);
#223=ORIENTED_EDGE('',*,*,#511,.T.);
#224=ORIENTED_EDGE('',*,*,#496,.T.);
#225=ORIENTED_EDGE('',*,*,#512,.F.);
#226=ORIENTED_EDGE('',*,*,#513,.T.);
#227=ORIENTED_EDGE('',*,*,#514,.T.);
#228=ORIENTED_EDGE('',*,*,#490,.F.);
#229=ORIENTED_EDGE('',*,*,#479,.F.);
#230=ORIENTED_EDGE('',*,*,#512,.T.);
#231=ORIENTED_EDGE('',*,*,#495,.T.);
#232=ORIENTED_EDGE('',*,*,#391,.F.);
#233=ORIENTED_EDGE('',*,*,#388,.F.);
#234=ORIENTED_EDGE('',*,*,#472,.T.);
#235=ORIENTED_EDGE('',*,*,#515,.T.);
#236=ORIENTED_EDGE('',*,*,#516,.F.);
#237=ORIENTED_EDGE('',*,*,#517,.T.);
#238=ORIENTED_EDGE('',*,*,#518,.F.);
#239=ORIENTED_EDGE('',*,*,#519,.T.);
#240=ORIENTED_EDGE('',*,*,#520,.T.);
#241=ORIENTED_EDGE('',*,*,#521,.T.);
#242=ORIENTED_EDGE('',*,*,#503,.T.);
#243=ORIENTED_EDGE('',*,*,#514,.F.);
#244=ORIENTED_EDGE('',*,*,#522,.F.);
#245=ORIENTED_EDGE('',*,*,#523,.T.);
#246=ORIENTED_EDGE('',*,*,#478,.T.);
#247=ORIENTED_EDGE('',*,*,#524,.T.);
#248=ORIENTED_EDGE('',*,*,#522,.T.);
#249=ORIENTED_EDGE('',*,*,#513,.F.);
#250=ORIENTED_EDGE('',*,*,#421,.F.);
#251=ORIENTED_EDGE('',*,*,#476,.T.);
#252=ORIENTED_EDGE('',*,*,#489,.T.);
#253=ORIENTED_EDGE('',*,*,#501,.F.);
#254=ORIENTED_EDGE('',*,*,#477,.T.);
#255=ORIENTED_EDGE('',*,*,#502,.T.);
#256=ORIENTED_EDGE('',*,*,#523,.F.);
#257=ORIENTED_EDGE('',*,*,#524,.F.);
#258=ORIENTED_EDGE('',*,*,#434,.T.);
#259=ORIENTED_EDGE('',*,*,#525,.T.);
#260=ORIENTED_EDGE('',*,*,#520,.F.);
#261=ORIENTED_EDGE('',*,*,#526,.T.);
#262=ORIENTED_EDGE('',*,*,#516,.T.);
#263=ORIENTED_EDGE('',*,*,#527,.T.);
#264=ORIENTED_EDGE('',*,*,#438,.F.);
#265=ORIENTED_EDGE('',*,*,#528,.T.);
#266=ORIENTED_EDGE('',*,*,#518,.T.);
#267=ORIENTED_EDGE('',*,*,#529,.T.);
#268=ORIENTED_EDGE('',*,*,#436,.F.);
#269=ORIENTED_EDGE('',*,*,#530,.T.);
#270=ORIENTED_EDGE('',*,*,#439,.F.);
#271=ORIENTED_EDGE('',*,*,#527,.F.);
#272=ORIENTED_EDGE('',*,*,#515,.F.);
#273=ORIENTED_EDGE('',*,*,#471,.F.);
#274=ORIENTED_EDGE('',*,*,#433,.F.);
#275=ORIENTED_EDGE('',*,*,#504,.F.);
#276=ORIENTED_EDGE('',*,*,#521,.F.);
#277=ORIENTED_EDGE('',*,*,#525,.F.);
#278=ORIENTED_EDGE('',*,*,#437,.F.);
#279=ORIENTED_EDGE('',*,*,#529,.F.);
#280=ORIENTED_EDGE('',*,*,#517,.F.);
#281=ORIENTED_EDGE('',*,*,#528,.F.);
#282=ORIENTED_EDGE('',*,*,#435,.F.);
#283=ORIENTED_EDGE('',*,*,#526,.F.);
#284=ORIENTED_EDGE('',*,*,#519,.F.);
#285=ORIENTED_EDGE('',*,*,#530,.F.);
#286=ORIENTED_EDGE('',*,*,#442,.T.);
#287=ORIENTED_EDGE('',*,*,#531,.T.);
#288=ORIENTED_EDGE('',*,*,#487,.F.);
#289=ORIENTED_EDGE('',*,*,#532,.T.);
#290=ORIENTED_EDGE('',*,*,#483,.T.);
#291=ORIENTED_EDGE('',*,*,#533,.T.);
#292=ORIENTED_EDGE('',*,*,#446,.F.);
#293=ORIENTED_EDGE('',*,*,#534,.T.);
#294=ORIENTED_EDGE('',*,*,#485,.T.);
#295=ORIENTED_EDGE('',*,*,#535,.T.);
#296=ORIENTED_EDGE('',*,*,#444,.F.);
#297=ORIENTED_EDGE('',*,*,#536,.T.);
#298=ORIENTED_EDGE('',*,*,#447,.F.);
#299=ORIENTED_EDGE('',*,*,#533,.F.);
#300=ORIENTED_EDGE('',*,*,#482,.F.);
#301=ORIENTED_EDGE('',*,*,#466,.F.);
#302=ORIENTED_EDGE('',*,*,#441,.F.);
#303=ORIENTED_EDGE('',*,*,#470,.F.);
#304=ORIENTED_EDGE('',*,*,#488,.F.);
#305=ORIENTED_EDGE('',*,*,#531,.F.);
#306=ORIENTED_EDGE('',*,*,#445,.F.);
#307=ORIENTED_EDGE('',*,*,#535,.F.);
#308=ORIENTED_EDGE('',*,*,#484,.F.);
#309=ORIENTED_EDGE('',*,*,#534,.F.);
#310=ORIENTED_EDGE('',*,*,#443,.F.);
#311=ORIENTED_EDGE('',*,*,#532,.F.);
#312=ORIENTED_EDGE('',*,*,#486,.F.);
#313=ORIENTED_EDGE('',*,*,#536,.F.);
#314=ORIENTED_EDGE('',*,*,#450,.T.);
#315=ORIENTED_EDGE('',*,*,#537,.T.);
#316=ORIENTED_EDGE('',*,*,#415,.F.);
#317=ORIENTED_EDGE('',*,*,#538,.T.);
#318=ORIENTED_EDGE('',*,*,#411,.T.);
#319=ORIENTED_EDGE('',*,*,#539,.T.);
#320=ORIENTED_EDGE('',*,*,#454,.F.);
#321=ORIENTED_EDGE('',*,*,#540,.T.);
#322=ORIENTED_EDGE('',*,*,#413,.T.);
#323=ORIENTED_EDGE('',*,*,#541,.T.);
#324=ORIENTED_EDGE('',*,*,#452,.F.);
#325=ORIENTED_EDGE('',*,*,#542,.T.);
#326=ORIENTED_EDGE('',*,*,#455,.F.);
#327=ORIENTED_EDGE('',*,*,#539,.F.);
#328=ORIENTED_EDGE('',*,*,#410,.F.);
#329=ORIENTED_EDGE('',*,*,#463,.F.);
#330=ORIENTED_EDGE('',*,*,#449,.F.);
#331=ORIENTED_EDGE('',*,*,#465,.F.);
#332=ORIENTED_EDGE('',*,*,#416,.F.);
#333=ORIENTED_EDGE('',*,*,#537,.F.);
#334=ORIENTED_EDGE('',*,*,#453,.F.);
#335=ORIENTED_EDGE('',*,*,#541,.F.);
#336=ORIENTED_EDGE('',*,*,#412,.F.);
#337=ORIENTED_EDGE('',*,*,#540,.F.);
#338=ORIENTED_EDGE('',*,*,#451,.F.);
#339=ORIENTED_EDGE('',*,*,#538,.F.);
#340=ORIENTED_EDGE('',*,*,#414,.F.);
#341=ORIENTED_EDGE('',*,*,#542,.F.);
#342=ORIENTED_EDGE('',*,*,#458,.T.);
#343=ORIENTED_EDGE('',*,*,#543,.T.);
#344=ORIENTED_EDGE('',*,*,#398,.F.);
#345=ORIENTED_EDGE('',*,*,#544,.T.);
#346=ORIENTED_EDGE('',*,*,#394,.T.);
#347=ORIENTED_EDGE('',*,*,#545,.T.);
#348=ORIENTED_EDGE('',*,*,#427,.F.);
#349=ORIENTED_EDGE('',*,*,#546,.T.);
#350=ORIENTED_EDGE('',*,*,#396,.T.);
#351=ORIENTED_EDGE('',*,*,#547,.T.);
#352=ORIENTED_EDGE('',*,*,#460,.F.);
#353=ORIENTED_EDGE('',*,*,#548,.T.);
#354=ORIENTED_EDGE('',*,*,#428,.F.);
#355=ORIENTED_EDGE('',*,*,#545,.F.);
#356=ORIENTED_EDGE('',*,*,#393,.F.);
#357=ORIENTED_EDGE('',*,*,#424,.F.);
#358=ORIENTED_EDGE('',*,*,#457,.F.);
#359=ORIENTED_EDGE('',*,*,#462,.F.);
#360=ORIENTED_EDGE('',*,*,#399,.F.);
#361=ORIENTED_EDGE('',*,*,#543,.F.);
#362=ORIENTED_EDGE('',*,*,#461,.F.);
#363=ORIENTED_EDGE('',*,*,#547,.F.);
#364=ORIENTED_EDGE('',*,*,#395,.F.);
#365=ORIENTED_EDGE('',*,*,#546,.F.);
#366=ORIENTED_EDGE('',*,*,#459,.F.);
#367=ORIENTED_EDGE('',*,*,#544,.F.);
#368=ORIENTED_EDGE('',*,*,#397,.F.);
#369=ORIENTED_EDGE('',*,*,#548,.F.);
#370=ORIENTED_EDGE('',*,*,#403,.F.);
#371=ORIENTED_EDGE('',*,*,#407,.T.);
#372=ORIENTED_EDGE('',*,*,#418,.T.);
#373=ORIENTED_EDGE('',*,*,#499,.F.);
#374=ORIENTED_EDGE('',*,*,#419,.T.);
#375=ORIENTED_EDGE('',*,*,#500,.T.);
#376=ORIENTED_EDGE('',*,*,#481,.F.);
#377=ORIENTED_EDGE('',*,*,#474,.F.);
#378=ORIENTED_EDGE('',*,*,#511,.F.);
#379=ORIENTED_EDGE('',*,*,#386,.T.);
#380=ORIENTED_EDGE('',*,*,#390,.T.);
#381=ORIENTED_EDGE('',*,*,#497,.F.);
#382=ORIENTED_EDGE('',*,*,#401,.T.);
#383=ORIENTED_EDGE('',*,*,#498,.T.);
#384=ORIENTED_EDGE('',*,*,#408,.F.);
#385=ORIENTED_EDGE('',*,*,#405,.F.);
#386=EDGE_CURVE('',#549,#550,#655,.T.);
#387=EDGE_CURVE('',#549,#551,#656,.T.);
#388=EDGE_CURVE('',#551,#552,#657,.T.);
#389=EDGE_CURVE('',#552,#550,#658,.T.);
#390=EDGE_CURVE('',#550,#553,#659,.T.);
#391=EDGE_CURVE('',#552,#554,#660,.T.);
#392=EDGE_CURVE('',#554,#555,#661,.T.);
#393=EDGE_CURVE('',#555,#556,#28,.F.);
#394=EDGE_CURVE('',#557,#556,#662,.T.);
#395=EDGE_CURVE('',#557,#558,#29,.T.);
#396=EDGE_CURVE('',#559,#558,#663,.T.);
#397=EDGE_CURVE('',#559,#560,#30,.T.);
#398=EDGE_CURVE('',#560,#561,#664,.T.);
#399=EDGE_CURVE('',#561,#562,#31,.F.);
#400=EDGE_CURVE('',#562,#553,#665,.T.);
#401=EDGE_CURVE('',#563,#564,#666,.T.);
#402=EDGE_CURVE('',#565,#563,#667,.T.);
#403=EDGE_CURVE('',#565,#566,#668,.T.);
#404=EDGE_CURVE('',#566,#564,#669,.T.);
#405=EDGE_CURVE('',#563,#567,#670,.T.);
#406=EDGE_CURVE('',#567,#568,#671,.T.);
#407=EDGE_CURVE('',#565,#568,#672,.T.);
#408=EDGE_CURVE('',#567,#569,#673,.T.);
#409=EDGE_CURVE('',#569,#570,#674,.T.);
#410=EDGE_CURVE('',#570,#571,#32,.F.);
#411=EDGE_CURVE('',#572,#571,#675,.T.);
#412=EDGE_CURVE('',#572,#573,#33,.T.);
#413=EDGE_CURVE('',#574,#573,#676,.T.);
#414=EDGE_CURVE('',#574,#575,#34,.T.);
#415=EDGE_CURVE('',#575,#576,#677,.T.);
#416=EDGE_CURVE('',#576,#577,#35,.F.);
#417=EDGE_CURVE('',#577,#578,#678,.T.);
#418=EDGE_CURVE('',#568,#578,#679,.T.);
#419=EDGE_CURVE('',#579,#580,#680,.T.);
#420=EDGE_CURVE('',#581,#579,#681,.T.);
#421=EDGE_CURVE('',#581,#582,#682,.T.);
#422=EDGE_CURVE('',#582,#580,#683,.T.);
#423=EDGE_CURVE('',#583,#584,#684,.T.);
#424=EDGE_CURVE('',#584,#555,#685,.T.);
#425=EDGE_CURVE('',#585,#554,#686,.T.);
#426=EDGE_CURVE('',#585,#583,#687,.T.);
#427=EDGE_CURVE('',#586,#587,#688,.T.);
#428=EDGE_CURVE('',#587,#584,#36,.F.);
#429=EDGE_CURVE('',#588,#583,#689,.T.);
#430=EDGE_CURVE('',#588,#589,#690,.T.);
#431=EDGE_CURVE('',#589,#590,#691,.T.);
#432=EDGE_CURVE('',#591,#590,#692,.T.);
#433=EDGE_CURVE('',#591,#592,#37,.F.);
#434=EDGE_CURVE('',#593,#592,#693,.T.);
#435=EDGE_CURVE('',#593,#594,#38,.T.);
#436=EDGE_CURVE('',#594,#595,#694,.T.);
#437=EDGE_CURVE('',#595,#596,#39,.T.);
#438=EDGE_CURVE('',#596,#597,#695,.T.);
#439=EDGE_CURVE('',#597,#598,#40,.F.);
#440=EDGE_CURVE('',#599,#598,#696,.T.);
#441=EDGE_CURVE('',#599,#600,#41,.F.);
#442=EDGE_CURVE('',#601,#600,#697,.T.);
#443=EDGE_CURVE('',#601,#602,#42,.T.);
#444=EDGE_CURVE('',#602,#603,#698,.T.);
#445=EDGE_CURVE('',#603,#604,#43,.T.);
#446=EDGE_CURVE('',#604,#605,#699,.T.);
#447=EDGE_CURVE('',#605,#606,#44,.F.);
#448=EDGE_CURVE('',#607,#606,#700,.T.);
#449=EDGE_CURVE('',#607,#608,#45,.F.);
#450=EDGE_CURVE('',#609,#608,#701,.T.);
#451=EDGE_CURVE('',#609,#610,#46,.T.);
#452=EDGE_CURVE('',#610,#611,#702,.T.);
#453=EDGE_CURVE('',#611,#612,#47,.T.);
#454=EDGE_CURVE('',#612,#613,#703,.T.);
#455=EDGE_CURVE('',#613,#614,#48,.F.);
#456=EDGE_CURVE('',#615,#614,#704,.T.);
#457=EDGE_CURVE('',#615,#616,#49,.F.);
#458=EDGE_CURVE('',#617,#616,#705,.T.);
#459=EDGE_CURVE('',#617,#618,#50,.T.);
#460=EDGE_CURVE('',#618,#619,#706,.T.);
#461=EDGE_CURVE('',#619,#586,#51,.T.);
#462=EDGE_CURVE('',#562,#615,#707,.F.);
#463=EDGE_CURVE('',#614,#570,#708,.T.);
#464=EDGE_CURVE('',#553,#569,#709,.T.);
#465=EDGE_CURVE('',#577,#607,#710,.F.);
#466=EDGE_CURVE('',#606,#620,#711,.T.);
#467=EDGE_CURVE('',#621,#620,#712,.T.);
#468=EDGE_CURVE('',#578,#621,#713,.T.);
#469=EDGE_CURVE('',#622,#623,#714,.T.);
#470=EDGE_CURVE('',#622,#599,#715,.F.);
#471=EDGE_CURVE('',#598,#624,#716,.T.);
#472=EDGE_CURVE('',#625,#624,#717,.T.);
#473=EDGE_CURVE('',#623,#625,#718,.T.);
#474=EDGE_CURVE('',#579,#626,#719,.T.);
#475=EDGE_CURVE('',#626,#627,#720,.T.);
#476=EDGE_CURVE('',#581,#627,#721,.T.);
#477=EDGE_CURVE('',#628,#629,#722,.T.);
#478=EDGE_CURVE('',#630,#628,#723,.T.);
#479=EDGE_CURVE('',#630,#631,#724,.T.);
#480=EDGE_CURVE('',#631,#629,#725,.T.);
#481=EDGE_CURVE('',#626,#621,#726,.T.);
#482=EDGE_CURVE('',#620,#632,#52,.F.);
#483=EDGE_CURVE('',#633,#632,#727,.T.);
#484=EDGE_CURVE('',#633,#634,#53,.T.);
#485=EDGE_CURVE('',#635,#634,#728,.T.);
#486=EDGE_CURVE('',#635,#636,#54,.T.);
#487=EDGE_CURVE('',#636,#637,#729,.T.);
#488=EDGE_CURVE('',#637,#622,#55,.F.);
#489=EDGE_CURVE('',#627,#623,#730,.T.);
#490=EDGE_CURVE('',#631,#638,#731,.T.);
#491=EDGE_CURVE('',#638,#639,#732,.T.);
#492=EDGE_CURVE('',#640,#639,#733,.T.);
#493=EDGE_CURVE('',#641,#640,#734,.T.);
#494=EDGE_CURVE('',#641,#585,#735,.T.);
#495=EDGE_CURVE('',#642,#554,#736,.T.);
#496=EDGE_CURVE('',#643,#642,#737,.T.);
#497=EDGE_CURVE('',#643,#553,#738,.T.);
#498=EDGE_CURVE('',#564,#569,#739,.T.);
#499=EDGE_CURVE('',#566,#578,#740,.T.);
#500=EDGE_CURVE('',#580,#621,#741,.T.);
#501=EDGE_CURVE('',#582,#623,#742,.T.);
#502=EDGE_CURVE('',#629,#625,#743,.T.);
#503=EDGE_CURVE('',#644,#638,#744,.T.);
#504=EDGE_CURVE('',#644,#591,#745,.F.);
#505=EDGE_CURVE('',#639,#590,#746,.T.);
#506=EDGE_CURVE('',#645,#641,#747,.T.);
#507=EDGE_CURVE('',#588,#645,#748,.T.);
#508=EDGE_CURVE('',#589,#646,#749,.T.);
#509=EDGE_CURVE('',#646,#640,#750,.T.);
#510=EDGE_CURVE('',#645,#646,#751,.T.);
#511=EDGE_CURVE('',#549,#643,#752,.T.);
#512=EDGE_CURVE('',#551,#642,#753,.T.);
#513=EDGE_CURVE('',#630,#647,#754,.T.);
#514=EDGE_CURVE('',#647,#638,#755,.T.);
#515=EDGE_CURVE('',#624,#648,#56,.F.);
#516=EDGE_CURVE('',#649,#648,#756,.T.);
#517=EDGE_CURVE('',#649,#650,#57,.T.);
#518=EDGE_CURVE('',#651,#650,#757,.T.);
#519=EDGE_CURVE('',#651,#652,#58,.T.);
#520=EDGE_CURVE('',#652,#653,#758,.T.);
#521=EDGE_CURVE('',#653,#644,#59,.F.);
#522=EDGE_CURVE('',#654,#647,#759,.T.);
#523=EDGE_CURVE('',#654,#625,#760,.T.);
#524=EDGE_CURVE('',#628,#654,#761,.T.);
#525=EDGE_CURVE('',#592,#653,#762,.T.);
#526=EDGE_CURVE('',#652,#593,#763,.F.);
#527=EDGE_CURVE('',#648,#597,#764,.F.);
#528=EDGE_CURVE('',#596,#649,#765,.T.);
#529=EDGE_CURVE('',#650,#595,#766,.F.);
#530=EDGE_CURVE('',#594,#651,#767,.T.);
#531=EDGE_CURVE('',#600,#637,#768,.T.);
#532=EDGE_CURVE('',#636,#601,#769,.F.);
#533=EDGE_CURVE('',#632,#605,#770,.F.);
#534=EDGE_CURVE('',#604,#633,#771,.T.);
#535=EDGE_CURVE('',#634,#603,#772,.F.);
#536=EDGE_CURVE('',#602,#635,#773,.T.);
#537=EDGE_CURVE('',#608,#576,#774,.T.);
#538=EDGE_CURVE('',#575,#609,#775,.F.);
#539=EDGE_CURVE('',#571,#613,#776,.F.);
#540=EDGE_CURVE('',#612,#572,#777,.T.);
#541=EDGE_CURVE('',#573,#611,#778,.F.);
#542=EDGE_CURVE('',#610,#574,#779,.T.);
#543=EDGE_CURVE('',#616,#561,#780,.T.);
#544=EDGE_CURVE('',#560,#617,#781,.F.);
#545=EDGE_CURVE('',#556,#587,#782,.F.);
#546=EDGE_CURVE('',#586,#557,#783,.T.);
#547=EDGE_CURVE('',#558,#619,#784,.F.);
#548=EDGE_CURVE('',#618,#559,#785,.T.);
#549=VERTEX_POINT('',#1559);
#550=VERTEX_POINT('',#1560);
#551=VERTEX_POINT('',#1562);
#552=VERTEX_POINT('',#1564);
#553=VERTEX_POINT('',#1568);
#554=VERTEX_POINT('',#1570);
#555=VERTEX_POINT('',#1572);
#556=VERTEX_POINT('',#1574);
#557=VERTEX_POINT('',#1576);
#558=VERTEX_POINT('',#1578);
#559=VERTEX_POINT('',#1580);
#560=VERTEX_POINT('',#1582);
#561=VERTEX_POINT('',#1584);
#562=VERTEX_POINT('',#1586);
#563=VERTEX_POINT('',#1590);
#564=VERTEX_POINT('',#1591);
#565=VERTEX_POINT('',#1593);
#566=VERTEX_POINT('',#1595);
#567=VERTEX_POINT('',#1599);
#568=VERTEX_POINT('',#1601);
#569=VERTEX_POINT('',#1605);
#570=VERTEX_POINT('',#1607);
#571=VERTEX_POINT('',#1609);
#572=VERTEX_POINT('',#1611);
#573=VERTEX_POINT('',#1613);
#574=VERTEX_POINT('',#1615);
#575=VERTEX_POINT('',#1617);
#576=VERTEX_POINT('',#1619);
#577=VERTEX_POINT('',#1621);
#578=VERTEX_POINT('',#1623);
#579=VERTEX_POINT('',#1627);
#580=VERTEX_POINT('',#1628);
#581=VERTEX_POINT('',#1630);
#582=VERTEX_POINT('',#1632);
#583=VERTEX_POINT('',#1636);
#584=VERTEX_POINT('',#1637);
#585=VERTEX_POINT('',#1640);
#586=VERTEX_POINT('',#1644);
#587=VERTEX_POINT('',#1645);
#588=VERTEX_POINT('',#1648);
#589=VERTEX_POINT('',#1650);
#590=VERTEX_POINT('',#1652);
#591=VERTEX_POINT('',#1654);
#592=VERTEX_POINT('',#1656);
#593=VERTEX_POINT('',#1658);
#594=VERTEX_POINT('',#1660);
#595=VERTEX_POINT('',#1662);
#596=VERTEX_POINT('',#1664);
#597=VERTEX_POINT('',#1666);
#598=VERTEX_POINT('',#1668);
#599=VERTEX_POINT('',#1670);
#600=VERTEX_POINT('',#1672);
#601=VERTEX_POINT('',#1674);
#602=VERTEX_POINT('',#1676);
#603=VERTEX_POINT('',#1678);
#604=VERTEX_POINT('',#1680);
#605=VERTEX_POINT('',#1682);
#606=VERTEX_POINT('',#1684);
#607=VERTEX_POINT('',#1686);
#608=VERTEX_POINT('',#1688);
#609=VERTEX_POINT('',#1690);
#610=VERTEX_POINT('',#1692);
#611=VERTEX_POINT('',#1694);
#612=VERTEX_POINT('',#1696);
#613=VERTEX_POINT('',#1698);
#614=VERTEX_POINT('',#1700);
#615=VERTEX_POINT('',#1702);
#616=VERTEX_POINT('',#1704);
#617=VERTEX_POINT('',#1706);
#618=VERTEX_POINT('',#1708);
#619=VERTEX_POINT('',#1710);
#620=VERTEX_POINT('',#1719);
#621=VERTEX_POINT('',#1721);
#622=VERTEX_POINT('',#1725);
#623=VERTEX_POINT('',#1726);
#624=VERTEX_POINT('',#1729);
#625=VERTEX_POINT('',#1731);
#626=VERTEX_POINT('',#1735);
#627=VERTEX_POINT('',#1737);
#628=VERTEX_POINT('',#1741);
#629=VERTEX_POINT('',#1742);
#630=VERTEX_POINT('',#1744);
#631=VERTEX_POINT('',#1746);
#632=VERTEX_POINT('',#1751);
#633=VERTEX_POINT('',#1753);
#634=VERTEX_POINT('',#1755);
#635=VERTEX_POINT('',#1757);
#636=VERTEX_POINT('',#1759);
#637=VERTEX_POINT('',#1761);
#638=VERTEX_POINT('',#1766);
#639=VERTEX_POINT('',#1768);
#640=VERTEX_POINT('',#1770);
#641=VERTEX_POINT('',#1772);
#642=VERTEX_POINT('',#1775);
#643=VERTEX_POINT('',#1777);
#644=VERTEX_POINT('',#1786);
#645=VERTEX_POINT('',#1791);
#646=VERTEX_POINT('',#1795);
#647=VERTEX_POINT('',#1805);
#648=VERTEX_POINT('',#1810);
#649=VERTEX_POINT('',#1812);
#650=VERTEX_POINT('',#1814);
#651=VERTEX_POINT('',#1816);
#652=VERTEX_POINT('',#1818);
#653=VERTEX_POINT('',#1820);
#654=VERTEX_POINT('',#1823);
#655=LINE('',#1558,#786);
#656=LINE('',#1561,#787);
#657=LINE('',#1563,#788);
#658=LINE('',#1565,#789);
#659=LINE('',#1567,#790);
#660=LINE('',#1569,#791);
#661=LINE('',#1571,#792);
#662=LINE('',#1575,#793);
#663=LINE('',#1579,#794);
#664=LINE('',#1583,#795);
#665=LINE('',#1587,#796);
#666=LINE('',#1589,#797);
#667=LINE('',#1592,#798);
#668=LINE('',#1594,#799);
#669=LINE('',#1596,#800);
#670=LINE('',#1598,#801);
#671=LINE('',#1600,#802);
#672=LINE('',#1602,#803);
#673=LINE('',#1604,#804);
#674=LINE('',#1606,#805);
#675=LINE('',#1610,#806);
#676=LINE('',#1614,#807);
#677=LINE('',#1618,#808);
#678=LINE('',#1622,#809);
#679=LINE('',#1624,#810);
#680=LINE('',#1626,#811);
#681=LINE('',#1629,#812);
#682=LINE('',#1631,#813);
#683=LINE('',#1633,#814);
#684=LINE('',#1635,#815);
#685=LINE('',#1638,#816);
#686=LINE('',#1639,#817);
#687=LINE('',#1641,#818);
#688=LINE('',#1643,#819);
#689=LINE('',#1647,#820);
#690=LINE('',#1649,#821);
#691=LINE('',#1651,#822);
#692=LINE('',#1653,#823);
#693=LINE('',#1657,#824);
#694=LINE('',#1661,#825);
#695=LINE('',#1665,#826);
#696=LINE('',#1669,#827);
#697=LINE('',#1673,#828);
#698=LINE('',#1677,#829);
#699=LINE('',#1681,#830);
#700=LINE('',#1685,#831);
#701=LINE('',#1689,#832);
#702=LINE('',#1693,#833);
#703=LINE('',#1697,#834);
#704=LINE('',#1701,#835);
#705=LINE('',#1705,#836);
#706=LINE('',#1709,#837);
#707=LINE('',#1713,#838);
#708=LINE('',#1714,#839);
#709=LINE('',#1715,#840);
#710=LINE('',#1717,#841);
#711=LINE('',#1718,#842);
#712=LINE('',#1720,#843);
#713=LINE('',#1722,#844);
#714=LINE('',#1724,#845);
#715=LINE('',#1727,#846);
#716=LINE('',#1728,#847);
#717=LINE('',#1730,#848);
#718=LINE('',#1732,#849);
#719=LINE('',#1734,#850);
#720=LINE('',#1736,#851);
#721=LINE('',#1738,#852);
#722=LINE('',#1740,#853);
#723=LINE('',#1743,#854);
#724=LINE('',#1745,#855);
#725=LINE('',#1747,#856);
#726=LINE('',#1749,#857);
#727=LINE('',#1752,#858);
#728=LINE('',#1756,#859);
#729=LINE('',#1760,#860);
#730=LINE('',#1763,#861);
#731=LINE('',#1765,#862);
#732=LINE('',#1767,#863);
#733=LINE('',#1769,#864);
#734=LINE('',#1771,#865);
#735=LINE('',#1773,#866);
#736=LINE('',#1774,#867);
#737=LINE('',#1776,#868);
#738=LINE('',#1778,#869);
#739=LINE('',#1779,#870);
#740=LINE('',#1780,#871);
#741=LINE('',#1781,#872);
#742=LINE('',#1782,#873);
#743=LINE('',#1783,#874);
#744=LINE('',#1785,#875);
#745=LINE('',#1787,#876);
#746=LINE('',#1788,#877);
#747=LINE('',#1790,#878);
#748=LINE('',#1792,#879);
#749=LINE('',#1794,#880);
#750=LINE('',#1796,#881);
#751=LINE('',#1798,#882);
#752=LINE('',#1801,#883);
#753=LINE('',#1802,#884);
#754=LINE('',#1804,#885);
#755=LINE('',#1806,#886);
#756=LINE('',#1811,#887);
#757=LINE('',#1815,#888);
#758=LINE('',#1819,#889);
#759=LINE('',#1822,#890);
#760=LINE('',#1824,#891);
#761=LINE('',#1826,#892);
#762=LINE('',#1830,#893);
#763=LINE('',#1831,#894);
#764=LINE('',#1833,#895);
#765=LINE('',#1834,#896);
#766=LINE('',#1836,#897);
#767=LINE('',#1837,#898);
#768=LINE('',#1843,#899);
#769=LINE('',#1844,#900);
#770=LINE('',#1846,#901);
#771=LINE('',#1847,#902);
#772=LINE('',#1849,#903);
#773=LINE('',#1850,#904);
#774=LINE('',#1856,#905);
#775=LINE('',#1857,#906);
#776=LINE('',#1859,#907);
#777=LINE('',#1860,#908);
#778=LINE('',#1862,#909);
#779=LINE('',#1863,#910);
#780=LINE('',#1869,#911);
#781=LINE('',#1870,#912);
#782=LINE('',#1872,#913);
#783=LINE('',#1873,#914);
#784=LINE('',#1875,#915);
#785=LINE('',#1876,#916);
#786=VECTOR('',#1245,1.);
#787=VECTOR('',#1246,1.);
#788=VECTOR('',#1247,1.);
#789=VECTOR('',#1248,1.);
#790=VECTOR('',#1251,1.);
#791=VECTOR('',#1252,1.);
#792=VECTOR('',#1253,1.);
#793=VECTOR('',#1256,1.);
#794=VECTOR('',#1259,1.);
#795=VECTOR('',#1262,1.);
#796=VECTOR('',#1265,1.);
#797=VECTOR('',#1268,1.);
#798=VECTOR('',#1269,1.);
#799=VECTOR('',#1270,1.);
#800=VECTOR('',#1271,1.);
#801=VECTOR('',#1274,1.);
#802=VECTOR('',#1275,1.);
#803=VECTOR('',#1276,1.);
#804=VECTOR('',#1279,1.);
#805=VECTOR('',#1280,1.);
#806=VECTOR('',#1283,1.);
#807=VECTOR('',#1286,1.);
#808=VECTOR('',#1289,1.);
#809=VECTOR('',#1292,1.);
#810=VECTOR('',#1293,1.);
#811=VECTOR('',#1296,1.);
#812=VECTOR('',#1297,1.);
#813=VECTOR('',#1298,1.);
#814=VECTOR('',#1299,1.);
#815=VECTOR('',#1302,1.);
#816=VECTOR('',#1303,1.);
#817=VECTOR('',#1304,1.);
#818=VECTOR('',#1305,1.);
#819=VECTOR('',#1308,1.);
#820=VECTOR('',#1311,1.);
#821=VECTOR('',#1312,1.);
#822=VECTOR('',#1313,1.);
#823=VECTOR('',#1314,1.);
#824=VECTOR('',#1317,1.);
#825=VECTOR('',#1320,1.);
#826=VECTOR('',#1323,1.);
#827=VECTOR('',#1326,1.);
#828=VECTOR('',#1329,1.);
#829=VECTOR('',#1332,1.);
#830=VECTOR('',#1335,1.);
#831=VECTOR('',#1338,1.);
#832=VECTOR('',#1341,1.);
#833=VECTOR('',#1344,1.);
#834=VECTOR('',#1347,1.);
#835=VECTOR('',#1350,1.);
#836=VECTOR('',#1353,1.);
#837=VECTOR('',#1356,1.);
#838=VECTOR('',#1361,1.);
#839=VECTOR('',#1362,1.);
#840=VECTOR('',#1363,1.);
#841=VECTOR('',#1366,1.);
#842=VECTOR('',#1367,1.);
#843=VECTOR('',#1368,1.);
#844=VECTOR('',#1369,1.);
#845=VECTOR('',#1372,1.);
#846=VECTOR('',#1373,1.);
#847=VECTOR('',#1374,1.);
#848=VECTOR('',#1375,1.);
#849=VECTOR('',#1376,1.);
#850=VECTOR('',#1379,1.);
#851=VECTOR('',#1380,1.);
#852=VECTOR('',#1381,1.);
#853=VECTOR('',#1384,1.);
#854=VECTOR('',#1385,1.);
#855=VECTOR('',#1386,1.);
#856=VECTOR('',#1387,1.);
#857=VECTOR('',#1390,1.);
#858=VECTOR('',#1393,1.);
#859=VECTOR('',#1396,1.);
#860=VECTOR('',#1399,1.);
#861=VECTOR('',#1402,1.);
#862=VECTOR('',#1405,1.);
#863=VECTOR('',#1406,1.);
#864=VECTOR('',#1407,1.);
#865=VECTOR('',#1408,1.);
#866=VECTOR('',#1409,1.);
#867=VECTOR('',#1410,1.);
#868=VECTOR('',#1411,1.);
#869=VECTOR('',#1412,1.);
#870=VECTOR('',#1413,1.);
#871=VECTOR('',#1414,1.);
#872=VECTOR('',#1415,1.);
#873=VECTOR('',#1416,1.);
#874=VECTOR('',#1417,1.);
#875=VECTOR('',#1420,1.);
#876=VECTOR('',#1421,1.);
#877=VECTOR('',#1422,1.);
#878=VECTOR('',#1425,1.);
#879=VECTOR('',#1426,1.);
#880=VECTOR('',#1429,1.);
#881=VECTOR('',#1430,1.);
#882=VECTOR('',#1433,1.);
#883=VECTOR('',#1438,1.);
#884=VECTOR('',#1439,1.);
#885=VECTOR('',#1442,1.);
#886=VECTOR('',#1443,1.);
#887=VECTOR('',#1450,1.);
#888=VECTOR('',#1453,1.);
#889=VECTOR('',#1456,1.);
#890=VECTOR('',#1459,1.);
#891=VECTOR('',#1460,1.);
#892=VECTOR('',#1463,1.);
#893=VECTOR('',#1470,1.);
#894=VECTOR('',#1471,1.);
#895=VECTOR('',#1474,1.);
#896=VECTOR('',#1475,1.);
#897=VECTOR('',#1478,1.);
#898=VECTOR('',#1479,1.);
#899=VECTOR('',#1490,1.);
#900=VECTOR('',#1491,1.);
#901=VECTOR('',#1494,1.);
#902=VECTOR('',#1495,1.);
#903=VECTOR('',#1498,1.);
#904=VECTOR('',#1499,1.);
#905=VECTOR('',#1510,1.);
#906=VECTOR('',#1511,1.);
#907=VECTOR('',#1514,1.);
#908=VECTOR('',#1515,1.);
#909=VECTOR('',#1518,1.);
#910=VECTOR('',#1519,1.);
#911=VECTOR('',#1530,1.);
#912=VECTOR('',#1531,1.);
#913=VECTOR('',#1534,1.);
#914=VECTOR('',#1535,1.);
#915=VECTOR('',#1538,1.);
#916=VECTOR('',#1539,1.);
#917=EDGE_LOOP('',(#60,#61,#62,#63));
#918=EDGE_LOOP('',(#64,#65,#66,#67,#68,#69,#70,#71,#72,#73,#74,#75));
#919=EDGE_LOOP('',(#76,#77,#78,#79));
#920=EDGE_LOOP('',(#80,#81,#82,#83));
#921=EDGE_LOOP('',(#84,#85,#86,#87,#88,#89,#90,#91,#92,#93,#94,#95));
#922=EDGE_LOOP('',(#96,#97,#98,#99));
#923=EDGE_LOOP('',(#100,#101,#102,#103,#104));
#924=EDGE_LOOP('',(#105,#106,#107,#108,#109,#110,#111,#112,#113,#114,#115,
#116,#117,#118,#119,#120,#121,#122,#123,#124,#125,#126,#127,#128,#129,#130,
#131,#132,#133,#134,#135,#136,#137,#138,#139,#140));
#925=EDGE_LOOP('',(#141,#142,#143,#144,#145,#146));
#926=EDGE_LOOP('',(#147,#148,#149,#150,#151,#152));
#927=EDGE_LOOP('',(#153,#154,#155,#156,#157,#158));
#928=EDGE_LOOP('',(#159,#160,#161,#162));
#929=EDGE_LOOP('',(#163,#164,#165,#166));
#930=EDGE_LOOP('',(#167,#168,#169,#170,#171,#172,#173,#174,#175,#176,#177,
#178));
#931=EDGE_LOOP('',(#179,#180,#181,#182,#183,#184,#185,#186,#187,#188,#189,
#190,#191,#192,#193,#194,#195,#196,#197,#198));
#932=EDGE_LOOP('',(#199,#200,#201,#202,#203));
#933=EDGE_LOOP('',(#204,#205,#206,#207,#208));
#934=EDGE_LOOP('',(#209,#210,#211,#212,#213));
#935=EDGE_LOOP('',(#214,#215,#216,#217));
#936=EDGE_LOOP('',(#218,#219,#220,#221));
#937=EDGE_LOOP('',(#222,#223,#224,#225));
#938=EDGE_LOOP('',(#226,#227,#228,#229));
#939=EDGE_LOOP('',(#230,#231,#232,#233));
#940=EDGE_LOOP('',(#234,#235,#236,#237,#238,#239,#240,#241,#242,#243,#244,
#245));
#941=EDGE_LOOP('',(#246,#247,#248,#249));
#942=EDGE_LOOP('',(#250,#251,#252,#253));
#943=EDGE_LOOP('',(#254,#255,#256,#257));
#944=EDGE_LOOP('',(#258,#259,#260,#261));
#945=EDGE_LOOP('',(#262,#263,#264,#265));
#946=EDGE_LOOP('',(#266,#267,#268,#269));
#947=EDGE_LOOP('',(#270,#271,#272,#273));
#948=EDGE_LOOP('',(#274,#275,#276,#277));
#949=EDGE_LOOP('',(#278,#279,#280,#281));
#950=EDGE_LOOP('',(#282,#283,#284,#285));
#951=EDGE_LOOP('',(#286,#287,#288,#289));
#952=EDGE_LOOP('',(#290,#291,#292,#293));
#953=EDGE_LOOP('',(#294,#295,#296,#297));
#954=EDGE_LOOP('',(#298,#299,#300,#301));
#955=EDGE_LOOP('',(#302,#303,#304,#305));
#956=EDGE_LOOP('',(#306,#307,#308,#309));
#957=EDGE_LOOP('',(#310,#311,#312,#313));
#958=EDGE_LOOP('',(#314,#315,#316,#317));
#959=EDGE_LOOP('',(#318,#319,#320,#321));
#960=EDGE_LOOP('',(#322,#323,#324,#325));
#961=EDGE_LOOP('',(#326,#327,#328,#329));
#962=EDGE_LOOP('',(#330,#331,#332,#333));
#963=EDGE_LOOP('',(#334,#335,#336,#337));
#964=EDGE_LOOP('',(#338,#339,#340,#341));
#965=EDGE_LOOP('',(#342,#343,#344,#345));
#966=EDGE_LOOP('',(#346,#347,#348,#349));
#967=EDGE_LOOP('',(#350,#351,#352,#353));
#968=EDGE_LOOP('',(#354,#355,#356,#357));
#969=EDGE_LOOP('',(#358,#359,#360,#361));
#970=EDGE_LOOP('',(#362,#363,#364,#365));
#971=EDGE_LOOP('',(#366,#367,#368,#369));
#972=EDGE_LOOP('',(#370,#371,#372,#373));
#973=EDGE_LOOP('',(#374,#375,#376,#377));
#974=EDGE_LOOP('',(#378,#379,#380,#381));
#975=EDGE_LOOP('',(#382,#383,#384,#385));
#976=FACE_BOUND('',#917,.T.);
#977=FACE_BOUND('',#918,.T.);
#978=FACE_BOUND('',#919,.T.);
#979=FACE_BOUND('',#920,.T.);
#980=FACE_BOUND('',#921,.T.);
#981=FACE_BOUND('',#922,.T.);
#982=FACE_BOUND('',#923,.T.);
#983=FACE_BOUND('',#924,.T.);
#984=FACE_BOUND('',#925,.T.);
#985=FACE_BOUND('',#926,.T.);
#986=FACE_BOUND('',#927,.T.);
#987=FACE_BOUND('',#928,.T.);
#988=FACE_BOUND('',#929,.T.);
#989=FACE_BOUND('',#930,.T.);
#990=FACE_BOUND('',#931,.T.);
#991=FACE_BOUND('',#932,.T.);
#992=FACE_BOUND('',#933,.T.);
#993=FACE_BOUND('',#934,.T.);
#994=FACE_BOUND('',#935,.T.);
#995=FACE_BOUND('',#936,.T.);
#996=FACE_BOUND('',#937,.T.);
#997=FACE_BOUND('',#938,.T.);
#998=FACE_BOUND('',#939,.T.);
#999=FACE_BOUND('',#940,.T.);
#1000=FACE_BOUND('',#941,.T.);
#1001=FACE_BOUND('',#942,.T.);
#1002=FACE_BOUND('',#943,.T.);
#1003=FACE_BOUND('',#944,.T.);
#1004=FACE_BOUND('',#945,.T.);
#1005=FACE_BOUND('',#946,.T.);
#1006=FACE_BOUND('',#947,.T.);
#1007=FACE_BOUND('',#948,.T.);
#1008=FACE_BOUND('',#949,.T.);
#1009=FACE_BOUND('',#950,.T.);
#1010=FACE_BOUND('',#951,.T.);
#1011=FACE_BOUND('',#952,.T.);
#1012=FACE_BOUND('',#953,.T.);
#1013=FACE_BOUND('',#954,.T.);
#1014=FACE_BOUND('',#955,.T.);
#1015=FACE_BOUND('',#956,.T.);
#1016=FACE_BOUND('',#957,.T.);
#1017=FACE_BOUND('',#958,.T.);
#1018=FACE_BOUND('',#959,.T.);
#1019=FACE_BOUND('',#960,.T.);
#1020=FACE_BOUND('',#961,.T.);
#1021=FACE_BOUND('',#962,.T.);
#1022=FACE_BOUND('',#963,.T.);
#1023=FACE_BOUND('',#964,.T.);
#1024=FACE_BOUND('',#965,.T.);
#1025=FACE_BOUND('',#966,.T.);
#1026=FACE_BOUND('',#967,.T.);
#1027=FACE_BOUND('',#968,.T.);
#1028=FACE_BOUND('',#969,.T.);
#1029=FACE_BOUND('',#970,.T.);
#1030=FACE_BOUND('',#971,.T.);
#1031=FACE_BOUND('',#972,.T.);
#1032=FACE_BOUND('',#973,.T.);
#1033=FACE_BOUND('',#974,.T.);
#1034=FACE_BOUND('',#975,.T.);
#1035=PLANE('',#1150);
#1036=PLANE('',#1151);
#1037=PLANE('',#1156);
#1038=PLANE('',#1157);
#1039=PLANE('',#1158);
#1040=PLANE('',#1163);
#1041=PLANE('',#1164);
#1042=PLANE('',#1165);
#1043=PLANE('',#1182);
#1044=PLANE('',#1183);
#1045=PLANE('',#1184);
#1046=PLANE('',#1185);
#1047=PLANE('',#1186);
#1048=PLANE('',#1187);
#1049=PLANE('',#1192);
#1050=PLANE('',#1193);
#1051=PLANE('',#1194);
#1052=PLANE('',#1195);
#1053=PLANE('',#1196);
#1054=PLANE('',#1197);
#1055=PLANE('',#1198);
#1056=PLANE('',#1199);
#1057=PLANE('',#1200);
#1058=PLANE('',#1201);
#1059=PLANE('',#1206);
#1060=PLANE('',#1207);
#1061=PLANE('',#1208);
#1062=PLANE('',#1209);
#1063=PLANE('',#1210);
#1064=PLANE('',#1211);
#1065=PLANE('',#1216);
#1066=PLANE('',#1217);
#1067=PLANE('',#1218);
#1068=PLANE('',#1223);
#1069=PLANE('',#1224);
#1070=PLANE('',#1225);
#1071=PLANE('',#1230);
#1072=PLANE('',#1231);
#1073=PLANE('',#1232);
#1074=PLANE('',#1237);
#1075=PLANE('',#1238);
#1076=PLANE('',#1239);
#1077=PLANE('',#1240);
#1078=ADVANCED_FACE('',(#976),#1035,.F.);
#1079=ADVANCED_FACE('',(#977),#1036,.F.);
#1080=ADVANCED_FACE('',(#978),#1037,.F.);
#1081=ADVANCED_FACE('',(#979),#1038,.F.);
#1082=ADVANCED_FACE('',(#980),#1039,.F.);
#1083=ADVANCED_FACE('',(#981),#1040,.F.);
#1084=ADVANCED_FACE('',(#982),#1041,.T.);
#1085=ADVANCED_FACE('',(#983),#1042,.F.);
#1086=ADVANCED_FACE('',(#984),#1043,.T.);
#1087=ADVANCED_FACE('',(#985),#1044,.T.);
#1088=ADVANCED_FACE('',(#986),#1045,.T.);
#1089=ADVANCED_FACE('',(#987),#1046,.F.);
#1090=ADVANCED_FACE('',(#988),#1047,.F.);
#1091=ADVANCED_FACE('',(#989),#1048,.F.);
#1092=ADVANCED_FACE('',(#990),#1049,.T.);
#1093=ADVANCED_FACE('',(#991),#1050,.T.);
#1094=ADVANCED_FACE('',(#992),#1051,.F.);
#1095=ADVANCED_FACE('',(#993),#1052,.T.);
#1096=ADVANCED_FACE('',(#994),#1053,.F.);
#1097=ADVANCED_FACE('',(#995),#1054,.T.);
#1098=ADVANCED_FACE('',(#996),#1055,.F.);
#1099=ADVANCED_FACE('',(#997),#1056,.T.);
#1100=ADVANCED_FACE('',(#998),#1057,.F.);
#1101=ADVANCED_FACE('',(#999),#1058,.F.);
#1102=ADVANCED_FACE('',(#1000),#1059,.F.);
#1103=ADVANCED_FACE('',(#1001),#1060,.T.);
#1104=ADVANCED_FACE('',(#1002),#1061,.F.);
#1105=ADVANCED_FACE('',(#1003),#1062,.T.);
#1106=ADVANCED_FACE('',(#1004),#1063,.F.);
#1107=ADVANCED_FACE('',(#1005),#1064,.F.);
#1108=ADVANCED_FACE('',(#1006),#12,.T.);
#1109=ADVANCED_FACE('',(#1007),#13,.T.);
#1110=ADVANCED_FACE('',(#1008),#14,.F.);
#1111=ADVANCED_FACE('',(#1009),#15,.F.);
#1112=ADVANCED_FACE('',(#1010),#1065,.T.);
#1113=ADVANCED_FACE('',(#1011),#1066,.F.);
#1114=ADVANCED_FACE('',(#1012),#1067,.F.);
#1115=ADVANCED_FACE('',(#1013),#16,.T.);
#1116=ADVANCED_FACE('',(#1014),#17,.T.);
#1117=ADVANCED_FACE('',(#1015),#18,.F.);
#1118=ADVANCED_FACE('',(#1016),#19,.F.);
#1119=ADVANCED_FACE('',(#1017),#1068,.T.);
#1120=ADVANCED_FACE('',(#1018),#1069,.F.);
#1121=ADVANCED_FACE('',(#1019),#1070,.F.);
#1122=ADVANCED_FACE('',(#1020),#20,.T.);
#1123=ADVANCED_FACE('',(#1021),#21,.T.);
#1124=ADVANCED_FACE('',(#1022),#22,.F.);
#1125=ADVANCED_FACE('',(#1023),#23,.F.);
#1126=ADVANCED_FACE('',(#1024),#1071,.T.);
#1127=ADVANCED_FACE('',(#1025),#1072,.F.);
#1128=ADVANCED_FACE('',(#1026),#1073,.F.);
#1129=ADVANCED_FACE('',(#1027),#24,.T.);
#1130=ADVANCED_FACE('',(#1028),#25,.T.);
#1131=ADVANCED_FACE('',(#1029),#26,.F.);
#1132=ADVANCED_FACE('',(#1030),#27,.F.);
#1133=ADVANCED_FACE('',(#1031),#1074,.T.);
#1134=ADVANCED_FACE('',(#1032),#1075,.F.);
#1135=ADVANCED_FACE('',(#1033),#1076,.T.);
#1136=ADVANCED_FACE('',(#1034),#1077,.F.);
#1137=CLOSED_SHELL('',(#1078,#1079,#1080,#1081,#1082,#1083,#1084,#1085,
#1086,#1087,#1088,#1089,#1090,#1091,#1092,#1093,#1094,#1095,#1096,#1097,
#1098,#1099,#1100,#1101,#1102,#1103,#1104,#1105,#1106,#1107,#1108,#1109,
#1110,#1111,#1112,#1113,#1114,#1115,#1116,#1117,#1118,#1119,#1120,#1121,
#1122,#1123,#1124,#1125,#1126,#1127,#1128,#1129,#1130,#1131,#1132,#1133,
#1134,#1135,#1136));
#1138=STYLED_ITEM('',(#1139),#1146);
#1139=PRESENTATION_STYLE_ASSIGNMENT((#1140));
#1140=SURFACE_STYLE_USAGE(.BOTH.,#1141);
#1141=SURFACE_SIDE_STYLE('',(#1142));
#1142=SURFACE_STYLE_FILL_AREA(#1143);
#1143=FILL_AREA_STYLE('',(#1144));
#1144=FILL_AREA_STYLE_COLOUR('',#1145);
#1145=COLOUR_RGB('',0.866666666666667,0.32156862745098,0.156862745098039);
#1146=MANIFOLD_SOLID_BREP('Topper',#1137);
#1147=SHAPE_DEFINITION_REPRESENTATION(#1891,#1148);
#1148=SHAPE_REPRESENTATION('Topper',(#1149),#1886);
#1149=AXIS2_PLACEMENT_3D('',#1556,#1241,#1242);
#1150=AXIS2_PLACEMENT_3D('',#1557,#1243,#1244);
#1151=AXIS2_PLACEMENT_3D('',#1566,#1249,#1250);
#1152=AXIS2_PLACEMENT_3D('',#1573,#1254,#1255);
#1153=AXIS2_PLACEMENT_3D('',#1577,#1257,#1258);
#1154=AXIS2_PLACEMENT_3D('',#1581,#1260,#1261);
#1155=AXIS2_PLACEMENT_3D('',#1585,#1263,#1264);
#1156=AXIS2_PLACEMENT_3D('',#1588,#1266,#1267);
#1157=AXIS2_PLACEMENT_3D('',#1597,#1272,#1273);
#1158=AXIS2_PLACEMENT_3D('',#1603,#1277,#1278);
#1159=AXIS2_PLACEMENT_3D('',#1608,#1281,#1282);
#1160=AXIS2_PLACEMENT_3D('',#1612,#1284,#1285);
#1161=AXIS2_PLACEMENT_3D('',#1616,#1287,#1288);
#1162=AXIS2_PLACEMENT_3D('',#1620,#1290,#1291);
#1163=AXIS2_PLACEMENT_3D('',#1625,#1294,#1295);
#1164=AXIS2_PLACEMENT_3D('',#1634,#1300,#1301);
#1165=AXIS2_PLACEMENT_3D('',#1642,#1306,#1307);
#1166=AXIS2_PLACEMENT_3D('',#1646,#1309,#1310);
#1167=AXIS2_PLACEMENT_3D('',#1655,#1315,#1316);
#1168=AXIS2_PLACEMENT_3D('',#1659,#1318,#1319);
#1169=AXIS2_PLACEMENT_3D('',#1663,#1321,#1322);
#1170=AXIS2_PLACEMENT_3D('',#1667,#1324,#1325);
#1171=AXIS2_PLACEMENT_3D('',#1671,#1327,#1328);
#1172=AXIS2_PLACEMENT_3D('',#1675,#1330,#1331);
#1173=AXIS2_PLACEMENT_3D('',#1679,#1333,#1334);
#1174=AXIS2_PLACEMENT_3D('',#1683,#1336,#1337);
#1175=AXIS2_PLACEMENT_3D('',#1687,#1339,#1340);
#1176=AXIS2_PLACEMENT_3D('',#1691,#1342,#1343);
#1177=AXIS2_PLACEMENT_3D('',#1695,#1345,#1346);
#1178=AXIS2_PLACEMENT_3D('',#1699,#1348,#1349);
#1179=AXIS2_PLACEMENT_3D('',#1703,#1351,#1352);
#1180=AXIS2_PLACEMENT_3D('',#1707,#1354,#1355);
#1181=AXIS2_PLACEMENT_3D('',#1711,#1357,#1358);
#1182=AXIS2_PLACEMENT_3D('',#1712,#1359,#1360);
#1183=AXIS2_PLACEMENT_3D('',#1716,#1364,#1365);
#1184=AXIS2_PLACEMENT_3D('',#1723,#1370,#1371);
#1185=AXIS2_PLACEMENT_3D('',#1733,#1377,#1378);
#1186=AXIS2_PLACEMENT_3D('',#1739,#1382,#1383);
#1187=AXIS2_PLACEMENT_3D('',#1748,#1388,#1389);
#1188=AXIS2_PLACEMENT_3D('',#1750,#1391,#1392);
#1189=AXIS2_PLACEMENT_3D('',#1754,#1394,#1395);
#1190=AXIS2_PLACEMENT_3D('',#1758,#1397,#1398);
#1191=AXIS2_PLACEMENT_3D('',#1762,#1400,#1401);
#1192=AXIS2_PLACEMENT_3D('',#1764,#1403,#1404);
#1193=AXIS2_PLACEMENT_3D('',#1784,#1418,#1419);
#1194=AXIS2_PLACEMENT_3D('',#1789,#1423,#1424);
#1195=AXIS2_PLACEMENT_3D('',#1793,#1427,#1428);
#1196=AXIS2_PLACEMENT_3D('',#1797,#1431,#1432);
#1197=AXIS2_PLACEMENT_3D('',#1799,#1434,#1435);
#1198=AXIS2_PLACEMENT_3D('',#1800,#1436,#1437);
#1199=AXIS2_PLACEMENT_3D('',#1803,#1440,#1441);
#1200=AXIS2_PLACEMENT_3D('',#1807,#1444,#1445);
#1201=AXIS2_PLACEMENT_3D('',#1808,#1446,#1447);
#1202=AXIS2_PLACEMENT_3D('',#1809,#1448,#1449);
#1203=AXIS2_PLACEMENT_3D('',#1813,#1451,#1452);
#1204=AXIS2_PLACEMENT_3D('',#1817,#1454,#1455);
#1205=AXIS2_PLACEMENT_3D('',#1821,#1457,#1458);
#1206=AXIS2_PLACEMENT_3D('',#1825,#1461,#1462);
#1207=AXIS2_PLACEMENT_3D('',#1827,#1464,#1465);
#1208=AXIS2_PLACEMENT_3D('',#1828,#1466,#1467);
#1209=AXIS2_PLACEMENT_3D('',#1829,#1468,#1469);
#1210=AXIS2_PLACEMENT_3D('',#1832,#1472,#1473);
#1211=AXIS2_PLACEMENT_3D('',#1835,#1476,#1477);
#1212=AXIS2_PLACEMENT_3D('',#1838,#1480,#1481);
#1213=AXIS2_PLACEMENT_3D('',#1839,#1482,#1483);
#1214=AXIS2_PLACEMENT_3D('',#1840,#1484,#1485);
#1215=AXIS2_PLACEMENT_3D('',#1841,#1486,#1487);
#1216=AXIS2_PLACEMENT_3D('',#1842,#1488,#1489);
#1217=AXIS2_PLACEMENT_3D('',#1845,#1492,#1493);
#1218=AXIS2_PLACEMENT_3D('',#1848,#1496,#1497);
#1219=AXIS2_PLACEMENT_3D('',#1851,#1500,#1501);
#1220=AXIS2_PLACEMENT_3D('',#1852,#1502,#1503);
#1221=AXIS2_PLACEMENT_3D('',#1853,#1504,#1505);
#1222=AXIS2_PLACEMENT_3D('',#1854,#1506,#1507);
#1223=AXIS2_PLACEMENT_3D('',#1855,#1508,#1509);
#1224=AXIS2_PLACEMENT_3D('',#1858,#1512,#1513);
#1225=AXIS2_PLACEMENT_3D('',#1861,#1516,#1517);
#1226=AXIS2_PLACEMENT_3D('',#1864,#1520,#1521);
#1227=AXIS2_PLACEMENT_3D('',#1865,#1522,#1523);
#1228=AXIS2_PLACEMENT_3D('',#1866,#1524,#1525);
#1229=AXIS2_PLACEMENT_3D('',#1867,#1526,#1527);
#1230=AXIS2_PLACEMENT_3D('',#1868,#1528,#1529);
#1231=AXIS2_PLACEMENT_3D('',#1871,#1532,#1533);
#1232=AXIS2_PLACEMENT_3D('',#1874,#1536,#1537);
#1233=AXIS2_PLACEMENT_3D('',#1877,#1540,#1541);
#1234=AXIS2_PLACEMENT_3D('',#1878,#1542,#1543);
#1235=AXIS2_PLACEMENT_3D('',#1879,#1544,#1545);
#1236=AXIS2_PLACEMENT_3D('',#1880,#1546,#1547);
#1237=AXIS2_PLACEMENT_3D('',#1881,#1548,#1549);
#1238=AXIS2_PLACEMENT_3D('',#1882,#1550,#1551);
#1239=AXIS2_PLACEMENT_3D('',#1883,#1552,#1553);
#1240=AXIS2_PLACEMENT_3D('',#1884,#1554,#1555);
#1241=DIRECTION('',(0.,0.,1.));
#1242=DIRECTION('',(1.,0.,0.));
#1243=DIRECTION('',(2.3521674250533E-16,0.,1.));
#1244=DIRECTION('',(1.,0.,-2.3521674250533E-16));
#1245=DIRECTION('',(3.52288089231727E-16,-1.,-8.28640567725137E-32));
#1246=DIRECTION('',(1.,-2.34568183996042E-16,-2.3521674250533E-16));
#1247=DIRECTION('',(-2.28964779212329E-15,-1.,5.38563495147759E-31));
#1248=DIRECTION('',(-1.,0.,2.3521674250533E-16));
#1249=DIRECTION('',(0.,-1.,0.));
#1250=DIRECTION('',(0.,0.,-1.));
#1251=DIRECTION('',(-2.3521674250533E-16,0.,-1.));
#1252=DIRECTION('',(-2.3521674250533E-16,0.,-1.));
#1253=DIRECTION('',(-1.,0.,2.3521674250533E-16));
#1254=DIRECTION('',(0.,-1.,0.));
#1255=DIRECTION('',(0.,0.,-1.));
#1256=DIRECTION('',(-1.92747052886311E-16,0.,-1.));
#1257=DIRECTION('',(0.,-1.,0.));
#1258=DIRECTION('',(0.,0.,-1.));
#1259=DIRECTION('',(1.,0.,-1.28023872765816E-16));
#1260=DIRECTION('',(0.,-1.,0.));
#1261=DIRECTION('',(0.,0.,-1.));
#1262=DIRECTION('',(-1.92747052886312E-16,0.,-1.));
#1263=DIRECTION('',(0.,-1.,0.));
#1264=DIRECTION('',(0.,0.,-1.));
#1265=DIRECTION('',(-1.,0.,2.3521674250533E-16));
#1266=DIRECTION('',(2.34568183996042E-16,1.,-5.51743641349397E-32));
#1267=DIRECTION('',(-1.,2.34568183996042E-16,0.));
#1268=DIRECTION('',(-2.3521674250533E-16,0.,-1.));
#1269=DIRECTION('',(1.,-2.34568183996042E-16,-2.3521674250533E-16));
#1270=DIRECTION('',(-2.3521674250533E-16,0.,-1.));
#1271=DIRECTION('',(1.,-2.34568183996042E-16,-5.86533474700314E-16));
#1272=DIRECTION('',(2.3521674250533E-16,0.,1.));
#1273=DIRECTION('',(1.,0.,-2.3521674250533E-16));
#1274=DIRECTION('',(3.52288089231727E-16,-1.,-8.28640567725137E-32));
#1275=DIRECTION('',(-1.,0.,2.3521674250533E-16));
#1276=DIRECTION('',(3.52288089231727E-16,-1.,-8.28640567725137E-32));
#1277=DIRECTION('',(0.,-1.,0.));
#1278=DIRECTION('',(0.,0.,-1.));
#1279=DIRECTION('',(-2.3521674250533E-16,0.,-1.));
#1280=DIRECTION('',(-1.,0.,2.3521674250533E-16));
#1281=DIRECTION('',(0.,-1.,0.));
#1282=DIRECTION('',(0.,0.,-1.));
#1283=DIRECTION('',(-1.92747052886311E-16,0.,-1.));
#1284=DIRECTION('',(0.,-1.,0.));
#1285=DIRECTION('',(0.,0.,-1.));
#1286=DIRECTION('',(1.,0.,-1.28023872765816E-16));
#1287=DIRECTION('',(0.,-1.,0.));
#1288=DIRECTION('',(0.,0.,-1.));
#1289=DIRECTION('',(-1.92747052886312E-16,0.,-1.));
#1290=DIRECTION('',(0.,-1.,0.));
#1291=DIRECTION('',(0.,0.,-1.));
#1292=DIRECTION('',(-1.,0.,2.3521674250533E-16));
#1293=DIRECTION('',(-2.3521674250533E-16,0.,-1.));
#1294=DIRECTION('',(2.34568183996042E-16,1.,-5.51743641349397E-32));
#1295=DIRECTION('',(-1.,2.34568183996042E-16,0.));
#1296=DIRECTION('',(-2.3521674250533E-16,0.,-1.));
#1297=DIRECTION('',(1.,-2.34568183996042E-16,-2.3521674250533E-16));
#1298=DIRECTION('',(-2.3521674250533E-16,0.,-1.));
#1299=DIRECTION('',(1.,-2.34568183996042E-16,-5.86533474700314E-16));
#1300=DIRECTION('',(-2.3521674250533E-16,0.,-1.));
#1301=DIRECTION('',(-1.,0.,2.3521674250533E-16));
#1302=DIRECTION('',(-1.,0.,2.3521674250533E-16));
#1303=DIRECTION('',(0.,1.,0.));
#1304=DIRECTION('',(-1.,0.,2.3521674250533E-16));
#1305=DIRECTION('',(0.,-1.,0.));
#1306=DIRECTION('',(0.,1.,0.));
#1307=DIRECTION('',(0.,0.,1.));
#1308=DIRECTION('',(-1.92747052886311E-16,0.,-1.));
#1309=DIRECTION('',(0.,1.,0.));
#1310=DIRECTION('',(0.,0.,1.));
#1311=DIRECTION('',(-2.3521674250533E-16,0.,-1.));
#1312=DIRECTION('',(-1.,0.,2.3521674250533E-16));
#1313=DIRECTION('',(-2.3521674250533E-16,0.,-1.));
#1314=DIRECTION('',(-1.,0.,2.3521674250533E-16));
#1315=DIRECTION('',(0.,1.,0.));
#1316=DIRECTION('',(0.,0.,1.));
#1317=DIRECTION('',(-1.92747052886312E-16,0.,-1.));
#1318=DIRECTION('',(0.,1.,0.));
#1319=DIRECTION('',(0.,0.,1.));
#1320=DIRECTION('',(1.,0.,-1.28023872765816E-16));
#1321=DIRECTION('',(0.,1.,0.));
#1322=DIRECTION('',(0.,0.,1.));
#1323=DIRECTION('',(-1.92747052886311E-16,0.,-1.));
#1324=DIRECTION('',(0.,1.,0.));
#1325=DIRECTION('',(0.,0.,1.));
#1326=DIRECTION('',(-1.,0.,2.3521674250533E-16));
#1327=DIRECTION('',(0.,1.,0.));
#1328=DIRECTION('',(0.,0.,1.));
#1329=DIRECTION('',(-1.92747052886312E-16,0.,-1.));
#1330=DIRECTION('',(0.,1.,0.));
#1331=DIRECTION('',(0.,0.,1.));
#1332=DIRECTION('',(1.,0.,-1.28023872765816E-16));
#1333=DIRECTION('',(0.,1.,0.));
#1334=DIRECTION('',(0.,0.,1.));
#1335=DIRECTION('',(-1.92747052886311E-16,0.,-1.));
#1336=DIRECTION('',(0.,1.,0.));
#1337=DIRECTION('',(0.,0.,1.));
#1338=DIRECTION('',(-1.,0.,2.3521674250533E-16));
#1339=DIRECTION('',(0.,1.,0.));
#1340=DIRECTION('',(0.,0.,1.));
#1341=DIRECTION('',(-1.92747052886312E-16,0.,-1.));
#1342=DIRECTION('',(0.,1.,0.));
#1343=DIRECTION('',(0.,0.,1.));
#1344=DIRECTION('',(1.,0.,-1.28023872765816E-16));
#1345=DIRECTION('',(0.,1.,0.));
#1346=DIRECTION('',(0.,0.,1.));
#1347=DIRECTION('',(-1.92747052886311E-16,0.,-1.));
#1348=DIRECTION('',(0.,1.,0.));
#1349=DIRECTION('',(0.,0.,1.));
#1350=DIRECTION('',(-1.,0.,2.3521674250533E-16));
#1351=DIRECTION('',(0.,1.,0.));
#1352=DIRECTION('',(0.,0.,1.));
#1353=DIRECTION('',(-1.92747052886312E-16,0.,-1.));
#1354=DIRECTION('',(0.,1.,0.));
#1355=DIRECTION('',(0.,0.,1.));
#1356=DIRECTION('',(1.,0.,-1.28023872765816E-16));
#1357=DIRECTION('',(0.,1.,0.));
#1358=DIRECTION('',(0.,0.,1.));
#1359=DIRECTION('',(-2.3521674250533E-16,0.,-1.));
#1360=DIRECTION('',(-1.,0.,2.3521674250533E-16));
#1361=DIRECTION('',(0.,1.,0.));
#1362=DIRECTION('',(0.,1.,0.));
#1363=DIRECTION('',(-1.,-3.52288089231727E-16,2.3521674250533E-16));
#1364=DIRECTION('',(-2.3521674250533E-16,0.,-1.));
#1365=DIRECTION('',(-1.,0.,2.3521674250533E-16));
#1366=DIRECTION('',(0.,1.,0.));
#1367=DIRECTION('',(0.,1.,0.));
#1368=DIRECTION('',(-1.,0.,2.3521674250533E-16));
#1369=DIRECTION('',(-1.,-3.52288089231727E-16,2.3521674250533E-16));
#1370=DIRECTION('',(-2.3521674250533E-16,0.,-1.));
#1371=DIRECTION('',(-1.,0.,2.3521674250533E-16));
#1372=DIRECTION('',(-1.,0.,2.3521674250533E-16));
#1373=DIRECTION('',(0.,1.,0.));
#1374=DIRECTION('',(0.,1.,0.));
#1375=DIRECTION('',(-1.,0.,2.3521674250533E-16));
#1376=DIRECTION('',(-1.,-3.52288089231727E-16,2.3521674250533E-16));
#1377=DIRECTION('',(2.3521674250533E-16,0.,1.));
#1378=DIRECTION('',(1.,0.,-2.3521674250533E-16));
#1379=DIRECTION('',(3.52288089231727E-16,-1.,-8.28640567725137E-32));
#1380=DIRECTION('',(-1.,0.,2.3521674250533E-16));
#1381=DIRECTION('',(3.52288089231727E-16,-1.,-8.28640567725137E-32));
#1382=DIRECTION('',(2.34568183996042E-16,1.,-5.51743641349397E-32));
#1383=DIRECTION('',(-1.,2.34568183996042E-16,0.));
#1384=DIRECTION('',(-2.3521674250533E-16,0.,-1.));
#1385=DIRECTION('',(1.,-2.34568183996042E-16,-2.3521674250533E-16));
#1386=DIRECTION('',(-2.3521674250533E-16,0.,-1.));
#1387=DIRECTION('',(1.,-2.34568183996042E-16,-5.86533474700314E-16));
#1388=DIRECTION('',(0.,-1.,0.));
#1389=DIRECTION('',(0.,0.,-1.));
#1390=DIRECTION('',(-2.3521674250533E-16,0.,-1.));
#1391=DIRECTION('',(0.,-1.,0.));
#1392=DIRECTION('',(0.,0.,-1.));
#1393=DIRECTION('',(-1.92747052886311E-16,0.,-1.));
#1394=DIRECTION('',(0.,-1.,0.));
#1395=DIRECTION('',(0.,0.,-1.));
#1396=DIRECTION('',(1.,0.,-1.28023872765816E-16));
#1397=DIRECTION('',(0.,-1.,0.));
#1398=DIRECTION('',(0.,0.,-1.));
#1399=DIRECTION('',(-1.92747052886312E-16,0.,-1.));
#1400=DIRECTION('',(0.,-1.,0.));
#1401=DIRECTION('',(0.,0.,-1.));
#1402=DIRECTION('',(-2.3521674250533E-16,0.,-1.));
#1403=DIRECTION('',(-1.30612372544018E-16,0.831660004167414,-0.555285185709341));
#1404=DIRECTION('',(0.,0.555285185709341,0.831660004167414));
#1405=DIRECTION('',(7.25044316496438E-33,-0.555285185709341,-0.831660004167414));
#1406=DIRECTION('',(-1.,0.,2.3521674250533E-16));
#1407=DIRECTION('',(-1.95620357052228E-16,-0.555285185709341,-0.831660004167414));
#1408=DIRECTION('',(-1.,0.,2.3521674250533E-16));
#1409=DIRECTION('',(-1.95620357052228E-16,-0.555285185709341,-0.831660004167414));
#1410=DIRECTION('',(-1.46702785651039E-15,-0.555285185709341,-0.831660004167414));
#1411=DIRECTION('',(1.,-2.34568183996042E-16,-5.86533474700314E-16));
#1412=DIRECTION('',(7.25044316496438E-33,-0.555285185709341,-0.831660004167414));
#1413=DIRECTION('',(7.25044316496438E-33,-0.555285185709341,-0.831660004167414));
#1414=DIRECTION('',(7.25044316496438E-33,-0.555285185709341,-0.831660004167414));
#1415=DIRECTION('',(7.25044316496438E-33,-0.555285185709341,-0.831660004167414));
#1416=DIRECTION('',(7.25044316496438E-33,-0.555285185709341,-0.831660004167414));
#1417=DIRECTION('',(7.25044316496438E-33,-0.555285185709341,-0.831660004167414));
#1418=DIRECTION('',(-2.3521674250533E-16,0.,-1.));
#1419=DIRECTION('',(-1.,0.,2.3521674250533E-16));
#1420=DIRECTION('',(-1.,0.,2.3521674250533E-16));
#1421=DIRECTION('',(0.,1.,0.));
#1422=DIRECTION('',(0.,-1.,0.));
#1423=DIRECTION('',(-1.,0.,2.3521674250533E-16));
#1424=DIRECTION('',(0.,-1.,0.));
#1425=DIRECTION('',(-2.3521674250533E-16,0.,-1.));
#1426=DIRECTION('',(0.,1.,0.));
#1427=DIRECTION('',(-1.,0.,2.3521674250533E-16));
#1428=DIRECTION('',(0.,-1.,0.));
#1429=DIRECTION('',(0.,1.,0.));
#1430=DIRECTION('',(-2.3521674250533E-16,0.,-1.));
#1431=DIRECTION('',(0.,-1.,0.));
#1432=DIRECTION('',(0.,0.,-1.));
#1433=DIRECTION('',(-1.,0.,2.3521674250533E-16));
#1434=DIRECTION('',(2.3521674250533E-16,0.,1.));
#1435=DIRECTION('',(1.,0.,-2.3521674250533E-16));
#1436=DIRECTION('',(2.34568183996042E-16,1.,-5.51743641349397E-32));
#1437=DIRECTION('',(-1.,2.34568183996042E-16,0.));
#1438=DIRECTION('',(-2.3521674250533E-16,0.,-1.));
#1439=DIRECTION('',(-2.3521674250533E-16,0.,-1.));
#1440=DIRECTION('',(1.,3.52288089231727E-16,-2.3521674250533E-16));
#1441=DIRECTION('',(-3.52288089231727E-16,1.,0.));
#1442=DIRECTION('',(3.52288089231727E-16,-1.,-8.28640567725137E-32));
#1443=DIRECTION('',(-2.3521674250533E-16,0.,-1.));
#1444=DIRECTION('',(1.,-2.28964779212329E-15,-2.3521674250533E-16));
#1445=DIRECTION('',(2.28964779212329E-15,1.,0.));
#1446=DIRECTION('',(0.,-1.,0.));
#1447=DIRECTION('',(0.,0.,-1.));
#1448=DIRECTION('',(0.,-1.,0.));
#1449=DIRECTION('',(0.,0.,-1.));
#1450=DIRECTION('',(-1.92747052886311E-16,0.,-1.));
#1451=DIRECTION('',(0.,-1.,0.));
#1452=DIRECTION('',(0.,0.,-1.));
#1453=DIRECTION('',(1.,0.,-1.28023872765816E-16));
#1454=DIRECTION('',(0.,-1.,0.));
#1455=DIRECTION('',(0.,0.,-1.));
#1456=DIRECTION('',(-1.92747052886312E-16,0.,-1.));
#1457=DIRECTION('',(0.,-1.,0.));
#1458=DIRECTION('',(0.,0.,-1.));
#1459=DIRECTION('',(-1.,0.,2.3521674250533E-16));
#1460=DIRECTION('',(-2.3521674250533E-16,0.,-1.));
#1461=DIRECTION('',(2.3521674250533E-16,0.,1.));
#1462=DIRECTION('',(1.,0.,-2.3521674250533E-16));
#1463=DIRECTION('',(3.52288089231727E-16,-1.,-8.28640567725137E-32));
#1464=DIRECTION('',(1.,3.52288089231727E-16,-2.3521674250533E-16));
#1465=DIRECTION('',(-3.52288089231727E-16,1.,8.28640567725137E-32));
#1466=DIRECTION('',(1.,3.52288089231727E-16,-2.3521674250533E-16));
#1467=DIRECTION('',(-3.52288089231727E-16,1.,8.28640567725137E-32));
#1468=DIRECTION('',(1.,0.,-1.92747052886312E-16));
#1469=DIRECTION('',(-1.92747052886312E-16,0.,-1.));
#1470=DIRECTION('',(0.,1.,0.));
#1471=DIRECTION('',(0.,1.,0.));
#1472=DIRECTION('',(1.,0.,-1.92747052886311E-16));
#1473=DIRECTION('',(-1.92747052886311E-16,0.,-1.));
#1474=DIRECTION('',(0.,1.,0.));
#1475=DIRECTION('',(0.,1.,0.));
#1476=DIRECTION('',(1.28023872765816E-16,0.,1.));
#1477=DIRECTION('',(1.,0.,-1.28023872765816E-16));
#1478=DIRECTION('',(0.,1.,0.));
#1479=DIRECTION('',(0.,1.,0.));
#1480=DIRECTION('',(0.,-1.,0.));
#1481=DIRECTION('',(0.,0.,-1.));
#1482=DIRECTION('',(0.,1.,0.));
#1483=DIRECTION('',(0.,0.,1.));
#1484=DIRECTION('',(0.,-1.,0.));
#1485=DIRECTION('',(0.,0.,-1.));
#1486=DIRECTION('',(0.,1.,0.));
#1487=DIRECTION('',(0.,0.,1.));
#1488=DIRECTION('',(1.,0.,-1.92747052886312E-16));
#1489=DIRECTION('',(-1.92747052886312E-16,0.,-1.));
#1490=DIRECTION('',(0.,1.,0.));
#1491=DIRECTION('',(0.,1.,0.));
#1492=DIRECTION('',(1.,0.,-1.92747052886311E-16));
#1493=DIRECTION('',(-1.92747052886311E-16,0.,-1.));
#1494=DIRECTION('',(0.,1.,0.));
#1495=DIRECTION('',(0.,1.,0.));
#1496=DIRECTION('',(1.28023872765816E-16,0.,1.));
#1497=DIRECTION('',(1.,0.,-1.28023872765816E-16));
#1498=DIRECTION('',(0.,1.,0.));
#1499=DIRECTION('',(0.,1.,0.));
#1500=DIRECTION('',(0.,-1.,0.));
#1501=DIRECTION('',(0.,0.,-1.));
#1502=DIRECTION('',(0.,1.,0.));
#1503=DIRECTION('',(0.,0.,1.));
#1504=DIRECTION('',(0.,-1.,0.));
#1505=DIRECTION('',(0.,0.,-1.));
#1506=DIRECTION('',(0.,1.,0.));
#1507=DIRECTION('',(0.,0.,1.));
#1508=DIRECTION('',(1.,0.,-1.92747052886312E-16));
#1509=DIRECTION('',(-1.92747052886312E-16,0.,-1.));
#1510=DIRECTION('',(0.,1.,0.));
#1511=DIRECTION('',(0.,1.,0.));
#1512=DIRECTION('',(1.,0.,-1.92747052886311E-16));
#1513=DIRECTION('',(-1.92747052886311E-16,0.,-1.));
#1514=DIRECTION('',(0.,1.,0.));
#1515=DIRECTION('',(0.,1.,0.));
#1516=DIRECTION('',(1.28023872765816E-16,0.,1.));
#1517=DIRECTION('',(1.,0.,-1.28023872765816E-16));
#1518=DIRECTION('',(0.,1.,0.));
#1519=DIRECTION('',(0.,1.,0.));
#1520=DIRECTION('',(0.,-1.,0.));
#1521=DIRECTION('',(0.,0.,-1.));
#1522=DIRECTION('',(0.,1.,0.));
#1523=DIRECTION('',(0.,0.,1.));
#1524=DIRECTION('',(0.,-1.,0.));
#1525=DIRECTION('',(0.,0.,-1.));
#1526=DIRECTION('',(0.,1.,0.));
#1527=DIRECTION('',(0.,0.,1.));
#1528=DIRECTION('',(1.,0.,-1.92747052886312E-16));
#1529=DIRECTION('',(-1.92747052886312E-16,0.,-1.));
#1530=DIRECTION('',(0.,1.,0.));
#1531=DIRECTION('',(0.,1.,0.));
#1532=DIRECTION('',(1.,0.,-1.92747052886311E-16));
#1533=DIRECTION('',(-1.92747052886311E-16,0.,-1.));
#1534=DIRECTION('',(0.,1.,0.));
#1535=DIRECTION('',(0.,1.,0.));
#1536=DIRECTION('',(1.28023872765816E-16,0.,1.));
#1537=DIRECTION('',(1.,0.,-1.28023872765816E-16));
#1538=DIRECTION('',(0.,1.,0.));
#1539=DIRECTION('',(0.,1.,0.));
#1540=DIRECTION('',(0.,-1.,0.));
#1541=DIRECTION('',(0.,0.,-1.));
#1542=DIRECTION('',(0.,1.,0.));
#1543=DIRECTION('',(0.,0.,1.));
#1544=DIRECTION('',(0.,-1.,0.));
#1545=DIRECTION('',(0.,0.,-1.));
#1546=DIRECTION('',(0.,1.,0.));
#1547=DIRECTION('',(0.,0.,1.));
#1548=DIRECTION('',(1.,3.52288089231727E-16,-2.3521674250533E-16));
#1549=DIRECTION('',(-3.52288089231727E-16,1.,8.28640567725137E-32));
#1550=DIRECTION('',(1.,3.52288089231727E-16,-2.3521674250533E-16));
#1551=DIRECTION('',(-3.52288089231727E-16,1.,8.28640567725137E-32));
#1552=DIRECTION('',(1.,3.52288089231727E-16,-2.3521674250533E-16));
#1553=DIRECTION('',(-3.52288089231727E-16,1.,8.28640567725137E-32));
#1554=DIRECTION('',(1.,3.52288089231727E-16,-2.3521674250533E-16));
#1555=DIRECTION('',(-3.52288089231727E-16,1.,8.28640567725137E-32));
#1556=CARTESIAN_POINT('',(0.,0.,0.));
#1557=CARTESIAN_POINT('',(0.2415,-0.01175,0.04725));
#1558=CARTESIAN_POINT('',(0.1733,-0.00569711407428403,0.04725));
#1559=CARTESIAN_POINT('',(0.1733,-0.000444228148567759,0.04725));
#1560=CARTESIAN_POINT('',(0.1733,-0.0109500000000003,0.04725));
#1561=CARTESIAN_POINT('',(0.1035,-0.000444228148567501,0.04725));
#1562=CARTESIAN_POINT('',(0.2401,-0.000444228148567531,0.04725));
#1563=CARTESIAN_POINT('',(0.2401,-0.00569711407428377,0.04725));
#1564=CARTESIAN_POINT('',(0.2401,-0.01095,0.04725));
#1565=CARTESIAN_POINT('',(0.2415,-0.01095,0.04725));
#1566=CARTESIAN_POINT('',(0.2415,-0.01095,0.436029741187597));
#1567=CARTESIAN_POINT('',(0.1733,-0.0109500000000003,0.436029741187597));
#1568=CARTESIAN_POINT('',(0.1733,-0.0109500000000003,0.02785));
#1569=CARTESIAN_POINT('',(0.2401,-0.01095,0.436029741187597));
#1570=CARTESIAN_POINT('',(0.2401,-0.01095,0.02785));
#1571=CARTESIAN_POINT('',(0.2415,-0.01095,0.02785));
#1572=CARTESIAN_POINT('',(0.2361,-0.01095,0.02785));
#1573=CARTESIAN_POINT('',(0.2361,-0.01095,0.02985));
#1574=CARTESIAN_POINT('',(0.2341,-0.01095,0.02985));
#1575=CARTESIAN_POINT('',(0.2341,-0.01095,0.03685));
#1576=CARTESIAN_POINT('',(0.2341,-0.01095,0.04385));
#1577=CARTESIAN_POINT('',(0.2321,-0.01095,0.04385));
#1578=CARTESIAN_POINT('',(0.2321,-0.01095,0.04585));
#1579=CARTESIAN_POINT('',(0.207,-0.01095,0.04585));
#1580=CARTESIAN_POINT('',(0.1819,-0.01095,0.04585));
#1581=CARTESIAN_POINT('',(0.1819,-0.01095,0.04385));
#1582=CARTESIAN_POINT('',(0.1799,-0.01095,0.04385));
#1583=CARTESIAN_POINT('',(0.1799,-0.01095,0.03685));
#1584=CARTESIAN_POINT('',(0.1799,-0.01095,0.02985));
#1585=CARTESIAN_POINT('',(0.1779,-0.01095,0.02985));
#1586=CARTESIAN_POINT('',(0.1779,-0.01095,0.02785));
#1587=CARTESIAN_POINT('',(0.2415,-0.01095,0.02785));
#1588=CARTESIAN_POINT('',(0.1035,-0.000444228148567501,0.451764413184263));
#1589=CARTESIAN_POINT('',(0.1717,-0.00044422814856776,0.451764413184263));
#1590=CARTESIAN_POINT('',(0.1717,-0.00044422814856776,0.04725));
#1591=CARTESIAN_POINT('',(0.1717,-0.00044422814856776,0.043584671996666));
#1592=CARTESIAN_POINT('',(0.1035,-0.000444228148567501,0.04725));
#1593=CARTESIAN_POINT('',(0.1043,-0.000444228148567601,0.04725));
#1594=CARTESIAN_POINT('',(0.1043,-0.000444228148567601,0.451764413184263));
#1595=CARTESIAN_POINT('',(0.1043,-0.000444228148567501,0.043584671996666));
#1596=CARTESIAN_POINT('',(0.1035,-0.000444228148567501,0.043584671996666));
#1597=CARTESIAN_POINT('',(0.2415,-0.01175,0.04725));
#1598=CARTESIAN_POINT('',(0.1717,-0.00569711407428403,0.04725));
#1599=CARTESIAN_POINT('',(0.1717,-0.0109500000000003,0.04725));
#1600=CARTESIAN_POINT('',(0.2415,-0.01095,0.04725));
#1601=CARTESIAN_POINT('',(0.1043,-0.0109500000000001,0.04725));
#1602=CARTESIAN_POINT('',(0.1043,-0.00569711407428387,0.04725));
#1603=CARTESIAN_POINT('',(0.2415,-0.01095,0.436029741187597));
#1604=CARTESIAN_POINT('',(0.1717,-0.0109500000000003,0.436029741187597));
#1605=CARTESIAN_POINT('',(0.1717,-0.0109500000000003,0.02785));
#1606=CARTESIAN_POINT('',(0.2415,-0.01095,0.02785));
#1607=CARTESIAN_POINT('',(0.1671,-0.01095,0.02785));
#1608=CARTESIAN_POINT('',(0.1671,-0.01095,0.02985));
#1609=CARTESIAN_POINT('',(0.1651,-0.01095,0.02985));
#1610=CARTESIAN_POINT('',(0.1651,-0.01095,0.03685));
#1611=CARTESIAN_POINT('',(0.1651,-0.01095,0.04385));
#1612=CARTESIAN_POINT('',(0.1631,-0.01095,0.04385));
#1613=CARTESIAN_POINT('',(0.1631,-0.01095,0.04585));
#1614=CARTESIAN_POINT('',(0.138,-0.01095,0.04585));
#1615=CARTESIAN_POINT('',(0.1129,-0.01095,0.04585));
#1616=CARTESIAN_POINT('',(0.1129,-0.01095,0.04385));
#1617=CARTESIAN_POINT('',(0.1109,-0.01095,0.04385));
#1618=CARTESIAN_POINT('',(0.1109,-0.01095,0.03685));
#1619=CARTESIAN_POINT('',(0.1109,-0.01095,0.02985));
#1620=CARTESIAN_POINT('',(0.1089,-0.01095,0.02985));
#1621=CARTESIAN_POINT('',(0.1089,-0.01095,0.02785));
#1622=CARTESIAN_POINT('',(0.2415,-0.01095,0.02785));
#1623=CARTESIAN_POINT('',(0.1043,-0.0109500000000001,0.02785));
#1624=CARTESIAN_POINT('',(0.1043,-0.0109500000000001,0.436029741187597));
#1625=CARTESIAN_POINT('',(0.1035,-0.000444228148567501,0.451764413184263));
#1626=CARTESIAN_POINT('',(0.1027,-0.000444228148567602,0.451764413184263));
#1627=CARTESIAN_POINT('',(0.1027,-0.000444228148567602,0.04725));
#1628=CARTESIAN_POINT('',(0.1027,-0.000444228148567602,0.043584671996666));
#1629=CARTESIAN_POINT('',(0.1035,-0.000444228148567501,0.04725));
#1630=CARTESIAN_POINT('',(0.0353,-0.000444228148567485,0.04725));
#1631=CARTESIAN_POINT('',(0.0353,-0.000444228148567443,0.451764413184263));
#1632=CARTESIAN_POINT('',(0.0353,-0.000444228148567485,0.043584671996666));
#1633=CARTESIAN_POINT('',(0.1035,-0.000444228148567501,0.043584671996666));
#1634=CARTESIAN_POINT('',(0.2415,-0.01135,0.02785));
#1635=CARTESIAN_POINT('',(0.2415,-0.01175,0.02785));
#1636=CARTESIAN_POINT('',(0.2415,-0.01175,0.02785));
#1637=CARTESIAN_POINT('',(0.2361,-0.01175,0.02785));
#1638=CARTESIAN_POINT('',(0.2361,-0.01095,0.02785));
#1639=CARTESIAN_POINT('',(0.2415,-0.01095,0.02785));
#1640=CARTESIAN_POINT('',(0.2415,-0.01095,0.02785));
#1641=CARTESIAN_POINT('',(0.2415,-0.01135,0.02785));
#1642=CARTESIAN_POINT('',(0.2415,-0.01175,-6.4919820931471E-17));
#1643=CARTESIAN_POINT('',(0.2341,-0.01175,-6.34934927401123E-17));
#1644=CARTESIAN_POINT('',(0.2341,-0.01175,0.04385));
#1645=CARTESIAN_POINT('',(0.2341,-0.01175,0.02985));
#1646=CARTESIAN_POINT('',(0.2361,-0.01175,0.02985));
#1647=CARTESIAN_POINT('',(0.2415,-0.01175,-6.4919820931471E-17));
#1648=CARTESIAN_POINT('',(0.2415,-0.01175,0.04845));
#1649=CARTESIAN_POINT('',(0.2415,-0.01175,0.04845));
#1650=CARTESIAN_POINT('',(-0.0345,-0.01175,0.04845));
#1651=CARTESIAN_POINT('',(-0.0345,-0.01175,0.));
#1652=CARTESIAN_POINT('',(-0.0345,-0.01175,0.02785));
#1653=CARTESIAN_POINT('',(0.2415,-0.01175,0.02785));
#1654=CARTESIAN_POINT('',(-0.0291,-0.01175,0.02785));
#1655=CARTESIAN_POINT('',(-0.0291,-0.01175,0.02985));
#1656=CARTESIAN_POINT('',(-0.0271,-0.01175,0.02985));
#1657=CARTESIAN_POINT('',(-0.0271,-0.01175,-1.31479625262076E-17));
#1658=CARTESIAN_POINT('',(-0.0271,-0.01175,0.04385));
#1659=CARTESIAN_POINT('',(-0.0251,-0.01175,0.04385));
#1660=CARTESIAN_POINT('',(-0.0251,-0.01175,0.04585));
#1661=CARTESIAN_POINT('',(0.2415,-0.01175,0.04585));
#1662=CARTESIAN_POINT('',(0.0251,-0.01175,0.04585));
#1663=CARTESIAN_POINT('',(0.0251,-0.01175,0.04385));
#1664=CARTESIAN_POINT('',(0.0271,-0.01175,0.04385));
#1665=CARTESIAN_POINT('',(0.0271,-0.01175,-2.35948527926458E-17));
#1666=CARTESIAN_POINT('',(0.0271,-0.01175,0.02985));
#1667=CARTESIAN_POINT('',(0.0291,-0.01175,0.02985));
#1668=CARTESIAN_POINT('',(0.0291,-0.01175,0.02785));
#1669=CARTESIAN_POINT('',(0.2415,-0.01175,0.02785));
#1670=CARTESIAN_POINT('',(0.0399,-0.01175,0.02785));
#1671=CARTESIAN_POINT('',(0.0399,-0.01175,0.02985));
#1672=CARTESIAN_POINT('',(0.0419,-0.01175,0.02985));
#1673=CARTESIAN_POINT('',(0.0419,-0.01175,-2.64475091753632E-17));
#1674=CARTESIAN_POINT('',(0.0419,-0.01175,0.04385));
#1675=CARTESIAN_POINT('',(0.0439,-0.01175,0.04385));
#1676=CARTESIAN_POINT('',(0.0439,-0.01175,0.04585));
#1677=CARTESIAN_POINT('',(0.2415,-0.01175,0.04585));
#1678=CARTESIAN_POINT('',(0.0941,-0.01175,0.04585));
#1679=CARTESIAN_POINT('',(0.0941,-0.01175,0.04385));
#1680=CARTESIAN_POINT('',(0.0961,-0.01175,0.04385));
#1681=CARTESIAN_POINT('',(0.0961,-0.01175,-3.68943994418013E-17));
#1682=CARTESIAN_POINT('',(0.0961,-0.01175,0.02985));
#1683=CARTESIAN_POINT('',(0.0981,-0.01175,0.02985));
#1684=CARTESIAN_POINT('',(0.0981,-0.01175,0.02785));
#1685=CARTESIAN_POINT('',(0.2415,-0.01175,0.02785));
#1686=CARTESIAN_POINT('',(0.1089,-0.01175,0.02785));
#1687=CARTESIAN_POINT('',(0.1089,-0.01175,0.02985));
#1688=CARTESIAN_POINT('',(0.1109,-0.01175,0.02985));
#1689=CARTESIAN_POINT('',(0.1109,-0.01175,-3.97470558245187E-17));
#1690=CARTESIAN_POINT('',(0.1109,-0.01175,0.04385));
#1691=CARTESIAN_POINT('',(0.1129,-0.01175,0.04385));
#1692=CARTESIAN_POINT('',(0.1129,-0.01175,0.04585));
#1693=CARTESIAN_POINT('',(0.2415,-0.01175,0.04585));
#1694=CARTESIAN_POINT('',(0.1631,-0.01175,0.04585));
#1695=CARTESIAN_POINT('',(0.1631,-0.01175,0.04385));
#1696=CARTESIAN_POINT('',(0.1651,-0.01175,0.04385));
#1697=CARTESIAN_POINT('',(0.1651,-0.01175,-5.01939460909568E-17));
#1698=CARTESIAN_POINT('',(0.1651,-0.01175,0.02985));
#1699=CARTESIAN_POINT('',(0.1671,-0.01175,0.02985));
#1700=CARTESIAN_POINT('',(0.1671,-0.01175,0.02785));
#1701=CARTESIAN_POINT('',(0.2415,-0.01175,0.02785));
#1702=CARTESIAN_POINT('',(0.1779,-0.01175,0.02785));
#1703=CARTESIAN_POINT('',(0.1779,-0.01175,0.02985));
#1704=CARTESIAN_POINT('',(0.1799,-0.01175,0.02985));
#1705=CARTESIAN_POINT('',(0.1799,-0.01175,-5.30466024736742E-17));
#1706=CARTESIAN_POINT('',(0.1799,-0.01175,0.04385));
#1707=CARTESIAN_POINT('',(0.1819,-0.01175,0.04385));
#1708=CARTESIAN_POINT('',(0.1819,-0.01175,0.04585));
#1709=CARTESIAN_POINT('',(0.2415,-0.01175,0.04585));
#1710=CARTESIAN_POINT('',(0.2321,-0.01175,0.04585));
#1711=CARTESIAN_POINT('',(0.2321,-0.01175,0.04385));
#1712=CARTESIAN_POINT('',(0.2415,-0.01135,0.02785));
#1713=CARTESIAN_POINT('',(0.1779,-0.01135,0.02785));
#1714=CARTESIAN_POINT('',(0.1671,-0.01095,0.02785));
#1715=CARTESIAN_POINT('',(0.1733,-0.0109500000000003,0.02785));
#1716=CARTESIAN_POINT('',(0.2415,-0.01135,0.02785));
#1717=CARTESIAN_POINT('',(0.1089,-0.01135,0.02785));
#1718=CARTESIAN_POINT('',(0.0981,-0.01095,0.02785));
#1719=CARTESIAN_POINT('',(0.0981,-0.01095,0.02785));
#1720=CARTESIAN_POINT('',(0.2415,-0.01095,0.02785));
#1721=CARTESIAN_POINT('',(0.1027,-0.0109500000000001,0.02785));
#1722=CARTESIAN_POINT('',(0.1043,-0.0109500000000001,0.02785));
#1723=CARTESIAN_POINT('',(0.2415,-0.01135,0.02785));
#1724=CARTESIAN_POINT('',(0.2415,-0.01095,0.02785));
#1725=CARTESIAN_POINT('',(0.0399,-0.01095,0.02785));
#1726=CARTESIAN_POINT('',(0.0353,-0.01095,0.02785));
#1727=CARTESIAN_POINT('',(0.0399,-0.01135,0.02785));
#1728=CARTESIAN_POINT('',(0.0291,-0.01095,0.02785));
#1729=CARTESIAN_POINT('',(0.0291,-0.01095,0.02785));
#1730=CARTESIAN_POINT('',(0.2415,-0.01095,0.02785));
#1731=CARTESIAN_POINT('',(0.0337,-0.01095,0.02785));
#1732=CARTESIAN_POINT('',(0.0353,-0.01095,0.02785));
#1733=CARTESIAN_POINT('',(0.2415,-0.01175,0.04725));
#1734=CARTESIAN_POINT('',(0.1027,-0.00569711407428387,0.04725));
#1735=CARTESIAN_POINT('',(0.1027,-0.0109500000000001,0.04725));
#1736=CARTESIAN_POINT('',(0.2415,-0.01095,0.04725));
#1737=CARTESIAN_POINT('',(0.0353,-0.01095,0.04725));
#1738=CARTESIAN_POINT('',(0.0353,-0.00569711407428371,0.04725));
#1739=CARTESIAN_POINT('',(0.1035,-0.000444228148567501,0.451764413184263));
#1740=CARTESIAN_POINT('',(0.0337,-0.000444228148567444,0.451764413184263));
#1741=CARTESIAN_POINT('',(0.0337,-0.000444228148567485,0.04725));
#1742=CARTESIAN_POINT('',(0.0337,-0.000444228148567485,0.043584671996666));
#1743=CARTESIAN_POINT('',(0.1035,-0.000444228148567501,0.04725));
#1744=CARTESIAN_POINT('',(-0.0331,-0.000444228148567467,0.04725));
#1745=CARTESIAN_POINT('',(-0.0331,-0.000444228148567467,0.451764413184263));
#1746=CARTESIAN_POINT('',(-0.0331,-0.000444228148567467,0.0435846719966661));
#1747=CARTESIAN_POINT('',(0.1035,-0.000444228148567501,0.043584671996666));
#1748=CARTESIAN_POINT('',(0.2415,-0.01095,0.436029741187597));
#1749=CARTESIAN_POINT('',(0.1027,-0.0109500000000001,0.436029741187597));
#1750=CARTESIAN_POINT('',(0.0981,-0.01095,0.02985));
#1751=CARTESIAN_POINT('',(0.0961,-0.01095,0.02985));
#1752=CARTESIAN_POINT('',(0.0961,-0.01095,0.03685));
#1753=CARTESIAN_POINT('',(0.0961,-0.01095,0.04385));
#1754=CARTESIAN_POINT('',(0.0941,-0.01095,0.04385));
#1755=CARTESIAN_POINT('',(0.0941,-0.01095,0.04585));
#1756=CARTESIAN_POINT('',(0.069,-0.01095,0.04585));
#1757=CARTESIAN_POINT('',(0.0439,-0.01095,0.04585));
#1758=CARTESIAN_POINT('',(0.0439,-0.01095,0.04385));
#1759=CARTESIAN_POINT('',(0.0419,-0.01095,0.04385));
#1760=CARTESIAN_POINT('',(0.0419,-0.01095,0.03685));
#1761=CARTESIAN_POINT('',(0.0419,-0.01095,0.02985));
#1762=CARTESIAN_POINT('',(0.0399,-0.01095,0.02985));
#1763=CARTESIAN_POINT('',(0.0353,-0.01095,0.436029741187597));
#1764=CARTESIAN_POINT('',(0.2415,-0.005475,0.03605));
#1765=CARTESIAN_POINT('',(-0.0331,-0.00569711407428374,0.0357173359983331));
#1766=CARTESIAN_POINT('',(-0.0331,-0.01095,0.02785));
#1767=CARTESIAN_POINT('',(0.2415,-0.01095,0.02785));
#1768=CARTESIAN_POINT('',(-0.0345,-0.01095,0.02785));
#1769=CARTESIAN_POINT('',(-0.0345,-0.005475,0.03605));
#1770=CARTESIAN_POINT('',(-0.0345,0.,0.04425));
#1771=CARTESIAN_POINT('',(0.2415,0.,0.04425));
#1772=CARTESIAN_POINT('',(0.2415,0.,0.04425));
#1773=CARTESIAN_POINT('',(0.2415,-0.005475,0.03605));
#1774=CARTESIAN_POINT('',(0.2401,-0.00569711407428377,0.035717335998333));
#1775=CARTESIAN_POINT('',(0.2401,-0.000444228148567531,0.0435846719966659));
#1776=CARTESIAN_POINT('',(0.1035,-0.000444228148567501,0.043584671996666));
#1777=CARTESIAN_POINT('',(0.1733,-0.000444228148567518,0.0435846719966659));
#1778=CARTESIAN_POINT('',(0.1733,-0.00569711407428403,0.035717335998333));
#1779=CARTESIAN_POINT('',(0.1717,-0.00569711407428403,0.035717335998333));
#1780=CARTESIAN_POINT('',(0.1043,-0.00569711407428387,0.035717335998333));
#1781=CARTESIAN_POINT('',(0.1027,-0.00569711407428387,0.035717335998333));
#1782=CARTESIAN_POINT('',(0.0353,-0.00569711407428371,0.0357173359983331));
#1783=CARTESIAN_POINT('',(0.0337,-0.00569711407428371,0.0357173359983331));
#1784=CARTESIAN_POINT('',(0.2415,-0.01135,0.02785));
#1785=CARTESIAN_POINT('',(0.2415,-0.01095,0.02785));
#1786=CARTESIAN_POINT('',(-0.0291,-0.01095,0.02785));
#1787=CARTESIAN_POINT('',(-0.0291,-0.01135,0.02785));
#1788=CARTESIAN_POINT('',(-0.0345,-0.01135,0.02785));
#1789=CARTESIAN_POINT('',(0.2415,-0.005875,-0.000500000000000057));
#1790=CARTESIAN_POINT('',(0.2415,0.,0.04845));
#1791=CARTESIAN_POINT('',(0.2415,0.,0.04845));
#1792=CARTESIAN_POINT('',(0.2415,-0.01175,0.04845));
#1793=CARTESIAN_POINT('',(-0.0345,-0.005875,-0.000499999999999992));
#1794=CARTESIAN_POINT('',(-0.0345,-0.01175,0.04845));
#1795=CARTESIAN_POINT('',(-0.0345,0.,0.04845));
#1796=CARTESIAN_POINT('',(-0.0345,0.,0.04845));
#1797=CARTESIAN_POINT('',(0.2415,0.,0.04845));
#1798=CARTESIAN_POINT('',(0.2415,0.,0.04845));
#1799=CARTESIAN_POINT('',(0.2415,-0.01175,0.04845));
#1800=CARTESIAN_POINT('',(0.1035,-0.000444228148567501,0.451764413184263));
#1801=CARTESIAN_POINT('',(0.1733,-0.000444228148567759,0.451764413184263));
#1802=CARTESIAN_POINT('',(0.2401,-0.000444228148567531,0.451764413184263));
#1803=CARTESIAN_POINT('',(-0.0331,-0.00569711407428374,0.44389707718593));
#1804=CARTESIAN_POINT('',(-0.0331,-0.00569711407428374,0.04725));
#1805=CARTESIAN_POINT('',(-0.0331,-0.01095,0.04725));
#1806=CARTESIAN_POINT('',(-0.0331,-0.01095,0.436029741187597));
#1807=CARTESIAN_POINT('',(0.2401,-0.00569711407428377,0.44389707718593));
#1808=CARTESIAN_POINT('',(0.2415,-0.01095,0.436029741187597));
#1809=CARTESIAN_POINT('',(0.0291,-0.01095,0.02985));
#1810=CARTESIAN_POINT('',(0.0271,-0.01095,0.02985));
#1811=CARTESIAN_POINT('',(0.0271,-0.01095,0.03685));
#1812=CARTESIAN_POINT('',(0.0271,-0.01095,0.04385));
#1813=CARTESIAN_POINT('',(0.0251,-0.01095,0.04385));
#1814=CARTESIAN_POINT('',(0.0251,-0.01095,0.04585));
#1815=CARTESIAN_POINT('',(4.16333634234433E-17,-0.01095,0.04585));
#1816=CARTESIAN_POINT('',(-0.0251,-0.01095,0.04585));
#1817=CARTESIAN_POINT('',(-0.0251,-0.01095,0.04385));
#1818=CARTESIAN_POINT('',(-0.0271,-0.01095,0.04385));
#1819=CARTESIAN_POINT('',(-0.0271,-0.01095,0.03685));
#1820=CARTESIAN_POINT('',(-0.0271,-0.01095,0.02985));
#1821=CARTESIAN_POINT('',(-0.0291,-0.01095,0.02985));
#1822=CARTESIAN_POINT('',(0.2415,-0.01095,0.04725));
#1823=CARTESIAN_POINT('',(0.0337,-0.01095,0.04725));
#1824=CARTESIAN_POINT('',(0.0337,-0.01095,0.436029741187597));
#1825=CARTESIAN_POINT('',(0.2415,-0.01175,0.04725));
#1826=CARTESIAN_POINT('',(0.0337,-0.00569711407428371,0.04725));
#1827=CARTESIAN_POINT('',(0.0353,-0.00569711407428371,0.03755));
#1828=CARTESIAN_POINT('',(0.0337,-0.00569711407428371,0.03755));
#1829=CARTESIAN_POINT('',(-0.0271,-0.03595,0.03685));
#1830=CARTESIAN_POINT('',(-0.0271,-0.03595,0.02985));
#1831=CARTESIAN_POINT('',(-0.0271,-0.03595,0.04385));
#1832=CARTESIAN_POINT('',(0.0271,-0.03595,0.03685));
#1833=CARTESIAN_POINT('',(0.0271,-0.01175,0.02985));
#1834=CARTESIAN_POINT('',(0.0271,-0.01095,0.04385));
#1835=CARTESIAN_POINT('',(4.16333634234433E-17,-0.03595,0.04585));
#1836=CARTESIAN_POINT('',(0.0251,-0.01175,0.04585));
#1837=CARTESIAN_POINT('',(-0.0251,-0.03595,0.04585));
#1838=CARTESIAN_POINT('',(0.0291,-0.01135,0.02985));
#1839=CARTESIAN_POINT('',(-0.0291,-0.03595,0.02985));
#1840=CARTESIAN_POINT('',(0.0251,-0.03595,0.04385));
#1841=CARTESIAN_POINT('',(-0.0251,-0.03595,0.04385));
#1842=CARTESIAN_POINT('',(0.0419,-0.03595,0.03685));
#1843=CARTESIAN_POINT('',(0.0419,-0.03595,0.02985));
#1844=CARTESIAN_POINT('',(0.0419,-0.03595,0.04385));
#1845=CARTESIAN_POINT('',(0.0961,-0.03595,0.03685));
#1846=CARTESIAN_POINT('',(0.0961,-0.01175,0.02985));
#1847=CARTESIAN_POINT('',(0.0961,-0.01095,0.04385));
#1848=CARTESIAN_POINT('',(0.069,-0.03595,0.04585));
#1849=CARTESIAN_POINT('',(0.0941,-0.01175,0.04585));
#1850=CARTESIAN_POINT('',(0.0439,-0.03595,0.04585));
#1851=CARTESIAN_POINT('',(0.0981,-0.01135,0.02985));
#1852=CARTESIAN_POINT('',(0.0399,-0.03595,0.02985));
#1853=CARTESIAN_POINT('',(0.0941,-0.03595,0.04385));
#1854=CARTESIAN_POINT('',(0.0439,-0.03595,0.04385));
#1855=CARTESIAN_POINT('',(0.1109,-0.03595,0.03685));
#1856=CARTESIAN_POINT('',(0.1109,-0.03595,0.02985));
#1857=CARTESIAN_POINT('',(0.1109,-0.03595,0.04385));
#1858=CARTESIAN_POINT('',(0.1651,-0.03595,0.03685));
#1859=CARTESIAN_POINT('',(0.1651,-0.01175,0.02985));
#1860=CARTESIAN_POINT('',(0.1651,-0.01095,0.04385));
#1861=CARTESIAN_POINT('',(0.138,-0.03595,0.04585));
#1862=CARTESIAN_POINT('',(0.1631,-0.01175,0.04585));
#1863=CARTESIAN_POINT('',(0.1129,-0.03595,0.04585));
#1864=CARTESIAN_POINT('',(0.1671,-0.01135,0.02985));
#1865=CARTESIAN_POINT('',(0.1089,-0.03595,0.02985));
#1866=CARTESIAN_POINT('',(0.1631,-0.03595,0.04385));
#1867=CARTESIAN_POINT('',(0.1129,-0.03595,0.04385));
#1868=CARTESIAN_POINT('',(0.1799,-0.03595,0.03685));
#1869=CARTESIAN_POINT('',(0.1799,-0.03595,0.02985));
#1870=CARTESIAN_POINT('',(0.1799,-0.03595,0.04385));
#1871=CARTESIAN_POINT('',(0.2341,-0.03595,0.03685));
#1872=CARTESIAN_POINT('',(0.2341,-0.01175,0.02985));
#1873=CARTESIAN_POINT('',(0.2341,-0.01095,0.04385));
#1874=CARTESIAN_POINT('',(0.207,-0.03595,0.04585));
#1875=CARTESIAN_POINT('',(0.2321,-0.01175,0.04585));
#1876=CARTESIAN_POINT('',(0.1819,-0.03595,0.04585));
#1877=CARTESIAN_POINT('',(0.2361,-0.01135,0.02985));
#1878=CARTESIAN_POINT('',(0.1779,-0.03595,0.02985));
#1879=CARTESIAN_POINT('',(0.2321,-0.03595,0.04385));
#1880=CARTESIAN_POINT('',(0.1819,-0.03595,0.04385));
#1881=CARTESIAN_POINT('',(0.1043,-0.00569711407428387,0.03755));
#1882=CARTESIAN_POINT('',(0.1027,-0.00569711407428387,0.03755));
#1883=CARTESIAN_POINT('',(0.1733,-0.00569711407428402,0.03755));
#1884=CARTESIAN_POINT('',(0.1717,-0.00569711407428403,0.03755));
#1885=MECHANICAL_DESIGN_GEOMETRIC_PRESENTATION_REPRESENTATION('',(#1138),
#1886);
#1886=(
GEOMETRIC_REPRESENTATION_CONTEXT(3)
GLOBAL_UNCERTAINTY_ASSIGNED_CONTEXT((#1887))
GLOBAL_UNIT_ASSIGNED_CONTEXT((#1890,#1889,#1888))
REPRESENTATION_CONTEXT('Topper','TOP_LEVEL_ASSEMBLY_PART')
);
#1887=UNCERTAINTY_MEASURE_WITH_UNIT(LENGTH_MEASURE(1.E-8),#1890,
'DISTANCE_ACCURACY_VALUE','Maximum Tolerance applied to model');
#1888=(
NAMED_UNIT(*)
SI_UNIT($,.STERADIAN.)
SOLID_ANGLE_UNIT()
);
#1889=(
NAMED_UNIT(*)
PLANE_ANGLE_UNIT()
SI_UNIT($,.RADIAN.)
);
#1890=(
LENGTH_UNIT()
NAMED_UNIT(*)
SI_UNIT($,.METRE.)
);
#1891=PRODUCT_DEFINITION_SHAPE('','',#1892);
#1892=PRODUCT_DEFINITION('','',#1894,#1893);
#1893=PRODUCT_DEFINITION_CONTEXT('',#1900,'design');
#1894=PRODUCT_DEFINITION_FORMATION_WITH_SPECIFIED_SOURCE('','',#1896,
 .NOT_KNOWN.);
#1895=PRODUCT_RELATED_PRODUCT_CATEGORY('','',(#1896));
#1896=PRODUCT('Topper','Topper','Topper',(#1898));
#1897=PRODUCT_CATEGORY('','');
#1898=PRODUCT_CONTEXT('',#1900,'mechanical');
#1899=APPLICATION_PROTOCOL_DEFINITION('international standard',
'ap242_managed_model_based_3d_engineering',2020,#1900);
#1900=APPLICATION_CONTEXT('managed model based 3d engineering');
ENDSEC;
END-ISO-10303-21;
