  0
SECTION
  2
HEADER
  9
$ACADVER
  1
AC1027
  9
$ACADMAINTVER
 70
105
  9
$DWGCODEPAGE
  3
ANSI_1252
  9
$LASTSAVEDBY
  1
ezdxf
  9
$REQUIREDVERSIONS
160
0
  9
$INSBASE
 10
0.0
 20
0.0
 30
0.0
  9
$EXTMIN
 10
1e+20
 20
1e+20
 30
1e+20
  9
$EXTMAX
 10
-1e+20
 20
-1e+20
 30
-1e+20
  9
$LIMMIN
 10
0.0
 20
0.0
  9
$LIMMAX
 10
420.0
 20
297.0
  9
$ORTHOMODE
 70
0
  9
$REGENMODE
 70
1
  9
$FILLMODE
 70
1
  9
$QTEXTMODE
 70
0
  9
$MIRRTEXT
 70
1
  9
$LTSCALE
 40
1.0
  9
$ATTMODE
 70
1
  9
$TEXTSIZE
 40
2.5
  9
$TRACEWID
 40
1.0
  9
$TEXTSTYLE
  7
Standard
  9
$CLAYER
  8
0
  9
$CELTYPE
  6
ByLayer
  9
$CECOLOR
 62
256
  9
$CELTSCALE
 40
1.0
  9
$DISPSILH
 70
0
  9
$DIMSCALE
 40
1.0
  9
$DIMASZ
 40
2.5
  9
$DIMEXO
 40
0.625
  9
$DIMDLI
 40
3.75
  9
$DIMRND
 40
0.0
  9
$DIMDLE
 40
0.0
  9
$DIMEXE
 40
1.25
  9
$DIMTP
 40
0.0
  9
$DIMTM
 40
0.0
  9
$DIMTXT
 40
2.5
  9
$DIMCEN
 40
2.5
  9
$DIMTSZ
 40
0.0
  9
$DIMTOL
 70
0
  9
$DIMLIM
 70
0
  9
$DIMTIH
 70
0
  9
$DIMTOH
 70
0
  9
$DIMSE1
 70
0
  9
$DIMSE2
 70
0
  9
$DIMTAD
 70
1
  9
$DIMZIN
 70
8
  9
$DIMBLK
  1

  9
$DIMASO
 70
1
  9
$DIMSHO
 70
1
  9
$DIMPOST
  1

  9
$DIMAPOST
  1

  9
$DIMALT
 70
0
  9
$DIMALTD
 70
3
  9
$DIMALTF
 40
0.03937007874
  9
$DIMLFAC
 40
1.0
  9
$DIMTOFL
 70
1
  9
$DIMTVP
 40
0.0
  9
$DIMTIX
 70
0
  9
$DIMSOXD
 70
0
  9
$DIMSAH
 70
0
  9
$DIMBLK1
  1

  9
$DIMBLK2
  1

  9
$DIMSTYLE
  2
ISO-25
  9
$DIMCLRD
 70
0
  9
$DIMCLRE
 70
0
  9
$DIMCLRT
 70
0
  9
$DIMTFAC
 40
1.0
  9
$DIMGAP
 40
0.625
  9
$DIMJUST
 70
0
  9
$DIMSD1
 70
0
  9
$DIMSD2
 70
0
  9
$DIMTOLJ
 70
0
  9
$DIMTZIN
 70
8
  9
$DIMALTZ
 70
0
  9
$DIMALTTZ
 70
0
  9
$DIMUPT
 70
0
  9
$DIMDEC
 70
2
  9
$DIMTDEC
 70
2
  9
$DIMALTU
 70
2
  9
$DIMALTTD
 70
3
  9
$DIMTXSTY
  7
Standard
  9
$DIMAUNIT
 70
0
  9
$DIMADEC
 70
0
  9
$DIMALTRND
 40
0.0
  9
$DIMAZIN
 70
0
  9
$DIMDSEP
 70
44
  9
$DIMATFIT
 70
3
  9
$DIMFRAC
 70
0
  9
$DIMLDRBLK
  1

  9
$DIMLUNIT
 70
2
  9
$DIMLWD
 70
-2
  9
$DIMLWE
 70
-2
  9
$DIMTMOVE
 70
0
  9
$DIMFXL
 40
1.0
  9
$DIMFXLON
 70
0
  9
$DIMJOGANG
 40
0.785398163397
  9
$DIMTFILL
 70
0
  9
$DIMTFILLCLR
 70
0
  9
$DIMARCSYM
 70
0
  9
$DIMLTYPE
  6

  9
$DIMLTEX1
  6

  9
$DIMLTEX2
  6

  9
$DIMTXTDIRECTION
 70
0
  9
$LUNITS
 70
2
  9
$LUPREC
 70
4
  9
$SKETCHINC
 40
1.0
  9
$FILLETRAD
 40
10.0
  9
$AUNITS
 70
0
  9
$AUPREC
 70
2
  9
$MENU
  1
.
  9
$ELEVATION
 40
0.0
  9
$PELEVATION
 40
0.0
  9
$THICKNESS
 40
0.0
  9
$LIMCHECK
 70
0
  9
$CHAMFERA
 40
0.0
  9
$CHAMFERB
 40
0.0
  9
$CHAMFERC
 40
0.0
  9
$CHAMFERD
 40
0.0
  9
$SKPOLY
 70
0
  9
$TDCREATE
 40
2461267.9482291667
  9
$TDUCREATE
 40
2458532.153996898
  9
$TDUPDATE
 40
2461267.9482291667
  9
$TDUUPDATE
 40
2458532.1544311
  9
$TDINDWG
 40
0.0
  9
$TDUSRTIMER
 40
0.0
  9
$USRTIMER
 70
1
  9
$ANGBASE
 50
0.0
  9
$ANGDIR
 70
0
  9
$PDMODE
 70
0
  9
$PDSIZE
 40
0.0
  9
$PLINEWID
 40
0.0
  9
$SPLFRAME
 70
0
  9
$SPLINETYPE
 70
6
  9
$SPLINESEGS
 70
8
  9
$HANDSEED
  5
4C
  9
$SURFTAB1
 70
6
  9
$SURFTAB2
 70
6
  9
$SURFTYPE
 70
6
  9
$SURFU
 70
6
  9
$SURFV
 70
6
  9
$UCSBASE
  2

  9
$UCSNAME
  2

  9
$UCSORG
 10
0.0
 20
0.0
 30
0.0
  9
$UCSXDIR
 10
1.0
 20
0.0
 30
0.0
  9
$UCSYDIR
 10
0.0
 20
1.0
 30
0.0
  9
$UCSORTHOREF
  2

  9
$UCSORTHOVIEW
 70
0
  9
$UCSORGTOP
 10
0.0
 20
0.0
 30
0.0
  9
$UCSORGBOTTOM
 10
0.0
 20
0.0
 30
0.0
  9
$UCSORGLEFT
 10
0.0
 20
0.0
 30
0.0
  9
$UCSORGRIGHT
 10
0.0
 20
0.0
 30
0.0
  9
$UCSORGFRONT
 10
0.0
 20
0.0
 30
0.0
  9
$UCSORGBACK
 10
0.0
 20
0.0
 30
0.0
  9
$PUCSBASE
  2

  9
$PUCSNAME
  2

  9
$PUCSORG
 10
0.0
 20
0.0
 30
0.0
  9
$PUCSXDIR
 10
1.0
 20
0.0
 30
0.0
  9
$PUCSYDIR
 10
0.0
 20
1.0
 30
0.0
  9
$PUCSORTHOREF
  2

  9
$PUCSORTHOVIEW
 70
0
  9
$PUCSORGTOP
 10
0.0
 20
0.0
 30
0.0
  9
$PUCSORGBOTTOM
 10
0.0
 20
0.0
 30
0.0
  9
$PUCSORGLEFT
 10
0.0
 20
0.0
 30
0.0
  9
$PUCSORGRIGHT
 10
0.0
 20
0.0
 30
0.0
  9
$PUCSORGFRONT
 10
0.0
 20
0.0
 30
0.0
  9
$PUCSORGBACK
 10
0.0
 20
0.0
 30
0.0
  9
$USERI1
 70
0
  9
$USERI2
 70
0
  9
$USERI3
 70
0
  9
$USERI4
 70
0
  9
$USERI5
 70
0
  9
$USERR1
 40
0.0
  9
$USERR2
 40
0.0
  9
$USERR3
 40
0.0
  9
$USERR4
 40
0.0
  9
$USERR5
 40
0.0
  9
$WORLDVIEW
 70
1
  9
$SHADEDGE
 70
3
  9
$SHADEDIF
 70
70
  9
$TILEMODE
 70
1
  9
$MAXACTVP
 70
64
  9
$PINSBASE
 10
0.0
 20
0.0
 30
0.0
  9
$PLIMCHECK
 70
0
  9
$PEXTMIN
 10
1e+20
 20
1e+20
 30
1e+20
  9
$PEXTMAX
 10
-1e+20
 20
-1e+20
 30
-1e+20
  9
$PLIMMIN
 10
0.0
 20
0.0
  9
$PLIMMAX
 10
420.0
 20
297.0
  9
$UNITMODE
 70
0
  9
$VISRETAIN
 70
1
  9
$PLINEGEN
 70
0
  9
$PSLTSCALE
 70
1
  9
$TREEDEPTH
 70
3020
  9
$CMLSTYLE
  2
Standard
  9
$CMLJUST
 70
0
  9
$CMLSCALE
 40
20.0
  9
$PROXYGRAPHICS
 70
1
  9
$MEASUREMENT
 70
1
  9
$CELWEIGHT
370
-1
  9
$ENDCAPS
280
0
  9
$JOINSTYLE
280
0
  9
$LWDISPLAY
290
0
  9
$INSUNITS
 70
6
  9
$HYPERLINKBASE
  1

  9
$STYLESHEET
  1

  9
$XEDIT
290
1
  9
$CEPSNTYPE
380
0
  9
$PSTYLEMODE
290
1
  9
$FINGERPRINTGUID
  2
{F5C0B0FB-3797-4A56-9CD3-C458ABE4917B}
  9
$VERSIONGUID
  2
{AD73BFF4-8EC5-449B-A1B4-D00FFCB6655C}
  9
$EXTNAMES
290
1
  9
$PSVPSCALE
 40
0.0
  9
$OLESTARTUP
290
0
  9
$SORTENTS
280
127
  9
$INDEXCTL
280
0
  9
$HIDETEXT
280
1
  9
$XCLIPFRAME
280
1
  9
$HALOGAP
280
0
  9
$OBSCOLOR
 70
257
  9
$OBSLTYPE
280
0
  9
$INTERSECTIONDISPLAY
280
0
  9
$INTERSECTIONCOLOR
 70
257
  9
$DIMASSOC
280
2
  9
$PROJECTNAME
  1

  9
$CAMERADISPLAY
290
0
  9
$LENSLENGTH
 40
50.0
  9
$CAMERAHEIGHT
 40
0.0
  9
$STEPSPERSEC
 40
24.0
  9
$STEPSIZE
 40
100.0
  9
$3DDWFPREC
 40
2.0
  9
$PSOLWIDTH
 40
0.005
  9
$PSOLHEIGHT
 40
0.08
  9
$LOFTANG1
 40
1.570796326795
  9
$LOFTANG2
 40
1.570796326795
  9
$LOFTMAG1
 40
0.0
  9
$LOFTMAG2
 40
0.0
  9
$LOFTPARAM
 70
7
  9
$LOFTNORMALS
280
1
  9
$LATITUDE
 40
37.795
  9
$LONGITUDE
 40
-122.394
  9
$NORTHDIRECTION
 40
0.0
  9
$TIMEZONE
 70
-8000
  9
$LIGHTGLYPHDISPLAY
280
1
  9
$TILEMODELIGHTSYNCH
280
1
  9
$CMATERIAL
347
20
  9
$SOLIDHIST
280
0
  9
$SHOWHIST
280
1
  9
$DWFFRAME
280
2
  9
$DGNFRAME
280
2
  9
$REALWORLDSCALE
290
1
  9
$INTERFERECOLOR
 62
256
  9
$CSHADOW
280
0
  9
$SHADOWPLANELOCATION
 40
0.0
  0
ENDSEC
  0
SECTION
  2
CLASSES
  0
CLASS
  1
ACDBDICTIONARYWDFLT
  2
AcDbDictionaryWithDefault
  3
ObjectDBX Classes
 90
0
 91
0
280
0
281
0
  0
CLASS
  1
SUN
  2
AcDbSun
  3
SCENEOE
 90
1153
 91
0
280
0
281
0
  0
CLASS
  1
VISUALSTYLE
  2
AcDbVisualStyle
  3
ObjectDBX Classes
 90
4095
 91
0
280
0
281
0
  0
CLASS
  1
MATERIAL
  2
AcDbMaterial
  3
ObjectDBX Classes
 90
1153
 91
0
280
0
281
0
  0
CLASS
  1
SCALE
  2
AcDbScale
  3
ObjectDBX Classes
 90
1153
 91
0
280
0
281
0
  0
CLASS
  1
TABLESTYLE
  2
AcDbTableStyle
  3
ObjectDBX Classes
 90
4095
 91
0
280
0
281
0
  0
CLASS
  1
MLEADERSTYLE
  2
AcDbMLeaderStyle
  3
ACDB_MLEADERSTYLE_CLASS
 90
4095
 91
0
280
0
281
0
  0
CLASS
  1
DICTIONARYVAR
  2
AcDbDictionaryVar
  3
ObjectDBX Classes
 90
0
 91
0
280
0
281
0
  0
CLASS
  1
CELLSTYLEMAP
  2
AcDbCellStyleMap
  3
ObjectDBX Classes
 90
1152
 91
0
280
0
281
0
  0
CLASS
  1
MENTALRAYRENDERSETTINGS
  2
AcDbMentalRayRenderSettings
  3
SCENEOE
 90
1024
 91
0
280
0
281
0
  0
CLASS
  1
ACDBDETAILVIEWSTYLE
  2
AcDbDetailViewStyle
  3
ObjectDBX Classes
 90
1025
 91
0
280
0
281
0
  0
CLASS
  1
ACDBSECTIONVIEWSTYLE
  2
AcDbSectionViewStyle
  3
ObjectDBX Classes
 90
1025
 91
0
280
0
281
0
  0
CLASS
  1
RASTERVARIABLES
  2
AcDbRasterVariables
  3
ISM
 90
0
 91
0
280
0
281
0
  0
CLASS
  1
ACDBPLACEHOLDER
  2
AcDbPlaceHolder
  3
ObjectDBX Classes
 90
0
 91
0
280
0
281
0
  0
CLASS
  1
LAYOUT
  2
AcDbLayout
  3
ObjectDBX Classes
 90
0
 91
0
280
0
281
0
  0
ENDSEC
  0
SECTION
  2
TABLES
  0
TABLE
  2
VPORT
  5
8
330
0
100
AcDbSymbolTable
 70
1
  0
VPORT
  5
23
330
8
100
AcDbSymbolTableRecord
100
AcDbViewportTableRecord
  2
*Active
 70
0
 10
0.0
 20
0.0
 11
1.0
 21
1.0
 12
0.0
 22
0.0
 13
0.0
 23
0.0
 14
0.5
 24
0.5
 15
0.5
 25
0.5
 16
0.0
 26
0.0
 36
1.0
 17
0.0
 27
0.0
 37
0.0
 40
1000.0
 41
1.34
 42
50.0
 43
0.0
 44
0.0
 50
0.0
 51
0.0
 71
0
 72
1000
 73
1
 74
3
 75
0
 76
0
 77
0
 78
0
281
0
 65
0
146
0.0
  0
ENDTAB
  0
TABLE
  2
LTYPE
  5
2
330
0
100
AcDbSymbolTable
 70
3
  0
LTYPE
  5
24
330
2
100
AcDbSymbolTableRecord
100
AcDbLinetypeTableRecord
  2
ByBlock
 70
0
  3

 72
65
 73
0
 40
0.0
  0
LTYPE
  5
25
330
2
100
AcDbSymbolTableRecord
100
AcDbLinetypeTableRecord
  2
ByLayer
 70
0
  3

 72
65
 73
0
 40
0.0
  0
LTYPE
  5
26
330
2
100
AcDbSymbolTableRecord
100
AcDbLinetypeTableRecord
  2
Continuous
 70
0
  3

 72
65
 73
0
 40
0.0
  0
ENDTAB
  0
TABLE
  2
LAYER
  5
1
330
0
100
AcDbSymbolTable
 70
2
  0
LAYER
  5
27
330
1
100
AcDbSymbolTableRecord
100
AcDbLayerTableRecord
  2
0
 70
0
 62
7
  6
Continuous
370
-3
390
13
347
21
  0
LAYER
  5
28
330
1
100
AcDbSymbolTableRecord
100
AcDbLayerTableRecord
  2
Defpoints
 70
0
 62
7
  6
Continuous
290
0
370
-3
390
13
347
21
  0
ENDTAB
  0
TABLE
  2
STYLE
  5
5
330
0
100
AcDbSymbolTable
 70
1
  0
STYLE
  5
29
330
5
100
AcDbSymbolTableRecord
100
AcDbTextStyleTableRecord
  2
Standard
 70
0
 40
0.0
 41
1.0
 50
0.0
 71
0
 42
2.5
  3
txt
  4

  0
ENDTAB
  0
TABLE
  2
VIEW
  5
7
330
0
100
AcDbSymbolTable
 70
0
  0
ENDTAB
  0
TABLE
  2
UCS
  5
6
330
0
100
AcDbSymbolTable
 70
0
  0
ENDTAB
  0
TABLE
  2
APPID
  5
3
330
0
100
AcDbSymbolTable
 70
3
  0
APPID
  5
2A
330
3
100
AcDbSymbolTableRecord
100
AcDbRegAppTableRecord
  2
ACAD
 70
0
  0
APPID
  5
49
330
3
100
AcDbSymbolTableRecord
100
AcDbRegAppTableRecord
  2
HATCHBACKGROUNDCOLOR
 70
0
  0
APPID
  5
4A
330
3
100
AcDbSymbolTableRecord
100
AcDbRegAppTableRecord
  2
EZDXF
 70
0
  0
ENDTAB
  0
TABLE
  2
DIMSTYLE
  5
4
330
0
100
AcDbSymbolTable
 70
1
100
AcDbDimStyleTable
  0
DIMSTYLE
105
2B
330
4
100
AcDbSymbolTableRecord
100
AcDbDimStyleTableRecord
  2
Standard
 70
0
 40
1.0
 41
2.5
 42
0.625
 43
3.75
 44
1.25
 45
0.0
 46
0.0
 47
0.0
 48
0.0
 49
2.5
140
2.5
141
2.5
142
0.0
143
0.03937007874
144
1.0
145
0.0
146
1.0
147
0.625
148
0.0
 69
0
 70
0
 71
0
 72
0
 73
0
 74
0
 75
0
 76
0
 77
1
 78
8
 79
3
170
0
171
3
172
1
173
0
174
0
175
0
176
0
177
0
178
0
179
2
271
2
272
2
273
2
274
3
275
0
276
0
277
2
278
44
279
0
280
0
281
0
282
0
283
0
284
8
285
0
286
0
288
0
289
3
290
0
371
-2
372
-2
  0
ENDTAB
  0
TABLE
  2
BLOCK_RECORD
  5
9
330
0
100
AcDbSymbolTable
 70
2
  0
BLOCK_RECORD
  5
17
330
9
100
AcDbSymbolTableRecord
100
AcDbBlockTableRecord
  2
*Model_Space
340
1A
 70
0
280
1
281
0
  0
BLOCK_RECORD
  5
1B
330
9
100
AcDbSymbolTableRecord
100
AcDbBlockTableRecord
  2
*Paper_Space
340
1E
 70
0
280
1
281
0
  0
ENDTAB
  0
ENDSEC
  0
SECTION
  2
BLOCKS
  0
BLOCK
  5
18
330
17
100
AcDbEntity
  8
0
100
AcDbBlockBegin
  2
*Model_Space
 70
0
 10
0.0
 20
0.0
 30
0.0
  3
*Model_Space
  1

  0
ENDBLK
  5
19
330
17
100
AcDbEntity
  8
0
100
AcDbBlockEnd
  0
BLOCK
  5
1C
330
1B
100
AcDbEntity
  8
0
100
AcDbBlockBegin
  2
*Paper_Space
 70
0
 10
0.0
 20
0.0
 30
0.0
  3
*Paper_Space
  1

  0
ENDBLK
  5
1D
330
1B
100
AcDbEntity
  8
0
100
AcDbBlockEnd
  0
ENDSEC
  0
SECTION
  2
ENTITIES
  0
LWPOLYLINE
  5
2F
330
17
100
AcDbEntity
  8
0
100
AcDbPolyline
 90
14
 70
1
 10
32.9516697
 20
17.75957108
 10
32.908610350000004
 20
17.77732468
 10
32.87370969
 20
17.744140629999997
 10
32.853170399999996
 20
17.58215332
 10
32.84197045
 20
17.294071199999998
 10
32.84535027
 20
15.921062469999999
 10
32.87370969
 20
15.61511994
 10
32.88974
 20
15.590190889999999
 10
32.91612912
 20
15.58127976
 10
32.95371915
 20
15.60286331
 10
32.96763993
 20
15.67008209
 10
32.99030019
 20
16.06518173
 10
32.99030019
 20
17.294071199999998
 10
32.97910023
 20
17.58215332
  0
LWPOLYLINE
  5
30
330
17
100
AcDbEntity
  8
0
100
AcDbPolyline
 90
17
 70
1
 10
16.39607001
 20
16.61826325
 10
16.37251998
 20
16.64439392
 10
16.34142972
 20
16.65402985
 10
16.30963994
 20
16.64709473
 10
16.283929829999998
 20
16.62307358
 10
16.25491
 20
16.524585719999997
 10
16.24178982
 20
16.35351181
 10
16.24178982
 20
14.50253296
 10
16.26726962
 20
14.27766419
 10
16.29218007
 20
14.22205353
 10
16.3359499
 20
14.202011109999999
 10
16.3791895
 20
14.21643067
 10
16.40455008
 20
14.26010895
 10
16.425129899999998
 20
14.349674229999998
 10
16.43559981
 20
14.50253296
 10
16.4389
 20
16.21873474
 10
16.425129899999998
 20
16.50636292
  0
LWPOLYLINE
  5
31
330
17
100
AcDbEntity
  8
0
100
AcDbPolyline
 90
12
 70
1
 10
39.223949399999995
 20
15.566925049999998
 10
39.1964502
 20
15.60120392
 10
39.1441393
 20
15.620353699999999
 10
38.9187498
 20
15.63236237
 10
38.6760998
 20
15.61639023
 10
38.6264591
 20
15.589900969999999
 10
38.6122503
 20
15.554702759999998
 10
38.6279402
 20
15.520141599999999
 10
38.6760998
 20
15.49507523
 10
38.9187498
 20
15.479103089999999
 10
39.1660395
 20
15.496322629999998
 10
39.2138395
 20
15.524581909999998
  0
LWPOLYLINE
  5
32
330
17
100
AcDbEntity
  8
0
100
AcDbPolyline
 90
27
 70
1
 10
5.4252091
 20
14.977130889999998
 10
5.376069999999999
 20
15.013702389999999
 10
5.284469599999998
 20
15.01876068
 10
4.962539700000001
 20
14.924453739999999
 10
4.664619500000001
 20
14.79468155
 10
4.540439599999999
 20
14.72260285
 10
4.3898009999999985
 20
14.61219025
 10
4.174739799999998
 20
14.390663149999998
 10
4.0314999
 20
14.16975403
 10
3.9324799000000006
 20
13.95501328
 10
3.8248099999999994
 20
13.60655212
 10
4.043590599999998
 20
13.590141299999999
 10
4.1420287999999985
 20
13.601863859999998
 10
4.194889100000001
 20
13.629203799999999
 10
4.2505989
 20
13.69789505
 10
4.3738288999999995
 20
13.94854355
 10
4.460699099999999
 20
14.09493256
 10
4.5488700999999985
 20
14.21032333
 10
4.6755295
 20
14.33377075
 10
4.785280199999999
 20
14.414142609999999
 10
4.903730400000001
 20
14.48100281
 10
5.1136494
 20
14.56737137
 10
5.360578499999999
 20
14.645721439999999
 10
5.4246807
 20
14.68831253
 10
5.448089599999999
 20
14.73447418
 10
5.457349799999999
 20
14.84415436
 10
5.448370000000001
 20
14.91700363
  0
LWPOLYLINE
  5
33
330
17
100
AcDbEntity
  8
0
100
AcDbPolyline
 90
14
 70
1
 10
43.6202202
 20
12.586353299999999
 10
43.6519489
 20
12.638580319999999
 10
43.6662903
 20
12.75603104
 10
43.6670399
 20
13.43392944
 10
43.6448689
 20
13.63202286
 10
43.6236496
 20
13.67747116
 10
43.587488199999996
 20
13.69101334
 10
43.513330499999995
 20
13.659500119999999
 10
43.4794884
 20
13.594482419999999
 10
43.4761601
 20
13.0748024
 10
43.4897499
 20
12.77498245
 10
43.5084992
 20
12.66115189
 10
43.5523205
 20
12.588630679999998
 10
43.5887585
 20
12.575920109999998
  0
LWPOLYLINE
  5
34
330
17
100
AcDbEntity
  8
0
100
AcDbPolyline
 90
16
 70
1
 10
35.4854498
 20
11.34252167
 10
35.5102091
 20
11.520092009999999
 10
35.5251198
 20
11.819793699999998
 10
35.5405197
 20
13.315670009999998
 10
35.5155296
 20
13.523231509999999
 10
35.4900799
 20
13.570903779999998
 10
35.44347
 20
13.58890152
 10
35.3997202
 20
13.570903779999998
 10
35.37426
 20
13.523231509999999
 10
35.3492794
 20
13.315670009999998
 10
35.3646803
 20
11.819793699999998
 10
35.3795805
 20
11.520092009999999
 10
35.40201
 20
11.349784849999999
 10
35.4167299
 20
11.325782779999999
 10
35.4410801
 20
11.315753939999999
 10
35.466799699999996
 20
11.32142258
  0
LWPOLYLINE
  5
35
330
17
100
AcDbEntity
  8
0
100
AcDbPolyline
 90
12
 70
1
 10
29.35175944
 20
10.136909489999999
 10
29.31699992
 20
10.084873199999999
 10
29.32506991
 20
10.021614079999999
 10
29.36437989
 20
9.983634949999999
 10
29.4442401
 20
9.96697998
 10
30.0533495
 20
9.96697998
 10
30.14583016
 20
9.99103165
 10
30.182519919999997
 20
10.054409029999999
 10
30.17722989
 20
10.09586334
 10
30.151619919999998
 20
10.13243485
 10
30.0533495
 20
10.160961149999999
 10
29.48650981
 20
10.163585659999999
  0
LWPOLYLINE
  5
36
330
17
100
AcDbEntity
  8
0
100
AcDbPolyline
 90
20
 70
1
 10
27.00036979
 20
5.1263198899999995
 10
26.93411995
 20
5.204662319999999
 10
26.954149729999997
 20
5.233249669999999
 10
26.99605966
 20
5.24923325
 10
27.17865968
 20
5.263084409999999
 10
28.438439849999998
 20
5.287422179999999
 10
26.27572966
 20
6.485950469999999
 10
25.90465975
 20
6.686271669999999
 10
25.869419819999997
 20
6.689243319999999
 10
25.84342981
 20
6.416351319999999
 10
25.84069992
 20
5.7972297699999995
 10
26.47404981
 20
5.443561549999999
 10
26.712329869999998
 20
5.287353519999999
 10
26.71502972
 20
5.2749099699999995
 10
26.677419909999998
 20
5.24375916
 10
26.659349929999998
 20
5.197669979999999
 10
26.66288973
 20
5.16028214
 10
26.69088984
 20
5.132843019999999
 10
26.82065988
 20
5.110443119999999
 10
26.97150994
 20
5.112651829999999
  0
LWPOLYLINE
  5
37
330
17
100
AcDbEntity
  8
0
100
AcDbPolyline
 90
44
 70
1
 10
25.59307981
 20
3.078502659999999
 10
25.60700989
 20
3.006221769999999
 10
25.63929964
 20
2.9605102499999996
 10
25.68469978
 20
2.935390469999999
 10
25.834309819999998
 20
2.895660399999999
 10
25.86179996
 20
2.8708915699999995
 10
25.8765297
 20
2.835834499999999
 10
25.89054991
 20
2.7502098099999994
 10
25.917329799999997
 20
1.993492129999999
 10
28.17018986
 20
3.263690949999999
 10
29.2407198
 20
3.8848724399999988
 10
29.28252984
 20
3.9588813799999993
 10
29.30814982
 20
4.120903019999999
 10
29.31455994
 20
4.795722959999999
 10
28.99564982
 20
4.97014237
 10
28.87571955
 20
5.0515823399999995
 10
28.860990049999998
 20
5.09186173
 10
28.93190957
 20
5.13267136
 10
28.95660973
 20
5.194629669999999
 10
28.92513991
 20
5.2349548299999995
 10
28.854209909999998
 20
5.255142209999999
 10
28.5467496
 20
5.254241939999999
 10
28.524779799999997
 20
5.235080719999999
 10
28.57908011
 20
5.191642759999999
 10
28.57654954
 20
5.16698074
 10
28.521480089999997
 20
5.1436195399999995
 10
28.41143943
 20
5.130821229999999
 10
27.1152196
 20
5.083072659999999
 10
28.20651961
 20
4.470455169999999
 10
28.38558961
 20
4.362205509999999
 10
28.388749609999998
 20
4.333923339999999
 10
27.770569809999998
 20
3.9723815899999995
 10
26.37710977
 20
3.192890169999999
 10
26.79186989
 20
3.1654930099999987
 10
26.86432982
 20
3.1465949999999996
 10
26.8986497
 20
3.116821289999999
 10
26.91350985
 20
3.062503819999999
 10
26.89997984
 20
3.017230989999999
 10
26.86228967
 20
2.985042569999999
 10
26.73441983
 20
2.965702059999999
 10
26.019509799999998
 20
2.9636688199999988
 10
26.32601977
 20
3.166671749999999
 10
25.69139982
 20
3.163402559999999
 10
25.6159699
 20
3.141921999999999
  0
LWPOLYLINE
  5
38
330
17
100
AcDbEntity
  8
0
100
AcDbPolyline
 90
59
 70
1
 10
19.65961004
 20
3.911640169999999
 10
20.06875969
 20
3.931880949999999
 10
20.98752976
 20
3.933631899999999
 10
20.98752976
 20
3.6314201399999995
 10
20.1956997
 20
3.6015815699999996
 10
21.447309739999998
 20
2.900192259999999
 10
21.44505978
 20
2.2722320599999994
 10
21.42676998
 20
1.998363499999999
 10
21.40122963
 20
1.993309019999999
 10
21.35924984
 20
2.007183079999999
 10
19.68052984
 20
2.9495811499999993
 10
19.59988976
 20
3.006374359999999
 10
19.58213998
 20
3.0322837799999993
 10
19.61657954
 20
3.0525627099999992
 10
19.91650964
 20
3.0692520199999995
 10
19.984559779999998
 20
3.089443209999999
 10
20.01059986
 20
3.126262669999999
 10
20.0157497
 20
3.177124019999999
 10
19.997059829999998
 20
3.216560359999999
 10
19.95809985
 20
3.2444000299999995
 10
19.85854984
 20
3.2643432599999995
 10
19.582539569999998
 20
3.278533939999999
 10
19.158090119999997
 20
3.2772140499999995
 10
19.15338946
 20
3.253082279999999
 10
19.22367955
 20
3.2041435299999987
 10
19.48048974
 20
3.0717124899999995
 10
18.87094975
 20
3.0688133199999994
 10
18.76941968
 20
3.093975069999999
 10
18.74054003
 20
3.174072269999999
 10
18.75130988
 20
3.275569919999999
 10
18.794269569999997
 20
3.312534329999999
 10
18.89505006
 20
3.3260612499999995
 10
18.90652991
 20
3.3470916799999992
 10
18.897449979999998
 20
3.373561859999999
 10
18.78389979
 20
3.4524421699999994
 10
18.05007983
 20
3.867973329999999
 10
18.02235985
 20
4.827640529999999
 10
18.89239979
 20
5.287422179999999
 10
18.89299966
 20
5.925991059999999
 10
20.00320984
 20
5.925991059999999
 10
20.951789859999998
 20
6.454650879999999
 10
21.3812399
 20
6.684013369999999
 10
21.41746999
 20
6.688911439999999
 10
21.444549809999998
 20
6.415031429999999
 10
21.447309739999998
 20
5.7931747399999995
 10
19.66246963
 20
4.79175186
 10
18.93989993
 20
4.349803929999999
 10
18.948549749999998
 20
4.317672729999999
 10
19.06216002
 20
4.241043089999999
 10
19.58265973
 20
3.9367332499999987
 10
19.2315898
 20
3.930503849999999
 10
19.17941952
 20
3.911979679999999
 10
19.15895987
 20
3.886383059999999
 10
19.15207005
 20
3.848934169999999
 10
19.14842988
 20
3.627120969999999
 10
19.78449989
 20
3.628879549999999
 10
20.06276966
 20
3.642890929999999
 10
20.06086994
 20
3.6650237999999993
 10
19.71931983
 20
3.861202239999999
  0
LWPOLYLINE
  5
39
330
17
100
AcDbEntity
  8
0
100
AcDbPolyline
 90
12
 70
1
 10
20.04252983
 20
5.624801639999999
 10
20.34408999
 20
5.61567307
 10
20.39758969
 20
5.595329289999999
 10
20.42182971
 20
5.535343169999999
 10
20.42557979
 20
5.31296158
 10
19.426539899999998
 20
5.315269469999999
 10
19.00850011
 20
5.337982179999999
 10
19.07950974
 20
5.398311619999999
 10
19.906729939999998
 20
5.865280149999999
 10
19.9367199
 20
5.867851259999999
 10
19.95297981
 20
5.840503689999999
 10
19.98027969
 20
5.660274509999999
  0
LWPOLYLINE
  5
3A
330
17
100
AcDbEntity
  8
0
100
AcDbPolyline
 90
9
 70
1
 10
25.0498798
 20
0.3839912399999985
 10
25.00310982
 20
0.24692153999999888
 10
24.85997987
 20
0.0
 10
22.33457983
 20
0.0
 10
22.1084298
 20
0.4023933399999997
 10
23.346919782
 20
2.401050569999999
 10
23.873889810999998
 20
2.396739959999999
 10
25.00599981
 20
0.5332031299999986
 10
25.04558981
 20
0.45327376999999913
  0
LWPOLYLINE
  5
3B
330
17
100
AcDbEntity
  8
0
100
AcDbPolyline
 90
26
 70
1
 10
23.145069785
 20
0.40314101999999963
 10
23.046649760999998
 20
0.3840026899999991
 10
22.982849843
 20
0.4213027999999994
 10
22.774529762
 20
0.7836532599999995
 10
23.035869784
 20
1.0329894999999993
 10
23.188019789
 20
1.2479438799999993
 10
23.314949788
 20
1.517341609999999
 10
23.344279803
 20
1.7206649799999996
 10
23.364239789
 20
1.7604026799999994
 10
23.443889789
 20
1.7850341799999994
 10
23.899429774999998
 20
1.788021089999999
 10
23.899839796
 20
1.594421389999999
 10
23.914269812
 20
1.4893836999999994
 10
23.95504979
 20
1.3709220899999988
 10
24.036259776999998
 20
1.2047119199999994
 10
24.135799832
 20
1.0523338299999994
 10
24.209129817
 20
0.9652328499999996
 10
24.294269807
 20
0.9015808099999996
 10
24.454659827
 20
0.8182296799999991
 10
24.247989781
 20
0.4567909299999986
 10
24.204059787
 20
0.4052314799999994
 10
24.167959757
 20
0.38343429999999934
 10
24.114929802
 20
0.3809013399999994
 10
23.94959978
 20
0.41815948999999897
 10
23.5956798004
 20
0.4270591699999997
 10
23.261399812
 20
0.42116546999999827
  0
LWPOLYLINE
  5
3C
330
17
100
AcDbEntity
  8
0
100
AcDbPolyline
 90
61
 70
1
 10
21.65127981
 20
14.18362427
 10
21.34940983
 20
13.48674393
 10
21.70273984
 20
13.48674393
 10
21.699949869999998
 20
12.917861939999998
 10
21.67552984
 20
12.806632999999998
 10
21.62258983
 20
12.77394486
 10
21.55342985
 20
12.779922489999999
 10
21.50976969
 20
12.813091279999998
 10
21.4801097
 20
12.885452269999998
 10
21.37407971
 20
12.91873551
 10
20.99649978
 20
12.921592709999999
 10
20.89167977
 20
12.906112669999999
 10
20.850969799999998
 20
12.8841629
 10
20.83537985
 20
12.858322139999999
 10
20.84058977
 20
12.82223511
 10
20.867979769999998
 20
12.79427338
 10
20.9311297
 20
12.775722499999999
 10
21.13901973
 20
12.76278305
 10
21.182149889999998
 20
12.72611237
 10
21.18704987
 20
12.684883119999999
 10
21.16812969
 20
12.62905121
 10
21.121409659999998
 20
12.52192307
 10
21.07872964
 20
12.46339035
 10
21.034139879999998
 20
12.435291289999999
 10
20.94830991
 20
12.418121339999999
 10
20.36927987
 20
12.4139328
 10
20.2614596
 20
12.663810729999998
 10
20.20370985
 20
12.74031067
 10
20.13003994
 20
12.76608276
 10
19.789539819999998
 20
12.785682679999999
 10
19.712829839999998
 20
12.81888199
 10
19.68831993
 20
12.867713929999999
 10
19.70218993
 20
12.901641849999999
 10
19.74414993
 20
12.91796112
 10
20.04062987
 20
12.927692409999999
 10
20.09585977
 20
12.95057297
 10
20.10284997
 20
12.97377014
 10
20.09048987
 20
13.03974152
 10
19.91464997
 20
13.45582962
 10
19.91418982
 20
13.51322937
 10
19.94371963
 20
13.55533981
 10
19.99546982
 20
13.578472139999999
 10
20.47196985
 20
13.604694369999999
 10
20.4740696
 20
13.62827301
 10
20.40031982
 20
13.80797196
 10
20.22910977
 20
14.19687271
 10
19.58908988
 20
14.227493289999998
 10
18.89808989
 20
15.811161039999998
 10
19.30001021
 20
15.83922958
 10
19.36367989
 20
15.859462739999998
 10
19.38865996
 20
15.88462448
 10
19.40059996
 20
15.9268837
 10
19.4038601
 20
16.0921402
 10
22.979889757
 20
16.0921402
 10
22.974669760999998
 20
15.92554093
 10
22.953649826
 20
15.87979126
 10
22.915939814999998
 20
15.85493469
 10
22.810059793
 20
15.8376503
 10
22.00031973
 20
15.811161039999998
 10
21.30108977
 20
14.201950069999999
 10
21.54356981
 20
14.200454709999999
  0
LWPOLYLINE
  5
3D
330
17
100
AcDbEntity
  8
0
100
AcDbPolyline
 90
9
 70
1
 10
18.59049941
 20
12.94329071
 10
18.54031993
 20
12.97518921
 10
18.51608992
 20
13.04005051
 10
18.5067997
 20
13.28604508
 10
18.51694012
 20
13.435611729999998
 10
18.634299759999998
 20
13.23269272
 10
18.72957946
 20
12.96762085
 10
18.724079619999998
 20
12.94263077
 10
18.702749739999998
 20
12.928432469999999
  0
LWPOLYLINE
  5
3E
330
17
100
AcDbEntity
  8
0
100
AcDbPolyline
 90
138
 70
1
 10
12.5837002
 20
14.638225559999999
 10
12.6290798
 20
14.61453247
 10
12.822919899999999
 20
14.58288193
 10
13.103059799999999
 20
14.459762569999999
 10
13.334909399999999
 20
14.31368256
 10
13.5096998
 20
14.13324356
 10
13.589409799999999
 20
14.014022829999998
 10
13.666720399999999
 20
13.86408234
 10
13.7368002
 20
13.64115524
 10
13.73571969
 20
13.57024384
 10
13.71235944
 20
13.545894619999999
 10
13.66460992
 20
13.529212949999998
 10
13.63672925
 20
13.44215393
 10
13.63587952
 20
13.25033951
 10
13.66374016
 20
13.19957352
 10
13.695019729999999
 20
13.185802459999998
 10
13.773659709999999
 20
13.1807518
 10
13.93925
 20
13.193271639999999
 10
13.977820399999999
 20
13.22670364
 10
13.994090089999998
 20
13.32352448
 10
14.011349679999999
 20
13.35602188
 10
14.049059869999999
 20
13.377571109999998
 10
14.12319947
 20
13.38450241
 10
14.18725014
 20
13.37657166
 10
14.22340966
 20
13.35400009
 10
14.25328923
 20
13.229991909999999
 10
14.28812981
 20
13.194770809999998
 10
14.374690059999999
 20
13.180740359999998
 10
14.55803014
 20
13.180229189999999
 10
14.48954011
 20
12.656093599999998
 10
14.43616963
 20
12.42920303
 10
14.37348939
 20
12.232074739999998
 10
14.30450917
 20
12.065143589999998
 10
14.17605019
 20
11.82670212
 10
14.050119409999999
 20
11.647232059999999
 10
13.904820449999999
 20
11.483039859999998
 10
13.74437905
 20
11.33883286
 10
13.569149999999999
 20
11.21603012
 10
13.388529799999999
 20
11.11918259
 10
13.214520499999999
 20
11.05107117
 10
12.9926195
 20
10.994632719999998
 10
12.7862396
 20
10.96259308
 10
12.57833
 20
10.947891239999999
 10
12.3703203
 20
10.95062256
 10
12.0844097
 20
10.987300869999999
 10
11.7409401
 20
11.095691679999998
 10
11.7376404
 20
12.249023439999998
 10
11.7221193
 20
12.385795589999999
 10
11.6821203
 20
12.45059204
 10
11.6418705
 20
12.464962009999999
 10
11.602290199999999
 20
12.45565033
 10
11.569970099999999
 20
12.42354202
 10
11.551500299999999
 20
12.37562561
 10
11.5388804
 20
12.233470919999998
 10
11.5295296
 20
11.49327469
 10
11.507249799999999
 20
11.260040279999998
 10
11.490389799999999
 20
11.24008179
 10
11.4531899
 20
11.248222349999999
 10
11.3280096
 20
11.34909439
 10
11.0882101
 20
11.58839035
 10
10.88274
 20
11.87678146
 10
10.7401304
 20
12.14798355
 10
10.6608696
 20
12.35962296
 10
10.603680599999999
 20
12.66936874
 10
11.2811699
 20
12.66936874
 10
11.2776699
 20
13.25326157
 10
11.26474
 20
13.32710266
 10
11.245869599999999
 20
13.358974459999999
 10
11.1878595
 20
13.384193419999999
 10
11.1137304
 20
13.36837387
 10
11.0854302
 20
13.33319092
 10
11.0602293
 20
13.230140689999999
 10
11.030280099999999
 20
13.203712459999998
 10
10.989049
 20
13.191593169999999
 10
10.3591404
 20
13.183650969999999
 10
10.2718601
 20
13.196922299999999
 10
10.2343798
 20
13.21889114
 10
10.21206
 20
13.256763459999998
 10
10.1984196
 20
13.335872649999999
 10
10.1732292
 20
13.36450195
 10
10.128049899999999
 20
13.379783629999999
 10
9.9083595
 20
13.39713287
 10
9.866539
 20
13.421913149999998
 10
9.850799599999998
 20
13.46320343
 10
9.8795796
 20
13.506671909999998
 10
9.949309399999999
 20
13.529064179999999
 10
10.330050499999999
 20
13.53342056
 10
10.4045601
 20
13.520610809999999
 10
10.442799599999999
 20
13.5011406
 10
10.4604492
 20
13.47882462
 10
10.4838305
 20
13.398300169999999
 10
10.517829899999999
 20
13.39489365
 10
10.5731793
 20
13.49930191
 10
10.7090797
 20
13.98069
 10
10.7750902
 20
14.13722229
 10
10.894100199999999
 20
14.36053467
 10
10.98559
 20
14.499629979999998
 10
11.114389399999999
 20
14.66216278
 10
11.5110502
 20
15.03288269
 10
11.566730499999998
 20
14.055183409999998
 10
11.5816898
 20
13.98738098
 10
11.610400199999999
 20
13.929180149999999
 10
11.6515398
 20
13.90501022
 10
11.688949599999999
 20
13.913299559999999
 10
11.7229195
 20
13.97111511
 10
11.737509699999999
 20
14.099075319999999
 10
11.7409401
 20
15.113582609999998
 10
12.15096
 20
15.233543399999999
 10
12.3629704
 20
15.258884429999998
 10
12.8838701
 20
15.23485184
 10
13.1594801
 20
15.1756134
 10
13.4814797
 20
15.034641269999998
 10
13.82058049
 20
14.80411148
 10
13.965849879999999
 20
14.667083739999999
 10
14.07116986
 20
14.53879166
 10
14.21973038
 20
14.309154509999999
 10
14.32046986
 20
14.12137222
 10
14.416790019999999
 20
13.90191269
 10
14.44976998
 20
13.77946091
 10
14.46261979
 20
13.623130799999998
 10
14.4509697
 20
13.59209061
 10
14.42759038
 20
13.573043819999999
 10
14.283689509999999
 20
13.565849309999999
 10
14.22640038
 20
13.57825089
 10
14.19042969
 20
13.60404205
 10
14.15496922
 20
13.661369319999999
 10
14.030359279999999
 20
14.01945114
 10
13.965759279999999
 20
14.150543209999999
 10
13.860809329999999
 20
14.317604069999998
 10
13.65692998
 20
14.5515213
 10
13.516679799999999
 20
14.66963196
 10
13.3636293
 20
14.770603179999998
 10
13.20187
 20
14.85176087
 10
13.0324402
 20
14.91194153
 10
12.602399799999999
 20
15.00327301
 10
12.575779899999999
 20
14.98408508
 10
12.561439499999999
 20
14.93058014
 10
12.5621195
 20
14.701614379999999
  0
LWPOLYLINE
  5
3F
330
17
100
AcDbEntity
  8
0
100
AcDbPolyline
 90
9
 70
1
 10
20.74920989
 20
11.69618225
 10
20.7085898
 20
11.693561549999998
 10
20.656969789999998
 20
11.74082947
 10
20.491139659999998
 20
12.145732879999999
 10
20.49164987
 20
12.16698074
 10
20.522269729999998
 20
12.191909789999999
 10
20.58852983
 20
12.205409999999999
 10
20.98389984
 20
12.20959091
 10
20.82415963
 20
11.83967972
  0
LWPOLYLINE
  5
40
330
17
100
AcDbEntity
  8
0
100
AcDbPolyline
 90
55
 70
1
 10
28.20707989
 20
13.57033157
 10
28.17888976
 20
13.58719254
 10
28.14591981
 20
13.58555222
 10
28.11891986
 20
13.56599045
 10
28.10104991
 20
13.53130341
 10
28.0889597
 20
13.437473299999999
 10
28.08849002
 20
13.2313118
 10
26.91350985
 20
13.2313118
 10
26.91350985
 20
14.304122929999998
 10
27.367589719999998
 20
14.310543059999999
 10
27.44483996
 20
14.33318329
 10
27.47544957
 20
14.379692079999998
 10
27.46746994
 20
14.40769196
 10
27.44483996
 20
14.428310399999999
 10
27.367589719999998
 20
14.45096207
 10
26.91350985
 20
14.457382199999998
 10
26.91350985
 20
15.172592159999999
 10
27.5002699
 20
15.170024869999999
 10
27.57050968
 20
15.15849304
 10
27.61636997
 20
15.118652339999999
 10
27.64555979
 20
14.95464325
 10
27.67538977
 20
14.9274025
 10
27.72395945
 20
14.917304989999998
 10
27.77866984
 20
14.924442289999998
 10
27.81006957
 20
14.94589233
 10
27.82691956
 20
14.9809494
 10
27.84769965
 20
15.123489379999999
 10
27.87117959
 20
15.149890899999999
 10
27.91294957
 20
15.163692479999998
 10
28.35680962
 20
15.16505051
 10
28.66278935
 20
15.114253999999999
 10
28.88386012
 20
15.02004242
 10
29.03574992
 20
14.903560639999998
 10
29.15471984
 20
14.75091553
 10
29.248549949999997
 20
14.53811264
 10
29.28724957
 20
14.488849639999998
 10
29.35795975
 20
14.46305466
 10
29.59200001
 20
14.449642179999998
 10
29.65956975
 20
14.415641789999999
 10
29.66963959
 20
14.364002229999999
 10
29.63055993
 20
14.32255554
 10
29.57781983
 20
14.308383939999999
 10
29.390449529999998
 20
14.29671097
 10
29.34166003
 20
14.266681669999999
 10
29.318260199999997
 20
14.21848297
 10
29.26246978
 20
13.924705509999999
 10
29.18254996
 20
13.71983337
 10
29.13017989
 20
13.632930759999999
 10
29.04467965
 20
13.528171539999999
 10
28.94222975
 20
13.437511449999999
 10
28.856339939999998
 20
13.380592349999999
 10
28.719479569999997
 20
13.31604385
 10
28.58126975
 20
13.271949769999999
 10
28.24174977
 20
13.217864989999999
 10
28.23764945
 20
13.489151
  0
LWPOLYLINE
  5
41
330
17
100
AcDbEntity
  8
0
100
AcDbPolyline
 90
838
 70
1
 10
23.056519812999998
 20
16.296482089999998
 10
19.73260976
 20
16.29473496
 10
18.73335982
 20
16.28343201
 10
18.189449789999998
 20
16.26334
 10
18.13911963
 20
16.23389053
 10
18.1167698
 20
16.140830989999998
 10
18.08689976
 20
16.1096611
 10
18.04110003
 20
16.09633255
 10
17.84354974
 20
16.08741379
 10
17.79587985
 20
16.0672226
 10
17.776189809999998
 20
16.034011839999998
 10
17.75761986
 20
15.8887825
 10
17.72567988
 20
15.854801179999999
 10
17.65475989
 20
15.83953476
 10
17.15606976
 20
15.83670044
 10
17.15606976
 20
14.201950069999999
 10
17.76909972
 20
14.201950069999999
 10
17.76909972
 20
13.588920589999999
 10
16.977269659999997
 20
13.588729859999999
 10
16.96666957
 20
14.09298325
 10
16.92981005
 20
14.17044449
 10
16.898519999999998
 20
14.18913269
 10
16.86391021
 20
14.191993709999998
 10
16.81975985
 20
14.159591679999998
 10
16.80305005
 20
14.08494949
 10
16.79846955
 20
13.48674393
 10
16.33447982
 20
13.483810429999998
 10
16.27270985
 20
13.467010499999999
 10
16.24952985
 20
13.443084719999998
 10
16.24088956
 20
13.403823849999998
 10
16.236519819999998
 20
13.180229189999999
 10
15.75264979
 20
13.183223729999998
 10
15.68542958
 20
13.1938858
 10
15.649000169999999
 20
13.212924959999999
 10
15.62828923
 20
13.249893189999998
 10
15.611740119999999
 20
13.332412719999999
 10
15.5724001
 20
13.36754227
 10
15.494319919999999
 20
13.38157272
 10
15.12656022
 20
13.390804289999998
 10
15.051810269999999
 20
13.40869141
 10
15.01379014
 20
13.443584439999999
 10
15.01187993
 20
13.47244263
 10
15.02688981
 20
13.4960022
 10
15.118859299999999
 20
13.52737045
 10
15.57316972
 20
13.540599819999999
 10
15.82446957
 20
13.56160355
 10
15.854519849999999
 20
13.60017014
 10
15.862629899999998
 20
13.66527176
 10
15.77853966
 20
14.004520419999999
 10
15.67033959
 20
14.344871519999998
 10
15.492679599999999
 20
14.74677277
 10
15.368979459999998
 20
14.96021271
 10
15.153610239999999
 20
15.26097488
 10
14.992400179999999
 20
15.44556046
 10
14.81814957
 20
15.61560059
 10
14.53270055
 20
15.84321213
 10
14.21864987
 20
16.03723526
 10
13.882160189999999
 20
16.19392395
 10
13.504030199999999
 20
16.31725311
 10
13.0619392
 20
16.40555954
 10
12.6600494
 20
16.43880081
 10
12.1466503
 20
16.42899323
 10
11.7459297
 20
16.36242294
 10
11.7124405
 20
16.743625639999998
 10
11.677999499999999
 20
16.81492233
 10
11.63027
 20
16.832172389999997
 10
11.586999899999999
 20
16.797542569999997
 10
11.562190099999999
 20
16.724483489999997
 10
11.5320597
 20
16.3197403
 10
10.999229399999999
 20
16.101840969999998
 10
10.7761898
 20
15.981540679999998
 10
10.56392
 20
15.843132019999999
 10
10.361939399999999
 20
15.68641281
 10
10.173299799999999
 20
15.5138588
 10
9.9992399
 20
15.32662201
 10
9.8388701
 20
15.123561859999999
 10
9.6299601
 20
14.796623229999998
 10
9.459959999999999
 20
14.44430542
 10
9.3312197
 20
14.07321167
 10
9.2051296
 20
13.56337357
 10
8.6757698
 20
13.532489779999999
 10
8.6736097
 20
14.744392399999999
 10
8.650609999999999
 20
14.9538002
 10
8.624810199999999
 20
14.99718094
 10
8.594419499999999
 20
15.01617432
 10
8.541659399999999
 20
15.015972139999999
 10
8.501660399999999
 20
14.99769211
 10
8.476459499999999
 20
14.94317246
 10
8.4670296
 20
14.75308228
 10
8.4561396
 20
14.74382019
 10
8.4405098
 20
14.7510643
 10
8.122789399999998
 20
15.205360409999999
 10
7.8588705
 20
15.535232539999999
 10
7.866369299999999
 20
15.551860809999999
 10
7.925940499999999
 20
15.559902189999999
 10
8.3084793
 20
15.573989869999998
 10
8.318119999999999
 20
15.5839119
 10
8.311849599999999
 20
15.601402279999999
 10
8.0508299
 20
15.806030269999999
 10
7.8801498
 20
15.90018082
 10
7.767868999999999
 20
15.929332729999999
 10
7.480869299999998
 20
15.94675064
 10
7.312971099999999
 20
15.974220279999999
 10
7.216011099999999
 20
16.00424194
 10
7.066558799999999
 20
16.08852387
 10
7.258249299999999
 20
16.09386063
 10
7.323030499999998
 20
16.11905289
 10
7.3444804999999995
 20
16.16351318
 10
7.343250299999998
 20
16.22299194
 10
7.3181094999999985
 20
16.263660429999998
 10
7.2719401999999995
 20
16.28407288
 10
6.598190299999999
 20
16.31990051
 10
6.060760500000001
 20
16.41004181
 10
5.738779099999999
 20
16.43867111
 10
4.8440990999999975
 20
16.42420197
 10
4.838369399999998
 20
17.46564102
 10
4.827089300000001
 20
17.54658508
 10
4.8090191
 20
17.586730959999997
 10
4.7767792
 20
17.61687088
 10
4.734239599999999
 20
17.62410355
 10
4.697048199999998
 20
17.607830049999997
 10
4.670509299999999
 20
17.57292175
 10
4.6453095
 20
17.458450319999997
 10
4.614419899999998
 20
16.3863411
 10
4.0756397
 20
16.19676209
 10
3.7901401999999997
 20
16.12371445
 10
3.4827595000000002
 20
16.0985527
 10
2.4418793
 20
16.08650208
 10
2.265010799999999
 20
16.06786347
 10
2.2122402
 20
16.05419159
 10
2.1917896
 20
16.03349304
 10
2.1903895999999996
 20
16.00090027
 10
2.2123393999999976
 20
15.97666168
 10
2.353860900000001
 20
15.9527092
 10
3.7562694999999984
 20
15.92761994
 10
4.011610000000001
 20
15.916072849999999
 10
4.024879500000001
 20
15.90378952
 10
3.992939
 20
15.855361939999998
 10
3.8739108999999985
 20
15.74965286
 10
3.768419299999998
 20
15.673412319999999
 10
3.6691398999999976
 20
15.621135709999999
 10
3.5283604000000004
 20
15.588031769999999
 10
3.197439199999998
 20
15.571121219999998
 10
3.1344203999999998
 20
15.55189133
 10
3.0691699999999997
 20
15.51214981
 10
2.9063397
 20
15.343009949999999
 10
2.711769099999998
 20
15.094879149999999
 10
2.5759106000000003
 20
14.88093567
 10
2.437599200000001
 20
14.618549349999999
 10
2.3208388999999983
 20
14.3425827
 10
2.2394295
 20
14.09744263
 10
2.186731299999998
 20
13.886981969999999
 10
2.132120099999998
 20
13.588920589999999
 10
2.6476097000000003
 20
13.588920589999999
 10
2.6476097000000003
 20
13.026973729999998
 10
2.1622905999999986
 20
13.026973729999998
 10
1.8110694999999986
 20
13.01285172
 10
1.6909199000000008
 20
12.99630356
 10
1.6776905000000006
 20
12.981452939999999
 10
1.681909600000001
 20
12.96178436
 10
1.758079500000001
 20
12.93188095
 10
1.8944396999999995
 20
12.907272339999999
 10
0.3156700000000008
 20
12.8499527
 10
0.15678020000000004
 20
12.83452225
 10
0.04724119999999843
 20
12.810199739999998
 10
0.01400950000000023
 20
12.78763199
 10
9.500000000883801e-06
 20
12.74917221
 10
0.018110300000000024
 20
12.714492799999999
 10
0.06894109999999998
 20
12.696552279999999
 10
0.27453039999999973
 20
12.674789429999999
 10
2.1180610999999985
 20
12.66936874
 10
2.2826500000000003
 20
12.01912308
 10
2.3765697999999986
 20
11.764041899999999
 10
2.490791299999998
 20
11.517383579999999
 10
2.624549899999998
 20
11.280754089999999
 10
2.7742596000000006
 20
11.061042789999998
 10
3.032930399999998
 20
10.757713319999999
 10
3.2262497000000003
 20
10.57518387
 10
3.545310999999998
 20
10.33319092
 10
3.8935299000000008
 20
10.133621219999998
 10
4.264440499999999
 20
9.98030472
 10
4.6639996
 20
9.869995119999999
 10
5.0736789999999985
 20
9.806941989999999
 10
5.349678000000001
 20
9.79162216
 10
5.939800299999998
 20
9.81027222
 10
6.376899699999999
 20
9.86698532
 10
6.3834686000000005
 20
9.050102234999999
 10
6.410520599999998
 20
8.921150207999998
 10
6.430709799999999
 20
8.895412446
 10
6.460800199999998
 20
8.889614106
 10
6.4974594
 20
8.924732208999998
 10
6.5214806
 20
9.039691926
 10
6.535091399999999
 20
9.749443059999999
 10
6.5472298
 20
9.86836243
 10
6.569160499999999
 20
9.945392609999999
 10
6.894109699999998
 20
10.07662201
 10
7.238599799999999
 20
10.256565089999999
 10
7.5159798
 20
10.448383329999999
 10
7.8483687
 20
10.74554062
 10
8.1412897
 20
11.08390045
 10
8.3713999
 20
11.42723084
 10
8.5262604
 20
11.7334137
 10
8.6742802
 20
12.107421879999999
 10
7.2479800999999995
 20
12.107421879999999
 10
7.1460609999999996
 20
11.912021639999999
 10
7.058799799999999
 20
11.783802029999999
 10
6.647941599999999
 20
11.32155991
 10
6.61232
 20
11.2974205
 10
6.5727291
 20
11.2901001
 10
6.556709299999998
 20
11.30502319
 10
6.5371093999999985
 20
11.5225029
 10
6.515468599999998
 20
12.213851929999999
 10
6.487680399999999
 20
12.29521179
 10
6.440759700000001
 20
12.309833529999999
 10
6.417520499999998
 20
12.29239273
 10
6.401599900000001
 20
12.25224304
 10
6.381589899999998
 20
12.104190829999999
 10
6.376899699999999
 20
11.19049454
 10
6.101968799999998
 20
11.05751038
 10
5.895050099999999
 20
11.006134029999998
 10
5.671619400000001
 20
10.983951569999999
 10
5.447139700000001
 20
10.978870389999999
 10
5.0994396
 20
11.00405502
 10
4.793150000000001
 20
11.06585312
 10
4.669349699999998
 20
11.108711239999998
 10
4.497550999999998
 20
11.18894577
 10
4.290699
 20
11.325954439999999
 10
4.0371494000000006
 20
11.56766129
 10
3.9154701000000003
 20
11.716602329999999
 10
3.8040199
 20
11.87990189
 10
3.6638297999999985
 20
12.14110184
 10
3.5790100000000002
 20
12.36123276
 10
3.480668999999999
 20
12.77983475
 10
3.442029999999999
 20
12.85416412
 10
3.4123306000000007
 20
12.849605559999999
 10
3.3636494
 20
12.74054337
 10
3.334390599999999
 20
12.703952789999999
 10
3.223628999999999
 20
12.67286301
 10
2.876939799999999
 20
12.67238999
 10
2.8001194
 20
12.68648148
 10
2.7711600999999995
 20
12.70619202
 10
2.7545089999999988
 20
12.73910141
 10
2.758840599999999
 20
12.82275009
 10
2.7788199999999996
 20
12.84965134
 10
2.8195896000000005
 20
12.867053989999999
 10
3.028999299999999
 20
12.878025059999999
 10
3.0734595999999996
 20
12.89337158
 10
3.0991096999999996
 20
12.927070619999999
 10
3.111160299999998
 20
13.039215089999999
 10
3.1289786999999976
 20
13.087512969999999
 10
3.158849700000001
 20
13.11089325
 10
3.2309894999999997
 20
13.1253624
 10
3.8047809999999984
 20
13.12626267
 10
3.8961982999999982
 20
13.11711502
 10
3.9506797999999996
 20
13.10115433
 10
3.988430000000001
 20
13.07195282
 10
4.0660591
 20
12.92923355
 10
4.103649099999998
 20
12.92173386
 10
4.142589600000001
 20
12.945960999999999
 10
4.162778899999999
 20
12.980262759999999
 10
4.177190799999998
 20
13.051872249999999
 10
4.1801891
 20
13.28240204
 10
3.5852909000000004
 20
13.30167008
 10
3.5149994000000007
 20
13.32154083
 10
3.4781493999999995
 20
13.36328507
 10
3.4722003999999984
 20
13.414733889999999
 10
3.553359999999998
 20
13.74903107
 10
3.6520995999999997
 20
14.0775528
 10
3.7239398999999977
 20
14.251792909999999
 10
3.843240699999999
 20
14.45426178
 10
3.9612999
 20
14.604850769999999
 10
4.121459999999999
 20
14.76922226
 10
4.302381499999999
 20
14.91773224
 10
4.495630299999998
 20
15.043224339999998
 10
4.689989099999998
 20
15.13980103
 10
4.900800699999998
 20
15.21388245
 10
5.147640199999998
 20
15.24436188
 10
5.828260399999998
 20
15.241073609999999
 10
6.043439899999999
 20
15.206272129999999
 10
6.2808589999999995
 20
15.114589689999999
 10
6.5948505
 20
14.932224269999999
 10
6.7072791999999986
 20
14.845691679999998
 10
6.861720999999999
 20
14.70112228
 10
7.040479699999999
 20
14.48136139
 10
7.2709006999999986
 20
14.101799009999999
 10
8.4714298
 20
14.09978104
 10
8.4650898
 20
13.6807251
 10
8.4390202
 20
13.549442289999998
 10
8.395210299999999
 20
13.527652739999999
 10
8.3740101
 20
13.49378204
 10
8.3702898
 20
13.45154953
 10
8.3879004
 20
13.42443085
 10
8.4992094
 20
13.391521449999999
 10
8.904510499999999
 20
13.381061549999998
 10
9.124509799999998
 20
13.352210999999999
 10
9.135239599999998
 20
13.33712006
 10
9.1300592
 20
13.31910324
 10
9.0746393
 20
13.297401429999999
 10
8.776299499999999
 20
13.264862059999999
 10
8.7500591
 20
13.23842239
 10
8.781800299999999
 20
13.211261749999998
 10
9.078619999999999
 20
13.18391037
 10
9.748579999999999
 20
13.180229189999999
 10
9.748579999999999
 20
12.66936874
 10
9.22612
 20
12.66936874
 10
9.300429399999999
 20
12.2290535
 10
9.402379
 20
11.89408112
 10
9.5808792
 20
11.489482879999999
 10
9.786100399999999
 20
11.14393234
 10
9.978110299999999
 20
10.89411926
 10
10.0970192
 20
10.765701289999999
 10
10.1557198
 20
10.720314029999999
 10
10.2498198
 20
10.6863327
 10
10.5932493
 20
10.66981506
 10
10.716480299999999
 20
10.639102939999999
 10
10.8399506
 20
10.56402207
 10
11.1375704
 20
10.31940079
 10
8.2987795
 20
10.314270019999999
 10
8.090189899999999
 20
10.303020479999999
 10
7.954218899999999
 20
10.277954099999999
 10
7.9150887
 20
10.24334335
 10
7.9152489
 20
10.190769199999998
 10
7.9451589999999985
 20
10.160140989999999
 10
8.017089899999998
 20
10.141201019999999
 10
8.2760296
 20
10.12022019
 10
10.3515301
 20
10.11227036
 10
10.8431892
 20
10.09194183
 10
11.126399999999999
 20
10.04145432
 10
11.5366001
 20
9.89702225
 10
11.5417595
 20
7.259902959999999
 10
11.553060499999999
 20
7.065582279999999
 10
11.577829399999999
 20
6.942272189999999
 10
11.601169599999999
 20
6.908962249999999
 10
11.639929799999999
 20
6.896640779999999
 10
11.684349999999998
 20
6.915920259999999
 10
11.7065296
 20
6.966663359999999
 10
11.725029999999999
 20
7.067962649999999
 10
11.7357702
 20
7.2538528499999995
 10
11.7409401
 20
9.84416199
 10
12.270439199999998
 20
9.77090073
 10
12.7534294
 20
9.777740479999999
 10
13.161869999999999
 20
9.816913609999999
 10
13.79916001
 20
9.938590999999999
 10
14.35945035
 20
9.973583219999998
 10
14.40812016
 20
9.987480159999999
 10
14.442290309999999
 20
10.012882229999999
 10
14.44701005
 20
10.046993259999999
 10
14.424389849999999
 20
10.07979202
 10
14.341339119999999
 20
10.119243619999999
 10
14.167529109999998
 20
10.14200211
 10
14.34733964
 20
10.239151
 10
14.451529509999999
 20
10.2772255
 10
14.645460139999999
 20
10.313232419999999
 10
14.9732504
 20
10.33466339
 10
15.075079919999999
 20
10.37037277
 10
15.162089349999999
 20
10.425380709999999
 10
15.44234944
 20
10.651462559999999
 10
14.96714974
 20
10.7025528
 10
15.35420037
 20
11.22700119
 10
15.559010509999998
 20
11.594963069999999
 10
15.69539023
 20
11.937534329999998
 10
15.882759579999998
 20
12.61656189
 10
15.9193101
 20
12.648780819999999
 10
15.992069729999999
 20
12.665760039999999
 10
16.54303981
 20
12.66936874
 10
16.53291989
 20
13.07786179
 10
16.509500029999998
 20
13.170761109999999
 10
16.464550029999998
 20
13.18826294
 10
16.44475985
 20
13.21182251
 10
16.4418397
 20
13.23768234
 10
16.45740987
 20
13.252021789999999
 10
16.65761948
 20
13.27885437
 10
17.15606976
 20
13.28240204
 10
17.15606976
 20
9.95883179
 10
18.48685981
 20
9.987342839999998
 10
18.50985003
 20
12.745990749999999
 10
18.825579649999998
 20
12.776794429999999
 10
20.03676987
 20
9.95904923
 10
21.41687966
 20
9.987342839999998
 10
21.82959986
 20
10.933422089999999
 10
21.90716983
 20
11.09798431
 10
21.93530977
 20
11.118835449999999
 10
21.95567978
 20
10.563522339999999
 10
21.97196985
 20
9.41830063
 10
21.996549729999998
 20
9.269802094
 10
22.02182985
 20
9.248592378
 10
22.05620981
 20
9.252193451999998
 10
22.076109889999998
 20
9.275962831
 10
22.08647979
 20
9.340450288
 10
22.105619909999998
 20
9.609661099999999
 10
22.111429819999998
 20
11.60229111
 10
22.903259821
 20
13.456993099999998
 10
22.926329797999998
 20
9.191902162
 10
22.940599805999998
 20
8.491210938499998
 10
22.959689803
 20
8.060611726
 10
22.976069815
 20
8.031291963
 10
23.027039773
 20
8.015010834999998
 10
23.04732979
 20
7.989803315
 10
23.076229817999998
 20
7.665092468999999
 10
23.082059808
 20
5.727821349999999
 10
22.766829796
 20
5.689723969999999
 10
22.702359802
 20
5.647842409999999
 10
22.681339807
 20
5.584220889999999
 10
22.698299832
 20
5.541744229999999
 10
22.751239784
 20
5.521942139999999
 10
23.082059808
 20
5.517311099999999
 10
23.082059808
 20
4.648841859999999
 10
23.321089780999998
 20
4.643405919999999
 10
23.360479779
 20
4.625434879999999
 10
23.380859799
 20
4.594062809999999
 10
23.384409807
 20
4.4667625399999995
 10
23.374389804
 20
4.433120729999999
 10
23.352099813
 20
4.410739899999999
 10
23.289479799
 20
4.395603179999999
 10
23.078819818
 20
4.393409729999999
 10
23.107609815
 20
3.192890169999999
 10
23.320409810999998
 20
3.161762239999999
 10
23.379769809
 20
3.1316909799999992
 10
23.403519800999998
 20
3.094154359999999
 10
23.62482980003
 20
3.068611149999999
 10
24.154859788
 20
3.0651740999999992
 10
24.157329745
 20
5.567665099999999
 10
24.168479807
 20
5.992931369999999
 10
24.189409799
 20
6.255802159999999
 10
24.209099777
 20
6.288131709999999
 10
24.261769777999998
 20
6.3238945
 10
24.277819818999998
 20
6.360931399999999
 10
24.294899769
 20
6.8509521499999995
 10
24.305789835
 20
7.638572693999999
 10
24.308119781
 20
12.4139328
 10
23.7254197965
 20
12.41987228
 10
23.62704980005
 20
12.443645479999999
 10
23.6010897992
 20
12.46431351
 10
23.5929698007
 20
12.492923739999998
 10
23.612499799
 20
12.532985689999999
 10
23.6637498023
 20
12.557441709999999
 10
23.892359799999998
 20
12.571853639999999
 10
23.958049781
 20
12.590072629999998
 10
23.996239818
 20
12.62454605
 10
24.046519792999998
 20
12.72325134
 10
24.113909788
 20
12.757942199999999
 10
24.193359799
 20
12.76824951
 10
24.742349869999998
 20
12.77131271
 10
24.70841981
 20
13.48674393
 10
24.308119781
 20
13.48674393
 10
24.308119781
 20
15.83670044
 10
24.587329812
 20
15.841011049999999
 10
24.63506985
 20
15.85860443
 10
24.65492988
 20
15.88313294
 10
24.66316987
 20
15.922485349999999
 10
24.66571975
 20
16.0921402
 10
25.89178992
 20
16.0921402
 10
25.88819981
 20
15.712921139999999
 10
25.86898971
 20
15.661399839999998
 10
25.82555986
 20
15.63771057
 10
25.53083981
 20
15.63236237
 10
25.5597297
 20
14.482925419999999
 10
25.98671985
 20
14.45126343
 10
26.0754397
 20
14.41661453
 10
26.093409779999998
 20
14.39361954
 10
26.0941999
 20
14.36500931
 10
26.0539496
 20
14.32710266
 10
25.96943975
 20
14.30873489
 10
25.53418983
 20
14.304122929999998
 10
25.53418983
 20
12.828502659999998
 10
25.25936986
 20
12.80749893
 10
25.13851977
 20
12.77866364
 10
25.10286976
 20
12.742713929999999
 10
25.0727197
 20
12.64429093
 10
25.04675985
 20
12.603393559999999
 10
25.00409973
 20
12.57182312
 10
24.878519779999998
 20
12.524223329999998
 10
24.84121979
 20
12.48439026
 10
24.827419759999998
 20
12.441593169999999
 10
24.85556973
 20
12.387672429999999
 10
24.93605984
 20
12.367443089999998
 10
25.53418983
 20
12.362853999999999
 10
25.531499869999998
 20
11.820129399999999
 10
25.51977981
 20
11.75379181
 10
25.48240984
 20
11.71108246
 10
25.31323982
 20
11.679962159999999
 10
25.28789986
 20
11.64952469
 10
25.27886976
 20
11.590755459999999
 10
25.29580975
 20
11.53048325
 10
25.3432299
 20
11.5023346
 10
25.63514972
 20
11.49438095
 10
25.658469919999998
 20
8.432743073
 10
25.69282985
 20
7.628181457999999
 10
25.702869659999998
 20
7.603309631999999
 10
25.726989749999998
 20
7.587772369999999
 10
25.761649849999998
 20
7.592842102999999
 10
25.78164983
 20
7.621082306999999
 10
25.81352974
 20
7.955505371999999
 10
25.84258986
 20
9.961803439999999
 10
25.98131991
 20
9.962551119999999
 10
26.04156996
 20
9.977531429999999
 10
26.08865977
 20
10.01636505
 10
26.14103986
 20
10.11574555
 10
26.22686983
 20
10.154113769999999
 10
27.01568962
 20
10.16614914
 10
27.01568962
 20
11.49438095
 10
26.72487975
 20
11.50226212
 10
26.675499679999998
 20
11.5302124
 10
26.65818001
 20
11.58511353
 10
26.665939809999998
 20
11.635013579999999
 10
26.690679799999998
 20
11.66501999
 10
26.83723975
 20
11.686275479999999
 10
26.87663985
 20
11.72265244
 10
26.89831973
 20
11.82945252
 10
26.91938973
 20
12.107421879999999
 10
28.08849002
 20
12.107421879999999
 10
28.090859899999998
 20
9.46567917
 10
28.101849559999998
 20
9.029483796
 10
28.12169982
 20
8.768680573
 10
28.14799977
 20
8.739112854999998
 10
28.18577004
 20
8.740741731
 10
28.20901967
 20
8.770542145999999
 10
28.2209096
 20
8.902332307
 10
28.2393899
 20
9.463512421999999
 10
28.24174977
 20
12.097049709999999
 10
28.71751977
 20
12.145942689999998
 10
29.09025002
 20
12.21494293
 10
29.53556967
 20
12.34753037
 10
29.6768899
 20
12.420612339999998
 10
29.741699699999998
 20
12.48052216
 10
29.73954964
 20
12.49732208
 10
29.71840955
 20
12.506061549999998
 10
29.256789689999998
 20
12.52010346
 10
29.20185948
 20
12.53141022
 10
29.19498969
 20
12.552120209999998
 10
29.243969919999998
 20
12.60091019
 10
29.323549749999998
 20
12.640129089999999
 10
29.40989972
 20
12.663890839999999
 10
29.52132989
 20
12.675899509999999
 10
29.59840966
 20
12.70516968
 10
29.67694951
 20
12.75440979
 10
29.78911973
 20
12.85363007
 10
29.86542989
 20
12.8947525
 10
29.95764971
 20
12.92093277
 10
30.235549929999998
 20
12.955112459999999
 10
30.286589629999998
 20
12.97772217
 10
30.33468962
 20
13.021884919999998
 10
30.47443963
 20
13.279552459999998
 10
30.56644011
 20
13.53778458
 10
30.619150169999998
 20
13.80249405
 10
30.66833974
 20
14.278579709999999
 10
31.28137971
 20
14.278579709999999
 10
31.31122018
 20
13.48674393
 10
31.085399629999998
 20
13.483062749999998
 10
31.02470971
 20
13.45901108
 10
31.00390959
 20
13.40132904
 10
31.00421
 20
13.10846329
 10
31.0216899
 20
13.058902739999999
 10
31.05450965
 20
13.035140989999999
 10
31.30691958
 20
13.026973729999998
 10
31.30691958
 20
10.67700958
 10
31.48126984
 20
10.672161099999999
 10
31.52200938
 20
10.657932279999999
 10
31.54501963
 20
10.62847519
 10
31.55978966
 20
10.548553469999998
 10
31.5623498
 20
9.961803439999999
 10
32.02213002
 20
9.961803439999999
 10
32.02444936
 20
6.512233739999999
 10
32.05274964
 20
5.611343379999999
 10
32.06285001
 20
5.585571289999999
 10
32.08782006
 20
5.569713589999999
 10
32.12433053
 20
5.576129909999999
 10
32.14396001
 20
5.605369569999999
 10
32.16216946
 20
5.947280879999999
 10
32.17305947
 20
6.512233739999999
 10
32.17537976
 20
9.961803439999999
 10
32.55962945
 20
9.97349167
 10
32.61997987
 20
10.006881709999998
 10
32.662170419999995
 20
10.09106445
 10
32.69196988
 20
10.118762969999999
 10
32.76373006
 20
10.14465332
 10
32.876110080000004
 20
10.158081059999999
 10
34.1902494
 20
10.164081569999999
 10
34.4264498
 20
10.14691925
 10
34.5068293
 20
10.10993195
 10
34.5408897
 20
10.00550079
 10
34.5909395
 20
9.97354126
 10
35.0872898
 20
9.961803439999999
 10
35.09408
 20
9.345851899
 10
35.121789899999996
 20
9.272644044
 10
35.1929894
 20
9.24660492
 10
35.2648897
 20
9.272205353999999
 10
35.2893896
 20
9.346702576999999
 10
35.2736702
 20
9.93626404
 10
43.5675907
 20
9.962402339999999
 10
43.5726795
 20
9.178413392
 10
43.5987511
 20
9.078372955999999
 10
43.630029699999994
 20
9.051769257999998
 10
43.6735096
 20
9.042331697
 10
43.712801
 20
9.053539276999999
 10
43.74296
 20
9.081432343
 10
43.7668514
 20
9.178340913
 10
43.7719402
 20
9.961803439999999
 10
44.231708499999996
 20
9.961803439999999
 10
44.231708499999996
 20
10.67700958
 10
45.7173195
 20
10.680782319999999
 10
45.893259099999995
 20
10.70169067
 10
45.9453411
 20
10.728282929999999
 10
45.967100200000004
 20
10.764862059999999
 10
45.9656296
 20
10.799079899999999
 10
45.9453411
 20
10.8300705
 10
45.847309100000004
 20
10.867084499999999
 10
45.6521187
 20
10.87926102
 10
44.619298900000004
 20
10.883903499999999
 10
44.3892288
 20
10.895252229999999
 10
44.253959699999996
 20
10.92036057
 10
44.2355709
 20
10.94019318
 10
44.2240295
 20
10.98298264
 10
44.200050399999995
 20
11.000598909999999
 10
43.976278300000004
 20
11.021160129999998
 10
43.5980301
 20
11.032222749999999
 10
41.8315315
 20
11.03652954
 10
41.4892197
 20
11.050540929999999
 10
41.3434296
 20
11.0873642
 10
41.3234291
 20
11.11562348
 10
41.3066807
 20
11.19680023
 10
41.265350299999994
 20
11.227832799999998
 10
40.9622002
 20
11.238952639999999
 10
40.9622002
 20
12.567192079999998
 10
41.8263683
 20
12.567192079999998
 10
41.860788400000004
 20
11.89144135
 10
41.895401
 20
11.793121339999999
 10
41.921310399999996
 20
11.768501279999999
 10
41.95541
 20
11.75838089
 10
41.9860096
 20
11.766429899999999
 10
42.009868600000004
 20
11.79009247
 10
42.0299301
 20
11.87517166
 10
42.0350094
 20
12.567192079999998
 10
43.2099896
 20
12.567192079999998
 10
43.2099896
 20
13.69108963
 10
42.0350094
 20
13.69108963
 10
42.0350094
 20
15.12150192
 10
44.1295395
 20
15.12150192
 10
44.1295395
 20
16.0921402
 10
44.613409000000004
 20
16.095142369999998
 10
44.691490200000004
 20
16.10916138
 10
44.7308292
 20
16.14430237
 10
44.7411194
 20
16.20785141
 10
44.7140198
 20
16.247364049999998
 10
44.6539383
 20
16.26779175
 10
44.5605793
 20
16.282741549999997
 10
44.2647896
 20
16.294551849999998
 10
42.0350094
 20
16.296482089999998
 10
42.0291882
 20
16.67955399
 10
42.0072689
 20
16.73295212
 10
41.959588999999994
 20
16.74827194
 10
41.8958798
 20
16.71882248
 10
41.8590794
 20
16.64647293
 10
41.824789100000004
 20
16.296482089999998
 10
40.4307594
 20
16.28819275
 10
40.3371391
 20
16.27553177
 10
40.273531
 20
16.249752049999998
 10
40.245170599999994
 20
16.2228508
 10
40.2004108
 20
16.13772202
 10
40.1260796
 20
16.10284424
 10
39.5769997
 20
16.0921402
 10
39.6075697
 20
15.73629379
 10
39.6285391
 20
15.68935013
 10
39.6828499
 20
15.657703399999999
 10
39.967880300000004
 20
15.620243069999999
 10
40.024889
 20
15.58991242
 10
40.0426502
 20
15.552795409999998
 10
40.015758500000004
 20
15.50863266
 10
39.9446697
 20
15.48536301
 10
39.5828686
 20
15.479103089999999
 10
39.5828686
 20
14.661735539999999
 10
39.1177597
 20
14.661735539999999
 10
39.1486397
 20
14.12532044
 10
39.5828686
 20
14.093902589999999
 10
39.5828686
 20
13.026973729999998
 10
39.0859394
 20
13.020744319999999
 10
38.998660099999995
 20
12.995815279999999
 10
38.9755097
 20
12.97302246
 10
38.9703798
 20
12.9431839
 10
39.0069199
 20
12.900001529999999
 10
39.0859394
 20
12.87994385
 10
39.5828686
 20
12.87371445
 10
39.5828686
 20
11.238952639999999
 10
39.8341904
 20
11.236843109999999
 10
39.902729
 20
11.2232132
 10
39.934900299999995
 20
11.17506409
 10
39.945539499999995
 20
10.949043269999999
 10
39.9638004
 20
10.909152989999999
 10
40.0094395
 20
10.886123659999999
 10
40.3001785
 20
10.867012019999999
 10
40.3381786
 20
10.83368301
 10
40.346960100000004
 20
10.758522029999998
 10
40.3091698
 20
10.70211029
 10
40.2260208
 20
10.681713109999999
 10
39.5828686
 20
10.67700958
 10
39.5828686
 20
10.16614914
 10
38.2546301
 20
10.16614914
 10
38.2546301
 20
11.034610749999999
 10
37.0796499
 20
11.034610749999999
 10
37.0717497
 20
10.592132569999999
 10
37.0377398
 20
10.538249969999999
 10
36.9519396
 20
10.52375412
 10
36.8661394
 20
10.538249969999999
 10
36.8321295
 20
10.592132569999999
 10
36.8242197
 20
11.034610749999999
 10
35.0872898
 20
11.034610749999999
 10
35.0872898
 20
12.66936874
 10
34.7042294
 20
12.67518234
 10
34.6522102
 20
12.69571304
 10
34.6355
 20
12.741260529999998
 10
34.6577702
 20
12.801052089999999
 10
34.7275906
 20
12.842380519999999
 10
35.0872898
 20
12.87958145
 10
35.0872898
 20
14.457382199999998
 10
36.0174599
 20
14.46342087
 10
36.117109299999996
 20
14.487022399999999
 10
36.1462498
 20
14.51435471
 10
36.1594505
 20
14.549301149999998
 10
36.1529303
 20
14.59280014
 10
36.1244001
 20
14.6271019
 10
36.0174599
 20
14.655681609999998
 10
35.0872898
 20
14.661735539999999
 10
35.0872898
 20
15.83670044
 10
35.2540293
 20
15.838844299999998
 10
35.3126707
 20
15.858112339999998
 10
35.3361902
 20
15.896621709999998
 10
35.3517399
 20
16.04112244
 10
35.3869705
 20
16.078353879999998
 10
35.6200199
 20
16.09693146
 10
35.6731997
 20
16.11770249
 10
35.6948299
 20
16.15415192
 10
35.6985102
 20
16.21131897
 10
35.6801901
 20
16.247631069999997
 10
35.6416397
 20
16.27494049
 10
35.5260296
 20
16.292964939999997
 10
35.1639195
 20
16.296482089999998
 10
34.833549500000004
 20
16.29411316
 10
34.7030201
 20
16.28036118
 10
34.6433506
 20
16.24230957
 10
34.6157799
 20
16.14430237
 10
34.5815697
 20
16.11112213
 10
34.5097103
 20
16.09575272
 10
34.073109599999995
 20
16.079662319999997
 10
34.0268002
 20
16.04232407
 10
34.007449199999996
 20
15.89411163
 10
33.97824
 20
15.85414505
 10
33.9162598
 20
15.83890915
 10
33.7079697
 20
15.83670044
 10
33.7079697
 20
14.661735539999999
 10
33.9375296
 20
14.65943146
 10
34.0217695
 20
14.639430999999998
 10
34.05793
 20
14.60798264
 10
34.0972195
 20
14.519840239999999
 10
34.1331797
 20
14.48258209
 10
34.1912899
 20
14.461391449999999
 10
34.3107195
 20
14.451091769999998
 10
34.3437796
 20
14.43441391
 10
34.364799500000004
 20
14.400672909999999
 10
34.3720894
 20
14.329662319999999
 10
34.35291
 20
14.240631099999998
 10
34.289039599999995
 20
14.208904269999998
 10
33.7079697
 20
14.201950069999999
 10
33.7079697
 20
12.87371445
 10
33.20143033
 20
12.869010929999998
 10
33.12666989
 20
12.8464241
 10
33.09650994
 20
12.790302279999999
 10
33.11327935
 20
12.710391999999999
 10
33.17897034
 20
12.67763138
 10
33.7079697
 20
12.66936874
 10
33.7079697
 20
10.31940079
 10
32.6351595
 20
10.31940079
 10
32.6351595
 20
13.026973729999998
 10
32.47126008
 20
13.029090879999998
 10
32.42675973
 20
13.038330079999998
 10
32.40201951
 20
13.05876541
 10
32.38321019
 20
13.119953159999998
 10
32.38321019
 20
13.39376068
 10
32.39959908
 20
13.45098114
 10
32.428910259999995
 20
13.47625351
 10
32.6351595
 20
13.48674393
 10
32.6351595
 20
14.866073609999999
 10
32.882180219999995
 20
14.874382019999999
 10
32.92708016
 20
14.90497971
 10
32.94163895
 20
14.96486282
 10
32.92838002
 20
15.02938461
 10
32.88632966
 20
15.060760499999999
 10
32.6351595
 20
15.07041168
 10
32.6351595
 20
16.296482089999998
 10
32.17537976
 20
16.296482089999998
 10
32.16896058
 20
15.842411039999998
 10
32.14866925
 20
15.76903153
 10
32.10612012
 20
15.735092159999999
 10
32.077330599999996
 20
15.73942185
 10
32.05370999
 20
15.76137161
 10
32.02855015
 20
15.842411039999998
 10
32.02213002
 20
16.296482089999998
 10
31.62377978
 20
16.28548431
 10
31.57546998
 20
16.251651759999998
 10
31.55418969
 20
16.14391327
 10
31.52486945
 20
16.10897064
 10
31.45890952
 20
16.093013759999998
 10
31.30691958
 20
16.0921402
 10
31.30691958
 20
15.07041168
 10
31.65711022
 20
15.05895996
 10
31.70674897
 20
15.01832199
 10
31.70888997
 20
14.93881989
 10
31.68401051
 20
14.902503969999998
 10
31.63444997
 20
14.87446976
 10
31.38786984
 20
14.82149887
 10
31.33473969
 20
14.789920809999998
 10
31.31651974
 20
14.758205409999999
 10
31.30874968
 20
14.704914089999999
 10
31.30691958
 20
14.508472439999998
 10
30.659060009999997
 20
14.508472439999998
 10
30.58714009
 20
14.826011659999999
 10
30.50326968
 20
15.062133789999999
 10
30.38800956
 20
15.30293274
 10
30.19047976
 20
15.63236237
 10
30.439340119999997
 20
15.634784699999999
 10
30.464449889999997
 20
15.64679337
 10
30.46857978
 20
15.66479111
 10
30.40158988
 20
15.74705124
 10
30.21260977
 20
15.88061142
 10
29.95301963
 20
16.02296448
 10
29.78802968
 20
16.073173519999997
 10
29.08329964
 20
16.1142807
 10
28.87380934
 20
16.14547348
 10
28.67705012
 20
16.19631195
 10
28.34954978
 20
16.25521088
 10
27.83305979
 20
16.30968475
 10
27.82943011
 20
18.18305969
 10
27.80503941
 20
18.41462326
 10
27.77754975
 20
18.4732399
 10
27.7308898
 20
18.49319077
 10
27.686109549999998
 20
18.475109099999997
 10
27.66125012
 20
18.427997589999997
 10
27.6340499
 20
18.22182083
 10
27.62871981
 20
16.296482089999998
  0
LWPOLYLINE
  5
42
330
17
100
AcDbEntity
  8
0
100
AcDbPolyline
 90
12
 70
1
 10
14.99263955
 20
13.12863159
 10
15.01005936
 20
12.966712949999998
 10
15.00450993
 20
12.77399063
 10
14.977729799999999
 20
12.69333267
 10
14.95586968
 20
12.674392699999999
 10
14.926250459999999
 20
12.669933319999998
 10
14.88327981
 20
12.703109739999999
 10
14.86314011
 20
12.77399063
 10
14.86314011
 20
13.075603489999999
 10
14.8795395
 20
13.139549259999999
 10
14.91376019
 20
13.176090239999999
 10
14.95969964
 20
13.173141479999998
  0
LWPOLYLINE
  5
43
330
17
100
AcDbEntity
  8
0
100
AcDbPolyline
 90
12
 70
1
 10
2.6092987
 20
12.276969909999998
 10
2.7480583000000003
 20
12.307224269999999
 10
3.0074901999999994
 20
12.308204649999999
 10
3.0795898999999984
 20
12.2867012
 10
3.098878899999999
 20
12.22889328
 10
3.0694598999999982
 20
12.172344209999999
 10
3.000490199999998
 20
12.13700104
 10
2.8573398999999995
 20
12.11691284
 10
2.7124480999999996
 20
12.11731339
 10
2.6111487999999987
 20
12.133991239999999
 10
2.5723380999999996
 20
12.16500473
 10
2.561910600000001
 20
12.23205185
  0
LWPOLYLINE
  5
44
330
17
100
AcDbEntity
  8
0
100
AcDbPolyline
 90
12
 70
1
 10
17.96391011
 20
13.11637116
 10
17.948019509999998
 20
13.030029299999999
 10
17.9200697
 20
12.97618103
 10
17.87936974
 20
12.950942989999998
 10
17.834509859999997
 20
12.96435547
 10
17.80316973
 20
13.007701869999998
 10
17.7832799
 20
13.080703739999999
 10
17.77393962
 20
13.21063233
 10
17.78998948
 20
13.25870514
 10
17.86179972
 20
13.28219223
 10
17.945439819999997
 20
13.26587296
 10
17.96799994
 20
13.21848297
  0
LWPOLYLINE
  5
45
330
17
100
AcDbEntity
  8
0
100
AcDbPolyline
 90
11
 70
1
 10
23.225969797999998
 20
5.523155209999999
 10
23.160629816
 20
5.546859739999999
 10
23.134129769999998
 20
5.604270939999999
 10
23.148689784
 20
5.67795181
 10
23.198739804
 20
5.7099151599999995
 10
23.5930697987
 20
5.717063899999999
 10
23.6613198029
 20
5.696990969999999
 10
23.6911898026
 20
5.649631499999999
 10
23.6821497971
 20
5.565620419999999
 10
23.62949980002
 20
5.529048919999999
 10
23.414119787
 20
5.517311099999999
  0
LWPOLYLINE
  5
46
330
17
100
AcDbEntity
  8
0
100
AcDbPolyline
 90
13
 70
1
 10
42.7232189
 20
10.68000412
 10
42.3122902
 20
10.68774414
 10
42.2546597
 20
10.72261047
 10
42.240240099999994
 20
10.76508331
 10
42.242889399999996
 20
10.807155609999999
 10
42.2733097
 20
10.85569
 10
42.34585
 20
10.87665176
 10
42.7794495
 20
10.870620729999999
 10
42.8161488
 20
10.857223509999999
 10
42.838459
 20
10.83336258
 10
42.8514996
 20
10.793281559999999
 10
42.84758
 20
10.74667358
 10
42.8113995
 20
10.698360439999998
  0
LWPOLYLINE
  5
47
330
17
100
AcDbEntity
  8
0
100
AcDbPolyline
 90
8
 70
1
 10
40.9622002
 20
13.69108963
 10
41.830658
 20
13.69108963
 10
41.830658
 20
15.12150192
 10
40.9622002
 20
15.12150192
 10
40.9622002
 20
14.661735539999999
 10
40.5024204
 20
14.661735539999999
 10
40.5024204
 20
14.09978104
 10
40.9622002
 20
14.09978104
  0
LWPOLYLINE
  5
48
330
17
100
AcDbEntity
  8
0
100
AcDbPolyline
 90
14
 70
1
 10
32.35138989
 20
11.204471589999999
 10
32.33537961
 20
11.03699494
 10
32.31519032
 20
10.97982025
 10
32.29186917
 20
10.96041107
 10
32.2571497
 20
10.962951659999998
 10
32.23340989
 20
10.99142075
 10
32.19927979
 20
11.153812409999999
 10
32.18391991
 20
11.862930299999999
 10
32.20644952
 20
11.986942289999998
 10
32.23428918
 20
12.0302124
 10
32.26731969
 20
12.04605103
 10
32.29932023
 20
12.03946304
 10
32.31919003
 20
12.01571274
 10
32.34482003
 20
11.8494339
  0
ENDSEC
  0
SECTION
  2
OBJECTS
  0
DICTIONARY
  5
A
330
0
100
AcDbDictionary
281
1
  3
ACAD_COLOR
350
B
  3
ACAD_GROUP
350
C
  3
ACAD_LAYOUT
350
D
  3
ACAD_MATERIAL
350
E
  3
ACAD_MLEADERSTYLE
350
F
  3
ACAD_MLINESTYLE
350
10
  3
ACAD_PLOTSETTINGS
350
11
  3
ACAD_PLOTSTYLENAME
350
12
  3
ACAD_SCALELIST
350
14
  3
ACAD_TABLESTYLE
350
15
  3
ACAD_VISUALSTYLE
350
16
  3
EZDXF_META
350
2D
  0
DICTIONARY
  5
B
330
A
100
AcDbDictionary
281
1
  0
DICTIONARY
  5
C
330
A
100
AcDbDictionary
281
1
  0
DICTIONARY
  5
D
330
A
100
AcDbDictionary
281
1
  3
Model
350
1A
  3
Layout1
350
1E
  0
DICTIONARY
  5
E
330
A
100
AcDbDictionary
281
1
  3
ByBlock
350
1F
  3
ByLayer
350
20
  3
Global
350
21
  0
DICTIONARY
  5
F
330
A
100
AcDbDictionary
281
1
  3
Standard
350
2C
  0
DICTIONARY
  5
10
330
A
100
AcDbDictionary
281
1
  3
Standard
350
22
  0
DICTIONARY
  5
11
330
A
100
AcDbDictionary
281
1
  0
ACDBDICTIONARYWDFLT
  5
12
330
A
100
AcDbDictionary
281
1
  3
Normal
350
13
100
AcDbDictionaryWithDefault
340
13
  0
ACDBPLACEHOLDER
  5
13
330
12
  0
DICTIONARY
  5
14
330
A
100
AcDbDictionary
281
1
  0
DICTIONARY
  5
15
330
A
100
AcDbDictionary
281
1
  0
DICTIONARY
  5
16
330
A
100
AcDbDictionary
281
1
  0
LAYOUT
  5
1A
330
D
100
AcDbPlotSettings
  1

  4
A3
  6

 40
7.5
 41
20.0
 42
7.5
 43
20.0
 44
420.0
 45
297.0
 46
0.0
 47
0.0
 48
0.0
 49
0.0
140
0.0
141
0.0
142
1.0
143
1.0
 70
1024
 72
1
 73
0
 74
5
  7

 75
16
 76
0
 77
2
 78
300
147
1.0
148
0.0
149
0.0
100
AcDbLayout
  1
Model
 70
1
 71
0
 10
0.0
 20
0.0
 11
420.0
 21
297.0
 12
0.0
 22
0.0
 32
0.0
 14
1e+20
 24
1e+20
 34
1e+20
 15
-1e+20
 25
-1e+20
 35
-1e+20
146
0.0
 13
0.0
 23
0.0
 33
0.0
 16
1.0
 26
0.0
 36
0.0
 17
0.0
 27
1.0
 37
0.0
 76
1
330
17
  0
LAYOUT
  5
1E
330
D
100
AcDbPlotSettings
  1

  4
A3
  6

 40
7.5
 41
20.0
 42
7.5
 43
20.0
 44
420.0
 45
297.0
 46
0.0
 47
0.0
 48
0.0
 49
0.0
140
0.0
141
0.0
142
1.0
143
1.0
 70
0
 72
1
 73
0
 74
5
  7

 75
16
 76
0
 77
2
 78
300
147
1.0
148
0.0
149
0.0
100
AcDbLayout
  1
Layout1
 70
1
 71
1
 10
0.0
 20
0.0
 11
420.0
 21
297.0
 12
0.0
 22
0.0
 32
0.0
 14
1e+20
 24
1e+20
 34
1e+20
 15
-1e+20
 25
-1e+20
 35
-1e+20
146
0.0
 13
0.0
 23
0.0
 33
0.0
 16
1.0
 26
0.0
 36
0.0
 17
0.0
 27
1.0
 37
0.0
 76
1
330
1B
  0
MATERIAL
  5
1F
102
{ACAD_REACTORS
330
E
102
}
330
E
100
AcDbMaterial
  1
ByBlock
  2

 70
0
 40
1.0
 71
1
 41
1.0
 91
-1023410177
 42
1.0
 72
1
  3

 73
1
 74
1
 75
1
 44
0.5
 73
0
 45
1.0
 46
1.0
 77
1
  4

 78
1
 79
1
170
1
 48
1.0
171
1
  6

172
1
173
1
174
1
140
1.0
141
1.0
175
1
  7

176
1
177
1
178
1
143
1.0
179
1
  8

270
1
271
1
272
1
145
1.0
146
1.0
273
1
  9

274
1
275
1
276
1
 42
1.0
 72
1
  3

 73
1
 74
1
 75
1
 94
63
  0
MATERIAL
  5
20
102
{ACAD_REACTORS
330
E
102
}
330
E
100
AcDbMaterial
  1
ByLayer
  2

 70
0
 40
1.0
 71
1
 41
1.0
 91
-1023410177
 42
1.0
 72
1
  3

 73
1
 74
1
 75
1
 44
0.5
 73
0
 45
1.0
 46
1.0
 77
1
  4

 78
1
 79
1
170
1
 48
1.0
171
1
  6

172
1
173
1
174
1
140
1.0
141
1.0
175
1
  7

176
1
177
1
178
1
143
1.0
179
1
  8

270
1
271
1
272
1
145
1.0
146
1.0
273
1
  9

274
1
275
1
276
1
 42
1.0
 72
1
  3

 73
1
 74
1
 75
1
 94
63
  0
MATERIAL
  5
21
102
{ACAD_REACTORS
330
E
102
}
330
E
100
AcDbMaterial
  1
Global
  2

 70
0
 40
1.0
 71
1
 41
1.0
 91
-1023410177
 42
1.0
 72
1
  3

 73
1
 74
1
 75
1
 44
0.5
 73
0
 45
1.0
 46
1.0
 77
1
  4

 78
1
 79
1
170
1
 48
1.0
171
1
  6

172
1
173
1
174
1
140
1.0
141
1.0
175
1
  7

176
1
177
1
178
1
143
1.0
179
1
  8

270
1
271
1
272
1
145
1.0
146
1.0
273
1
  9

274
1
275
1
276
1
 42
1.0
 72
1
  3

 73
1
 74
1
 75
1
 94
63
  0
MLINESTYLE
  5
22
102
{ACAD_REACTORS
330
10
102
}
330
10
100
AcDbMlineStyle
  2
Standard
 70
0
  3

 62
256
 51
90.0
 52
90.0
 71
2
 49
0.5
 62
256
  6
BYLAYER
 49
-0.5
 62
256
  6
BYLAYER
  0
MLEADERSTYLE
  5
2C
102
{ACAD_REACTORS
330
F
102
}
330
F
100
AcDbMLeaderStyle
179
2
170
2
171
1
172
0
 90
2
 40
0.0
 41
0.0
173
1
 91
-1056964608
 92
-2
290
1
 42
2.0
291
1
 43
8.0
  3
Standard
 44
4.0
300

342
29
174
1
175
1
176
0
178
1
 93
-1056964608
 45
4.0
292
0
297
0
 46
4.0
 94
-1056964608
 47
1.0
 49
1.0
140
1.0
294
1
141
0.0
177
0
142
1.0
295
0
296
0
143
3.75
271
0
272
9
273
9
  0
DICTIONARY
  5
2D
330
A
100
AcDbDictionary
280
1
281
1
  3
CREATED_BY_EZDXF
350
2E
  3
WRITTEN_BY_EZDXF
350
4B
  0
DICTIONARYVAR
  5
2E
330
2D
100
DictionaryVariables
280
0
  1
1.4.4 @ 2026-08-14T21:45:27.947409+00:00
  0
DICTIONARYVAR
  5
4B
330
2D
100
DictionaryVariables
280
0
  1
1.4.4 @ 2026-08-14T21:45:27.950540+00:00
  0
ENDSEC
  0
EOF
