  0
SECTION
  2
HEADER
  9
$ACADVER
  1
AC1032
  9
$ACADMAINTVER
 90
       55
  9
$DWGCODEPAGE
  3
ANSI_1252
  9
$LASTSAVEDBY
  1
allan
  9
$REQUIREDVERSIONS
160
                 0
  9
$INSBASE
 10
0.0
 20
0.0
 30
0.0
  9
$EXTMIN
 10
-462.1024161927675
 20
-206.2478140341364
 30
0.0
  9
$EXTMAX
 10
437.72403953425
 20
155.7521859658636
 30
0.0
  9
$LIMMIN
 10
0.0
 20
0.0
  9
$LIMMAX
 10
12.0
 20
9.0
  9
$ORTHOMODE
 70
     0
  9
$REGENMODE
 70
     1
  9
$FILLMODE
 70
     1
  9
$QTEXTMODE
 70
     0
  9
$MIRRTEXT
 70
     0
  9
$LTSCALE
 40
1.0
  9
$ATTMODE
 70
     1
  9
$TEXTSIZE
 40
0.2
  9
$TRACEWID
 40
0.05
  9
$TEXTSTYLE
  7
Standard
  9
$CLAYER
  8
0
  9
$CELTYPE
  6
ByLayer
  9
$CECOLOR
 62
   256
  9
$CELTSCALE
 40
1.0
  9
$DISPSILH
 70
     0
  9
$DIMSCALE
 40
1.0
  9
$DIMASZ
 40
2.5
  9
$DIMEXO
 40
0.625
  9
$DIMDLI
 40
5.0
  9
$DIMRND
 40
0.0
  9
$DIMDLE
 40
0.0
  9
$DIMEXE
 40
1.25
  9
$DIMTP
 40
0.0
  9
$DIMTM
 40
0.0
  9
$DIMTXT
 40
2.5
  9
$DIMCEN
 40
0.09
  9
$DIMTSZ
 40
0.0
  9
$DIMTOL
 70
     0
  9
$DIMLIM
 70
     0
  9
$DIMTIH
 70
     0
  9
$DIMTOH
 70
     1
  9
$DIMSE1
 70
     0
  9
$DIMSE2
 70
     0
  9
$DIMTAD
 70
     1
  9
$DIMZIN
 70
     8
  9
$DIMBLK
  1

  9
$DIMASO
 70
     1
  9
$DIMSHO
 70
     1
  9
$DIMPOST
  1

  9
$DIMAPOST
  1

  9
$DIMALT
 70
     0
  9
$DIMALTD
 70
     2
  9
$DIMALTF
 40
25.4
  9
$DIMLFAC
 40
1.0
  9
$DIMTOFL
 70
     0
  9
$DIMTVP
 40
0.0
  9
$DIMTIX
 70
     0
  9
$DIMSOXD
 70
     0
  9
$DIMSAH
 70
     0
  9
$DIMBLK1
  1

  9
$DIMBLK2
  1

  9
$DIMSTYLE
  2
Standard
  9
$DIMCLRD
 70
     0
  9
$DIMCLRE
 70
     0
  9
$DIMCLRT
 70
     0
  9
$DIMTFAC
 40
1.0
  9
$DIMGAP
 40
0.625
  9
$DIMJUST
 70
     0
  9
$DIMSD1
 70
     0
  9
$DIMSD2
 70
     0
  9
$DIMTOLJ
 70
     1
  9
$DIMTZIN
 70
     0
  9
$DIMALTZ
 70
     0
  9
$DIMALTTZ
 70
     0
  9
$DIMUPT
 70
     0
  9
$DIMDEC
 70
     4
  9
$DIMTDEC
 70
     4
  9
$DIMALTU
 70
     2
  9
$DIMALTTD
 70
     2
  9
$DIMTXSTY
  7
Standard
  9
$DIMAUNIT
 70
     0
  9
$DIMADEC
 70
     0
  9
$DIMALTRND
 40
0.0
  9
$DIMAZIN
 70
     2
  9
$DIMDSEP
 70
    46
  9
$DIMATFIT
 70
     0
  9
$DIMFRAC
 70
     0
  9
$DIMLDRBLK
  1

  9
$DIMLUNIT
 70
     2
  9
$DIMLWD
 70
    -2
  9
$DIMLWE
 70
    -2
  9
$DIMTMOVE
 70
     0
  9
$DIMFXL
 40
1.0
  9
$DIMFXLON
 70
     0
  9
$DIMJOGANG
 40
0.7853981633974483
  9
$DIMTFILL
 70
     0
  9
$DIMTFILLCLR
 70
     0
  9
$DIMARCSYM
 70
     0
  9
$DIMLTYPE
  6

  9
$DIMLTEX1
  6

  9
$DIMLTEX2
  6

  9
$DIMTXTDIRECTION
 70
     0
  9
$LUNITS
 70
     2
  9
$LUPREC
 70
     4
  9
$SKETCHINC
 40
0.1
  9
$FILLETRAD
 40
0.0
  9
$AUNITS
 70
     0
  9
$AUPREC
 70
     0
  9
$MENU
  1
.
  9
$ELEVATION
 40
0.0
  9
$PELEVATION
 40
0.0
  9
$THICKNESS
 40
0.0
  9
$LIMCHECK
 70
     0
  9
$CHAMFERA
 40
0.0
  9
$CHAMFERB
 40
0.0
  9
$CHAMFERC
 40
0.0
  9
$CHAMFERD
 40
0.0
  9
$SKPOLY
 70
     0
  9
$TDCREATE
 40
2461232.411382118
  9
$TDUCREATE
 40
2461232.411382118
  9
$TDUPDATE
 40
2461232.411382222
  9
$TDUUPDATE
 40
2461232.411382222
  9
$TDINDWG
 40
0.0000000116
  9
$TDUSRTIMER
 40
0.0000000116
  9
$USRTIMER
 70
     1
  9
$ANGBASE
 50
0.0
  9
$ANGDIR
 70
     0
  9
$PDMODE
 70
     0
  9
$PDSIZE
 40
0.0
  9
$PLINEWID
 40
0.0
  9
$SPLFRAME
 70
     0
  9
$SPLINETYPE
 70
     6
  9
$SPLINESEGS
 70
     8
  9
$HANDSEED
  5
134
  9
$SURFTAB1
 70
     6
  9
$SURFTAB2
 70
     6
  9
$SURFTYPE
 70
     6
  9
$SURFU
 70
     6
  9
$SURFV
 70
     6
  9
$UCSBASE
  2

  9
$UCSNAME
  2

  9
$UCSORG
 10
0.0
 20
0.0
 30
0.0
  9
$UCSXDIR
 10
1.0
 20
0.0
 30
0.0
  9
$UCSYDIR
 10
0.0
 20
1.0
 30
0.0
  9
$UCSORTHOREF
  2

  9
$UCSORTHOVIEW
 70
     0
  9
$UCSORGTOP
 10
0.0
 20
0.0
 30
0.0
  9
$UCSORGBOTTOM
 10
0.0
 20
0.0
 30
0.0
  9
$UCSORGLEFT
 10
0.0
 20
0.0
 30
0.0
  9
$UCSORGRIGHT
 10
0.0
 20
0.0
 30
0.0
  9
$UCSORGFRONT
 10
0.0
 20
0.0
 30
0.0
  9
$UCSORGBACK
 10
0.0
 20
0.0
 30
0.0
  9
$PUCSBASE
  2

  9
$PUCSNAME
  2

  9
$PUCSORG
 10
0.0
 20
0.0
 30
0.0
  9
$PUCSXDIR
 10
1.0
 20
0.0
 30
0.0
  9
$PUCSYDIR
 10
0.0
 20
1.0
 30
0.0
  9
$PUCSORTHOREF
  2

  9
$PUCSORTHOVIEW
 70
     0
  9
$PUCSORGTOP
 10
0.0
 20
0.0
 30
0.0
  9
$PUCSORGBOTTOM
 10
0.0
 20
0.0
 30
0.0
  9
$PUCSORGLEFT
 10
0.0
 20
0.0
 30
0.0
  9
$PUCSORGRIGHT
 10
0.0
 20
0.0
 30
0.0
  9
$PUCSORGFRONT
 10
0.0
 20
0.0
 30
0.0
  9
$PUCSORGBACK
 10
0.0
 20
0.0
 30
0.0
  9
$USERI1
 70
     0
  9
$USERI2
 70
     0
  9
$USERI3
 70
     0
  9
$USERI4
 70
     0
  9
$USERI5
 70
     0
  9
$USERR1
 40
0.0
  9
$USERR2
 40
0.0
  9
$USERR3
 40
0.0
  9
$USERR4
 40
0.0
  9
$USERR5
 40
0.0
  9
$WORLDVIEW
 70
     1
  9
$SHADEDGE
 70
     3
  9
$SHADEDIF
 70
    70
  9
$TILEMODE
 70
     1
  9
$MAXACTVP
 70
    64
  9
$PINSBASE
 10
0.0
 20
0.0
 30
0.0
  9
$PLIMCHECK
 70
     0
  9
$PEXTMIN
 10
0.0
 20
0.0
 30
0.0
  9
$PEXTMAX
 10
0.0
 20
0.0
 30
0.0
  9
$PLIMMIN
 10
-20.0
 20
-7.5
  9
$PLIMMAX
 10
277.0
 20
202.5
  9
$UNITMODE
 70
     0
  9
$VISRETAIN
 70
     1
  9
$PLINEGEN
 70
     0
  9
$PSLTSCALE
 70
     1
  9
$TREEDEPTH
 70
  3020
  9
$CMLSTYLE
  2
Standard
  9
$CMLJUST
 70
     0
  9
$CMLSCALE
 40
1.0
  9
$PROXYGRAPHICS
 70
     1
  9
$MEASUREMENT
 70
     1
  9
$CELWEIGHT
370
    -1
  9
$ENDCAPS
280
     0
  9
$JOINSTYLE
280
     0
  9
$LWDISPLAY
290
     0
  9
$INSUNITS
 70
     4
  9
$HYPERLINKBASE
  1

  9
$STYLESHEET
  1

  9
$XEDIT
290
     1
  9
$CEPSNTYPE
380
     0
  9
$PSTYLEMODE
290
     1
  9
$FINGERPRINTGUID
  2
{4ccd9c7e-2155-0d4d-b86d-15d54b847803}
  9
$VERSIONGUID
  2
{FAEB1C32-E019-11D5-929B-00C0DF256EC4}
  9
$EXTNAMES
290
     1
  9
$PSVPSCALE
 40
0.0
  9
$OLESTARTUP
290
     0
  9
$SORTENTS
280
   127
  9
$INDEXCTL
280
     0
  9
$HIDETEXT
280
     1
  9
$XCLIPFRAME
280
     2
  9
$HALOGAP
280
     0
  9
$OBSCOLOR
 70
   257
  9
$OBSLTYPE
280
     0
  9
$INTERSECTIONDISPLAY
280
     0
  9
$INTERSECTIONCOLOR
 70
   257
  9
$DIMASSOC
280
     2
  9
$PROJECTNAME
  1

  9
$CAMERADISPLAY
290
     0
  9
$LENSLENGTH
 40
50.0
  9
$CAMERAHEIGHT
 40
0.0
  9
$STEPSPERSEC
 40
2.0
  9
$STEPSIZE
 40
6.0
  9
$3DDWFPREC
 40
2.0
  9
$PSOLWIDTH
 40
0.25
  9
$PSOLHEIGHT
 40
4.0
  9
$LOFTANG1
 40
1.570796326794897
  9
$LOFTANG2
 40
1.570796326794897
  9
$LOFTMAG1
 40
0.0
  9
$LOFTMAG2
 40
0.0
  9
$LOFTPARAM
 70
     7
  9
$LOFTNORMALS
280
     1
  9
$LATITUDE
 40
37.795
  9
$LONGITUDE
 40
-122.394
  9
$NORTHDIRECTION
 40
0.0
  9
$TIMEZONE
 70
 -8000
  9
$LIGHTGLYPHDISPLAY
280
     1
  9
$TILEMODELIGHTSYNCH
280
     1
  9
$CMATERIAL
347
9E
  9
$SOLIDHIST
280
     0
  9
$SHOWHIST
280
     1
  9
$DWFFRAME
280
     2
  9
$DGNFRAME
280
     2
  9
$REALWORLDSCALE
290
     1
  9
$INTERFERECOLOR
 62
   256
  9
$CSHADOW
280
     0
  9
$SHADOWPLANELOCATION
 40
0.0
  0
ENDSEC
  0
SECTION
  2
CLASSES
  0
CLASS
  1
ACDBDICTIONARYWDFLT
  2
AcDbDictionaryWithDefault
  3
ObjectDBX Classes
 90
        0
 91
        3
280
     0
281
     0
  0
CLASS
  1
VISUALSTYLE
  2
AcDbVisualStyle
  3
ObjectDBX Classes
 90
     4095
 91
        3
280
     0
281
     0
  0
CLASS
  1
MATERIAL
  2
AcDbMaterial
  3
ObjectDBX Classes
 90
     1153
 91
        3
280
     0
281
     0
  0
CLASS
  1
SCALE
  2
AcDbScale
  3
ObjectDBX Classes
 90
     1153
 91
        3
280
     0
281
     0
  0
CLASS
  1
TABLESTYLE
  2
AcDbTableStyle
  3
ObjectDBX Classes
 90
     4095
 91
        3
280
     0
281
     0
  0
CLASS
  1
MLEADERSTYLE
  2
AcDbMLeaderStyle
  3
ACDB_MLEADERSTYLE_CLASS
 90
     4095
 91
        3
280
     0
281
     0
  0
CLASS
  1
SUN
  2
AcDbSun
  3
SCENEOE
 90
     1153
 91
        3
280
     0
281
     0
  0
CLASS
  1
DICTIONARYVAR
  2
AcDbDictionaryVar
  3
ObjectDBX Classes
 90
        0
 91
        3
280
     0
281
     0
  0
CLASS
  1
CELLSTYLEMAP
  2
AcDbCellStyleMap
  3
ObjectDBX Classes
 90
     1152
 91
        3
280
     0
281
     0
  0
ENDSEC
  0
SECTION
  2
TABLES
  0
TABLE
  2
VPORT
  5
63
330
0
100
AcDbSymbolTable
 70
     1
  0
VPORT
  5
83
330
63
100
AcDbSymbolTableRecord
100
AcDbViewportTableRecord
  2
*Active
 70
     0
 10
0.0
 20
0.0
 11
1.0
 21
1.0
 12
-61.96206846482929
 22
18.0195305230412
 13
0.0
 23
0.0
 14
0.5
 24
0.5
 15
0.5
 25
0.5
 16
0.0
 26
0.0
 36
1.0
 17
0.0
 27
0.0
 37
0.0
 40
482.4394629119994
 41
1.616042780748663
 42
50.0
 43
0.0
 44
0.0
 50
0.0
 51
0.0
 71
     0
 72
   100
 73
     1
 74
     3
 75
     0
 76
     0
 77
     0
 78
     0
281
     0
 65
     1
110
0.0
120
0.0
130
0.0
111
1.0
121
0.0
131
0.0
112
0.0
122
1.0
132
0.0
 79
     0
146
0.0
348
89
 60
     3
 61
     5
292
     1
282
     1
141
0.0
142
0.0
 63
   250
361
B7
  0
ENDTAB
  0
TABLE
  2
LTYPE
  5
60
330
0
100
AcDbSymbolTable
 70
    51
  0
LTYPE
  5
6E
330
60
100
AcDbSymbolTableRecord
100
AcDbLinetypeTableRecord
  2
ByBlock
 70
     0
  3

 72
    65
 73
     0
 40
0.0
  0
LTYPE
  5
6F
330
60
100
AcDbSymbolTableRecord
100
AcDbLinetypeTableRecord
  2
ByLayer
 70
     0
  3

 72
    65
 73
     0
 40
0.0
  0
LTYPE
  5
70
330
60
100
AcDbSymbolTableRecord
100
AcDbLinetypeTableRecord
  2
Continuous
 70
     0
  3
Solid line
 72
    65
 73
     0
 40
0.0
  0
LTYPE
  5
F1
330
60
100
AcDbSymbolTableRecord
100
AcDbLinetypeTableRecord
  2
ACAD_ISO06W100
 70
     0
  3
ISO long-dash triple-dot ____ ... ____ ... ____
 72
    65
 73
     8
 40
36.0
 49
24.0
 74
     0
 49
-3.0
 74
     0
 49
0.0
 74
     0
 49
-3.0
 74
     0
 49
0.0
 74
     0
 49
-3.0
 74
     0
 49
0.0
 74
     0
 49
-3.0
 74
     0
  0
LTYPE
  5
F2
330
60
100
AcDbSymbolTableRecord
100
AcDbLinetypeTableRecord
  2
DOT2
 70
     0
  3
Dot (.5x) ........................................
 72
    65
 73
     2
 40
3.175
 49
0.0
 74
     0
 49
-3.175
 74
     0
  0
LTYPE
  5
F3
330
60
100
AcDbSymbolTableRecord
100
AcDbLinetypeTableRecord
  2
DASHED2
 70
     0
  3
Dashed (.5x) _ _ _ _ _ _ _ _ _ _ _ _ _ _ _ _ _ 
 72
    65
 73
     2
 40
9.524999999999999
 49
6.35
 74
     0
 49
-3.175
 74
     0
  0
LTYPE
  5
F4
330
60
100
AcDbSymbolTableRecord
100
AcDbLinetypeTableRecord
  2
BORDER2
 70
     0
  3
Border (.5x) __.__.__.__.__.__.__.__.__.__.__.
 72
    65
 73
     6
 40
22.225
 49
6.35
 74
     0
 49
-3.175
 74
     0
 49
6.35
 74
     0
 49
-3.175
 74
     0
 49
0.0
 74
     0
 49
-3.175
 74
     0
  0
LTYPE
  5
F5
330
60
100
AcDbSymbolTableRecord
100
AcDbLinetypeTableRecord
  2
DIVIDE2
 70
     0
  3
Divide (.5x) __..__..__..__..__..__..__..__.._
 72
    65
 73
     6
 40
15.875
 49
6.35
 74
     0
 49
-3.175
 74
     0
 49
0.0
 74
     0
 49
-3.175
 74
     0
 49
0.0
 74
     0
 49
-3.175
 74
     0
  0
LTYPE
  5
F7
330
60
100
AcDbSymbolTableRecord
100
AcDbLinetypeTableRecord
  2
DRAINAGE
 70
     0
  3
Drainage ---->---->---->----
 72
    65
 73
     2
 40
10.16
 49
5.08
 74
     2
 75
     0
340
F6
 46
2.54
 50
180.0
 44
0.0
 45
0.0
  9
RIGHT_ARROW
 49
5.08
 74
     0
  0
LTYPE
  5
F9
330
60
100
AcDbSymbolTableRecord
100
AcDbLinetypeTableRecord
  2
FENCELINE1
 70
     0
  3
Fenceline circle ----0-----0----0-----0----0-----0--
 72
    65
 73
     4
 40
36.83
 49
6.35
 74
     0
 49
-2.54
 74
     2
 75
     0
340
F8
 46
2.54
 50
0.0
 44
-2.54
 45
0.0
  9
CIRC1
 49
-2.54
 74
     0
 49
25.4
 74
     0
  0
LTYPE
  5
FA
330
60
100
AcDbSymbolTableRecord
100
AcDbLinetypeTableRecord
  2
HIDDEN2
 70
     0
  3
Hidden (.5x) _ _ _ _ _ _ _ _ _ _ _ _ _ _ _ _ _ 
 72
    65
 73
     2
 40
4.762499999999999
 49
3.175
 74
     0
 49
-1.5875
 74
     0
  0
LTYPE
  5
FB
330
60
100
AcDbSymbolTableRecord
100
AcDbLinetypeTableRecord
  2
ACAD_ISO09W100
 70
     0
  3
ISO long-dash double-short-dash ____ __ __ ____
 72
    65
 73
     6
 40
45.0
 49
24.0
 74
     0
 49
-3.0
 74
     0
 49
6.0
 74
     0
 49
-3.0
 74
     0
 49
6.0
 74
     0
 49
-3.0
 74
     0
  0
LTYPE
  5
FC
330
60
100
AcDbSymbolTableRecord
100
AcDbLinetypeTableRecord
  2
DRAINAGE2
 70
     0
  3
Drainage reversed----<----<----<----
 72
    65
 73
     2
 40
10.16
 49
5.08
 74
     2
 75
     0
340
F6
 46
2.54
 50
0.0
 44
0.0
 45
0.0
  9
RIGHT_ARROW
 49
5.08
 74
     0
  0
LTYPE
  5
FD
330
60
100
AcDbSymbolTableRecord
100
AcDbLinetypeTableRecord
  2
PHANTOM
 70
     0
  3
Phantom ______  __  __  ______  __  __  ______ 
 72
    65
 73
     6
 40
63.50000000000001
 49
31.75
 74
     0
 49
-6.35
 74
     0
 49
6.35
 74
     0
 49
-6.35
 74
     0
 49
6.35
 74
     0
 49
-6.35
 74
     0
  0
LTYPE
  5
FE
330
60
100
AcDbSymbolTableRecord
100
AcDbLinetypeTableRecord
  2
CENTER2
 70
     0
  3
Center (.5x) ___ _ ___ _ ___ _ ___ _ ___ _ ___
 72
    65
 73
     4
 40
28.575
 49
19.05
 74
     0
 49
-3.175
 74
     0
 49
3.175
 74
     0
 49
-3.175
 74
     0
  0
LTYPE
  5
FF
330
60
100
AcDbSymbolTableRecord
100
AcDbLinetypeTableRecord
  2
CENTERX2
 70
     0
  3
Center (2x) ________  __  ________  __  _____
 72
    65
 73
     4
 40
101.6
 49
63.5
 74
     0
 49
-12.7
 74
     0
 49
12.7
 74
     0
 49
-12.7
 74
     0
  0
LTYPE
  5
100
330
60
100
AcDbSymbolTableRecord
100
AcDbLinetypeTableRecord
  2
ZIGZAG
 70
     0
  3
Zig zag /\/\/\/\/\/\/\/\/\/\/\/\/\/\/\/\/\/\/\/\/\/\/\/
 72
    65
 73
     4
 40
20.32254
 49
0.00254
 74
     0
 49
-5.08
 74
     2
 75
     0
340
F8
 46
5.08
 50
0.0
 44
-5.08
 45
0.0
  9
ZIG
 49
-10.16
 74
     2
 75
     0
340
F8
 46
5.08
 50
180.0
 44
5.08
 45
0.0
  9
ZIG
 49
-5.08
 74
     0
  0
LTYPE
  5
101
330
60
100
AcDbSymbolTableRecord
100
AcDbLinetypeTableRecord
  2
CENTER
 70
     0
  3
Center ____ _ ____ _ ____ _ ____ _ ____ _ ____
 72
    65
 73
     4
 40
50.8
 49
31.75
 74
     0
 49
-6.35
 74
     0
 49
6.35
 74
     0
 49
-6.35
 74
     0
  0
LTYPE
  5
102
330
60
100
AcDbSymbolTableRecord
100
AcDbLinetypeTableRecord
  2
POINT1
 70
     0
  3
----/\-----/\---
 72
    65
 73
     2
 40
31.26232
 49
25.4
 74
     2
 75
     0
340
F8
 46
5.08
 50
0.0
 44
0.0
 45
0.0
  9
PT1
 49
-5.86232
 74
     0
  0
LTYPE
  5
103
330
60
100
AcDbSymbolTableRecord
100
AcDbLinetypeTableRecord
  2
POINT2
 70
     0
  3
----\/-----\/---
 72
    65
 73
     2
 40
31.26232
 49
25.4
 74
     2
 75
     0
340
F8
 46
5.08
 50
0.0
 44
0.0
 45
0.0
  9
PT2
 49
-5.86232
 74
     0
  0
LTYPE
  5
104
330
60
100
AcDbSymbolTableRecord
100
AcDbLinetypeTableRecord
  2
BATTING
 70
     0
  3
Batting SSSSSSSSSSSSSSSSSSSSSSSSSSSSSSSSSSSSSSSSSSSSSSS
 72
    65
 73
     4
 40
10.16254
 49
0.00254
 74
     0
 49
-2.54
 74
     2
 75
     0
340
F8
 46
2.54
 50
0.0
 44
-2.54
 45
0.0
  9
BAT
 49
-5.08
 74
     2
 75
     0
340
F8
 46
2.54
 50
180.0
 44
2.54
 45
0.0
  9
BAT
 49
-2.54
 74
     0
  0
LTYPE
  5
105
330
60
100
AcDbSymbolTableRecord
100
AcDbLinetypeTableRecord
  2
ACAD_ISO13W100
 70
     0
  3
ISO double-dash double-dot __ __ . . __ __ . . _
 72
    65
 73
     8
 40
36.0
 49
12.0
 74
     0
 49
-3.0
 74
     0
 49
12.0
 74
     0
 49
-3.0
 74
     0
 49
0.0
 74
     0
 49
-3.0
 74
     0
 49
0.0
 74
     0
 49
-3.0
 74
     0
  0
LTYPE
  5
106
330
60
100
AcDbSymbolTableRecord
100
AcDbLinetypeTableRecord
  2
HIDDENX2
 70
     0
  3
Hidden (2x) ____ ____ ____ ____ ____ ____ ____ 
 72
    65
 73
     2
 40
19.05
 49
12.7
 74
     0
 49
-6.35
 74
     0
  0
LTYPE
  5
107
330
60
100
AcDbSymbolTableRecord
100
AcDbLinetypeTableRecord
  2
DASHED
 70
     0
  3
Dashed __ __ __ __ __ __ __ __ __ __ __ __ __ _
 72
    65
 73
     2
 40
19.05
 49
12.7
 74
     0
 49
-6.35
 74
     0
  0
LTYPE
  5
108
330
60
100
AcDbSymbolTableRecord
100
AcDbLinetypeTableRecord
  2
PLANT
 70
     0
  3
_/^ \_\^ \_
 72
    65
 73
     7
 40
21.94
 49
0.01
 74
     2
 75
     0
340
F8
 46
1.0
 50
0.0
 44
0.0
 45
0.0
  9
PLANT1
 49
-3.0
 74
     2
 75
     0
340
F8
 46
1.0
 50
0.0
 44
0.0
 45
0.0
  9
PLANT2
 49
-3.15
 74
     2
 75
     0
340
F8
 46
1.0
 50
0.0
 44
0.0
 45
0.0
  9
PLANT3
 49
-4.23
 74
     2
 75
     0
340
F8
 46
1.0
 50
0.0
 44
0.0
 45
0.0
  9
PLANT4
 49
-4.63
 74
     2
 75
     0
340
F8
 46
1.0
 50
0.0
 44
0.0
 45
0.0
  9
PLANT5
 49
-2.5
 74
     2
 75
     0
340
F8
 46
1.0
 50
0.0
 44
0.0
 45
0.0
  9
PLANT6
 49
-4.42
 74
     0
  0
LTYPE
  5
109
330
60
100
AcDbSymbolTableRecord
100
AcDbLinetypeTableRecord
  2
ACAD_ISO15W100
 70
     0
  3
ISO double-dash triple-dot __ __ . . . __ __ . .
 72
    65
 73
    10
 40
39.0
 49
12.0
 74
     0
 49
-3.0
 74
     0
 49
12.0
 74
     0
 49
-3.0
 74
     0
 49
0.0
 74
     0
 49
-3.0
 74
     0
 49
0.0
 74
     0
 49
-3.0
 74
     0
 49
0.0
 74
     0
 49
-3.0
 74
     0
  0
LTYPE
  5
10A
330
60
100
AcDbSymbolTableRecord
100
AcDbLinetypeTableRecord
  2
DASHDOT2
 70
     0
  3
Dash dot (.5x) _._._._._._._._._._._._._._._.
 72
    65
 73
     4
 40
12.7
 49
6.35
 74
     0
 49
-3.175
 74
     0
 49
0.0
 74
     0
 49
-3.175
 74
     0
  0
LTYPE
  5
10B
330
60
100
AcDbSymbolTableRecord
100
AcDbLinetypeTableRecord
  2
DASHDOT
 70
     0
  3
Dash dot __ . __ . __ . __ . __ . __ . __ . __
 72
    65
 73
     4
 40
25.4
 49
12.7
 74
     0
 49
-6.35
 74
     0
 49
0.0
 74
     0
 49
-6.35
 74
     0
  0
LTYPE
  5
10C
330
60
100
AcDbSymbolTableRecord
100
AcDbLinetypeTableRecord
  2
BORDERX2
 70
     0
  3
Border (2x) ____  ____  .  ____  ____  .  ___
 72
    65
 73
     6
 40
88.89999999999999
 49
25.4
 74
     0
 49
-12.7
 74
     0
 49
25.4
 74
     0
 49
-12.7
 74
     0
 49
0.0
 74
     0
 49
-12.7
 74
     0
  0
LTYPE
  5
10D
330
60
100
AcDbSymbolTableRecord
100
AcDbLinetypeTableRecord
  2
TRACKS
 70
     0
  3
Tracks -|-|-|-|-|-|-|-|-|-|-|-|-|-|-|-|-|-|-|-|-|-|-|-|-
 72
    65
 73
     2
 40
7.62
 49
3.81
 74
     2
 75
     0
340
F8
 46
6.35
 50
0.0
 44
0.0
 45
0.0
  9
TRACK1
 49
3.81
 74
     0
  0
LTYPE
  5
10E
330
60
100
AcDbSymbolTableRecord
100
AcDbLinetypeTableRecord
  2
ACAD_ISO12W100
 70
     0
  3
ISO dash double-dot __ . . __ . . __ . . __ . . 
 72
    65
 73
     6
 40
21.0
 49
12.0
 74
     0
 49
-3.0
 74
     0
 49
0.0
 74
     0
 49
-3.0
 74
     0
 49
0.0
 74
     0
 49
-3.0
 74
     0
  0
LTYPE
  5
10F
330
60
100
AcDbSymbolTableRecord
100
AcDbLinetypeTableRecord
  2
DOTX2
 70
     0
  3
Dot (2x) .  .  .  .  .  .  .  .  .  .  .  .  .  .
 72
    65
 73
     2
 40
12.7
 49
0.0
 74
     0
 49
-12.7
 74
     0
  0
LTYPE
  5
110
330
60
100
AcDbSymbolTableRecord
100
AcDbLinetypeTableRecord
  2
ACAD_ISO03W100
 70
     0
  3
ISO dash space __    __    __    __    __    __
 72
    65
 73
     2
 40
30.0
 49
12.0
 74
     0
 49
-18.0
 74
     0
  0
LTYPE
  5
111
330
60
100
AcDbSymbolTableRecord
100
AcDbLinetypeTableRecord
  2
FENCELINE2
 70
     0
  3
Fenceline square ----[]-----[]----[]-----[]----[]---
 72
    65
 73
     4
 40
36.83
 49
6.35
 74
     0
 49
-2.54
 74
     2
 75
     0
340
F8
 46
2.54
 50
0.0
 44
-2.54
 45
0.0
  9
BOX
 49
-2.54
 74
     0
 49
25.4
 74
     0
  0
LTYPE
  5
112
330
60
100
AcDbSymbolTableRecord
100
AcDbLinetypeTableRecord
  2
ACAD_ISO11W100
 70
     0
  3
ISO double-dash dot __ __ . __ __ . __ __ . __ _
 72
    65
 73
     6
 40
33.0
 49
12.0
 74
     0
 49
-3.0
 74
     0
 49
12.0
 74
     0
 49
-3.0
 74
     0
 49
0.0
 74
     0
 49
-3.0
 74
     0
  0
LTYPE
  5
113
330
60
100
AcDbSymbolTableRecord
100
AcDbLinetypeTableRecord
  2
HIDDEN
 70
     0
  3
Hidden __ __ __ __ __ __ __ __ __ __ __ __ __ __
 72
    65
 73
     2
 40
9.524999999999999
 49
6.35
 74
     0
 49
-3.175
 74
     0
  0
LTYPE
  5
114
330
60
100
AcDbSymbolTableRecord
100
AcDbLinetypeTableRecord
  2
PHANTOM2
 70
     0
  3
Phantom (.5x) ___ _ _ ___ _ _ ___ _ _ ___ _ _
 72
    65
 73
     6
 40
31.75
 49
15.875
 74
     0
 49
-3.175
 74
     0
 49
3.175
 74
     0
 49
-3.175
 74
     0
 49
3.175
 74
     0
 49
-3.175
 74
     0
  0
LTYPE
  5
115
330
60
100
AcDbSymbolTableRecord
100
AcDbLinetypeTableRecord
  2
PHANTOMX2
 70
     0
  3
Phantom (2x) ____________    ____    ____   _
 72
    65
 73
     6
 40
127.0
 49
63.5
 74
     0
 49
-12.7
 74
     0
 49
12.7
 74
     0
 49
-12.7
 74
     0
 49
12.7
 74
     0
 49
-12.7
 74
     0
  0
LTYPE
  5
116
330
60
100
AcDbSymbolTableRecord
100
AcDbLinetypeTableRecord
  2
DOT
 70
     0
  3
Dot . . . . . . . . . . . . . . . . . . . . . . . .
 72
    65
 73
     2
 40
6.35
 49
0.0
 74
     0
 49
-6.35
 74
     0
  0
LTYPE
  5
117
330
60
100
AcDbSymbolTableRecord
100
AcDbLinetypeTableRecord
  2
ACAD_ISO14W100
 70
     0
  3
ISO dash triple-dot __ . . . __ . . . __ . . . _
 72
    65
 73
     8
 40
24.0
 49
12.0
 74
     0
 49
-3.0
 74
     0
 49
0.0
 74
     0
 49
-3.0
 74
     0
 49
0.0
 74
     0
 49
-3.0
 74
     0
 49
0.0
 74
     0
 49
-3.0
 74
     0
  0
LTYPE
  5
118
330
60
100
AcDbSymbolTableRecord
100
AcDbLinetypeTableRecord
  2
DIVIDEX2
 70
     0
  3
Divide (2x) ________  .  .  ________  .  .  _
 72
    65
 73
     6
 40
63.5
 49
25.4
 74
     0
 49
-12.7
 74
     0
 49
0.0
 74
     0
 49
-12.7
 74
     0
 49
0.0
 74
     0
 49
-12.7
 74
     0
  0
LTYPE
  5
11A
330
60
100
AcDbSymbolTableRecord
100
AcDbLinetypeTableRecord
  2
GAS_LINE
 70
     0
  3
Gas line ----GAS----GAS----GAS----GAS----GAS----GAS--
 72
    65
 73
     3
 40
24.13
 49
12.7
 74
     0
 49
-5.08
 74
     2
 75
     0
340
119
 46
2.54
 50
0.0
 44
-2.54
 45
-1.27
  9
GAS
 49
-6.35
 74
     0
  0
LTYPE
  5
11B
330
60
100
AcDbSymbolTableRecord
100
AcDbLinetypeTableRecord
  2
HOT_WATER_SUPPLY
 70
     0
  3
Hot water supply ---- HW ---- HW ---- HW ----
 72
    65
 73
     3
 40
22.86
 49
12.7
 74
     0
 49
-5.08
 74
     2
 75
     0
340
119
 46
2.54
 50
0.0
 44
-2.54
 45
-1.27
  9
HW
 49
-5.08
 74
     0
  0
LTYPE
  5
11C
330
60
100
AcDbSymbolTableRecord
100
AcDbLinetypeTableRecord
  2
ACAD_ISO10W100
 70
     0
  3
ISO dash dot __ . __ . __ . __ . __ . __ . __ . 
 72
    65
 73
     4
 40
18.0
 49
12.0
 74
     0
 49
-3.0
 74
     0
 49
0.0
 74
     0
 49
-3.0
 74
     0
  0
LTYPE
  5
11D
330
60
100
AcDbSymbolTableRecord
100
AcDbLinetypeTableRecord
  2
ACAD_ISO05W100
 70
     0
  3
ISO long-dash double-dot ____ .. ____ .. ____ . 
 72
    65
 73
     6
 40
33.0
 49
24.0
 74
     0
 49
-3.0
 74
     0
 49
0.0
 74
     0
 49
-3.0
 74
     0
 49
0.0
 74
     0
 49
-3.0
 74
     0
  0
LTYPE
  5
11E
330
60
100
AcDbSymbolTableRecord
100
AcDbLinetypeTableRecord
  2
DIVIDE
 70
     0
  3
Divide ____ . . ____ . . ____ . . ____ . . ____
 72
    65
 73
     6
 40
31.75
 49
12.7
 74
     0
 49
-6.35
 74
     0
 49
0.0
 74
     0
 49
-6.35
 74
     0
 49
0.0
 74
     0
 49
-6.35
 74
     0
  0
LTYPE
  5
11F
330
60
100
AcDbSymbolTableRecord
100
AcDbLinetypeTableRecord
  2
ACAD_ISO07W100
 70
     0
  3
ISO dot . . . . . . . . . . . . . . . . . . . . 
 72
    65
 73
     2
 40
3.0
 49
0.0
 74
     0
 49
-3.0
 74
     0
  0
LTYPE
  5
120
330
60
100
AcDbSymbolTableRecord
100
AcDbLinetypeTableRecord
  2
BORDER
 70
     0
  3
Border __ __ . __ __ . __ __ . __ __ . __ __ .
 72
    65
 73
     6
 40
44.45
 49
12.7
 74
     0
 49
-6.35
 74
     0
 49
12.7
 74
     0
 49
-6.35
 74
     0
 49
0.0
 74
     0
 49
-6.35
 74
     0
  0
LTYPE
  5
121
330
60
100
AcDbSymbolTableRecord
100
AcDbLinetypeTableRecord
  2
ACAD_ISO02W100
 70
     0
  3
ISO dash __ __ __ __ __ __ __ __ __ __ __ __ __
 72
    65
 73
     2
 40
15.0
 49
12.0
 74
     0
 49
-3.0
 74
     0
  0
LTYPE
  5
122
330
60
100
AcDbSymbolTableRecord
100
AcDbLinetypeTableRecord
  2
ACAD_ISO04W100
 70
     0
  3
ISO long-dash dot ____ . ____ . ____ . ____ . _
 72
    65
 73
     4
 40
30.0
 49
24.0
 74
     0
 49
-3.0
 74
     0
 49
0.0
 74
     0
 49
-3.0
 74
     0
  0
LTYPE
  5
123
330
60
100
AcDbSymbolTableRecord
100
AcDbLinetypeTableRecord
  2
ACAD_ISO08W100
 70
     0
  3
ISO long-dash short-dash ____ __ ____ __ ____ _
 72
    65
 73
     4
 40
36.0
 49
24.0
 74
     0
 49
-3.0
 74
     0
 49
6.0
 74
     0
 49
-3.0
 74
     0
  0
LTYPE
  5
124
330
60
100
AcDbSymbolTableRecord
100
AcDbLinetypeTableRecord
  2
DASHDOTX2
 70
     0
  3
Dash dot (2x) ____  .  ____  .  ____  .  ___
 72
    65
 73
     4
 40
50.8
 49
25.4
 74
     0
 49
-12.7
 74
     0
 49
0.0
 74
     0
 49
-12.7
 74
     0
  0
LTYPE
  5
125
330
60
100
AcDbSymbolTableRecord
100
AcDbLinetypeTableRecord
  2
DASHEDX2
 70
     0
  3
Dashed (2x) ____  ____  ____  ____  ____  ___
 72
    65
 73
     2
 40
38.09999999999999
 49
25.4
 74
     0
 49
-12.7
 74
     0
  0
ENDTAB
  0
TABLE
  2
LAYER
  5
5E
330
0
100
AcDbSymbolTable
 70
     1
  0
LAYER
  5
6B
330
5E
100
AcDbSymbolTableRecord
100
AcDbLayerTableRecord
  2
0
 70
     0
 62
     7
  6
Continuous
370
    25
390
6A
347
A0
348
0
  0
ENDTAB
  0
TABLE
  2
STYLE
  5
5F
330
0
100
AcDbSymbolTable
 70
     4
  0
STYLE
  5
6C
330
5F
100
AcDbSymbolTableRecord
100
AcDbTextStyleTableRecord
  2
Standard
 70
     0
 40
0.0
 41
1.0
 50
0.0
 71
     0
 42
0.2
  3
txt
  4

  0
STYLE
  5
F6
330
5F
100
AcDbSymbolTableRecord
100
AcDbTextStyleTableRecord
  2
textstyle0
 70
     0
 40
0.0
 41
1.0
 50
0.0
 71
     0
 42
0.2
  3
qcadshp.shx
  4

  0
STYLE
  5
F8
330
5F
100
AcDbSymbolTableRecord
100
AcDbTextStyleTableRecord
  2
textstyle1
 70
     0
 40
0.0
 41
1.0
 50
0.0
 71
     0
 42
0.2
  3
ltypeshp.shx
  4

  0
STYLE
  5
119
330
5F
100
AcDbSymbolTableRecord
100
AcDbTextStyleTableRecord
  2
textstyle2
 70
     0
 40
0.0
 41
1.0
 50
0.0
 71
     0
 42
0.2
  3
STANDARD
  4

  0
ENDTAB
  0
TABLE
  2
VIEW
  5
61
330
0
100
AcDbSymbolTable
 70
     0
  0
ENDTAB
  0
TABLE
  2
UCS
  5
62
330
0
100
AcDbSymbolTable
 70
     0
  0
ENDTAB
  0
TABLE
  2
APPID
  5
64
330
0
100
AcDbSymbolTable
 70
     2
  0
APPID
  5
6D
330
64
100
AcDbSymbolTableRecord
100
AcDbRegAppTableRecord
  2
ACAD
 70
     0
  0
APPID
  5
B8
330
64
100
AcDbSymbolTableRecord
100
AcDbRegAppTableRecord
  2
QCAD
 70
     0
  0
ENDTAB
  0
TABLE
  2
DIMSTYLE
  5
65
330
0
100
AcDbSymbolTable
 70
     2
100
AcDbDimStyleTable
  0
DIMSTYLE
105
81
330
65
100
AcDbSymbolTableRecord
100
AcDbDimStyleTableRecord
  2
Standard
 70
     0
178
     0
340
6C
  0
DIMSTYLE
105
F0
330
65
100
AcDbSymbolTableRecord
100
AcDbDimStyleTableRecord
  2
QCADDimStyle
 70
     0
 41
2.5
 42
0.625
 43
5.0
 44
1.25
 73
     0
 77
     1
 78
     8
 79
     2
140
2.5
147
0.625
178
     0
279
     2
340
6C
  0
ENDTAB
  0
TABLE
  2
BLOCK_RECORD
  5
5D
330
0
100
AcDbSymbolTable
 70
     1
  0
BLOCK_RECORD
  5
79
330
5D
100
AcDbSymbolTableRecord
100
AcDbBlockTableRecord
  2
*Model_Space
340
7C
 70
     0
280
     1
281
     0
  0
BLOCK_RECORD
  5
75
330
5D
100
AcDbSymbolTableRecord
100
AcDbBlockTableRecord
  2
*Paper_Space
340
78
 70
     0
280
     1
281
     0
  0
BLOCK_RECORD
  5
128
330
5D
100
AcDbSymbolTableRecord
100
AcDbBlockTableRecord
  2
compile_logo
340
0
102
{BLKREFS
331
5B
102
}
 70
     0
280
     1
281
     0
  0
ENDTAB
  0
ENDSEC
  0
SECTION
  2
BLOCKS
  0
BLOCK
  5
7A
330
79
100
AcDbEntity
  8
0
100
AcDbBlockBegin
  2
*Model_Space
 70
     0
 10
0.0
 20
0.0
 30
0.0
  3
*Model_Space
  1

  0
ENDBLK
  5
7B
330
79
100
AcDbEntity
  8
0
100
AcDbBlockEnd
  0
BLOCK
  5
76
330
75
100
AcDbEntity
 67
     1
  8
0
100
AcDbBlockBegin
  2
*Paper_Space
 70
     0
 10
0.0
 20
0.0
 30
0.0
  3
*Paper_Space
  1

  0
ENDBLK
  5
77
330
75
100
AcDbEntity
 67
     1
  8
0
100
AcDbBlockEnd
  0
BLOCK
  5
129
330
128
100
AcDbEntity
  8
0
100
AcDbBlockBegin
  2
compile_logo
 70
     0
 10
0.0
 20
0.0
 30
0.0
  3
compile_logo
  1

  0
LWPOLYLINE
  5
3D
330
128
100
AcDbEntity
  8
0
100
AcDbPolyline
 90
     1158
 70
     1
 43
0.0
 10
541.0
 20
340.5
 10
541.0
 20
319.0
 10
448.0
 20
319.0
 42
0.000278
 10
386.435179
 20
318.965793
 42
0.005098
 10
366.875
 20
318.744624
 42
0.007615
 10
356.28687
 20
318.355535
 42
0.399075
 10
355.0
 20
317.0
 42
-0.087745
 10
354.822713
 20
315.997538
 42
-0.177212
 10
354.3125
 20
315.392857
 42
-0.10769
 10
353.32428
 20
315.082184
 42
-0.022514
 10
351.5
 20
315.0
 42
0.021436
 10
349.534425
 20
314.915691
 42
0.13443
 10
348.6
 20
314.571429
 42
0.189121
 10
348.138668
 20
313.86222
 42
0.050766
 10
348.0
 20
312.5
 42
-0.072846
 10
347.789676
 20
311.064029
 42
-0.224968
 10
347.15
 20
310.354167
 42
-0.091609
 10
345.761772
 20
310.055253
 42
-0.007344
 10
342.0
 20
310.0
 10
336.0
 20
310.0
 10
336.0
 20
294.0
 10
336.0
 20
278.0
 10
342.0
 20
278.0
 10
348.0
 20
278.0
 10
348.0
 20
272.0
 10
348.0
 20
266.0
 10
340.25
 20
265.998173
 10
332.5
 20
265.996347
 10
332.5
 20
271.728971
 42
0.011424
 10
332.430809
 20
274.75703
 42
0.058761
 10
332.158745
 20
276.410511
 42
0.12383
 10
331.622216
 20
277.332823
 42
0.152218
 10
330.75
 20
277.804122
 42
0.193754
 10
329.845594
 20
277.630676
 42
0.188223
 10
329.299746
 20
276.876437
 42
0.057238
 10
329.051906
 20
275.117938
 42
0.006416
 10
329.0
 20
271.073324
 10
329.0
 20
264.0
 10
323.5
 20
264.0
 42
0.008002
 10
319.917511
 20
263.942664
 42
0.11737
 10
318.708333
 20
263.613636
 42
0.230406
 10
318.152071
 20
262.83205
 42
0.041432
 10
318.0
 20
261.0
 10
318.0
 20
258.0
 10
312.0
 20
258.0
 42
-0.008455
 10
308.528387
 20
258.05871
 42
-0.072107
 10
307.0
 20
258.333333
 42
-0.188641
 10
306.272668
 20
258.939334
 42
-0.12648
 10
306.0
 20
260.0
 42
0.12648
 10
305.727332
 20
261.060666
 42
0.188641
 10
305.0
 20
261.666667
 42
0.072107
 10
303.471613
 20
261.94129
 42
0.008455
 10
300.0
 20
262.0
 42
-0.010614
 10
296.964058
 20
262.064452
 42
-0.050675
 10
295.25
 20
262.3125
 42
-0.113455
 10
294.337712
 20
262.77697
 42
-0.222027
 10
294.0
 20
263.5
 42
-0.257642
 10
294.411902
 20
264.246308
 42
-0.094144
 10
295.573497
 20
264.702777
 42
-0.039628
 10
297.783652
 20
264.941242
 42
-0.007066
 10
301.940983
 20
265.0
 42
0.008828
 10
305.015102
 20
265.054278
 42
0.013525
 10
307.674271
 20
265.220312
 42
0.007951
 10
309.859297
 20
265.451264
 42
0.237735
 10
310.307392
 20
265.75
 42
0.187258
 10
310.619723
 20
267.87774
 42
0.011765
 10
309.035133
 20
274.135485
 42
0.018143
 10
306.917066
 20
280.797701
 42
0.02606
 10
304.527796
 20
286.509146
 42
0.067425
 10
295.249575
 20
300.579628
 42
0.070139
 10
282.671826
 20
311.459409
 42
0.068745
 10
267.34213
 20
318.59814
 42
0.060908
 10
250.0
 20
321.697946
 42
0.011417
 10
245.98145
 20
321.828096
 42
0.009884
 10
241.762788
 20
321.784957
 42
0.009993
 10
237.941743
 20
321.593829
 42
0.02843
 10
235.298853
 20
321.256881
 10
230.097706
 20
320.290788
 10
229.798853
 20
324.895394
 42
0.017946
 10
229.581031
 20
327.051146
 42
0.059029
 10
229.221601
 20
328.432757
 42
0.107435
 10
228.701373
 20
329.215679
 42
0.194983
 10
228.0
 20
329.5
 42
0.203907
 10
227.289234
 20
329.197564
 42
0.106159
 10
226.772731
 20
328.363891
 42
0.055708
 10
226.420668
 20
326.872668
 42
0.015501
 10
226.205637
 20
324.477707
 10
225.911275
 20
319.455413
 10
220.027424
 20
317.173899
 42
0.06245
 10
206.960164
 20
310.125769
 42
0.060819
 10
195.906623
 20
300.015155
 42
0.06
 10
187.488779
 20
287.404113
 42
0.057833
 10
182.178818
 20
273.0
 10
180.362129
 20
265.5
 10
175.181064
 20
265.19774
 10
170.0
 20
264.895481
 10
170.0
 20
279.44774
 42
0.002311
 10
169.957617
 20
288.618103
 42
0.031845
 10
169.715641
 20
291.930968
 42
0.122839
 10
169.115197
 20
293.429788
 42
0.240828
 10
168.0
 20
294.0
 42
0.084072
 10
167.011106
 20
293.83254
 42
0.171784
 10
166.404933
 20
293.3466
 42
0.112712
 10
166.087266
 20
292.420155
 42
0.026468
 10
166.0
 20
290.772804
 42
-0.02029
 10
165.921135
 20
288.830184
 42
-0.562738
 10
165.548079
 20
288.643256
 42
-0.105731
 10
164.885494
 20
289.287435
 42
-0.002353
 10
162.416254
 20
293.022804
 42
0.008281
 10
160.866991
 20
295.307126
 42
0.007269
 10
159.175459
 20
297.641522
 42
0.007324
 10
157.586963
 20
299.704248
 42
0.02167
 10
156.416254
 20
301.054719
 42
-0.010811
 10
155.49069
 20
302.076703
 42
-0.015008
 10
154.709775
 20
303.033953
 42
-0.011444
 10
154.110324
 20
303.853715
 42
-0.153311
 10
154.0
 20
304.205061
 42
-0.367562
 10
154.194466
 20
304.433857
 42
-0.015814
 10
155.322149
 20
304.581557
 42
-0.020588
 10
156.775256
 20
304.665115
 42
-0.012415
 10
158.500933
 20
304.650342
 42
0.012098
 10
160.226559
 20
304.634474
 42
0.020077
 10
161.679443
 20
304.714679
 42
0.0151
 10
162.810413
 20
304.85736
 42
0.36977
 10
163.000933
 20
305.08048
 42
0.212348
 10
162.848941
 20
305.420752
 42
0.007008
 10
161.703815
 20
306.421491
 42
0.012256
 10
160.277932
 20
307.573809
 42
0.008094
 10
158.586522
 20
308.83048
 42
0.023795
 10
156.075573
 20
310.458472
 42
0.052561
 10
153.99465
 20
311.394284
 42
0.053082
 10
151.777255
 20
311.870436
 42
0.02471
 10
148.836522
 20
312.035435
 42
-0.023303
 10
146.610009
 20
312.154084
 42
-0.021234
 10
144.333228
 20
312.480268
 42
-0.021778
 10
142.323846
 20
312.947164
 42
-0.061944
 10
141.0
 20
313.5
 10
138.5
 20
314.929129
 10
141.25
 20
314.964565
 42
0.037392
 10
142.583983
 20
315.081768
 42
0.119257
 10
143.401821
 20
315.427332
 42
0.155516
 10
143.847616
 20
316.045134
 42
0.079292
 10
144.0
 20
317.0
 42
0.149255
 10
143.672054
 20
318.074138
 42
0.180801
 10
142.820257
 20
318.682777
 42
0.059755
 10
140.989162
 20
318.947002
 42
0.005985
 10
136.562053
 20
319.0
 42
-0.016874
 10
133.225155
 20
319.112648
 42
-0.01056
 10
129.331799
 20
319.458544
 42
-0.010596
 10
125.50683
 20
319.962191
 42
-0.018946
 10
122.393198
 20
320.561002
 42
0.022574
 10
118.811696
 20
321.222893
 42
0.016122
 10
114.757226
 20
321.651676
 42
0.014631
 10
110.257698
 20
321.849163
 42
0.011173
 10
105.329035
 20
321.811002
 10
94.99578
 20
321.5
 10
94.99789
 20
333.25
 42
0.003123
 10
94.953887
 20
340.504122
 42
0.03841
 10
94.707834
 20
343.258561
 42
0.140235
 10
94.110334
 20
344.51296
 42
0.215134
 10
93.030779
 20
345.0
 42
0.220571
 10
91.941644
 20
344.494965
 42
0.13045
 10
91.315704
 20
343.175606
 42
0.036968
 10
90.999486
 20
340.30315
 42
0.003145
 10
90.780779
 20
332.879462
 10
90.5
 20
320.758924
 10
82.5
 20
317.906471
 42
-0.01739
 10
77.378514
 20
316.278739
 42
-0.038094
 10
73.346018
 20
315.47473
 42
-0.025461
 10
68.347889
 20
315.125595
 42
-0.004278
 10
58.75
 20
315.027009
 42
0.002915
 10
50.071137
 20
314.961527
 42
0.020822
 10
45.879502
 20
314.7307
 42
0.043868
 10
43.613653
 20
314.308239
 42
0.33661
 10
43.0
 20
313.5
 42
0.348679
 10
43.651404
 20
312.679464
 42
0.036432
 10
46.25
 20
312.270833
 42
0.018314
 10
51.00597
 20
312.049438
 42
0.002473
 10
61.0
 20
312.0
 42
-0.003905
 10
67.899521
 20
311.946109
 42
-0.006526
 10
73.701795
 20
311.779688
 42
-0.001708
 10
78.687304
 20
311.554473
 42
-0.414212
 10
78.963556
 20
311.25
 42
-0.178938
 10
78.784386
 20
310.82937
 42
-0.012768
 10
77.873096
 20
309.9125
 42
-0.016696
 10
76.693716
 20
308.85806
 42
-0.011772
 10
75.302527
 20
307.75
 42
-0.031524
 10
73.22962
 20
306.373979
 42
-0.055716
 10
71.350094
 20
305.553321
 42
-0.051697
 10
69.240494
 20
305.132135
 42
-0.023444
 10
66.423958
 20
305.0
 42
0.022097
 10
63.190094
 20
304.857014
 42
0.093757
 10
61.334293
 20
304.332722
 42
0.082159
 10
59.677732
 20
303.134372
 42
0.014702
 10
57.064527
 20
300.335966
 42
0.037874
 10
52.111947
 20
293.767826
 42
0.03198
 10
47.889158
 20
286.154767
 42
0.031688
 10
44.633996
 20
277.984389
 42
0.035228
 10
42.57212
 20
269.75
 10
41.909374
 20
266.0
 10
46.954687
 20
266.0
 10
52.0
 20
266.0
 10
52.0
 20
260.5
 10
52.0
 20
255.0
 10
42.5
 20
255.0
 42
0.008575
 10
38.639392
 20
254.933788
 42
0.017647
 10
35.625
 20
254.723684
 42
0.013417
 10
33.361438
 20
254.423816
 42
0.368504
 10
33.0
 20
254.0
 42
0.292284
 10
33.256499
 20
253.598702
 42
0.038543
 10
34.248438
 20
253.229524
 42
0.034867
 10
35.621299
 20
252.937567
 42
0.022113
 10
37.25
 20
252.781358
 42
-0.937999
 10
37.251572
 20
252.656227
 42
-0.007592
 10
34.233361
 20
252.470856
 42
-0.003562
 10
28.598714
 20
252.250808
 42
-0.001495
 10
21.012506
 20
252.031358
 42
0.001963
 10
8.924899
 20
251.670368
 42
0.018838
 10
3.787816
 20
251.302687
 42
0.045603
 10
1.098328
 20
250.756758
 42
0.279395
 10
0.189182
 20
249.75
 42
0.372862
 10
0.761095
 20
248.760774
 42
0.062049
 10
3.090954
 20
248.266924
 42
0.019595
 10
8.008451
 20
248.041796
 42
0.001641
 10
20.743832
 20
248.0
 10
41.634313
 20
248.0
 10
43.426773
 20
240.396788
 42
0.081028
 10
51.548612
 20
220.818144
 42
0.086603
 10
65.33096
 20
205.346147
 42
0.085859
 10
83.649233
 20
195.36218
 42
0.077944
 10
104.892522
 20
191.668668
 42
0.008886
 10
108.608943
 20
191.67312
 42
0.006851
 10
112.660616
 20
191.805541
 42
0.006934
 10
116.44389
 20
192.033725
 42
0.016417
 10
119.25
 20
192.334957
 10
125.0
 20
193.143913
 10
125.0
 20
183.571956
 42
0.005472
 10
125.055842
 20
178.470026
 42
0.033401
 10
125.289177
 20
175.845326
 42
0.079705
 10
125.73798
 20
174.465734
 42
0.281394
 10
126.5
 20
174.0
 42
0.292784
 10
127.270046
 20
174.493192
 42
0.072528
 10
127.714286
 20
176.0
 42
0.030643
 10
127.945394
 20
178.860051
 42
0.004841
 10
128.0
 20
184.5
 42
-0.005363
 10
128.057353
 20
189.846983
 42
-0.026977
 10
128.282515
 20
192.827829
 42
-0.051469
 10
128.681077
 20
194.513465
 42
-0.319161
 10
129.365643
 20
195.0
 42
0.093097
 10
130.228283
 20
195.162023
 42
0.006848
 10
132.469168
 20
196.070118
 42
0.009346
 10
135.124438
 20
197.247623
 42
0.006945
 10
138.013122
 20
198.642954
 42
0.050463
 10
147.297344
 20
204.524819
 42
0.042646
 10
155.80079
 20
212.459205
 42
0.042422
 10
162.879274
 20
221.771063
 42
0.048497
 10
167.926417
 20
231.75
 10
169.970816
 20
237.0
 10
156.011088
 20
237.0
 10
142.05136
 20
237.0
 10
140.418706
 20
233.842795
 42
-0.050191
 10
138.348058
 20
230.665344
 42
-0.013711
 10
134.463581
 20
226.102522
 42
-0.007418
 10
130.305639
 20
221.617057
 42
-0.204907
 10
128.863158
 20
221.0
 42
-0.381134
 10
128.517851
 20
221.30795
 42
-0.007036
 10
128.253553
 20
223.9375
 42
-0.013431
 10
128.062082
 20
227.165759
 42
-0.008095
 10
128.0
 20
231.0
 42
0.005163
 10
127.944758
 20
236.350044
 42
0.032071
 10
127.7125
 20
239.083333
 42
0.076301
 10
127.26579
 20
240.52133
 42
0.286822
 10
126.5
 20
241.0
 42
0.298087
 10
125.726053
 20
240.493596
 42
0.069148
 10
125.284171
 20
238.920947
 42
0.029399
 10
125.05406
 20
235.940714
 42
0.00457
 10
125.0
 20
230.02568
 10
125.0
 20
219.05136
 10
121.914326
 20
217.455696
 42
-0.085243
 10
115.567897
 20
215.44251
 42
-0.038173
 10
106.800269
 20
214.908852
 42
-0.037874
 10
97.743174
 20
215.737428
 42
-0.062463
 10
90.391728
 20
217.944869
 42
-0.07387
 10
83.225875
 20
222.476975
 42
-0.054551
 10
76.818113
 20
229.349944
 42
-0.053194
 10
71.892343
 20
237.659395
 42
-0.061107
 10
69.108724
 20
246.447423
 42
0.012912
 10
68.350077
 20
249.997823
 42
0.099799
 10
67.637591
 20
251.529978
 42
0.507659
 10
66.969269
 20
251.528019
 42
0.093414
 10
66.343705
 20
250.20633
 42
-0.09558
 10
65.778035
 20
249.024331
 42
-0.152352
 10
64.881019
 20
248.36827
 42
-0.07233
 10
63.275539
 20
248.068333
 42
-0.010071
 10
59.883369
 20
248.0
 42
-0.008737
 10
56.489121
 20
248.059313
 42
-0.073316
 10
54.985421
 20
248.334985
 42
-0.189013
 10
54.268148
 20
248.940737
 42
-0.124608
 10
54.0
 20
250.0
 42
-0.087745
 10
54.177287
 20
251.002462
 42
-0.177212
 10
54.6875
 20
251.607143
 42
-0.10769
 10
55.67572
 20
251.917816
 42
-0.022514
 10
57.5
 20
252.0
 42
0.021436
 10
59.465575
 20
252.084309
 42
0.13443
 10
60.4
 20
252.428571
 42
0.189121
 10
60.861332
 20
253.13778
 42
0.050766
 10
61.0
 20
254.5
 42
-0.099988
 10
61.292912
 20
255.950088
 42
-0.226001
 10
62.109362
 20
256.677272
 42
-0.066886
 10
63.952893
 20
256.955002
 42
-0.003989
 10
69.59362
 20
257.0
 42
-0.005574
 10
74.651386
 20
256.943618
 42
-0.048454
 10
76.882231
 20
256.676602
 42
-0.12961
 10
78.054429
 20
256.075638
 42
-0.146917
 10
78.710251
 20
255.0
 42
0.102089
 10
79.560106
 20
253.281447
 42
0.346964
 10
80.693996
 20
253.003803
 42
0.221686
 10
81.681851
 20
254.160854
 42
0.067694
 10
82.0
 20
256.5
 10
82.0
 20
260.0
 10
76.5
 20
260.125
 42
-0.002205
 10
72.190676
 20
260.241953
 42
-0.02103
 10
70.354845
 20
260.377306
 42
-0.052887
 10
69.316616
 20
260.610918
 42
-0.115104
 10
68.627099
 20
261.039567
 42
-0.256765
 10
68.155643
 20
262.662432
 42
-0.009335
 10
69.729908
 20
269.13428
 42
-0.017349
 10
71.662752
 20
275.564917
 42
-0.042966
 10
73.63396
 20
280.068795
 42
-0.045207
 10
76.75253
 20
284.738736
 42
-0.037347
 10
80.850329
 20
289.104078
 42
-0.036673
 10
85.640599
 20
292.891628
 42
-0.039359
 10
90.824854
 20
295.839593
 42
-0.024101
 10
94.334765
 20
297.283057
 42
-0.04477
 10
97.313327
 20
298.051534
 42
-0.032923
 10
100.937645
 20
298.404905
 42
-0.007843
 10
107.0
 20
298.5
 42
-0.007841
 10
113.047293
 20
298.405159
 42
-0.03268
 10
116.673043
 20
298.053448
 42
-0.044602
 10
119.644613
 20
297.290935
 42
-0.024536
 10
123.120011
 20
295.864835
 42
-0.035145
 10
128.118856
 20
293.07713
 42
-0.038528
 10
132.517015
 20
289.691855
 42
-0.038891
 10
136.30854
 20
285.703017
 42
-0.037175
 10
139.5
 20
281.117074
 10
142.5
 20
276.039688
 10
154.25
 20
276.019844
 10
166.0
 20
276.0
 10
166.0
 20
270.5
 42
-0.017105
 10
165.927854
 20
268.39166
 42
-0.027868
 10
165.70625
 20
266.615625
 42
-0.026982
 10
165.391033
 20
265.292067
 42
-0.332234
 10
165.0
 20
265.0
 42
0.148195
 10
164.618646
 20
264.884432
 42
0.098894
 10
164.29375
 20
264.559375
 42
0.082425
 10
164.074694
 20
264.073457
 42
0.064853
 10
164.0
 20
263.5
 42
0.250296
 10
164.396042
 20
262.758417
 42
0.098409
 10
165.5
 20
262.3
 42
0.041714
 10
167.597782
 20
262.059778
 42
0.007659
 10
171.5
 20
262.0
 42
-0.011522
 10
174.477527
 20
261.931377
 42
-0.02162
 10
176.875
 20
261.716667
 42
-0.018508
 10
178.667147
 20
261.409838
 42
-0.354925
 10
179.0
 20
261.0
 42
-0.297764
 10
178.746916
 20
260.612706
 42
-0.042932
 10
177.807664
 20
260.29375
 42
-0.03716
 10
176.496569
 20
260.072375
 42
-0.02325
 10
174.940983
 20
260.0
 42
0.019531
 10
173.311372
 20
259.936318
 42
0.051222
 10
172.16126
 20
259.726474
 42
0.106919
 10
171.562569
 20
259.402624
 42
0.369423
 10
171.5
 20
259.0
 42
0.223356
 10
172.110938
 20
258.601718
 42
0.009784
 10
174.701799
 20
258.292846
 42
0.014948
 10
177.885615
 20
258.072193
 42
0.009825
 10
181.559017
 20
258.0
 10
191.0
 20
258.0
 10
191.0
 20
253.0
 10
191.0
 20
248.0
 10
185.886456
 20
248.0
 10
180.772912
 20
248.0
 10
181.479239
 20
243.289874
 42
0.040306
 10
183.287916
 20
235.54496
 42
0.031637
 10
186.433439
 20
227.512403
 42
0.031369
 10
190.606283
 20
219.85971
 42
0.037369
 10
195.492975
 20
213.25
 42
0.017815
 10
197.820611
 20
210.736185
 42
0.086871
 10
199.3992
 20
209.621325
 42
0.090457
 10
201.232512
 20
209.131322
 42
0.02019
 10
204.48331
 20
209.0
 42
-0.02309
 10
207.534214
 20
208.859033
 42
-0.065111
 10
209.612125
 20
208.38917
 42
-0.064109
 10
211.517343
 20
207.39617
 42
-0.021877
 10
214.0
 20
205.5
 10
218.189227
 20
202.0
 10
186.594614
 20
202.0
 42
0.000901
 10
166.044804
 20
201.962972
 42
0.014905
 10
159.199327
 20
201.734175
 42
0.04886
 10
155.926316
 20
201.203088
 42
0.340374
 10
155.0
 20
200.0
 42
0.333952
 10
155.89766
 20
198.805894
 42
0.053603
 10
158.955916
 20
198.266865
 42
0.015871
 10
165.398019
 20
198.037317
 42
0.000969
 10
184.647329
 20
198.0
 42
-0.001503
 10
202.802597
 20
197.945423
 42
-0.013508
 10
210.756138
 20
197.682653
 42
-0.031071
 10
215.744001
 20
197.070274
 42
-0.041362
 10
220.147329
 20
195.866009
 10
226.0
 20
193.732019
 10
226.0
 20
164.366009
 42
0.00098
 10
226.037362
 20
145.304577
 42
0.016022
 10
226.267026
 20
138.920751
 42
0.05434
 10
226.807221
 20
135.893322
 42
0.332957
 10
228.0
 20
135.0
 42
0.331078
 10
229.19032
 20
135.885209
 42
0.055733
 10
229.732668
 20
138.856077
 42
0.016305
 10
229.962553
 20
145.132718
 42
0.001
 10
230.0
 20
163.848613
 10
230.0
 20
192.697225
 10
235.75
 20
191.755767
 42
0.037319
 10
241.911708
 20
191.214062
 42
0.01812
 10
249.819179
 20
191.397149
 42
0.018115
 10
257.814462
 20
192.163933
 42
0.032222
 10
264.29879
 20
193.45315
 42
-0.021628
 10
266.984524
 20
194.046503
 42
-0.012145
 10
270.289229
 20
194.545613
 42
-0.012102
 10
273.657313
 20
194.88833
 42
-0.019303
 10
276.54879
 20
195.0
 42
0.009924
 10
279.764098
 20
195.063821
 42
0.044773
 10
281.624981
 20
195.305555
 42
0.09624
 10
282.638844
 20
195.746879
 42
0.246931
 10
283.0
 20
196.433578
 42
0.167662
 10
282.798098
 20
197.018761
 42
0.084213
 10
282.212859
 20
197.551313
 42
0.06647
 10
281.328378
 20
197.965038
 42
0.046359
 10
280.25
 20
198.197287
 10
277.5
 20
198.527418
 10
280.70034
 20
200.263709
 42
-0.047926
 10
282.353769
 20
200.965329
 42
-0.026143
 10
284.489493
 20
201.518095
 42
-0.024763
 10
286.855402
 20
201.879227
 42
-0.025494
 10
289.222496
 20
202.0
 42
0.022797
 10
292.218783
 20
202.136686
 42
0.061528
 10
294.296821
 20
202.588463
 42
0.063003
 10
296.174327
 20
203.525262
 42
0.024808
 10
298.499266
 20
205.25
 10
302.45422
 20
208.5
 10
297.803267
 20
209.0
 10
293.152314
 20
209.5
 10
297.729007
 20
215.5
 42
0.029084
 10
302.102521
 20
221.983056
 42
0.032737
 10
305.505969
 20
228.685247
 42
0.03022
 10
308.206114
 20
236.222298
 42
0.019326
 10
310.462627
 20
245.25
 42
-0.062512
 10
311.013667
 20
246.852754
 42
-0.187962
 10
311.850437
 20
247.621721
 42
-0.085767
 10
313.41515
 20
247.93971
 42
-0.007345
 10
317.519052
 20
248.0
 10
324.0
 20
248.0
 10
324.0
 20
253.0
 42
0.01883
 10
323.927795
 20
254.916554
 42
0.03053
 10
323.70625
 20
256.53125
 42
0.031449
 10
323.389817
 20
257.719449
 42
0.322437
 10
323.0
 20
258.0
 42
-0.099038
 10
322.618362
 20
258.076342
 42
-0.097945
 10
322.29375
 20
258.29375
 42
-0.097945
 10
322.076342
 20
258.618362
 42
-0.099038
 10
322.0
 20
259.0
 42
-0.350432
 10
322.323933
 20
259.405433
 42
-0.020168
 10
324.0
 20
259.714286
 42
-0.022889
 10
326.243014
 20
259.930567
 42
-0.01259
 10
329.0
 20
260.0
 10
336.0
 20
260.0
 10
336.0
 20
227.470975
 10
336.0
 20
194.94195
 10
349.024951
 20
195.220975
 10
362.049902
 20
195.5
 10
362.274951
 20
222.5
 10
362.5
 20
249.5
 10
365.59018
 20
249.801439
 10
368.680359
 20
250.102877
 10
380.534723
 20
222.524486
 10
392.389087
 20
194.946094
 10
405.896756
 20
195.223047
 10
419.404424
 20
195.5
 10
424.022275
 20
206.236729
 42
-0.002839
 10
425.841122
 20
210.400344
 42
-0.004233
 10
427.483363
 20
214.019276
 42
-0.001877
 10
428.920627
 20
217.086356
 42
-0.086067
 10
429.320062
 20
217.653396
 42
-0.651656
 10
429.594921
 20
217.54689
 42
-0.002064
 10
429.800268
 20
212.650268
 42
-0.006028
 10
429.951378
 20
206.778423
 42
-0.003418
 10
430.0
 20
199.666667
 42
0.002369
 10
430.049186
 20
189.285343
 42
0.017679
 10
430.270089
 20
184.361111
 42
0.03452
 10
430.6759
 20
181.661379
 42
0.351652
 10
431.5
 20
181.0
 42
0.366837
 10
432.34477
 20
181.71616
 42
0.024867
 10
432.733735
 20
185.092694
 42
0.014391
 10
432.9521
 20
191.12432
 42
0.001852
 10
433.0
 20
204.056164
 10
433.0
 20
227.112328
 10
440.75
 20
245.264935
 10
448.5
 20
263.417541
 10
448.758763
 20
210.208771
 42
0.000751
 10
448.951486
 20
179.929394
 42
0.006253
 10
449.230941
 20
166.213623
 42
0.005461
 10
449.596912
 20
157.863271
 42
0.398276
 10
450.508763
 20
157.0
 42
-0.365939
 10
451.344992
 20
156.293355
 42
-0.025312
 10
451.733386
 20
152.988083
 42
-0.014666
 10
451.951754
 20
147.093485
 42
-0.001925
 10
452.0
 20
134.560365
 10
452.0
 20
112.120731
 10
448.258317
 20
111.810365
 42
0.027614
 10
446.530888
 20
111.570503
 42
0.068885
 10
445.327963
 20
111.157477
 42
0.101082
 10
444.567451
 20
110.55524
 42
0.128769
 10
444.184992
 20
109.75
 42
0.121912
 10
444.233421
 20
108.875744
 42
0.211929
 10
444.701752
 20
108.337052
 42
0.094469
 10
445.769147
 20
108.065524
 42
0.015182
 10
447.926676
 20
108.0
 10
452.0
 20
108.0
 10
452.0
 20
99.5
 10
452.0
 20
91.0
 10
455.0
 20
91.0
 42
-0.030103
 10
456.613599
 20
90.902765
 42
-0.144586
 10
457.45
 20
90.541667
 42
-0.173074
 10
457.873428
 20
89.824437
 42
-0.047675
 10
458.0
 20
88.5
 42
-0.047847
 10
457.872695
 20
87.172713
 42
-0.174228
 10
457.446826
 20
86.456153
 42
-0.143981
 10
456.604038
 20
86.096274
 42
-0.029402
 10
454.968265
 20
86.0
 10
451.936529
 20
86.0
 10
452.218265
 20
74.25
 10
452.5
 20
62.5
 10
455.25
 20
62.183578
 42
-0.031666
 10
456.303222
 20
61.994241
 42
-0.046395
 10
457.192187
 20
61.685866
 42
-0.056702
 10
457.811837
 20
61.314506
 42
-0.233512
 10
458.0
 20
60.933578
 42
0.362512
 10
458.308493
 20
60.564
 42
0.013962
 10
460.203125
 20
60.274238
 42
0.019277
 10
462.624533
 20
60.067213
 42
0.011686
 10
465.5
 20
60.0
 10
473.0
 20
60.0
 10
473.0
 20
91.393011
 42
-0.001376
 10
473.048415
 20
108.985643
 42
-0.010346
 10
473.266529
 20
117.310197
 42
-0.013787
 10
473.633482
 20
122.22934
 42
-0.282785
 10
474.5
 20
123.361626
 42
0.298681
 10
475.417527
 20
124.636312
 42
0.004613
 10
475.741284
 20
134.105783
 42
0.005565
 10
475.95436
 20
149.523195
 42
0.000672
 10
476.0
 20
183.468615
 10
476.0
 20
243.0
 10
469.0
 20
243.0
 42
-0.008455
 10
465.386832
 20
243.061101
 42
-0.044348
 10
463.416667
 20
243.303571
 42
-0.103378
 10
462.377357
 20
243.764111
 42
-0.241448
 10
462.0
 20
244.5
 42
-0.173724
 10
462.244188
 20
245.181593
 42
-0.129252
 10
462.897228
 20
245.653434
 42
-0.070958
 10
464.061627
 20
245.922301
 42
-0.021316
 10
465.883369
 20
246.0
 42
0.023027
 10
467.861651
 20
246.091155
 42
0.083692
 10
469.073791
 20
246.412424
 42
0.12897
 10
469.825673
 20
247.023689
 42
0.09425
 10
470.289749
 20
248.0
 42
-0.127608
 10
470.879257
 20
249.054837
 42
-0.136466
 10
471.893758
 20
249.65756
 42
-0.058244
 10
473.753681
 20
249.935735
 42
-0.008109
 10
477.65638
 20
249.997747
 10
484.5
 20
249.995494
 10
484.167941
 20
256.997747
 10
483.835882
 20
264.0
 10
479.917941
 20
264.0
 10
476.0
 20
264.0
 10
476.0
 20
287.0
 10
476.0
 20
310.0
 10
479.5
 20
310.0
 42
0.021436
 10
481.465575
 20
310.084309
 42
0.13443
 10
482.4
 20
310.428571
 42
0.189121
 10
482.861332
 20
311.13778
 42
0.050766
 10
483.0
 20
312.5
 10
483.0
 20
315.0
 10
495.0
 20
315.0
 10
507.0
 20
315.0
 10
507.0
 20
310.5
 42
-0.012021
 10
506.929716
 20
307.577037
 42
-0.155608
 10
506.553736
 20
306.568449
 42
-0.205757
 10
505.703532
 20
306.10466
 42
-0.023388
 10
503.467249
 20
306.0
 10
499.934498
 20
306.0
 10
500.217249
 20
294.75
 10
500.5
 20
283.5
 10
505.75
 20
283.19774
 42
-0.014867
 10
508.22247
 20
282.981491
 42
-0.05124
 10
509.79122
 20
282.631741
 42
-0.095515
 10
510.683785
 20
282.129891
 42
-0.220508
 10
511.0
 20
281.44774
 42
-0.223945
 10
510.678404
 20
280.765724
 42
-0.108465
 10
509.800244
 20
280.315806
 42
-0.051915
 10
508.195529
 20
280.067284
 42
-0.012479
 10
505.5
 20
280.0
 10
500.0
 20
280.0
 10
500.0
 20
265.557498
 10
500.0
 20
251.114996
 10
495.75
 20
250.807498
 42
0.019164
 10
493.495733
 20
250.557267
 42
0.08818
 10
492.254885
 20
250.139471
 42
0.14549
 10
491.557067
 20
249.435712
 42
0.087932
 10
491.188507
 20
248.311493
 42
-0.074924
 10
490.910229
 20
247.382189
 42
-0.085918
 10
490.378376
 20
246.624353
 42
-0.086096
 10
489.62375
 20
246.090529
 42
-0.075611
 10
488.698723
 20
245.811493
 42
0.07089
 10
487.841087
 20
245.56155
 42
0.065625
 10
487.062327
 20
245.077438
 42
0.069621
 10
486.477088
 20
244.442304
 42
0.104676
 10
486.186892
 20
243.75
 42
0.193801
 10
486.365045
 20
242.84572
 42
0.186979
 10
487.123368
 20
242.300063
 42
0.057135
 10
488.884672
 20
242.052044
 42
0.006438
 10
492.926676
 20
242.0
 10
500.0
 20
242.0
 10
500.0
 20
235.5
 42
-0.006367
 10
499.947488
 20
231.376461
 42
-0.085635
 10
499.653846
 20
229.9
 42
-0.226921
 10
498.940826
 20
229.225912
 42
-0.077921
 10
497.5
 20
229.0
 42
0.044917
 10
496.317234
 20
228.893532
 42
0.124434
 10
495.5625
 20
228.55
 42
0.149477
 10
495.142566
 20
227.935258
 42
0.07578
 10
495.0
 20
227.0
 42
0.087581
 10
495.176855
 20
225.998076
 42
0.177003
 10
495.686015
 20
225.393344
 42
0.107908
 10
496.671566
 20
225.082388
 42
0.022665
 10
498.488117
 20
225.0
 10
501.976235
 20
225.0
 10
502.238117
 20
186.75
 42
0.001068
 10
502.432883
 20
165.068985
 42
0.008728
 10
502.715858
 20
155.168647
 42
0.010237
 10
503.105391
 20
149.319995
 42
0.388962
 10
504.0
 20
148.5
 42
0.365041
 10
504.851106
 20
149.21691
 42
0.023713
 10
505.279126
 20
152.669738
 42
0.014211
 10
505.569967
 20
158.788637
 42
0.001883
 10
505.76843
 20
171.75
 10
506.036861
 20
195.0
 10
508.401799
 20
195.0
 42
0.062499
 10
509.444281
 20
195.130819
 42
0.089242
 10
510.290866
 20
195.51671
 42
0.095544
 10
510.909916
 20
196.149288
 42
0.082261
 10
511.289749
 20
197.0
 42
-0.146917
 10
511.945571
 20
198.075638
 42
-0.12961
 10
513.117769
 20
198.676602
 42
-0.048454
 10
515.348614
 20
198.943618
 42
-0.005574
 10
520.40638
 20
199.0
 10
529.0
 20
199.0
 10
529.0
 20
212.0
 10
529.0
 20
225.0
 10
525.5
 20
225.0
 42
-0.02305
 10
523.723523
 20
225.081939
 42
-0.099945
 10
522.71798
 20
225.383553
 42
-0.169299
 10
522.189481
 20
225.956875
 42
-0.10269
 10
522.0
 20
226.869736
 42
-0.081348
 10
522.136953
 20
227.705941
 42
-0.147322
 10
522.534835
 20
228.266566
 42
-0.126611
 10
523.226265
 20
228.566395
 42
-0.05266
 10
524.25
 20
228.619736
 42
0.077322
 10
525.459199
 20
228.74249
 42
0.192544
 10
526.161669
 20
229.261089
 42
0.105276
 10
526.560349
 20
230.371705
 42
0.015661
 10
526.807498
 20
232.75
 10
527.114996
 20
237.0
 10
538.557498
 20
237.0
 10
550.0
 20
237.0
 10
550.0
 20
204.0
 42
0.001237
 10
550.046276
 20
185.288603
 42
0.01012
 10
550.261364
 20
176.75
 42
0.013583
 10
550.621684
 20
171.794798
 42
0.38529
 10
551.5
 20
171.0
 42
0.385165
 10
552.378042
 20
171.794204
 42
0.013657
 10
552.738601
 20
176.733085
 42
0.01015
 10
552.953713
 20
185.246108
 42
0.001241
 10
553.0
 20
203.898509
 10
553.0
 20
236.797017
 10
560.25
 20
237.517025
 42
0.023132
 10
566.412091
 20
238.418376
 42
0.019993
 10
572.77635
 20
239.918471
 42
0.019588
 10
578.326151
 20
241.700096
 42
0.074487
 10
581.51423
 20
243.435555
 42
0.070669
 10
582.334609
 20
244.260717
 42
0.507519
 10
582.195013
 20
244.715368
 42
0.077331
 10
581.007729
 20
244.930498
 42
0.003777
 10
577.0
 20
245.0
 42
-0.003952
 10
573.045968
 20
245.06995
 42
-0.074779
 10
571.829614
 20
245.284852
 42
-0.499548
 10
571.679373
 20
245.738109
 42
-0.07935
 10
572.44113
 20
246.531803
 42
-0.052843
 10
573.375664
 20
247.094499
 42
-0.031483
 10
574.585953
 20
247.568717
 42
-0.03124
 10
575.86617
 20
247.892928
 42
-0.046427
 10
577.016816
 20
248.0
 42
0.072157
 10
578.21471
 20
248.173778
 42
0.043181
 10
579.556256
 20
248.700976
 42
0.04143
 10
580.860961
 20
249.489378
 42
0.047595
 10
581.953428
 20
250.450426
 42
-0.051583
 10
583.289296
 20
251.606872
 42
-0.058168
 10
584.783044
 20
252.411798
 42
-0.050738
 10
586.588255
 20
252.924371
 42
-0.027645
 10
588.877742
 20
253.200426
 42
0.025692
 10
591.759899
 20
253.536536
 42
0.12538
 10
593.249673
 20
254.196338
 42
0.097866
 10
594.424469
 20
255.565053
 42
0.012537
 10
596.252755
 20
259.0
 42
0.02676
 10
597.505407
 20
261.877846
 42
0.023514
 10
598.505219
 20
264.998917
 42
0.022266
 10
599.25377
 20
268.37055
 42
0.018663
 10
599.752755
 20
272.0
 10
600.5
 20
279.5
 10
606.5
 20
279.5
 10
612.5
 20
279.5
 10
612.792064
 20
271.75
 10
613.084129
 20
264.0
 10
610.042064
 20
264.0
 42
0.034865
 10
608.206983
 20
263.871882
 42
0.212344
 10
607.419004
 20
263.380185
 42
0.137338
 10
607.068604
 20
262.328028
 42
0.012128
 10
607.0
 20
259.5
 42
0.012152
 10
607.068508
 20
256.681601
 42
0.135673
 10
607.416667
 20
255.625
 42
0.212646
 10
608.198831
 20
255.130535
 42
0.036189
 10
610.0
 20
255.0
 10
613.0
 20
255.0
 10
613.0
 20
232.0
 10
613.0
 20
209.0
 10
615.5
 20
209.0
 42
-0.0831
 10
616.944318
 20
208.758286
 42
-0.227859
 10
617.660714
 20
208.05
 42
-0.080329
 10
617.949769
 20
206.485599
 42
-0.005599
 10
618.0
 20
202.0
 10
618.0
 20
195.0
 10
622.5
 20
195.0
 10
627.0
 20
195.0
 10
627.0
 20
152.0
 42
0.000926
 10
627.045411
 20
127.475396
 42
0.007792
 10
627.258721
 20
116.416667
 42
0.008452
 10
627.59949
 20
109.840694
 42
0.394238
 10
628.5
 20
109.0
 42
0.394238
 10
629.40051
 20
109.840694
 42
0.008452
 10
629.741279
 20
116.416667
 42
0.007792
 10
629.954589
 20
127.475396
 42
0.000926
 10
630.0
 20
152.0
 10
630.0
 20
195.0
 10
634.383369
 20
195.0
 42
0.0182
 10
636.681075
 20
195.083666
 42
0.078731
 10
638.006446
 20
195.393897
 42
0.133527
 10
638.802542
 20
196.002304
 42
0.099573
 10
639.289749
 20
197.0
 42
-0.223747
 10
640.241856
 20
198.139552
 42
-0.082061
 10
642.315347
 20
198.715139
 42
-0.024862
 10
646.527465
 20
198.95679
 42
-0.001899
 10
657.90638
 20
199.0
 42
-0.001751
 10
669.440635
 20
198.959612
 42
-0.025777
 10
673.488298
 20
198.722366
 42
-0.099572
 10
675.332417
 20
198.13453
 42
-0.272383
 10
676.0
 20
197.0
 42
0.118451
 10
676.253284
 20
195.945848
 42
0.189837
 10
676.9375
 20
195.340909
 42
0.077556
 10
678.359853
 20
195.061504
 42
0.009792
 10
681.5
 20
195.0
 10
687.0
 20
195.0
 10
687.0
 20
188.0
 42
0.00641
 10
687.053749
 20
183.807776
 42
0.065528
 10
687.32389
 20
182.095853
 42
0.191871
 10
687.949137
 20
181.300974
 42
0.132047
 10
689.068917
 20
181.0
 42
0.124694
 10
690.187223
 20
181.283297
 42
0.205481
 10
690.782705
 20
182.036068
 42
0.068848
 10
690.989653
 20
183.663781
 42
0.006307
 10
690.893074
 20
187.75
 10
690.648314
 20
194.5
 10
771.824157
 20
194.75588
 10
853.0
 20
195.01176
 10
853.0
 20
186.00588
 42
0.004483
 10
853.049055
 20
180.534797
 42
0.050192
 10
853.305519
 20
178.375735
 42
0.16851
 10
853.915362
 20
177.386424
 42
0.172815
 10
855.0
 20
177.0
 42
0.17273
 10
856.084603
 20
177.386209
 42
0.168559
 10
856.694444
 20
178.375
 42
0.050222
 10
856.950933
 20
180.532834
 42
0.004487
 10
857.0
 20
186.0
 10
857.0
 20
195.0
 10
861.5
 20
195.0
 10
866.0
 20
195.0
 10
866.0
 20
202.0
 10
866.0
 20
209.0
 10
883.0
 20
209.0
 42
0.001893
 10
893.804175
 20
209.040909
 42
0.027391
 10
897.625
 20
209.279412
 42
0.106183
 10
899.360902
 20
209.871447
 42
0.263491
 10
900.0
 20
211.0
 42
0.263491
 10
899.360902
 20
212.128553
 42
0.106183
 10
897.625
 20
212.720588
 42
0.027391
 10
893.804175
 20
212.959091
 42
0.001893
 10
883.0
 20
213.0
 42
-0.002648
 10
873.586861
 20
213.049855
 42
-0.019356
 10
869.083333
 20
213.272059
 42
-0.039586
 10
866.635449
 20
213.685048
 42
-0.34379
 10
866.0
 20
214.5
 42
0.37875
 10
865.235044
 20
215.36498
 42
0.017501
 10
861.0
 20
215.736842
 42
0.01169
 10
853.59572
 20
215.953133
 42
0.001456
 10
837.5
 20
216.0
 42
-0.001015
 10
819.016921
 20
216.037506
 42
-0.016502
 10
812.8125
 20
216.267544
 42
-0.056699
 10
809.87964
 20
216.811351
 42
-0.329776
 10
809.0
 20
218.0
 42
0.087745
 10
808.822713
 20
219.002462
 42
0.177212
 10
808.3125
 20
219.607143
 42
0.10769
 10
807.32428
 20
219.917816
 42
0.022514
 10
805.5
 20
220.0
 10
802.0
 20
220.0
 10
802.0
 20
233.0
 10
802.0
 20
246.0
 10
810.457936
 20
246.0
 10
818.915871
 20
246.0
 10
819.207936
 20
238.260844
 42
0.007606
 10
819.429523
 20
234.078501
 42
0.04493
 10
819.774202
 20
231.914384
 42
0.103223
 10
820.345375
 20
230.742338
 42
0.182728
 10
821.25
 20
230.18752
 42
0.215645
 10
822.160568
 20
230.406594
 42
0.173594
 10
822.706157
 20
231.265056
 42
0.050287
 10
822.950011
 20
233.255689
 42
0.005351
 10
823.0
 20
237.926676
 10
823.0
 20
246.0
 10
834.5
 20
246.0
 10
846.0
 20
246.0
 10
846.0
 20
257.0
 10
846.0
 20
268.0
 10
834.5
 20
268.0
 10
823.0
 20
268.0
 10
823.0
 20
282.0
 10
823.0
 20
296.0
 10
843.5
 20
296.0
 10
864.0
 20
296.0
 10
864.0
 20
305.5
 10
864.0
 20
315.0
 10
870.0
 20
315.0
 42
0.008455
 10
873.471613
 20
315.05871
 42
0.072107
 10
875.0
 20
315.333333
 42
0.188641
 10
875.727332
 20
315.939334
 42
0.12648
 10
876.0
 20
317.0
 42
0.3217
 10
875.153969
 20
318.178853
 42
0.062704
 10
872.4375
 20
318.731132
 42
0.01773
 10
866.647435
 20
318.962124
 42
0.001104
 10
849.5
 20
319.0
 10
823.0
 20
319.0
 10
823.0
 20
323.573324
 42
0.012512
 10
822.938153
 20
326.044371
 42
0.085527
 10
822.672483
 20
327.228612
 42
0.211524
 10
822.132212
 20
327.744764
 42
0.134077
 10
821.25
 20
327.814697
 42
0.135481
 10
820.422193
 20
327.407875
 42
0.105876
 10
819.826658
 20
326.597449
 42
0.065919
 10
819.428595
 20
325.268926
 42
0.021777
 10
819.192502
 20
323.241373
 10
818.885004
 20
319.0
 10
803.559134
 20
319.0
 42
0.002373
 10
794.025227
 20
318.954752
 42
0.029017
 10
790.388234
 20
318.708844
 42
0.094485
 10
788.586226
 20
318.123773
 42
0.206009
 10
787.710251
 20
317.0
 42
-0.119707
 10
787.148167
 20
315.956423
 42
-0.137687
 10
786.195165
 20
315.352543
 42
-0.063111
 10
784.483084
 20
315.067292
 42
-0.00976
 10
781.036122
 20
315.0
 10
774.885004
 20
315.0
 10
775.192502
 20
310.75
 42
0.017229
 10
775.483314
 20
308.034356
 42
0.162473
 10
776.0
 20
307.0
 42
0.162473
 10
777.034356
 20
306.483314
 42
0.017229
 10
779.75
 20
306.192502
 42
-0.021194
 10
781.658853
 20
305.972769
 42
-0.058471
 10
782.96014
 20
305.6073
 42
-0.098074
 10
783.726986
 20
305.098141
 42
-0.199886
 10
784.0
 20
304.442502
 42
-0.202119
 10
783.721796
 20
303.782399
 42
-0.116234
 10
782.970105
 20
303.330139
 42
-0.060489
 10
781.628453
 20
303.072979
 42
-0.017139
 10
779.5
 20
303.0
 10
775.0
 20
303.0
 10
775.0
 20
295.0
 10
775.0
 20
287.0
 10
770.44774
 20
287.0
 10
765.895481
 20
287.0
 10
766.19774
 20
281.75
 10
766.5
 20
276.5
 10
770.75
 20
276.192502
 10
775.0
 20
275.885004
 10
775.0
 20
265.442502
 10
775.0
 20
255.0
 10
769.0
 20
255.0
 42
0.010614
 10
765.964058
 20
254.935548
 42
0.050675
 10
764.25
 20
254.6875
 42
0.113455
 10
763.337712
 20
254.22303
 42
0.222027
 10
763.0
 20
253.5
 42
0.222027
 10
763.337712
 20
252.77697
 42
0.113455
 10
764.25
 20
252.3125
 42
0.050675
 10
765.964058
 20
252.064452
 42
0.010614
 10
769.0
 20
252.0
 10
775.0
 20
252.0
 10
775.0
 20
236.0
 10
775.0
 20
220.0
 10
778.5
 20
220.0
 42
-0.021868
 10
780.627612
 20
219.906903
 42
-0.176278
 10
781.5
 20
219.5
 42
-0.176278
 10
781.906903
 20
218.627612
 42
-0.021868
 10
782.0
 20
216.5
 42
0.022778
 10
782.099137
 20
214.324962
 42
0.192545
 10
782.535714
 20
213.46875
 42
0.165362
 10
783.478972
 20
213.079836
 42
0.01583
 10
786.0
 20
213.0
 42
-0.017388
 10
788.150836
 20
212.925179
 42
-0.098846
 10
789.25
 20
212.625
 42
-0.184152
 10
789.804216
 20
212.021586
 42
-0.094959
 10
790.0
 20
211.0
 42
-0.150217
 10
789.669697
 20
209.925391
 42
-0.180365
 10
788.8125
 20
209.316667
 42
-0.059311
 10
786.968394
 20
209.052806
 42
-0.005909
 10
782.5
 20
209.0
 10
775.0
 20
209.0
 10
775.0
 20
204.0
 10
775.0
 20
199.0
 10
762.0
 20
199.0
 10
749.0
 20
199.0
 10
749.0
 20
207.5
 10
749.0
 20
216.0
 10
737.5
 20
216.0
 10
726.0
 20
216.0
 10
726.0
 20
211.0
 42
-0.010324
 10
725.93723
 20
207.96031
 42
-0.105983
 10
725.625
 20
206.75
 42
-0.217022
 10
724.919849
 20
206.180083
 42
-0.063163
 10
723.5
 20
206.0
 42
-0.063163
 10
722.080151
 20
206.180083
 42
-0.217022
 10
721.375
 20
206.75
 42
-0.105983
 10
721.06277
 20
207.96031
 42
-0.010324
 10
721.0
 20
211.0
 10
721.0
 20
216.0
 10
704.0
 20
216.0
 10
687.0
 20
216.0
 10
687.0
 20
232.0
 10
687.0
 20
248.0
 10
682.426676
 20
248.0
 42
-0.012512
 10
679.955629
 20
248.061847
 42
-0.085527
 10
678.771388
 20
248.327517
 42
-0.211524
 10
678.255236
 20
248.867788
 42
-0.134077
 10
678.185303
 20
249.75
 42
-0.135481
 10
678.592125
 20
250.577807
 42
-0.105876
 10
679.402551
 20
251.173342
 42
-0.065919
 10
680.731074
 20
251.571405
 42
-0.021777
 10
682.758627
 20
251.807498
 10
687.0
 20
252.114996
 10
687.0
 20
267.557498
 10
687.0
 20
283.0
 10
697.5
 20
283.0
 42
0.003595
 10
703.966968
 20
283.046494
 42
0.043488
 10
706.4375
 20
283.297619
 42
0.15568
 10
707.560306
 20
283.906793
 42
0.193568
 10
708.0
 20
285.0
 42
0.193568
 10
707.560306
 20
286.093207
 42
0.15568
 10
706.4375
 20
286.702381
 42
0.043488
 10
703.966968
 20
286.953506
 42
0.003595
 10
697.5
 20
287.0
 10
687.0
 20
287.0
 10
687.0
 20
298.5
 10
687.0
 20
310.0
 10
689.5
 20
310.0
 42
0.045527
 10
690.768514
 20
310.115743
 42
0.152009
 10
691.5
 20
310.5
 42
0.152009
 10
691.884257
 20
311.231486
 42
0.045527
 10
692.0
 20
312.5
 42
-0.050766
 10
692.138668
 20
313.86222
 42
-0.189121
 10
692.6
 20
314.571429
 42
-0.13443
 10
693.534425
 20
314.915691
 42
-0.021436
 10
695.5
 20
315.0
 42
0.022514
 10
697.32428
 20
315.082184
 42
0.10769
 10
698.3125
 20
315.392857
 42
0.177212
 10
698.822713
 20
315.997538
 42
0.087745
 10
699.0
 20
317.0
 42
0.193568
 10
698.560306
 20
318.093207
 42
0.15568
 10
697.4375
 20
318.702381
 42
0.043488
 10
694.966968
 20
318.953506
 42
0.003595
 10
688.5
 20
319.0
 42
0.003595
 10
682.033032
 20
318.953506
 42
0.043488
 10
679.5625
 20
318.702381
 42
0.15568
 10
678.439694
 20
318.093207
 42
0.193568
 10
678.0
 20
317.0
 42
-0.12648
 10
677.727332
 20
315.939334
 42
-0.188641
 10
677.0
 20
315.333333
 42
-0.072107
 10
675.471613
 20
315.05871
 42
-0.008455
 10
672.0
 20
315.0
 42
0.007344
 10
668.238228
 20
314.944747
 42
0.091609
 10
666.85
 20
314.645833
 42
0.224968
 10
666.210324
 20
313.935971
 42
0.072846
 10
666.0
 20
312.5
 42
-0.047675
 10
665.873428
 20
311.175563
 42
-0.173074
 10
665.45
 20
310.458333
 42
-0.144586
 10
664.613599
 20
310.097235
 42
-0.030103
 10
663.0
 20
310.0
 10
660.0
 20
310.0
 10
660.0
 20
298.5
 10
660.0
 20
287.0
 10
663.383369
 20
287.0
 42
-0.030283
 10
665.046564
 20
286.899176
 42
-0.088252
 10
666.142568
 20
286.563573
 42
-0.121928
 10
666.850345
 20
285.947986
 42
-0.089365
 10
667.289749
 20
285.0
 42
0.083343
 10
667.68466
 20
284.1206
 42
0.103336
 10
668.323367
 20
283.493194
 42
0.091055
 10
669.227648
 20
283.122623
 42
0.051875
 10
670.40638
 20
283.0
 42
-0.041855
 10
671.738789
 20
282.888267
 42
-0.151058
 10
672.490638
 20
282.509024
 42
-0.156397
 10
672.88234
 20
281.7808
 42
-0.045836
 10
673.0
 20
280.5
 42
-0.077921
 10
672.774088
 20
279.059174
 42
-0.226921
 10
672.1
 20
278.346154
 42
-0.085635
 10
670.623539
 20
278.052512
 42
-0.006367
 10
666.5
 20
278.0
 10
660.0
 20
278.0
 10
660.0
 20
265.0
 10
660.0
 20
252.0
 10
654.0
 20
252.0
 42
0.008455
 10
650.528387
 20
251.94129
 42
0.072107
 10
649.0
 20
251.666667
 42
0.188641
 10
648.272668
 20
251.060666
 42
0.12648
 10
648.0
 20
250.0
 42
0.12648
 10
648.272668
 20
248.939334
 42
0.188641
 10
649.0
 20
248.333333
 42
0.072107
 10
650.528387
 20
248.05871
 42
0.008455
 10
654.0
 20
248.0
 10
660.0
 20
248.0
 10
660.0
 20
225.0
 10
660.0
 20
202.0
 10
649.5
 20
202.0
 10
639.0
 20
202.0
 10
639.0
 20
228.5
 10
639.0
 20
255.0
 10
636.5
 20
255.0
 42
-0.058662
 10
635.093239
 20
255.165617
 42
-0.210352
 10
634.388889
 20
255.7
 42
-0.114574
 10
634.068074
 20
256.820113
 42
-0.012699
 10
634.0
 20
259.5
 42
-0.012699
 10
634.068074
 20
262.179887
 42
-0.114574
 10
634.388889
 20
263.3
 42
-0.210352
 10
635.093239
 20
263.834383
 42
-0.058662
 10
636.5
 20
264.0
 10
639.0
 20
264.0
 10
639.0
 20
277.5
 10
639.0
 20
291.0
 10
642.0
 20
291.0
 42
0.030703
 10
643.500917
 20
291.092253
 42
0.116834
 10
644.375
 20
291.416667
 42
0.166173
 10
644.840542
 20
292.024683
 42
0.081208
 10
645.0
 20
293.0
 42
0.081208
 10
644.840542
 20
293.975317
 42
0.166173
 10
644.375
 20
294.583333
 42
0.116834
 10
643.500917
 20
294.907747
 42
0.030703
 10
642.0
 20
295.0
 10
639.0
 20
295.0
 10
639.0
 20
307.0
 10
639.0
 20
319.0
 10
634.5
 20
319.0
 10
630.0
 20
319.0
 10
630.0
 20
313.5
 42
-0.01212
 10
629.933383
 20
310.752068
 42
-0.054498
 10
629.681818
 20
309.166667
 42
-0.118311
 10
629.215544
 20
308.316753
 42
-0.211442
 10
628.5
 20
308.0
 42
-0.211442
 10
627.784456
 20
308.316753
 42
-0.118311
 10
627.318182
 20
309.166667
 42
-0.054498
 10
627.066617
 20
310.752068
 42
-0.01212
 10
627.0
 20
313.5
 10
627.0
 20
319.0
 10
622.5
 20
319.0
 42
0.013964
 10
620.020585
 20
318.930739
 42
0.090841
 10
618.8125
 20
318.638889
 42
0.188085
 10
618.214724
 20
318.035525
 42
0.102588
 10
618.0
 20
317.0
 42
-0.07578
 10
617.857434
 20
316.064742
 42
-0.149477
 10
617.4375
 20
315.45
 42
-0.124434
 10
616.682766
 20
315.106468
 42
-0.044917
 10
615.5
 20
315.0
 10
613.0
 20
315.0
 10
613.0
 20
305.0
 10
613.0
 20
295.0
 10
617.0
 20
295.0
 42
-0.017917
 10
619.094656
 20
294.924914
 42
-0.091781
 10
620.215867
 20
294.632988
 42
-0.174633
 10
620.790774
 20
294.060213
 42
-0.110819
 10
621.0
 20
293.127808
 42
-0.12383
 10
620.768185
 20
292.206138
 42
-0.130042
 10
620.130455
 20
291.523559
 42
-0.078236
 10
618.951156
 20
291.018599
 42
-0.022466
 10
617.0
 20
290.615991
 42
0.019304
 10
614.680704
 20
290.152682
 42
0.125877
 10
613.638165
 20
289.601673
 42
0.168342
 10
613.14302
 20
288.696601
 42
0.041784
 10
613.0
 20
286.988182
 10
613.0
 20
284.0
 10
606.65913
 20
284.0
 10
600.31826
 20
284.0
 10
599.113083
 20
289.385297
 42
0.028745
 10
598.410386
 20
291.850928
 42
0.014976
 10
597.268759
 20
294.837982
 42
0.014844
 10
595.909835
 20
297.842993
 42
0.02191
 10
594.526908
 20
300.385297
 10
591.14591
 20
306.0
 10
594.1954
 20
306.0
 42
0.011706
 10
595.945647
 20
306.040982
 42
0.176535
 10
596.49831
 20
306.272232
 42
0.356782
 10
596.558549
 20
306.700852
 42
0.036752
 10
595.92158
 20
307.594491
 42
0.054448
 10
595.100584
 20
308.389445
 42
0.011658
 10
593.503809
 20
309.571336
 42
0.012051
 10
591.579181
 20
310.859334
 42
0.011224
 10
589.549135
 20
312.085107
 42
0.023997
 10
586.497618
 20
313.645889
 42
0.051276
 10
583.9894
 20
314.483601
 42
0.042353
 10
581.076214
 20
314.879938
 42
0.01201
 10
576.5
 20
315.00144
 42
-0.015165
 10
573.093534
 20
315.113396
 42
-0.012511
 10
569.473148
 20
315.433552
 42
-0.012702
 10
566.163807
 20
315.895269
 42
-0.032665
 10
563.812843
 20
316.44408
 42
0.020294
 10
561.520929
 20
317.039221
 42
0.008776
 10
558.427829
 20
317.653109
 42
0.008668
 10
555.110032
 20
318.192065
 42
0.011371
 10
552.062843
 20
318.562466
 10
545.0
 20
319.258421
 10
545.0
 20
340.62921
 42
0.001427
 10
544.960839
 20
354.351521
 42
0.021905
 10
544.726604
 20
359.078651
 42
0.082544
 10
544.152277
 20
361.254863
 42
0.295163
 10
543.0
 20
362.0
 42
0.295956
 10
541.847032
 20
361.25203
 42
0.08195
 10
541.273256
 20
359.0625
 42
0.021776
 10
541.039121
 20
354.308586
 42
0.001417
  0
LWPOLYLINE
  5
3E
330
128
100
AcDbEntity
  8
0
100
AcDbPolyline
 90
       96
 70
     1
 43
0.0
 10
450.0
 20
312.536212
 42
-0.117453
 10
449.660732
 20
311.111861
 42
-0.208911
 10
448.748122
 20
310.35676
 42
-0.05883
 10
446.675608
 20
310.018451
 42
-0.00361
 10
440.412549
 20
309.786212
 10
430.825099
 20
309.5
 10
423.981468
 20
293.75
 10
417.137837
 20
278.0
 10
420.568919
 20
278.0
 42
-0.011128
 10
421.884397
 20
277.970719
 42
-0.018376
 10
422.99212
 20
277.880508
 42
-0.012772
 10
423.863924
 20
277.754493
 42
-0.365511
 10
424.0
 20
277.593217
 42
-0.099211
 10
423.940433
 20
277.295967
 42
-0.001071
 10
423.131036
 20
275.369169
 42
-0.003326
 10
422.17562
 20
273.149643
 42
-0.002152
 10
421.041824
 20
270.593217
 10
418.083647
 20
264.0
 10
421.541824
 20
264.0
 10
425.0
 20
264.0
 10
425.0
 20
257.0
 42
-0.006583
 10
424.945542
 20
252.864163
 42
-0.063075
 10
424.678571
 20
251.125
 42
-0.183695
 10
424.070611
 20
250.311233
 42
-0.142406
 10
423.0
 20
250.0
 42
-0.072314
 10
422.230589
 20
250.111864
 42
-0.08892
 10
421.583333
 20
250.4375
 42
-0.10214
 10
421.153209
 20
250.924246
 42
-0.130775
 10
421.0
 20
251.5
 42
0.232029
 10
420.642085
 20
252.229748
 42
0.108427
 10
419.666667
 20
252.692308
 42
0.047315
 10
417.824386
 20
252.93736
 42
0.00942
 10
414.5
 20
253.0
 42
0.00942
 10
411.175614
 20
252.93736
 42
0.047315
 10
409.333333
 20
252.692308
 42
0.108427
 10
408.357915
 20
252.229748
 42
0.232029
 10
408.0
 20
251.5
 42
0.164293
 10
408.226074
 20
250.830552
 42
0.129352
 10
408.833333
 20
250.357143
 42
0.075863
 10
409.895967
 20
250.081893
 42
0.025511
 10
411.5
 20
250.0
 42
-0.032465
 10
413.864223
 20
249.846328
 42
-0.243985
 10
414.755584
 20
249.225415
 42
-0.207129
 10
414.843591
 20
248.058291
 42
-0.023581
 10
413.839485
 20
245.547053
 42
-0.070697
 10
412.927331
 20
244.119841
 42
-0.139533
 10
411.813938
 20
243.384517
 42
-0.068575
 10
409.963615
 20
243.067915
 42
-0.008133
 10
405.788458
 20
243.0
 10
398.897947
 20
243.0
 10
397.435553
 20
246.5
 42
0.030185
 10
396.421782
 20
248.56623
 42
0.138381
 10
395.480847
 20
249.495758
 42
0.110521
 10
394.081668
 20
249.904369
 42
0.015998
 10
391.093569
 20
250.0
 42
-0.018205
 10
388.825665
 20
250.082601
 42
-0.04892
 10
387.236436
 20
250.356341
 42
-0.075387
 10
386.191474
 20
250.821521
 42
-0.160116
 10
385.638374
 20
251.5
 42
-0.176755
 10
385.626422
 20
252.223718
 42
-0.222401
 10
386.088321
 20
252.699052
 42
-0.078326
 10
387.252829
 20
252.942055
 42
-0.012348
 10
389.598772
 20
253.0
 42
0.009296
 10
392.379305
 20
253.051698
 42
0.12378
 10
393.354322
 20
253.335754
 42
0.285424
 10
393.682576
 20
253.958744
 42
0.057084
 10
393.440702
 20
255.25
 42
0.016281
 10
393.077595
 20
256.303988
 42
0.007819
 10
392.547102
 20
257.632287
 42
0.007743
 10
391.949909
 20
259.002209
 42
0.010975
 10
391.373315
 20
260.20034
 42
-0.032062
 10
389.998614
 20
263.394844
 42
-0.244904
 10
390.216517
 20
264.962943
 42
-0.216095
 10
391.666402
 20
265.806086
 42
-0.025275
 10
395.5
 20
266.0
 42
0.00804
 10
397.608835
 20
266.033911
 42
0.01334
 10
399.384375
 20
266.138499
 42
0.006944
 10
400.831595
 20
266.282834
 42
0.381407
 10
401.0
 20
266.471487
 42
0.095052
 10
400.935817
 20
266.806055
 42
0.001908
 10
400.288248
 20
268.413871
 42
0.004453
 10
399.505538
 20
270.288061
 42
0.002968
 10
398.577016
 20
272.42177
 10
396.154032
 20
277.900567
 10
389.889882
 20
278.200284
 10
383.625731
 20
278.5
 10
376.862715
 20
294.0
 10
370.0997
 20
309.5
 10
375.04985
 20
309.80226
 42
0.011772
 10
377.967092
 20
310.049436
 42
0.100086
 10
379.213545
 20
310.445382
 42
0.197661
 10
379.805467
 20
311.187292
 42
0.070901
 10
380.0
 20
312.55226
 10
380.0
 20
315.0
 10
415.0
 20
315.0
 10
450.0
 20
315.0
  0
LWPOLYLINE
  5
3F
330
128
100
AcDbEntity
  8
0
100
AcDbPolyline
 90
      160
 70
     1
 43
0.0
 10
262.249238
 20
295.236146
 42
-0.025157
 10
264.956704
 20
293.786248
 42
-0.016461
 10
267.929085
 20
291.860521
 42
-0.016568
 10
270.708422
 20
289.787157
 42
-0.030266
 10
272.80722
 20
287.891533
 42
-0.044177
 10
276.240434
 20
283.709739
 42
-0.026798
 10
279.564149
 20
278.233857
 42
-0.026628
 10
282.15735
 20
272.707002
 42
-0.07149
 10
283.199032
 20
268.5
 42
-0.026319
 10
283.281001
 20
266.770599
 42
-0.178803
 10
282.98535
 20
265.983059
 42
-0.187273
 10
282.257296
 20
265.597019
 42
-0.02933
 10
280.604775
 20
265.5
 42
-0.05824
 10
278.954125
 20
265.692923
 42
-0.154931
 10
277.94813
 20
266.296105
 42
-0.095577
 10
277.195309
 20
267.573082
 42
-0.0146
 10
276.281765
 20
270.39661
 42
0.065388
 10
272.835517
 20
278.233171
 42
0.066988
 10
267.50509
 20
284.842698
 42
0.06824
 10
260.716343
 20
289.710532
 42
0.072375
 10
253.0
 20
292.451446
 42
-0.00345
 10
251.531663
 20
292.754769
 42
-0.003099
 10
250.014062
 20
293.089055
 42
-0.003107
 10
248.65616
 20
293.405885
 42
-0.009755
 10
247.75
 20
293.642045
 42
0.113164
 10
246.862805
 20
293.685628
 42
0.239226
 10
246.327277
 20
293.281962
 42
0.100233
 10
246.061116
 20
292.262833
 42
0.013916
 10
246.0
 20
290.067388
 42
0.01625
 10
246.074331
 20
287.780826
 42
0.109943
 10
246.389645
 20
286.700569
 42
0.194727
 10
247.047926
 20
286.164802
 42
0.072313
 10
248.25
 20
285.978038
 42
-0.083368
 10
251.179583
 20
285.456703
 42
-0.026602
 10
255.27879
 20
283.744543
 42
-0.027239
 10
259.351342
 20
281.502155
 42
-0.050147
 10
262.341583
 20
279.191049
 42
-0.060062
 10
265.604714
 20
275.258388
 42
-0.048345
 10
268.124234
 20
270.371537
 42
-0.06285
 10
269.172111
 20
266.333092
 42
-0.452323
 10
268.0
 20
265.0
 42
0.277684
 10
267.614308
 20
264.767902
 42
0.052312
 10
267.29375
 20
263.971875
 42
0.042582
 10
267.072542
 20
262.841111
 42
0.027026
 10
267.0
 20
261.5
 42
0.021868
 10
267.093097
 20
259.372388
 42
0.176278
 10
267.5
 20
258.5
 42
0.176278
 10
268.372388
 20
258.093097
 42
0.021868
 10
270.5
 20
258.0
 42
0.022514
 10
272.32428
 20
258.082184
 42
0.10769
 10
273.3125
 20
258.392857
 42
0.177212
 10
273.822713
 20
258.997538
 42
0.087745
 10
274.0
 20
260.0
 42
-0.07578
 10
274.142566
 20
260.935258
 42
-0.149477
 10
274.5625
 20
261.55
 42
-0.124434
 10
275.317234
 20
261.893532
 42
-0.044917
 10
276.5
 20
262.0
 42
-0.044917
 10
277.682766
 20
261.893532
 42
-0.124434
 10
278.4375
 20
261.55
 42
-0.149477
 10
278.857434
 20
260.935258
 42
-0.07578
 10
279.0
 20
260.0
 42
0.082093
 10
279.161973
 20
259.020128
 42
0.168067
 10
279.633995
 20
258.412763
 42
0.115546
 10
280.524765
 20
258.09059
 42
0.029251
 10
282.071956
 20
258.0
 10
285.143913
 20
258.0
 10
284.494189
 20
252.25
 42
-0.049421
 10
282.105438
 20
241.112656
 42
-0.061451
 10
277.666655
 20
231.504952
 42
-0.06578
 10
271.331347
 20
223.780392
 42
-0.070751
 10
263.349413
 20
218.186782
 42
-0.058192
 10
256.498129
 20
215.656857
 42
-0.041753
 10
248.425605
 20
214.403601
 42
-0.041871
 10
240.289444
 20
214.510444
 42
-0.059951
 10
233.25
 20
216.059364
 10
230.0
 20
217.19565
 10
230.0
 20
230.597825
 42
0.002575
 10
229.956723
 20
239.000699
 42
0.034473
 10
229.712693
 20
242.074728
 42
0.131562
 10
229.108962
 20
243.46471
 42
0.228722
 10
228.0
 20
244.0
 42
0.212584
 10
226.898615
 20
243.509562
 42
0.142907
 10
226.291667
 20
242.25
 42
0.038318
 10
226.04462
 20
239.467369
 42
0.002988
 10
226.0
 20
232.0
 42
-0.006138
 10
225.936729
 20
226.846207
 42
-0.015634
 10
225.728175
 20
223.113636
 42
-0.012248
 10
225.425571
 20
220.412817
 42
-0.374898
 10
224.952381
 20
220.0
 42
-0.162546
 10
224.331288
 20
220.207392
 42
-0.010523
 10
222.813438
 20
221.399062
 42
-0.014463
 10
221.04278
 20
222.938199
 42
-0.010228
 10
219.141999
 20
224.762763
 42
-0.039601
 10
215.474035
 20
229.062796
 42
-0.030629
 10
212.171137
 20
234.263279
 42
-0.031337
 10
209.640589
 20
239.611449
 42
-0.054659
 10
208.333325
 20
244.333383
 10
207.738315
 20
248.0
 10
214.369158
 20
248.0
 10
221.0
 20
248.0
 10
221.0
 20
255.0
 42
0.006583
 10
220.945542
 20
259.135837
 42
0.063075
 10
220.678571
 20
260.875
 42
0.183695
 10
220.070611
 20
261.688767
 42
0.142406
 10
219.0
 20
262.0
 42
0.072254
 10
218.126841
 20
261.873159
 42
0.124864
 10
217.5
 20
261.5
 42
0.124864
 10
217.126841
 20
260.873159
 42
0.072254
 10
217.0
 20
260.0
 42
-0.165398
 10
216.632181
 20
258.918496
 42
-0.1727
 10
215.6875
 20
258.308824
 42
-0.052938
 10
213.634096
 20
258.05015
 42
-0.004884
 10
208.5
 20
258.0
 42
-0.004884
 10
203.365904
 20
258.05015
 42
-0.052938
 10
201.3125
 20
258.308824
 42
-0.1727
 10
200.367819
 20
258.918496
 42
-0.165398
 10
200.0
 20
260.0
 42
0.087745
 10
199.822713
 20
261.002462
 42
0.177212
 10
199.3125
 20
261.607143
 42
0.10769
 10
198.32428
 20
261.917816
 42
0.022514
 10
196.5
 20
262.0
 42
-0.025511
 10
194.895967
 20
262.081893
 42
-0.075863
 10
193.833333
 20
262.357143
 42
-0.129352
 10
193.226074
 20
262.830552
 42
-0.164293
 10
193.0
 20
263.5
 42
-0.222027
 10
193.337712
 20
264.22303
 42
-0.113455
 10
194.25
 20
264.6875
 42
-0.050675
 10
195.964058
 20
264.935548
 42
-0.010614
 10
199.0
 20
265.0
 42
-0.010614
 10
202.035942
 20
264.935548
 42
-0.050675
 10
203.75
 20
264.6875
 42
-0.113455
 10
204.662288
 20
264.22303
 42
-0.222027
 10
205.0
 20
263.5
 42
0.155492
 10
205.392407
 20
262.268683
 42
0.507463
 10
206.108472
 20
262.25825
 42
0.083662
 10
207.141316
 20
264.24589
 42
0.026908
 10
207.993663
 20
267.469476
 42
-0.039548
 10
209.801529
 20
273.668959
 42
-0.036296
 10
212.604437
 20
279.695082
 42
-0.036963
 10
216.183895
 20
285.136954
 42
-0.045592
 10
220.307637
 20
289.591759
 10
225.5
 20
294.265215
 10
226.0
 20
283.393432
 42
0.004708
 10
226.336382
 20
277.324908
 42
0.033353
 10
226.722975
 20
274.401349
 42
0.082065
 10
227.308247
 20
272.855422
 42
0.217445
 10
228.25
 20
272.1875
 42
0.28562
 10
229.184745
 20
272.54764
 42
0.125062
 10
229.720493
 20
273.822668
 42
0.034065
 10
229.954508
 20
276.71082
 42
0.003186
 10
230.0
 20
283.849124
 10
230.0
 20
295.844896
 10
233.25
 20
296.857285
 42
-0.011653
 10
237.328672
 20
298.024265
 42
-0.035891
 10
240.148505
 20
298.54793
 42
-0.031739
 10
243.192497
 20
298.695399
 42
-0.007618
 10
248.249238
 20
298.542211
 42
-0.01638
 10
252.372592
 20
298.218785
 42
-0.030225
 10
255.684941
 20
297.645193
 42
-0.031822
 10
258.78837
 20
296.700395
 42
-0.020555
  0
LWPOLYLINE
  5
40
330
128
100
AcDbEntity
  8
0
100
AcDbPolyline
 90
       68
 70
     1
 43
0.0
 10
541.0
 20
294.5
 42
0.044917
 10
541.106468
 20
293.317234
 42
0.124434
 10
541.45
 20
292.5625
 42
0.149477
 10
542.064742
 20
292.142566
 42
0.07578
 10
543.0
 20
292.0
 42
0.07578
 10
543.935258
 20
292.142566
 42
0.149477
 10
544.55
 20
292.5625
 42
0.124434
 10
544.893532
 20
293.317234
 42
0.044917
 10
545.0
 20
294.5
 42
-0.085447
 10
545.24895
 20
295.946107
 42
-0.229003
 10
545.972804
 20
296.661604
 42
-0.07801
 10
547.578164
 20
296.943203
 42
-0.005243
 10
552.25
 20
296.978038
 42
-0.04854
 10
559.714709
 20
296.228827
 42
-0.082509
 10
565.569036
 20
294.014
 42
-0.096232
 10
569.786692
 20
290.328243
 42
-0.090163
 10
572.436192
 20
285.25
 42
0.073848
 10
572.983325
 20
284.112919
 42
0.131409
 10
573.763534
 20
283.437444
 42
0.090404
 10
574.990978
 20
283.095182
 42
0.022908
 10
577.067388
 20
283.0
 42
-0.020864
 10
578.917168
 20
282.92278
 42
-0.070353
 10
580.094565
 20
282.654644
 42
-0.129133
 10
580.753506
 20
282.182987
 42
-0.174931
 10
581.0
 20
281.5
 42
-0.161501
 10
580.779341
 20
280.834669
 42
-0.129048
 10
580.185591
 20
280.360735
 42
-0.077367
 10
579.153325
 20
280.083319
 42
-0.027036
 10
577.613544
 20
280.0
 42
0.032718
 10
575.549976
 20
279.864825
 42
0.184907
 10
574.59748
 20
279.348785
 42
0.129054
 10
574.049752
 20
278.220423
 42
0.013012
 10
573.542295
 20
275.25
 42
-0.074533
 10
571.710636
 20
269.155864
 42
-0.091678
 10
568.248364
 20
264.342939
 42
-0.089756
 10
563.228514
 20
261.01585
 42
-0.068343
 10
556.858288
 20
259.254167
 10
553.0
 20
258.736662
 10
553.0
 20
262.368331
 42
0.023919
 10
552.919649
 20
264.047012
 42
0.074144
 10
552.646742
 20
265.144722
 42
0.129499
 10
552.173902
 20
265.767674
 42
0.167536
 10
551.5
 20
266.0
 42
0.164293
 10
550.830552
 20
265.773926
 42
0.129352
 10
550.357143
 20
265.166667
 42
0.075863
 10
550.081893
 20
264.104033
 42
0.025511
 10
550.0
 20
262.5
 10
550.0
 20
259.0
 10
538.5
 20
259.0
 10
527.0
 20
259.0
 10
527.0
 20
269.5
 10
527.0
 20
280.0
 10
532.5
 20
280.0
 42
0.01212
 10
535.247932
 20
280.066617
 42
0.054498
 10
536.833333
 20
280.318182
 42
0.118311
 10
537.683247
 20
280.784456
 42
0.211442
 10
538.0
 20
281.5
 42
0.211442
 10
537.683247
 20
282.215544
 42
0.118311
 10
536.833333
 20
282.681818
 42
0.054498
 10
535.247932
 20
282.933383
 42
0.01212
 10
532.5
 20
283.0
 10
527.0
 20
283.0
 10
527.0
 20
290.0
 10
527.0
 20
297.0
 10
534.0
 20
297.0
 42
-0.005599
 10
538.485599
 20
296.949769
 42
-0.080329
 10
540.05
 20
296.660714
 42
-0.227859
 10
540.758286
 20
295.944318
 42
-0.0831
  0
LWPOLYLINE
  5
41
330
128
100
AcDbEntity
  8
0
100
AcDbPolyline
 90
       16
 70
     1
 43
0.0
 10
819.0
 20
282.0
 10
819.0
 20
268.0
 10
810.5
 20
268.0
 10
802.0
 20
268.0
 10
802.0
 20
272.0
 10
802.0
 20
276.0
 10
797.5
 20
276.0
 10
793.0
 20
276.0
 10
793.0
 20
281.5
 10
793.0
 20
287.0
 10
797.5
 20
287.0
 10
802.0
 20
287.0
 10
802.0
 20
291.5
 10
802.0
 20
296.0
 10
810.5
 20
296.0
 10
819.0
 20
296.0
  0
LWPOLYLINE
  5
42
330
128
100
AcDbEntity
  8
0
100
AcDbPolyline
 90
       20
 70
     1
 43
0.0
 10
364.347635
 20
260.25
 42
-0.011127
 10
364.935947
 20
259.026957
 42
-0.007759
 10
365.547184
 20
257.622851
 42
-0.007831
 10
366.091638
 20
256.257335
 42
-0.016061
 10
366.466659
 20
255.168217
 42
-0.025744
 10
366.795918
 20
253.868019
 42
-0.221056
 10
366.657851
 20
253.300308
 42
-0.235057
 10
366.142692
 20
253.060681
 42
-0.028984
 10
364.870131
 20
253.168217
 42
-0.078556
 10
363.627188
 20
253.551405
 42
-0.169474
 10
362.932625
 20
254.254628
 42
-0.092026
 10
362.586929
 20
255.554603
 42
-0.013976
 10
362.456303
 20
258.25
 42
-0.005816
 10
362.440197
 20
260.071348
 42
-0.009694
 10
362.474205
 20
261.604688
 42
-0.003728
 10
362.537252
 20
262.88982
 42
-0.397767
 10
362.653837
 20
263.0
 42
-0.253289
 10
362.816394
 20
262.912007
 42
-0.006616
 10
363.272996
 20
262.192187
 42
-0.012397
 10
363.79012
 20
261.304018
 42
-0.007965
  0
LWPOLYLINE
  5
43
330
128
100
AcDbEntity
  8
0
100
AcDbPolyline
 90
       16
 70
     1
 43
0.0
 10
351.813358
 20
256.75
 42
-0.033296
 10
351.585408
 20
255.361237
 42
-0.070033
 10
351.191877
 20
254.343893
 42
-0.102123
 10
350.655072
 20
253.722471
 42
-0.165174
 10
350.0
 20
253.5
 42
-0.165174
 10
349.344928
 20
253.722471
 42
-0.102123
 10
348.808123
 20
254.343893
 42
-0.070033
 10
348.414592
 20
255.361237
 42
-0.033296
 10
348.186642
 20
256.75
 42
-0.021809
 10
348.093718
 20
258.51803
 42
-0.130185
 10
348.320161
 20
259.404792
 42
-0.202897
 10
348.898978
 20
259.855413
 42
-0.06538
 10
350.0
 20
260.0
 42
-0.06538
 10
351.101022
 20
259.855413
 42
-0.202897
 10
351.679839
 20
259.404792
 42
-0.130185
 10
351.906282
 20
258.51803
 42
-0.021809
  0
LWPOLYLINE
  5
44
330
128
100
AcDbEntity
  8
0
100
AcDbPolyline
 90
       16
 70
     1
 43
0.0
 10
294.0
 20
253.0
 42
-0.014068
 10
293.930757
 20
250.539511
 42
-0.058865
 10
293.675
 20
249.083333
 42
-0.122766
 10
293.20701
 20
248.295059
 42
-0.200296
 10
292.5
 20
248.0
 42
-0.200296
 10
291.79299
 20
248.295059
 42
-0.122766
 10
291.325
 20
249.083333
 42
-0.058865
 10
291.069243
 20
250.539511
 42
-0.014068
 10
291.0
 20
253.0
 42
-0.014068
 10
291.069243
 20
255.460489
 42
-0.058865
 10
291.325
 20
256.916667
 42
-0.122766
 10
291.79299
 20
257.704941
 42
-0.200296
 10
292.5
 20
258.0
 42
-0.200296
 10
293.20701
 20
257.704941
 42
-0.122766
 10
293.675
 20
256.916667
 42
-0.058865
 10
293.930757
 20
255.460489
 42
-0.014068
  0
LWPOLYLINE
  5
45
330
128
100
AcDbEntity
  8
0
100
AcDbPolyline
 90
       16
 70
     1
 43
0.0
 10
60.814697
 20
239.25
 42
-0.137468
 10
60.401346
 20
238.417134
 42
-0.106346
 10
59.576167
 20
237.821788
 42
-0.064874
 10
58.213169
 20
237.424632
 42
-0.020584
 10
56.10551
 20
237.185864
 42
-0.021927
 10
54.358044
 20
237.137279
 42
-0.026787
 10
52.727091
 20
237.251
 42
-0.026952
 10
51.397196
 20
237.488971
 42
-0.139505
 10
50.751269
 20
237.848731
 42
-0.205395
 10
50.259429
 20
239.079272
 42
-0.259635
 10
50.871894
 20
240.117514
 42
-0.10202
 10
52.887875
 20
240.800037
 42
-0.030787
 10
56.132341
 20
241.0
 42
-0.01079
 10
58.880121
 20
240.940698
 42
-0.07879
 10
60.166908
 20
240.6793
 42
-0.209227
 10
60.725341
 20
240.137619
 42
-0.144897
  0
LWPOLYLINE
  5
46
330
128
100
AcDbEntity
  8
0
100
AcDbPolyline
 90
       10
 70
     1
 43
0.0
 10
408.900878
 20
234.25
 42
-0.011916
 10
406.644246
 20
229.295015
 42
-0.408224
 10
405.539772
 20
228.898775
 42
-0.188649
 10
404.406748
 20
230.073841
 42
-0.003913
 10
401.283287
 20
237.75
 42
-0.294067
 10
401.393751
 20
238.314054
 42
-0.135478
 10
402.065074
 20
238.712893
 42
-0.053938
 10
403.47512
 20
238.938981
 42
-0.012804
 10
405.857474
 20
239.0
 10
410.928925
 20
239.0
  0
LWPOLYLINE
  5
47
330
128
100
AcDbEntity
  8
0
100
AcDbPolyline
 90
       16
 70
     1
 43
0.0
 10
633.5
 20
224.916667
 42
-0.004892
 10
633.445292
 20
219.325041
 42
-0.030872
 10
633.214
 20
216.486111
 42
-0.073142
 10
632.769347
 20
214.990814
 42
-0.291818
 10
632.0
 20
214.5
 42
-0.278298
 10
631.231421
 20
214.963703
 42
-0.074489
 10
630.739995
 20
216.369137
 42
-0.03329
 10
630.420641
 20
218.993028
 42
-0.005954
 10
630.210159
 20
223.924983
 42
-0.006938
 10
630.098768
 20
230.528242
 42
-0.043492
 10
630.381449
 20
233.888094
 42
-0.132168
 10
631.091393
 20
235.421179
 42
-0.308256
 10
632.250526
 20
235.749825
 42
-0.260624
 10
632.848355
 20
235.093961
 42
-0.028609
 10
633.210017
 20
233.012451
 42
-0.022152
 10
633.4357
 20
229.818092
 42
-0.006559
  0
LWPOLYLINE
  5
48
330
128
100
AcDbEntity
  8
0
100
AcDbPolyline
 90
       16
 70
     1
 43
0.0
 10
839.0
 20
211.0
 42
-0.12648
 10
838.727332
 20
209.939334
 42
-0.188641
 10
838.0
 20
209.333333
 42
-0.072107
 10
836.471613
 20
209.05871
 42
-0.008455
 10
833.0
 20
209.0
 42
-0.008455
 10
829.528387
 20
209.05871
 42
-0.072107
 10
828.0
 20
209.333333
 42
-0.188641
 10
827.272668
 20
209.939334
 42
-0.12648
 10
827.0
 20
211.0
 42
-0.12648
 10
827.272668
 20
212.060666
 42
-0.188641
 10
828.0
 20
212.666667
 42
-0.072107
 10
829.528387
 20
212.94129
 42
-0.008455
 10
833.0
 20
213.0
 42
-0.008455
 10
836.471613
 20
212.94129
 42
-0.072107
 10
838.0
 20
212.666667
 42
-0.188641
 10
838.727332
 20
212.060666
 42
-0.12648
  0
LWPOLYLINE
  5
49
330
128
100
AcDbEntity
  8
0
100
AcDbPolyline
 90
       16
 70
     1
 43
0.0
 10
464.0
 20
110.0
 42
-0.118451
 10
463.746716
 20
108.945848
 42
-0.189837
 10
463.0625
 20
108.340909
 42
-0.077556
 10
461.640147
 20
108.061504
 42
-0.009792
 10
458.5
 20
108.0
 42
-0.009792
 10
455.359853
 20
108.061504
 42
-0.077556
 10
453.9375
 20
108.340909
 42
-0.189837
 10
453.253284
 20
108.945848
 42
-0.118451
 10
453.0
 20
110.0
 42
-0.118451
 10
453.253284
 20
111.054152
 42
-0.189837
 10
453.9375
 20
111.659091
 42
-0.077556
 10
455.359853
 20
111.938496
 42
-0.009792
 10
458.5
 20
112.0
 42
-0.009792
 10
461.640147
 20
111.938496
 42
-0.077556
 10
463.0625
 20
111.659091
 42
-0.189837
 10
463.746716
 20
111.054152
 42
-0.118451
  0
LWPOLYLINE
  5
4A
330
128
100
AcDbEntity
  8
0
100
AcDbPolyline
 90
       16
 70
     1
 43
0.0
 10
643.0
 20
326.5
 42
0.002008
 10
643.048294
 20
314.472446
 42
0.015407
 10
643.267442
 20
308.833333
 42
0.027792
 10
643.662043
 20
305.69867
 42
0.362199
 10
644.5
 20
305.0
 42
0.362199
 10
645.337957
 20
305.69867
 42
0.027792
 10
645.732558
 20
308.833333
 42
0.015407
 10
645.951706
 20
314.472446
 42
0.002008
 10
646.0
 20
326.5
 42
0.002008
 10
645.951706
 20
338.527554
 42
0.015407
 10
645.732558
 20
344.166667
 42
0.027792
 10
645.337957
 20
347.30133
 42
0.362199
 10
644.5
 20
348.0
 42
0.362199
 10
643.662043
 20
347.30133
 42
0.027792
 10
643.267442
 20
344.166667
 42
0.015407
 10
643.048294
 20
338.527554
 42
0.002008
  0
LWPOLYLINE
  5
4B
330
128
100
AcDbEntity
  8
0
100
AcDbPolyline
 90
       16
 70
     1
 43
0.0
 10
318.0
 20
302.0
 42
0.001241
 10
318.038431
 20
286.522046
 42
0.019546
 10
318.270833
 20
281.25
 42
0.07148
 10
318.833864
 20
278.799697
 42
0.309944
 10
320.0
 20
278.0
 42
0.309944
 10
321.166136
 20
278.799697
 42
0.07148
 10
321.729167
 20
281.25
 42
0.019546
 10
321.961569
 20
286.522046
 42
0.001241
 10
322.0
 20
302.0
 42
0.001241
 10
321.961569
 20
317.477954
 42
0.019546
 10
321.729167
 20
322.75
 42
0.07148
 10
321.166136
 20
325.200303
 42
0.309944
 10
320.0
 20
326.0
 42
0.309944
 10
318.833864
 20
325.200303
 42
0.07148
 10
318.270833
 20
322.75
 42
0.019546
 10
318.038431
 20
317.477954
 42
0.001241
  0
LWPOLYLINE
  5
4C
330
128
100
AcDbEntity
  8
0
100
AcDbPolyline
 90
       16
 70
     1
 43
0.0
 10
756.0
 20
304.5
 42
0.222027
 10
756.337712
 20
303.77697
 42
0.113455
 10
757.25
 20
303.3125
 42
0.050675
 10
758.964058
 20
303.064452
 42
0.010614
 10
762.0
 20
303.0
 42
0.010614
 10
765.035942
 20
303.064452
 42
0.050675
 10
766.75
 20
303.3125
 42
0.113455
 10
767.662288
 20
303.77697
 42
0.222027
 10
768.0
 20
304.5
 42
0.222027
 10
767.662288
 20
305.22303
 42
0.113455
 10
766.75
 20
305.6875
 42
0.050675
 10
765.035942
 20
305.935548
 42
0.010614
 10
762.0
 20
306.0
 42
0.010614
 10
758.964058
 20
305.935548
 42
0.050675
 10
757.25
 20
305.6875
 42
0.113455
 10
756.337712
 20
305.22303
 42
0.222027
  0
LWPOLYLINE
  5
4D
330
128
100
AcDbEntity
  8
0
100
AcDbPolyline
 90
       28
 70
     1
 43
0.0
 10
97.314288
 20
292.142784
 42
0.048838
 10
90.092035
 20
288.827851
 42
0.062862
 10
84.297905
 20
284.391401
 42
0.063809
 10
79.851087
 20
278.712688
 42
0.052456
 10
76.624287
 20
271.715053
 42
0.002755
 10
76.001903
 20
269.84785
 42
0.004046
 10
75.477134
 20
268.199075
 42
0.001957
 10
75.048379
 20
266.793806
 42
0.073186
 10
75.0
 20
266.465053
 42
0.363504
 10
75.153879
 20
266.28136
 42
0.013884
 10
76.101562
 20
266.139668
 42
0.019217
 10
77.312261
 20
266.0399
 42
0.011642
 10
78.75
 20
266.010412
 42
0.04175
 10
81.044177
 20
266.208725
 42
0.144589
 10
82.367689
 20
266.859302
 42
0.088052
 10
83.475114
 20
268.312759
 42
0.009978
 10
85.301585
 20
272.041507
 42
-0.050038
 10
88.132454
 20
276.812474
 42
-0.0611
 10
91.696148
 20
280.580335
 42
-0.059175
 10
96.163137
 20
283.46234
 42
-0.04299
 10
101.686199
 20
285.597153
 42
0.011829
 10
104.963848
 20
286.634682
 42
0.105928
 10
106.249965
 20
287.40788
 42
0.165839
 10
106.83299
 20
288.501599
 42
0.040288
 10
107.0
 20
290.570958
 42
0.102516
 10
106.516292
 20
292.905349
 42
0.255683
 10
105.185628
 20
293.94133
 42
0.10923
 10
102.585692
 20
293.793712
 42
0.014599
  0
LWPOLYLINE
  5
4E
330
128
100
AcDbEntity
  8
0
100
AcDbPolyline
 90
       20
 70
     1
 43
0.0
 10
851.428774
 20
266.674983
 42
0.081639
 10
851.239673
 20
265.75856
 42
0.005054
 10
851.154817
 20
262.973958
 42
0.007383
 10
851.136179
 20
259.638791
 42
0.005401
 10
851.210159
 20
255.936411
 42
0.005597
 10
851.429654
 20
250.710065
 42
0.038296
 10
851.76276
 20
248.156613
 42
0.094554
 10
852.326326
 20
246.804171
 42
0.2023
 10
853.25
 20
246.188103
 42
0.271412
 10
854.178953
 20
246.517808
 42
0.135354
 10
854.718048
 20
247.691367
 42
0.036878
 10
854.953765
 20
250.368505
 42
0.003525
 10
855.0
 20
256.926676
 42
0.004415
 10
854.946665
 20
262.966155
 42
0.029949
 10
854.715426
 20
265.942269
 42
0.073502
 10
854.263155
 20
267.490785
 42
0.292946
 10
853.468615
 20
268.0
 42
0.078953
 10
852.845189
 20
267.90094
 42
0.065321
 10
852.237716
 20
267.610776
 42
0.066675
 10
851.737548
 20
267.181542
 42
0.090751
  0
LWPOLYLINE
  5
4F
330
128
100
AcDbEntity
  8
0
100
AcDbPolyline
 90
       16
 70
     1
 43
0.0
 10
692.230868
 20
243.75
 42
0.001983
 10
692.429726
 20
231.369834
 42
0.01483
 10
692.721456
 20
225.503189
 42
0.025405
 10
693.152987
 20
222.206115
 42
0.362157
 10
694.0
 20
221.5
 42
0.362157
 10
694.847013
 20
222.206115
 42
0.025405
 10
695.278544
 20
225.503189
 42
0.01483
 10
695.570274
 20
231.369834
 42
0.001983
 10
695.769132
 20
243.75
 42
0.001293
 10
695.906969
 20
258.244852
 42
0.02157
 10
695.732751
 20
263.053971
 42
0.085869
 10
695.172776
 20
265.240971
 42
0.295371
 10
694.0
 20
266.0
 42
0.295371
 10
692.827224
 20
265.240971
 42
0.085869
 10
692.267249
 20
263.053971
 42
0.02157
 10
692.093031
 20
258.244852
 42
0.001293
  0
LWPOLYLINE
  5
50
330
128
100
AcDbEntity
  8
0
100
AcDbPolyline
 90
       16
 70
     1
 43
0.0
 10
574.0
 20
197.0
 42
0.165398
 10
574.367819
 20
195.918496
 42
0.1727
 10
575.3125
 20
195.308824
 42
0.052938
 10
577.365904
 20
195.05015
 42
0.004884
 10
582.5
 20
195.0
 42
0.004884
 10
587.634096
 20
195.05015
 42
0.052938
 10
589.6875
 20
195.308824
 42
0.1727
 10
590.632181
 20
195.918496
 42
0.165398
 10
591.0
 20
197.0
 42
0.165398
 10
590.632181
 20
198.081504
 42
0.1727
 10
589.6875
 20
198.691176
 42
0.052938
 10
587.634096
 20
198.94985
 42
0.004884
 10
582.5
 20
199.0
 42
0.004884
 10
577.365904
 20
198.94985
 42
0.052938
 10
575.3125
 20
198.691176
 42
0.1727
 10
574.367819
 20
198.081504
 42
0.165398
  0
LWPOLYLINE
  5
51
330
128
100
AcDbEntity
  8
0
100
AcDbPolyline
 90
      102
 70
     1
 43
0.0
 10
405.116108
 20
123.479851
 10
391.732215
 20
116.0
 10
380.866108
 20
116.0
 10
370.0
 20
116.0
 10
369.994091
 20
109.75
 10
369.988183
 20
103.5
 10
361.472826
 20
99.0
 10
352.957469
 20
94.5
 10
353.228735
 20
85.10729
 10
353.5
 20
75.714579
 10
363.0
 20
70.372842
 42
-0.004428
 10
367.864379
 20
67.58067
 42
-0.035247
 10
370.001027
 20
66.117635
 42
-0.281321
 10
370.253002
 20
65.430463
 42
-0.356027
 10
369.75
 20
65.015553
 42
0.036887
 10
368.312803
 20
64.901206
 42
0.148009
 10
367.526555
 20
64.524291
 42
0.16215
 10
367.121607
 20
63.797599
 42
0.046756
 10
367.0
 20
62.5
 42
0.084927
 10
367.247556
 20
61.053044
 42
0.230915
 10
367.968605
 20
60.342546
 42
0.07822
 10
369.568345
 20
60.071181
 42
0.005182
 10
374.25
 20
60.063954
 10
381.5
 20
60.127909
 10
378.25
 20
61.745381
 42
-0.013073
 10
377.00454
 20
62.406399
 42
-0.019429
 10
375.954002
 20
63.054739
 42
-0.01502
 10
375.145509
 20
63.634159
 42
-0.23278
 10
374.997666
 20
63.931427
 42
-0.401955
 10
375.207651
 20
64.152236
 42
-0.004328
 10
377.493578
 20
64.237961
 42
-0.010454
 10
380.237654
 20
64.259696
 42
-0.00626
 10
383.497666
 20
64.176526
 42
-0.00545
 10
388.468314
 20
63.933136
 42
-0.04976
 10
390.604699
 20
63.589979
 42
-0.150027
 10
391.611827
 20
62.96341
 42
-0.181047
 10
392.0
 20
61.926526
 42
-0.115377
 10
391.76893
 20
60.93849
 42
-0.182566
 10
391.140094
 20
60.352475
 42
-0.084273
 10
389.87226
 20
60.067814
 42
-0.013179
 10
387.3
 20
60.0
 42
0.015288
 10
385.445386
 20
59.943282
 42
0.043126
 10
384.163886
 20
59.753082
 42
0.110429
 10
383.564207
 20
59.460803
 42
0.456855
 10
383.55
 20
59.107935
 42
0.060259
 10
385.415785
 20
57.737292
 42
0.000475
 10
401.61738
 20
48.626598
 42
0.000237
 10
418.276251
 20
39.289927
 42
0.128289
 10
419.387631
 20
39.0
 42
0.388944
 10
419.633944
 20
39.225755
 42
0.004557
 10
419.820117
 20
41.610034
 42
0.010742
 10
419.95597
 20
44.478327
 42
0.006462
 10
420.0
 20
47.885221
 10
420.0
 20
56.770442
 10
407.75
 20
63.635221
 10
395.5
 20
70.5
 10
403.25
 20
70.792064
 10
411.0
 20
71.084129
 10
411.0
 20
74.042064
 10
411.0
 20
77.0
 10
398.0
 20
77.0
 42
0.003458
 10
393.015202
 20
76.965525
 42
0.005763
 10
388.81875
 20
76.859095
 42
0.001332
 10
385.187012
 20
76.715401
 42
0.401904
 10
385.0
 20
76.520324
 42
0.249086
 10
385.139234
 20
76.258175
 42
0.00802
 10
386.175
 20
75.582112
 42
0.013729
 10
387.466968
 20
74.816792
 42
0.008897
 10
389.0
 20
74.0
 42
-0.008897
 10
390.533032
 20
73.183208
 42
-0.013729
 10
391.825
 20
72.417888
 42
-0.00802
 10
392.860766
 20
71.741825
 42
-0.249086
 10
393.0
 20
71.479676
 42
-0.395512
 10
392.818133
 20
71.285728
 42
-0.002756
 10
390.35625
 20
71.140905
 42
-0.008316
 10
387.450966
 20
71.034481
 42
-0.004996
 10
384.0
 20
71.0
 10
375.0
 20
71.0
 10
375.0
 20
74.0
 42
-0.035373
 10
375.126553
 20
75.786606
 42
-0.205304
 10
375.60669
 20
76.57607
 42
-0.140054
 10
376.627828
 20
76.938554
 42
-0.013922
 10
379.25
 20
77.030276
 10
383.5
 20
77.060552
 10
377.682462
 20
80.397813
 42
-0.004543
 10
375.389205
 20
81.741193
 42
-0.005878
 10
373.311213
 20
83.017368
 42
-0.004519
 10
371.595966
 20
84.12053
 42
-0.051248
 10
370.970921
 20
84.629079
 42
-0.481293
 10
371.04267
 20
85.268485
 42
-0.002401
 10
377.307188
 20
89.170845
 42
-0.007203
 10
385.062182
 20
93.797331
 42
-0.003557
 10
395.038459
 20
99.461537
 10
420.0
 20
113.399992
 10
420.0
 20
122.199996
 42
0.007994
 10
419.946073
 20
125.572761
 42
0.013311
 10
419.779688
 20
128.40908
 42
0.006923
 10
419.55011
 20
130.719006
 42
0.389229
 10
419.25
 20
130.979851
 42
0.114805
 10
418.706809
 20
130.837983
 42
0.000945
 10
414.788794
 20
128.768415
 42
0.003319
 10
410.300331
 20
126.348335
 42
0.002123
  0
LWPOLYLINE
  5
52
330
128
100
AcDbEntity
  8
0
100
AcDbPolyline
 90
       22
 70
     1
 43
0.0
 10
391.0
 20
112.5
 42
0.058662
 10
391.165617
 20
111.093239
 42
0.210352
 10
391.7
 20
110.388889
 42
0.114574
 10
392.820113
 20
110.068074
 42
0.012699
 10
395.5
 20
110.0
 42
-0.012152
 10
398.318399
 20
109.931492
 42
-0.135673
 10
399.375
 20
109.583333
 42
-0.212646
 10
399.869465
 20
108.801169
 42
-0.036189
 10
400.0
 20
107.0
 10
400.0
 20
104.0
 10
385.833333
 20
104.0
 42
-0.004195
 10
380.443871
 20
104.045222
 42
-0.007492
 10
376.014102
 20
104.185977
 42
-0.003184
 10
372.396553
 20
104.378307
 42
-0.646878
 10
372.299782
 20
104.633115
 42
-0.065343
 10
373.650984
 20
105.670786
 42
-0.001266
 10
381.277336
 20
110.056243
 42
-0.000919
 10
389.077823
 20
114.496593
 42
-0.094359
 10
390.25
 20
114.894816
 42
-0.296267
 10
390.538161
 20
114.760309
 42
-0.063716
 10
390.779688
 20
114.234727
 42
-0.047422
 10
390.945779
 20
113.450583
 42
-0.028496
  0
LWPOLYLINE
  5
53
330
128
100
AcDbEntity
  8
0
100
AcDbPolyline
 90
       32
 70
     1
 43
0.0
 10
506.0
 20
122.239682
 10
506.0
 20
113.479365
 10
515.011637
 20
108.493562
 42
-0.007161
 10
518.397615
 20
106.556383
 42
-0.013281
 10
521.078938
 20
104.873282
 42
-0.00954
 10
523.061813
 20
103.498632
 42
-0.61124
 10
523.011637
 20
103.170546
 42
0.11213
 10
522.624823
 20
102.936
 42
0.069915
 10
522.297168
 20
102.516244
 42
0.064609
 10
522.075573
 20
101.98345
 42
0.066375
 10
522.0
 20
101.416667
 42
0.18884
 10
522.24467
 20
100.791945
 42
0.118162
 10
522.906152
 20
100.350009
 42
0.067589
 10
524.048951
 20
100.09591
 42
0.023079
 10
525.75
 20
100.031803
 42
0.005381
 10
528.095889
 20
100.076952
 42
0.162431
 10
528.641979
 20
100.277563
 42
0.463083
 10
528.652381
 20
100.632102
 42
0.02123
 10
527.594676
 20
101.505622
 42
-0.45739
 10
527.547256
 20
102.234474
 42
-0.164667
 10
528.615874
 20
102.752516
 42
-0.024657
 10
532.190185
 20
103.023556
 42
-0.002164
 10
541.26976
 20
103.223818
 10
556.850168
 20
103.5
 10
532.16629
 20
117.25
 42
0.001195
 10
522.64986
 20
122.521315
 42
0.001925
 10
514.515573
 20
126.960938
 42
0.000307
 10
507.294757
 20
130.860267
 42
0.124266
 10
506.741207
 20
131.0
 42
0.381921
 10
506.444534
 20
130.734689
 42
0.006772
 10
506.217729
 20
128.426657
 42
0.013168
 10
506.053309
 20
125.598608
 42
0.007935
  0
LWPOLYLINE
  5
54
330
128
100
AcDbEntity
  8
0
100
AcDbPolyline
 90
       68
 70
     1
 43
0.0
 10
559.5
 20
101.719591
 42
-0.557397
 10
559.503809
 20
101.104808
 42
-0.108212
 10
558.200779
 20
100.637423
 42
-0.021367
 10
554.435291
 20
100.312477
 42
-0.002659
 10
546.22417
 20
100.0
 10
530.948339
 20
99.5
 10
543.47417
 20
92.569874
 42
-0.003371
 10
548.273879
 20
89.871927
 42
-0.005475
 10
552.310345
 20
87.508072
 42
-0.001329
 10
555.78908
 20
85.406745
 42
-0.278255
 10
555.965302
 20
85.069874
 42
-0.249499
 10
555.755861
 20
84.728135
 42
-0.000507
 10
550.149426
 20
81.43615
 42
-0.003257
 10
543.776639
 20
77.758419
 42
-0.001994
 10
536.215302
 20
73.5
 10
516.5
 20
62.5
 10
521.75
 20
62.19774
 42
-0.011952
 10
524.61895
 20
61.963657
 42
-0.075035
 10
526.037346
 20
61.593761
 42
-0.166775
 10
526.7392
 20
60.958802
 42
-0.126897
 10
527.0
 20
59.94774
 42
-0.178146
 10
526.614745
 20
58.900763
 42
-0.163253
 10
525.627749
 20
58.306495
 42
-0.050023
 10
523.494318
 20
58.052823
 42
-0.004784
 10
518.25
 20
58.006589
 10
509.5
 20
58.013178
 10
512.5
 20
60.0
 10
515.5
 20
61.986822
 10
508.180449
 20
61.993411
 42
0.005007
 10
503.545018
 20
61.951161
 42
0.072883
 10
501.932919
 20
61.683325
 42
0.246527
 10
501.277402
 20
61.01702
 42
0.109156
 10
501.180449
 20
59.75
 42
0.072178
 10
501.487603
 20
58.70233
 42
0.11042
 10
502.057657
 20
57.951277
 42
0.098474
 10
502.946325
 20
57.459673
 42
0.048581
 10
504.213306
 20
57.187118
 42
-0.086744
 10
505.815938
 20
56.712604
 42
-0.201646
 10
506.618906
 20
55.782041
 42
-0.066455
 10
506.975804
 20
53.834636
 42
-0.004109
 10
507.213306
 20
47.948166
 10
507.5
 20
39.022095
 10
539.304638
 20
56.933949
 42
0.00086
 10
551.599166
 20
63.885894
 42
0.00133
 10
562.191239
 20
69.936561
 42
0.000393
 10
571.378335
 20
75.226731
 42
0.042396
 10
572.554638
 20
76.045346
 42
0.14105
 10
573.236092
 20
77.046099
 42
0.041727
 10
573.670479
 20
78.867139
 42
0.028353
 10
573.925412
 20
81.569288
 42
0.009344
 10
574.0
 20
85.560033
 10
574.0
 20
93.875176
 10
568.831108
 20
96.687588
 42
-0.012555
 10
566.699106
 20
97.917971
 42
-0.045541
 10
565.444419
 20
98.851243
 42
-0.154955
 10
565.089804
 20
99.452645
 42
-0.42419
 10
565.331108
 20
99.823324
 42
0.078145
 10
565.968782
 20
100.054172
 42
0.076601
 10
566.509763
 20
100.470758
 42
0.081519
 10
566.873783
 20
101.003986
 42
0.109516
 10
567.0
 20
101.573324
 42
0.211639
 10
566.709791
 20
102.228238
 42
0.113143
 10
565.922974
 20
102.669617
 42
0.057478
 10
564.513077
 20
102.913187
 42
0.015661
 10
562.25
 20
102.969591
 42
0.004949
 10
559.470219
 20
102.924276
 42
0.100443
 10
558.653082
 20
102.736038
 42
0.542776
 10
558.600165
 20
102.384978
 42
0.044593
  0
LWPOLYLINE
  5
55
330
128
100
AcDbEntity
  8
0
100
AcDbPolyline
 90
       18
 70
     1
 43
0.0
 10
445.06299
 20
27.43829
 10
432.941396
 20
7.876581
 10
435.154839
 20
3.93829
 10
437.368282
 20
0.0
 10
462.085365
 20
0.0
 10
486.802448
 20
0.0
 10
488.973712
 20
3.680018
 42
0.024568
 10
489.890821
 20
5.42489
 42
0.048507
 10
490.409198
 20
6.900376
 42
0.063359
 10
490.551762
 20
8.141479
 42
0.10397
 10
490.322488
 20
9.169779
 42
0.027291
 10
489.660766
 20
10.4373
 42
0.000767
 10
486.510356
 20
15.726008
 42
0.001566
 10
482.774446
 20
21.931564
 42
0.001075
 10
478.5
 20
28.947516
 10
467.5
 20
46.915511
 10
462.342292
 20
46.957756
 10
457.184583
 20
47.0
  0
LWPOLYLINE
  5
56
330
128
100
AcDbEntity
  8
0
100
AcDbPolyline
 90
       30
 70
     1
 43
0.0
 10
468.0
 20
31.625953
 42
0.087983
 10
468.650005
 20
27.960617
 42
0.041415
 10
470.678395
 20
23.581934
 42
0.041364
 10
473.356583
 20
19.66115
 42
0.103262
 10
476.034315
 20
17.482255
 10
478.868506
 20
16.016638
 10
476.302787
 20
11.426067
 42
-0.013756
 10
474.822957
 20
8.941418
 42
-0.080735
 10
473.818259
 20
7.809218
 42
-0.158143
 10
472.836406
 20
7.428184
 42
-0.101888
 10
471.618534
 20
7.607987
 42
0.076755
 10
468.59617
 20
8.209466
 42
0.010157
 10
462.054012
 20
8.359439
 42
0.010123
 10
455.510488
 20
8.244006
 42
0.077365
 10
452.5
 20
7.657824
 42
-0.107837
 10
451.379091
 20
7.509128
 42
-0.151635
 10
450.449888
 20
7.884511
 42
-0.081829
 10
449.512045
 20
8.948239
 42
-0.016469
 10
448.240034
 20
11.137451
 10
445.980068
 20
15.339733
 10
449.342396
 20
18.419867
 42
0.04758
 10
452.145863
 20
21.526889
 42
0.034937
 10
454.64808
 20
25.437995
 42
0.035609
 10
456.442687
 20
29.370566
 42
0.08947
 10
457.0
 20
32.460162
 42
-0.06513
 10
457.191051
 20
33.920621
 42
-0.223102
 10
457.791373
 20
34.634553
 42
-0.099933
 10
459.082686
 20
34.941552
 42
-0.008551
 10
462.5
 20
35.0
 10
468.0
 20
35.0
  0
LWPOLYLINE
  5
57
330
128
100
AcDbEntity
  8
0
100
AcDbPolyline
 90
       16
 70
     1
 43
0.0
 10
242.638374
 20
263.5
 42
0.184401
 10
243.284062
 20
262.780108
 42
0.069304
 10
244.583925
 20
262.325279
 42
0.039213
 10
246.699255
 20
262.070605
 42
0.010358
 10
250.106989
 20
262.0
 42
0.008645
 10
253.658339
 20
262.06141
 42
0.044953
 10
255.601165
 20
262.304403
 42
0.104455
 10
256.62674
 20
262.765383
 42
0.239481
 10
257.0
 20
263.5
 42
0.249757
 10
256.605109
 20
264.241237
 42
0.098717
 10
255.505231
 20
264.69979
 42
0.041871
 10
253.415452
 20
264.940144
 42
0.007705
 10
249.531385
 20
265.0
 42
0.006325
 10
245.477452
 20
264.948713
 42
0.047278
 10
243.569413
 20
264.719057
 42
0.162339
 10
242.768369
 20
264.243081
 42
0.276541
  0
LWPOLYLINE
  5
58
330
128
100
AcDbEntity
  8
0
100
AcDbPolyline
 90
       16
 70
     1
 43
0.0
 10
235.0
 20
253.0
 42
0.011557
 10
235.064942
 20
250.190675
 42
0.083766
 10
235.35
 20
248.875
 42
0.189791
 10
235.953987
 20
248.233935
 42
0.110458
 10
237.0
 20
248.0
 42
0.110458
 10
238.046013
 20
248.233935
 42
0.189791
 10
238.65
 20
248.875
 42
0.083766
 10
238.935058
 20
250.190675
 42
0.011557
 10
239.0
 20
253.0
 42
0.011557
 10
238.935058
 20
255.809325
 42
0.083766
 10
238.65
 20
257.125
 42
0.189791
 10
238.046013
 20
257.766065
 42
0.110458
 10
237.0
 20
258.0
 42
0.110458
 10
235.953987
 20
257.766065
 42
0.189791
 10
235.35
 20
257.125
 42
0.083766
 10
235.064942
 20
255.809325
 42
0.011557
  0
LWPOLYLINE
  5
59
330
128
100
AcDbEntity
  8
0
100
AcDbPolyline
 90
       26
 70
     1
 43
0.0
 10
269.383836
 20
246.25
 42
-0.048293
 10
266.577648
 20
239.663982
 42
-0.068634
 10
262.800733
 20
234.55237
 42
-0.07119
 10
257.897797
 20
230.784345
 42
-0.056878
 10
251.751386
 20
228.189468
 42
0.010023
 10
248.106218
 20
227.038323
 42
0.105145
 10
246.767375
 20
226.244031
 42
0.170731
 10
246.16862
 20
225.115022
 42
0.037277
 10
246.001386
 20
222.886515
 10
246.0
 20
219.27303
 10
251.199806
 20
220.218125
 42
0.054556
 10
258.573211
 20
222.408785
 42
0.061893
 10
264.965013
 20
226.08063
 42
0.062708
 10
270.197756
 20
231.157802
 42
0.058404
 10
274.155606
 20
237.490909
 42
0.013101
 10
275.243935
 20
239.956499
 42
0.014475
 10
276.163577
 20
242.395767
 42
0.013952
 10
276.827532
 20
244.514461
 42
0.068967
 10
276.999211
 20
245.75
 42
0.066273
 10
276.842372
 20
246.931244
 42
0.186895
 10
276.357568
 20
247.59077
 42
0.121031
 10
275.392348
 20
247.917608
 42
0.021405
 10
273.468615
 20
248.0
 42
0.029608
 10
271.817556
 20
247.902144
 42
0.071714
 10
270.640148
 20
247.586934
 42
0.101111
 10
269.851772
 20
247.040252
 42
0.114669
  0
LWPOLYLINE
  5
5A
330
128
100
AcDbEntity
  8
0
100
AcDbPolyline
 90
       20
 70
     1
 43
0.0
 10
458.07258
 20
22.365141
 42
0.012442
 10
457.278868
 20
21.302733
 42
0.016183
 10
456.60882
 20
20.289752
 42
0.013852
 10
456.107003
 20
19.422033
 42
0.124797
 10
456.0
 20
19.0
 42
0.163676
 10
456.514677
 20
17.469878
 42
0.03563
 10
458.376393
 20
15.34799
 42
0.035733
 10
460.52306
 20
13.510501
 42
0.160486
 10
462.07258
 20
13.0
 42
0.131373
 10
463.992022
 20
13.513183
 42
0.067347
 10
465.979009
 20
15.045738
 42
0.067199
 10
467.492559
 20
17.057024
 42
0.12843
 10
468.0
 20
19.0
 42
0.12843
 10
467.492559
 20
20.942976
 42
0.067199
 10
465.979009
 20
22.954262
 42
0.067347
 10
463.992022
 20
24.486817
 42
0.131373
 10
462.07258
 20
25.0
 42
0.103479
 10
461.186529
 20
24.81464
 42
0.042533
 10
460.102519
 20
24.22601
 42
0.03972
 10
459.00805
 20
23.373294
 42
0.040774
  0
ENDBLK
  5
12A
330
128
100
AcDbEntity
  8
0
100
AcDbBlockEnd
  0
ENDSEC
  0
SECTION
  2
ENTITIES
  0
INSERT
  5
5B
330
79
100
AcDbEntity
  8
0
100
AcDbBlockReference
  2
compile_logo
 10
-462.27596046575
 20
-206.2478140341364
 30
0.0
  0
VIEWPORT
  5
126
330
75
100
AcDbEntity
 67
     1
  8
0
100
AcDbViewport
 10
128.5
 20
97.5
 30
0.0
 40
314.226
 41
222.18
 68
     1
 69
     1
 12
128.5
 22
97.5
 13
0.0
 23
0.0
 14
10.0
 24
10.0
 15
10.0
 25
10.0
 16
0.0
 26
0.0
 36
1.0
 17
0.0
 27
0.0
 37
0.0
 42
50.0
 43
0.0
 44
0.0
 45
222.18
 50
0.0
 51
0.0
 72
   100
 90
   557152
  1

281
     0
 71
     1
 74
     0
110
0.0
120
0.0
130
0.0
111
1.0
121
0.0
131
0.0
112
0.0
122
1.0
132
0.0
 79
     0
146
0.0
170
     0
 61
     5
348
89
292
     1
282
     1
141
0.0
142
0.0
 63
   256
361
127
  0
ENDSEC
  0
SECTION
  2
OBJECTS
  0
DICTIONARY
  5
67
330
0
100
AcDbDictionary
281
     1
  3
ACAD_DETAILVIEWSTYLE
350
132
  3
ACAD_GROUP
350
68
  3
ACAD_LAYOUT
350
74
  3
ACAD_MATERIAL
350
9D
  3
ACAD_MLEADERSTYLE
350
B5
  3
ACAD_MLINESTYLE
350
71
  3
ACAD_PLOTSETTINGS
350
73
  3
ACAD_PLOTSTYLENAME
350
69
  3
ACAD_SCALELIST
350
A1
  3
ACAD_SECTIONVIEWSTYLE
350
133
  3
ACAD_TABLESTYLE
350
B3
  3
ACAD_VISUALSTYLE
350
84
  3
AcDbVariableDictionary
350
12B
  3
ACDB_RECOMPOSE_DATA
350
12F
  3
QCAD_OBJECTS
350
B9
  0
SUN
  5
B7
330
83
100
AcDbSun
 90
        1
290
     0
 63
     7
421
 16777215
 40
1.0
291
     1
 91
  2455826
 92
 54000000
292
     0
 70
     2
 71
   256
280
     1
  0
SUN
  5
127
330
126
100
AcDbSun
 90
        1
290
     0
 63
     7
421
 16777215
 40
1.0
291
     1
 91
  2455826
 92
 54000000
292
     0
 70
     2
 71
   256
280
     1
  0
DICTIONARY
  5
132
102
{ACAD_REACTORS
330
67
102
}
330
67
100
AcDbDictionary
281
     1
  0
DICTIONARY
  5
68
102
{ACAD_REACTORS
330
67
102
}
330
67
100
AcDbDictionary
281
     1
  0
DICTIONARY
  5
74
102
{ACAD_REACTORS
330
67
102
}
330
67
100
AcDbDictionary
281
     1
  3
Layout1
350
78
  3
Model
350
7C
  0
DICTIONARY
  5
9D
102
{ACAD_REACTORS
330
67
102
}
330
67
100
AcDbDictionary
281
     1
  3
ByBlock
350
9F
  3
ByLayer
350
9E
  3
Global
350
A0
  0
DICTIONARY
  5
B5
102
{ACAD_REACTORS
330
67
102
}
330
67
100
AcDbDictionary
281
     1
  3
Standard
350
B6
  0
DICTIONARY
  5
71
102
{ACAD_REACTORS
330
67
102
}
330
67
100
AcDbDictionary
281
     1
  3
Standard
350
72
  0
DICTIONARY
  5
73
102
{ACAD_REACTORS
330
67
102
}
330
67
100
AcDbDictionary
281
     1
  0
ACDBDICTIONARYWDFLT
  5
69
102
{ACAD_REACTORS
330
67
102
}
330
67
100
AcDbDictionary
281
     1
  3
Normal
350
6A
100
AcDbDictionaryWithDefault
340
6A
  0
DICTIONARY
  5
A1
102
{ACAD_REACTORS
330
67
102
}
330
67
100
AcDbDictionary
281
     1
  3
A0
350
A2
  3
A1
350
A3
  3
A2
350
A4
  3
A3
350
A5
  3
A4
350
A6
  3
A5
350
A7
  3
A6
350
A8
  3
A7
350
A9
  3
A8
350
AA
  3
A9
350
AB
  3
B1
350
AC
  3
B2
350
AD
  3
B3
350
AE
  3
B4
350
AF
  3
B5
350
B0
  3
B6
350
B1
  3
B7
350
B2
  0
DICTIONARY
  5
133
102
{ACAD_REACTORS
330
67
102
}
330
67
100
AcDbDictionary
281
     1
  0
DICTIONARY
  5
B3
102
{ACAD_REACTORS
330
67
102
}
330
67
100
AcDbDictionary
281
     1
  3
Standard
350
B4
  0
DICTIONARY
  5
84
102
{ACAD_REACTORS
330
67
102
}
330
67
100
AcDbDictionary
281
     1
  3
2dWireframe
350
89
  3
Basic
350
8C
  3
Brighten
350
90
  3
ColorChange
350
94
  3
Conceptual
350
8E
  3
Dim
350
8F
  3
EdgeColorOff
350
97
  3
Facepattern
350
93
  3
Flat
350
85
  3
FlatWithEdges
350
86
  3
Gouraud
350
87
  3
GouraudWithEdges
350
88
  3
Hidden
350
8B
  3
JitterOff
350
95
  3
Linepattern
350
92
  3
OverhangOff
350
96
  3
Realistic
350
8D
  3
Shaded
350
9C
  3
Shaded with edges
350
9B
  3
Shades of Gray
350
98
  3
Sketchy
350
99
  3
Thicken
350
91
  3
Wireframe
350
8A
  3
X-Ray
350
9A
  0
DICTIONARY
  5
12B
102
{ACAD_REACTORS
330
67
102
}
330
67
100
AcDbDictionary
281
     1
  3
CANNOSCALE
350
12C
  3
CMLEADERSTYLE
350
131
  3
CTABLESTYLE
350
130
  0
XRECORD
  5
12F
102
{ACAD_REACTORS
330
67
102
}
330
67
100
AcDbXrecord
280
     1
 90
        1
330
B4
  0
DICTIONARY
  5
B9
102
{ACAD_REACTORS
330
67
102
}
330
67
100
AcDbDictionary
281
     1
  3
ColorSettings/BackgroundColor
350
BB
  3
ColorSettings/ColorMode
350
BC
  3
Grid/DisplayGrid00
350
BD
  3
Grid/DisplayGrid01
350
BE
  3
Grid/DisplayGrid02
350
BF
  3
Grid/DisplayGrid03
350
C0
  3
Grid/GridSpacingX00
350
C1
  3
Grid/GridSpacingX01
350
C2
  3
Grid/GridSpacingX02
350
C3
  3
Grid/GridSpacingX03
350
C4
  3
Grid/GridSpacingY00
350
C5
  3
Grid/GridSpacingY01
350
C6
  3
Grid/GridSpacingY02
350
C7
  3
Grid/GridSpacingY03
350
C8
  3
Grid/IsometricGrid00
350
C9
  3
Grid/IsometricGrid01
350
CA
  3
Grid/IsometricGrid02
350
CB
  3
Grid/IsometricGrid03
350
CC
  3
Grid/IsometricProjection00
350
CD
  3
Grid/IsometricProjection01
350
CE
  3
Grid/IsometricProjection02
350
CF
  3
Grid/IsometricProjection03
350
D0
  3
Grid/MetaGridSpacingX00
350
D1
  3
Grid/MetaGridSpacingX01
350
D2
  3
Grid/MetaGridSpacingX02
350
D3
  3
Grid/MetaGridSpacingX03
350
D4
  3
Grid/MetaGridSpacingY00
350
D5
  3
Grid/MetaGridSpacingY01
350
D6
  3
Grid/MetaGridSpacingY02
350
D7
  3
Grid/MetaGridSpacingY03
350
D8
  3
MultiPageSettings/Columns
350
D9
  3
MultiPageSettings/GlueMarginsBottom
350
DA
  3
MultiPageSettings/GlueMarginsLeft
350
DB
  3
MultiPageSettings/GlueMarginsRight
350
DC
  3
MultiPageSettings/GlueMarginsTop
350
DD
  3
MultiPageSettings/PrintCropMarks
350
DE
  3
MultiPageSettings/Rows
350
DF
  3
PageSettings/OffsetX
350
E0
  3
PageSettings/OffsetY
350
E1
  3
PageSettings/PageOrientation
350
E2
  3
PageSettings/PaperHeight
350
E3
  3
PageSettings/PaperWidth
350
E4
  3
PageSettings/Scale
350
E5
  3
PageSettings/ShowPaperBorders
350
E6
  3
PageTagSettings/EnablePageTags
350
E7
  3
PageTagSettings/TagAlignment
350
E8
  3
PageTagSettings/TagFont
350
E9
  3
PageTagSettings/TagPosition
350
EA
  3
QCADVersion
350
EB
  3
UnitSettings/PaperUnit
350
EC
  3
ViewportCenter
350
ED
  3
ViewportHeight
350
EE
  3
ViewportWidth
350
EF
  0
LAYOUT
  5
78
102
{ACAD_REACTORS
330
74
102
}
330
74
100
AcDbPlotSettings
  1

  2
none_device
  4
ISO_A4_(210.00_x_297.00_MM)
  6

 40
7.5
 41
20.0
 42
7.5
 43
20.0
 44
210.0
 45
297.0
 46
0.0
 47
0.0
 48
0.0
 49
0.0
140
0.0
141
0.0
142
1.0
143
1.0
 70
   688
 72
     1
 73
     1
 74
     5
  7

 75
     0
 76
     0
 77
     2
 78
   300
147
1.0
148
0.0
149
0.0
100
AcDbLayout
  1
Layout1
 70
     1
 71
     0
 10
-20.0
 20
-7.5
 11
277.0
 21
202.5
 12
0.0
 22
0.0
 32
0.0
 14
0.0
 24
0.0
 34
0.0
 15
0.0
 25
0.0
 35
0.0
146
0.0
 13
0.0
 23
0.0
 33
0.0
 16
1.0
 26
0.0
 36
0.0
 17
0.0
 27
1.0
 37
0.0
 76
     0
330
75
331
126
  0
LAYOUT
  5
7C
102
{ACAD_REACTORS
330
74
102
}
330
74
100
AcDbPlotSettings
  1

  2
none_device
  4
Letter_(8.50_x_11.00_Inches)
  6

 40
6.35
 41
6.35
 42
6.35000508
 43
6.35000508
 44
215.9
 45
279.4
 46
0.0
 47
0.0
 48
0.0
 49
0.0
140
0.0
141
0.0
142
1.0
143
1.0
 70
  1712
 72
     0
 73
     0
 74
     0
  7

 75
     0
 76
     0
 77
     2
 78
   300
147
1.0
148
0.0
149
0.0
100
AcDbLayout
  1
Model
 70
     1
 71
     0
 10
0.0
 20
0.0
 11
12.0
 21
9.0
 12
0.0
 22
0.0
 32
0.0
 14
-462.1024161927675
 24
-206.2478140341364
 34
0.0
 15
437.72403953425
 25
155.7521859658636
 35
0.0
146
0.0
 13
0.0
 23
0.0
 33
0.0
 16
1.0
 26
0.0
 36
0.0
 17
0.0
 27
1.0
 37
0.0
 76
     0
330
79
331
83
  0
MATERIAL
  5
9F
102
{ACAD_REACTORS
330
9D
102
}
330
9D
100
AcDbMaterial
  1
ByBlock
 72
     1
 94
      127
  0
MATERIAL
  5
9E
102
{ACAD_REACTORS
330
9D
102
}
330
9D
100
AcDbMaterial
  1
ByLayer
 72
     1
 94
      127
  0
MATERIAL
  5
A0
102
{ACAD_REACTORS
330
9D
102
}
330
9D
100
AcDbMaterial
  1
Global
 72
     1
 94
      127
  0
MLEADERSTYLE
  5
B6
102
{ACAD_REACTORS
330
B5
102
}
330
B5
100
AcDbMLeaderStyle
179
     2
170
     2
171
     1
172
     0
 90
        2
 40
0.0
 41
0.0
173
     1
 91
-1056964608
340
6E
 92
       -2
290
     1
 42
0.09
291
     1
 43
0.36
  3
Standard
341
0
 44
0.18
300

342
6C
174
     1
178
     6
175
     1
176
     0
 93
-1056964608
 45
0.18
292
     0
297
     0
 46
0.18
343
0
 94
-1056964608
 47
1.0
 49
1.0
140
1.0
293
     1
141
0.0
294
     1
177
     0
142
1.0
295
     0
296
     0
143
0.125
271
     0
272
     9
273
     9
298
     0
  0
MLINESTYLE
  5
72
102
{ACAD_REACTORS
330
71
102
}
330
71
100
AcDbMlineStyle
  2
Standard
 70
     0
  3

 62
   256
 51
90.0
 52
90.0
 71
     2
 49
0.5
 62
   256
  6
BYLAYER
 49
-0.5
 62
   256
  6
BYLAYER
  0
ACDBPLACEHOLDER
  5
6A
102
{ACAD_REACTORS
330
69
102
}
330
69
  0
SCALE
  5
A2
102
{ACAD_REACTORS
330
A1
102
}
330
A1
100
AcDbScale
 70
     0
300
1:1
140
1.0
141
1.0
290
     1
  0
SCALE
  5
A3
102
{ACAD_REACTORS
330
A1
102
}
330
A1
100
AcDbScale
 70
     0
300
1/128" = 1'-0"
140
0.0078125
141
12.0
290
     0
  0
SCALE
  5
A4
102
{ACAD_REACTORS
330
A1
102
}
330
A1
100
AcDbScale
 70
     0
300
1/64" = 1'-0"
140
0.015625
141
12.0
290
     0
  0
SCALE
  5
A5
102
{ACAD_REACTORS
330
A1
102
}
330
A1
100
AcDbScale
 70
     0
300
1/32" = 1'-0"
140
0.03125
141
12.0
290
     0
  0
SCALE
  5
A6
102
{ACAD_REACTORS
330
A1
102
}
330
A1
100
AcDbScale
 70
     0
300
1/16" = 1'-0"
140
0.0625
141
12.0
290
     0
  0
SCALE
  5
A7
102
{ACAD_REACTORS
330
A1
102
}
330
A1
100
AcDbScale
 70
     0
300
3/32" = 1'-0"
140
0.09375
141
12.0
290
     0
  0
SCALE
  5
A8
102
{ACAD_REACTORS
330
A1
102
}
330
A1
100
AcDbScale
 70
     0
300
1/8" = 1'-0"
140
0.125
141
12.0
290
     0
  0
SCALE
  5
A9
102
{ACAD_REACTORS
330
A1
102
}
330
A1
100
AcDbScale
 70
     0
300
3/16" = 1'-0"
140
0.1875
141
12.0
290
     0
  0
SCALE
  5
AA
102
{ACAD_REACTORS
330
A1
102
}
330
A1
100
AcDbScale
 70
     0
300
1/4" = 1'-0"
140
0.25
141
12.0
290
     0
  0
SCALE
  5
AB
102
{ACAD_REACTORS
330
A1
102
}
330
A1
100
AcDbScale
 70
     0
300
3/8" = 1'-0"
140
0.375
141
12.0
290
     0
  0
SCALE
  5
AC
102
{ACAD_REACTORS
330
A1
102
}
330
A1
100
AcDbScale
 70
     0
300
1/2" = 1'-0"
140
0.5
141
12.0
290
     0
  0
SCALE
  5
AD
102
{ACAD_REACTORS
330
A1
102
}
330
A1
100
AcDbScale
 70
     0
300
3/4" = 1'-0"
140
0.75
141
12.0
290
     0
  0
SCALE
  5
AE
102
{ACAD_REACTORS
330
A1
102
}
330
A1
100
AcDbScale
 70
     0
300
1" = 1'-0"
140
1.0
141
12.0
290
     0
  0
SCALE
  5
AF
102
{ACAD_REACTORS
330
A1
102
}
330
A1
100
AcDbScale
 70
     0
300
1-1/2" = 1'-0"
140
1.5
141
12.0
290
     0
  0
SCALE
  5
B0
102
{ACAD_REACTORS
330
A1
102
}
330
A1
100
AcDbScale
 70
     0
300
3" = 1'-0"
140
3.0
141
12.0
290
     0
  0
SCALE
  5
B1
102
{ACAD_REACTORS
330
A1
102
}
330
A1
100
AcDbScale
 70
     0
300
6" = 1'-0"
140
6.0
141
12.0
290
     0
  0
SCALE
  5
B2
102
{ACAD_REACTORS
330
A1
102
}
330
A1
100
AcDbScale
 70
     0
300
1'-0" = 1'-0"
140
12.0
141
12.0
290
     0
  0
TABLESTYLE
  5
B4
102
{ACAD_REACTORS
330
B3
102
}
102
{ACAD_XDICTIONARY
360
12D
102
}
330
B3
100
AcDbTableStyle
  3
Standard
 70
     0
 71
     0
 40
0.06
 41
0.06
280
     0
281
     0
  7
Standard
140
0.18
170
     2
 62
     0
 63
   257
283
     0
 90
        4
 91
        0
  1

274
    -2
284
     1
 64
     0
275
    -2
285
     1
 65
     0
276
    -2
286
     1
 66
     0
277
    -2
287
     1
 67
     0
278
    -2
288
     1
 68
     0
279
    -2
289
     1
 69
     0
  7
Standard
140
0.25
170
     5
 62
     0
 63
   257
283
     0
 90
        4
 91
        0
  1

274
    -2
284
     1
 64
     0
275
    -2
285
     1
 65
     0
276
    -2
286
     1
 66
     0
277
    -2
287
     1
 67
     0
278
    -2
288
     1
 68
     0
279
    -2
289
     1
 69
     0
  7
Standard
140
0.18
170
     5
 62
     0
 63
   257
283
     0
 90
        4
 91
        0
  1

274
    -2
284
     1
 64
     0
275
    -2
285
     1
 65
     0
276
    -2
286
     1
 66
     0
277
    -2
287
     1
 67
     0
278
    -2
288
     1
 68
     0
279
    -2
289
     1
 69
     0
  0
VISUALSTYLE
  5
89
102
{ACAD_REACTORS
330
84
102
}
330
84
100
AcDbVisualStyle
  2
2dWireframe
 70
     4
177
     3
291
     0
 70
    58
 90
        0
176
     1
 90
        2
176
     1
 90
        0
176
     1
 90
        0
176
     1
 40
0.6
176
     1
 40
30.0
176
     1
 62
     7
420
 16777215
176
     1
 90
        1
176
     1
 90
        4
176
     1
 62
     7
176
     1
 62
   257
176
     1
 90
        1
176
     1
 90
        1
176
     1
 40
1.0
176
     1
 90
        0
176
     1
 62
   257
176
     1
 40
1.0
176
     1
 90
        1
176
     1
 90
        6
176
     1
 90
        2
176
     1
 62
     7
176
     1
 90
        5
176
     1
 90
        0
176
     1
 90
        0
176
     1
290
     0
176
     1
 90
        1
176
     1
 40
0.0
176
     1
 90
        0
176
     1
290
     1
176
     1
290
     1
176
     1
290
     0
176
     1
290
     0
176
     1
290
     0
176
     1
290
     0
176
     1
290
     0
176
     1
290
     0
176
     1
290
     0
176
     1
 90
       50
176
     1
 40
0.0
176
     1
 40
1.0
176
     1
 90
        0
176
     1
 62
    18
420
        0
176
     1
 90
       50
176
     1
 90
        3
176
     1
 62
     5
420
      255
176
     1
290
     0
176
     1
 90
       50
176
     1
 90
       50
176
     1
 90
       50
176
     1
290
     0
176
     1
 90
       50
176
     1
 62
   256
176
     0
 40
1.0
176
     0
 90
        2
176
     1
  1
strokes_ogs.tif
176
     1
290
     0
176
     1
 40
1.0
176
     1
 40
1.0
176
     1
  0
VISUALSTYLE
  5
8C
102
{ACAD_REACTORS
330
84
102
}
330
84
100
AcDbVisualStyle
  2
Basic
 70
     7
177
     3
291
     1
 70
    58
 90
        1
176
     1
 90
        0
176
     1
 90
        1
176
     1
 90
        0
176
     1
 40
0.6
176
     1
 40
30.0
176
     1
 62
     7
420
 16777215
176
     1
 90
        0
176
     1
 90
        4
176
     1
 62
     7
176
     1
 62
   257
176
     1
 90
        1
176
     1
 90
        1
176
     1
 40
1.0
176
     1
 90
        8
176
     1
 62
     7
176
     1
 40
1.0
176
     1
 90
        1
176
     1
 90
        6
176
     1
 90
        2
176
     1
 62
     7
176
     1
 90
        5
176
     1
 90
        0
176
     1
 90
        0
176
     1
290
     0
176
     1
 90
        1
176
     1
 40
0.0
176
     1
 90
        0
176
     1
290
     0
176
     1
290
     1
176
     1
290
     1
176
     1
290
     0
176
     1
290
     0
176
     1
290
     0
176
     1
290
     0
176
     1
290
     0
176
     1
290
     0
176
     1
 90
       50
176
     1
 40
0.0
176
     1
 40
1.0
176
     1
 90
        0
176
     1
 62
    18
420
        0
176
     1
 90
       50
176
     1
 90
        3
176
     1
 62
     5
420
      255
176
     1
290
     0
176
     1
 90
       50
176
     1
 90
       50
176
     1
 90
       50
176
     1
290
     0
176
     1
 90
       50
176
     1
 62
   256
176
     0
 40
1.0
176
     0
 90
        2
176
     1
  1
strokes_ogs.tif
176
     1
290
     0
176
     1
 40
1.0
176
     1
 40
1.0
176
     1
  0
VISUALSTYLE
  5
90
102
{ACAD_REACTORS
330
84
102
}
330
84
100
AcDbVisualStyle
  2
Brighten
 70
    12
177
     3
291
     1
 70
    58
 90
        2
176
     1
 90
        2
176
     1
 90
        0
176
     1
 90
        0
176
     1
 40
0.6
176
     1
 40
30.0
176
     1
 62
     7
420
 16777215
176
     1
 90
        1
176
     1
 90
        4
176
     1
 62
     7
176
     1
 62
   257
176
     1
 90
        1
176
     1
 90
        1
176
     1
 40
1.0
176
     1
 90
        8
176
     1
 62
     7
176
     1
 40
1.0
176
     1
 90
        1
176
     1
 90
        6
176
     1
 90
        2
176
     1
 62
     7
176
     1
 90
        5
176
     1
 90
        0
176
     1
 90
        0
176
     1
290
     0
176
     1
 90
        1
176
     1
 40
50.0
176
     1
 90
        0
176
     1
290
     0
176
     1
290
     1
176
     1
290
     1
176
     1
290
     0
176
     1
290
     0
176
     1
290
     0
176
     1
290
     0
176
     1
290
     0
176
     1
290
     0
176
     1
 90
       50
176
     1
 40
0.0
176
     1
 40
1.0
176
     1
 90
        0
176
     1
 62
    18
420
        0
176
     1
 90
       50
176
     1
 90
        3
176
     1
 62
     5
420
      255
176
     1
290
     0
176
     1
 90
       50
176
     1
 90
       50
176
     1
 90
       50
176
     1
290
     0
176
     1
 90
       50
176
     1
 62
   256
176
     0
 40
1.0
176
     0
 90
        2
176
     1
  1
strokes_ogs.tif
176
     1
290
     0
176
     1
 40
1.0
176
     1
 40
1.0
176
     1
  0
VISUALSTYLE
  5
94
102
{ACAD_REACTORS
330
84
102
}
330
84
100
AcDbVisualStyle
  2
ColorChange
 70
    16
177
     3
291
     1
 70
    58
 90
        2
176
     1
 90
        2
176
     1
 90
        3
176
     1
 90
        0
176
     1
 40
0.6
176
     1
 40
30.0
176
     1
 62
     8
420
  8421504
176
     1
 90
        1
176
     1
 90
        4
176
     1
 62
     7
176
     1
 62
   257
176
     1
 90
        1
176
     1
 90
        1
176
     1
 40
1.0
176
     1
 90
        8
176
     1
 62
     8
420
  8421504
176
     1
 40
1.0
176
     1
 90
        1
176
     1
 90
        6
176
     1
 90
        2
176
     1
 62
     7
176
     1
 90
        5
176
     1
 90
        0
176
     1
 90
        0
176
     1
290
     0
176
     1
 90
        1
176
     1
 40
0.0
176
     1
 90
        0
176
     1
290
     0
176
     1
290
     1
176
     1
290
     1
176
     1
290
     0
176
     1
290
     0
176
     1
290
     0
176
     1
290
     0
176
     1
290
     0
176
     1
290
     0
176
     1
 90
       50
176
     1
 40
0.0
176
     1
 40
1.0
176
     1
 90
        0
176
     1
 62
    18
420
        0
176
     1
 90
       50
176
     1
 90
        3
176
     1
 62
     5
420
      255
176
     1
290
     0
176
     1
 90
       50
176
     1
 90
       50
176
     1
 90
       50
176
     1
290
     0
176
     1
 90
       50
176
     1
 62
   256
176
     0
 40
1.0
176
     0
 90
        2
176
     1
  1
strokes_ogs.tif
176
     1
290
     0
176
     1
 40
1.0
176
     1
 40
1.0
176
     1
  0
VISUALSTYLE
  5
8E
102
{ACAD_REACTORS
330
84
102
}
330
84
100
AcDbVisualStyle
  2
Conceptual
 70
     9
177
     3
291
     0
 70
    58
 90
        3
176
     1
 90
        2
176
     1
 90
        0
176
     1
 90
        0
176
     1
 40
0.6
176
     1
 40
30.0
176
     1
 62
     7
420
 16777215
176
     1
 90
        2
176
     1
 90
        2
176
     1
 62
     7
176
     1
 62
   257
176
     1
 90
        1
176
     1
 90
        1
176
     1
 40
179.0
176
     1
 90
        8
176
     1
 62
     7
176
     1
 40
1.0
176
     1
 90
        1
176
     1
 90
        6
176
     1
 90
        2
176
     1
 62
     7
176
     1
 90
        3
176
     1
 90
        0
176
     1
 90
        0
176
     1
290
     0
176
     1
 90
        1
176
     1
 40
0.0
176
     1
 90
        0
176
     1
290
     0
176
     1
290
     1
176
     1
290
     1
176
     1
290
     0
176
     1
290
     0
176
     1
290
     0
176
     1
290
     0
176
     1
290
     0
176
     1
290
     0
176
     1
 90
       50
176
     1
 40
0.0
176
     1
 40
1.0
176
     1
 90
        0
176
     1
 62
    18
420
        0
176
     1
 90
       50
176
     1
 90
        3
176
     1
 62
     5
420
      255
176
     1
290
     0
176
     1
 90
       50
176
     1
 90
       50
176
     1
 90
       50
176
     1
290
     0
176
     1
 90
       50
176
     1
 62
   256
176
     0
 40
1.0
176
     0
 90
        2
176
     1
  1
strokes_ogs.tif
176
     1
290
     0
176
     1
 40
1.0
176
     1
 40
1.0
176
     1
  0
VISUALSTYLE
  5
8F
102
{ACAD_REACTORS
330
84
102
}
330
84
100
AcDbVisualStyle
  2
Dim
 70
    11
177
     3
291
     1
 70
    58
 90
        2
176
     1
 90
        2
176
     1
 90
        0
176
     1
 90
        0
176
     1
 40
0.6
176
     1
 40
30.0
176
     1
 62
     7
420
 16777215
176
     1
 90
        1
176
     1
 90
        4
176
     1
 62
     7
176
     1
 62
   257
176
     1
 90
        1
176
     1
 90
        1
176
     1
 40
1.0
176
     1
 90
        8
176
     1
 62
     7
176
     1
 40
1.0
176
     1
 90
        1
176
     1
 90
        6
176
     1
 90
        2
176
     1
 62
     7
176
     1
 90
        5
176
     1
 90
        0
176
     1
 90
        0
176
     1
290
     0
176
     1
 90
        1
176
     1
 40
-50.0
176
     1
 90
        0
176
     1
290
     0
176
     1
290
     1
176
     1
290
     1
176
     1
290
     0
176
     1
290
     0
176
     1
290
     0
176
     1
290
     0
176
     1
290
     0
176
     1
290
     0
176
     1
 90
       50
176
     1
 40
0.0
176
     1
 40
1.0
176
     1
 90
        0
176
     1
 62
    18
420
        0
176
     1
 90
       50
176
     1
 90
        3
176
     1
 62
     5
420
      255
176
     1
290
     0
176
     1
 90
       50
176
     1
 90
       50
176
     1
 90
       50
176
     1
290
     0
176
     1
 90
       50
176
     1
 62
   256
176
     0
 40
1.0
176
     0
 90
        2
176
     1
  1
strokes_ogs.tif
176
     1
290
     0
176
     1
 40
1.0
176
     1
 40
1.0
176
     1
  0
VISUALSTYLE
  5
97
102
{ACAD_REACTORS
330
84
102
}
330
84
100
AcDbVisualStyle
  2
EdgeColorOff
 70
    22
177
     3
291
     1
 70
    58
 90
        2
176
     0
 90
        2
176
     0
 90
        0
176
     0
 90
        0
176
     0
 40
0.6
176
     0
 40
30.0
176
     0
 62
     7
420
 16777215
176
     0
 90
        1
176
     0
 90
        4
176
     0
 62
     7
176
     0
 62
   257
176
     0
 90
        1
176
     0
 90
        1
176
     0
 40
1.0
176
     0
 90
        8
176
     2
 62
     7
176
     0
 40
1.0
176
     0
 90
        1
176
     0
 90
        6
176
     0
 90
        2
176
     0
 62
     7
176
     0
 90
        5
176
     0
 90
        0
176
     0
 90
        0
176
     0
290
     0
176
     0
 90
        1
176
     0
 40
0.0
176
     0
 90
        0
176
     0
290
     0
176
     0
290
     1
176
     0
290
     1
176
     0
290
     0
176
     0
290
     0
176
     0
290
     0
176
     0
290
     0
176
     0
290
     0
176
     0
290
     0
176
     0
 90
       50
176
     0
 40
0.0
176
     0
 40
1.0
176
     0
 90
        0
176
     0
 62
    18
420
        0
176
     0
 90
       50
176
     0
 90
        3
176
     0
 62
     5
420
      255
176
     0
290
     0
176
     0
 90
       50
176
     0
 90
       50
176
     0
 90
       50
176
     0
290
     0
176
     0
 90
       50
176
     0
 62
   256
176
     0
 40
1.0
176
     0
 90
        2
176
     0
  1
strokes_ogs.tif
176
     0
290
     0
176
     0
 40
1.0
176
     0
 40
1.0
176
     0
  0
VISUALSTYLE
  5
93
102
{ACAD_REACTORS
330
84
102
}
330
84
100
AcDbVisualStyle
  2
Facepattern
 70
    15
177
     3
291
     1
 70
    58
 90
        2
176
     1
 90
        2
176
     1
 90
        0
176
     1
 90
        0
176
     1
 40
0.6
176
     1
 40
30.0
176
     1
 62
     7
420
 16777215
176
     1
 90
        1
176
     1
 90
        4
176
     1
 62
     7
176
     1
 62
   257
176
     1
 90
        1
176
     1
 90
        1
176
     1
 40
1.0
176
     1
 90
        8
176
     1
 62
     7
176
     1
 40
1.0
176
     1
 90
        1
176
     1
 90
        6
176
     1
 90
        2
176
     1
 62
     7
176
     1
 90
        5
176
     1
 90
        0
176
     1
 90
        0
176
     1
290
     0
176
     1
 90
        1
176
     1
 40
0.0
176
     1
 90
        0
176
     1
290
     0
176
     1
290
     1
176
     1
290
     1
176
     1
290
     0
176
     1
290
     0
176
     1
290
     0
176
     1
290
     0
176
     1
290
     0
176
     1
290
     0
176
     1
 90
       50
176
     1
 40
0.0
176
     1
 40
1.0
176
     1
 90
        0
176
     1
 62
    18
420
        0
176
     1
 90
       50
176
     1
 90
        3
176
     1
 62
     5
420
      255
176
     1
290
     0
176
     1
 90
       50
176
     1
 90
       50
176
     1
 90
       50
176
     1
290
     0
176
     1
 90
       50
176
     1
 62
   256
176
     0
 40
1.0
176
     0
 90
        2
176
     1
  1
strokes_ogs.tif
176
     1
290
     0
176
     1
 40
1.0
176
     1
 40
1.0
176
     1
  0
VISUALSTYLE
  5
85
102
{ACAD_REACTORS
330
84
102
}
330
84
100
AcDbVisualStyle
  2
Flat
 70
     0
177
     3
291
     1
 70
    58
 90
        2
176
     1
 90
        1
176
     1
 90
        1
176
     1
 90
        2
176
     1
 40
0.6
176
     1
 40
30.0
176
     1
 62
     7
420
 16777215
176
     1
 90
        0
176
     1
 90
        0
176
     1
 62
     7
176
     1
 62
   257
176
     1
 90
        1
176
     1
 90
        1
176
     1
 40
1.0
176
     1
 90
        8
176
     1
 62
     7
176
     1
 40
1.0
176
     1
 90
        1
176
     1
 90
        6
176
     1
 90
        2
176
     1
 62
     7
176
     1
 90
        5
176
     1
 90
        0
176
     1
 90
        0
176
     1
290
     0
176
     1
 90
       13
176
     1
 40
0.0
176
     1
 90
        0
176
     1
290
     0
176
     1
290
     1
176
     1
290
     1
176
     1
290
     0
176
     1
290
     0
176
     1
290
     0
176
     1
290
     0
176
     1
290
     0
176
     1
290
     0
176
     1
 90
       50
176
     1
 40
0.0
176
     1
 40
1.0
176
     1
 90
        0
176
     1
 62
    18
420
        0
176
     1
 90
       50
176
     1
 90
        3
176
     1
 62
     5
420
      255
176
     1
290
     0
176
     1
 90
       50
176
     1
 90
       50
176
     1
 90
       50
176
     1
290
     0
176
     1
 90
       50
176
     1
 62
   256
176
     0
 40
1.0
176
     0
 90
        2
176
     1
  1
strokes_ogs.tif
176
     1
290
     0
176
     1
 40
1.0
176
     1
 40
1.0
176
     1
  0
VISUALSTYLE
  5
86
102
{ACAD_REACTORS
330
84
102
}
330
84
100
AcDbVisualStyle
  2
FlatWithEdges
 70
     1
177
     3
291
     1
 70
    58
 90
        2
176
     1
 90
        1
176
     1
 90
        1
176
     1
 90
        2
176
     1
 40
0.6
176
     1
 40
30.0
176
     1
 62
     7
420
 16777215
176
     1
 90
        1
176
     1
 90
        0
176
     1
 62
     7
176
     1
 62
   257
176
     1
 90
        1
176
     1
 90
        1
176
     1
 40
1.0
176
     1
 90
        0
176
     1
 62
   257
176
     1
 40
1.0
176
     1
 90
        1
176
     1
 90
        6
176
     1
 90
        2
176
     1
 62
     7
176
     1
 90
        5
176
     1
 90
        0
176
     1
 90
        0
176
     1
290
     0
176
     1
 90
       13
176
     1
 40
0.0
176
     1
 90
        0
176
     1
290
     0
176
     1
290
     1
176
     1
290
     1
176
     1
290
     0
176
     1
290
     0
176
     1
290
     0
176
     1
290
     0
176
     1
290
     0
176
     1
290
     0
176
     1
 90
       50
176
     1
 40
0.0
176
     1
 40
1.0
176
     1
 90
        0
176
     1
 62
    18
420
        0
176
     1
 90
       50
176
     1
 90
        3
176
     1
 62
     5
420
      255
176
     1
290
     0
176
     1
 90
       50
176
     1
 90
       50
176
     1
 90
       50
176
     1
290
     0
176
     1
 90
       50
176
     1
 62
   256
176
     0
 40
1.0
176
     0
 90
        2
176
     1
  1
strokes_ogs.tif
176
     1
290
     0
176
     1
 40
1.0
176
     1
 40
1.0
176
     1
  0
VISUALSTYLE
  5
87
102
{ACAD_REACTORS
330
84
102
}
330
84
100
AcDbVisualStyle
  2
Gouraud
 70
     2
177
     3
291
     1
 70
    58
 90
        2
176
     1
 90
        2
176
     1
 90
        1
176
     1
 90
        2
176
     1
 40
0.6
176
     1
 40
30.0
176
     1
 62
     7
420
 16777215
176
     1
 90
        0
176
     1
 90
        0
176
     1
 62
     7
176
     1
 62
   257
176
     1
 90
        1
176
     1
 90
        1
176
     1
 40
1.0
176
     1
 90
        0
176
     1
 62
     7
176
     1
 40
1.0
176
     1
 90
        1
176
     1
 90
        6
176
     1
 90
        2
176
     1
 62
     7
176
     1
 90
        5
176
     1
 90
        0
176
     1
 90
        0
176
     1
290
     0
176
     1
 90
       13
176
     1
 40
0.0
176
     1
 90
        0
176
     1
290
     0
176
     1
290
     1
176
     1
290
     1
176
     1
290
     0
176
     1
290
     0
176
     1
290
     0
176
     1
290
     0
176
     1
290
     0
176
     1
290
     0
176
     1
 90
       50
176
     1
 40
0.0
176
     1
 40
1.0
176
     1
 90
        0
176
     1
 62
    18
420
        0
176
     1
 90
       50
176
     1
 90
        3
176
     1
 62
     5
420
      255
176
     1
290
     0
176
     1
 90
       50
176
     1
 90
       50
176
     1
 90
       50
176
     1
290
     0
176
     1
 90
       50
176
     1
 62
   256
176
     0
 40
1.0
176
     0
 90
        2
176
     1
  1
strokes_ogs.tif
176
     1
290
     0
176
     1
 40
1.0
176
     1
 40
1.0
176
     1
  0
VISUALSTYLE
  5
88
102
{ACAD_REACTORS
330
84
102
}
330
84
100
AcDbVisualStyle
  2
GouraudWithEdges
 70
     3
177
     3
291
     1
 70
    58
 90
        2
176
     1
 90
        2
176
     1
 90
        1
176
     1
 90
        2
176
     1
 40
0.6
176
     1
 40
30.0
176
     1
 62
     7
420
 16777215
176
     1
 90
        1
176
     1
 90
        0
176
     1
 62
     7
176
     1
 62
   257
176
     1
 90
        1
176
     1
 90
        1
176
     1
 40
1.0
176
     1
 90
        0
176
     1
 62
   257
176
     1
 40
1.0
176
     1
 90
        1
176
     1
 90
        6
176
     1
 90
        2
176
     1
 62
     7
176
     1
 90
        5
176
     1
 90
        0
176
     1
 90
        0
176
     1
290
     0
176
     1
 90
       13
176
     1
 40
0.0
176
     1
 90
        0
176
     1
290
     0
176
     1
290
     1
176
     1
290
     1
176
     1
290
     0
176
     1
290
     0
176
     1
290
     0
176
     1
290
     0
176
     1
290
     0
176
     1
290
     0
176
     1
 90
       50
176
     1
 40
0.0
176
     1
 40
1.0
176
     1
 90
        0
176
     1
 62
    18
420
        0
176
     1
 90
       50
176
     1
 90
        3
176
     1
 62
     5
420
      255
176
     1
290
     0
176
     1
 90
       50
176
     1
 90
       50
176
     1
 90
       50
176
     1
290
     0
176
     1
 90
       50
176
     1
 62
   256
176
     0
 40
1.0
176
     0
 90
        2
176
     1
  1
strokes_ogs.tif
176
     1
290
     0
176
     1
 40
1.0
176
     1
 40
1.0
176
     1
  0
VISUALSTYLE
  5
8B
102
{ACAD_REACTORS
330
84
102
}
330
84
100
AcDbVisualStyle
  2
Hidden
 70
     6
177
     3
291
     0
 70
    58
 90
        1
176
     1
 90
        2
176
     1
 90
        2
176
     1
 90
        0
176
     1
 40
0.6
176
     1
 40
30.0
176
     1
 62
     7
420
 16777215
176
     1
 90
        2
176
     1
 90
        2
176
     1
 62
     7
176
     1
 62
   257
176
     1
 90
        2
176
     1
 90
        1
176
     1
 40
40.0
176
     1
 90
        0
176
     1
 62
   257
176
     1
 40
1.0
176
     1
 90
        1
176
     1
 90
        6
176
     1
 90
        2
176
     1
 62
     7
176
     1
 90
        3
176
     1
 90
        0
176
     1
 90
        0
176
     1
290
     0
176
     1
 90
        1
176
     1
 40
0.0
176
     1
 90
        0
176
     1
290
     0
176
     1
290
     1
176
     1
290
     1
176
     1
290
     0
176
     1
290
     0
176
     1
290
     0
176
     1
290
     0
176
     1
290
     0
176
     1
290
     0
176
     1
 90
       50
176
     1
 40
0.0
176
     1
 40
1.0
176
     1
 90
        0
176
     1
 62
    18
420
        0
176
     1
 90
       50
176
     1
 90
        3
176
     1
 62
     5
420
      255
176
     1
290
     0
176
     1
 90
       50
176
     1
 90
       50
176
     1
 90
       50
176
     1
290
     0
176
     1
 90
       50
176
     1
 62
   256
176
     0
 40
1.0
176
     0
 90
        2
176
     1
  1
strokes_ogs.tif
176
     1
290
     0
176
     1
 40
1.0
176
     1
 40
1.0
176
     1
  0
VISUALSTYLE
  5
95
102
{ACAD_REACTORS
330
84
102
}
330
84
100
AcDbVisualStyle
  2
JitterOff
 70
    20
177
     3
291
     1
 70
    58
 90
        2
176
     0
 90
        2
176
     0
 90
        0
176
     0
 90
        0
176
     0
 40
0.6
176
     0
 40
30.0
176
     0
 62
     7
420
 16777215
176
     0
 90
        1
176
     0
 90
        4
176
     0
 62
     7
176
     0
 62
   257
176
     0
 90
        1
176
     0
 90
        1
176
     0
 40
1.0
176
     0
 90
       10
176
     2
 62
     7
176
     0
 40
1.0
176
     0
 90
        1
176
     0
 90
        6
176
     0
 90
        2
176
     0
 62
     7
176
     0
 90
        5
176
     0
 90
        0
176
     0
 90
        0
176
     0
290
     0
176
     0
 90
        1
176
     0
 40
0.0
176
     0
 90
        0
176
     0
290
     0
176
     0
290
     1
176
     0
290
     1
176
     0
290
     0
176
     0
290
     0
176
     0
290
     0
176
     0
290
     0
176
     0
290
     0
176
     0
290
     0
176
     0
 90
       50
176
     0
 40
0.0
176
     0
 40
1.0
176
     0
 90
        0
176
     0
 62
    18
420
        0
176
     0
 90
       50
176
     0
 90
        3
176
     0
 62
     5
420
      255
176
     0
290
     0
176
     0
 90
       50
176
     0
 90
       50
176
     0
 90
       50
176
     0
290
     0
176
     0
 90
       50
176
     0
 62
   256
176
     0
 40
1.0
176
     0
 90
        2
176
     0
  1
strokes_ogs.tif
176
     0
290
     0
176
     0
 40
1.0
176
     0
 40
1.0
176
     0
  0
VISUALSTYLE
  5
92
102
{ACAD_REACTORS
330
84
102
}
330
84
100
AcDbVisualStyle
  2
Linepattern
 70
    14
177
     3
291
     1
 70
    58
 90
        2
176
     1
 90
        2
176
     1
 90
        0
176
     1
 90
        0
176
     1
 40
0.6
176
     1
 40
30.0
176
     1
 62
     7
420
 16777215
176
     1
 90
        1
176
     1
 90
        4
176
     1
 62
     7
176
     1
 62
   257
176
     1
 90
        7
176
     1
 90
        7
176
     1
 40
1.0
176
     1
 90
        8
176
     1
 62
     7
176
     1
 40
1.0
176
     1
 90
        1
176
     1
 90
        6
176
     1
 90
        2
176
     1
 62
     7
176
     1
 90
        5
176
     1
 90
        0
176
     1
 90
        0
176
     1
290
     0
176
     1
 90
        1
176
     1
 40
0.0
176
     1
 90
        0
176
     1
290
     0
176
     1
290
     1
176
     1
290
     1
176
     1
290
     0
176
     1
290
     0
176
     1
290
     0
176
     1
290
     0
176
     1
290
     0
176
     1
290
     0
176
     1
 90
       50
176
     1
 40
0.0
176
     1
 40
1.0
176
     1
 90
        0
176
     1
 62
    18
420
        0
176
     1
 90
       50
176
     1
 90
        3
176
     1
 62
     5
420
      255
176
     1
290
     0
176
     1
 90
       50
176
     1
 90
       50
176
     1
 90
       50
176
     1
290
     0
176
     1
 90
       50
176
     1
 62
   256
176
     0
 40
1.0
176
     0
 90
        2
176
     1
  1
strokes_ogs.tif
176
     1
290
     0
176
     1
 40
1.0
176
     1
 40
1.0
176
     1
  0
VISUALSTYLE
  5
96
102
{ACAD_REACTORS
330
84
102
}
330
84
100
AcDbVisualStyle
  2
OverhangOff
 70
    21
177
     3
291
     1
 70
    58
 90
        2
176
     0
 90
        2
176
     0
 90
        0
176
     0
 90
        0
176
     0
 40
0.6
176
     0
 40
30.0
176
     0
 62
     7
420
 16777215
176
     0
 90
        1
176
     0
 90
        4
176
     0
 62
     7
176
     0
 62
   257
176
     0
 90
        1
176
     0
 90
        1
176
     0
 40
1.0
176
     0
 90
        9
176
     2
 62
     7
176
     0
 40
1.0
176
     0
 90
        1
176
     0
 90
        6
176
     0
 90
        2
176
     0
 62
     7
176
     0
 90
        5
176
     0
 90
        0
176
     0
 90
        0
176
     0
290
     0
176
     0
 90
        1
176
     0
 40
0.0
176
     0
 90
        0
176
     0
290
     0
176
     0
290
     1
176
     0
290
     1
176
     0
290
     0
176
     0
290
     0
176
     0
290
     0
176
     0
290
     0
176
     0
290
     0
176
     0
290
     0
176
     0
 90
       50
176
     0
 40
0.0
176
     0
 40
1.0
176
     0
 90
        0
176
     0
 62
    18
420
        0
176
     0
 90
       50
176
     0
 90
        3
176
     0
 62
     5
420
      255
176
     0
290
     0
176
     0
 90
       50
176
     0
 90
       50
176
     0
 90
       50
176
     0
290
     0
176
     0
 90
       50
176
     0
 62
   256
176
     0
 40
1.0
176
     0
 90
        2
176
     0
  1
strokes_ogs.tif
176
     0
290
     0
176
     0
 40
1.0
176
     0
 40
1.0
176
     0
  0
VISUALSTYLE
  5
8D
102
{ACAD_REACTORS
330
84
102
}
330
84
100
AcDbVisualStyle
  2
Realistic
 70
     8
177
     3
291
     0
 70
    58
 90
        2
176
     1
 90
        3
176
     1
 90
        0
176
     1
 90
        2
176
     1
 40
0.6
176
     1
 40
30.0
176
     1
 62
     7
420
 16777215
176
     1
 90
        0
176
     1
 90
        0
176
     1
 62
     7
176
     1
 62
   257
176
     1
 90
        1
176
     1
 90
        1
176
     1
 40
1.0
176
     1
 90
        8
176
     1
 62
   257
176
     1
 40
1.0
176
     1
 90
        1
176
     1
 90
        6
176
     1
 90
        2
176
     1
 62
     7
176
     1
 90
        3
176
     1
 90
        0
176
     1
 90
        0
176
     1
290
     0
176
     1
 90
       13
176
     1
 40
0.0
176
     1
 90
        0
176
     1
290
     0
176
     1
290
     1
176
     1
290
     1
176
     1
290
     0
176
     1
290
     0
176
     1
290
     0
176
     1
290
     0
176
     1
290
     0
176
     1
290
     0
176
     1
 90
       50
176
     1
 40
0.0
176
     1
 40
1.0
176
     1
 90
        0
176
     1
 62
    18
420
        0
176
     1
 90
       50
176
     1
 90
        3
176
     1
 62
     5
420
      255
176
     1
290
     0
176
     1
 90
       50
176
     1
 90
       50
176
     1
 90
       50
176
     1
290
     0
176
     1
 90
       50
176
     1
 62
   256
176
     0
 40
1.0
176
     0
 90
        2
176
     1
  1
strokes_ogs.tif
176
     1
290
     0
176
     1
 40
1.0
176
     1
 40
1.0
176
     1
  0
VISUALSTYLE
  5
9C
102
{ACAD_REACTORS
330
84
102
}
330
84
100
AcDbVisualStyle
  2
Shaded
 70
    27
177
     3
291
     0
 70
    58
 90
        2
176
     1
 90
        2
176
     1
 90
        1
176
     1
 90
        2
176
     1
 40
0.6
176
     1
 40
30.0
176
     1
 62
     7
420
 16777215
176
     1
 90
        0
176
     1
 90
        4
176
     1
 62
     7
176
     1
 62
   257
176
     1
 90
        1
176
     1
 90
        1
176
     1
 40
1.0
176
     1
 90
        8
176
     1
 62
   257
176
     1
 40
1.0
176
     1
 90
        1
176
     1
 90
        6
176
     1
 90
        2
176
     1
 62
     8
420
  7895160
176
     1
 90
        3
176
     1
 90
        0
176
     1
 90
        0
176
     1
290
     0
176
     1
 90
        5
176
     1
 40
0.0
176
     1
 90
        0
176
     1
290
     0
176
     1
290
     1
176
     1
290
     1
176
     1
290
     0
176
     1
290
     0
176
     1
290
     0
176
     1
290
     0
176
     1
290
     0
176
     1
290
     0
176
     1
 90
       50
176
     1
 40
0.0
176
     1
 40
1.0
176
     1
 90
        0
176
     1
 62
    18
420
        0
176
     1
 90
       50
176
     1
 90
        3
176
     1
 62
     5
420
      255
176
     1
290
     0
176
     1
 90
       50
176
     1
 90
       50
176
     1
 90
       50
176
     1
290
     0
176
     1
 90
       50
176
     1
 62
   256
176
     0
 40
1.0
176
     0
 90
        2
176
     1
  1
strokes_ogs.tif
176
     1
290
     0
176
     1
 40
1.0
176
     1
 40
1.0
176
     1
  0
VISUALSTYLE
  5
9B
102
{ACAD_REACTORS
330
84
102
}
330
84
100
AcDbVisualStyle
  2
Shaded with edges
 70
    26
177
     3
291
     0
 70
    58
 90
        2
176
     1
 90
        2
176
     1
 90
        1
176
     1
 90
        2
176
     1
 40
0.6
176
     1
 40
30.0
176
     1
 62
     7
420
 16777215
176
     1
 90
        1
176
     1
 90
       10
176
     1
 62
     7
176
     1
 62
   257
176
     1
 90
        2
176
     1
 90
        1
176
     1
 40
1.0
176
     1
 90
        8
176
     1
 62
   257
176
     1
 40
1.0
176
     1
 90
        1
176
     1
 90
        6
176
     1
 90
        2
176
     1
 62
     7
176
     1
 90
        3
176
     1
 90
        0
176
     1
 90
        0
176
     1
290
     0
176
     1
 90
        5
176
     1
 40
0.0
176
     1
 90
        0
176
     1
290
     0
176
     1
290
     1
176
     1
290
     1
176
     1
290
     0
176
     1
290
     0
176
     1
290
     0
176
     1
290
     0
176
     1
290
     0
176
     1
290
     0
176
     1
 90
       50
176
     1
 40
0.0
176
     1
 40
1.0
176
     1
 90
        0
176
     1
 62
    18
420
        0
176
     1
 90
       50
176
     1
 90
        3
176
     1
 62
     5
420
      255
176
     1
290
     0
176
     1
 90
       50
176
     1
 90
       50
176
     1
 90
       50
176
     1
290
     0
176
     1
 90
       50
176
     1
 62
   256
176
     0
 40
1.0
176
     0
 90
        2
176
     1
  1
strokes_ogs.tif
176
     1
290
     0
176
     1
 40
1.0
176
     1
 40
1.0
176
     1
  0
VISUALSTYLE
  5
98
102
{ACAD_REACTORS
330
84
102
}
330
84
100
AcDbVisualStyle
  2
Shades of Gray
 70
    23
177
     3
291
     0
 70
    58
 90
        2
176
     1
 90
        2
176
     1
 90
        3
176
     1
 90
        0
176
     1
 40
0.6
176
     1
 40
30.0
176
     1
 62
     7
420
 16777215
176
     1
 90
        2
176
     1
 90
        2
176
     1
 62
     7
176
     1
 62
     7
176
     1
 90
        1
176
     1
 90
        1
176
     1
 40
40.0
176
     1
 90
        8
176
     1
 62
     7
176
     1
 40
1.0
176
     1
 90
        1
176
     1
 90
        6
176
     1
 90
        2
176
     1
 62
     7
176
     1
 90
        3
176
     1
 90
        0
176
     1
 90
        0
176
     1
290
     0
176
     1
 90
        1
176
     1
 40
0.0
176
     1
 90
        0
176
     1
290
     0
176
     1
290
     1
176
     1
290
     1
176
     1
290
     0
176
     1
290
     0
176
     1
290
     0
176
     1
290
     0
176
     1
290
     0
176
     1
290
     0
176
     1
 90
       50
176
     1
 40
0.0
176
     1
 40
1.0
176
     1
 90
        0
176
     1
 62
    18
420
        0
176
     1
 90
       50
176
     1
 90
        3
176
     1
 62
     5
420
      255
176
     1
290
     0
176
     1
 90
       50
176
     1
 90
       50
176
     1
 90
       50
176
     1
290
     0
176
     1
 90
       50
176
     1
 62
   256
176
     0
 40
1.0
176
     0
 90
        2
176
     1
  1
strokes_ogs.tif
176
     1
290
     0
176
     1
 40
1.0
176
     1
 40
1.0
176
     1
  0
VISUALSTYLE
  5
99
102
{ACAD_REACTORS
330
84
102
}
330
84
100
AcDbVisualStyle
  2
Sketchy
 70
    24
177
     3
291
     0
 70
    58
 90
        1
176
     1
 90
        2
176
     1
 90
        2
176
     1
 90
        0
176
     1
 40
0.6
176
     1
 40
30.0
176
     1
 62
     7
420
 16777215
176
     1
 90
        2
176
     1
 90
        2
176
     1
 62
     7
176
     1
 62
     7
176
     1
 90
        1
176
     1
 90
        1
176
     1
 40
40.0
176
     1
 90
       11
176
     1
 62
     7
176
     1
 40
1.0
176
     1
 90
        1
176
     1
 90
        6
176
     1
 90
        2
176
     1
 62
     7
176
     1
 90
        6
176
     1
 90
        0
176
     1
 90
        0
176
     1
290
     0
176
     1
 90
        1
176
     1
 40
0.0
176
     1
 90
        0
176
     1
290
     0
176
     1
290
     1
176
     1
290
     1
176
     1
290
     0
176
     1
290
     0
176
     1
290
     0
176
     1
290
     0
176
     1
290
     0
176
     1
290
     0
176
     1
 90
       50
176
     1
 40
0.0
176
     1
 40
1.0
176
     1
 90
        0
176
     1
 62
    18
420
        0
176
     1
 90
       50
176
     1
 90
        3
176
     1
 62
     5
420
      255
176
     1
290
     0
176
     1
 90
       50
176
     1
 90
       50
176
     1
 90
       50
176
     1
290
     0
176
     1
 90
       50
176
     1
 62
   256
176
     0
 40
1.0
176
     0
 90
        2
176
     1
  1
strokes_ogs.tif
176
     1
290
     0
176
     1
 40
1.0
176
     1
 40
1.0
176
     1
  0
VISUALSTYLE
  5
91
102
{ACAD_REACTORS
330
84
102
}
330
84
100
AcDbVisualStyle
  2
Thicken
 70
    13
177
     3
291
     1
 70
    58
 90
        2
176
     1
 90
        2
176
     1
 90
        0
176
     1
 90
        0
176
     1
 40
0.6
176
     1
 40
30.0
176
     1
 62
     7
420
 16777215
176
     1
 90
        1
176
     1
 90
        4
176
     1
 62
     7
176
     1
 62
   257
176
     1
 90
        1
176
     1
 90
        1
176
     1
 40
1.0
176
     1
 90
       12
176
     1
 62
     7
176
     1
 40
1.0
176
     1
 90
        1
176
     1
 90
        6
176
     1
 90
        2
176
     1
 62
     7
176
     1
 90
        5
176
     1
 90
        0
176
     1
 90
        0
176
     1
290
     0
176
     1
 90
        1
176
     1
 40
0.0
176
     1
 90
        0
176
     1
290
     0
176
     1
290
     1
176
     1
290
     1
176
     1
290
     0
176
     1
290
     0
176
     1
290
     0
176
     1
290
     0
176
     1
290
     0
176
     1
290
     0
176
     1
 90
       50
176
     1
 40
0.0
176
     1
 40
1.0
176
     1
 90
        0
176
     1
 62
    18
420
        0
176
     1
 90
       50
176
     1
 90
        3
176
     1
 62
     5
420
      255
176
     1
290
     0
176
     1
 90
       50
176
     1
 90
       50
176
     1
 90
       50
176
     1
290
     0
176
     1
 90
       50
176
     1
 62
   256
176
     0
 40
1.0
176
     0
 90
        2
176
     1
  1
strokes_ogs.tif
176
     1
290
     0
176
     1
 40
1.0
176
     1
 40
1.0
176
     1
  0
VISUALSTYLE
  5
8A
102
{ACAD_REACTORS
330
84
102
}
330
84
100
AcDbVisualStyle
  2
Wireframe
 70
     5
177
     3
291
     0
 70
    58
 90
        0
176
     1
 90
        2
176
     1
 90
        0
176
     1
 90
        0
176
     1
 40
0.6
176
     1
 40
30.0
176
     1
 62
     7
420
 16777215
176
     1
 90
        1
176
     1
 90
        4
176
     1
 62
     7
176
     1
 62
   257
176
     1
 90
        1
176
     1
 90
        1
176
     1
 40
1.0
176
     1
 90
        0
176
     1
 62
   257
176
     1
 40
1.0
176
     1
 90
        1
176
     1
 90
        6
176
     1
 90
        2
176
     1
 62
     7
176
     1
 90
        3
176
     1
 90
        0
176
     1
 90
        0
176
     1
290
     0
176
     1
 90
        1
176
     1
 40
0.0
176
     1
 90
        0
176
     1
290
     0
176
     1
290
     1
176
     1
290
     1
176
     1
290
     0
176
     1
290
     0
176
     1
290
     0
176
     1
290
     0
176
     1
290
     0
176
     1
290
     0
176
     1
 90
       50
176
     1
 40
0.0
176
     1
 40
1.0
176
     1
 90
        0
176
     1
 62
    18
420
        0
176
     1
 90
       50
176
     1
 90
        3
176
     1
 62
     5
420
      255
176
     1
290
     0
176
     1
 90
       50
176
     1
 90
       50
176
     1
 90
       50
176
     1
290
     0
176
     1
 90
       50
176
     1
 62
   256
176
     0
 40
1.0
176
     0
 90
        2
176
     1
  1
strokes_ogs.tif
176
     1
290
     0
176
     1
 40
1.0
176
     1
 40
1.0
176
     1
  0
VISUALSTYLE
  5
9A
102
{ACAD_REACTORS
330
84
102
}
330
84
100
AcDbVisualStyle
  2
X-Ray
 70
    25
177
     3
291
     0
 70
    58
 90
        2
176
     1
 90
        2
176
     1
 90
        1
176
     1
 90
        1
176
     1
 40
0.5
176
     1
 40
30.0
176
     1
 62
     7
420
 16777215
176
     1
 90
        1
176
     1
 90
        0
176
     1
 62
     7
176
     1
 62
   257
176
     1
 90
        1
176
     1
 90
        1
176
     1
 40
1.0
176
     1
 90
        8
176
     1
 62
     7
176
     1
 40
1.0
176
     1
 90
        1
176
     1
 90
        6
176
     1
 90
        2
176
     1
 62
     7
176
     1
 90
        3
176
     1
 90
        0
176
     1
 90
        0
176
     1
290
     0
176
     1
 90
       13
176
     1
 40
0.0
176
     1
 90
        0
176
     1
290
     0
176
     1
290
     1
176
     1
290
     1
176
     1
290
     0
176
     1
290
     0
176
     1
290
     0
176
     1
290
     0
176
     1
290
     0
176
     1
290
     0
176
     1
 90
       50
176
     1
 40
0.0
176
     1
 40
1.0
176
     1
 90
        0
176
     1
 62
    18
420
        0
176
     1
 90
       50
176
     1
 90
        3
176
     1
 62
     5
420
      255
176
     1
290
     0
176
     1
 90
       50
176
     1
 90
       50
176
     1
 90
       50
176
     1
290
     0
176
     1
 90
       50
176
     1
 62
   256
176
     0
 40
1.0
176
     0
 90
        2
176
     1
  1
strokes_ogs.tif
176
     1
290
     0
176
     1
 40
1.0
176
     1
 40
1.0
176
     1
  0
DICTIONARYVAR
  5
12C
102
{ACAD_REACTORS
330
12B
102
}
330
12B
100
DictionaryVariables
280
     0
  1
1:1
  0
DICTIONARYVAR
  5
131
102
{ACAD_REACTORS
330
12B
102
}
330
12B
100
DictionaryVariables
280
     0
  1
Standard
  0
DICTIONARYVAR
  5
130
102
{ACAD_REACTORS
330
12B
102
}
330
12B
100
DictionaryVariables
280
     0
  1
Standard
  0
XRECORD
  5
BB
102
{ACAD_REACTORS
330
B9
102
}
330
B9
100
AcDbXrecord
280
     1
1000
#ffffff
  0
XRECORD
  5
BC
102
{ACAD_REACTORS
330
B9
102
}
330
B9
100
AcDbXrecord
280
     1
1000
FullColor
  0
XRECORD
  5
BD
102
{ACAD_REACTORS
330
B9
102
}
330
B9
100
AcDbXrecord
280
     1
290
     1
  0
XRECORD
  5
BE
102
{ACAD_REACTORS
330
B9
102
}
330
B9
100
AcDbXrecord
280
     1
290
     1
  0
XRECORD
  5
BF
102
{ACAD_REACTORS
330
B9
102
}
330
B9
100
AcDbXrecord
280
     1
290
     1
  0
XRECORD
  5
C0
102
{ACAD_REACTORS
330
B9
102
}
330
B9
100
AcDbXrecord
280
     1
290
     1
  0
XRECORD
  5
C1
102
{ACAD_REACTORS
330
B9
102
}
330
B9
100
AcDbXrecord
280
     1
1000
auto
  0
XRECORD
  5
C2
102
{ACAD_REACTORS
330
B9
102
}
330
B9
100
AcDbXrecord
280
     1
1000
auto
  0
XRECORD
  5
C3
102
{ACAD_REACTORS
330
B9
102
}
330
B9
100
AcDbXrecord
280
     1
1000
auto
  0
XRECORD
  5
C4
102
{ACAD_REACTORS
330
B9
102
}
330
B9
100
AcDbXrecord
280
     1
1000
auto
  0
XRECORD
  5
C5
102
{ACAD_REACTORS
330
B9
102
}
330
B9
100
AcDbXrecord
280
     1
1000
auto
  0
XRECORD
  5
C6
102
{ACAD_REACTORS
330
B9
102
}
330
B9
100
AcDbXrecord
280
     1
1000
auto
  0
XRECORD
  5
C7
102
{ACAD_REACTORS
330
B9
102
}
330
B9
100
AcDbXrecord
280
     1
1000
auto
  0
XRECORD
  5
C8
102
{ACAD_REACTORS
330
B9
102
}
330
B9
100
AcDbXrecord
280
     1
1000
auto
  0
XRECORD
  5
C9
102
{ACAD_REACTORS
330
B9
102
}
330
B9
100
AcDbXrecord
280
     1
290
     0
  0
XRECORD
  5
CA
102
{ACAD_REACTORS
330
B9
102
}
330
B9
100
AcDbXrecord
280
     1
290
     0
  0
XRECORD
  5
CB
102
{ACAD_REACTORS
330
B9
102
}
330
B9
100
AcDbXrecord
280
     1
290
     0
  0
XRECORD
  5
CC
102
{ACAD_REACTORS
330
B9
102
}
330
B9
100
AcDbXrecord
280
     1
290
     0
  0
XRECORD
  5
CD
102
{ACAD_REACTORS
330
B9
102
}
330
B9
100
AcDbXrecord
280
     1
 90
    65537
  0
XRECORD
  5
CE
102
{ACAD_REACTORS
330
B9
102
}
330
B9
100
AcDbXrecord
280
     1
 90
    65537
  0
XRECORD
  5
CF
102
{ACAD_REACTORS
330
B9
102
}
330
B9
100
AcDbXrecord
280
     1
 90
    65537
  0
XRECORD
  5
D0
102
{ACAD_REACTORS
330
B9
102
}
330
B9
100
AcDbXrecord
280
     1
 90
    65537
  0
XRECORD
  5
D1
102
{ACAD_REACTORS
330
B9
102
}
330
B9
100
AcDbXrecord
280
     1
1000
auto
  0
XRECORD
  5
D2
102
{ACAD_REACTORS
330
B9
102
}
330
B9
100
AcDbXrecord
280
     1
1000
auto
  0
XRECORD
  5
D3
102
{ACAD_REACTORS
330
B9
102
}
330
B9
100
AcDbXrecord
280
     1
1000
auto
  0
XRECORD
  5
D4
102
{ACAD_REACTORS
330
B9
102
}
330
B9
100
AcDbXrecord
280
     1
1000
auto
  0
XRECORD
  5
D5
102
{ACAD_REACTORS
330
B9
102
}
330
B9
100
AcDbXrecord
280
     1
1000
auto
  0
XRECORD
  5
D6
102
{ACAD_REACTORS
330
B9
102
}
330
B9
100
AcDbXrecord
280
     1
1000
auto
  0
XRECORD
  5
D7
102
{ACAD_REACTORS
330
B9
102
}
330
B9
100
AcDbXrecord
280
     1
1000
auto
  0
XRECORD
  5
D8
102
{ACAD_REACTORS
330
B9
102
}
330
B9
100
AcDbXrecord
280
     1
1000
auto
  0
XRECORD
  5
D9
102
{ACAD_REACTORS
330
B9
102
}
330
B9
100
AcDbXrecord
280
     1
 90
        1
  0
XRECORD
  5
DA
102
{ACAD_REACTORS
330
B9
102
}
330
B9
100
AcDbXrecord
280
     1
 40
10.0
  0
XRECORD
  5
DB
102
{ACAD_REACTORS
330
B9
102
}
330
B9
100
AcDbXrecord
280
     1
 40
10.0
  0
XRECORD
  5
DC
102
{ACAD_REACTORS
330
B9
102
}
330
B9
100
AcDbXrecord
280
     1
 40
10.0
  0
XRECORD
  5
DD
102
{ACAD_REACTORS
330
B9
102
}
330
B9
100
AcDbXrecord
280
     1
 40
10.0
  0
XRECORD
  5
DE
102
{ACAD_REACTORS
330
B9
102
}
330
B9
100
AcDbXrecord
280
     1
290
     0
  0
XRECORD
  5
DF
102
{ACAD_REACTORS
330
B9
102
}
330
B9
100
AcDbXrecord
280
     1
 90
        1
  0
XRECORD
  5
E0
102
{ACAD_REACTORS
330
B9
102
}
330
B9
100
AcDbXrecord
280
     1
 40
0.0
  0
XRECORD
  5
E1
102
{ACAD_REACTORS
330
B9
102
}
330
B9
100
AcDbXrecord
280
     1
 40
0.0
  0
XRECORD
  5
E2
102
{ACAD_REACTORS
330
B9
102
}
330
B9
100
AcDbXrecord
280
     1
1000
Portrait
  0
XRECORD
  5
E3
102
{ACAD_REACTORS
330
B9
102
}
330
B9
100
AcDbXrecord
280
     1
 40
297.0
  0
XRECORD
  5
E4
102
{ACAD_REACTORS
330
B9
102
}
330
B9
100
AcDbXrecord
280
     1
 40
210.0
  0
XRECORD
  5
E5
102
{ACAD_REACTORS
330
B9
102
}
330
B9
100
AcDbXrecord
280
     1
1000
1:1
  0
XRECORD
  5
E6
102
{ACAD_REACTORS
330
B9
102
}
330
B9
100
AcDbXrecord
280
     1
290
     1
  0
XRECORD
  5
E7
102
{ACAD_REACTORS
330
B9
102
}
330
B9
100
AcDbXrecord
280
     1
290
     0
  0
XRECORD
  5
E8
102
{ACAD_REACTORS
330
B9
102
}
330
B9
100
AcDbXrecord
280
     1
1000
Inside
  0
XRECORD
  5
E9
102
{ACAD_REACTORS
330
B9
102
}
330
B9
100
AcDbXrecord
280
     1
1000
Arial,10,-1,5,400,0,0,0,0,0,0,0,0,0,0,1,,0,0
  0
XRECORD
  5
EA
102
{ACAD_REACTORS
330
B9
102
}
330
B9
100
AcDbXrecord
280
     1
1000
TopLeft
  0
XRECORD
  5
EB
102
{ACAD_REACTORS
330
B9
102
}
330
B9
100
AcDbXrecord
280
     1
1000
3.32.9
  0
XRECORD
  5
EC
102
{ACAD_REACTORS
330
B9
102
}
330
B9
100
AcDbXrecord
280
     1
 90
        4
  0
XRECORD
  5
ED
102
{ACAD_REACTORS
330
B9
102
}
330
B9
100
AcDbXrecord
280
     1
  0
XRECORD
  5
EE
102
{ACAD_REACTORS
330
B9
102
}
330
B9
100
AcDbXrecord
280
     1
 40
482.4394629119994
  0
XRECORD
  5
EF
102
{ACAD_REACTORS
330
B9
102
}
330
B9
100
AcDbXrecord
280
     1
 40
779.6428111871992
  0
DICTIONARY
  5
12D
330
B4
100
AcDbDictionary
280
     1
281
     1
  3
ACAD_ROUNDTRIP_2008_TABLESTYLE_CELLSTYLEMAP
360
12E
  0
CELLSTYLEMAP
  5
12E
102
{ACAD_REACTORS
330
12D
102
}
330
12D
100
AcDbCellStyleMap
 90
        3
300
CELLSTYLE
  1
TABLEFORMAT_BEGIN
 90
        5
170
     1
 91
        0
 92
    32768
 62
   257
 93
        1
300
CONTENTFORMAT
  1
CONTENTFORMAT_BEGIN
 90
        0
 91
        0
 92
        4
 93
        0
300

 40
0.0
140
1.0
 94
        5
 62
     0
340
6C
144
0.25
309
CONTENTFORMAT_END
171
     1
301
MARGIN
  1
CELLMARGIN_BEGIN
 40
0.06
 40
0.06
 40
0.06
 40
0.06
 40
0.06
 40
0.06
309
CELLMARGIN_END
 94
        6
 95
        1
302
GRIDFORMAT
  1
GRIDFORMAT_BEGIN
 90
        0
 91
        1
 62
     0
 92
       -2
340
6E
 93
        0
 40
0.045
309
GRIDFORMAT_END
 95
        2
302
GRIDFORMAT
  1
GRIDFORMAT_BEGIN
 90
        0
 91
        1
 62
     0
 92
       -2
340
6E
 93
        0
 40
0.045
309
GRIDFORMAT_END
 95
        4
302
GRIDFORMAT
  1
GRIDFORMAT_BEGIN
 90
        0
 91
        1
 62
     0
 92
       -2
340
6E
 93
        0
 40
0.045
309
GRIDFORMAT_END
 95
        8
302
GRIDFORMAT
  1
GRIDFORMAT_BEGIN
 90
        0
 91
        1
 62
     0
 92
       -2
340
6E
 93
        0
 40
0.045
309
GRIDFORMAT_END
 95
       16
302
GRIDFORMAT
  1
GRIDFORMAT_BEGIN
 90
        0
 91
        1
 62
     0
 92
       -2
340
6E
 93
        0
 40
0.045
309
GRIDFORMAT_END
 95
       32
302
GRIDFORMAT
  1
GRIDFORMAT_BEGIN
 90
        0
 91
        1
 62
     0
 92
       -2
340
6E
 93
        0
 40
0.045
309
GRIDFORMAT_END
309
TABLEFORMAT_END
  1
CELLSTYLE_BEGIN
 90
        1
 91
        1
300
_TITLE
309
CELLSTYLE_END
300
CELLSTYLE
  1
TABLEFORMAT_BEGIN
 90
        5
170
     1
 91
        0
 92
        0
 62
   257
 93
        1
300
CONTENTFORMAT
  1
CONTENTFORMAT_BEGIN
 90
        0
 91
        0
 92
        4
 93
        0
300

 40
0.0
140
1.0
 94
        5
 62
     0
340
6C
144
0.18
309
CONTENTFORMAT_END
171
     1
301
MARGIN
  1
CELLMARGIN_BEGIN
 40
0.06
 40
0.06
 40
0.06
 40
0.06
 40
0.06
 40
0.06
309
CELLMARGIN_END
 94
        6
 95
        1
302
GRIDFORMAT
  1
GRIDFORMAT_BEGIN
 90
        0
 91
        1
 62
     0
 92
       -2
340
6E
 93
        0
 40
0.045
309
GRIDFORMAT_END
 95
        2
302
GRIDFORMAT
  1
GRIDFORMAT_BEGIN
 90
        0
 91
        1
 62
     0
 92
       -2
340
6E
 93
        0
 40
0.045
309
GRIDFORMAT_END
 95
        4
302
GRIDFORMAT
  1
GRIDFORMAT_BEGIN
 90
        0
 91
        1
 62
     0
 92
       -2
340
6E
 93
        0
 40
0.045
309
GRIDFORMAT_END
 95
        8
302
GRIDFORMAT
  1
GRIDFORMAT_BEGIN
 90
        0
 91
        1
 62
     0
 92
       -2
340
6E
 93
        0
 40
0.045
309
GRIDFORMAT_END
 95
       16
302
GRIDFORMAT
  1
GRIDFORMAT_BEGIN
 90
        0
 91
        1
 62
     0
 92
       -2
340
6E
 93
        0
 40
0.045
309
GRIDFORMAT_END
 95
       32
302
GRIDFORMAT
  1
GRIDFORMAT_BEGIN
 90
        0
 91
        1
 62
     0
 92
       -2
340
6E
 93
        0
 40
0.045
309
GRIDFORMAT_END
309
TABLEFORMAT_END
  1
CELLSTYLE_BEGIN
 90
        2
 91
        1
300
_HEADER
309
CELLSTYLE_END
300
CELLSTYLE
  1
TABLEFORMAT_BEGIN
 90
        5
170
     1
 91
        0
 92
        0
 62
   257
 93
        1
300
CONTENTFORMAT
  1
CONTENTFORMAT_BEGIN
 90
        0
 91
        0
 92
        4
 93
        0
300

 40
0.0
140
1.0
 94
        2
 62
     0
340
6C
144
0.18
309
CONTENTFORMAT_END
171
     1
301
MARGIN
  1
CELLMARGIN_BEGIN
 40
0.06
 40
0.06
 40
0.06
 40
0.06
 40
0.06
 40
0.06
309
CELLMARGIN_END
 94
        6
 95
        1
302
GRIDFORMAT
  1
GRIDFORMAT_BEGIN
 90
        0
 91
        1
 62
     0
 92
       -2
340
6E
 93
        0
 40
0.045
309
GRIDFORMAT_END
 95
        2
302
GRIDFORMAT
  1
GRIDFORMAT_BEGIN
 90
        0
 91
        1
 62
     0
 92
       -2
340
6E
 93
        0
 40
0.045
309
GRIDFORMAT_END
 95
        4
302
GRIDFORMAT
  1
GRIDFORMAT_BEGIN
 90
        0
 91
        1
 62
     0
 92
       -2
340
6E
 93
        0
 40
0.045
309
GRIDFORMAT_END
 95
        8
302
GRIDFORMAT
  1
GRIDFORMAT_BEGIN
 90
        0
 91
        1
 62
     0
 92
       -2
340
6E
 93
        0
 40
0.045
309
GRIDFORMAT_END
 95
       16
302
GRIDFORMAT
  1
GRIDFORMAT_BEGIN
 90
        0
 91
        1
 62
     0
 92
       -2
340
6E
 93
        0
 40
0.045
309
GRIDFORMAT_END
 95
       32
302
GRIDFORMAT
  1
GRIDFORMAT_BEGIN
 90
        0
 91
        1
 62
     0
 92
       -2
340
6E
 93
        0
 40
0.045
309
GRIDFORMAT_END
309
TABLEFORMAT_END
  1
CELLSTYLE_BEGIN
 90
        3
 91
        2
300
_DATA
309
CELLSTYLE_END
  0
ENDSEC
  0
EOF
