  0
SECTION
  2
HEADER
  9
$ACADVER
  1
AC1027
  9
$ACADMAINTVER
 70
105
  9
$DWGCODEPAGE
  3
ANSI_1252
  9
$LASTSAVEDBY
  1
ezdxf
  9
$REQUIREDVERSIONS
160
0
  9
$INSBASE
 10
0.0
 20
0.0
 30
0.0
  9
$EXTMIN
 10
1e+20
 20
1e+20
 30
1e+20
  9
$EXTMAX
 10
-1e+20
 20
-1e+20
 30
-1e+20
  9
$LIMMIN
 10
0.0
 20
0.0
  9
$LIMMAX
 10
420.0
 20
297.0
  9
$ORTHOMODE
 70
0
  9
$REGENMODE
 70
1
  9
$FILLMODE
 70
1
  9
$QTEXTMODE
 70
0
  9
$MIRRTEXT
 70
1
  9
$LTSCALE
 40
1.0
  9
$ATTMODE
 70
1
  9
$TEXTSIZE
 40
2.5
  9
$TRACEWID
 40
1.0
  9
$TEXTSTYLE
  7
Standard
  9
$CLAYER
  8
0
  9
$CELTYPE
  6
ByLayer
  9
$CECOLOR
 62
256
  9
$CELTSCALE
 40
1.0
  9
$DISPSILH
 70
0
  9
$DIMSCALE
 40
1.0
  9
$DIMASZ
 40
2.5
  9
$DIMEXO
 40
0.625
  9
$DIMDLI
 40
3.75
  9
$DIMRND
 40
0.0
  9
$DIMDLE
 40
0.0
  9
$DIMEXE
 40
1.25
  9
$DIMTP
 40
0.0
  9
$DIMTM
 40
0.0
  9
$DIMTXT
 40
2.5
  9
$DIMCEN
 40
2.5
  9
$DIMTSZ
 40
0.0
  9
$DIMTOL
 70
0
  9
$DIMLIM
 70
0
  9
$DIMTIH
 70
0
  9
$DIMTOH
 70
0
  9
$DIMSE1
 70
0
  9
$DIMSE2
 70
0
  9
$DIMTAD
 70
1
  9
$DIMZIN
 70
8
  9
$DIMBLK
  1

  9
$DIMASO
 70
1
  9
$DIMSHO
 70
1
  9
$DIMPOST
  1

  9
$DIMAPOST
  1

  9
$DIMALT
 70
0
  9
$DIMALTD
 70
3
  9
$DIMALTF
 40
0.03937007874
  9
$DIMLFAC
 40
1.0
  9
$DIMTOFL
 70
1
  9
$DIMTVP
 40
0.0
  9
$DIMTIX
 70
0
  9
$DIMSOXD
 70
0
  9
$DIMSAH
 70
0
  9
$DIMBLK1
  1

  9
$DIMBLK2
  1

  9
$DIMSTYLE
  2
ISO-25
  9
$DIMCLRD
 70
0
  9
$DIMCLRE
 70
0
  9
$DIMCLRT
 70
0
  9
$DIMTFAC
 40
1.0
  9
$DIMGAP
 40
0.625
  9
$DIMJUST
 70
0
  9
$DIMSD1
 70
0
  9
$DIMSD2
 70
0
  9
$DIMTOLJ
 70
0
  9
$DIMTZIN
 70
8
  9
$DIMALTZ
 70
0
  9
$DIMALTTZ
 70
0
  9
$DIMUPT
 70
0
  9
$DIMDEC
 70
2
  9
$DIMTDEC
 70
2
  9
$DIMALTU
 70
2
  9
$DIMALTTD
 70
3
  9
$DIMTXSTY
  7
Standard
  9
$DIMAUNIT
 70
0
  9
$DIMADEC
 70
0
  9
$DIMALTRND
 40
0.0
  9
$DIMAZIN
 70
0
  9
$DIMDSEP
 70
44
  9
$DIMATFIT
 70
3
  9
$DIMFRAC
 70
0
  9
$DIMLDRBLK
  1

  9
$DIMLUNIT
 70
2
  9
$DIMLWD
 70
-2
  9
$DIMLWE
 70
-2
  9
$DIMTMOVE
 70
0
  9
$DIMFXL
 40
1.0
  9
$DIMFXLON
 70
0
  9
$DIMJOGANG
 40
0.785398163397
  9
$DIMTFILL
 70
0
  9
$DIMTFILLCLR
 70
0
  9
$DIMARCSYM
 70
0
  9
$DIMLTYPE
  6

  9
$DIMLTEX1
  6

  9
$DIMLTEX2
  6

  9
$DIMTXTDIRECTION
 70
0
  9
$LUNITS
 70
2
  9
$LUPREC
 70
4
  9
$SKETCHINC
 40
1.0
  9
$FILLETRAD
 40
10.0
  9
$AUNITS
 70
0
  9
$AUPREC
 70
2
  9
$MENU
  1
.
  9
$ELEVATION
 40
0.0
  9
$PELEVATION
 40
0.0
  9
$THICKNESS
 40
0.0
  9
$LIMCHECK
 70
0
  9
$CHAMFERA
 40
0.0
  9
$CHAMFERB
 40
0.0
  9
$CHAMFERC
 40
0.0
  9
$CHAMFERD
 40
0.0
  9
$SKPOLY
 70
0
  9
$TDCREATE
 40
2461286.5214236113
  9
$TDUCREATE
 40
2458532.153996898
  9
$TDUPDATE
 40
2461286.5214351853
  9
$TDUUPDATE
 40
2458532.1544311
  9
$TDINDWG
 40
0.0
  9
$TDUSRTIMER
 40
0.0
  9
$USRTIMER
 70
1
  9
$ANGBASE
 50
0.0
  9
$ANGDIR
 70
0
  9
$PDMODE
 70
0
  9
$PDSIZE
 40
0.0
  9
$PLINEWID
 40
0.0
  9
$SPLFRAME
 70
0
  9
$SPLINETYPE
 70
6
  9
$SPLINESEGS
 70
8
  9
$HANDSEED
  5
380
  9
$SURFTAB1
 70
6
  9
$SURFTAB2
 70
6
  9
$SURFTYPE
 70
6
  9
$SURFU
 70
6
  9
$SURFV
 70
6
  9
$UCSBASE
  2

  9
$UCSNAME
  2

  9
$UCSORG
 10
0.0
 20
0.0
 30
0.0
  9
$UCSXDIR
 10
1.0
 20
0.0
 30
0.0
  9
$UCSYDIR
 10
0.0
 20
1.0
 30
0.0
  9
$UCSORTHOREF
  2

  9
$UCSORTHOVIEW
 70
0
  9
$UCSORGTOP
 10
0.0
 20
0.0
 30
0.0
  9
$UCSORGBOTTOM
 10
0.0
 20
0.0
 30
0.0
  9
$UCSORGLEFT
 10
0.0
 20
0.0
 30
0.0
  9
$UCSORGRIGHT
 10
0.0
 20
0.0
 30
0.0
  9
$UCSORGFRONT
 10
0.0
 20
0.0
 30
0.0
  9
$UCSORGBACK
 10
0.0
 20
0.0
 30
0.0
  9
$PUCSBASE
  2

  9
$PUCSNAME
  2

  9
$PUCSORG
 10
0.0
 20
0.0
 30
0.0
  9
$PUCSXDIR
 10
1.0
 20
0.0
 30
0.0
  9
$PUCSYDIR
 10
0.0
 20
1.0
 30
0.0
  9
$PUCSORTHOREF
  2

  9
$PUCSORTHOVIEW
 70
0
  9
$PUCSORGTOP
 10
0.0
 20
0.0
 30
0.0
  9
$PUCSORGBOTTOM
 10
0.0
 20
0.0
 30
0.0
  9
$PUCSORGLEFT
 10
0.0
 20
0.0
 30
0.0
  9
$PUCSORGRIGHT
 10
0.0
 20
0.0
 30
0.0
  9
$PUCSORGFRONT
 10
0.0
 20
0.0
 30
0.0
  9
$PUCSORGBACK
 10
0.0
 20
0.0
 30
0.0
  9
$USERI1
 70
0
  9
$USERI2
 70
0
  9
$USERI3
 70
0
  9
$USERI4
 70
0
  9
$USERI5
 70
0
  9
$USERR1
 40
0.0
  9
$USERR2
 40
0.0
  9
$USERR3
 40
0.0
  9
$USERR4
 40
0.0
  9
$USERR5
 40
0.0
  9
$WORLDVIEW
 70
1
  9
$SHADEDGE
 70
3
  9
$SHADEDIF
 70
70
  9
$TILEMODE
 70
1
  9
$MAXACTVP
 70
64
  9
$PINSBASE
 10
0.0
 20
0.0
 30
0.0
  9
$PLIMCHECK
 70
0
  9
$PEXTMIN
 10
1e+20
 20
1e+20
 30
1e+20
  9
$PEXTMAX
 10
-1e+20
 20
-1e+20
 30
-1e+20
  9
$PLIMMIN
 10
0.0
 20
0.0
  9
$PLIMMAX
 10
420.0
 20
297.0
  9
$UNITMODE
 70
0
  9
$VISRETAIN
 70
1
  9
$PLINEGEN
 70
0
  9
$PSLTSCALE
 70
1
  9
$TREEDEPTH
 70
3020
  9
$CMLSTYLE
  2
Standard
  9
$CMLJUST
 70
0
  9
$CMLSCALE
 40
20.0
  9
$PROXYGRAPHICS
 70
1
  9
$MEASUREMENT
 70
1
  9
$CELWEIGHT
370
-1
  9
$ENDCAPS
280
0
  9
$JOINSTYLE
280
0
  9
$LWDISPLAY
290
0
  9
$INSUNITS
 70
4
  9
$HYPERLINKBASE
  1

  9
$STYLESHEET
  1

  9
$XEDIT
290
1
  9
$CEPSNTYPE
380
0
  9
$PSTYLEMODE
290
1
  9
$FINGERPRINTGUID
  2
{5EFA49A9-63D6-4E60-B857-002DFE97BA90}
  9
$VERSIONGUID
  2
{E12E5D85-ECD9-4A1E-8D45-91F4846F8711}
  9
$EXTNAMES
290
1
  9
$PSVPSCALE
 40
0.0
  9
$OLESTARTUP
290
0
  9
$SORTENTS
280
127
  9
$INDEXCTL
280
0
  9
$HIDETEXT
280
1
  9
$XCLIPFRAME
280
1
  9
$HALOGAP
280
0
  9
$OBSCOLOR
 70
257
  9
$OBSLTYPE
280
0
  9
$INTERSECTIONDISPLAY
280
0
  9
$INTERSECTIONCOLOR
 70
257
  9
$DIMASSOC
280
2
  9
$PROJECTNAME
  1

  9
$CAMERADISPLAY
290
0
  9
$LENSLENGTH
 40
50.0
  9
$CAMERAHEIGHT
 40
0.0
  9
$STEPSPERSEC
 40
24.0
  9
$STEPSIZE
 40
100.0
  9
$3DDWFPREC
 40
2.0
  9
$PSOLWIDTH
 40
0.005
  9
$PSOLHEIGHT
 40
0.08
  9
$LOFTANG1
 40
1.570796326795
  9
$LOFTANG2
 40
1.570796326795
  9
$LOFTMAG1
 40
0.0
  9
$LOFTMAG2
 40
0.0
  9
$LOFTPARAM
 70
7
  9
$LOFTNORMALS
280
1
  9
$LATITUDE
 40
37.795
  9
$LONGITUDE
 40
-122.394
  9
$NORTHDIRECTION
 40
0.0
  9
$TIMEZONE
 70
-8000
  9
$LIGHTGLYPHDISPLAY
280
1
  9
$TILEMODELIGHTSYNCH
280
1
  9
$CMATERIAL
347
20
  9
$SOLIDHIST
280
0
  9
$SHOWHIST
280
1
  9
$DWFFRAME
280
2
  9
$DGNFRAME
280
2
  9
$REALWORLDSCALE
290
1
  9
$INTERFERECOLOR
 62
256
  9
$CSHADOW
280
0
  9
$SHADOWPLANELOCATION
 40
0.0
  0
ENDSEC
  0
SECTION
  2
CLASSES
  0
CLASS
  1
ACDBDICTIONARYWDFLT
  2
AcDbDictionaryWithDefault
  3
ObjectDBX Classes
 90
0
 91
0
280
0
281
0
  0
CLASS
  1
SUN
  2
AcDbSun
  3
SCENEOE
 90
1153
 91
0
280
0
281
0
  0
CLASS
  1
VISUALSTYLE
  2
AcDbVisualStyle
  3
ObjectDBX Classes
 90
4095
 91
0
280
0
281
0
  0
CLASS
  1
MATERIAL
  2
AcDbMaterial
  3
ObjectDBX Classes
 90
1153
 91
0
280
0
281
0
  0
CLASS
  1
SCALE
  2
AcDbScale
  3
ObjectDBX Classes
 90
1153
 91
0
280
0
281
0
  0
CLASS
  1
TABLESTYLE
  2
AcDbTableStyle
  3
ObjectDBX Classes
 90
4095
 91
0
280
0
281
0
  0
CLASS
  1
MLEADERSTYLE
  2
AcDbMLeaderStyle
  3
ACDB_MLEADERSTYLE_CLASS
 90
4095
 91
0
280
0
281
0
  0
CLASS
  1
DICTIONARYVAR
  2
AcDbDictionaryVar
  3
ObjectDBX Classes
 90
0
 91
0
280
0
281
0
  0
CLASS
  1
CELLSTYLEMAP
  2
AcDbCellStyleMap
  3
ObjectDBX Classes
 90
1152
 91
0
280
0
281
0
  0
CLASS
  1
MENTALRAYRENDERSETTINGS
  2
AcDbMentalRayRenderSettings
  3
SCENEOE
 90
1024
 91
0
280
0
281
0
  0
CLASS
  1
ACDBDETAILVIEWSTYLE
  2
AcDbDetailViewStyle
  3
ObjectDBX Classes
 90
1025
 91
0
280
0
281
0
  0
CLASS
  1
ACDBSECTIONVIEWSTYLE
  2
AcDbSectionViewStyle
  3
ObjectDBX Classes
 90
1025
 91
0
280
0
281
0
  0
CLASS
  1
RASTERVARIABLES
  2
AcDbRasterVariables
  3
ISM
 90
0
 91
0
280
0
281
0
  0
CLASS
  1
ACDBPLACEHOLDER
  2
AcDbPlaceHolder
  3
ObjectDBX Classes
 90
0
 91
0
280
0
281
0
  0
CLASS
  1
LAYOUT
  2
AcDbLayout
  3
ObjectDBX Classes
 90
0
 91
0
280
0
281
0
  0
ENDSEC
  0
SECTION
  2
TABLES
  0
TABLE
  2
VPORT
  5
8
330
0
100
AcDbSymbolTable
 70
1
  0
VPORT
  5
37C
330
8
100
AcDbSymbolTableRecord
100
AcDbViewportTableRecord
  2
*Active
 70
0
 10
0.0
 20
0.0
 11
1.0
 21
1.0
 12
0.6914952529502756
 22
0.06810837636248124
 13
0.0
 23
0.0
 14
0.5
 24
0.5
 15
0.5
 25
0.5
 16
0.0
 26
0.0
 36
1.0
 17
0.0
 27
0.0
 37
0.0
 40
54.627042127950276
 41
1.34
 42
50.0
 43
0.0
 44
0.0
 50
0.0
 51
0.0
 71
0
 72
1000
 73
1
 74
3
 75
0
 76
0
 77
0
 78
0
281
0
 65
1
110
0.0
120
0.0
130
0.0
111
1.0
121
0.0
131
0.0
112
0.0
122
1.0
132
0.0
 79
0
146
0.0
  0
ENDTAB
  0
TABLE
  2
LTYPE
  5
2
330
0
100
AcDbSymbolTable
 70
3
  0
LTYPE
  5
24
330
2
100
AcDbSymbolTableRecord
100
AcDbLinetypeTableRecord
  2
ByBlock
 70
0
  3

 72
65
 73
0
 40
0.0
  0
LTYPE
  5
25
330
2
100
AcDbSymbolTableRecord
100
AcDbLinetypeTableRecord
  2
ByLayer
 70
0
  3

 72
65
 73
0
 40
0.0
  0
LTYPE
  5
26
330
2
100
AcDbSymbolTableRecord
100
AcDbLinetypeTableRecord
  2
Continuous
 70
0
  3

 72
65
 73
0
 40
0.0
  0
ENDTAB
  0
TABLE
  2
LAYER
  5
1
330
0
100
AcDbSymbolTable
 70
2
  0
LAYER
  5
27
330
1
100
AcDbSymbolTableRecord
100
AcDbLayerTableRecord
  2
0
 70
0
 62
7
  6
Continuous
370
-3
390
13
347
21
  0
LAYER
  5
28
330
1
100
AcDbSymbolTableRecord
100
AcDbLayerTableRecord
  2
Defpoints
 70
0
 62
7
  6
Continuous
290
0
370
-3
390
13
347
21
  0
ENDTAB
  0
TABLE
  2
STYLE
  5
5
330
0
100
AcDbSymbolTable
 70
1
  0
STYLE
  5
29
330
5
100
AcDbSymbolTableRecord
100
AcDbTextStyleTableRecord
  2
Standard
 70
0
 40
0.0
 41
1.0
 50
0.0
 71
0
 42
2.5
  3
txt
  4

  0
ENDTAB
  0
TABLE
  2
VIEW
  5
7
330
0
100
AcDbSymbolTable
 70
0
  0
ENDTAB
  0
TABLE
  2
UCS
  5
6
330
0
100
AcDbSymbolTable
 70
0
  0
ENDTAB
  0
TABLE
  2
APPID
  5
3
330
0
100
AcDbSymbolTable
 70
3
  0
APPID
  5
2A
330
3
100
AcDbSymbolTableRecord
100
AcDbRegAppTableRecord
  2
ACAD
 70
0
  0
APPID
  5
37D
330
3
100
AcDbSymbolTableRecord
100
AcDbRegAppTableRecord
  2
HATCHBACKGROUNDCOLOR
 70
0
  0
APPID
  5
37E
330
3
100
AcDbSymbolTableRecord
100
AcDbRegAppTableRecord
  2
EZDXF
 70
0
  0
ENDTAB
  0
TABLE
  2
DIMSTYLE
  5
4
330
0
100
AcDbSymbolTable
 70
1
100
AcDbDimStyleTable
  0
DIMSTYLE
105
2B
330
4
100
AcDbSymbolTableRecord
100
AcDbDimStyleTableRecord
  2
Standard
 70
0
 40
1.0
 41
2.5
 42
0.625
 43
3.75
 44
1.25
 45
0.0
 46
0.0
 47
0.0
 48
0.0
 49
2.5
140
2.5
141
2.5
142
0.0
143
0.03937007874
144
1.0
145
0.0
146
1.0
147
0.625
148
0.0
 69
0
 70
0
 71
0
 72
0
 73
0
 74
0
 75
0
 76
0
 77
1
 78
8
 79
3
170
0
171
3
172
1
173
0
174
0
175
0
176
0
177
0
178
0
179
2
271
2
272
2
273
2
274
3
275
0
276
0
277
2
278
44
279
0
280
0
281
0
282
0
283
0
284
8
285
0
286
0
288
0
289
3
290
0
371
-2
372
-2
  0
ENDTAB
  0
TABLE
  2
BLOCK_RECORD
  5
9
330
0
100
AcDbSymbolTable
 70
2
  0
BLOCK_RECORD
  5
17
330
9
100
AcDbSymbolTableRecord
100
AcDbBlockTableRecord
  2
*Model_Space
340
1A
 70
0
280
1
281
0
  0
BLOCK_RECORD
  5
1B
330
9
100
AcDbSymbolTableRecord
100
AcDbBlockTableRecord
  2
*Paper_Space
340
1E
 70
0
280
1
281
0
  0
ENDTAB
  0
ENDSEC
  0
SECTION
  2
BLOCKS
  0
BLOCK
  5
18
330
17
100
AcDbEntity
  8
0
100
AcDbBlockBegin
  2
*Model_Space
 70
0
 10
0.0
 20
0.0
 30
0.0
  3
*Model_Space
  1

  0
ENDBLK
  5
19
330
17
100
AcDbEntity
  8
0
100
AcDbBlockEnd
  0
BLOCK
  5
1C
330
1B
100
AcDbEntity
  8
0
100
AcDbBlockBegin
  2
*Paper_Space
 70
0
 10
0.0
 20
0.0
 30
0.0
  3
*Paper_Space
  1

  0
ENDBLK
  5
1D
330
1B
100
AcDbEntity
  8
0
100
AcDbBlockEnd
  0
ENDSEC
  0
SECTION
  2
ENTITIES
  0
LINE
  5
2F
330
17
100
AcDbEntity
  8
0
100
AcDbLine
 10
34.0788845486111
 20
-9.350000000000001
 30
0.0
 11
35.5788845486111
 21
-9.350000000000001
 31
0.0
  0
LINE
  5
30
330
17
100
AcDbEntity
  8
0
100
AcDbLine
 10
35.5788845486111
 20
-9.350000000000001
 30
0.0
 11
35.5788845486111
 21
-8.75
 31
0.0
  0
LINE
  5
31
330
17
100
AcDbEntity
  8
0
100
AcDbLine
 10
35.5788845486111
 20
-8.75
 30
0.0
 11
34.0788845486111
 21
-8.75
 31
0.0
  0
LINE
  5
32
330
17
100
AcDbEntity
  8
0
100
AcDbLine
 10
34.0788845486111
 20
-8.75
 30
0.0
 11
34.0788845486111
 21
-9.350000000000001
 31
0.0
  0
LINE
  5
33
330
17
100
AcDbEntity
  8
0
100
AcDbLine
 10
31.266384548611104
 20
-9.350000000000001
 30
0.0
 11
32.7663845486111
 21
-9.350000000000001
 31
0.0
  0
LINE
  5
34
330
17
100
AcDbEntity
  8
0
100
AcDbLine
 10
32.7663845486111
 20
-9.350000000000001
 30
0.0
 11
32.7663845486111
 21
-8.75
 31
0.0
  0
LINE
  5
35
330
17
100
AcDbEntity
  8
0
100
AcDbLine
 10
32.7663845486111
 20
-8.75
 30
0.0
 11
31.266384548611104
 21
-8.75
 31
0.0
  0
LINE
  5
36
330
17
100
AcDbEntity
  8
0
100
AcDbLine
 10
31.266384548611104
 20
-8.75
 30
0.0
 11
31.266384548611104
 21
-9.350000000000001
 31
0.0
  0
ARC
  5
37
330
17
100
AcDbEntity
  8
0
100
AcDbCircle
 10
6.17516500322669
 20
-4.64812099943844
 30
0.0
 40
1.49481149347161
100
AcDbArc
 50
269.4892701410099
 51
283.96774142788684
  0
ARC
  5
38
330
17
100
AcDbEntity
  8
0
100
AcDbCircle
 10
6.33477675030395
 20
-5.26982023360757
 30
0.0
 40
0.852390153133331
100
AcDbArc
 50
283.6432369098414
 51
306.0268241901285
  0
ARC
  5
39
330
17
100
AcDbEntity
  8
0
100
AcDbCircle
 10
6.42532327332902
 20
-5.40690908186747
 30
0.0
 40
0.6879882167100311
100
AcDbArc
 50
306.6431316172213
 51
332.7865074095973
  0
ARC
  5
3A
330
17
100
AcDbEntity
  8
0
100
AcDbCircle
 10
6.398665645201779
 20
-5.4074895763990005
 30
0.0
 40
0.712200565385509
100
AcDbArc
 50
333.8092959654043
 51
361.464695411996
  0
SPLINE
  5
3B
330
17
100
AcDbEntity
  8
0
100
AcDbSpline
 70
0
 71
2
 72
6
 73
3
 74
0
 40
0.0
 40
0.0
 40
0.0
 40
1.0
 40
1.0
 40
1.0
 10
7.11127387152778
 20
-5.38926866319445
 30
0.0
 10
7.11127387152778
 20
-5.12152777777778
 30
0.0
 10
7.019178602430561
 20
-4.93448893229167
 30
0.0
  0
ARC
  5
3C
330
17
100
AcDbEntity
  8
0
100
AcDbCircle
 10
6.22136236526324
 20
-5.31663607314798
 30
0.0
 40
0.884332879828019
100
AcDbArc
 50
25.59402151151222
 51
51.37366032074512
  0
ARC
  5
3D
330
17
100
AcDbEntity
  8
0
100
AcDbCircle
 10
6.16576379910179
 20
-5.41020199021463
 30
0.0
 40
0.992361390382989
100
AcDbArc
 50
52.23826456161735
 51
75.66583725633207
  0
ARC
  5
3E
330
17
100
AcDbEntity
  8
0
100
AcDbCircle
 10
5.98469566845503
 20
-6.053285664566951
 30
0.0
 40
1.66081072563725
100
AcDbArc
 50
75.10622725483653
 51
90.24315628615425
  0
ARC
  5
3F
330
17
100
AcDbEntity
  8
0
100
AcDbCircle
 10
5.9680462409727895
 20
-5.98131440544946
 30
0.0
 40
1.5888190675899498
100
AcDbArc
 50
89.65378675553576
 51
103.12248987306258
  0
ARC
  5
40
330
17
100
AcDbEntity
  8
0
100
AcDbCircle
 10
5.80263256784645
 20
-5.29471113921049
 30
0.0
 40
0.882173862999185
100
AcDbArc
 50
102.78404648826348
 51
124.8393932059694
  0
ARC
  5
41
330
17
100
AcDbEntity
  8
0
100
AcDbCircle
 10
5.70735470452267
 20
-5.14910163808438
 30
0.0
 40
0.7080074349653319
100
AcDbArc
 50
125.24262428392863
 51
151.48471492635252
  0
ARC
  5
42
330
17
100
AcDbEntity
  8
0
100
AcDbCircle
 10
5.7180846778157095
 20
-5.1359699737568105
 30
0.0
 40
0.7121828613367509
100
AcDbArc
 50
152.82600977523848
 51
181.7758320819848
  0
ARC
  5
43
330
17
100
AcDbEntity
  8
0
100
AcDbCircle
 10
5.935536397375079
 20
-5.18113054589399
 30
0.0
 40
0.929579362590669
100
AcDbArc
 50
178.5766340856521
 51
206.3501870906978
  0
ARC
  5
44
330
17
100
AcDbEntity
  8
0
100
AcDbCircle
 10
5.90034911470078
 20
-5.18450205888828
 30
0.0
 40
0.895693185336915
100
AcDbArc
 50
207.15558685478643
 51
233.23553360394013
  0
ARC
  5
45
330
17
100
AcDbEntity
  8
0
100
AcDbCircle
 10
6.04516358113668
 20
-4.9781209485642295
 30
0.0
 40
1.1477870382406399
100
AcDbArc
 50
233.6106191617571
 51
254.30392902413303
  0
ARC
  5
46
330
17
100
AcDbEntity
  8
0
100
AcDbCircle
 10
6.15792696806808
 20
-4.61229345829224
 30
0.0
 40
1.5307618707028101
100
AcDbArc
 50
253.94496447358725
 51
270.1464478393183
  0
SPLINE
  5
47
330
17
100
AcDbEntity
  8
0
100
AcDbSpline
 70
0
 71
2
 72
6
 73
3
 74
0
 40
0.0
 40
0.0
 40
0.0
 40
1.0
 40
1.0
 40
1.0
 10
-39.9283854166666
 20
4.35546875
 30
0.0
 10
-39.9283854166666
 20
1.416015625
 30
0.0
 10
-38.681640625
 20
-0.0195312500000013
 30
0.0
  0
SPLINE
  5
48
330
17
100
AcDbEntity
  8
0
100
AcDbSpline
 70
0
 71
2
 72
6
 73
3
 74
0
 40
0.0
 40
0.0
 40
0.0
 40
1.0
 40
1.0
 40
1.0
 10
-38.681640625
 20
-0.0195312500000013
 30
0.0
 10
-37.4348958333333
 20
-1.455078125
 30
0.0
 10
-35.0358072916667
 20
-1.455078125
 30
0.0
  0
SPLINE
  5
49
330
17
100
AcDbEntity
  8
0
100
AcDbSpline
 70
0
 71
2
 72
6
 73
3
 74
0
 40
0.0
 40
0.0
 40
0.0
 40
1.0
 40
1.0
 40
1.0
 10
-35.0358072916667
 20
-1.455078125
 30
0.0
 10
-33.90625
 20
-1.455078125
 30
0.0
 10
-33.0110677083333
 20
-1.0986328125
 30
0.0
  0
ARC
  5
4A
330
17
100
AcDbEntity
  8
0
100
AcDbCircle
 10
-34.4316609244851
 20
2.51845109032209
 30
0.0
 40
3.88563299043194
100
AcDbArc
 50
291.4421918174445
 51
319.22044753368095
  0
SPLINE
  5
4B
330
17
100
AcDbEntity
  8
0
100
AcDbSpline
 70
0
 71
2
 72
6
 73
3
 74
0
 40
0.0
 40
0.0
 40
0.0
 40
1.0
 40
1.0
 40
1.0
 10
-31.489257812499996
 20
-0.0195312500000013
 30
0.0
 10
-30.8626302083333
 20
0.703125
 30
0.0
 10
-30.5322265625
 20
1.796875
 30
0.0
  0
SPLINE
  5
4C
330
17
100
AcDbEntity
  8
0
100
AcDbSpline
 70
0
 71
2
 72
6
 73
3
 74
0
 40
0.0
 40
0.0
 40
0.0
 40
1.0
 40
1.0
 40
1.0
 10
-30.5322265625
 20
1.796875
 30
0.0
 10
-30.2018229166667
 20
2.890625
 30
0.0
 10
-30.2018229166667
 20
4.35546875
 30
0.0
  0
SPLINE
  5
4D
330
17
100
AcDbEntity
  8
0
100
AcDbSpline
 70
0
 71
2
 72
6
 73
3
 74
0
 40
0.0
 40
0.0
 40
0.0
 40
1.0
 40
1.0
 40
1.0
 10
-30.2018229166667
 20
4.35546875
 30
0.0
 10
-30.2018229166667
 20
7.275390625
 30
0.0
 10
-31.4388020833333
 20
8.69954427083333
 30
0.0
  0
SPLINE
  5
4E
330
17
100
AcDbEntity
  8
0
100
AcDbSpline
 70
0
 71
2
 72
6
 73
3
 74
0
 40
0.0
 40
0.0
 40
0.0
 40
1.0
 40
1.0
 40
1.0
 10
-31.4388020833333
 20
8.69954427083333
 30
0.0
 10
-32.67578125
 20
10.1236979166667
 30
0.0
 10
-35.0944010416666
 20
10.1236979166667
 30
0.0
  0
SPLINE
  5
4F
330
17
100
AcDbEntity
  8
0
100
AcDbSpline
 70
0
 71
2
 72
6
 73
3
 74
0
 40
0.0
 40
0.0
 40
0.0
 40
1.0
 40
1.0
 40
1.0
 10
-35.0944010416666
 20
10.1236979166667
 30
0.0
 10
-36.2239583333333
 20
10.1236979166667
 30
0.0
 10
-37.119140625
 20
9.77213541666666
 30
0.0
  0
ARC
  5
50
330
17
100
AcDbEntity
  8
0
100
AcDbCircle
 10
-35.7229057464084
 20
6.1621574087258
 30
0.0
 40
3.87010196529592
100
AcDbArc
 50
111.14502600407475
 51
138.93684902479316
  0
SPLINE
  5
51
330
17
100
AcDbEntity
  8
0
100
AcDbSpline
 70
0
 71
2
 72
6
 73
3
 74
0
 40
0.0
 40
0.0
 40
0.0
 40
1.0
 40
1.0
 40
1.0
 10
-38.6409505208333
 20
8.70442708333333
 30
0.0
 10
-39.267578125
 20
7.98828125
 30
0.0
 10
-39.5979817708334
 20
6.904296875
 30
0.0
  0
SPLINE
  5
52
330
17
100
AcDbEntity
  8
0
100
AcDbSpline
 70
0
 71
2
 72
6
 73
3
 74
0
 40
0.0
 40
0.0
 40
0.0
 40
1.0
 40
1.0
 40
1.0
 10
-39.5979817708334
 20
6.904296875
 30
0.0
 10
-39.9283854166666
 20
5.8203125
 30
0.0
 10
-39.9283854166666
 20
4.35546875
 30
0.0
  0
SPLINE
  5
53
330
17
100
AcDbEntity
  8
0
100
AcDbSpline
 70
0
 71
2
 72
6
 73
3
 74
0
 40
0.0
 40
0.0
 40
0.0
 40
1.0
 40
1.0
 40
1.0
 10
-32.216796875
 20
4.35546875
 30
0.0
 10
-32.216796875
 20
3.19661458333333
 30
0.0
 10
-32.3697916666667
 20
2.3111979166666603
 30
0.0
  0
SPLINE
  5
54
330
17
100
AcDbEntity
  8
0
100
AcDbSpline
 70
0
 71
2
 72
6
 73
3
 74
0
 40
0.0
 40
0.0
 40
0.0
 40
1.0
 40
1.0
 40
1.0
 10
-32.3697916666667
 20
2.3111979166666603
 30
0.0
 10
-32.5227864583333
 20
1.42578125
 30
0.0
 10
-32.8629557291666
 20
0.830078124999999
 30
0.0
  0
SPLINE
  5
55
330
17
100
AcDbEntity
  8
0
100
AcDbSpline
 70
0
 71
2
 72
6
 73
3
 74
0
 40
0.0
 40
0.0
 40
0.0
 40
1.0
 40
1.0
 40
1.0
 10
-32.8629557291666
 20
0.830078124999999
 30
0.0
 10
-33.203125
 20
0.234375
 30
0.0
 10
-33.7467447916667
 20
-0.0699869791666681
 30
0.0
  0
SPLINE
  5
56
330
17
100
AcDbEntity
  8
0
100
AcDbSpline
 70
0
 71
2
 72
6
 73
3
 74
0
 40
0.0
 40
0.0
 40
0.0
 40
1.0
 40
1.0
 40
1.0
 10
-33.7467447916667
 20
-0.0699869791666681
 30
0.0
 10
-34.2903645833334
 20
-0.37434895833333404
 30
0.0
 10
-35.0748697916667
 20
-0.37434895833333404
 30
0.0
  0
SPLINE
  5
57
330
17
100
AcDbEntity
  8
0
100
AcDbSpline
 70
0
 71
2
 72
6
 73
3
 74
0
 40
0.0
 40
0.0
 40
0.0
 40
1.0
 40
1.0
 40
1.0
 10
-35.0748697916667
 20
-0.37434895833333404
 30
0.0
 10
-35.859375
 20
-0.37434895833333404
 30
0.0
 10
-36.3981119791667
 20
-0.0699869791666681
 30
0.0
  0
SPLINE
  5
58
330
17
100
AcDbEntity
  8
0
100
AcDbSpline
 70
0
 71
2
 72
6
 73
3
 74
0
 40
0.0
 40
0.0
 40
0.0
 40
1.0
 40
1.0
 40
1.0
 10
-36.3981119791667
 20
-0.0699869791666681
 30
0.0
 10
-36.9368489583334
 20
0.234375
 30
0.0
 10
-37.2721354166667
 20
0.830078124999999
 30
0.0
  0
SPLINE
  5
59
330
17
100
AcDbEntity
  8
0
100
AcDbSpline
 70
0
 71
2
 72
6
 73
3
 74
0
 40
0.0
 40
0.0
 40
0.0
 40
1.0
 40
1.0
 40
1.0
 10
-37.2721354166667
 20
0.830078124999999
 30
0.0
 10
-37.607421875
 20
1.42578125
 30
0.0
 10
-37.7555338541666
 20
2.3111979166666603
 30
0.0
  0
SPLINE
  5
5A
330
17
100
AcDbEntity
  8
0
100
AcDbSpline
 70
0
 71
2
 72
6
 73
3
 74
0
 40
0.0
 40
0.0
 40
0.0
 40
1.0
 40
1.0
 40
1.0
 10
-37.7555338541666
 20
2.3111979166666603
 30
0.0
 10
-37.9036458333334
 20
3.19661458333333
 30
0.0
 10
-37.9036458333334
 20
4.35546875
 30
0.0
  0
SPLINE
  5
5B
330
17
100
AcDbEntity
  8
0
100
AcDbSpline
 70
0
 71
2
 72
6
 73
3
 74
0
 40
0.0
 40
0.0
 40
0.0
 40
1.0
 40
1.0
 40
1.0
 10
-37.9036458333334
 20
4.35546875
 30
0.0
 10
-37.9036458333334
 20
5.51432291666667
 30
0.0
 10
-37.7506510416667
 20
6.38997395833333
 30
0.0
  0
SPLINE
  5
5C
330
17
100
AcDbEntity
  8
0
100
AcDbSpline
 70
0
 71
2
 72
6
 73
3
 74
0
 40
0.0
 40
0.0
 40
0.0
 40
1.0
 40
1.0
 40
1.0
 10
-37.7506510416667
 20
6.38997395833333
 30
0.0
 10
-37.59765625
 20
7.265625
 30
0.0
 10
-37.2623697916667
 20
7.84993489583333
 30
0.0
  0
SPLINE
  5
5D
330
17
100
AcDbEntity
  8
0
100
AcDbSpline
 70
0
 71
2
 72
6
 73
3
 74
0
 40
0.0
 40
0.0
 40
0.0
 40
1.0
 40
1.0
 40
1.0
 10
-37.2623697916667
 20
7.84993489583333
 30
0.0
 10
-36.9270833333334
 20
8.43424479166667
 30
0.0
 10
-36.3818359375
 20
8.72884114583333
 30
0.0
  0
SPLINE
  5
5E
330
17
100
AcDbEntity
  8
0
100
AcDbSpline
 70
0
 71
2
 72
6
 73
3
 74
0
 40
0.0
 40
0.0
 40
0.0
 40
1.0
 40
1.0
 40
1.0
 10
-36.3818359375
 20
8.72884114583333
 30
0.0
 10
-35.8365885416667
 20
9.0234375
 30
0.0
 10
-35.0553385416666
 20
9.0234375
 30
0.0
  0
SPLINE
  5
5F
330
17
100
AcDbEntity
  8
0
100
AcDbSpline
 70
0
 71
2
 72
6
 73
3
 74
0
 40
0.0
 40
0.0
 40
0.0
 40
1.0
 40
1.0
 40
1.0
 10
-35.0553385416666
 20
9.0234375
 30
0.0
 10
-34.2708333333333
 20
9.0234375
 30
0.0
 10
-33.7320963541667
 20
8.72884114583333
 30
0.0
  0
SPLINE
  5
60
330
17
100
AcDbEntity
  8
0
100
AcDbSpline
 70
0
 71
2
 72
6
 73
3
 74
0
 40
0.0
 40
0.0
 40
0.0
 40
1.0
 40
1.0
 40
1.0
 10
-33.7320963541667
 20
8.72884114583333
 30
0.0
 10
-33.193359375
 20
8.43424479166667
 30
0.0
 10
-32.8580729166666
 20
7.84993489583333
 30
0.0
  0
SPLINE
  5
61
330
17
100
AcDbEntity
  8
0
100
AcDbSpline
 70
0
 71
2
 72
6
 73
3
 74
0
 40
0.0
 40
0.0
 40
0.0
 40
1.0
 40
1.0
 40
1.0
 10
-32.8580729166666
 20
7.84993489583333
 30
0.0
 10
-32.5227864583333
 20
7.265625
 30
0.0
 10
-32.3697916666667
 20
6.38997395833333
 30
0.0
  0
SPLINE
  5
62
330
17
100
AcDbEntity
  8
0
100
AcDbSpline
 70
0
 71
2
 72
6
 73
3
 74
0
 40
0.0
 40
0.0
 40
0.0
 40
1.0
 40
1.0
 40
1.0
 10
-32.3697916666667
 20
6.38997395833333
 30
0.0
 10
-32.216796875
 20
5.51432291666667
 30
0.0
 10
-32.216796875
 20
4.35546875
 30
0.0
  0
ARC
  5
63
330
17
100
AcDbEntity
  8
0
100
AcDbCircle
 10
10.7698913610352
 20
-11.525998542227
 30
0.0
 40
1.35198530095888
100
AcDbArc
 50
248.509372622488
 51
270.906354468766
  0
ARC
  5
64
330
17
100
AcDbEntity
  8
0
100
AcDbCircle
 10
11.2532294866421
 20
-10.3792137517896
 30
0.0
 40
2.595643181257
100
AcDbArc
 50
237.0597228911697
 51
247.8557937963358
  0
LINE
  5
65
330
17
100
AcDbEntity
  8
0
100
AcDbLine
 10
9.841810761700208
 20
-12.557575683904986
 30
0.0
 11
9.562701051492418
 21
-13.020859828739685
 31
0.0
  0
ARC
  5
66
330
17
100
AcDbEntity
  8
0
100
AcDbCircle
 10
13.1099203829123
 20
-8.83641626526937
 30
0.0
 40
5.48564790349028
100
AcDbArc
 50
229.71152555955445
 51
235.30100960453828
  0
ARC
  5
67
330
17
100
AcDbEntity
  8
0
100
AcDbCircle
 10
11.654208193131701
 20
-10.9293460279315
 30
0.0
 40
2.93639728096562
100
AcDbArc
 50
235.4061436666552
 51
246.24553155487612
  0
ARC
  5
68
330
17
100
AcDbEntity
  8
0
100
AcDbCircle
 10
11.7009867604805
 20
-10.8155208259432
 30
0.0
 40
3.05971167514736
100
AcDbArc
 50
246.302373977505
 51
257.361678622291
  0
ARC
  5
69
330
17
100
AcDbEntity
  8
0
100
AcDbCircle
 10
11.6564779531536
 20
-10.9468283335009
 30
0.0
 40
2.92248790281891
100
AcDbArc
 50
257.649921619647
 51
270.4840964375559
  0
ARC
  5
6A
330
17
100
AcDbEntity
  8
0
100
AcDbCircle
 10
11.7013023707503
 20
-11.7216968989389
 30
0.0
 40
2.14760939016364
100
AcDbArc
 50
269.46288291626314
 51
286.24117120808
  0
ARC
  5
6B
330
17
100
AcDbEntity
  8
0
100
AcDbCircle
 10
11.9074968150204
 20
-12.4138627250258
 30
0.0
 40
1.4245691132841698
100
AcDbArc
 50
286.0650540048726
 51
308.9672880308443
  0
ARC
  5
6C
330
17
100
AcDbEntity
  8
0
100
AcDbCircle
 10
12.0273136830733
 20
-12.587142368233
 30
0.0
 40
1.21449158753989
100
AcDbArc
 50
309.71337778046194
 51
336.13067044775016
  0
SPLINE
  5
6D
330
17
100
AcDbEntity
  8
0
100
AcDbSpline
 70
0
 71
2
 72
6
 73
3
 74
0
 40
0.0
 40
0.0
 40
0.0
 40
1.0
 40
1.0
 40
1.0
 10
13.1382921006944
 20
-13.0787489149305
 30
0.0
 10
13.2598198784722
 20
-12.8119574652778
 30
0.0
 10
13.2598198784722
 20
-12.451171875
 30
0.0
  0
ARC
  5
6E
330
17
100
AcDbEntity
  8
0
100
AcDbCircle
 10
9.95336013146934
 20
-12.465445047216399
 30
0.0
 40
3.30656088581357
100
AcDbArc
 50
0.24733022967552878
 51
4.380889684087783
  0
ARC
  5
6F
330
17
100
AcDbEntity
  8
0
100
AcDbCircle
 10
8.05325377866809
 20
-12.596628536119999
 30
0.0
 40
5.21123776774993
100
AcDbArc
 50
4.223200583889054
 51
7.171334084056277
  0
ARC
  5
70
330
17
100
AcDbEntity
  8
0
100
AcDbCircle
 10
7.91243714724155
 20
-12.609052280471
 30
0.0
 40
5.35252228369923
100
AcDbArc
 50
7.115108458702498
 51
10.044717579216055
  0
ARC
  5
71
330
17
100
AcDbEntity
  8
0
100
AcDbCircle
 10
7.16823573712433
 20
-12.7302846486202
 30
0.0
 40
6.10643462046153
100
AcDbArc
 50
9.946882149136222
 51
12.298633152451336
  0
LINE
  5
72
330
17
100
AcDbEntity
  8
0
100
AcDbLine
 10
13.134494352593125
 20
-11.429578969771244
 30
0.0
 11
12.405327690972262
 21
-8.064778645833314
 31
0.0
  0
LINE
  5
73
330
17
100
AcDbEntity
  8
0
100
AcDbLine
 10
12.4053276909722
 20
-8.064778645833329
 30
0.0
 11
13.343370225694398
 21
-8.064778645833329
 31
0.0
  0
LINE
  5
74
330
17
100
AcDbEntity
  8
0
100
AcDbLine
 10
13.343370225694432
 20
-8.064778645833321
 30
0.0
 11
13.212499991122238
 21
-7.442670864098848
 31
0.0
  0
ARC
  5
75
330
17
100
AcDbEntity
  8
0
100
AcDbCircle
 10
13.2492404746469
 20
-5.3701352087826
 30
0.0
 40
2.072861274812
100
AcDbArc
 50
252.9637657115121
 51
268.9844059475178
  0
ARC
  5
76
330
17
100
AcDbEntity
  8
0
100
AcDbCircle
 10
13.380370702131499
 20
-4.928315779648569
 30
0.0
 40
2.5351088797103998
100
AcDbArc
 50
237.2981824795856
 51
253.05569731966105
  0
ARC
  5
77
330
17
100
AcDbEntity
  8
0
100
AcDbCircle
 10
13.971580201643
 20
-4.01086234581916
 30
0.0
 40
3.62803893337986
100
AcDbArc
 50
224.05812991402976
 51
237.26928879015256
  0
ARC
  5
78
330
17
100
AcDbEntity
  8
0
100
AcDbCircle
 10
14.449679036878601
 20
-3.5528296463776603
 30
0.0
 40
4.29179406883489
100
AcDbArc
 50
210.61065565175167
 51
224.01398684061738
  0
LINE
  5
79
330
17
100
AcDbEntity
  8
0
100
AcDbLine
 10
10.755583105097
 20
-5.73866102430556
 30
0.0
 11
10.048828125
 21
-5.73866102430556
 31
0.0
  0
LINE
  5
7A
330
17
100
AcDbEntity
  8
0
100
AcDbLine
 10
10.04882812500004
 20
-5.738661024305542
 30
0.0
 11
10.364040798611153
 21
-7.234971788194429
 31
0.0
  0
LINE
  5
7B
330
17
100
AcDbEntity
  8
0
100
AcDbLine
 10
10.3640407986111
 20
-7.23497178819444
 30
0.0
 11
8.89811197916667
 21
-7.23497178819444
 31
0.0
  0
LINE
  5
7C
330
17
100
AcDbEntity
  8
0
100
AcDbLine
 10
8.898111979166675
 20
-7.234971788194439
 30
0.0
 11
9.063313802083341
 21
-8.064778645833329
 31
0.0
  0
LINE
  5
7D
330
17
100
AcDbEntity
  8
0
100
AcDbLine
 10
9.063313802083341
 20
-8.064778645833329
 30
0.0
 11
10.548231336805602
 21
-8.064778645833329
 31
0.0
  0
LINE
  5
7E
330
17
100
AcDbEntity
  8
0
100
AcDbLine
 10
10.54823133680557
 20
-8.064778645833336
 30
0.0
 11
11.277398747879966
 21
-11.393503832326612
 31
0.0
  0
ARC
  5
7F
330
17
100
AcDbEntity
  8
0
100
AcDbCircle
 10
6.86352352485852
 20
-12.4888170564547
 30
0.0
 40
4.54749520956929
100
AcDbArc
 50
7.723393357039944
 51
13.936605222574746
  0
ARC
  5
80
330
17
100
AcDbEntity
  8
0
100
AcDbCircle
 10
8.26402411151196
 20
-12.296849281799
 30
0.0
 40
3.1333959611495796
100
AcDbArc
 50
0.5462029433802549
 51
7.686606758507749
  0
SPLINE
  5
81
330
17
100
AcDbEntity
  8
0
100
AcDbSpline
 70
0
 71
2
 72
6
 73
3
 74
0
 40
0.0
 40
0.0
 40
0.0
 40
1.0
 40
1.0
 40
1.0
 10
11.3970269097222
 20
-12.2669813368055
 30
0.0
 10
11.3970269097222
 20
-12.5689019097222
 30
0.0
 10
11.2308756510417
 20
-12.7236599392361
 30
0.0
  0
SPLINE
  5
82
330
17
100
AcDbEntity
  8
0
100
AcDbSpline
 70
0
 71
2
 72
6
 73
3
 74
0
 40
0.0
 40
0.0
 40
0.0
 40
1.0
 40
1.0
 40
1.0
 10
11.2308756510417
 20
-12.7236599392361
 30
0.0
 10
11.0647243923611
 20
-12.87841796875
 30
0.0
 10
10.7912868923611
 20
-12.87841796875
 30
0.0
  0
LINE
  5
83
330
17
100
AcDbEntity
  8
0
100
AcDbLine
 10
-47.2623697916667
 20
-0.37434895833333404
 30
0.0
 11
-47.2623697916667
 21
-1.25
 31
0.0
  0
LINE
  5
84
330
17
100
AcDbEntity
  8
0
100
AcDbLine
 10
-47.2623697916667
 20
-1.25
 30
0.0
 11
-41.6569010416667
 21
-1.25
 31
0.0
  0
LINE
  5
85
330
17
100
AcDbEntity
  8
0
100
AcDbLine
 10
-41.6569010416667
 20
-1.25
 30
0.0
 11
-41.6569010416667
 21
-0.37434895833333404
 31
0.0
  0
LINE
  5
86
330
17
100
AcDbEntity
  8
0
100
AcDbLine
 10
-41.6569010416667
 20
-0.37434895833333404
 30
0.0
 11
-41.829427992678696
 21
-0.37434895833333404
 31
0.0
  0
ARC
  5
87
330
17
100
AcDbEntity
  8
0
100
AcDbCircle
 10
-41.854478327602
 20
3.7829539117106004
 30
0.0
 40
4.15707652598832
100
AcDbArc
 50
261.1115036089013
 51
270.3452510535676
  0
ARC
  5
88
330
17
100
AcDbEntity
  8
0
100
AcDbCircle
 10
-42.3082012317935
 20
0.9727853998901961
 30
0.0
 40
1.30959944869612
100
AcDbArc
 50
236.24739918650073
 51
261.7268139247044
  0
SPLINE
  5
89
330
17
100
AcDbEntity
  8
0
100
AcDbSpline
 70
0
 71
2
 72
6
 73
3
 74
0
 40
0.0
 40
0.0
 40
0.0
 40
1.0
 40
1.0
 40
1.0
 10
-43.0354817708333
 20
-0.115559895833335
 30
0.0
 10
-43.2649739583333
 20
0.042317708333331996
 30
0.0
 10
-43.4016927083333
 20
0.336914062499998
 30
0.0
  0
SPLINE
  5
8A
330
17
100
AcDbEntity
  8
0
100
AcDbSpline
 70
0
 71
2
 72
6
 73
3
 74
0
 40
0.0
 40
0.0
 40
0.0
 40
1.0
 40
1.0
 40
1.0
 10
-43.4016927083333
 20
0.336914062499998
 30
0.0
 10
-43.5384114583333
 20
0.631510416666665
 30
0.0
 10
-43.5384114583333
 20
1.11979166666666
 30
0.0
  0
LINE
  5
8B
330
17
100
AcDbEntity
  8
0
100
AcDbLine
 10
-43.5384114583333
 20
1.1197916666666599
 30
0.0
 11
-43.5384114583333
 21
7.62044270833333
 31
0.0
  0
SPLINE
  5
8C
330
17
100
AcDbEntity
  8
0
100
AcDbSpline
 70
0
 71
2
 72
6
 73
3
 74
0
 40
0.0
 40
0.0
 40
0.0
 40
1.0
 40
1.0
 40
1.0
 10
-43.5384114583333
 20
7.62044270833333
 30
0.0
 10
-43.5384114583333
 20
8.07942708333333
 30
0.0
 10
-43.4016927083333
 20
8.359375
 30
0.0
  0
ARC
  5
8D
330
17
100
AcDbEntity
  8
0
100
AcDbCircle
 10
-42.4524842134554
 20
7.92177448066589
 30
0.0
 40
1.0443393169594402
100
AcDbArc
 50
123.6365914924492
 51
155.24953158155543
  0
ARC
  5
8E
330
17
100
AcDbEntity
  8
0
100
AcDbCircle
 10
-42.271570589015994
 20
7.58202201897243
 30
0.0
 40
1.42780865936629
100
AcDbArc
 50
98.67325070406258
 51
122.12838298852377
  0
ARC
  5
8F
330
17
100
AcDbEntity
  8
0
100
AcDbCircle
 10
-41.8492772387964
 20
5.08259249843251
 30
0.0
 40
3.9634366881948195
100
AcDbArc
 50
89.71306095584744
 51
99.25954890527046
  0
LINE
  5
90
330
17
100
AcDbEntity
  8
0
100
AcDbLine
 10
-41.8294276955047
 20
9.04622395833333
 30
0.0
 11
-41.7708333333333
 21
9.04622395833333
 31
0.0
  0
LINE
  5
91
330
17
100
AcDbEntity
  8
0
100
AcDbLine
 10
-41.7708333333333
 20
9.04622395833333
 30
0.0
 11
-41.7708333333333
 21
9.918619791666659
 31
0.0
  0
LINE
  5
92
330
17
100
AcDbEntity
  8
0
100
AcDbLine
 10
-41.7708333333333
 20
9.918619791666659
 30
0.0
 11
-45.13671875
 21
9.918619791666659
 31
0.0
  0
LINE
  5
93
330
17
100
AcDbEntity
  8
0
100
AcDbLine
 10
-45.13671875
 20
9.918619791666659
 30
0.0
 11
-45.41015625
 21
8.232421875
 31
0.0
  0
LINE
  5
94
330
17
100
AcDbEntity
  8
0
100
AcDbLine
 10
-45.41015625
 20
8.232421875
 30
0.0
 11
-45.5143229166667
 21
8.232421875
 31
0.0
  0
SPLINE
  5
95
330
17
100
AcDbEntity
  8
0
100
AcDbSpline
 70
0
 71
2
 72
6
 73
3
 74
0
 40
0.0
 40
0.0
 40
0.0
 40
1.0
 40
1.0
 40
1.0
 10
-45.5143229166667
 20
8.232421875
 30
0.0
 10
-45.83984375
 20
8.81184895833333
 30
0.0
 10
-46.1995442708333
 20
9.18294270833333
 30
0.0
  0
SPLINE
  5
96
330
17
100
AcDbEntity
  8
0
100
AcDbSpline
 70
0
 71
2
 72
6
 73
3
 74
0
 40
0.0
 40
0.0
 40
0.0
 40
1.0
 40
1.0
 40
1.0
 10
-46.1995442708333
 20
9.18294270833333
 30
0.0
 10
-46.5592447916667
 20
9.55403645833333
 30
0.0
 10
-46.9612630208333
 20
9.762369791666659
 30
0.0
  0
ARC
  5
97
330
17
100
AcDbEntity
  8
0
100
AcDbCircle
 10
-48.291697767356
 20
7.193563605470359
 30
0.0
 40
2.8929383361694097
100
AcDbArc
 50
62.6194812390108
 51
80.53111569546776
  0
ARC
  5
98
330
17
100
AcDbEntity
  8
0
100
AcDbCircle
 10
-48.7449428943261
 20
4.40100799154816
 30
0.0
 40
5.72244070242038
100
AcDbArc
 50
80.654665094914
 51
90.24617799573345
  0
SPLINE
  5
99
330
17
100
AcDbEntity
  8
0
100
AcDbSpline
 70
0
 71
2
 72
6
 73
3
 74
0
 40
0.0
 40
0.0
 40
0.0
 40
1.0
 40
1.0
 40
1.0
 10
-48.76953125
 20
10.1236979166667
 30
0.0
 10
-49.5930989583333
 20
10.1236979166667
 30
0.0
 10
-50.2392578125
 20
9.884440104166659
 30
0.0
  0
ARC
  5
9A
330
17
100
AcDbEntity
  8
0
100
AcDbCircle
 10
-49.2961229702807
 20
7.2764477719076694
 30
0.0
 40
2.77269460851092
100
AcDbArc
 50
109.88163827575215
 51
137.42937692076464
  0
SPLINE
  5
9B
330
17
100
AcDbEntity
  8
0
100
AcDbSpline
 70
0
 71
2
 72
6
 73
3
 74
0
 40
0.0
 40
0.0
 40
0.0
 40
1.0
 40
1.0
 40
1.0
 10
-51.337890625
 20
9.152018229166659
 30
0.0
 10
-51.7903645833333
 20
8.658854166666671
 30
0.0
 10
-52.0296223958333
 20
7.885742187499999
 30
0.0
  0
SPLINE
  5
9C
330
17
100
AcDbEntity
  8
0
100
AcDbSpline
 70
0
 71
2
 72
6
 73
3
 74
0
 40
0.0
 40
0.0
 40
0.0
 40
1.0
 40
1.0
 40
1.0
 10
-52.0296223958333
 20
7.885742187499999
 30
0.0
 10
-52.2688802083333
 20
7.1126302083333295
 30
0.0
 10
-52.2688802083333
 20
6.044921875
 30
0.0
  0
LINE
  5
9D
330
17
100
AcDbEntity
  8
0
100
AcDbLine
 10
-52.2688802083333
 20
6.044921875
 30
0.0
 11
-52.2688802083333
 21
1.1197916666666603
 31
0.0
  0
SPLINE
  5
9E
330
17
100
AcDbEntity
  8
0
100
AcDbSpline
 70
0
 71
2
 72
6
 73
3
 74
0
 40
0.0
 40
0.0
 40
0.0
 40
1.0
 40
1.0
 40
1.0
 10
-52.2688802083333
 20
1.11979166666666
 30
0.0
 10
-52.2688802083333
 20
0.631510416666665
 30
0.0
 10
-52.3844401041667
 20
0.336914062499998
 30
0.0
  0
SPLINE
  5
9F
330
17
100
AcDbEntity
  8
0
100
AcDbSpline
 70
0
 71
2
 72
6
 73
3
 74
0
 40
0.0
 40
0.0
 40
0.0
 40
1.0
 40
1.0
 40
1.0
 10
-52.3844401041667
 20
0.336914062499998
 30
0.0
 10
-52.5
 20
0.042317708333331996
 30
0.0
 10
-52.71484375
 20
-0.115559895833335
 30
0.0
  0
ARC
  5
A0
330
17
100
AcDbEntity
  8
0
100
AcDbCircle
 10
-53.4030679650265
 20
0.847755425948308
 30
0.0
 40
1.1845006057807401
100
AcDbArc
 50
278.676035316909
 51
305.5432637043854
  0
ARC
  5
A1
330
17
100
AcDbEntity
  8
0
100
AcDbCircle
 10
-53.8381934694213
 20
3.42909656666978
 30
0.0
 40
3.80320668090352
100
AcDbArc
 50
269.61227172486645
 51
279.29015447985495
  0
LINE
  5
A2
330
17
100
AcDbEntity
  8
0
100
AcDbLine
 10
-53.8639311888572
 20
-0.37434895833333404
 30
0.0
 11
-53.935546875
 21
-0.37434895833333404
 31
0.0
  0
LINE
  5
A3
330
17
100
AcDbEntity
  8
0
100
AcDbLine
 10
-53.935546875
 20
-0.374348958333335
 30
0.0
 11
-53.935546875
 21
-1.25
 31
0.0
  0
LINE
  5
A4
330
17
100
AcDbEntity
  8
0
100
AcDbLine
 10
-53.935546875
 20
-1.25
 30
0.0
 11
-50.302734375
 21
-1.25
 31
0.0
  0
LINE
  5
A5
330
17
100
AcDbEntity
  8
0
100
AcDbLine
 10
-50.302734375
 20
-1.25
 30
0.0
 11
-50.302734375
 21
5.9407552083333295
 31
0.0
  0
SPLINE
  5
A6
330
17
100
AcDbEntity
  8
0
100
AcDbSpline
 70
0
 71
2
 72
6
 73
3
 74
0
 40
0.0
 40
0.0
 40
0.0
 40
1.0
 40
1.0
 40
1.0
 10
-50.302734375
 20
5.9407552083333295
 30
0.0
 10
-50.302734375
 20
6.6243489583333295
 30
0.0
 10
-50.1806640625
 20
7.1533203125
 30
0.0
  0
SPLINE
  5
A7
330
17
100
AcDbEntity
  8
0
100
AcDbSpline
 70
0
 71
2
 72
6
 73
3
 74
0
 40
0.0
 40
0.0
 40
0.0
 40
1.0
 40
1.0
 40
1.0
 10
-50.1806640625
 20
7.1533203125
 30
0.0
 10
-50.05859375
 20
7.68229166666667
 30
0.0
 10
-49.7900390625
 20
8.048502604166671
 30
0.0
  0
ARC
  5
A8
330
17
100
AcDbEntity
  8
0
100
AcDbCircle
 10
-48.4462285226848
 20
7.05755772710907
 30
0.0
 40
1.67001262278194
100
AcDbArc
 50
112.42864114186601
 51
143.5944123616438
  0
SPLINE
  5
A9
330
17
100
AcDbEntity
  8
0
100
AcDbSpline
 70
0
 71
2
 72
6
 73
3
 74
0
 40
0.0
 40
0.0
 40
0.0
 40
1.0
 40
1.0
 40
1.0
 10
-49.0836588541667
 20
8.60188802083333
 30
0.0
 10
-48.6458333333333
 20
8.7890625
 30
0.0
 10
-48.0143229166667
 20
8.7890625
 30
0.0
  0
SPLINE
  5
AA
330
17
100
AcDbEntity
  8
0
100
AcDbSpline
 70
0
 71
2
 72
6
 73
3
 74
0
 40
0.0
 40
0.0
 40
0.0
 40
1.0
 40
1.0
 40
1.0
 10
-48.0143229166667
 20
8.7890625
 30
0.0
 10
-47.3046875
 20
8.7890625
 30
0.0
 10
-46.8212890625
 20
8.515625
 30
0.0
  0
ARC
  5
AB
330
17
100
AcDbEntity
  8
0
100
AcDbCircle
 10
-47.8833225134231
 20
6.61934715250192
 30
0.0
 40
2.17323718290065
100
AcDbArc
 50
32.073688512586145
 51
60.74846285453531
  0
SPLINE
  5
AC
330
17
100
AcDbEntity
  8
0
100
AcDbSpline
 70
0
 71
2
 72
6
 73
3
 74
0
 40
0.0
 40
0.0
 40
0.0
 40
1.0
 40
1.0
 40
1.0
 10
-46.0416666666667
 20
7.7734375
 30
0.0
 10
-45.7454427083333
 20
7.3046875
 30
0.0
 10
-45.6184895833333
 20
6.6943359375
 30
0.0
  0
ARC
  5
AD
330
17
100
AcDbEntity
  8
0
100
AcDbCircle
 10
-51.7720557769084
 20
5.44173795014363
 30
0.0
 40
6.280163136760811
100
AcDbArc
 50
359.7415854737502
 51
371.5057291720607
  0
LINE
  5
AE
330
17
100
AcDbEntity
  8
0
100
AcDbLine
 10
-45.4915364583333
 20
5.41341240560587
 30
0.0
 11
-45.4915364583333
 21
1.01888020833333
 31
0.0
  0
SPLINE
  5
AF
330
17
100
AcDbEntity
  8
0
100
AcDbSpline
 70
0
 71
2
 72
6
 73
3
 74
0
 40
0.0
 40
0.0
 40
0.0
 40
1.0
 40
1.0
 40
1.0
 10
-45.4915364583333
 20
1.01888020833333
 30
0.0
 10
-45.4915364583333
 20
0.5598958333333319
 30
0.0
 10
-45.6298828125
 20
0.279947916666665
 30
0.0
  0
SPLINE
  5
B0
330
17
100
AcDbEntity
  8
0
100
AcDbSpline
 70
0
 71
2
 72
6
 73
3
 74
0
 40
0.0
 40
0.0
 40
0.0
 40
1.0
 40
1.0
 40
1.0
 10
-45.6298828125
 20
0.279947916666665
 30
0.0
 10
-45.7682291666667
 20
-1.5178830414797102e-15
 30
0.0
 10
-46.0009765625
 20
-0.141601562500001
 30
0.0
  0
ARC
  5
B1
330
17
100
AcDbEntity
  8
0
100
AcDbCircle
 10
-46.727738991182896
 20
1.09725249481302
 30
0.0
 40
1.43699095566083
100
AcDbArc
 50
277.31840024703297
 51
300.39762834545195
  0
ARC
  5
B2
330
17
100
AcDbEntity
  8
0
100
AcDbCircle
 10
-47.1828522181795
 20
4.1522957287737405
 30
0.0
 40
4.52648963632495
100
AcDbArc
 50
269.77636152004993
 51
278.1063928638387
  0
LINE
  5
B3
330
17
100
AcDbEntity
  8
0
100
AcDbLine
 10
-47.2005204634387
 20
-0.37434895833333404
 30
0.0
 11
-47.2623697916667
 21
-0.37434895833333404
 31
0.0
  0
LINE
  5
B4
330
17
100
AcDbEntity
  8
0
100
AcDbLine
 10
5.318739149305563
 20
-7.234971788194439
 30
0.0
 11
6.161838166907521
 21
-11.186523715288306
 31
0.0
  0
ARC
  5
B5
330
17
100
AcDbEntity
  8
0
100
AcDbCircle
 10
-6.18979996450284
 20
-13.8955625573973
 30
0.0
 40
12.6451309092027
100
AcDbArc
 50
9.509306517683845
 51
12.370595347852431
  0
ARC
  5
B6
330
17
100
AcDbEntity
  8
0
100
AcDbCircle
 10
2.9855342640387397
 20
-12.3714288040109
 30
0.0
 40
3.34374328539735
100
AcDbArc
 50
0.3906478709442036
 51
9.725996594271159
  0
SPLINE
  5
B7
330
17
100
AcDbEntity
  8
0
100
AcDbSpline
 70
0
 71
2
 72
6
 73
3
 74
0
 40
0.0
 40
0.0
 40
0.0
 40
1.0
 40
1.0
 40
1.0
 10
6.32893880208334
 20
-12.3486328125
 30
0.0
 10
6.32893880208334
 20
-12.6163736979167
 30
0.0
 10
6.218804253472229
 20
-12.7587890625
 30
0.0
  0
SPLINE
  5
B8
330
17
100
AcDbEntity
  8
0
100
AcDbSpline
 70
0
 71
2
 72
6
 73
3
 74
0
 40
0.0
 40
0.0
 40
0.0
 40
1.0
 40
1.0
 40
1.0
 10
6.218804253472229
 20
-12.7587890625
 30
0.0
 10
6.10866970486112
 20
-12.9012044270833
 30
0.0
 10
5.90738932291667
 20
-12.9012044270833
 30
0.0
  0
ARC
  5
B9
330
17
100
AcDbEntity
  8
0
100
AcDbCircle
 10
5.897325452514701
 20
-12.0470337970164
 30
0.0
 40
0.853939845950974
100
AcDbArc
 50
246.50959662275858
 51
270.6750297893786
  0
ARC
  5
BA
330
17
100
AcDbEntity
  8
0
100
AcDbCircle
 10
6.67054761600454
 20
-10.4462591556539
 30
0.0
 40
2.63151420770369
100
AcDbArc
 50
235.75967352380366
 51
244.96160480953264
  0
LINE
  5
BB
330
17
100
AcDbEntity
  8
0
100
AcDbLine
 10
5.189885720335367
 20
-12.621691842743905
 30
0.0
 11
4.89708987772331
 21
-13.032366531082893
 31
0.0
  0
ARC
  5
BC
330
17
100
AcDbEntity
  8
0
100
AcDbCircle
 10
7.283430144400009
 20
-10.7988425009256
 30
0.0
 40
3.2685240494223797
100
AcDbArc
 50
223.10545645068578
 51
230.94171367992897
  0
ARC
  5
BD
330
17
100
AcDbEntity
  8
0
100
AcDbCircle
 10
6.68962047276719
 20
-11.5283464948663
 30
0.0
 40
2.3282563273180603
100
AcDbArc
 50
230.9768618029426
 51
243.1966434344141
  0
ARC
  5
BE
330
17
100
AcDbEntity
  8
0
100
AcDbCircle
 10
6.76312161205365
 20
-11.381589085321501
 30
0.0
 40
2.49282512733515
100
AcDbArc
 50
243.20981826985474
 51
255.7061908412472
  0
ARC
  5
BF
330
17
100
AcDbEntity
  8
0
100
AcDbCircle
 10
6.72956549600329
 20
-11.457627819916501
 30
0.0
 40
2.4116425048336003
100
AcDbArc
 50
256.03276757008393
 51
270.63230375605696
  0
SPLINE
  5
C0
330
17
100
AcDbEntity
  8
0
100
AcDbSpline
 70
0
 71
2
 72
6
 73
3
 74
0
 40
0.0
 40
0.0
 40
0.0
 40
1.0
 40
1.0
 40
1.0
 10
6.75618489583334
 20
-13.86962890625
 30
0.0
 10
7.454969618055561
 20
-13.86962890625
 30
0.0
 10
7.8290473090277795
 20
-13.5401746961805
 30
0.0
  0
SPLINE
  5
C1
330
17
100
AcDbEntity
  8
0
100
AcDbSpline
 70
0
 71
2
 72
6
 73
3
 74
0
 40
0.0
 40
0.0
 40
0.0
 40
1.0
 40
1.0
 40
1.0
 10
7.8290473090277795
 20
-13.5401746961805
 30
0.0
 10
8.203125
 20
-13.2107204861111
 30
0.0
 10
8.203125
 20
-12.6220703125
 30
0.0
  0
ARC
  5
C2
330
17
100
AcDbEntity
  8
0
100
AcDbCircle
 10
3.23993211969947
 20
-12.6961677672733
 30
0.0
 40
4.96434897829486
100
AcDbArc
 50
0.8553276400768287
 51
8.069333701258195
  0
ARC
  5
C3
330
17
100
AcDbEntity
  8
0
100
AcDbCircle
 10
-1.8379238427918698
 20
-13.3791540061784
 30
0.0
 40
10.0887905818766
100
AcDbArc
 50
7.86168587519109
 51
12.618298168853501
  0
LINE
  5
C4
330
17
100
AcDbEntity
  8
0
100
AcDbLine
 10
8.00754172162827
 20
-11.175132537878762
 30
0.0
 11
7.53282335069444
 21
-8.913574218750002
 31
0.0
  0
ARC
  5
C5
330
17
100
AcDbEntity
  8
0
100
AcDbCircle
 10
12.209300237951
 20
-7.889270044404141
 30
0.0
 40
4.7873411324687805
100
AcDbArc
 50
-169.60436466296596
 51
-167.6454228858866
  0
LINE
  5
C6
330
17
100
AcDbEntity
  8
0
100
AcDbLine
 10
7.500338891940968
 20
-8.753154579656016
 30
0.0
 11
7.472800067297088
 21
-8.596499536302767
 31
0.0
  0
ARC
  5
C7
330
17
100
AcDbEntity
  8
0
100
AcDbCircle
 10
9.715673084569
 20
-8.211725166447831
 30
0.0
 40
2.27537800962428
100
AcDbArc
 50
186.4984476205719
 51
189.73455948028405
  0
ARC
  5
C8
330
17
100
AcDbEntity
  8
0
100
AcDbCircle
 10
8.31669581086625
 20
-8.3645595303877
 30
0.0
 40
0.86796557731934
100
AcDbArc
 50
181.77130534080018
 51
186.9260818314536
  0
SPLINE
  5
C9
330
17
100
AcDbEntity
  8
0
100
AcDbSpline
 70
0
 71
2
 72
6
 73
3
 74
0
 40
0.0
 40
0.0
 40
0.0
 40
1.0
 40
1.0
 40
1.0
 10
7.449273003472229
 20
-8.391384548611109
 30
0.0
 10
7.449273003472229
 20
-8.226182725694441
 30
0.0
 10
7.48535156250001
 20
-8.12459309895833
 30
0.0
  0
ARC
  5
CA
330
17
100
AcDbEntity
  8
0
100
AcDbCircle
 10
7.777258189873421
 20
-8.217502196204121
 30
0.0
 40
0.30588545771887404
100
AcDbArc
 50
125.84195858355241
 51
162.34457949186046
  0
ARC
  5
CB
330
17
100
AcDbEntity
  8
0
100
AcDbCircle
 10
7.849481488207201
 20
-8.365193249555741
 30
0.0
 40
0.468965708924648
100
AcDbArc
 50
96.44658614175275
 51
122.42498826584989
  0
ARC
  5
CC
330
17
100
AcDbEntity
  8
0
100
AcDbCircle
 10
8.06597441280411
 20
-9.95049082035903
 30
0.0
 40
2.06977111014309
100
AcDbArc
 50
89.3047803507182
 51
97.47474967980945
  0
LINE
  5
CD
330
17
100
AcDbEntity
  8
0
100
AcDbLine
 10
8.091089856962201
 20
-7.88058810763889
 30
0.0
 11
8.30946180555556
 21
-7.88058810763889
 31
0.0
  0
LINE
  5
CE
330
17
100
AcDbEntity
  8
0
100
AcDbLine
 10
8.309461805555557
 20
-7.880588107638891
 30
0.0
 11
8.203125000000002
 21
-7.23497178819444
 31
0.0
  0
LINE
  5
CF
330
17
100
AcDbEntity
  8
0
100
AcDbLine
 10
8.203125
 20
-7.23497178819444
 30
0.0
 11
5.318739149305561
 21
-7.23497178819444
 31
0.0
  0
SPLINE
  5
D0
330
17
100
AcDbEntity
  8
0
100
AcDbSpline
 70
0
 71
2
 72
6
 73
3
 74
0
 40
0.0
 40
0.0
 40
0.0
 40
1.0
 40
1.0
 40
1.0
 10
22.8719075520834
 20
-13.0075412326389
 30
0.0
 10
22.3212348090278
 20
-13.0075412326389
 30
0.0
 10
21.9414605034722
 20
-12.8480360243055
 30
0.0
  0
ARC
  5
D1
330
17
100
AcDbEntity
  8
0
100
AcDbCircle
 10
22.6042828615531
 20
-11.2119814644082
 30
0.0
 40
1.76454787632587
100
AcDbArc
 50
222.62375597938745
 51
247.94542609384732
  0
ARC
  5
D2
330
17
100
AcDbEntity
  8
0
100
AcDbCircle
 10
22.938522532326402
 20
-10.9549988883099
 30
0.0
 40
2.1848591917345
100
AcDbArc
 50
200.9183395585369
 51
221.6467714314949
  0
ARC
  5
D3
330
17
100
AcDbEntity
  8
0
100
AcDbCircle
 10
25.679280151366402
 20
-9.879874269577499
 30
0.0
 40
5.12991412218884
100
AcDbArc
 50
191.29392573471017
 51
201.20553998308432
  0
LINE
  5
D4
330
17
100
AcDbEntity
  8
0
100
AcDbLine
 10
20.648329525000392
 20
-10.884605355248315
 30
0.0
 11
19.710286423267494
 21
-6.492512856648757
 31
0.0
  0
ARC
  5
D5
330
17
100
AcDbEntity
  8
0
100
AcDbCircle
 10
23.509600732250902
 20
-5.779197159928939
 30
0.0
 40
3.86570990222148
100
AcDbArc
 50
187.51208100120374
 51
190.63341354546142
  0
ARC
  5
D6
330
17
100
AcDbEntity
  8
0
100
AcDbCircle
 10
21.0908896482838
 20
-6.07116686730013
 30
0.0
 40
1.42960942114841
100
AcDbArc
 50
182.35218024301184
 51
188.5840152397098
  0
ARC
  5
D7
330
17
100
AcDbEntity
  8
0
100
AcDbCircle
 10
19.998448520819
 20
-6.1146332343188705
 30
0.0
 40
0.335234724270824
100
AcDbArc
 50
143.82901371363485
 51
182.59209335148523
  0
ARC
  5
D8
330
17
100
AcDbEntity
  8
0
100
AcDbCircle
 10
20.048010656938597
 20
-6.17864428432634
 30
0.0
 40
0.41337695934424895
100
AcDbArc
 50
109.67037800416918
 51
140.7192638828565
  0
ARC
  5
D9
330
17
100
AcDbEntity
  8
0
100
AcDbCircle
 10
20.2546524754584
 20
-6.75390480238852
 30
0.0
 40
1.02556370933427
100
AcDbArc
 50
93.7861000299194
 51
109.72323107231186
  0
ARC
  5
DA
330
17
100
AcDbEntity
  8
0
100
AcDbCircle
 10
20.5258770515153
 20
-9.80470181192582
 30
0.0
 40
4.08875917277502
100
AcDbArc
 50
89.80079161513001
 51
94.75567311609876
  0
LINE
  5
DB
330
17
100
AcDbEntity
  8
0
100
AcDbLine
 10
20.5400931546695
 20
-5.71587456597222
 30
0.0
 11
20.69580078125
 21
-5.71587456597222
 31
0.0
  0
LINE
  5
DC
330
17
100
AcDbEntity
  8
0
100
AcDbLine
 10
20.695800781249936
 20
-5.715874565972233
 30
0.0
 11
20.56477864583327
 21
-5.074055989583356
 31
0.0
  0
LINE
  5
DD
330
17
100
AcDbEntity
  8
0
100
AcDbLine
 10
20.5647786458334
 20
-5.07405598958333
 30
0.0
 11
17.3651801215278
 21
-5.07405598958333
 31
0.0
  0
LINE
  5
DE
330
17
100
AcDbEntity
  8
0
100
AcDbLine
 10
17.3651801215278
 20
-5.07405598958333
 30
0.0
 11
17.5018988715278
 21
-5.71587456597222
 31
0.0
  0
LINE
  5
DF
330
17
100
AcDbEntity
  8
0
100
AcDbLine
 10
17.5018988715278
 20
-5.71587456597222
 30
0.0
 11
17.657606412516998
 21
-5.71587456597222
 31
0.0
  0
ARC
  5
E0
330
17
100
AcDbEntity
  8
0
100
AcDbCircle
 10
17.6637920705226
 20
-8.35280355454965
 30
0.0
 40
2.63687169325003
100
AcDbArc
 50
81.87563192997543
 51
90.13440475136876
  0
ARC
  5
E1
330
17
100
AcDbEntity
  8
0
100
AcDbCircle
 10
17.884565306151302
 20
-6.845787937009209
 30
0.0
 40
1.11355132667789
100
AcDbArc
 50
63.897725466653
 51
82.16284408438786
  0
ARC
  5
E2
330
17
100
AcDbEntity
  8
0
100
AcDbCircle
 10
18.0429035494764
 20
-6.503068127640731
 30
0.0
 40
0.736212359347419
100
AcDbArc
 50
35.92325113553534
 51
63.22842270950969
  0
SPLINE
  5
E3
330
17
100
AcDbEntity
  8
0
100
AcDbSpline
 70
0
 71
2
 72
6
 73
3
 74
0
 40
0.0
 40
0.0
 40
0.0
 40
1.0
 40
1.0
 40
1.0
 10
18.6393229166666
 20
-6.07096354166666
 30
0.0
 10
18.7494574652778
 20
-6.2190755208333295
 30
0.0
 10
18.8026258680556
 20
-6.45643446180555
 30
0.0
  0
LINE
  5
E4
330
17
100
AcDbEntity
  8
0
100
AcDbLine
 10
18.80262586805559
 20
-6.456434461805552
 30
0.0
 11
19.77484809027781
 21
-11.074490017361098
 31
0.0
  0
SPLINE
  5
E5
330
17
100
AcDbEntity
  8
0
100
AcDbSpline
 70
0
 71
2
 72
6
 73
3
 74
0
 40
0.0
 40
0.0
 40
0.0
 40
1.0
 40
1.0
 40
1.0
 10
19.7748480902778
 20
-11.0744900173611
 30
0.0
 10
19.9172634548611
 20
-11.7561848958333
 30
0.0
 10
20.1992458767361
 20
-12.2783745659722
 30
0.0
  0
ARC
  5
E6
330
17
100
AcDbEntity
  8
0
100
AcDbCircle
 10
22.7285578185767
 20
-10.940045413061599
 30
0.0
 40
2.86092252392343
100
AcDbArc
 50
207.88455941217813
 51
230.705599598207
  0
SPLINE
  5
E7
330
17
100
AcDbEntity
  8
0
100
AcDbSpline
 70
0
 71
2
 72
6
 73
3
 74
0
 40
0.0
 40
0.0
 40
0.0
 40
1.0
 40
1.0
 40
1.0
 10
20.9170193142361
 20
-13.1537543402778
 30
0.0
 10
21.3528103298611
 20
-13.5069444444444
 30
0.0
 10
21.9462076822916
 20
-13.688286675347198
 30
0.0
  0
SPLINE
  5
E8
330
17
100
AcDbEntity
  8
0
100
AcDbSpline
 70
0
 71
2
 72
6
 73
3
 74
0
 40
0.0
 40
0.0
 40
0.0
 40
1.0
 40
1.0
 40
1.0
 10
21.9462076822916
 20
-13.688286675347198
 30
0.0
 10
22.5396050347222
 20
-13.86962890625
 30
0.0
 10
23.3124457465278
 20
-13.86962890625
 30
0.0
  0
SPLINE
  5
E9
330
17
100
AcDbEntity
  8
0
100
AcDbSpline
 70
0
 71
2
 72
6
 73
3
 74
0
 40
0.0
 40
0.0
 40
0.0
 40
1.0
 40
1.0
 40
1.0
 10
23.3124457465278
 20
-13.86962890625
 30
0.0
 10
24.0245225694444
 20
-13.86962890625
 30
0.0
 10
24.5704481336806
 20
-13.7300618489583
 30
0.0
  0
SPLINE
  5
EA
330
17
100
AcDbEntity
  8
0
100
AcDbSpline
 70
0
 71
2
 72
6
 73
3
 74
0
 40
0.0
 40
0.0
 40
0.0
 40
1.0
 40
1.0
 40
1.0
 10
24.5704481336806
 20
-13.7300618489583
 30
0.0
 10
25.1163736979166
 20
-13.590494791666702
 30
0.0
 10
25.489501953125
 20
-13.3199055989583
 30
0.0
  0
ARC
  5
EB
330
17
100
AcDbEntity
  8
0
100
AcDbCircle
 10
24.453037655496598
 20
-11.8557129855117
 30
0.0
 40
1.79326863181131
100
AcDbArc
 50
305.2936955186014
 51
333.4121630396793
  0
SPLINE
  5
EC
330
17
100
AcDbEntity
  8
0
100
AcDbSpline
 70
0
 71
2
 72
6
 73
3
 74
0
 40
0.0
 40
0.0
 40
0.0
 40
1.0
 40
1.0
 40
1.0
 10
26.0563151041667
 20
-12.6581488715278
 30
0.0
 10
26.25
 20
-12.2669813368055
 30
0.0
 10
26.25
 20
-11.767578125
 30
0.0
  0
ARC
  5
ED
330
17
100
AcDbEntity
  8
0
100
AcDbCircle
 10
23.3631593981827
 20
-11.802791861464899
 30
0.0
 40
2.88723723006215
100
AcDbArc
 50
0.6988603460498073
 51
5.4168424483316056
  0
ARC
  5
EE
330
17
100
AcDbEntity
  8
0
100
AcDbCircle
 10
17.1819468985445
 20
-12.320540784657
 30
0.0
 40
9.09014463514975
100
AcDbArc
 50
4.987749437764404
 51
6.84689024085003
  0
ARC
  5
EF
330
17
100
AcDbEntity
  8
0
100
AcDbCircle
 10
19.3030436892671
 20
-12.0594595699739
 30
0.0
 40
6.95306497383308
100
AcDbArc
 50
6.794568938200129
 51
9.25990761082621
  0
ARC
  5
F0
330
17
100
AcDbEntity
  8
0
100
AcDbCircle
 10
20.4399939382108
 20
-11.857188258551501
 30
0.0
 40
5.79834148490655
100
AcDbArc
 50
9.0950363336626
 51
11.642010383259315
  0
LINE
  5
F1
330
17
100
AcDbEntity
  8
0
100
AcDbLine
 10
26.1189779307267
 20
-10.68712053328245
 30
0.0
 11
25.22840711805551
 21
-6.545681423611107
 31
0.0
  0
SPLINE
  5
F2
330
17
100
AcDbEntity
  8
0
100
AcDbSpline
 70
0
 71
2
 72
6
 73
3
 74
0
 40
0.0
 40
0.0
 40
0.0
 40
1.0
 40
1.0
 40
1.0
 10
25.2284071180555
 20
-6.54568142361111
 30
0.0
 10
25.1581488715278
 20
-6.2190755208333295
 30
0.0
 10
25.1581488715278
 20
-6.12982855902777
 30
0.0
  0
ARC
  5
F3
330
17
100
AcDbEntity
  8
0
100
AcDbCircle
 10
25.497260859416198
 20
-6.11443165627441
 30
0.0
 40
0.338714188759552
100
AcDbArc
 50
144.29907674543938
 51
182.5996488669204
  0
ARC
  5
F4
330
17
100
AcDbEntity
  8
0
100
AcDbCircle
 10
25.5380364707151
 20
-6.172736571533401
 30
0.0
 40
0.406309475375216
100
AcDbArc
 50
109.37250425725068
 51
140.97510114263176
  0
ARC
  5
F5
330
17
100
AcDbEntity
  8
0
100
AcDbCircle
 10
25.7508547116932
 20
-6.75856559977644
 30
0.0
 40
1.03051026255693
100
AcDbArc
 50
93.97508589784294
 51
109.73097539108818
  0
ARC
  5
F6
330
17
100
AcDbEntity
  8
0
100
AcDbCircle
 10
26.0140956496769
 20
-9.70778672899492
 30
0.0
 40
3.99183858244123
100
AcDbArc
 50
89.77558889153227
 51
94.80995049122984
  0
LINE
  5
F7
330
17
100
AcDbEntity
  8
0
100
AcDbLine
 10
26.0297306987176
 20
-5.71587456597222
 30
0.0
 11
26.1892361111111
 21
-5.71587456597222
 31
0.0
  0
LINE
  5
F8
330
17
100
AcDbEntity
  8
0
100
AcDbLine
 10
26.1892361111111
 20
-5.71587456597222
 30
0.0
 11
26.0525173611111
 21
-5.07405598958333
 31
0.0
  0
LINE
  5
F9
330
17
100
AcDbEntity
  8
0
100
AcDbLine
 10
26.0525173611111
 20
-5.07405598958333
 30
0.0
 11
21.8522135416666
 21
-5.07405598958333
 31
0.0
  0
LINE
  5
FA
330
17
100
AcDbEntity
  8
0
100
AcDbLine
 10
21.852213541666664
 20
-5.074055989583318
 30
0.0
 11
21.983235677083336
 21
-5.715874565972233
 31
0.0
  0
LINE
  5
FB
330
17
100
AcDbEntity
  8
0
100
AcDbLine
 10
21.9832356770834
 20
-5.71587456597222
 30
0.0
 11
22.1427409834442
 21
-5.71587456597222
 31
0.0
  0
ARC
  5
FC
330
17
100
AcDbEntity
  8
0
100
AcDbCircle
 10
22.1499942517118
 20
-8.47471481019414
 30
0.0
 40
2.7587752087953703
100
AcDbArc
 50
82.060189537604
 51
90.15063805136562
  0
ARC
  5
FD
330
17
100
AcDbEntity
  8
0
100
AcDbCircle
 10
22.3772537011661
 20
-6.90082068411141
 30
0.0
 40
1.1682928281178
100
AcDbArc
 50
64.89418434471028
 51
82.43652088935394
  0
ARC
  5
FE
330
17
100
AcDbEntity
  8
0
100
AcDbCircle
 10
22.559199540716698
 20
-6.493604813825
 30
0.0
 40
0.722293481664942
100
AcDbArc
 50
36.92281167352545
 51
64.25785852198132
  0
SPLINE
  5
FF
330
17
100
AcDbEntity
  8
0
100
AcDbSpline
 70
0
 71
2
 72
6
 73
3
 74
0
 40
0.0
 40
0.0
 40
0.0
 40
1.0
 40
1.0
 40
1.0
 10
23.1368001302084
 20
-6.0595703125
 30
0.0
 10
23.2459852430555
 20
-6.2019856770833295
 30
0.0
 10
23.2991536458334
 20
-6.43364800347222
 30
0.0
  0
LINE
  5
100
330
17
100
AcDbEntity
  8
0
100
AcDbLine
 10
23.299153645833293
 20
-6.433648003472242
 30
0.0
 11
24.220106492467025
 21
-10.711806278659454
 31
0.0
  0
LINE
  5
101
330
17
100
AcDbEntity
  8
0
100
AcDbLine
 10
24.22031331983158
 20
-10.711762511849516
 30
0.0
 11
24.269674359785242
 21
-10.949123519322946
 31
0.0
  0
ARC
  5
102
330
17
100
AcDbEntity
  8
0
100
AcDbCircle
 10
19.049096166925
 20
-12.0038399223195
 30
0.0
 40
5.32586994721231
100
AcDbArc
 50
8.465956690695617
 51
11.42175101247411
  0
ARC
  5
103
330
17
100
AcDbEntity
  8
0
100
AcDbCircle
 10
17.6688360734362
 20
-12.2136532356961
 30
0.0
 40
6.72199664760527
100
AcDbArc
 50
6.079513822275249
 51
8.502802508777357
  0
ARC
  5
104
330
17
100
AcDbEntity
  8
0
100
AcDbCircle
 10
21.846806754129698
 20
-11.779988019337699
 30
0.0
 40
2.5215331161269896
100
AcDbArc
 50
0.2819963385559854
 51
6.335288114510378
  0
SPLINE
  5
105
330
17
100
AcDbEntity
  8
0
100
AcDbSpline
 70
0
 71
2
 72
6
 73
3
 74
0
 40
0.0
 40
0.0
 40
0.0
 40
1.0
 40
1.0
 40
1.0
 10
24.3682183159723
 20
-11.767578125
 30
0.0
 10
24.3682183159723
 20
-12.3790147569444
 30
0.0
 10
23.9884440104167
 20
-12.6932779947917
 30
0.0
  0
SPLINE
  5
106
330
17
100
AcDbEntity
  8
0
100
AcDbSpline
 70
0
 71
2
 72
6
 73
3
 74
0
 40
0.0
 40
0.0
 40
0.0
 40
1.0
 40
1.0
 40
1.0
 10
23.9884440104167
 20
-12.6932779947917
 30
0.0
 10
23.6086697048611
 20
-13.0075412326389
 30
0.0
 10
22.8719075520834
 20
-13.0075412326389
 30
0.0
  0
LINE
  5
107
330
17
100
AcDbEntity
  8
0
100
AcDbLine
 10
-27.333087716436467
 20
11.359127951059769
 30
0.0
 11
-26.500900455172278
 21
12.225236203428478
 31
0.0
  0
ARC
  5
108
330
17
100
AcDbEntity
  8
0
100
AcDbCircle
 10
-25.940145864140398
 20
12.9476455531281
 30
0.0
 40
0.914505866518443
100
AcDbArc
 50
232.18037328171224
 51
253.20657172048814
  0
ARC
  5
109
330
17
100
AcDbEntity
  8
0
100
AcDbCircle
 10
-25.7575493861299
 20
13.5451888711789
 30
0.0
 40
1.53976828283541
100
AcDbArc
 50
253.12596866492882
 51
270.45055879519634
  0
ARC
  5
10A
330
17
100
AcDbEntity
  8
0
100
AcDbCircle
 10
-25.7273455388069
 20
13.5653189766573
 30
0.0
 40
1.5598132992938198
100
AcDbArc
 50
269.33539019636044
 51
286.7348280213442
  0
ARC
  5
10B
330
17
100
AcDbEntity
  8
0
100
AcDbCircle
 10
-25.5647747037719
 20
12.9990708225932
 30
0.0
 40
0.970301788426589
100
AcDbArc
 50
287.16941769052846
 51
297.39542808341156
  0
LINE
  5
10C
330
17
100
AcDbEntity
  8
0
100
AcDbLine
 10
-25.11831077029344
 20
12.13758633827166
 30
0.0
 11
-24.219496504937965
 21
11.273973989785535
 31
0.0
  0
LINE
  5
10D
330
17
100
AcDbEntity
  8
0
100
AcDbLine
 10
-24.219496504937997
 20
11.273973989785496
 30
0.0
 11
-23.803789409393154
 21
11.706625825230155
 31
0.0
  0
LINE
  5
10E
330
17
100
AcDbEntity
  8
0
100
AcDbLine
 10
-23.803789409393218
 20
11.706625825230182
 30
0.0
 11
-24.699118920558995
 21
12.566889899366801
 31
0.0
  0
ARC
  5
10F
330
17
100
AcDbEntity
  8
0
100
AcDbCircle
 10
-25.6079293046901
 20
13.0182919287445
 30
0.0
 40
1.01474139879621
100
AcDbArc
 50
333.58661600359875
 51
340.873811464157
  0
SPLINE
  5
110
330
17
100
AcDbEntity
  8
0
100
AcDbSpline
 70
0
 71
2
 72
6
 73
3
 74
0
 40
0.0
 40
0.0
 40
0.0
 40
1.0
 40
1.0
 40
1.0
 10
-24.6484375
 20
12.685546875
 30
0.0
 10
-24.5572916666667
 20
12.9296875
 30
0.0
 10
-24.5572916666667
 20
13.2975260416667
 30
0.0
  0
SPLINE
  5
111
330
17
100
AcDbEntity
  8
0
100
AcDbSpline
 70
0
 71
2
 72
6
 73
3
 74
0
 40
0.0
 40
0.0
 40
0.0
 40
0.10763940621081626
 40
0.10763940621081626
 40
0.10763940621081626
 10
-24.5572916666667
 20
13.2975260416667
 30
0.0
 10
-24.5572916666667
 20
13.336769575181057
 30
0.0
 10
-24.558347704327975
 20
13.3746176303573
 30
0.0
  0
LINE
  5
112
330
17
100
AcDbEntity
  8
0
100
AcDbLine
 10
-24.558347700946776
 20
13.374617622634247
 30
0.0
 11
-23.289960559874107
 21
13.92992924156032
 31
0.0
  0
LINE
  5
113
330
17
100
AcDbEntity
  8
0
100
AcDbLine
 10
-23.289960559874046
 20
13.929929241560323
 30
0.0
 11
-23.530594517163227
 21
14.479561208061032
 31
0.0
  0
LINE
  5
114
330
17
100
AcDbEntity
  8
0
100
AcDbLine
 10
-23.530594517163294
 20
14.479561208060982
 30
0.0
 11
-24.677118754017915
 21
13.977602295447532
 31
0.0
  0
ARC
  5
115
330
17
100
AcDbEntity
  8
0
100
AcDbCircle
 10
-25.6212060480299
 20
13.5678984852065
 30
0.0
 40
1.02915403649839
100
AcDbArc
 50
23.459307555285257
 51
45.65473269259631
  0
ARC
  5
116
330
17
100
AcDbEntity
  8
0
100
AcDbCircle
 10
-25.530142442834002
 20
13.6413805278186
 30
0.0
 40
0.9122607401159459
100
AcDbArc
 50
46.51865315488435
 51
73.97661802705677
  0
ARC
  5
117
330
17
100
AcDbEntity
  8
0
100
AcDbCircle
 10
-25.7268101513668
 20
12.9050581449018
 30
0.0
 40
1.6747360488992602
100
AcDbArc
 50
74.46316881667452
 51
77.44465242547373
  0
LINE
  5
118
330
17
100
AcDbEntity
  8
0
100
AcDbLine
 10
-25.362751654280103
 20
14.5397453456168
 30
0.0
 11
-25.388025250290944
 21
15.805098547895701
 31
0.0
  0
LINE
  5
119
330
17
100
AcDbEntity
  8
0
100
AcDbLine
 10
-25.3880252502909
 20
15.805098547895701
 30
0.0
 11
-25.9879056032738
 21
15.793116807407095
 31
0.0
  0
LINE
  5
11A
330
17
100
AcDbEntity
  8
0
100
AcDbLine
 10
-25.987905603273745
 20
15.793116807407202
 30
0.0
 11
-25.963417134606328
 21
14.567071956728602
 31
0.0
  0
ARC
  5
11B
330
17
100
AcDbEntity
  8
0
100
AcDbCircle
 10
-25.7581151621545
 20
12.9269333695238
 30
0.0
 40
1.6529378346238301
100
AcDbArc
 50
97.13480694565109
 51
105.66725664583585
  0
ARC
  5
11C
330
17
100
AcDbEntity
  8
0
100
AcDbCircle
 10
-25.9719478252444
 20
13.6879091883581
 30
0.0
 40
0.862076856681194
100
AcDbArc
 50
105.64159040101362
 51
134.4413636610839
  0
ARC
  5
11D
330
17
100
AcDbEntity
  8
0
100
AcDbCircle
 10
-25.7592588544324
 20
13.506334078379501
 30
0.0
 40
1.1416444655931302
100
AcDbArc
 50
135.68240343792274
 51
147.74256423075465
  0
LINE
  5
11E
330
17
100
AcDbEntity
  8
0
100
AcDbLine
 10
-26.724700272443098
 20
14.11565743605511
 30
0.0
 11
-27.92335038946029
 21
14.584335748949126
 31
0.0
  0
LINE
  5
11F
330
17
100
AcDbEntity
  8
0
100
AcDbLine
 10
-27.923350389460307
 20
14.584335748949103
 30
0.0
 11
-28.141844977146892
 21
14.025533355296696
 31
0.0
  0
LINE
  5
120
330
17
100
AcDbEntity
  8
0
100
AcDbLine
 10
-28.14184497714689
 20
14.025533355296728
 30
0.0
 11
-26.914340151427808
 21
13.545572704044375
 31
0.0
  0
ARC
  5
121
330
17
100
AcDbEntity
  8
0
100
AcDbCircle
 10
-24.789324216809398
 20
13.3159273275252
 30
0.0
 40
2.13738852840066
100
AcDbArc
 50
173.83211892616833
 51
180.49317529326427
  0
SPLINE
  5
122
330
17
100
AcDbEntity
  8
0
100
AcDbSpline
 70
0
 71
2
 72
6
 73
3
 74
0
 40
0.0
 40
0.0
 40
0.0
 40
0.9080630840055309
 40
0.9080630840055309
 40
0.9080630840055309
 10
-26.9270833333334
 20
13.2975260416667
 30
0.0
 10
-26.9270833333334
 20
12.96350544110474
 30
0.0
 10
-26.84655808289058
 20
12.73148349110361
 30
0.0
  0
LINE
  5
123
330
17
100
AcDbEntity
  8
0
100
AcDbLine
 10
-26.846558086911067
 20
12.731483494966609
 30
0.0
 11
-27.76573955188112
 21
11.774835046604718
 31
0.0
  0
LINE
  5
124
330
17
100
AcDbEntity
  8
0
100
AcDbLine
 10
-27.765739551881104
 20
11.774835046604696
 30
0.0
 11
-27.333087716436445
 21
11.359127951059856
 31
0.0
  0
ARC
  5
125
330
17
100
AcDbEntity
  8
0
100
AcDbCircle
 10
15.4638402094592
 20
-12.0470337970163
 30
0.0
 40
0.853939845951103
100
AcDbArc
 50
246.50983615475587
 51
270.6750297893739
  0
ARC
  5
126
330
17
100
AcDbEntity
  8
0
100
AcDbCircle
 10
16.2370623729493
 20
-10.446259155653399
 30
0.0
 40
2.63151420770432
100
AcDbArc
 50
235.7596423870473
 51
244.96168249569283
  0
LINE
  5
127
330
17
100
AcDbEntity
  8
0
100
AcDbLine
 10
14.756399295065158
 20
-12.621691038094271
 30
0.0
 11
14.465508252963513
 21
-13.03236074459071
 31
0.0
  0
ARC
  5
128
330
17
100
AcDbEntity
  8
0
100
AcDbCircle
 10
16.8929816043258
 20
-10.7614001943369
 30
0.0
 40
3.32413728542957
100
AcDbArc
 50
223.09208592833411
 51
230.78507328971222
  0
ARC
  5
129
330
17
100
AcDbEntity
  8
0
100
AcDbCircle
 10
16.2700524422893
 20
-11.5236474516269
 30
0.0
 40
2.34006396392256
100
AcDbArc
 50
230.80261686186438
 51
242.88216496876683
  0
ARC
  5
12A
330
17
100
AcDbEntity
  8
0
100
AcDbCircle
 10
16.2978281060496
 20
-11.457385067338
 30
0.0
 40
2.4121864181215
100
AcDbArc
 50
243.01237897689884
 51
255.92822424439998
  0
ARC
  5
12B
330
17
100
AcDbEntity
  8
0
100
AcDbCircle
 10
16.2974817173158
 20
-11.4245860583497
 30
0.0
 40
2.44470011767214
100
AcDbArc
 50
256.1230298241942
 51
270.5909221757253
  0
SPLINE
  5
12C
330
17
100
AcDbEntity
  8
0
100
AcDbSpline
 70
0
 71
2
 72
6
 73
3
 74
0
 40
0.0
 40
0.0
 40
0.0
 40
1.0
 40
1.0
 40
1.0
 10
16.3226996527778
 20
-13.86962890625
 30
0.0
 10
17.021484375
 20
-13.86962890625
 30
0.0
 10
17.3955620659723
 20
-13.5401746961805
 30
0.0
  0
SPLINE
  5
12D
330
17
100
AcDbEntity
  8
0
100
AcDbSpline
 70
0
 71
2
 72
6
 73
3
 74
0
 40
0.0
 40
0.0
 40
0.0
 40
1.0
 40
1.0
 40
1.0
 10
17.3955620659723
 20
-13.5401746961805
 30
0.0
 10
17.7696397569444
 20
-13.2107204861111
 30
0.0
 10
17.7696397569444
 20
-12.6220703125
 30
0.0
  0
SPLINE
  5
12E
330
17
100
AcDbEntity
  8
0
100
AcDbSpline
 70
0
 71
2
 72
6
 73
3
 74
0
 40
0.0
 40
0.0
 40
0.0
 40
1.0
 40
1.0
 40
1.0
 10
17.7696397569444
 20
-12.6220703125
 30
0.0
 10
17.7696397569444
 20
-12.0998806423611
 30
0.0
 10
17.5740559895834
 20
-11.1751302083333
 30
0.0
  0
LINE
  5
12F
330
17
100
AcDbEntity
  8
0
100
AcDbLine
 10
17.574055989583318
 20
-11.175130208333316
 30
0.0
 11
16.51828342013888
 21
-6.190592447916675
 31
0.0
  0
ARC
  5
130
330
17
100
AcDbEntity
  8
0
100
AcDbCircle
 10
21.058857954582297
 20
-5.0853513688829395
 30
0.0
 40
4.6731547102166
100
AcDbArc
 50
-168.33593203090743
 51
-166.31943623698916
  0
ARC
  5
131
330
17
100
AcDbEntity
  8
0
100
AcDbCircle
 10
20.3300630503566
 20
-5.22929128528507
 30
0.0
 40
3.93029982043444
100
AcDbArc
 50
189.4195418150812
 51
191.75700582965143
  0
ARC
  5
132
330
17
100
AcDbEntity
  8
0
100
AcDbCircle
 10
18.8008650082141
 20
-5.4747654741525595
 30
0.0
 40
2.38149652614061
100
AcDbArc
 50
186.50011742007422
 51
189.6146071261521
  0
ARC
  5
133
330
17
100
AcDbEntity
  8
0
100
AcDbCircle
 10
17.3063207084042
 20
-5.638134107251539
 30
0.0
 40
0.877939995754306
100
AcDbArc
 50
181.97607489894045
 51
186.9485493173067
  0
SPLINE
  5
134
330
17
100
AcDbEntity
  8
0
100
AcDbSpline
 70
0
 71
2
 72
6
 73
3
 74
0
 40
0.0
 40
0.0
 40
0.0
 40
1.0
 40
1.0
 40
1.0
 10
16.4290364583334
 20
-5.66840277777778
 30
0.0
 10
16.4290364583334
 20
-5.50130208333333
 30
0.0
 10
16.4641655815972
 20
-5.40066189236111
 30
0.0
  0
ARC
  5
135
330
17
100
AcDbEntity
  8
0
100
AcDbCircle
 10
16.7495126475409
 20
-5.4905028781868
 30
0.0
 40
0.29874757208765396
100
AcDbArc
 50
125.27222115160914
 51
162.52348984542272
  0
ARC
  5
136
330
17
100
AcDbEntity
  8
0
100
AcDbCircle
 10
16.8312822487351
 20
-5.65406644531151
 30
0.0
 40
0.480628151181774
100
AcDbArc
 50
96.19218232469721
 51
121.96689680373163
  0
ARC
  5
137
330
17
100
AcDbEntity
  8
0
100
AcDbCircle
 10
17.052619301590102
 20
-7.28642726303933
 30
0.0
 40
2.12869125879193
100
AcDbArc
 50
89.35590413523275
 51
97.37609755420804
  0
LINE
  5
138
330
17
100
AcDbEntity
  8
0
100
AcDbLine
 10
17.0765501643913
 20
-5.15760633680555
 30
0.0
 11
17.3310004340278
 21
-5.15760633680555
 31
0.0
  0
LINE
  5
139
330
17
100
AcDbEntity
  8
0
100
AcDbLine
 10
17.331000434027843
 20
-5.157606336805543
 30
0.0
 11
17.218967013888953
 21
-4.515787760416651
 31
0.0
  0
LINE
  5
13A
330
17
100
AcDbEntity
  8
0
100
AcDbLine
 10
17.2189670138889
 20
-4.51578776041666
 30
0.0
 11
14.2814127604167
 21
-4.51578776041666
 31
0.0
  0
LINE
  5
13B
330
17
100
AcDbEntity
  8
0
100
AcDbLine
 10
14.281412760416671
 20
-4.515787760416677
 30
0.0
 11
15.72835288896
 21
-11.18652354988219
 31
0.0
  0
ARC
  5
13C
330
17
100
AcDbEntity
  8
0
100
AcDbCircle
 10
3.37671477580309
 20
-13.8955625606101
 30
0.0
 40
12.6451309261466
100
AcDbArc
 50
9.509306519586314
 51
12.37059534592083
  0
ARC
  5
13D
330
17
100
AcDbEntity
  8
0
100
AcDbCircle
 10
12.552049020983201
 20
-12.3714288040109
 30
0.0
 40
3.34374328539735
100
AcDbArc
 50
0.39064787094420383
 51
9.725996594271571
  0
SPLINE
  5
13E
330
17
100
AcDbEntity
  8
0
100
AcDbSpline
 70
0
 71
2
 72
6
 73
3
 74
0
 40
0.0
 40
0.0
 40
0.0
 40
1.0
 40
1.0
 40
1.0
 10
15.8954535590278
 20
-12.3486328125
 30
0.0
 10
15.8954535590278
 20
-12.6163736979167
 30
0.0
 10
15.7853190104166
 20
-12.7587890625
 30
0.0
  0
SPLINE
  5
13F
330
17
100
AcDbEntity
  8
0
100
AcDbSpline
 70
0
 71
2
 72
6
 73
3
 74
0
 40
0.0
 40
0.0
 40
0.0
 40
1.0
 40
1.0
 40
1.0
 10
15.7853190104166
 20
-12.7587890625
 30
0.0
 10
15.6751844618056
 20
-12.9012044270833
 30
0.0
 10
15.4739040798611
 20
-12.9012044270833
 30
0.0
  0
LINE
  5
140
330
17
100
AcDbEntity
  8
0
100
AcDbLine
 10
29.9538845486111
 20
-9.350000000000001
 30
0.0
 11
29.9538845486111
 21
-8.75
 31
0.0
  0
LINE
  5
141
330
17
100
AcDbEntity
  8
0
100
AcDbLine
 10
29.9538845486111
 20
-8.75
 30
0.0
 11
28.4538845486111
 21
-8.75
 31
0.0
  0
LINE
  5
142
330
17
100
AcDbEntity
  8
0
100
AcDbLine
 10
28.4538845486111
 20
-8.75
 30
0.0
 11
28.4538845486111
 21
-9.350000000000001
 31
0.0
  0
LINE
  5
143
330
17
100
AcDbEntity
  8
0
100
AcDbLine
 10
28.4538845486111
 20
-9.350000000000001
 30
0.0
 11
29.9538845486111
 21
-9.350000000000001
 31
0.0
  0
LINE
  5
144
330
17
100
AcDbEntity
  8
0
100
AcDbLine
 10
27.112393124065967
 20
-15.617003432097455
 30
0.0
 11
27.611540317845588
 21
-15.240869042627379
 31
0.0
  0
LINE
  5
145
330
17
100
AcDbEntity
  8
0
100
AcDbLine
 10
27.611540317845574
 20
-15.240869042627422
 30
0.0
 11
26.85927153890551
 21
-14.242574655068294
 31
0.0
  0
LINE
  5
146
330
17
100
AcDbEntity
  8
0
100
AcDbLine
 10
26.859271538905485
 20
-14.24257465506828
 30
0.0
 11
26.36012434512598
 21
-14.61870904453827
 31
0.0
  0
LINE
  5
147
330
17
100
AcDbEntity
  8
0
100
AcDbLine
 10
26.36012434512596
 20
-14.618709044538331
 30
0.0
 11
27.11239312406604
 21
-15.61700343209747
 31
0.0
  0
ARC
  5
148
330
17
100
AcDbEntity
  8
0
100
AcDbCircle
 10
-38.2038845486111
 20
-9.05
 30
0.0
 40
2.0
100
AcDbArc
 50
-81.37307344132134
 51
-8.626926558678761
  0
LINE
  5
149
330
17
100
AcDbEntity
  8
0
100
AcDbLine
 10
-36.2265125552826
 20
-9.350000000000001
 30
0.0
 11
-29.4538845486111
 21
-9.350000000000001
 31
0.0
  0
LINE
  5
14A
330
17
100
AcDbEntity
  8
0
100
AcDbLine
 10
-29.4538845486111
 20
-9.350000000000001
 30
0.0
 11
-29.4538845486111
 21
-8.75
 31
0.0
  0
LINE
  5
14B
330
17
100
AcDbEntity
  8
0
100
AcDbLine
 10
-29.4538845486111
 20
-8.75
 30
0.0
 11
-36.2265125552826
 21
-8.75
 31
0.0
  0
ARC
  5
14C
330
17
100
AcDbEntity
  8
0
100
AcDbCircle
 10
-38.2038845486111
 20
-9.05
 30
0.0
 40
2.0
100
AcDbArc
 50
8.626926558678761
 51
81.37307344132141
  0
LINE
  5
14D
330
17
100
AcDbEntity
  8
0
100
AcDbLine
 10
-37.9038845486111
 20
-7.07262800667149
 30
0.0
 11
-37.9038845486111
 21
-5.0
 31
0.0
  0
LINE
  5
14E
330
17
100
AcDbEntity
  8
0
100
AcDbLine
 10
-37.9038845486111
 20
-5.0
 30
0.0
 11
-38.503884548611104
 21
-5.0
 31
0.0
  0
LINE
  5
14F
330
17
100
AcDbEntity
  8
0
100
AcDbLine
 10
-38.503884548611104
 20
-5.0
 30
0.0
 11
-38.503884548611104
 21
-7.07262800667149
 31
0.0
  0
ARC
  5
150
330
17
100
AcDbEntity
  8
0
100
AcDbCircle
 10
-38.2038845486111
 20
-9.05
 30
0.0
 40
2.0
100
AcDbArc
 50
-261.37307344132125
 51
-98.62692655867886
  0
LINE
  5
151
330
17
100
AcDbEntity
  8
0
100
AcDbLine
 10
-38.503884548611104
 20
-11.0273719933285
 30
0.0
 11
-38.503884548611104
 21
-11.05
 31
0.0
  0
LINE
  5
152
330
17
100
AcDbEntity
  8
0
100
AcDbLine
 10
-38.503884548611104
 20
-11.05
 30
0.0
 11
-37.9038845486111
 21
-11.05
 31
0.0
  0
LINE
  5
153
330
17
100
AcDbEntity
  8
0
100
AcDbLine
 10
-37.9038845486111
 20
-11.05
 30
0.0
 11
-37.9038845486111
 21
-11.0273719933285
 31
0.0
  0
CIRCLE
  5
154
330
17
100
AcDbEntity
  8
0
100
AcDbCircle
 10
-38.2038845486111
 20
-9.05
 30
0.0
 40
1.4
  0
LINE
  5
155
330
17
100
AcDbEntity
  8
0
100
AcDbLine
 10
25.02393233696711
 20
-15.219018354460736
 30
0.0
 11
24.42952201428269
 21
-15.412153975945065
 31
0.0
  0
LINE
  5
156
330
17
100
AcDbEntity
  8
0
100
AcDbLine
 10
24.429522014282686
 20
-15.412153975945106
 30
0.0
 11
24.81579325725135
 21
-16.600974621313988
 31
0.0
  0
LINE
  5
157
330
17
100
AcDbEntity
  8
0
100
AcDbLine
 10
24.81579325725132
 20
-16.600974621314055
 30
0.0
 11
25.410203579935803
 21
-16.407838999829707
 31
0.0
  0
LINE
  5
158
330
17
100
AcDbEntity
  8
0
100
AcDbLine
 10
25.410203579935757
 20
-16.407838999829714
 30
0.0
 11
25.023932336967054
 21
-15.219018354460713
 31
0.0
  0
ARC
  5
159
330
17
100
AcDbEntity
  8
0
100
AcDbCircle
 10
-23.9053415721709
 20
-11.1260220178359
 30
0.0
 40
1.82243485531522
100
AcDbArc
 50
252.33105741041572
 51
270.3722251299734
  0
ARC
  5
15A
330
17
100
AcDbEntity
  8
0
100
AcDbCircle
 10
-23.749624446734103
 20
-10.6450953975409
 30
0.0
 40
2.3275758333664602
100
AcDbArc
 50
238.86426882253545
 51
252.27193112147395
  0
ARC
  5
15B
330
17
100
AcDbEntity
  8
0
100
AcDbCircle
 10
-23.7580975555912
 20
-10.6557239095177
 30
0.0
 40
2.31382732320065
100
AcDbArc
 50
226.10487523938963
 51
238.9077702056773
  0
ARC
  5
15C
330
17
100
AcDbEntity
  8
0
100
AcDbCircle
 10
-23.556940449318002
 20
-10.437356861783599
 30
0.0
 40
2.61032889219377
100
AcDbArc
 50
215.762168322257
 51
226.2463729491348
  0
ARC
  5
15D
330
17
100
AcDbEntity
  8
0
100
AcDbCircle
 10
-25.1223829280117
 20
-12.3723076578434
 30
0.0
 40
0.687829322928591
100
AcDbArc
 50
143.4709197997769
 51
164.81212393684876
  0
ARC
  5
15E
330
17
100
AcDbEntity
  8
0
100
AcDbCircle
 10
-24.8106386873282
 20
-12.479917566355201
 30
0.0
 40
1.0177167100358602
100
AcDbArc
 50
163.56301701780106
 51
180.30589356166877
  0
SPLINE
  5
15F
330
17
100
AcDbEntity
  8
0
100
AcDbSpline
 70
0
 71
2
 72
6
 73
3
 74
0
 40
0.0
 40
0.0
 40
0.0
 40
1.0
 40
1.0
 40
1.0
 10
-25.8284505208333
 20
-12.4853515625
 30
0.0
 10
-25.8284505208333
 20
-12.7056206597222
 30
0.0
 10
-25.68603515625
 20
-12.9486762152778
 30
0.0
  0
SPLINE
  5
160
330
17
100
AcDbEntity
  8
0
100
AcDbSpline
 70
0
 71
2
 72
6
 73
3
 74
0
 40
0.0
 40
0.0
 40
0.0
 40
1.0
 40
1.0
 40
1.0
 10
-25.68603515625
 20
-12.9486762152778
 30
0.0
 10
-25.5436197916666
 20
-13.1917317708333
 30
0.0
 10
-25.250244140625
 20
-13.3968098958333
 30
0.0
  0
SPLINE
  5
161
330
17
100
AcDbEntity
  8
0
100
AcDbSpline
 70
0
 71
2
 72
6
 73
3
 74
0
 40
0.0
 40
0.0
 40
0.0
 40
1.0
 40
1.0
 40
1.0
 10
-25.250244140625
 20
-13.3968098958333
 30
0.0
 10
-24.9568684895833
 20
-13.6018880208333
 30
0.0
 10
-24.5030381944444
 20
-13.7357584635417
 30
0.0
  0
SPLINE
  5
162
330
17
100
AcDbEntity
  8
0
100
AcDbSpline
 70
0
 71
2
 72
6
 73
3
 74
0
 40
0.0
 40
0.0
 40
0.0
 40
1.0
 40
1.0
 40
1.0
 10
-24.5030381944444
 20
-13.7357584635417
 30
0.0
 10
-24.0492078993055
 20
-13.86962890625
 30
0.0
 10
-23.4244791666667
 20
-13.86962890625
 30
0.0
  0
ARC
  5
163
330
17
100
AcDbEntity
  8
0
100
AcDbCircle
 10
-23.398860276752803
 20
-10.386395771089799
 30
0.0
 40
3.48277583637073
100
AcDbArc
 50
269.5786019069015
 51
287.0927035843083
  0
ARC
  5
164
330
17
100
AcDbEntity
  8
0
100
AcDbCircle
 10
-23.0988736332528
 20
-11.3343859832992
 30
0.0
 40
2.48739351505334
100
AcDbArc
 50
286.90606405522476
 51
309.66842139412483
  0
ARC
  5
165
330
17
100
AcDbEntity
  8
0
100
AcDbCircle
 10
-22.9197809215857
 20
-11.5907209355552
 30
0.0
 40
2.17598180573736
100
AcDbArc
 50
310.34714894046954
 51
336.30700577407504
  0
SPLINE
  5
166
330
17
100
AcDbEntity
  8
0
100
AcDbSpline
 70
0
 71
2
 72
6
 73
3
 74
0
 40
0.0
 40
0.0
 40
0.0
 40
1.0
 40
1.0
 40
1.0
 10
-20.926513671875
 20
-12.4654134114583
 30
0.0
 10
-20.712890625
 20
-11.9935438368056
 30
0.0
 10
-20.712890625
 20
-11.3593207465278
 30
0.0
  0
ARC
  5
167
330
17
100
AcDbEntity
  8
0
100
AcDbCircle
 10
-24.7509745254976
 20
-11.391544964995099
 30
0.0
 40
4.03876191904743
100
AcDbArc
 50
0.45721499880491084
 51
13.99579860495652
  0
ARC
  5
168
330
17
100
AcDbEntity
  8
0
100
AcDbCircle
 10
-25.266430849864697
 20
-11.4932720560474
 30
0.0
 40
4.56432805289444
100
AcDbArc
 50
13.669942100560956
 51
26.592346767176842
  0
ARC
  5
169
330
17
100
AcDbEntity
  8
0
100
AcDbCircle
 10
-25.4084779848803
 20
-11.560941426593
 30
0.0
 40
4.7220342203933106
100
AcDbArc
 50
26.555033717304987
 51
39.53985189803838
  0
ARC
  5
16A
330
17
100
AcDbEntity
  8
0
100
AcDbCircle
 10
-24.884242676969098
 20
-11.117409238931499
 30
0.0
 40
4.03571099487284
100
AcDbArc
 50
39.421895734650036
 51
55.02717646150046
  0
ARC
  5
16B
330
17
100
AcDbEntity
  8
0
100
AcDbCircle
 10
-24.7885036729608
 20
-11.0009704238153
 30
0.0
 40
3.88604474738969
100
AcDbArc
 50
55.199835235133804
 51
72.10752055708306
  0
SPLINE
  5
16C
330
17
100
AcDbEntity
  8
0
100
AcDbSpline
 70
0
 71
2
 72
6
 73
3
 74
0
 40
0.0
 40
0.0
 40
0.0
 40
1.0
 40
1.0
 40
1.0
 10
-23.5944281684027
 20
-7.302381727430561
 30
0.0
 10
-24.1612413194445
 20
-7.11534288194445
 30
0.0
 10
-24.83154296875
 20
-7.11534288194445
 30
0.0
  0
SPLINE
  5
16D
330
17
100
AcDbEntity
  8
0
100
AcDbSpline
 70
0
 71
2
 72
6
 73
3
 74
0
 40
0.0
 40
0.0
 40
0.0
 40
1.0
 40
1.0
 40
1.0
 10
-24.83154296875
 20
-7.11534288194445
 30
0.0
 10
-25.703125
 20
-7.11534288194445
 30
0.0
 10
-26.1844889322916
 20
-7.49226888020834
 30
0.0
  0
SPLINE
  5
16E
330
17
100
AcDbEntity
  8
0
100
AcDbSpline
 70
0
 71
2
 72
6
 73
3
 74
0
 40
0.0
 40
0.0
 40
0.0
 40
1.0
 40
1.0
 40
1.0
 10
-26.1844889322916
 20
-7.49226888020834
 30
0.0
 10
-26.6658528645833
 20
-7.86919487847223
 30
0.0
 10
-26.6658528645833
 20
-8.545193142361121
 30
0.0
  0
SPLINE
  5
16F
330
17
100
AcDbEntity
  8
0
100
AcDbSpline
 70
0
 71
2
 72
6
 73
3
 74
0
 40
0.0
 40
0.0
 40
0.0
 40
1.0
 40
1.0
 40
1.0
 10
-26.6658528645833
 20
-8.545193142361121
 30
0.0
 10
-26.6658528645833
 20
-9.038899739583341
 30
0.0
 10
-26.3924153645833
 20
-9.48988172743056
 30
0.0
  0
SPLINE
  5
170
330
17
100
AcDbEntity
  8
0
100
AcDbSpline
 70
0
 71
2
 72
6
 73
3
 74
0
 40
0.0
 40
0.0
 40
0.0
 40
1.0
 40
1.0
 40
1.0
 10
-26.3924153645833
 20
-9.48988172743056
 30
0.0
 10
-26.1189778645833
 20
-9.940863715277779
 30
0.0
 10
-25.6385633680556
 20
-10.2817111545139
 30
0.0
  0
SPLINE
  5
171
330
17
100
AcDbEntity
  8
0
100
AcDbSpline
 70
0
 71
2
 72
6
 73
3
 74
0
 40
0.0
 40
0.0
 40
0.0
 40
1.0
 40
1.0
 40
1.0
 10
-25.6385633680556
 20
-10.2817111545139
 30
0.0
 10
-25.1581488715277
 20
-10.62255859375
 30
0.0
 10
-24.4935438368056
 20
-10.8247884114583
 30
0.0
  0
SPLINE
  5
172
330
17
100
AcDbEntity
  8
0
100
AcDbSpline
 70
0
 71
2
 72
6
 73
3
 74
0
 40
0.0
 40
0.0
 40
0.0
 40
1.0
 40
1.0
 40
1.0
 10
-24.4935438368056
 20
-10.8247884114583
 30
0.0
 10
-23.8289388020834
 20
-11.027018229166702
 30
0.0
 10
-23.0447048611111
 20
-11.027018229166702
 30
0.0
  0
LINE
  5
173
330
17
100
AcDbEntity
  8
0
100
AcDbLine
 10
-23.0447048611111
 20
-11.027018229166702
 30
0.0
 11
-22.8253851736408
 21
-11.027018229166702
 31
0.0
  0
ARC
  5
174
330
17
100
AcDbEntity
  8
0
100
AcDbCircle
 10
-22.821939722466
 20
-9.06926540941435
 30
0.0
 40
1.95772629112257
100
AcDbArc
 50
269.899164442312
 51
276.6665169541753
  0
ARC
  5
175
330
17
100
AcDbEntity
  8
0
100
AcDbCircle
 10
-24.759904952071
 20
-11.3227488862412
 30
0.0
 40
2.18717339580547
100
AcDbArc
 50
1.778122314935499
 51
8.121655460716648
  0
ARC
  5
176
330
17
100
AcDbEntity
  8
0
100
AcDbCircle
 10
-29.757964472169
 20
-11.4905836753063
 30
0.0
 40
7.188018732470169
100
AcDbArc
 50
0.10787134470640357
 51
1.8791041249679548
  0
SPLINE
  5
177
330
17
100
AcDbEntity
  8
0
100
AcDbSpline
 70
0
 71
2
 72
6
 73
3
 74
0
 40
0.0
 40
0.0
 40
0.0
 40
1.0
 40
1.0
 40
1.0
 10
-22.5699869791666
 20
-11.47705078125
 30
0.0
 10
-22.5699869791666
 20
-12.1834309895833
 30
0.0
 10
-22.8994411892361
 20
-12.566053602430602
 30
0.0
  0
SPLINE
  5
178
330
17
100
AcDbEntity
  8
0
100
AcDbSpline
 70
0
 71
2
 72
6
 73
3
 74
0
 40
0.0
 40
0.0
 40
0.0
 40
1.0
 40
1.0
 40
1.0
 10
-22.8994411892361
 20
-12.566053602430602
 30
0.0
 10
-23.2288953993055
 20
-12.9486762152778
 30
0.0
 10
-23.8935004340277
 20
-12.9486762152778
 30
0.0
  0
SPLINE
  5
179
330
17
100
AcDbEntity
  8
0
100
AcDbSpline
 70
0
 71
2
 72
6
 73
3
 74
0
 40
0.0
 40
0.0
 40
0.0
 40
1.0
 40
1.0
 40
1.0
 10
-24.3207465277777
 20
-7.84640842013889
 30
0.0
 10
-24.0245225694444
 20
-7.84640842013889
 30
0.0
 10
-23.7577311197916
 20
-8.068576388888891
 30
0.0
  0
SPLINE
  5
17A
330
17
100
AcDbEntity
  8
0
100
AcDbSpline
 70
0
 71
2
 72
6
 73
3
 74
0
 40
0.0
 40
0.0
 40
0.0
 40
1.0
 40
1.0
 40
1.0
 10
-23.7577311197916
 20
-8.068576388888891
 30
0.0
 10
-23.4909396701389
 20
-8.29074435763889
 30
0.0
 10
-23.2773166232639
 20
-8.64678276909723
 30
0.0
  0
ARC
  5
17B
330
17
100
AcDbEntity
  8
0
100
AcDbCircle
 10
-27.003159885524298
 20
-10.8449124428173
 30
0.0
 40
4.3263967233714
100
AcDbArc
 50
18.87352357868662
 51
30.539260490627093
  0
ARC
  5
17C
330
17
100
AcDbEntity
  8
0
100
AcDbCircle
 10
-27.7642341714412
 20
-11.1625686065738
 30
0.0
 40
5.1498280974804995
100
AcDbArc
 50
9.409768378201921
 51
19.478608803398853
  0
LINE
  5
17D
330
17
100
AcDbEntity
  8
0
100
AcDbLine
 10
-22.6839192708333
 20
-10.3206380208333
 30
0.0
 11
-22.7902589796153
 21
-10.3206380208333
 31
0.0
  0
ARC
  5
17E
330
17
100
AcDbEntity
  8
0
100
AcDbCircle
 10
-22.8180558219156
 20
-7.45550701300483
 30
0.0
 40
2.86466741227139
100
AcDbArc
 50
253.52078815296164
 51
270.55591109245825
  0
ARC
  5
17F
330
17
100
AcDbEntity
  8
0
100
AcDbCircle
 10
-23.0455623208825
 20
-8.19766048110027
 30
0.0
 40
2.0872214328461296
100
AcDbArc
 50
232.82110801600905
 51
253.7303496609284
  0
ARC
  5
180
330
17
100
AcDbEntity
  8
0
100
AcDbCircle
 10
-23.3133011796404
 20
-8.55890574089451
 30
0.0
 40
1.63664160759081
100
AcDbArc
 50
208.0518874583256
 51
232.64678685004446
  0
ARC
  5
181
330
17
100
AcDbEntity
  8
0
100
AcDbCircle
 10
-23.4592821810421
 20
-8.66004987789885
 30
0.0
 40
1.4608644133536899
100
AcDbArc
 50
178.99611767654525
 51
207.2432868088077
  0
SPLINE
  5
182
330
17
100
AcDbEntity
  8
0
100
AcDbSpline
 70
0
 71
2
 72
6
 73
3
 74
0
 40
0.0
 40
0.0
 40
0.0
 40
1.0
 40
1.0
 40
1.0
 10
-24.9207899305556
 20
-8.63444010416667
 30
0.0
 10
-24.9207899305556
 20
-8.26036241319445
 30
0.0
 10
-24.76318359375
 20
-8.05338541666667
 30
0.0
  0
SPLINE
  5
183
330
17
100
AcDbEntity
  8
0
100
AcDbSpline
 70
0
 71
2
 72
6
 73
3
 74
0
 40
0.0
 40
0.0
 40
0.0
 40
1.0
 40
1.0
 40
1.0
 10
-24.76318359375
 20
-8.05338541666667
 30
0.0
 10
-24.6055772569444
 20
-7.84640842013889
 30
0.0
 10
-24.3207465277777
 20
-7.84640842013889
 30
0.0
  0
LINE
  5
184
330
17
100
AcDbEntity
  8
0
100
AcDbLine
 10
23.6249457465278
 20
-15.43212890625
 30
0.0
 11
22.9999457465278
 21
-15.43212890625
 31
0.0
  0
LINE
  5
185
330
17
100
AcDbEntity
  8
0
100
AcDbLine
 10
22.9999457465278
 20
-15.43212890625
 30
0.0
 11
22.9999457465278
 21
-16.68212890625
 31
0.0
  0
LINE
  5
186
330
17
100
AcDbEntity
  8
0
100
AcDbLine
 10
22.9999457465278
 20
-16.68212890625
 30
0.0
 11
23.6249457465278
 21
-16.68212890625
 31
0.0
  0
LINE
  5
187
330
17
100
AcDbEntity
  8
0
100
AcDbLine
 10
23.6249457465278
 20
-16.68212890625
 30
0.0
 11
23.6249457465278
 21
-15.43212890625
 31
0.0
  0
ARC
  5
188
330
17
100
AcDbEntity
  8
0
100
AcDbCircle
 10
51.4615885416667
 20
13.185221354166599
 30
0.0
 40
3.03059895833334
100
AcDbArc
 50
-69.56851767509121
 51
-8.306491628908695
  0
LINE
  5
189
330
17
100
AcDbEntity
  8
0
100
AcDbLine
 10
52.51953125
 20
10.345276412423
 30
0.0
 11
52.51953125
 21
11.2532552083333
 31
0.0
  0
SPLINE
  5
18A
330
17
100
AcDbEntity
  8
0
100
AcDbSpline
 70
0
 71
2
 72
6
 73
3
 74
0
 40
0.0
 40
0.0
 40
0.0
 40
1.0
 40
1.0
 40
1.0
 10
52.51953125
 20
11.2532552083333
 30
0.0
 10
52.51953125
 20
11.7415364583333
 30
0.0
 10
52.6513671875
 20
12.0361328125
 30
0.0
  0
SPLINE
  5
18B
330
17
100
AcDbEntity
  8
0
100
AcDbSpline
 70
0
 71
2
 72
6
 73
3
 74
0
 40
0.0
 40
0.0
 40
0.0
 40
1.0
 40
1.0
 40
1.0
 10
52.6513671875
 20
12.0361328125
 30
0.0
 10
52.783203125
 20
12.3307291666667
 30
0.0
 10
53.017578125
 20
12.4886067708333
 30
0.0
  0
ARC
  5
18C
330
17
100
AcDbEntity
  8
0
100
AcDbCircle
 10
53.7581264254657
 20
11.3602586999413
 30
0.0
 40
1.35021871596086
100
AcDbArc
 50
98.312656623367
 51
123.27736812292491
  0
ARC
  5
18D
330
17
100
AcDbEntity
  8
0
100
AcDbCircle
 10
54.2059826371867
 20
8.5831622952297
 30
0.0
 40
4.164025496304189
100
AcDbArc
 50
89.6899711580928
 51
98.88586152433108
  0
LINE
  5
18E
330
17
100
AcDbEntity
  8
0
100
AcDbLine
 10
54.2285148972067
 20
12.7473958333333
 30
0.0
 11
54.4603947807488
 21
12.7473958333333
 31
0.0
  0
ARC
  5
18F
330
17
100
AcDbEntity
  8
0
100
AcDbCircle
 10
51.4615885416667
 20
13.185221354166599
 30
0.0
 40
3.03059895833334
100
AcDbArc
 50
8.306491628910603
 51
171.69350837108965
  0
LINE
  5
190
330
17
100
AcDbEntity
  8
0
100
AcDbLine
 10
54.4603947807488
 20
13.623046875
 30
0.0
 11
48.4627823025845
 21
13.623046875
 31
0.0
  0
ARC
  5
191
330
17
100
AcDbEntity
  8
0
100
AcDbCircle
 10
51.4615885416667
 20
13.185221354166599
 30
0.0
 40
3.03059895833334
100
AcDbArc
 50
-171.69350837109158
 51
-110.23458685920927
  0
LINE
  5
192
330
17
100
AcDbEntity
  8
0
100
AcDbLine
 10
48.4627823025845
 20
12.7473958333333
 30
0.0
 11
48.7044273849521
 21
12.7473958333333
 31
0.0
  0
ARC
  5
193
330
17
100
AcDbEntity
  8
0
100
AcDbCircle
 10
48.719199123638795
 20
8.560160298667329
 30
0.0
 40
4.18709059864585
100
AcDbArc
 50
81.12379823005843
 51
90.20213146502552
  0
ARC
  5
194
330
17
100
AcDbEntity
  8
0
100
AcDbCircle
 10
49.1833246672672
 20
11.3931362500266
 30
0.0
 40
1.31559407517563
100
AcDbArc
 50
56.424382226925054
 51
82.0571755374653
  0
SPLINE
  5
195
330
17
100
AcDbEntity
  8
0
100
AcDbSpline
 70
0
 71
2
 72
6
 73
3
 74
0
 40
0.0
 40
0.0
 40
0.0
 40
1.0
 40
1.0
 40
1.0
 10
49.9104817708333
 20
12.4886067708333
 30
0.0
 10
50.1399739583333
 20
12.3307291666667
 30
0.0
 10
50.2766927083333
 20
12.0361328125
 30
0.0
  0
SPLINE
  5
196
330
17
100
AcDbEntity
  8
0
100
AcDbSpline
 70
0
 71
2
 72
6
 73
3
 74
0
 40
0.0
 40
0.0
 40
0.0
 40
1.0
 40
1.0
 40
1.0
 10
50.2766927083333
 20
12.0361328125
 30
0.0
 10
50.4134114583333
 20
11.7415364583333
 30
0.0
 10
50.4134114583333
 20
11.2532552083333
 30
0.0
  0
LINE
  5
197
330
17
100
AcDbEntity
  8
0
100
AcDbLine
 10
50.4134114583333
 20
11.2532552083333
 30
0.0
 11
50.4134114583333
 21
10.341657595742
 31
0.0
  0
ARC
  5
198
330
17
100
AcDbEntity
  8
0
100
AcDbCircle
 10
51.4615885416667
 20
13.185221354166599
 30
0.0
 40
3.63059895833334
100
AcDbArc
 50
-433.0584375456575
 51
-106.7805247381178
  0
LINE
  5
199
330
17
100
AcDbEntity
  8
0
100
AcDbLine
 10
50.4134114583333
 20
9.70922169964624
 30
0.0
 11
50.4134114583333
 21
1.1197916666666599
 31
0.0
  0
SPLINE
  5
19A
330
17
100
AcDbEntity
  8
0
100
AcDbSpline
 70
0
 71
2
 72
6
 73
3
 74
0
 40
0.0
 40
0.0
 40
0.0
 40
1.0
 40
1.0
 40
1.0
 10
50.4134114583333
 20
1.11979166666666
 30
0.0
 10
50.4134114583333
 20
0.631510416666665
 30
0.0
 10
50.2766927083333
 20
0.336914062499998
 30
0.0
  0
SPLINE
  5
19B
330
17
100
AcDbEntity
  8
0
100
AcDbSpline
 70
0
 71
2
 72
6
 73
3
 74
0
 40
0.0
 40
0.0
 40
0.0
 40
1.0
 40
1.0
 40
1.0
 10
50.2766927083333
 20
0.336914062499998
 30
0.0
 10
50.1399739583333
 20
0.042317708333331996
 30
0.0
 10
49.9104817708333
 20
-0.115559895833335
 30
0.0
  0
SPLINE
  5
19C
330
17
100
AcDbEntity
  8
0
100
AcDbSpline
 70
0
 71
2
 72
6
 73
3
 74
0
 40
0.0
 40
0.0
 40
0.0
 40
1.0
 40
1.0
 40
1.0
 10
49.9104817708333
 20
-0.115559895833335
 30
0.0
 10
49.6809895833333
 20
-0.2734375
 30
0.0
 10
49.365234375
 20
-0.323893229166668
 30
0.0
  0
ARC
  5
19D
330
17
100
AcDbEntity
  8
0
100
AcDbCircle
 10
48.719199123638795
 20
3.81288657633176
 30
0.0
 40
4.18709059864496
100
AcDbArc
 50
269.79786853497444
 51
278.8761082694629
  0
LINE
  5
19E
330
17
100
AcDbEntity
  8
0
100
AcDbLine
 10
48.7044273849521
 20
-0.37434895833333404
 30
0.0
 11
48.4309895833333
 21
-0.37434895833333404
 31
0.0
  0
LINE
  5
19F
330
17
100
AcDbEntity
  8
0
100
AcDbLine
 10
48.4309895833333
 20
-0.374348958333335
 30
0.0
 11
48.4309895833333
 21
-1.25
 31
0.0
  0
LINE
  5
1A0
330
17
100
AcDbEntity
  8
0
100
AcDbLine
 10
48.4309895833333
 20
-1.25
 30
0.0
 11
54.4921875
 21
-1.25
 31
0.0
  0
LINE
  5
1A1
330
17
100
AcDbEntity
  8
0
100
AcDbLine
 10
54.4921875
 20
-1.25
 30
0.0
 11
54.4921875
 21
-0.37434895833333404
 31
0.0
  0
LINE
  5
1A2
330
17
100
AcDbEntity
  8
0
100
AcDbLine
 10
54.4921875
 20
-0.37434895833333404
 30
0.0
 11
54.2285148972067
 21
-0.37434895833333404
 31
0.0
  0
ARC
  5
1A3
330
17
100
AcDbEntity
  8
0
100
AcDbCircle
 10
54.2059826371867
 20
3.78988457976966
 30
0.0
 40
4.16402549630357
100
AcDbArc
 50
261.1141384756688
 51
270.31002884190724
  0
ARC
  5
1A4
330
17
100
AcDbEntity
  8
0
100
AcDbCircle
 10
53.7581264254626
 20
1.01278817505052
 30
0.0
 40
1.35021871595222
100
AcDbArc
 50
236.72263187699528
 51
261.68734337671674
  0
SPLINE
  5
1A5
330
17
100
AcDbEntity
  8
0
100
AcDbSpline
 70
0
 71
2
 72
6
 73
3
 74
0
 40
0.0
 40
0.0
 40
0.0
 40
1.0
 40
1.0
 40
1.0
 10
53.017578125
 20
-0.115559895833335
 30
0.0
 10
52.783203125
 20
0.042317708333331996
 30
0.0
 10
52.6513671875
 20
0.336914062499998
 30
0.0
  0
SPLINE
  5
1A6
330
17
100
AcDbEntity
  8
0
100
AcDbSpline
 70
0
 71
2
 72
6
 73
3
 74
0
 40
0.0
 40
0.0
 40
0.0
 40
1.0
 40
1.0
 40
1.0
 10
52.6513671875
 20
0.336914062499998
 30
0.0
 10
52.51953125
 20
0.631510416666665
 30
0.0
 10
52.51953125
 20
1.11979166666666
 30
0.0
  0
LINE
  5
1A7
330
17
100
AcDbEntity
  8
0
100
AcDbLine
 10
52.51953125
 20
1.1197916666666696
 30
0.0
 11
52.51953125
 21
9.712181472141749
 31
0.0
  0
ARC
  5
1A8
330
17
100
AcDbEntity
  8
0
100
AcDbCircle
 10
-18.4613369375759
 20
-11.5259985422269
 30
0.0
 40
1.35198530095895
100
AcDbArc
 50
248.50937262249695
 51
270.9063544687659
  0
ARC
  5
1A9
330
17
100
AcDbEntity
  8
0
100
AcDbCircle
 10
-17.9779988140349
 20
-10.3792137555944
 30
0.0
 40
2.5956431769239603
100
AcDbArc
 50
237.05972288375847
 51
247.85579380691541
  0
LINE
  5
1AA
330
17
100
AcDbEntity
  8
0
100
AcDbLine
 10
-19.389417536902332
 20
-12.55757568389084
 30
0.0
 11
-19.668527247117087
 21
-13.020859828737105
 31
0.0
  0
ARC
  5
1AB
330
17
100
AcDbEntity
  8
0
100
AcDbCircle
 10
-16.1213079163632
 20
-8.836416266114199
 30
0.0
 40
5.48564790241323
100
AcDbArc
 50
229.71152555913685
 51
235.3010096052201
  0
ARC
  5
1AC
330
17
100
AcDbEntity
  8
0
100
AcDbCircle
 10
-17.577020105774398
 20
-10.9293460284581
 30
0.0
 40
2.9363972803629803
100
AcDbArc
 50
235.4061436655592
 51
246.24553155600458
  0
ARC
  5
1AD
330
17
100
AcDbEntity
  8
0
100
AcDbCircle
 10
-17.5302415381305
 20
-10.8155208259429
 30
0.0
 40
3.0597116751477
100
AcDbArc
 50
246.3023739775047
 51
257.36167862229036
  0
ARC
  5
1AE
330
17
100
AcDbEntity
  8
0
100
AcDbCircle
 10
-17.5747503454575
 20
-10.9468283335008
 30
0.0
 40
2.92248790281896
100
AcDbArc
 50
257.6499216196474
 51
270.48409643755383
  0
ARC
  5
1AF
330
17
100
AcDbEntity
  8
0
100
AcDbCircle
 10
-17.529925927860802
 20
-11.7216968989388
 30
0.0
 40
2.14760939016372
100
AcDbArc
 50
269.4628829162605
 51
286.2411712080794
  0
ARC
  5
1B0
330
17
100
AcDbEntity
  8
0
100
AcDbCircle
 10
-17.323731483590702
 20
-12.4138627250259
 30
0.0
 40
1.42456911328413
100
AcDbArc
 50
286.0650540048739
 51
308.9672880308469
  0
ARC
  5
1B1
330
17
100
AcDbEntity
  8
0
100
AcDbCircle
 10
-17.2039146155354
 20
-12.5871423682351
 30
0.0
 40
1.2144915875367202
100
AcDbArc
 50
309.71337778043807
 51
336.13067044779064
  0
SPLINE
  5
1B2
330
17
100
AcDbEntity
  8
0
100
AcDbSpline
 70
0
 71
2
 72
6
 73
3
 74
0
 40
0.0
 40
0.0
 40
0.0
 40
1.0
 40
1.0
 40
1.0
 10
-16.0929361979167
 20
-13.0787489149306
 30
0.0
 10
-15.971408420138898
 20
-12.8119574652778
 30
0.0
 10
-15.971408420138898
 20
-12.451171875
 30
0.0
  0
ARC
  5
1B3
330
17
100
AcDbEntity
  8
0
100
AcDbCircle
 10
-19.2778681760384
 20
-12.4654450475727
 30
0.0
 40
3.30656089471523
100
AcDbArc
 50
0.24733023518408512
 51
4.380889678468848
  0
ARC
  5
1B4
330
17
100
AcDbEntity
  8
0
100
AcDbCircle
 10
-21.1779745210034
 20
-12.5966285362212
 30
0.0
 40
5.21123776881779
100
AcDbArc
 50
4.22320058414076
 51
7.171334083704794
  0
ARC
  5
1B5
330
17
100
AcDbEntity
  8
0
100
AcDbCircle
 10
-21.318791151349
 20
-12.6090522804685
 30
0.0
 40
5.3525222836785
100
AcDbArc
 50
7.1151084587029025
 51
10.04471757922808
  0
ARC
  5
1B6
330
17
100
AcDbEntity
  8
0
100
AcDbCircle
 10
-22.0629925614621
 20
-12.7302846486149
 30
0.0
 40
6.10643462043625
100
AcDbArc
 50
9.946882149127225
 51
12.298633152452053
  0
LINE
  5
1B7
330
17
100
AcDbEntity
  8
0
100
AcDbLine
 10
-16.09673394601807
 20
-11.429578969771265
 30
0.0
 11
-16.825900607638935
 21
-8.064778645833346
 31
0.0
  0
LINE
  5
1B8
330
17
100
AcDbEntity
  8
0
100
AcDbLine
 10
-16.8259006076389
 20
-8.06477864583334
 30
0.0
 11
-15.8878580729166
 21
-8.06477864583334
 31
0.0
  0
LINE
  5
1B9
330
17
100
AcDbEntity
  8
0
100
AcDbLine
 10
-15.88785807291666
 20
-8.064778645833352
 30
0.0
 11
-16.018728309581068
 21
-7.442670854153302
 31
0.0
  0
ARC
  5
1BA
330
17
100
AcDbEntity
  8
0
100
AcDbCircle
 10
-15.981987823965
 20
-5.37013520879402
 30
0.0
 40
2.07286127480064
100
AcDbArc
 50
252.96376571144006
 51
268.98440622845595
  0
ARC
  5
1BB
330
17
100
AcDbEntity
  8
0
100
AcDbCircle
 10
-15.850857596479699
 20
-4.92831577964894
 30
0.0
 40
2.53510887971001
100
AcDbArc
 50
237.2981824795828
 51
253.05569731966008
  0
ARC
  5
1BC
330
17
100
AcDbEntity
  8
0
100
AcDbCircle
 10
-15.2596480969648
 20
-4.010862345814069
 30
0.0
 40
3.62803893338588
100
AcDbArc
 50
224.05812991405065
 51
237.26928879015216
  0
ARC
  5
1BD
330
17
100
AcDbEntity
  8
0
100
AcDbCircle
 10
-14.781549261732
 20
-3.55282964637765
 30
0.0
 40
4.2917940688352605
100
AcDbArc
 50
210.61065565174826
 51
224.0139868406123
  0
LINE
  5
1BE
330
17
100
AcDbEntity
  8
0
100
AcDbLine
 10
-18.4756451935141
 20
-5.73866102430556
 30
0.0
 11
-19.1824001736111
 21
-5.73866102430556
 31
0.0
  0
LINE
  5
1BF
330
17
100
AcDbEntity
  8
0
100
AcDbLine
 10
-19.18240017361115
 20
-5.7386610243055705
 30
0.0
 11
-18.867187500000043
 21
-7.234971788194459
 31
0.0
  0
LINE
  5
1C0
330
17
100
AcDbEntity
  8
0
100
AcDbLine
 10
-18.8671875
 20
-7.23497178819445
 30
0.0
 11
-20.3331163194444
 21
-7.23497178819445
 31
0.0
  0
LINE
  5
1C1
330
17
100
AcDbEntity
  8
0
100
AcDbLine
 10
-20.33311631944443
 20
-7.234971788194455
 30
0.0
 11
-20.167914496527768
 21
-8.064778645833334
 31
0.0
  0
LINE
  5
1C2
330
17
100
AcDbEntity
  8
0
100
AcDbLine
 10
-20.1679144965278
 20
-8.06477864583334
 30
0.0
 11
-18.6829969618055
 21
-8.06477864583334
 31
0.0
  0
LINE
  5
1C3
330
17
100
AcDbEntity
  8
0
100
AcDbLine
 10
-18.682996961805532
 20
-8.064778645833346
 30
0.0
 11
-17.953829550731136
 21
-11.393503832326614
 31
0.0
  0
ARC
  5
1C4
330
17
100
AcDbEntity
  8
0
100
AcDbCircle
 10
-22.3677047737573
 20
-12.4888170564559
 30
0.0
 40
4.547495209574181
100
AcDbArc
 50
7.723393357046949
 51
13.936605222575109
  0
ARC
  5
1C5
330
17
100
AcDbEntity
  8
0
100
AcDbCircle
 10
-20.9672041871014
 20
-12.296849281799
 30
0.0
 40
3.13339596115182
100
AcDbArc
 50
0.5462029433780416
 51
7.686606758502221
  0
SPLINE
  5
1C6
330
17
100
AcDbEntity
  8
0
100
AcDbSpline
 70
0
 71
2
 72
6
 73
3
 74
0
 40
0.0
 40
0.0
 40
0.0
 40
1.0
 40
1.0
 40
1.0
 10
-17.8342013888889
 20
-12.2669813368056
 30
0.0
 10
-17.8342013888889
 20
-12.5689019097222
 30
0.0
 10
-18.0003526475695
 20
-12.7236599392361
 30
0.0
  0
SPLINE
  5
1C7
330
17
100
AcDbEntity
  8
0
100
AcDbSpline
 70
0
 71
2
 72
6
 73
3
 74
0
 40
0.0
 40
0.0
 40
0.0
 40
1.0
 40
1.0
 40
1.0
 10
-18.0003526475695
 20
-12.7236599392361
 30
0.0
 10
-18.16650390625
 20
-12.87841796875
 30
0.0
 10
-18.43994140625
 20
-12.87841796875
 30
0.0
  0
LINE
  5
1C8
330
17
100
AcDbEntity
  8
0
100
AcDbLine
 10
22.19536947877291
 20
-15.412153975945063
 30
0.0
 11
21.60095915608849
 21
-15.219018354460735
 31
0.0
  0
LINE
  5
1C9
330
17
100
AcDbEntity
  8
0
100
AcDbLine
 10
21.600959156088454
 20
-15.219018354460685
 30
0.0
 11
21.214687913119743
 21
-16.407838999829714
 31
0.0
  0
LINE
  5
1CA
330
17
100
AcDbEntity
  8
0
100
AcDbLine
 10
21.214687913119697
 20
-16.40783899982971
 30
0.0
 11
21.80909823580427
 21
-16.600974621314084
 31
0.0
  0
LINE
  5
1CB
330
17
100
AcDbEntity
  8
0
100
AcDbLine
 10
21.809098235804253
 20
-16.600974621313988
 30
0.0
 11
22.195369478772918
 21
-15.412153975945106
 31
0.0
  0
LINE
  5
1CC
330
17
100
AcDbEntity
  8
0
100
AcDbLine
 10
41.4518229166666
 20
-0.37434895833333404
 30
0.0
 11
41.4518229166666
 21
-1.25
 31
0.0
  0
LINE
  5
1CD
330
17
100
AcDbEntity
  8
0
100
AcDbLine
 10
41.4518229166666
 20
-1.25
 30
0.0
 11
47.0572916666667
 21
-1.25
 31
0.0
  0
LINE
  5
1CE
330
17
100
AcDbEntity
  8
0
100
AcDbLine
 10
47.0572916666667
 20
-1.25
 30
0.0
 11
47.0572916666667
 21
-0.37434895833333404
 31
0.0
  0
LINE
  5
1CF
330
17
100
AcDbEntity
  8
0
100
AcDbLine
 10
47.0572916666667
 20
-0.37434895833333404
 30
0.0
 11
46.8847647156546
 21
-0.37434895833333404
 31
0.0
  0
ARC
  5
1D0
330
17
100
AcDbEntity
  8
0
100
AcDbCircle
 10
46.8597143807312
 20
3.78295391170901
 30
0.0
 40
4.15707652598672
100
AcDbArc
 50
261.1115036088992
 51
270.34525105356903
  0
ARC
  5
1D1
330
17
100
AcDbEntity
  8
0
100
AcDbCircle
 10
46.405991476539896
 20
0.972785399890304
 30
0.0
 40
1.30959944869623
100
AcDbArc
 50
236.24739918650002
 51
261.7268139247011
  0
SPLINE
  5
1D2
330
17
100
AcDbEntity
  8
0
100
AcDbSpline
 70
0
 71
2
 72
6
 73
3
 74
0
 40
0.0
 40
0.0
 40
0.0
 40
1.0
 40
1.0
 40
1.0
 10
45.6787109375
 20
-0.115559895833335
 30
0.0
 10
45.44921875
 20
0.042317708333331996
 30
0.0
 10
45.3125
 20
0.336914062499998
 30
0.0
  0
SPLINE
  5
1D3
330
17
100
AcDbEntity
  8
0
100
AcDbSpline
 70
0
 71
2
 72
6
 73
3
 74
0
 40
0.0
 40
0.0
 40
0.0
 40
1.0
 40
1.0
 40
1.0
 10
45.3125
 20
0.336914062499998
 30
0.0
 10
45.17578125
 20
0.631510416666665
 30
0.0
 10
45.17578125
 20
1.11979166666666
 30
0.0
  0
LINE
  5
1D4
330
17
100
AcDbEntity
  8
0
100
AcDbLine
 10
45.17578125
 20
1.1197916666666599
 30
0.0
 11
45.17578125
 21
7.62044270833333
 31
0.0
  0
SPLINE
  5
1D5
330
17
100
AcDbEntity
  8
0
100
AcDbSpline
 70
0
 71
2
 72
6
 73
3
 74
0
 40
0.0
 40
0.0
 40
0.0
 40
1.0
 40
1.0
 40
1.0
 10
45.17578125
 20
7.62044270833333
 30
0.0
 10
45.17578125
 20
8.07942708333333
 30
0.0
 10
45.3125
 20
8.359375
 30
0.0
  0
ARC
  5
1D6
330
17
100
AcDbEntity
  8
0
100
AcDbCircle
 10
46.261708494877794
 20
7.92177448066588
 30
0.0
 40
1.04433931695938
100
AcDbArc
 50
123.63659149244401
 51
155.24953158155245
  0
ARC
  5
1D7
330
17
100
AcDbEntity
  8
0
100
AcDbCircle
 10
46.442622119321406
 20
7.582022018964279
 30
0.0
 40
1.4278086593752901
100
AcDbArc
 50
98.67325070417095
 51
122.12838298848915
  0
ARC
  5
1D8
330
17
100
AcDbEntity
  8
0
100
AcDbCircle
 10
46.8649154695368
 20
5.08259249843353
 30
0.0
 40
3.9634366881938004
100
AcDbArc
 50
89.71306095584582
 51
99.25954890526953
  0
LINE
  5
1D9
330
17
100
AcDbEntity
  8
0
100
AcDbLine
 10
46.8847650128286
 20
9.04622395833333
 30
0.0
 11
46.943359375
 21
9.04622395833333
 31
0.0
  0
LINE
  5
1DA
330
17
100
AcDbEntity
  8
0
100
AcDbLine
 10
46.943359375
 20
9.04622395833333
 30
0.0
 11
46.943359375
 21
9.918619791666659
 31
0.0
  0
LINE
  5
1DB
330
17
100
AcDbEntity
  8
0
100
AcDbLine
 10
46.943359375
 20
9.918619791666659
 30
0.0
 11
43.5774739583333
 21
9.918619791666659
 31
0.0
  0
LINE
  5
1DC
330
17
100
AcDbEntity
  8
0
100
AcDbLine
 10
43.5774739583333
 20
9.918619791666659
 30
0.0
 11
43.3040364583333
 21
8.232421875000016
 31
0.0
  0
LINE
  5
1DD
330
17
100
AcDbEntity
  8
0
100
AcDbLine
 10
43.3040364583334
 20
8.232421875
 30
0.0
 11
43.1998697916667
 21
8.232421875
 31
0.0
  0
SPLINE
  5
1DE
330
17
100
AcDbEntity
  8
0
100
AcDbSpline
 70
0
 71
2
 72
6
 73
3
 74
0
 40
0.0
 40
0.0
 40
0.0
 40
1.0
 40
1.0
 40
1.0
 10
43.1998697916667
 20
8.232421875
 30
0.0
 10
42.8743489583333
 20
8.81184895833333
 30
0.0
 10
42.5146484375
 20
9.18294270833333
 30
0.0
  0
SPLINE
  5
1DF
330
17
100
AcDbEntity
  8
0
100
AcDbSpline
 70
0
 71
2
 72
6
 73
3
 74
0
 40
0.0
 40
0.0
 40
0.0
 40
1.0
 40
1.0
 40
1.0
 10
42.5146484375
 20
9.18294270833333
 30
0.0
 10
42.1549479166667
 20
9.55403645833333
 30
0.0
 10
41.7529296875
 20
9.762369791666659
 30
0.0
  0
ARC
  5
1E0
330
17
100
AcDbEntity
  8
0
100
AcDbCircle
 10
40.4224949409775
 20
7.19356360547099
 30
0.0
 40
2.8929383361687497
100
AcDbArc
 50
62.619481239008564
 51
80.5311156954696
  0
ARC
  5
1E1
330
17
100
AcDbEntity
  8
0
100
AcDbCircle
 10
39.9692498140072
 20
4.40100799154882
 30
0.0
 40
5.72244070241972
100
AcDbArc
 50
80.65466509491291
 51
90.24617799573348
  0
SPLINE
  5
1E2
330
17
100
AcDbEntity
  8
0
100
AcDbSpline
 70
0
 71
2
 72
6
 73
3
 74
0
 40
0.0
 40
0.0
 40
0.0
 40
1.0
 40
1.0
 40
1.0
 10
39.9446614583333
 20
10.1236979166667
 30
0.0
 10
39.12109375
 20
10.1236979166667
 30
0.0
 10
38.4749348958333
 20
9.884440104166659
 30
0.0
  0
ARC
  5
1E3
330
17
100
AcDbEntity
  8
0
100
AcDbCircle
 10
39.4180697380527
 20
7.2764477719077005
 30
0.0
 40
2.77269460851087
100
AcDbArc
 50
109.88163827575431
 51
137.4293769207665
  0
SPLINE
  5
1E4
330
17
100
AcDbEntity
  8
0
100
AcDbSpline
 70
0
 71
2
 72
6
 73
3
 74
0
 40
0.0
 40
0.0
 40
0.0
 40
1.0
 40
1.0
 40
1.0
 10
37.3763020833333
 20
9.152018229166659
 30
0.0
 10
36.923828125
 20
8.658854166666671
 30
0.0
 10
36.6845703125
 20
7.885742187499999
 30
0.0
  0
SPLINE
  5
1E5
330
17
100
AcDbEntity
  8
0
100
AcDbSpline
 70
0
 71
2
 72
6
 73
3
 74
0
 40
0.0
 40
0.0
 40
0.0
 40
1.0
 40
1.0
 40
1.0
 10
36.6845703125
 20
7.885742187499999
 30
0.0
 10
36.4453125
 20
7.1126302083333295
 30
0.0
 10
36.4453125
 20
6.044921875
 30
0.0
  0
LINE
  5
1E6
330
17
100
AcDbEntity
  8
0
100
AcDbLine
 10
36.4453125
 20
6.044921875
 30
0.0
 11
36.4453125
 21
1.1197916666666603
 31
0.0
  0
SPLINE
  5
1E7
330
17
100
AcDbEntity
  8
0
100
AcDbSpline
 70
0
 71
2
 72
6
 73
3
 74
0
 40
0.0
 40
0.0
 40
0.0
 40
1.0
 40
1.0
 40
1.0
 10
36.4453125
 20
1.11979166666666
 30
0.0
 10
36.4453125
 20
0.631510416666665
 30
0.0
 10
36.3297526041667
 20
0.336914062499998
 30
0.0
  0
SPLINE
  5
1E8
330
17
100
AcDbEntity
  8
0
100
AcDbSpline
 70
0
 71
2
 72
6
 73
3
 74
0
 40
0.0
 40
0.0
 40
0.0
 40
1.0
 40
1.0
 40
1.0
 10
36.3297526041667
 20
0.336914062499998
 30
0.0
 10
36.2141927083333
 20
0.042317708333331996
 30
0.0
 10
35.9993489583334
 20
-0.115559895833335
 30
0.0
  0
ARC
  5
1E9
330
17
100
AcDbEntity
  8
0
100
AcDbCircle
 10
35.3111247433069
 20
0.847755425948308
 30
0.0
 40
1.1845006057807401
100
AcDbArc
 50
278.676035316909
 51
305.5432637043854
  0
ARC
  5
1EA
330
17
100
AcDbEntity
  8
0
100
AcDbCircle
 10
34.875999238912
 20
3.42909656667028
 30
0.0
 40
3.8032066809040304
100
AcDbArc
 50
269.6122717248665
 51
279.2901544798552
  0
LINE
  5
1EB
330
17
100
AcDbEntity
  8
0
100
AcDbLine
 10
34.8502615194761
 20
-0.37434895833333404
 30
0.0
 11
34.7786458333334
 21
-0.37434895833333404
 31
0.0
  0
LINE
  5
1EC
330
17
100
AcDbEntity
  8
0
100
AcDbLine
 10
34.7786458333334
 20
-0.374348958333335
 30
0.0
 11
34.7786458333334
 21
-1.25
 31
0.0
  0
LINE
  5
1ED
330
17
100
AcDbEntity
  8
0
100
AcDbLine
 10
34.7786458333334
 20
-1.25
 30
0.0
 11
38.4114583333333
 21
-1.25
 31
0.0
  0
LINE
  5
1EE
330
17
100
AcDbEntity
  8
0
100
AcDbLine
 10
38.4114583333333
 20
-1.25
 30
0.0
 11
38.4114583333333
 21
5.9407552083333295
 31
0.0
  0
SPLINE
  5
1EF
330
17
100
AcDbEntity
  8
0
100
AcDbSpline
 70
0
 71
2
 72
6
 73
3
 74
0
 40
0.0
 40
0.0
 40
0.0
 40
1.0
 40
1.0
 40
1.0
 10
38.4114583333333
 20
5.9407552083333295
 30
0.0
 10
38.4114583333333
 20
6.6243489583333295
 30
0.0
 10
38.5335286458333
 20
7.1533203125
 30
0.0
  0
SPLINE
  5
1F0
330
17
100
AcDbEntity
  8
0
100
AcDbSpline
 70
0
 71
2
 72
6
 73
3
 74
0
 40
0.0
 40
0.0
 40
0.0
 40
1.0
 40
1.0
 40
1.0
 10
38.5335286458333
 20
7.1533203125
 30
0.0
 10
38.6555989583333
 20
7.68229166666667
 30
0.0
 10
38.9241536458333
 20
8.048502604166671
 30
0.0
  0
ARC
  5
1F1
330
17
100
AcDbEntity
  8
0
100
AcDbCircle
 10
40.267964185648594
 20
7.057557727109081
 30
0.0
 40
1.67001262278194
100
AcDbArc
 50
112.42864114186908
 51
143.59441236164596
  0
SPLINE
  5
1F2
330
17
100
AcDbEntity
  8
0
100
AcDbSpline
 70
0
 71
2
 72
6
 73
3
 74
0
 40
0.0
 40
0.0
 40
0.0
 40
1.0
 40
1.0
 40
1.0
 10
39.6305338541666
 20
8.60188802083333
 30
0.0
 10
40.068359375
 20
8.7890625
 30
0.0
 10
40.6998697916667
 20
8.7890625
 30
0.0
  0
SPLINE
  5
1F3
330
17
100
AcDbEntity
  8
0
100
AcDbSpline
 70
0
 71
2
 72
6
 73
3
 74
0
 40
0.0
 40
0.0
 40
0.0
 40
1.0
 40
1.0
 40
1.0
 10
40.6998697916667
 20
8.7890625
 30
0.0
 10
41.4095052083333
 20
8.7890625
 30
0.0
 10
41.8929036458334
 20
8.515625
 30
0.0
  0
ARC
  5
1F4
330
17
100
AcDbEntity
  8
0
100
AcDbCircle
 10
40.8308701949105
 20
6.61934715250219
 30
0.0
 40
2.1732371829002903
100
AcDbArc
 50
32.073688512583
 51
60.74846285453657
  0
SPLINE
  5
1F5
330
17
100
AcDbEntity
  8
0
100
AcDbSpline
 70
0
 71
2
 72
6
 73
3
 74
0
 40
0.0
 40
0.0
 40
0.0
 40
1.0
 40
1.0
 40
1.0
 10
42.6725260416667
 20
7.7734375
 30
0.0
 10
42.96875
 20
7.3046875
 30
0.0
 10
43.095703125
 20
6.6943359375
 30
0.0
  0
ARC
  5
1F6
330
17
100
AcDbEntity
  8
0
100
AcDbCircle
 10
36.9421369314244
 20
5.44173795014363
 30
0.0
 40
6.2801631367612405
100
AcDbArc
 50
359.7415854737502
 51
371.5057291720598
  0
LINE
  5
1F7
330
17
100
AcDbEntity
  8
0
100
AcDbLine
 10
43.22265625
 20
5.41341240560587
 30
0.0
 11
43.22265625
 21
1.01888020833333
 31
0.0
  0
SPLINE
  5
1F8
330
17
100
AcDbEntity
  8
0
100
AcDbSpline
 70
0
 71
2
 72
6
 73
3
 74
0
 40
0.0
 40
0.0
 40
0.0
 40
1.0
 40
1.0
 40
1.0
 10
43.22265625
 20
1.01888020833333
 30
0.0
 10
43.22265625
 20
0.5598958333333319
 30
0.0
 10
43.0843098958333
 20
0.279947916666665
 30
0.0
  0
SPLINE
  5
1F9
330
17
100
AcDbEntity
  8
0
100
AcDbSpline
 70
0
 71
2
 72
6
 73
3
 74
0
 40
0.0
 40
0.0
 40
0.0
 40
1.0
 40
1.0
 40
1.0
 10
43.0843098958333
 20
0.279947916666665
 30
0.0
 10
42.9459635416667
 20
-1.5178830414797102e-15
 30
0.0
 10
42.7132161458334
 20
-0.141601562500001
 30
0.0
  0
ARC
  5
1FA
330
17
100
AcDbEntity
  8
0
100
AcDbCircle
 10
41.9864537171503
 20
1.09725249481333
 30
0.0
 40
1.43699095566115
100
AcDbArc
 50
277.3184002470464
 51
300.39762834545274
  0
ARC
  5
1FB
330
17
100
AcDbEntity
  8
0
100
AcDbCircle
 10
41.5313404890114
 20
4.152295745279621
 30
0.0
 40
4.52648965285422
100
AcDbArc
 50
269.77636153532484
 51
278.1063928486926
  0
LINE
  5
1FC
330
17
100
AcDbEntity
  8
0
100
AcDbLine
 10
41.5136722448945
 20
-0.37434895833333404
 30
0.0
 11
41.4518229166666
 21
-0.37434895833333404
 31
0.0
  0
SPLINE
  5
1FD
330
17
100
AcDbEntity
  8
0
100
AcDbSpline
 70
0
 71
2
 72
6
 73
3
 74
0
 40
0.0
 40
0.0
 40
0.0
 40
1.0
 40
1.0
 40
1.0
 10
-12.8268771701389
 20
-13.86962890625
 30
0.0
 10
-12.28759765625
 20
-13.86962890625
 30
0.0
 10
-11.9609917534722
 20
-13.6227756076389
 30
0.0
  0
SPLINE
  5
1FE
330
17
100
AcDbEntity
  8
0
100
AcDbSpline
 70
0
 71
2
 72
6
 73
3
 74
0
 40
0.0
 40
0.0
 40
0.0
 40
1.0
 40
1.0
 40
1.0
 10
-11.9609917534722
 20
-13.6227756076389
 30
0.0
 10
-11.634385850694398
 20
-13.3759223090278
 30
0.0
 10
-11.634385850694398
 20
-12.9012044270833
 30
0.0
  0
ARC
  5
1FF
330
17
100
AcDbEntity
  8
0
100
AcDbCircle
 10
-15.3839137618276
 20
-12.8967035283828
 30
0.0
 40
3.7494982352470703
100
AcDbArc
 50
359.9312227080842
 51
365.61299714453287
  0
ARC
  5
200
330
17
100
AcDbEntity
  8
0
100
AcDbCircle
 10
-16.042593419842902
 20
-13.0075474259205
 30
0.0
 40
4.416325027530959
100
AcDbArc
 50
6.208357384220505
 51
11.70863956796301
  0
LINE
  5
201
330
17
100
AcDbEntity
  8
0
100
AcDbLine
 10
-11.7179361979167
 20
-12.1112738715278
 30
0.0
 11
-11.6340089718118
 21
-12.1112738715278
 31
0.0
  0
ARC
  5
202
330
17
100
AcDbEntity
  8
0
100
AcDbCircle
 10
-3.92468569504566
 20
-8.02800758140698
 30
0.0
 40
8.72391706641717
100
AcDbArc
 50
207.90806638682128
 51
213.65305515682027
  0
ARC
  5
203
330
17
100
AcDbEntity
  8
0
100
AcDbCircle
 10
-9.06686974701231
 20
-11.4650480751029
 30
0.0
 40
2.53794204488141
100
AcDbArc
 50
213.3953876190176
 51
230.21276754867804
  0
ARC
  5
204
330
17
100
AcDbEntity
  8
0
100
AcDbCircle
 10
-9.44051493948834
 20
-11.8857563508752
 30
0.0
 40
1.9750695495080501
100
AcDbArc
 50
230.73171923929954
 51
251.0459365299845
  0
SPLINE
  5
205
330
17
100
AcDbEntity
  8
0
100
AcDbSpline
 70
0
 71
2
 72
6
 73
3
 74
0
 40
0.0
 40
0.0
 40
0.0
 40
1.0
 40
1.0
 40
1.0
 10
-10.0820583767361
 20
-13.7537977430556
 30
0.0
 10
-9.74690755208333
 20
-13.86962890625
 30
0.0
 10
-9.302571614583321
 20
-13.86962890625
 30
0.0
  0
SPLINE
  5
206
330
17
100
AcDbEntity
  8
0
100
AcDbSpline
 70
0
 71
2
 72
6
 73
3
 74
0
 40
0.0
 40
0.0
 40
0.0
 40
1.0
 40
1.0
 40
1.0
 10
-9.302571614583321
 20
-13.86962890625
 30
0.0
 10
-8.86962890625
 20
-13.86962890625
 30
0.0
 10
-8.54302300347221
 20
-13.6996799045139
 30
0.0
  0
ARC
  5
207
330
17
100
AcDbEntity
  8
0
100
AcDbCircle
 10
-9.25260805526247
 20
-12.3234423581457
 30
0.0
 40
1.54828145507823
100
AcDbArc
 50
297.2755322627602
 51
324.0014326236
  0
SPLINE
  5
208
330
17
100
AcDbEntity
  8
0
100
AcDbSpline
 70
0
 71
2
 72
6
 73
3
 74
0
 40
0.0
 40
0.0
 40
0.0
 40
1.0
 40
1.0
 40
1.0
 10
-7.99994574652777
 20
-13.2335069444444
 30
0.0
 10
-7.78347439236111
 20
-12.9372829861111
 30
0.0
 10
-7.67333984375
 20
-12.5309244791667
 30
0.0
  0
ARC
  5
209
330
17
100
AcDbEntity
  8
0
100
AcDbCircle
 10
-10.9272464003518
 20
-11.6813941345762
 30
0.0
 40
3.3635762765139496
100
AcDbArc
 50
345.3678308653877
 51
360.5372607865051
  0
ARC
  5
20A
330
17
100
AcDbEntity
  8
0
100
AcDbCircle
 10
-12.361347870714
 20
-11.6831354151296
 30
0.0
 40
4.79875669263144
100
AcDbArc
 50
0.3974766845686211
 51
12.360596058804651
  0
ARC
  5
20B
330
17
100
AcDbEntity
  8
0
100
AcDbCircle
 10
-12.8913340518827
 20
-11.772342744661
 30
0.0
 40
5.336270175323399
100
AcDbArc
 50
12.078072386651533
 51
23.642256751158403
  0
ARC
  5
20C
330
17
100
AcDbEntity
  8
0
100
AcDbCircle
 10
-12.9275565303639
 20
-11.779949883765699
 30
0.0
 40
5.37276324307935
100
AcDbArc
 50
23.56166117043996
 51
35.361145779761664
  0
ARC
  5
20D
330
17
100
AcDbEntity
  8
0
100
AcDbCircle
 10
-11.80908104521
 20
-10.965600079877701
 30
0.0
 40
3.98927988061136
100
AcDbArc
 50
35.11949556227654
 51
50.914781470167384
  0
ARC
  5
20E
330
17
100
AcDbEntity
  8
0
100
AcDbCircle
 10
-11.5318295349094
 20
-10.6409820583477
 30
0.0
 40
3.56253859029561
100
AcDbArc
 50
51.084321323864835
 51
68.75120184254209
  0
SPLINE
  5
20F
330
17
100
AcDbEntity
  8
0
100
AcDbSpline
 70
0
 71
2
 72
6
 73
3
 74
0
 40
0.0
 40
0.0
 40
0.0
 40
1.0
 40
1.0
 40
1.0
 10
-10.2406141493055
 20
-7.32042100694445
 30
0.0
 10
-10.7628038194444
 20
-7.11534288194445
 30
0.0
 10
-11.3799370659722
 20
-7.11534288194445
 30
0.0
  0
ARC
  5
210
330
17
100
AcDbEntity
  8
0
100
AcDbCircle
 10
-11.3733875812828
 20
-10.2035887494807
 30
0.0
 40
3.08832862445009
100
AcDbArc
 50
90.12151146125873
 51
99.12547405161875
  0
ARC
  5
211
330
17
100
AcDbEntity
  8
0
100
AcDbCircle
 10
-11.1011449479926
 20
-12.0251739119717
 30
0.0
 40
4.93009180472341
100
AcDbArc
 50
98.891866815537
 51
104.49452942953296
  0
ARC
  5
212
330
17
100
AcDbEntity
  8
0
100
AcDbCircle
 10
-11.24878626644
 20
-11.4705557338573
 30
0.0
 40
4.3560182193262005
100
AcDbArc
 50
104.44023261997958
 51
110.2924009532009
  0
ARC
  5
213
330
17
100
AcDbEntity
  8
0
100
AcDbCircle
 10
-11.9630640789394
 20
-9.59896400550456
 30
0.0
 40
2.35252095776815
100
AcDbArc
 50
109.78446740493669
 51
118.7625920338961
  0
LINE
  5
214
330
17
100
AcDbEntity
  8
0
100
AcDbLine
 10
-13.095053495593994
 20
-7.53669466874944
 30
0.0
 11
-13.734537760416693
 21
-7.246365017361093
 31
0.0
  0
LINE
  5
215
330
17
100
AcDbEntity
  8
0
100
AcDbLine
 10
-13.7345377604167
 20
-7.24636501736111
 30
0.0
 11
-14.3820529513889
 21
-7.24636501736111
 31
0.0
  0
LINE
  5
216
330
17
100
AcDbEntity
  8
0
100
AcDbLine
 10
-14.382052951388912
 20
-7.2463650173611125
 30
0.0
 11
-13.58072933884138
 21
-11.038410643563534
 31
0.0
  0
LINE
  5
217
330
17
100
AcDbEntity
  8
0
100
AcDbLine
 10
-13.580545053820458
 20
-11.038370849857097
 30
0.0
 11
-13.521699755946875
 21
-11.305166757875313
 31
0.0
  0
ARC
  5
218
330
17
100
AcDbEntity
  8
0
100
AcDbCircle
 10
-21.7446290590925
 20
-13.0782074276904
 30
0.0
 40
8.41177888169443
100
AcDbArc
 50
9.717366130700803
 51
12.167911252918683
  0
ARC
  5
219
330
17
100
AcDbEntity
  8
0
100
AcDbCircle
 10
-23.526341826087297
 20
-13.4045920086213
 30
0.0
 40
10.223054525574499
100
AcDbArc
 50
7.7832368493132105
 51
9.834892557101734
  0
ARC
  5
21A
330
17
100
AcDbEntity
  8
0
100
AcDbCircle
 10
-15.6575010903377
 20
-12.3553582525713
 30
0.0
 40
2.28445085666785
100
AcDbArc
 50
1.026137577987302
 51
8.437202214279102
  0
SPLINE
  5
21B
330
17
100
AcDbEntity
  8
0
100
AcDbSpline
 70
0
 71
2
 72
6
 73
3
 74
0
 40
0.0
 40
0.0
 40
0.0
 40
1.0
 40
1.0
 40
1.0
 10
-13.3737521701389
 20
-12.314453125
 30
0.0
 10
-13.3737521701389
 20
-12.6163736979167
 30
0.0
 10
-13.492431640625
 20
-12.7644856770833
 30
0.0
  0
ARC
  5
21C
330
17
100
AcDbEntity
  8
0
100
AcDbCircle
 10
-13.7915507090548
 20
-12.5367803620531
 30
0.0
 40
0.375570988229647
100
AcDbArc
 50
268.56003438942355
 51
322.7196833734369
  0
ARC
  5
21D
330
17
100
AcDbEntity
  8
0
100
AcDbCircle
 10
-13.8012752858121
 20
-12.1494712565343
 30
0.0
 40
0.763151152209725
100
AcDbArc
 50
244.52994722064176
 51
270.0211601336743
  0
ARC
  5
21E
330
17
100
AcDbEntity
  8
0
100
AcDbCircle
 10
-11.7317623156264
 20
-7.80286743184043
 30
0.0
 40
5.57751595816232
100
AcDbArc
 50
240.51564850930816
 51
244.53850439773817
  0
LINE
  5
21F
330
17
100
AcDbEntity
  8
0
100
AcDbLine
 10
-14.476936647567065
 20
-12.658040152847319
 30
0.0
 11
-14.744798810300821
 21
-13.14437145539939
 31
0.0
  0
ARC
  5
220
330
17
100
AcDbEntity
  8
0
100
AcDbCircle
 10
-11.3976754845022
 20
-8.74905843879443
 30
0.0
 40
5.52467293801563
100
AcDbArc
 50
232.70996498219034
 51
237.1636480624914
  0
ARC
  5
221
330
17
100
AcDbEntity
  8
0
100
AcDbCircle
 10
-12.679918288953699
 20
-10.7236942725173
 30
0.0
 40
3.17057870007148
100
AcDbArc
 50
237.28365064945555
 51
246.23582098436668
  0
ARC
  5
222
330
17
100
AcDbEntity
  8
0
100
AcDbCircle
 10
-12.736864810865
 20
-10.8530679369467
 30
0.0
 40
3.02963112802673
100
AcDbArc
 50
246.23551855674162
 51
256.6691842523318
  0
ARC
  5
223
330
17
100
AcDbEntity
  8
0
100
AcDbCircle
 10
-12.8480735770124
 20
-11.287200612138399
 30
0.0
 40
2.58214434462614
100
AcDbArc
 50
256.8492241402805
 51
270.4702695465539
  0
ARC
  5
224
330
17
100
AcDbEntity
  8
0
100
AcDbCircle
 10
-12.3381056034439
 20
-11.714732067077
 30
0.0
 40
2.92882749159366
100
AcDbArc
 50
349.50592207756074
 51
361.04613345450844
  0
SPLINE
  5
225
330
17
100
AcDbEntity
  8
0
100
AcDbSpline
 70
0
 71
2
 72
6
 73
3
 74
0
 40
0.0
 40
0.0
 40
0.0
 40
1.0
 40
1.0
 40
1.0
 10
-9.459228515624991
 20
-12.2479926215278
 30
0.0
 10
-9.509548611111109
 20
-12.4853515625
 30
0.0
 10
-9.59594726562499
 20
-12.630615234375
 30
0.0
  0
ARC
  5
226
330
17
100
AcDbEntity
  8
0
100
AcDbCircle
 10
-10.0621822174297
 20
-12.3763370425033
 30
0.0
 40
0.5302453302249239
100
AcDbArc
 50
299.19894568051063
 51
331.3925505316266
  0
ARC
  5
227
330
17
100
AcDbEntity
  8
0
100
AcDbCircle
 10
-10.0625472582625
 20
-12.3340425160193
 30
0.0
 40
0.567030026885828
100
AcDbArc
 50
269.4676720775568
 51
297.1469032791087
  0
SPLINE
  5
228
330
17
100
AcDbEntity
  8
0
100
AcDbSpline
 70
0
 71
2
 72
6
 73
3
 74
0
 40
0.0
 40
0.0
 40
0.0
 40
1.0
 40
1.0
 40
1.0
 10
-10.0678168402778
 20
-12.9012044270833
 30
0.0
 10
-10.3355577256944
 20
-12.9012044270833
 30
0.0
 10
-10.6203884548611
 20
-12.6695421006944
 30
0.0
  0
SPLINE
  5
229
330
17
100
AcDbEntity
  8
0
100
AcDbSpline
 70
0
 71
2
 72
6
 73
3
 74
0
 40
0.0
 40
0.0
 40
0.0
 40
1.0
 40
1.0
 40
1.0
 10
-10.6203884548611
 20
-12.6695421006944
 30
0.0
 10
-10.9052191840278
 20
-12.4378797743056
 30
0.0
 10
-11.1539713541667
 20
-12.0609537760417
 30
0.0
  0
ARC
  5
22A
330
17
100
AcDbEntity
  8
0
100
AcDbCircle
 10
-6.78980033599957
 20
-9.22689861319012
 30
0.0
 40
5.20414245492264
100
AcDbArc
 50
202.38902327144115
 51
212.99934773677558
  0
ARC
  5
22B
330
17
100
AcDbEntity
  8
0
100
AcDbCircle
 10
-6.8124521831443
 20
-9.18482295309931
 30
0.0
 40
5.19977431595249
100
AcDbArc
 50
191.80398595957072
 51
202.91278826628252
  0
LINE
  5
22C
330
17
100
AcDbEntity
  8
0
100
AcDbLine
 10
-11.902126777283703
 20
-10.248480708443093
 30
0.0
 11
-12.329462836986382
 21
-8.231454506646447
 31
0.0
  0
ARC
  5
22D
330
17
100
AcDbEntity
  8
0
100
AcDbCircle
 10
-11.7559207501058
 20
-8.63467590092332
 30
0.0
 40
0.701097723734633
100
AcDbArc
 50
110.26758035791373
 51
144.8913571791247
  0
ARC
  5
22E
330
17
100
AcDbEntity
  8
0
100
AcDbCircle
 10
-11.559171463982901
 20
-9.11080691358357
 30
0.0
 40
1.21674868300445
100
AcDbArc
 50
89.60739349920514
 51
111.19240569260808
  0
ARC
  5
22F
330
17
100
AcDbEntity
  8
0
100
AcDbCircle
 10
-11.5390576161535
 20
-9.097256798988601
 30
0.0
 40
1.20307124562993
100
AcDbArc
 50
57.99233594415518
 51
90.56076320213464
  0
ARC
  5
230
330
17
100
AcDbEntity
  8
0
100
AcDbCircle
 10
-11.9902169324697
 20
-9.78209283675792
 30
0.0
 40
2.02359827503252
100
AcDbArc
 50
36.82021207178346
 51
57.43764924579014
  0
ARC
  5
231
330
17
100
AcDbEntity
  8
0
100
AcDbCircle
 10
-13.2699265062539
 20
-10.7687093234108
 30
0.0
 40
3.64047403506133
100
AcDbArc
 50
24.31418734719081
 51
37.18018617772796
  0
ARC
  5
232
330
17
100
AcDbEntity
  8
0
100
AcDbCircle
 10
-15.1897104640965
 20
-11.675337909114901
 30
0.0
 40
5.7638317650262705
100
AcDbArc
 50
16.034311685747866
 51
24.669677947885216
  0
ARC
  5
233
330
17
100
AcDbEntity
  8
0
100
AcDbCircle
 10
-15.6779362646889
 20
-11.8364359240544
 30
0.0
 40
6.27749625285087
100
AcDbArc
 50
8.449678796425076
 51
16.21663823552328
  0
ARC
  5
234
330
17
100
AcDbEntity
  8
0
100
AcDbCircle
 10
-14.632606898746099
 20
-11.7098552519045
 30
0.0
 40
5.22440159685881
100
AcDbArc
 50
0.5331610703311671
 51
8.761067097368874
  0
LINE
  5
235
330
17
100
AcDbEntity
  8
0
100
AcDbLine
 10
20.264767147929586
 20
-14.618709044538319
 30
0.0
 11
19.765619954150015
 21
-14.24257465506828
 31
0.0
  0
LINE
  5
236
330
17
100
AcDbEntity
  8
0
100
AcDbLine
 10
19.765619954150058
 20
-14.242574655068344
 30
0.0
 11
19.013351175210026
 21
-15.240869042627418
 31
0.0
  0
LINE
  5
237
330
17
100
AcDbEntity
  8
0
100
AcDbLine
 10
19.013351175210015
 20
-15.24086904262738
 30
0.0
 11
19.512498368989633
 21
-15.617003432097455
 31
0.0
  0
LINE
  5
238
330
17
100
AcDbEntity
  8
0
100
AcDbLine
 10
19.51249836898956
 20
-15.61700343209747
 30
0.0
 11
20.26476714792964
 21
-14.618709044538331
 31
0.0
  0
LINE
  5
239
330
17
100
AcDbEntity
  8
0
100
AcDbLine
 10
28.0143229166667
 20
-0.37434895833333404
 30
0.0
 11
28.0143229166667
 21
-1.25
 31
0.0
  0
LINE
  5
23A
330
17
100
AcDbEntity
  8
0
100
AcDbLine
 10
28.0143229166667
 20
-1.25
 30
0.0
 11
33.6197916666667
 21
-1.25
 31
0.0
  0
LINE
  5
23B
330
17
100
AcDbEntity
  8
0
100
AcDbLine
 10
33.6197916666667
 20
-1.25
 30
0.0
 11
33.6197916666667
 21
-0.37434895833333404
 31
0.0
  0
LINE
  5
23C
330
17
100
AcDbEntity
  8
0
100
AcDbLine
 10
33.6197916666667
 20
-0.37434895833333404
 30
0.0
 11
33.447264715654605
 21
-0.37434895833333404
 31
0.0
  0
ARC
  5
23D
330
17
100
AcDbEntity
  8
0
100
AcDbCircle
 10
33.422214380731205
 20
3.7829539117104702
 30
0.0
 40
4.15707652598819
100
AcDbArc
 50
261.11150360890224
 51
270.3452510535689
  0
ARC
  5
23E
330
17
100
AcDbEntity
  8
0
100
AcDbCircle
 10
32.9684914765399
 20
0.972785399890255
 30
0.0
 40
1.3095994486961902
100
AcDbArc
 50
236.24739918649854
 51
261.7268139247005
  0
SPLINE
  5
23F
330
17
100
AcDbEntity
  8
0
100
AcDbSpline
 70
0
 71
2
 72
6
 73
3
 74
0
 40
0.0
 40
0.0
 40
0.0
 40
1.0
 40
1.0
 40
1.0
 10
32.2412109375
 20
-0.115559895833335
 30
0.0
 10
32.01171875
 20
0.042317708333331996
 30
0.0
 10
31.875
 20
0.336914062499998
 30
0.0
  0
SPLINE
  5
240
330
17
100
AcDbEntity
  8
0
100
AcDbSpline
 70
0
 71
2
 72
6
 73
3
 74
0
 40
0.0
 40
0.0
 40
0.0
 40
1.0
 40
1.0
 40
1.0
 10
31.875
 20
0.336914062499998
 30
0.0
 10
31.73828125
 20
0.631510416666665
 30
0.0
 10
31.73828125
 20
1.11979166666666
 30
0.0
  0
LINE
  5
241
330
17
100
AcDbEntity
  8
0
100
AcDbLine
 10
31.73828125
 20
1.1197916666666599
 30
0.0
 11
31.73828125
 21
7.62044270833333
 31
0.0
  0
SPLINE
  5
242
330
17
100
AcDbEntity
  8
0
100
AcDbSpline
 70
0
 71
2
 72
6
 73
3
 74
0
 40
0.0
 40
0.0
 40
0.0
 40
1.0
 40
1.0
 40
1.0
 10
31.73828125
 20
7.62044270833333
 30
0.0
 10
31.73828125
 20
8.07942708333333
 30
0.0
 10
31.875
 20
8.359375
 30
0.0
  0
ARC
  5
243
330
17
100
AcDbEntity
  8
0
100
AcDbCircle
 10
32.8242084948779
 20
7.92177448066587
 30
0.0
 40
1.04433931695939
100
AcDbArc
 50
123.63659149244859
 51
155.2495315815544
  0
ARC
  5
244
330
17
100
AcDbEntity
  8
0
100
AcDbCircle
 10
33.005122119319196
 20
7.58202201897038
 30
0.0
 40
1.42780865936884
100
AcDbArc
 50
98.67325070412441
 51
122.12838298854426
  0
ARC
  5
245
330
17
100
AcDbEntity
  8
0
100
AcDbCircle
 10
33.427415469536896
 20
5.0825924984323905
 30
0.0
 40
3.9634366881949403
100
AcDbArc
 50
89.71306095584734
 51
99.25954890526982
  0
LINE
  5
246
330
17
100
AcDbEntity
  8
0
100
AcDbLine
 10
33.4472650128286
 20
9.04622395833333
 30
0.0
 11
33.505859375
 21
9.04622395833333
 31
0.0
  0
LINE
  5
247
330
17
100
AcDbEntity
  8
0
100
AcDbLine
 10
33.505859375
 20
9.04622395833333
 30
0.0
 11
33.505859375
 21
9.918619791666659
 31
0.0
  0
LINE
  5
248
330
17
100
AcDbEntity
  8
0
100
AcDbLine
 10
33.505859375
 20
9.918619791666659
 30
0.0
 11
30.1399739583333
 21
9.918619791666659
 31
0.0
  0
LINE
  5
249
330
17
100
AcDbEntity
  8
0
100
AcDbLine
 10
30.139973958333396
 20
9.918619791666643
 30
0.0
 11
29.8665364583334
 21
8.232421874999984
 31
0.0
  0
LINE
  5
24A
330
17
100
AcDbEntity
  8
0
100
AcDbLine
 10
29.8665364583333
 20
8.232421875
 30
0.0
 11
29.7623697916666
 21
8.232421875
 31
0.0
  0
SPLINE
  5
24B
330
17
100
AcDbEntity
  8
0
100
AcDbSpline
 70
0
 71
2
 72
6
 73
3
 74
0
 40
0.0
 40
0.0
 40
0.0
 40
1.0
 40
1.0
 40
1.0
 10
29.7623697916666
 20
8.232421875
 30
0.0
 10
29.4368489583333
 20
8.81184895833333
 30
0.0
 10
29.0771484375
 20
9.18294270833333
 30
0.0
  0
SPLINE
  5
24C
330
17
100
AcDbEntity
  8
0
100
AcDbSpline
 70
0
 71
2
 72
6
 73
3
 74
0
 40
0.0
 40
0.0
 40
0.0
 40
1.0
 40
1.0
 40
1.0
 10
29.0771484375
 20
9.18294270833333
 30
0.0
 10
28.7174479166667
 20
9.55403645833333
 30
0.0
 10
28.3154296875
 20
9.762369791666659
 30
0.0
  0
ARC
  5
24D
330
17
100
AcDbEntity
  8
0
100
AcDbCircle
 10
26.9849949409775
 20
7.19356360547096
 30
0.0
 40
2.8929383361687804
100
AcDbArc
 50
62.619481239008834
 51
80.53111569546968
  0
ARC
  5
24E
330
17
100
AcDbEntity
  8
0
100
AcDbCircle
 10
26.5317498140073
 20
4.40100799154929
 30
0.0
 40
5.72244070241925
100
AcDbArc
 50
80.65466509491314
 51
90.2461779957345
  0
SPLINE
  5
24F
330
17
100
AcDbEntity
  8
0
100
AcDbSpline
 70
0
 71
2
 72
6
 73
3
 74
0
 40
0.0
 40
0.0
 40
0.0
 40
1.0
 40
1.0
 40
1.0
 10
26.5071614583333
 20
10.1236979166667
 30
0.0
 10
25.68359375
 20
10.1236979166667
 30
0.0
 10
25.0374348958334
 20
9.884440104166659
 30
0.0
  0
ARC
  5
250
330
17
100
AcDbEntity
  8
0
100
AcDbCircle
 10
25.980569738053
 20
7.27644777190728
 30
0.0
 40
2.7726946085113697
100
AcDbArc
 50
109.88163827575524
 51
137.42937692076424
  0
SPLINE
  5
251
330
17
100
AcDbEntity
  8
0
100
AcDbSpline
 70
0
 71
2
 72
6
 73
3
 74
0
 40
0.0
 40
0.0
 40
0.0
 40
1.0
 40
1.0
 40
1.0
 10
23.9388020833333
 20
9.152018229166659
 30
0.0
 10
23.486328125
 20
8.658854166666671
 30
0.0
 10
23.2470703125
 20
7.885742187499999
 30
0.0
  0
SPLINE
  5
252
330
17
100
AcDbEntity
  8
0
100
AcDbSpline
 70
0
 71
2
 72
6
 73
3
 74
0
 40
0.0
 40
0.0
 40
0.0
 40
1.0
 40
1.0
 40
1.0
 10
23.2470703125
 20
7.885742187499999
 30
0.0
 10
23.0078125
 20
7.1126302083333295
 30
0.0
 10
23.0078125
 20
6.044921875
 30
0.0
  0
LINE
  5
253
330
17
100
AcDbEntity
  8
0
100
AcDbLine
 10
23.0078125
 20
6.044921875
 30
0.0
 11
23.0078125
 21
1.1197916666666603
 31
0.0
  0
SPLINE
  5
254
330
17
100
AcDbEntity
  8
0
100
AcDbSpline
 70
0
 71
2
 72
6
 73
3
 74
0
 40
0.0
 40
0.0
 40
0.0
 40
1.0
 40
1.0
 40
1.0
 10
23.0078125
 20
1.11979166666666
 30
0.0
 10
23.0078125
 20
0.631510416666665
 30
0.0
 10
22.8922526041666
 20
0.336914062499998
 30
0.0
  0
SPLINE
  5
255
330
17
100
AcDbEntity
  8
0
100
AcDbSpline
 70
0
 71
2
 72
6
 73
3
 74
0
 40
0.0
 40
0.0
 40
0.0
 40
1.0
 40
1.0
 40
1.0
 10
22.8922526041666
 20
0.336914062499998
 30
0.0
 10
22.7766927083334
 20
0.042317708333331996
 30
0.0
 10
22.5618489583333
 20
-0.115559895833335
 30
0.0
  0
ARC
  5
256
330
17
100
AcDbEntity
  8
0
100
AcDbCircle
 10
21.873624743306898
 20
0.847755425948232
 30
0.0
 40
1.18450060578066
100
AcDbArc
 50
278.6760353169096
 51
305.5432637043836
  0
ARC
  5
257
330
17
100
AcDbEntity
  8
0
100
AcDbCircle
 10
21.4384992389121
 20
3.42909656666935
 30
0.0
 40
3.80320668090308
100
AcDbArc
 50
269.6122717248649
 51
279.290154479856
  0
LINE
  5
258
330
17
100
AcDbEntity
  8
0
100
AcDbLine
 10
21.4127615194761
 20
-0.37434895833333404
 30
0.0
 11
21.3411458333334
 21
-0.37434895833333404
 31
0.0
  0
LINE
  5
259
330
17
100
AcDbEntity
  8
0
100
AcDbLine
 10
21.3411458333334
 20
-0.374348958333335
 30
0.0
 11
21.3411458333334
 21
-1.25
 31
0.0
  0
LINE
  5
25A
330
17
100
AcDbEntity
  8
0
100
AcDbLine
 10
21.3411458333334
 20
-1.25
 30
0.0
 11
24.9739583333334
 21
-1.25
 31
0.0
  0
LINE
  5
25B
330
17
100
AcDbEntity
  8
0
100
AcDbLine
 10
24.9739583333334
 20
-1.25
 30
0.0
 11
24.9739583333334
 21
5.9407552083333295
 31
0.0
  0
SPLINE
  5
25C
330
17
100
AcDbEntity
  8
0
100
AcDbSpline
 70
0
 71
2
 72
6
 73
3
 74
0
 40
0.0
 40
0.0
 40
0.0
 40
1.0
 40
1.0
 40
1.0
 10
24.9739583333334
 20
5.9407552083333295
 30
0.0
 10
24.9739583333334
 20
6.6243489583333295
 30
0.0
 10
25.0960286458334
 20
7.1533203125
 30
0.0
  0
SPLINE
  5
25D
330
17
100
AcDbEntity
  8
0
100
AcDbSpline
 70
0
 71
2
 72
6
 73
3
 74
0
 40
0.0
 40
0.0
 40
0.0
 40
1.0
 40
1.0
 40
1.0
 10
25.0960286458334
 20
7.1533203125
 30
0.0
 10
25.2180989583333
 20
7.68229166666667
 30
0.0
 10
25.4866536458334
 20
8.048502604166671
 30
0.0
  0
ARC
  5
25E
330
17
100
AcDbEntity
  8
0
100
AcDbCircle
 10
26.8304641856439
 20
7.057557727114521
 30
0.0
 40
1.67001262277484
100
AcDbArc
 50
112.42864114178832
 51
143.59441236169863
  0
SPLINE
  5
25F
330
17
100
AcDbEntity
  8
0
100
AcDbSpline
 70
0
 71
2
 72
6
 73
3
 74
0
 40
0.0
 40
0.0
 40
0.0
 40
1.0
 40
1.0
 40
1.0
 10
26.1930338541667
 20
8.60188802083333
 30
0.0
 10
26.630859375
 20
8.7890625
 30
0.0
 10
27.2623697916667
 20
8.7890625
 30
0.0
  0
SPLINE
  5
260
330
17
100
AcDbEntity
  8
0
100
AcDbSpline
 70
0
 71
2
 72
6
 73
3
 74
0
 40
0.0
 40
0.0
 40
0.0
 40
1.0
 40
1.0
 40
1.0
 10
27.2623697916667
 20
8.7890625
 30
0.0
 10
27.9720052083334
 20
8.7890625
 30
0.0
 10
28.4554036458334
 20
8.515625
 30
0.0
  0
ARC
  5
261
330
17
100
AcDbEntity
  8
0
100
AcDbCircle
 10
27.3933701949103
 20
6.61934715250195
 30
0.0
 40
2.1732371829006203
100
AcDbArc
 50
32.07368851258552
 51
60.748462854535006
  0
SPLINE
  5
262
330
17
100
AcDbEntity
  8
0
100
AcDbSpline
 70
0
 71
2
 72
6
 73
3
 74
0
 40
0.0
 40
0.0
 40
0.0
 40
1.0
 40
1.0
 40
1.0
 10
29.2350260416667
 20
7.7734375
 30
0.0
 10
29.53125
 20
7.3046875
 30
0.0
 10
29.658203125
 20
6.6943359375
 30
0.0
  0
ARC
  5
263
330
17
100
AcDbEntity
  8
0
100
AcDbCircle
 10
23.5046369314247
 20
5.44173795014359
 30
0.0
 40
6.28016313676098
100
AcDbArc
 50
359.7415854737506
 51
371.5057291720607
  0
LINE
  5
264
330
17
100
AcDbEntity
  8
0
100
AcDbLine
 10
29.78515625
 20
5.41341240560587
 30
0.0
 11
29.78515625
 21
1.01888020833333
 31
0.0
  0
SPLINE
  5
265
330
17
100
AcDbEntity
  8
0
100
AcDbSpline
 70
0
 71
2
 72
6
 73
3
 74
0
 40
0.0
 40
0.0
 40
0.0
 40
1.0
 40
1.0
 40
1.0
 10
29.78515625
 20
1.01888020833333
 30
0.0
 10
29.78515625
 20
0.5598958333333319
 30
0.0
 10
29.6468098958334
 20
0.279947916666665
 30
0.0
  0
SPLINE
  5
266
330
17
100
AcDbEntity
  8
0
100
AcDbSpline
 70
0
 71
2
 72
6
 73
3
 74
0
 40
0.0
 40
0.0
 40
0.0
 40
1.0
 40
1.0
 40
1.0
 10
29.6468098958334
 20
0.279947916666665
 30
0.0
 10
29.5084635416666
 20
-1.5178830414797102e-15
 30
0.0
 10
29.2757161458334
 20
-0.141601562500001
 30
0.0
  0
ARC
  5
267
330
17
100
AcDbEntity
  8
0
100
AcDbCircle
 10
28.5489537171503
 20
1.09725249481333
 30
0.0
 40
1.43699095566114
100
AcDbArc
 50
277.3184002470462
 51
300.39762834545263
  0
ARC
  5
268
330
17
100
AcDbEntity
  8
0
100
AcDbCircle
 10
28.0938404890114
 20
4.15229574527949
 30
0.0
 40
4.52648965285409
100
AcDbArc
 50
269.77636153532484
 51
278.1063928486929
  0
LINE
  5
269
330
17
100
AcDbEntity
  8
0
100
AcDbLine
 10
28.0761722448945
 20
-0.37434895833333404
 30
0.0
 11
28.0143229166667
 21
-0.37434895833333404
 31
0.0
  0
SPLINE
  5
26A
330
17
100
AcDbEntity
  8
0
100
AcDbSpline
 70
0
 71
2
 72
6
 73
3
 74
0
 40
0.0
 40
0.0
 40
0.0
 40
1.0
 40
1.0
 40
1.0
 10
-5.01871744791666
 20
-13.8335503472222
 30
0.0
 10
-4.32373046875
 20
-13.8335503472222
 30
0.0
 10
-3.9496527777777697
 20
-13.5012478298611
 30
0.0
  0
SPLINE
  5
26B
330
17
100
AcDbEntity
  8
0
100
AcDbSpline
 70
0
 71
2
 72
6
 73
3
 74
0
 40
0.0
 40
0.0
 40
0.0
 40
1.0
 40
1.0
 40
1.0
 10
-3.9496527777777697
 20
-13.5012478298611
 30
0.0
 10
-3.57557508680555
 20
-13.1689453125
 30
0.0
 10
-3.57557508680555
 20
-12.5802951388889
 30
0.0
  0
ARC
  5
26C
330
17
100
AcDbEntity
  8
0
100
AcDbCircle
 10
-8.80088708453928
 20
-12.6584036704232
 30
0.0
 40
5.2264881511919805
100
AcDbArc
 50
0.8563997554753853
 51
7.633033801210174
  0
ARC
  5
26D
330
17
100
AcDbEntity
  8
0
100
AcDbCircle
 10
-12.9182632233862
 20
-13.185318839891
 30
0.0
 40
9.378355810537911
100
AcDbArc
 50
7.482393576794096
 51
12.602228456439542
  0
LINE
  5
26E
330
17
100
AcDbEntity
  8
0
100
AcDbLine
 10
-3.7654619921999957
 20
-11.13905278726887
 30
0.0
 11
-3.974337743325947
 21
-10.17822433208951
 31
0.0
  0
LINE
  5
26F
330
17
100
AcDbEntity
  8
0
100
AcDbLine
 10
-3.974592344351896
 20
-10.178281435176634
 30
0.0
 11
-4.041982187312676
 21
-9.886799893452974
 31
0.0
  0
ARC
  5
270
330
17
100
AcDbEntity
  8
0
100
AcDbCircle
 10
2.85239826333979
 20
-8.33352816592511
 30
0.0
 40
7.06697714857612
100
AcDbArc
 50
189.72973855647274
 51
192.6964828836343
  0
ARC
  5
271
330
17
100
AcDbEntity
  8
0
100
AcDbCircle
 10
4.23279572142889
 20
-8.08690661287866
 30
0.0
 40
8.469234332568101
100
AcDbArc
 50
-172.76319568116202
 51
-170.20406003573402
  0
ARC
  5
272
330
17
100
AcDbEntity
  8
0
100
AcDbCircle
 10
-1.48615988564077
 20
-8.7919165564783
 30
0.0
 40
2.70690315592231
100
AcDbArc
 50
180.56548310970373
 51
187.68183679761174
  0
ARC
  5
273
330
17
100
AcDbEntity
  8
0
100
AcDbCircle
 10
-2.6770213323831302
 20
-8.82770073532306
 30
0.0
 40
1.51581480382084
100
AcDbArc
 50
170.64433631636018
 51
179.65717337346445
  0
ARC
  5
274
330
17
100
AcDbEntity
  8
0
100
AcDbCircle
 10
-3.47125879759982
 20
-8.684917373001749
 30
0.0
 40
0.708936743768415
100
AcDbArc
 50
152.2864080730623
 51
171.59556658397779
  0
ARC
  5
275
330
17
100
AcDbEntity
  8
0
100
AcDbCircle
 10
-3.6851763353009197
 20
-8.57649514074958
 30
0.0
 40
0.468966826993984
100
AcDbArc
 50
124.32329182110442
 51
151.85907258123459
  0
ARC
  5
276
330
17
100
AcDbEntity
  8
0
100
AcDbCircle
 10
-3.7262949197275
 20
-8.5453962468049
 30
0.0
 40
0.421315765869455
100
AcDbArc
 50
87.3259786711496
 51
122.08692562102011
  0
SPLINE
  5
277
330
17
100
AcDbEntity
  8
0
100
AcDbSpline
 70
0
 71
2
 72
6
 73
3
 74
0
 40
0.0
 40
0.0
 40
0.0
 40
1.0
 40
1.0
 40
1.0
 10
-3.70659722222221
 20
-8.12364366319445
 30
0.0
 10
-3.5110134548611
 20
-8.12364366319445
 30
0.0
 10
-3.3182779947916603
 20
-8.260362413194441
 30
0.0
  0
ARC
  5
278
330
17
100
AcDbEntity
  8
0
100
AcDbCircle
 10
-4.5002930298161
 20
-9.86927415206932
 30
0.0
 40
1.9970402218478
100
AcDbArc
 50
38.702905448735905
 51
53.69648741553289
  0
ARC
  5
279
330
17
100
AcDbEntity
  8
0
100
AcDbCircle
 10
-5.71070167998914
 20
-10.8735072614323
 30
0.0
 40
3.57056130392308
100
AcDbArc
 50
29.207948283643443
 51
39.1339008238845
  0
ARC
  5
27A
330
17
100
AcDbEntity
  8
0
100
AcDbCircle
 10
-8.243573892230721
 20
-12.3386701695496
 30
0.0
 40
6.49680800634698
100
AcDbArc
 50
23.76452581140022
 51
29.586130382336698
  0
ARC
  5
27B
330
17
100
AcDbEntity
  8
0
100
AcDbCircle
 10
-7.9881798369372
 20
-12.2388634422115
 30
0.0
 40
6.22277023830968
100
AcDbArc
 50
17.991358646797853
 51
23.871094965591947
  0
ARC
  5
27C
330
17
100
AcDbEntity
  8
0
100
AcDbCircle
 10
-5.91829039730946
 20
-11.5958786902659
 30
0.0
 40
4.055120599341899
100
AcDbArc
 50
10.621350219895694
 51
18.383981007938626
  0
LINE
  5
27D
330
17
100
AcDbEntity
  8
0
100
AcDbLine
 10
-1.9330512754093683
 20
-10.848523982047613
 30
0.0
 11
-1.838107708277089
 21
-11.359320373219278
 31
0.0
  0
ARC
  5
27E
330
17
100
AcDbEntity
  8
0
100
AcDbCircle
 10
-9.33563856129018
 20
-12.7825475717831
 30
0.0
 40
7.63161716670735
100
AcDbArc
 50
8.160688036841286
 51
10.748348512298
  0
LINE
  5
27F
330
17
100
AcDbEntity
  8
0
100
AcDbLine
 10
-1.7809726975721891
 20
-11.699193607788796
 30
0.0
 11
-1.7126187252047778
 21
-12.165367753480718
 31
0.0
  0
ARC
  5
280
330
17
100
AcDbEntity
  8
0
100
AcDbCircle
 10
-54.060463534683194
 20
-19.723322473110297
 30
0.0
 40
52.890472076907
100
AcDbArc
 50
7.656868450052937
 51
8.215563017890446
  0
ARC
  5
281
330
17
100
AcDbEntity
  8
0
100
AcDbCircle
 10
-34.8563782727482
 20
-17.1667309400605
 30
0.0
 40
33.516959602963496
100
AcDbArc
 50
6.866701461892405
 51
7.699534334446954
  0
ARC
  5
282
330
17
100
AcDbEntity
  8
0
100
AcDbCircle
 10
-17.546766802091902
 20
-15.1016813224303
 30
0.0
 40
16.084539792844
100
AcDbArc
 50
5.564339046822389
 51
6.935442869615833
  0
ARC
  5
283
330
17
100
AcDbEntity
  8
0
100
AcDbCircle
 10
-4.8472213225094
 20
-13.8983836734806
 30
0.0
 40
3.3280181533772897
100
AcDbArc
 50
2.555448073061655
 51
6.145610845783885
  0
LINE
  5
284
330
17
100
AcDbEntity
  8
0
100
AcDbLine
 10
-1.52251274661088
 20
-13.75
 30
0.0
 11
0.36458333333333803
 21
-13.75
 31
0.0
  0
ARC
  5
285
330
17
100
AcDbEntity
  8
0
100
AcDbCircle
 10
-2.3347476360914396
 20
-13.8593579922784
 30
0.0
 40
2.7020470202777798
100
AcDbArc
 50
2.3199551508789087
 51
7.635265605857213
  0
ARC
  5
286
330
17
100
AcDbEntity
  8
0
100
AcDbCircle
 10
-13.1136374425409
 20
-15.1281318223845
 30
0.0
 40
13.555519018650399
100
AcDbArc
 50
6.89712382781562
 51
8.679280098598449
  0
ARC
  5
287
330
17
100
AcDbEntity
  8
0
100
AcDbCircle
 10
-26.7471272138719
 20
-17.1687523758067
 30
0.0
 40
27.340964531288098
100
AcDbArc
 50
8.595274083903348
 51
9.697617971179366
  0
LINE
  5
288
330
17
100
AcDbEntity
  8
0
100
AcDbLine
 10
0.2031792556051425
 20
-12.563205307680477
 30
0.0
 11
0.10823567622951885
 21
-12.004937060951804
 31
0.0
  0
ARC
  5
289
330
17
100
AcDbEntity
  8
0
100
AcDbCircle
 10
-29.4615909916601
 20
-17.0185151279396
 30
0.0
 40
29.9918222143861
100
AcDbArc
 50
9.623010831113763
 51
10.653025500967791
  0
ARC
  5
28A
330
17
100
AcDbEntity
  8
0
100
AcDbCircle
 10
-12.2846485665789
 20
-13.759872074110001
 30
0.0
 40
12.508446838645101
100
AcDbArc
 50
10.528739386696401
 51
12.566447118748027
  0
LINE
  5
28B
330
17
100
AcDbEntity
  8
0
100
AcDbLine
 10
-0.07595492543637934
 20
-11.038411161906552
 30
0.0
 11
-0.26014546955637413
 21
-10.189615561683485
 31
0.0
  0
ARC
  5
28C
330
17
100
AcDbEntity
  8
0
100
AcDbCircle
 10
18.5431003280426
 20
-6.41191814897471
 30
0.0
 40
19.1790171286118
100
AcDbArc
 50
190.4932007949329
 51
191.35987484253909
  0
ARC
  5
28D
330
17
100
AcDbEntity
  8
0
100
AcDbCircle
 10
40.3120100353442
 20
-2.32233833379366
 30
0.0
 40
41.3287392389255
100
AcDbArc
 50
-169.93530782249104
 51
-169.4282501208865
  0
ARC
  5
28E
330
17
100
AcDbEntity
  8
0
100
AcDbCircle
 10
6.91069388319098
 20
-8.25020378133055
 30
0.0
 40
7.405480143838361
100
AcDbArc
 50
-172.8805886119212
 51
-169.9308800810922
  0
ARC
  5
28F
330
17
100
AcDbEntity
  8
0
100
AcDbCircle
 10
2.3151912119513898
 20
-8.801180149539679
 30
0.0
 40
2.77700197666634
100
AcDbArc
 50
180.59516640067662
 51
187.59038171288705
  0
ARC
  5
290
330
17
100
AcDbEntity
  8
0
100
AcDbCircle
 10
1.77012332139504
 20
-8.83433995210086
 30
0.0
 40
2.23158536970129
100
AcDbArc
 50
173.95449291577174
 51
179.8892138043836
  0
ARC
  5
291
330
17
100
AcDbEntity
  8
0
100
AcDbCircle
 10
0.383112721235139
 20
-8.677409662014329
 30
0.0
 40
0.835687334023528
100
AcDbArc
 50
159.35620864616305
 51
174.63867579115526
  0
ARC
  5
292
330
17
100
AcDbEntity
  8
0
100
AcDbCircle
 10
-0.0552952416084722
 20
-8.512467076146601
 30
0.0
 40
0.367007772439831
100
AcDbArc
 50
127.7725604816162
 51
159.32310752763155
  0
SPLINE
  5
293
330
17
100
AcDbEntity
  8
0
100
AcDbSpline
 70
0
 71
2
 72
6
 73
3
 74
0
 40
0.0
 40
0.0
 40
0.0
 40
1.0
 40
1.0
 40
1.0
 10
-0.28008355034721605
 20
-8.22238498263889
 30
0.0
 10
-0.199381510416663
 20
-8.15972222222222
 30
0.0
 10
-0.0626627604166617
 20
-8.15972222222222
 30
0.0
  0
SPLINE
  5
294
330
17
100
AcDbEntity
  8
0
100
AcDbSpline
 70
0
 71
2
 72
6
 73
3
 74
0
 40
0.0
 40
0.0
 40
0.0
 40
1.0
 40
1.0
 40
1.0
 10
-0.0626627604166617
 20
-8.15972222222222
 30
0.0
 10
0.138617621527785
 20
-8.15972222222222
 30
0.0
 10
0.33704969618056
 20
-8.28409830729167
 30
0.0
  0
ARC
  5
295
330
17
100
AcDbEntity
  8
0
100
AcDbCircle
 10
-0.632445290660102
 20
-9.78113786147413
 30
0.0
 40
1.7840830565157
100
AcDbArc
 50
40.742215573064094
 51
57.07257803181796
  0
ARC
  5
296
330
17
100
AcDbEntity
  8
0
100
AcDbCircle
 10
-1.93461220376904
 20
-10.9380348807704
 30
0.0
 40
3.52662232413468
100
AcDbArc
 50
31.57865932724349
 51
41.175389930408116
  0
ARC
  5
297
330
17
100
AcDbEntity
  8
0
100
AcDbCircle
 10
-3.59474017668444
 20
-11.998007680666399
 30
0.0
 40
5.496345053223511
100
AcDbArc
 50
25.406271733826397
 51
31.929523651048484
  0
ARC
  5
298
330
17
100
AcDbEntity
  8
0
100
AcDbCircle
 10
-3.9286691784334296
 20
-12.1676271489417
 30
0.0
 40
5.87066783533346
100
AcDbArc
 50
19.601742014491375
 51
25.503363995983936
  0
ARC
  5
299
330
17
100
AcDbEntity
  8
0
100
AcDbCircle
 10
-2.15121272733245
 20
-11.561237338080499
 30
0.0
 40
3.9924516259950105
100
AcDbArc
 50
12.4526463727094
 51
19.961270722338707
  0
LINE
  5
29A
330
17
100
AcDbEntity
  8
0
100
AcDbLine
 10
1.746961907320956
 20
-10.700412781640178
 30
0.0
 11
2.428656684027791
 21
-13.749999999999998
 31
0.0
  0
LINE
  5
29B
330
17
100
AcDbEntity
  8
0
100
AcDbLine
 10
2.4286566840277803
 20
-13.75
 30
0.0
 11
4.24967447916667
 21
-13.75
 31
0.0
  0
LINE
  5
29C
330
17
100
AcDbEntity
  8
0
100
AcDbLine
 10
4.249674479166673
 20
-13.75
 30
0.0
 11
3.229980468750006
 21
-8.91357421875
 31
0.0
  0
ARC
  5
29D
330
17
100
AcDbEntity
  8
0
100
AcDbCircle
 10
7.906457356013551
 20
-7.88927004440256
 30
0.0
 40
4.78734113247591
100
AcDbArc
 50
-169.60436466296247
 51
-167.64542288588603
  0
LINE
  5
29E
330
17
100
AcDbEntity
  8
0
100
AcDbLine
 10
3.197496009996526
 20
-8.753154579656016
 30
0.0
 11
3.1699571853526516
 21
-8.596499536302765
 31
0.0
  0
ARC
  5
29F
330
17
100
AcDbEntity
  8
0
100
AcDbCircle
 10
5.4128302026301
 20
-8.21172516644706
 30
0.0
 40
2.27537800962988
100
AcDbArc
 50
186.4984476205754
 51
189.7345594802796
  0
ARC
  5
2A0
330
17
100
AcDbEntity
  8
0
100
AcDbCircle
 10
4.01385292892145
 20
-8.364559530387721
 30
0.0
 40
0.867965577318987
100
AcDbArc
 50
181.7713053407995
 51
186.92608183145498
  0
SPLINE
  5
2A1
330
17
100
AcDbEntity
  8
0
100
AcDbSpline
 70
0
 71
2
 72
6
 73
3
 74
0
 40
0.0
 40
0.0
 40
0.0
 40
1.0
 40
1.0
 40
1.0
 10
3.14643012152778
 20
-8.391384548611109
 30
0.0
 10
3.14643012152778
 20
-8.226182725694441
 30
0.0
 10
3.18250868055556
 20
-8.12459309895833
 30
0.0
  0
ARC
  5
2A2
330
17
100
AcDbEntity
  8
0
100
AcDbCircle
 10
3.4744153079289997
 20
-8.21750219620415
 30
0.0
 40
0.305885457718913
100
AcDbArc
 50
125.8419585835536
 51
162.34457949185702
  0
ARC
  5
2A3
330
17
100
AcDbEntity
  8
0
100
AcDbCircle
 10
3.54663860626276
 20
-8.36519324955575
 30
0.0
 40
0.468965708924655
100
AcDbArc
 50
96.4465861417537
 51
122.42498826585022
  0
ARC
  5
2A4
330
17
100
AcDbEntity
  8
0
100
AcDbCircle
 10
3.76313153085966
 20
-9.950490820358961
 30
0.0
 40
2.06977111014303
100
AcDbArc
 50
89.3047803507182
 51
97.47474967980968
  0
LINE
  5
2A5
330
17
100
AcDbEntity
  8
0
100
AcDbLine
 10
3.78824697501775
 20
-7.88058810763889
 30
0.0
 11
4.006618923611111
 21
-7.88058810763889
 31
0.0
  0
LINE
  5
2A6
330
17
100
AcDbEntity
  8
0
100
AcDbLine
 10
4.006618923611117
 20
-7.880588107638889
 30
0.0
 11
3.9002821180555607
 21
-7.23497178819444
 31
0.0
  0
LINE
  5
2A7
330
17
100
AcDbEntity
  8
0
100
AcDbLine
 10
3.90028211805556
 20
-7.23497178819444
 30
0.0
 11
1.08235677083334
 21
-7.23497178819444
 31
0.0
  0
LINE
  5
2A8
330
17
100
AcDbEntity
  8
0
100
AcDbLine
 10
1.0823567708333344
 20
-7.234971788194441
 30
0.0
 11
1.3140190972222252
 21
-8.47493489583334
 31
0.0
  0
LINE
  5
2A9
330
17
100
AcDbEntity
  8
0
100
AcDbLine
 10
1.31401909722223
 20
-8.47493489583334
 30
0.0
 11
1.22401682131597
 21
-8.47493489583334
 31
0.0
  0
ARC
  5
2AA
330
17
100
AcDbEntity
  8
0
100
AcDbCircle
 10
-2.1441629767128303
 20
-10.5956678020298
 30
0.0
 40
3.98021899036647
100
AcDbArc
 50
32.19606414759144
 51
43.65942815404356
  0
ARC
  5
2AB
330
17
100
AcDbEntity
  8
0
100
AcDbCircle
 10
-1.10002446083523
 20
-9.6113014392311
 30
0.0
 40
2.54415614026784
100
AcDbArc
 50
43.855230720000684
 51
59.181528441264895
  0
ARC
  5
2AC
330
17
100
AcDbEntity
  8
0
100
AcDbCircle
 10
-0.884063997831016
 20
-9.277739385325209
 30
0.0
 40
2.14661587954889
100
AcDbArc
 50
59.570519315912485
 51
76.62132066259532
  0
ARC
  5
2AD
330
17
100
AcDbEntity
  8
0
100
AcDbCircle
 10
-1.03598506778442
 20
-10.0207680772448
 30
0.0
 40
2.90511533936294
100
AcDbArc
 50
77.09722304324991
 51
90.465097260691
  0
SPLINE
  5
2AE
330
17
100
AcDbEntity
  8
0
100
AcDbSpline
 70
0
 71
2
 72
6
 73
3
 74
0
 40
0.0
 40
0.0
 40
0.0
 40
1.0
 40
1.0
 40
1.0
 10
-1.05957031249999
 20
-7.11534288194445
 30
0.0
 10
-1.43934461805555
 20
-7.11534288194445
 30
0.0
 10
-1.69474283854166
 20
-7.22262912326389
 30
0.0
  0
ARC
  5
2AF
330
17
100
AcDbEntity
  8
0
100
AcDbCircle
 10
-1.3033771704039598
 20
-8.21554029611049
 30
0.0
 40
1.0664477494159699
100
AcDbArc
 50
111.5123652873558
 51
138.7715646277081
  0
ARC
  5
2B0
330
17
100
AcDbEntity
  8
0
100
AcDbCircle
 10
-1.24334882815478
 20
-8.23896315090221
 30
0.0
 40
1.12661274097634
100
AcDbArc
 50
139.8874852231167
 51
164.2843209526336
  0
ARC
  5
2B1
330
17
100
AcDbEntity
  8
0
100
AcDbCircle
 10
-0.578416715215744
 20
-8.425928712277779
 30
0.0
 40
1.81774580563871
100
AcDbArc
 50
164.28841082632468
 51
180.4074271079035
  0
LINE
  5
2B2
330
17
100
AcDbEntity
  8
0
100
AcDbLine
 10
-2.39637586805555
 20
-8.438855414839539
 30
0.0
 11
-2.39637586805555
 21
-8.53379991319445
 31
0.0
  0
LINE
  5
2B3
330
17
100
AcDbEntity
  8
0
100
AcDbLine
 10
-2.39637586805555
 20
-8.53379991319445
 30
0.0
 11
-2.4671473451779
 21
-8.53379991319445
 31
0.0
  0
ARC
  5
2B4
330
17
100
AcDbEntity
  8
0
100
AcDbCircle
 10
-6.5592611102401
 20
-11.0420861613669
 30
0.0
 40
4.79967654837098
100
AcDbArc
 50
31.506470442439255
 51
40.919180160985825
  0
ARC
  5
2B5
330
17
100
AcDbEntity
  8
0
100
AcDbCircle
 10
-4.8473484919668905
 20
-9.561515023416339
 30
0.0
 40
2.53551019376643
100
AcDbArc
 50
40.97615915553439
 51
56.60978369855323
  0
ARC
  5
2B6
330
17
100
AcDbEntity
  8
0
100
AcDbCircle
 10
-4.65167921977783
 20
-9.293524789420179
 30
0.0
 40
2.2038336746242497
100
AcDbArc
 50
57.02280367552651
 51
74.3445114754601
  0
ARC
  5
2B7
330
17
100
AcDbEntity
  8
0
100
AcDbCircle
 10
-4.744267086056181
 20
-9.72161566342365
 30
0.0
 40
2.64189625884503
100
AcDbArc
 50
74.916461284025
 51
90.68072146046029
  0
SPLINE
  5
2B8
330
17
100
AcDbEntity
  8
0
100
AcDbSpline
 70
0
 71
2
 72
6
 73
3
 74
0
 40
0.0
 40
0.0
 40
0.0
 40
1.0
 40
1.0
 40
1.0
 10
-4.7756618923611
 20
-7.07926432291667
 30
0.0
 10
-5.14973958333333
 20
-7.07926432291667
 30
0.0
 10
-5.40418836805555
 20
-7.19224717881945
 30
0.0
  0
ARC
  5
2B9
330
17
100
AcDbEntity
  8
0
100
AcDbCircle
 10
-4.96595269349761
 20
-8.22545072127663
 30
0.0
 40
1.1216953750413698
100
AcDbArc
 50
112.98434127825732
 51
139.54531285421953
  0
ARC
  5
2BA
330
17
100
AcDbEntity
  8
0
100
AcDbCircle
 10
-4.925612342750259
 20
-8.23746112113874
 30
0.0
 40
1.15996273158922
100
AcDbArc
 50
140.38674513826962
 51
165.31038635444366
  0
ARC
  5
2BB
330
17
100
AcDbEntity
  8
0
100
AcDbCircle
 10
-4.08910874555307
 20
-8.46382414925868
 30
0.0
 40
2.0269788791813403
100
AcDbArc
 50
165.11698438870704
 51
180.31403279914764
  0
ARC
  5
2BC
330
17
100
AcDbEntity
  8
0
100
AcDbCircle
 10
-3.66509615096009
 20
-8.46102022994168
 30
0.0
 40
2.45133945583879
100
AcDbArc
 50
180.32525076238775
 51
188.02929960520373
  0
ARC
  5
2BD
330
17
100
AcDbEntity
  8
0
100
AcDbCircle
 10
1.98345798742492
 20
-7.70361551502615
 30
0.0
 40
8.15053240280609
100
AcDbArc
 50
-172.2449136688093
 51
-169.730856959925
  0
ARC
  5
2BE
330
17
100
AcDbEntity
  8
0
100
AcDbCircle
 10
3.64109323853827
 20
-7.40624858319528
 30
0.0
 40
9.83462703029054
100
AcDbArc
 50
-169.7477929295552
 51
-167.6323420453209
  0
ARC
  5
2BF
330
17
100
AcDbEntity
  8
0
100
AcDbCircle
 10
-17.3460259993103
 20
-12.0178956256674
 30
0.0
 40
11.6531743822891
100
AcDbArc
 50
10.71339838462668
 51
12.414471546984155
  0
LINE
  5
2C0
330
17
100
AcDbEntity
  8
0
100
AcDbLine
 10
-5.895996035372951
 20
-9.851617025104172
 30
0.0
 11
-5.616861753039245
 21
-11.15044593065691
 31
0.0
  0
ARC
  5
2C1
330
17
100
AcDbEntity
  8
0
100
AcDbCircle
 10
-14.8710744900212
 20
-13.3257395233619
 30
0.0
 40
9.50632535796401
100
AcDbArc
 50
9.433909231848501
 51
13.227805766950096
  0
ARC
  5
2C2
330
17
100
AcDbEntity
  8
0
100
AcDbCircle
 10
-8.85186320435712
 20
-12.3378546295334
 30
0.0
 40
3.40624508137848
100
AcDbArc
 50
0.3936658381214181
 51
9.63715653953209
  0
SPLINE
  5
2C3
330
17
100
AcDbEntity
  8
0
100
AcDbSpline
 70
0
 71
2
 72
6
 73
3
 74
0
 40
0.0
 40
0.0
 40
0.0
 40
1.0
 40
1.0
 40
1.0
 10
-5.44596354166666
 20
-12.314453125
 30
0.0
 10
-5.44596354166666
 20
-12.5802951388889
 30
0.0
 10
-5.55894639756944
 20
-12.7198621961806
 30
0.0
  0
SPLINE
  5
2C4
330
17
100
AcDbEntity
  8
0
100
AcDbSpline
 70
0
 71
2
 72
6
 73
3
 74
0
 40
0.0
 40
0.0
 40
0.0
 40
1.0
 40
1.0
 40
1.0
 10
-5.55894639756944
 20
-12.7198621961806
 30
0.0
 10
-5.67192925347222
 20
-12.8594292534722
 30
0.0
 10
-5.87320963541666
 20
-12.8594292534722
 30
0.0
  0
ARC
  5
2C5
330
17
100
AcDbEntity
  8
0
100
AcDbCircle
 10
-5.88516924446148
 20
-12.0310966168903
 30
0.0
 40
0.8280597336391959
100
AcDbArc
 50
246.15818649863053
 51
270.8271888414143
  0
ARC
  5
2C6
330
17
100
AcDbEntity
  8
0
100
AcDbCircle
 10
-4.85742610634435
 20
-9.93496309066102
 30
0.0
 40
3.1623145091110003
100
AcDbArc
 50
236.762336187215
 51
244.47722238934404
  0
LINE
  5
2C7
330
17
100
AcDbEntity
  8
0
100
AcDbLine
 10
-6.59073230003718
 20
-12.579936189473207
 30
0.0
 11
-6.881582876517602
 21
-12.996251720513813
 31
0.0
  0
ARC
  5
2C8
330
17
100
AcDbEntity
  8
0
100
AcDbCircle
 10
-4.04500647769094
 20
-10.2432855591392
 30
0.0
 40
3.95284560184866
100
AcDbArc
 50
224.14301457923747
 51
230.69122933303095
  0
ARC
  5
2C9
330
17
100
AcDbEntity
  8
0
100
AcDbCircle
 10
-5.05912540777272
 20
-11.4789718871766
 30
0.0
 40
2.3545779271779996
100
AcDbArc
 50
230.73652253776467
 51
242.75407436537463
  0
ARC
  5
2CA
330
17
100
AcDbEntity
  8
0
100
AcDbCircle
 10
-5.065306698190669
 20
-11.4748308085489
 30
0.0
 40
2.35591095731287
100
AcDbArc
 50
242.93384918338063
 51
256.12963979301986
  0
ARC
  5
2CB
330
17
100
AcDbEntity
  8
0
100
AcDbCircle
 10
-5.04402372191107
 20
-11.3574588834728
 30
0.0
 40
2.4757520615553
100
AcDbArc
 50
256.3026527143064
 51
270.58555680822093
  0
SPLINE
  5
2CC
330
17
100
AcDbEntity
  8
0
100
AcDbSpline
 70
0
 71
2
 72
6
 73
3
 74
0
 40
0.0
 40
0.0
 40
0.0
 40
1.0
 40
1.0
 40
1.0
 10
9.88606770833334
 20
4.35546875
 30
0.0
 10
9.88606770833334
 20
1.416015625
 30
0.0
 10
11.1328125
 20
-0.0195312500000013
 30
0.0
  0
SPLINE
  5
2CD
330
17
100
AcDbEntity
  8
0
100
AcDbSpline
 70
0
 71
2
 72
6
 73
3
 74
0
 40
0.0
 40
0.0
 40
0.0
 40
1.0
 40
1.0
 40
1.0
 10
11.1328125
 20
-0.0195312500000013
 30
0.0
 10
12.3795572916667
 20
-1.455078125
 30
0.0
 10
14.7786458333333
 20
-1.455078125
 30
0.0
  0
SPLINE
  5
2CE
330
17
100
AcDbEntity
  8
0
100
AcDbSpline
 70
0
 71
2
 72
6
 73
3
 74
0
 40
0.0
 40
0.0
 40
0.0
 40
1.0
 40
1.0
 40
1.0
 10
14.7786458333333
 20
-1.455078125
 30
0.0
 10
15.908203125
 20
-1.455078125
 30
0.0
 10
16.8033854166666
 20
-1.0986328125
 30
0.0
  0
ARC
  5
2CF
330
17
100
AcDbEntity
  8
0
100
AcDbCircle
 10
15.382792200515
 20
2.51845109032201
 30
0.0
 40
3.8856329904318
100
AcDbArc
 50
291.44219181744216
 51
319.2204475336808
  0
SPLINE
  5
2D0
330
17
100
AcDbEntity
  8
0
100
AcDbSpline
 70
0
 71
2
 72
6
 73
3
 74
0
 40
0.0
 40
0.0
 40
0.0
 40
1.0
 40
1.0
 40
1.0
 10
18.3251953125
 20
-0.0195312500000013
 30
0.0
 10
18.9518229166666
 20
0.703125
 30
0.0
 10
19.2822265625
 20
1.796875
 30
0.0
  0
SPLINE
  5
2D1
330
17
100
AcDbEntity
  8
0
100
AcDbSpline
 70
0
 71
2
 72
6
 73
3
 74
0
 40
0.0
 40
0.0
 40
0.0
 40
1.0
 40
1.0
 40
1.0
 10
19.2822265625
 20
1.796875
 30
0.0
 10
19.612630208333403
 20
2.890625
 30
0.0
 10
19.612630208333403
 20
4.35546875
 30
0.0
  0
SPLINE
  5
2D2
330
17
100
AcDbEntity
  8
0
100
AcDbSpline
 70
0
 71
2
 72
6
 73
3
 74
0
 40
0.0
 40
0.0
 40
0.0
 40
1.0
 40
1.0
 40
1.0
 10
19.612630208333403
 20
4.35546875
 30
0.0
 10
19.612630208333403
 20
7.275390625
 30
0.0
 10
18.3756510416666
 20
8.69954427083333
 30
0.0
  0
SPLINE
  5
2D3
330
17
100
AcDbEntity
  8
0
100
AcDbSpline
 70
0
 71
2
 72
6
 73
3
 74
0
 40
0.0
 40
0.0
 40
0.0
 40
1.0
 40
1.0
 40
1.0
 10
18.3756510416666
 20
8.69954427083333
 30
0.0
 10
17.138671875
 20
10.1236979166667
 30
0.0
 10
14.7200520833333
 20
10.1236979166667
 30
0.0
  0
SPLINE
  5
2D4
330
17
100
AcDbEntity
  8
0
100
AcDbSpline
 70
0
 71
2
 72
6
 73
3
 74
0
 40
0.0
 40
0.0
 40
0.0
 40
1.0
 40
1.0
 40
1.0
 10
14.7200520833333
 20
10.1236979166667
 30
0.0
 10
13.590494791666702
 20
10.1236979166667
 30
0.0
 10
12.6953125
 20
9.77213541666666
 30
0.0
  0
ARC
  5
2D5
330
17
100
AcDbEntity
  8
0
100
AcDbCircle
 10
14.0915473785911
 20
6.16215740872637
 30
0.0
 40
3.8701019652951603
100
AcDbArc
 50
111.14502600407091
 51
138.93684902479464
  0
SPLINE
  5
2D6
330
17
100
AcDbEntity
  8
0
100
AcDbSpline
 70
0
 71
2
 72
6
 73
3
 74
0
 40
0.0
 40
0.0
 40
0.0
 40
1.0
 40
1.0
 40
1.0
 10
11.1735026041667
 20
8.70442708333333
 30
0.0
 10
10.546875
 20
7.98828125
 30
0.0
 10
10.2164713541667
 20
6.904296875
 30
0.0
  0
SPLINE
  5
2D7
330
17
100
AcDbEntity
  8
0
100
AcDbSpline
 70
0
 71
2
 72
6
 73
3
 74
0
 40
0.0
 40
0.0
 40
0.0
 40
1.0
 40
1.0
 40
1.0
 10
10.2164713541667
 20
6.904296875
 30
0.0
 10
9.88606770833334
 20
5.8203125
 30
0.0
 10
9.88606770833334
 20
4.35546875
 30
0.0
  0
SPLINE
  5
2D8
330
17
100
AcDbEntity
  8
0
100
AcDbSpline
 70
0
 71
2
 72
6
 73
3
 74
0
 40
0.0
 40
0.0
 40
0.0
 40
1.0
 40
1.0
 40
1.0
 10
17.59765625
 20
4.35546875
 30
0.0
 10
17.59765625
 20
3.19661458333333
 30
0.0
 10
17.4446614583334
 20
2.3111979166666603
 30
0.0
  0
SPLINE
  5
2D9
330
17
100
AcDbEntity
  8
0
100
AcDbSpline
 70
0
 71
2
 72
6
 73
3
 74
0
 40
0.0
 40
0.0
 40
0.0
 40
1.0
 40
1.0
 40
1.0
 10
17.4446614583334
 20
2.3111979166666603
 30
0.0
 10
17.2916666666666
 20
1.42578125
 30
0.0
 10
16.9514973958334
 20
0.830078124999999
 30
0.0
  0
SPLINE
  5
2DA
330
17
100
AcDbEntity
  8
0
100
AcDbSpline
 70
0
 71
2
 72
6
 73
3
 74
0
 40
0.0
 40
0.0
 40
0.0
 40
1.0
 40
1.0
 40
1.0
 10
16.9514973958334
 20
0.830078124999999
 30
0.0
 10
16.611328125
 20
0.234375
 30
0.0
 10
16.0677083333334
 20
-0.0699869791666681
 30
0.0
  0
SPLINE
  5
2DB
330
17
100
AcDbEntity
  8
0
100
AcDbSpline
 70
0
 71
2
 72
6
 73
3
 74
0
 40
0.0
 40
0.0
 40
0.0
 40
1.0
 40
1.0
 40
1.0
 10
16.0677083333334
 20
-0.0699869791666681
 30
0.0
 10
15.5240885416667
 20
-0.37434895833333404
 30
0.0
 10
14.7395833333333
 20
-0.37434895833333404
 30
0.0
  0
SPLINE
  5
2DC
330
17
100
AcDbEntity
  8
0
100
AcDbSpline
 70
0
 71
2
 72
6
 73
3
 74
0
 40
0.0
 40
0.0
 40
0.0
 40
1.0
 40
1.0
 40
1.0
 10
14.7395833333333
 20
-0.37434895833333404
 30
0.0
 10
13.955078125
 20
-0.37434895833333404
 30
0.0
 10
13.4163411458333
 20
-0.0699869791666681
 30
0.0
  0
SPLINE
  5
2DD
330
17
100
AcDbEntity
  8
0
100
AcDbSpline
 70
0
 71
2
 72
6
 73
3
 74
0
 40
0.0
 40
0.0
 40
0.0
 40
1.0
 40
1.0
 40
1.0
 10
13.4163411458333
 20
-0.0699869791666681
 30
0.0
 10
12.8776041666667
 20
0.234375
 30
0.0
 10
12.5423177083333
 20
0.830078124999999
 30
0.0
  0
SPLINE
  5
2DE
330
17
100
AcDbEntity
  8
0
100
AcDbSpline
 70
0
 71
2
 72
6
 73
3
 74
0
 40
0.0
 40
0.0
 40
0.0
 40
1.0
 40
1.0
 40
1.0
 10
12.5423177083333
 20
0.830078124999999
 30
0.0
 10
12.20703125
 20
1.42578125
 30
0.0
 10
12.0589192708333
 20
2.3111979166666603
 30
0.0
  0
SPLINE
  5
2DF
330
17
100
AcDbEntity
  8
0
100
AcDbSpline
 70
0
 71
2
 72
6
 73
3
 74
0
 40
0.0
 40
0.0
 40
0.0
 40
1.0
 40
1.0
 40
1.0
 10
12.0589192708333
 20
2.3111979166666603
 30
0.0
 10
11.9108072916667
 20
3.19661458333333
 30
0.0
 10
11.9108072916667
 20
4.35546875
 30
0.0
  0
SPLINE
  5
2E0
330
17
100
AcDbEntity
  8
0
100
AcDbSpline
 70
0
 71
2
 72
6
 73
3
 74
0
 40
0.0
 40
0.0
 40
0.0
 40
1.0
 40
1.0
 40
1.0
 10
11.9108072916667
 20
4.35546875
 30
0.0
 10
11.9108072916667
 20
5.51432291666667
 30
0.0
 10
12.0638020833333
 20
6.38997395833333
 30
0.0
  0
SPLINE
  5
2E1
330
17
100
AcDbEntity
  8
0
100
AcDbSpline
 70
0
 71
2
 72
6
 73
3
 74
0
 40
0.0
 40
0.0
 40
0.0
 40
1.0
 40
1.0
 40
1.0
 10
12.0638020833333
 20
6.38997395833333
 30
0.0
 10
12.216796875
 20
7.265625
 30
0.0
 10
12.5520833333333
 20
7.84993489583333
 30
0.0
  0
SPLINE
  5
2E2
330
17
100
AcDbEntity
  8
0
100
AcDbSpline
 70
0
 71
2
 72
6
 73
3
 74
0
 40
0.0
 40
0.0
 40
0.0
 40
1.0
 40
1.0
 40
1.0
 10
12.5520833333333
 20
7.84993489583333
 30
0.0
 10
12.8873697916667
 20
8.43424479166667
 30
0.0
 10
13.4326171875
 20
8.72884114583333
 30
0.0
  0
SPLINE
  5
2E3
330
17
100
AcDbEntity
  8
0
100
AcDbSpline
 70
0
 71
2
 72
6
 73
3
 74
0
 40
0.0
 40
0.0
 40
0.0
 40
1.0
 40
1.0
 40
1.0
 10
13.4326171875
 20
8.72884114583333
 30
0.0
 10
13.9778645833333
 20
9.0234375
 30
0.0
 10
14.7591145833333
 20
9.0234375
 30
0.0
  0
SPLINE
  5
2E4
330
17
100
AcDbEntity
  8
0
100
AcDbSpline
 70
0
 71
2
 72
6
 73
3
 74
0
 40
0.0
 40
0.0
 40
0.0
 40
1.0
 40
1.0
 40
1.0
 10
14.7591145833333
 20
9.0234375
 30
0.0
 10
15.5436197916666
 20
9.0234375
 30
0.0
 10
16.0823567708334
 20
8.72884114583333
 30
0.0
  0
SPLINE
  5
2E5
330
17
100
AcDbEntity
  8
0
100
AcDbSpline
 70
0
 71
2
 72
6
 73
3
 74
0
 40
0.0
 40
0.0
 40
0.0
 40
1.0
 40
1.0
 40
1.0
 10
16.0823567708334
 20
8.72884114583333
 30
0.0
 10
16.62109375
 20
8.43424479166667
 30
0.0
 10
16.9563802083334
 20
7.84993489583333
 30
0.0
  0
SPLINE
  5
2E6
330
17
100
AcDbEntity
  8
0
100
AcDbSpline
 70
0
 71
2
 72
6
 73
3
 74
0
 40
0.0
 40
0.0
 40
0.0
 40
1.0
 40
1.0
 40
1.0
 10
16.9563802083334
 20
7.84993489583333
 30
0.0
 10
17.2916666666666
 20
7.265625
 30
0.0
 10
17.4446614583334
 20
6.38997395833333
 30
0.0
  0
SPLINE
  5
2E7
330
17
100
AcDbEntity
  8
0
100
AcDbSpline
 70
0
 71
2
 72
6
 73
3
 74
0
 40
0.0
 40
0.0
 40
0.0
 40
1.0
 40
1.0
 40
1.0
 10
17.4446614583334
 20
6.38997395833333
 30
0.0
 10
17.59765625
 20
5.51432291666667
 30
0.0
 10
17.59765625
 20
4.35546875
 30
0.0
  0
LINE
  5
2E8
330
17
100
AcDbEntity
  8
0
100
AcDbLine
 10
8.655598958333341
 20
9.04622395833333
 30
0.0
 11
8.655598958333341
 21
9.918619791666659
 31
0.0
  0
LINE
  5
2E9
330
17
100
AcDbEntity
  8
0
100
AcDbLine
 10
8.655598958333341
 20
9.918619791666659
 30
0.0
 11
3.4472656250000098
 21
9.918619791666659
 31
0.0
  0
LINE
  5
2EA
330
17
100
AcDbEntity
  8
0
100
AcDbLine
 10
3.4472656250000098
 20
9.918619791666659
 30
0.0
 11
3.4472656250000098
 21
9.04622395833333
 31
0.0
  0
LINE
  5
2EB
330
17
100
AcDbEntity
  8
0
100
AcDbLine
 10
3.4472656250000098
 20
9.04622395833333
 30
0.0
 11
3.7109375000000098
 21
9.04622395833333
 31
0.0
  0
SPLINE
  5
2EC
330
17
100
AcDbEntity
  8
0
100
AcDbSpline
 70
0
 71
2
 72
6
 73
3
 74
0
 40
0.0
 40
0.0
 40
0.0
 40
1.0
 40
1.0
 40
1.0
 10
3.7109375000000098
 20
9.04622395833333
 30
0.0
 10
4.34244791666668
 20
9.04622395833333
 30
0.0
 10
4.65332031250001
 20
8.80208333333333
 30
0.0
  0
SPLINE
  5
2ED
330
17
100
AcDbEntity
  8
0
100
AcDbSpline
 70
0
 71
2
 72
6
 73
3
 74
0
 40
0.0
 40
0.0
 40
0.0
 40
1.0
 40
1.0
 40
1.0
 10
4.65332031250001
 20
8.80208333333333
 30
0.0
 10
4.96419270833334
 20
8.55794270833333
 30
0.0
 10
4.96419270833334
 20
8.037109375
 30
0.0
  0
ARC
  5
2EE
330
17
100
AcDbEntity
  8
0
100
AcDbCircle
 10
3.4023359336877097
 20
8.04220249556416
 30
0.0
 40
1.56195217554819
100
AcDbArc
 50
346.86273000618803
 51
359.81316258746415
  0
ARC
  5
2EF
330
17
100
AcDbEntity
  8
0
100
AcDbCircle
 10
0.9751770620455771
 20
8.63950920812519
 30
0.0
 40
4.06186843169921
100
AcDbArc
 50
340.37807049930905
 51
346.43928000422727
  0
LINE
  5
2F0
330
17
100
AcDbEntity
  8
0
100
AcDbLine
 10
4.801432166261402
 20
7.275390276171556
 30
0.0
 11
3.3854165998369683
 21
3.336588355772548
 31
0.0
  0
ARC
  5
2F1
330
17
100
AcDbEntity
  8
0
100
AcDbCircle
 10
30.3162484175391
 20
-6.2280954497684995
 30
0.0
 40
28.5789911860845
100
AcDbArc
 50
160.44712941646804
 51
162.1559878338544
  0
ARC
  5
2F2
330
17
100
AcDbEntity
  8
0
100
AcDbCircle
 10
39.9064886471274
 20
-9.387070261396461
 30
0.0
 40
38.676015494722904
100
AcDbArc
 50
162.0547981228023
 51
163.40317730156698
  0
ARC
  5
2F3
330
17
100
AcDbEntity
  8
0
100
AcDbCircle
 10
32.3333262536786
 20
-7.1479831302291
 30
0.0
 40
30.778729903158602
100
AcDbArc
 50
163.37086341812852
 51
164.93618099324297
  0
ARC
  5
2F4
330
17
100
AcDbEntity
  8
0
100
AcDbCircle
 10
8.41961509220887
 20
-0.771295147930882
 30
0.0
 40
6.02915562709169
100
AcDbArc
 50
164.38993023324022
 51
170.6803675310949
  0
LINE
  5
2F5
330
17
100
AcDbEntity
  8
0
100
AcDbLine
 10
2.47004260272716
 20
0.20507812499999797
 30
0.0
 11
2.3996742232609702
 21
0.20507812499999797
 31
0.0
  0
ARC
  5
2F6
330
17
100
AcDbEntity
  8
0
100
AcDbCircle
 10
-3.0519314221174696
 20
-1.14923967013173
 30
0.0
 40
5.61731081594499
100
AcDbArc
 50
13.95130583403543
 51
19.869068440338353
  0
ARC
  5
2F7
330
17
100
AcDbEntity
  8
0
100
AcDbCircle
 10
-25.924527738122297
 20
-9.13361823608452
 30
0.0
 40
29.8437408876021
100
AcDbArc
 50
19.360928206338784
 51
20.834901629974635
  0
ARC
  5
2F8
330
17
100
AcDbEntity
  8
0
100
AcDbCircle
 10
-101.75897419369299
 20
-37.8585644847068
 30
0.0
 40
110.93623775533699
100
AcDbArc
 50
20.769867124656837
 51
21.21104705057804
  0
ARC
  5
2F9
330
17
100
AcDbEntity
  8
0
100
AcDbCircle
 10
105.263154810472
 20
42.495655570073396
 30
0.0
 40
111.133476727357
100
AcDbArc
 50
200.7824836312769
 51
201.21571120233986
  0
LINE
  5
2FA
330
17
100
AcDbEntity
  8
0
100
AcDbLine
 10
1.3606771017126156
 20
3.063150991734286
 30
0.0
 11
-0.13346505840966816
 21
7.122399953983729
 31
0.0
  0
ARC
  5
2FB
330
17
100
AcDbEntity
  8
0
100
AcDbCircle
 10
2.4147535179178004
 20
8.1560386996962
 30
0.0
 40
2.74960884087489
100
AcDbArc
 50
191.44109382378508
 51
202.0791355791349
  0
ARC
  5
2FC
330
17
100
AcDbEntity
  8
0
100
AcDbCircle
 10
1.87105523092846
 20
8.06328517904557
 30
0.0
 40
2.19760920436867
100
AcDbArc
 50
181.1920567926006
 51
191.88261970361935
  0
SPLINE
  5
2FD
330
17
100
AcDbEntity
  8
0
100
AcDbSpline
 70
0
 71
2
 72
6
 73
3
 74
0
 40
0.0
 40
0.0
 40
0.0
 40
1.0
 40
1.0
 40
1.0
 10
-0.325520833333329
 20
8.017578125
 30
0.0
 10
-0.325520833333329
 20
8.55794270833333
 30
0.0
 10
0.014648437500007501
 20
8.80208333333333
 30
0.0
  0
SPLINE
  5
2FE
330
17
100
AcDbEntity
  8
0
100
AcDbSpline
 70
0
 71
2
 72
6
 73
3
 74
0
 40
0.0
 40
0.0
 40
0.0
 40
1.0
 40
1.0
 40
1.0
 10
0.014648437500007501
 20
8.80208333333333
 30
0.0
 10
0.354817708333343
 20
9.04622395833333
 30
0.0
 10
1.04492187500001
 20
9.04622395833333
 30
0.0
  0
LINE
  5
2FF
330
17
100
AcDbEntity
  8
0
100
AcDbLine
 10
1.04492187500001
 20
9.04622395833333
 30
0.0
 11
1.19791666666667
 21
9.04622395833333
 31
0.0
  0
LINE
  5
300
330
17
100
AcDbEntity
  8
0
100
AcDbLine
 10
1.19791666666667
 20
9.04622395833333
 30
0.0
 11
1.19791666666667
 21
9.918619791666659
 31
0.0
  0
LINE
  5
301
330
17
100
AcDbEntity
  8
0
100
AcDbLine
 10
1.1979166666666698
 20
9.918619791666659
 30
0.0
 11
-3.26822916666665
 21
9.918619791666659
 31
0.0
  0
LINE
  5
302
330
17
100
AcDbEntity
  8
0
100
AcDbLine
 10
-3.26822916666665
 20
9.918619791666659
 30
0.0
 11
-3.26822916666665
 21
9.04622395833333
 31
0.0
  0
LINE
  5
303
330
17
100
AcDbEntity
  8
0
100
AcDbLine
 10
-3.26822916666665
 20
9.04622395833333
 30
0.0
 11
-3.01106770833333
 21
9.04622395833333
 31
0.0
  0
SPLINE
  5
304
330
17
100
AcDbEntity
  8
0
100
AcDbSpline
 70
0
 71
2
 72
6
 73
3
 74
0
 40
0.0
 40
0.0
 40
0.0
 40
1.0
 40
1.0
 40
1.0
 10
-3.01106770833333
 20
9.04622395833333
 30
0.0
 10
-2.70833333333332
 20
9.04622395833333
 30
0.0
 10
-2.4934895833333304
 20
8.9794921875
 30
0.0
  0
ARC
  5
305
330
17
100
AcDbEntity
  8
0
100
AcDbCircle
 10
-2.76978701361901
 20
8.13222242482096
 30
0.0
 40
0.891730413707717
100
AcDbArc
 50
41.95467688255952
 51
71.93868381527568
  0
SPLINE
  5
306
330
17
100
AcDbEntity
  8
0
100
AcDbSpline
 70
0
 71
2
 72
6
 73
3
 74
0
 40
0.0
 40
0.0
 40
0.0
 40
1.0
 40
1.0
 40
1.0
 10
-2.10611979166666
 20
8.72884114583333
 30
0.0
 10
-1.93359374999999
 20
8.544921875
 30
0.0
 10
-1.7757161458333302
 20
8.230794270833329
 30
0.0
  0
ARC
  5
307
330
17
100
AcDbEntity
  8
0
100
AcDbCircle
 10
-10.347539926490901
 20
4.07297390998399
 30
0.0
 40
9.52777469473096
100
AcDbArc
 50
20.555968523989794
 51
25.87601413504616
  0
LINE
  5
308
330
17
100
AcDbEntity
  8
0
100
AcDbLine
 10
-1.4257816508086714
 20
7.418620849499664
 30
0.0
 11
1.8587239583333406
 21
-1.2499999999999991
 31
0.0
  0
LINE
  5
309
330
17
100
AcDbEntity
  8
0
100
AcDbLine
 10
1.8587239583333401
 20
-1.25
 30
0.0
 11
3.76302083333333
 21
-1.25
 31
0.0
  0
LINE
  5
30A
330
17
100
AcDbEntity
  8
0
100
AcDbLine
 10
3.763020833333333
 20
-1.2499999999999996
 30
0.0
 11
7.109375000000002
 21
7.93619791666667
 31
0.0
  0
SPLINE
  5
30B
330
17
100
AcDbEntity
  8
0
100
AcDbSpline
 70
0
 71
2
 72
6
 73
3
 74
0
 40
0.0
 40
0.0
 40
0.0
 40
1.0
 40
1.0
 40
1.0
 10
7.109375
 20
7.9361979166666705
 30
0.0
 10
7.22981770833334
 20
8.26171875
 30
0.0
 10
7.36328125000001
 20
8.474934895833329
 30
0.0
  0
ARC
  5
30C
330
17
100
AcDbEntity
  8
0
100
AcDbCircle
 10
8.40825148078444
 20
7.84700563870769
 30
0.0
 40
1.21850466536537
100
AcDbArc
 50
127.35551832778174
 51
148.99807449200068
  0
ARC
  5
30D
330
17
100
AcDbEntity
  8
0
100
AcDbCircle
 10
8.29769055913232
 20
7.950140217045281
 30
0.0
 40
1.06937191910667
100
AcDbArc
 50
102.57624092572074
 51
125.99964138789002
  0
ARC
  5
30E
330
17
100
AcDbEntity
  8
0
100
AcDbCircle
 10
8.55365259683822
 20
6.67402367270348
 30
0.0
 40
2.3718360450717304
100
AcDbArc
 50
89.03161920096971
 51
101.89874319864475
  0
LINE
  5
30F
330
17
100
AcDbEntity
  8
0
100
AcDbLine
 10
8.59374405858045
 20
9.04622395833333
 30
0.0
 11
8.655598958333341
 21
9.04622395833333
 31
0.0
  0
SPLINE
  5
310
330
17
100
AcDbEntity
  8
0
100
AcDbSpline
 70
0
 71
2
 72
6
 73
3
 74
0
 40
0.0
 40
0.0
 40
0.0
 40
1.0
 40
1.0
 40
1.0
 10
-6.38997395833332
 20
1.77083333333333
 30
0.0
 10
-6.38997395833332
 20
0.794270833333332
 30
0.0
 10
-6.80175781249999
 20
0.310872395833332
 30
0.0
  0
SPLINE
  5
311
330
17
100
AcDbEntity
  8
0
100
AcDbSpline
 70
0
 71
2
 72
6
 73
3
 74
0
 40
0.0
 40
0.0
 40
0.0
 40
1.0
 40
1.0
 40
1.0
 10
-6.80175781249999
 20
0.310872395833332
 30
0.0
 10
-7.21354166666666
 20
-0.172526041666668
 30
0.0
 10
-8.07617187499999
 20
-0.172526041666668
 30
0.0
  0
SPLINE
  5
312
330
17
100
AcDbEntity
  8
0
100
AcDbSpline
 70
0
 71
2
 72
6
 73
3
 74
0
 40
0.0
 40
0.0
 40
0.0
 40
1.0
 40
1.0
 40
1.0
 10
-8.07617187499999
 20
-0.172526041666668
 30
0.0
 10
-8.707682291666659
 20
-0.172526041666668
 30
0.0
 10
-9.22200520833332
 20
0.0309244791666652
 30
0.0
  0
ARC
  5
313
330
17
100
AcDbEntity
  8
0
100
AcDbCircle
 10
-8.3494859966875
 20
2.3009273267241497
 30
0.0
 40
2.4312382482294104
100
AcDbArc
 50
224.01275356633565
 51
248.97477690044616
  0
ARC
  5
314
330
17
100
AcDbEntity
  8
0
100
AcDbCircle
 10
-8.247881318466131
 20
2.3493448771582
 30
0.0
 40
2.53855032829919
100
AcDbArc
 50
198.86240860270462
 51
223.20513173994445
  0
SPLINE
  5
315
330
17
100
AcDbEntity
  8
0
100
AcDbSpline
 70
0
 71
2
 72
6
 73
3
 74
0
 40
0.0
 40
0.0
 40
0.0
 40
1.0
 40
1.0
 40
1.0
 10
-10.6510416666667
 20
1.5283203125
 30
0.0
 10
-10.8430989583333
 20
2.0670572916666603
 30
0.0
 10
-10.8430989583333
 20
2.72786458333333
 30
0.0
  0
LINE
  5
316
330
17
100
AcDbEntity
  8
0
100
AcDbLine
 10
-10.8430989583333
 20
2.72786458333333
 30
0.0
 11
-10.8430989583333
 21
4.41731770833333
 31
0.0
  0
LINE
  5
317
330
17
100
AcDbEntity
  8
0
100
AcDbLine
 10
-10.8430989583333
 20
4.417317708333323
 30
0.0
 11
-9.51171874999999
 21
4.355468749999992
 31
0.0
  0
SPLINE
  5
318
330
17
100
AcDbEntity
  8
0
100
AcDbSpline
 70
0
 71
2
 72
6
 73
3
 74
0
 40
0.0
 40
0.0
 40
0.0
 40
1.0
 40
1.0
 40
1.0
 10
-9.51171874999999
 20
4.35546875
 30
0.0
 10
-8.62630208333332
 20
4.3131510416666705
 30
0.0
 10
-8.03222656249999
 20
4.1357421875
 30
0.0
  0
SPLINE
  5
319
330
17
100
AcDbEntity
  8
0
100
AcDbSpline
 70
0
 71
2
 72
6
 73
3
 74
0
 40
0.0
 40
0.0
 40
0.0
 40
1.0
 40
1.0
 40
1.0
 10
-8.03222656249999
 20
4.1357421875
 30
0.0
 10
-7.43815104166665
 20
3.9583333333333304
 30
0.0
 10
-7.07194010416666
 20
3.6376953125
 30
0.0
  0
ARC
  5
31A
330
17
100
AcDbEntity
  8
0
100
AcDbCircle
 10
-8.2459683639981
 20
2.28907972278277
 30
0.0
 40
1.7880091004977898
100
AcDbArc
 50
18.277391226422093
 51
48.95901786355957
  0
SPLINE
  5
31B
330
17
100
AcDbEntity
  8
0
100
AcDbSpline
 70
0
 71
2
 72
6
 73
3
 74
0
 40
0.0
 40
0.0
 40
0.0
 40
1.0
 40
1.0
 40
1.0
 10
-6.547851562499989
 20
2.84993489583333
 30
0.0
 10
-6.38997395833332
 20
2.3828125
 30
0.0
 10
-6.38997395833332
 20
1.77083333333333
 30
0.0
  0
SPLINE
  5
31C
330
17
100
AcDbEntity
  8
0
100
AcDbSpline
 70
0
 71
2
 72
6
 73
3
 74
0
 40
0.0
 40
0.0
 40
0.0
 40
1.0
 40
1.0
 40
1.0
 10
-8.91276041666666
 20
9.085286458333329
 30
0.0
 10
-8.310546875
 20
9.085286458333329
 30
0.0
 10
-7.93945312499999
 20
8.91764322916666
 30
0.0
  0
SPLINE
  5
31D
330
17
100
AcDbEntity
  8
0
100
AcDbSpline
 70
0
 71
2
 72
6
 73
3
 74
0
 40
0.0
 40
0.0
 40
0.0
 40
1.0
 40
1.0
 40
1.0
 10
-7.93945312499999
 20
8.91764322916666
 30
0.0
 10
-7.568359374999989
 20
8.75
 30
0.0
 10
-7.36002604166666
 20
8.44401041666667
 30
0.0
  0
SPLINE
  5
31E
330
17
100
AcDbEntity
  8
0
100
AcDbSpline
 70
0
 71
2
 72
6
 73
3
 74
0
 40
0.0
 40
0.0
 40
0.0
 40
1.0
 40
1.0
 40
1.0
 10
-7.36002604166666
 20
8.44401041666667
 30
0.0
 10
-7.151692708333321
 20
8.13802083333333
 30
0.0
 10
-7.080078124999989
 20
7.72135416666667
 30
0.0
  0
ARC
  5
31F
330
17
100
AcDbEntity
  8
0
100
AcDbCircle
 10
-12.3711379198838
 20
6.852923066060059
 30
0.0
 40
5.36233465827682
100
AcDbArc
 50
359.60985378627663
 51
369.32095183943227
  0
SPLINE
  5
320
330
17
100
AcDbEntity
  8
0
100
AcDbSpline
 70
0
 71
2
 72
6
 73
3
 74
0
 40
0.0
 40
0.0
 40
0.0
 40
1.0
 40
1.0
 40
1.0
 10
-7.00846354166666
 20
6.81640625
 30
0.0
 10
-6.14583333333332
 20
6.81640625
 30
0.0
 10
-5.693359374999989
 20
7.11100260416667
 30
0.0
  0
SPLINE
  5
321
330
17
100
AcDbEntity
  8
0
100
AcDbSpline
 70
0
 71
2
 72
6
 73
3
 74
0
 40
0.0
 40
0.0
 40
0.0
 40
1.0
 40
1.0
 40
1.0
 10
-5.693359374999989
 20
7.11100260416667
 30
0.0
 10
-5.24088541666666
 20
7.4055989583333295
 30
0.0
 10
-5.24088541666666
 20
8.12825520833333
 30
0.0
  0
SPLINE
  5
322
330
17
100
AcDbEntity
  8
0
100
AcDbSpline
 70
0
 71
2
 72
6
 73
3
 74
0
 40
0.0
 40
0.0
 40
0.0
 40
1.0
 40
1.0
 40
1.0
 10
-5.24088541666666
 20
8.12825520833333
 30
0.0
 10
-5.24088541666666
 20
8.66861979166667
 30
0.0
 10
-5.53548177083332
 20
9.044596354166659
 30
0.0
  0
SPLINE
  5
323
330
17
100
AcDbEntity
  8
0
100
AcDbSpline
 70
0
 71
2
 72
6
 73
3
 74
0
 40
0.0
 40
0.0
 40
0.0
 40
1.0
 40
1.0
 40
1.0
 10
-5.53548177083332
 20
9.044596354166659
 30
0.0
 10
-5.83007812499999
 20
9.420572916666659
 30
0.0
 10
-6.342773437499989
 20
9.65983072916666
 30
0.0
  0
SPLINE
  5
324
330
17
100
AcDbEntity
  8
0
100
AcDbSpline
 70
0
 71
2
 72
6
 73
3
 74
0
 40
0.0
 40
0.0
 40
0.0
 40
1.0
 40
1.0
 40
1.0
 10
-6.342773437499989
 20
9.65983072916666
 30
0.0
 10
-6.85546874999999
 20
9.899088541666659
 30
0.0
 10
-7.53743489583333
 20
10.0113932291667
 30
0.0
  0
ARC
  5
325
330
17
100
AcDbEntity
  8
0
100
AcDbCircle
 10
-8.94671026612168
 20
1.14277015279362
 30
0.0
 40
8.98047964740611
100
AcDbArc
 50
80.97086338359291
 51
90.30258946412583
  0
SPLINE
  5
326
330
17
100
AcDbEntity
  8
0
100
AcDbSpline
 70
0
 71
2
 72
6
 73
3
 74
0
 40
0.0
 40
0.0
 40
0.0
 40
1.0
 40
1.0
 40
1.0
 10
-8.994140624999991
 20
10.1236979166667
 30
0.0
 10
-9.94791666666666
 20
10.1236979166667
 30
0.0
 10
-10.660807291666702
 20
9.93489583333333
 30
0.0
  0
SPLINE
  5
327
330
17
100
AcDbEntity
  8
0
100
AcDbSpline
 70
0
 71
2
 72
6
 73
3
 74
0
 40
0.0
 40
0.0
 40
0.0
 40
1.0
 40
1.0
 40
1.0
 10
-10.660807291666702
 20
9.93489583333333
 30
0.0
 10
-11.3736979166667
 20
9.74609375
 30
0.0
 10
-11.8522135416667
 20
9.31966145833333
 30
0.0
  0
SPLINE
  5
328
330
17
100
AcDbEntity
  8
0
100
AcDbSpline
 70
0
 71
2
 72
6
 73
3
 74
0
 40
0.0
 40
0.0
 40
0.0
 40
1.0
 40
1.0
 40
1.0
 10
-11.8522135416667
 20
9.31966145833333
 30
0.0
 10
-12.3307291666667
 20
8.893229166666671
 30
0.0
 10
-12.569986979166702
 20
8.20638020833333
 30
0.0
  0
SPLINE
  5
329
330
17
100
AcDbEntity
  8
0
100
AcDbSpline
 70
0
 71
2
 72
6
 73
3
 74
0
 40
0.0
 40
0.0
 40
0.0
 40
1.0
 40
1.0
 40
1.0
 10
-12.569986979166702
 20
8.20638020833333
 30
0.0
 10
-12.8092447916666
 20
7.51953125
 30
0.0
 10
-12.8092447916666
 20
6.5234375
 30
0.0
  0
LINE
  5
32A
330
17
100
AcDbEntity
  8
0
100
AcDbLine
 10
-12.8092447916666
 20
6.5234375
 30
0.0
 11
-12.8092447916666
 21
1.1197916666666603
 31
0.0
  0
SPLINE
  5
32B
330
17
100
AcDbEntity
  8
0
100
AcDbSpline
 70
0
 71
2
 72
6
 73
3
 74
0
 40
0.0
 40
0.0
 40
0.0
 40
1.0
 40
1.0
 40
1.0
 10
-12.8092447916666
 20
1.11979166666666
 30
0.0
 10
-12.8092447916666
 20
0.683593749999998
 30
0.0
 10
-12.8792317708333
 20
0.39876302083333204
 30
0.0
  0
SPLINE
  5
32C
330
17
100
AcDbEntity
  8
0
100
AcDbSpline
 70
0
 71
2
 72
6
 73
3
 74
0
 40
0.0
 40
0.0
 40
0.0
 40
1.0
 40
1.0
 40
1.0
 10
-12.8792317708333
 20
0.39876302083333204
 30
0.0
 10
-12.94921875
 20
0.113932291666665
 30
0.0
 10
-13.102213541666702
 20
-0.0585937500000014
 30
0.0
  0
ARC
  5
32D
330
17
100
AcDbEntity
  8
0
100
AcDbCircle
 10
-13.7138720405269
 20
0.500391420534428
 30
0.0
 40
0.829225888046622
100
AcDbArc
 50
284.62950311532893
 51
317.5762965013418
  0
SPLINE
  5
32E
330
17
100
AcDbEntity
  8
0
100
AcDbSpline
 70
0
 71
2
 72
6
 73
3
 74
0
 40
0.0
 40
0.0
 40
0.0
 40
1.0
 40
1.0
 40
1.0
 10
-13.5042317708333
 20
-0.302734375000002
 30
0.0
 10
-13.753255208333298
 20
-0.37434895833333404
 30
0.0
 10
-14.0983072916667
 20
-0.37434895833333404
 30
0.0
  0
LINE
  5
32F
330
17
100
AcDbEntity
  8
0
100
AcDbLine
 10
-14.0983072916667
 20
-0.37434895833333404
 30
0.0
 11
-14.16015625
 21
-0.37434895833333404
 31
0.0
  0
LINE
  5
330
330
17
100
AcDbEntity
  8
0
100
AcDbLine
 10
-14.16015625
 20
-0.374348958333335
 30
0.0
 11
-14.16015625
 21
-1.25
 31
0.0
  0
LINE
  5
331
330
17
100
AcDbEntity
  8
0
100
AcDbLine
 10
-14.16015625
 20
-1.25
 30
0.0
 11
-11.3444010416667
 21
-1.25
 31
0.0
  0
LINE
  5
332
330
17
100
AcDbEntity
  8
0
100
AcDbLine
 10
-11.344401041666664
 20
-1.2500000000000062
 30
0.0
 11
-11.018880208333336
 21
0.5403645833333384
 31
0.0
  0
LINE
  5
333
330
17
100
AcDbEntity
  8
0
100
AcDbLine
 10
-11.0188802083333
 20
0.540364583333332
 30
0.0
 11
-10.8429164026543
 21
0.540364583333332
 31
0.0
  0
ARC
  5
334
330
17
100
AcDbEntity
  8
0
100
AcDbCircle
 10
4.8878988283522595
 20
12.2332638245929
 30
0.0
 40
19.600572453332
100
AcDbArc
 50
216.62385452548133
 51
219.60581078716467
  0
ARC
  5
335
330
17
100
AcDbEntity
  8
0
100
AcDbCircle
 10
-7.37641324777034
 20
2.07546284382304
 30
0.0
 40
3.67551174146195
100
AcDbArc
 50
219.48830499971086
 51
233.88510016928288
  0
ARC
  5
336
330
17
100
AcDbEntity
  8
0
100
AcDbCircle
 10
-7.843950074744191
 20
1.48011176917866
 30
0.0
 40
2.9192984592955
100
AcDbArc
 50
234.41093321036823
 51
252.65944629793344
  0
SPLINE
  5
337
330
17
100
AcDbEntity
  8
0
100
AcDbSpline
 70
0
 71
2
 72
6
 73
3
 74
0
 40
0.0
 40
0.0
 40
0.0
 40
1.0
 40
1.0
 40
1.0
 10
-8.71419270833333
 20
-1.30696614583333
 30
0.0
 10
-8.251953125
 20
-1.455078125
 30
0.0
 10
-7.6009114583333295
 20
-1.455078125
 30
0.0
  0
SPLINE
  5
338
330
17
100
AcDbEntity
  8
0
100
AcDbSpline
 70
0
 71
2
 72
6
 73
3
 74
0
 40
0.0
 40
0.0
 40
0.0
 40
1.0
 40
1.0
 40
1.0
 10
-7.6009114583333295
 20
-1.455078125
 30
0.0
 10
-6.907552083333321
 20
-1.455078125
 30
0.0
 10
-6.31184895833332
 20
-1.25651041666667
 30
0.0
  0
ARC
  5
339
330
17
100
AcDbEntity
  8
0
100
AcDbCircle
 10
-7.13939632533676
 20
1.30520273012458
 30
0.0
 40
2.69134550520818
100
AcDbArc
 50
287.90276585632654
 51
313.56698726869786
  0
SPLINE
  5
33A
330
17
100
AcDbEntity
  8
0
100
AcDbSpline
 70
0
 71
2
 72
6
 73
3
 74
0
 40
0.0
 40
0.0
 40
0.0
 40
1.0
 40
1.0
 40
1.0
 10
-5.28483072916666
 20
-0.644531250000001
 30
0.0
 10
-4.85351562499999
 20
-0.231119791666668
 30
0.0
 10
-4.609375
 20
0.39388020833333204
 30
0.0
  0
SPLINE
  5
33B
330
17
100
AcDbEntity
  8
0
100
AcDbSpline
 70
0
 71
2
 72
6
 73
3
 74
0
 40
0.0
 40
0.0
 40
0.0
 40
1.0
 40
1.0
 40
1.0
 10
-4.609375
 20
0.39388020833333204
 30
0.0
 10
-4.36523437499999
 20
1.01888020833333
 30
0.0
 10
-4.36523437499999
 20
1.87174479166667
 30
0.0
  0
SPLINE
  5
33C
330
17
100
AcDbEntity
  8
0
100
AcDbSpline
 70
0
 71
2
 72
6
 73
3
 74
0
 40
0.0
 40
0.0
 40
0.0
 40
1.0
 40
1.0
 40
1.0
 10
-4.36523437499999
 20
1.87174479166667
 30
0.0
 10
-4.36523437499999
 20
3.5319010416666603
 30
0.0
 10
-5.54524739583333
 20
4.3359375
 30
0.0
  0
SPLINE
  5
33D
330
17
100
AcDbEntity
  8
0
100
AcDbSpline
 70
0
 71
2
 72
6
 73
3
 74
0
 40
0.0
 40
0.0
 40
0.0
 40
1.0
 40
1.0
 40
1.0
 10
-5.54524739583333
 20
4.3359375
 30
0.0
 10
-6.72526041666666
 20
5.13997395833333
 30
0.0
 10
-9.11458333333332
 20
5.2083333333333295
 30
0.0
  0
LINE
  5
33E
330
17
100
AcDbEntity
  8
0
100
AcDbLine
 10
-9.11458333333332
 20
5.208333333333333
 30
0.0
 11
-10.8430989583333
 21
5.270182291666665
 31
0.0
  0
LINE
  5
33F
330
17
100
AcDbEntity
  8
0
100
AcDbLine
 10
-10.8430989583333
 20
5.27018229166667
 30
0.0
 11
-10.8430989583333
 21
6.52343859191251
 31
0.0
  0
ARC
  5
340
330
17
100
AcDbEntity
  8
0
100
AcDbCircle
 10
-2.62858630700578
 20
6.56692356807614
 30
0.0
 40
8.214215223963441
100
AcDbArc
 50
173.09993284942726
 51
180.3033101292321
  0
SPLINE
  5
341
330
17
100
AcDbEntity
  8
0
100
AcDbSpline
 70
0
 71
2
 72
6
 73
3
 74
0
 40
0.0
 40
0.0
 40
0.0
 40
1.0
 40
1.0
 40
1.0
 10
-10.782877604166702
 20
7.5537109375
 30
0.0
 10
-10.72265625
 20
8.02734375
 30
0.0
 10
-10.5192057291666
 20
8.36751302083333
 30
0.0
  0
ARC
  5
342
330
17
100
AcDbEntity
  8
0
100
AcDbCircle
 10
-9.347910328029359
 20
7.6571047150927
 30
0.0
 40
1.3704377520631201
100
AcDbArc
 50
115.34281277148
 51
148.76255743167732
  0
SPLINE
  5
343
330
17
100
AcDbEntity
  8
0
100
AcDbSpline
 70
0
 71
2
 72
6
 73
3
 74
0
 40
0.0
 40
0.0
 40
0.0
 40
1.0
 40
1.0
 40
1.0
 10
-9.93489583333333
 20
8.896484375
 30
0.0
 10
-9.55403645833332
 20
9.085286458333329
 30
0.0
 10
-8.91276041666666
 20
9.085286458333329
 30
0.0
  0
LINE
  5
344
330
17
100
AcDbEntity
  8
0
100
AcDbLine
 10
39.7038845486111
 20
-9.350000000000001
 30
0.0
 11
41.2038845486111
 21
-9.350000000000001
 31
0.0
  0
LINE
  5
345
330
17
100
AcDbEntity
  8
0
100
AcDbLine
 10
41.2038845486111
 20
-9.350000000000001
 30
0.0
 11
41.2038845486111
 21
-8.75
 31
0.0
  0
LINE
  5
346
330
17
100
AcDbEntity
  8
0
100
AcDbLine
 10
41.2038845486111
 20
-8.75
 30
0.0
 11
39.7038845486111
 21
-8.75
 31
0.0
  0
LINE
  5
347
330
17
100
AcDbEntity
  8
0
100
AcDbLine
 10
39.7038845486111
 20
-8.75
 30
0.0
 11
39.7038845486111
 21
-9.350000000000001
 31
0.0
  0
ARC
  5
348
330
17
100
AcDbEntity
  8
0
100
AcDbCircle
 10
-20.6124615489283
 20
5.07176356694314
 30
0.0
 40
5.4263612157893
100
AcDbArc
 50
263.0273280740082
 51
270.34878535513184
  0
ARC
  5
349
330
17
100
AcDbEntity
  8
0
100
AcDbCircle
 10
-19.8500651541049
 20
10.5893353193227
 30
0.0
 40
10.995718084681101
100
AcDbArc
 50
259.19814320179586
 51
262.5742702970656
  0
LINE
  5
34A
330
17
100
AcDbEntity
  8
0
100
AcDbLine
 10
-21.9108072916667
 20
-0.21155159056864703
 30
0.0
 11
-21.9108072916667
 21
-1.12692310547425
 31
0.0
  0
ARC
  5
34B
330
17
100
AcDbEntity
  8
0
100
AcDbCircle
 10
-20.9452644454922
 20
1.0440737884448001
 30
0.0
 40
2.37602619960405
100
AcDbArc
 50
246.02307015900865
 51
254.86500646171774
  0
ARC
  5
34C
330
17
100
AcDbEntity
  8
0
100
AcDbCircle
 10
-20.2510704435206
 20
3.38294176539027
 30
0.0
 40
4.81599062100087
100
AcDbArc
 50
254.15766745090275
 51
259.82468639304983
  0
ARC
  5
34D
330
17
100
AcDbEntity
  8
0
100
AcDbCircle
 10
-20.009521761121402
 20
4.68372890453036
 30
0.0
 40
6.13919701853027
100
AcDbArc
 50
259.75047436962865
 51
264.67359977848025
  0
ARC
  5
34E
330
17
100
AcDbEntity
  8
0
100
AcDbCircle
 10
-20.0430268138234
 20
4.02388021671828
 30
0.0
 40
5.479115579949711
100
AcDbArc
 50
264.38192158822545
 51
269.80316966617244
  0
SPLINE
  5
34F
330
17
100
AcDbEntity
  8
0
100
AcDbSpline
 70
0
 71
2
 72
6
 73
3
 74
0
 40
0.0
 40
0.0
 40
0.0
 40
1.0
 40
1.0
 40
1.0
 10
-20.0618489583334
 20
-1.455078125
 30
0.0
 10
-19.267578125
 20
-1.455078125
 30
0.0
 10
-18.6979166666667
 20
-1.2858072916666698
 30
0.0
  0
SPLINE
  5
350
330
17
100
AcDbEntity
  8
0
100
AcDbSpline
 70
0
 71
2
 72
6
 73
3
 74
0
 40
0.0
 40
0.0
 40
0.0
 40
1.0
 40
1.0
 40
1.0
 10
-18.6979166666667
 20
-1.2858072916666698
 30
0.0
 10
-18.1282552083333
 20
-1.1165364583333302
 30
0.0
 10
-17.7620442708333
 20
-0.740559895833335
 30
0.0
  0
SPLINE
  5
351
330
17
100
AcDbEntity
  8
0
100
AcDbSpline
 70
0
 71
2
 72
6
 73
3
 74
0
 40
0.0
 40
0.0
 40
0.0
 40
1.0
 40
1.0
 40
1.0
 10
-17.7620442708333
 20
-0.740559895833335
 30
0.0
 10
-17.3958333333333
 20
-0.364583333333334
 30
0.0
 10
-17.216796875
 20
0.25553385416666496
 30
0.0
  0
SPLINE
  5
352
330
17
100
AcDbEntity
  8
0
100
AcDbSpline
 70
0
 71
2
 72
6
 73
3
 74
0
 40
0.0
 40
0.0
 40
0.0
 40
1.0
 40
1.0
 40
1.0
 10
-17.216796875
 20
0.25553385416666496
 30
0.0
 10
-17.0377604166667
 20
0.875651041666665
 30
0.0
 10
-17.0377604166667
 20
1.77083333333333
 30
0.0
  0
LINE
  5
353
330
17
100
AcDbEntity
  8
0
100
AcDbLine
 10
-17.0377604166667
 20
1.77083333333333
 30
0.0
 11
-17.0377604166667
 21
8.73046875
 31
0.0
  0
LINE
  5
354
330
17
100
AcDbEntity
  8
0
100
AcDbLine
 10
-17.0377604166667
 20
8.73046875
 30
0.0
 11
-15.4524739583333
 21
8.73046875
 31
0.0
  0
LINE
  5
355
330
17
100
AcDbEntity
  8
0
100
AcDbLine
 10
-15.4524739583333
 20
8.73046875
 30
0.0
 11
-15.4524739583333
 21
9.56380208333333
 31
0.0
  0
SPLINE
  5
356
330
17
100
AcDbEntity
  8
0
100
AcDbSpline
 70
0
 71
2
 72
6
 73
3
 74
0
 40
0.0
 40
0.0
 40
0.0
 40
1.0
 40
1.0
 40
1.0
 10
-15.4524739583333
 20
9.56380208333333
 30
0.0
 10
-15.830078125
 20
9.56380208333333
 30
0.0
 10
-16.2825520833333
 20
9.716796875
 30
0.0
  0
ARC
  5
357
330
17
100
AcDbEntity
  8
0
100
AcDbCircle
 10
-15.643001203954901
 20
11.5985810441285
 30
0.0
 40
1.9877236255256099
100
AcDbArc
 50
223.71366035620903
 51
251.22894681543488
  0
ARC
  5
358
330
17
100
AcDbEntity
  8
0
100
AcDbCircle
 10
-14.7827985024739
 20
12.291864845859001
 30
0.0
 40
3.09121597807939
100
AcDbArc
 50
201.754990396516
 51
221.98299410039635
  0
SPLINE
  5
359
330
17
100
AcDbEntity
  8
0
100
AcDbSpline
 70
0
 71
2
 72
6
 73
3
 74
0
 40
0.0
 40
0.0
 40
0.0
 40
1.0
 40
1.0
 40
1.0
 10
-17.6546223958334
 20
11.1458333333333
 30
0.0
 10
-17.8743489583333
 20
11.6796875
 30
0.0
 10
-18.037109375
 20
12.4837239583333
 30
0.0
  0
LINE
  5
35A
330
17
100
AcDbEntity
  8
0
100
AcDbLine
 10
-18.037109375
 20
12.4837239583333
 30
0.0
 11
-18.9908854166667
 21
12.4837239583333
 31
0.0
  0
LINE
  5
35B
330
17
100
AcDbEntity
  8
0
100
AcDbLine
 10
-18.9908854166667
 20
12.4837239583333
 30
0.0
 11
-18.9908854166667
 21
9.918619791666659
 31
0.0
  0
LINE
  5
35C
330
17
100
AcDbEntity
  8
0
100
AcDbLine
 10
-18.9908854166667
 20
9.918619791666659
 30
0.0
 11
-21.71875
 21
9.918619791666659
 31
0.0
  0
LINE
  5
35D
330
17
100
AcDbEntity
  8
0
100
AcDbLine
 10
-21.71875
 20
9.918619791666659
 30
0.0
 11
-21.71875
 21
8.73046875
 31
0.0
  0
LINE
  5
35E
330
17
100
AcDbEntity
  8
0
100
AcDbLine
 10
-21.71875
 20
8.73046875
 30
0.0
 11
-18.9908854166667
 21
8.73046875
 31
0.0
  0
LINE
  5
35F
330
17
100
AcDbEntity
  8
0
100
AcDbLine
 10
-18.9908854166667
 20
8.73046875
 30
0.0
 11
-18.9908854166667
 21
1.708984375
 31
0.0
  0
SPLINE
  5
360
330
17
100
AcDbEntity
  8
0
100
AcDbSpline
 70
0
 71
2
 72
6
 73
3
 74
0
 40
0.0
 40
0.0
 40
0.0
 40
1.0
 40
1.0
 40
1.0
 10
-18.9908854166667
 20
1.708984375
 30
0.0
 10
-18.9908854166667
 20
0.641276041666665
 30
0.0
 10
-19.423828125
 20
0.143229166666665
 30
0.0
  0
SPLINE
  5
361
330
17
100
AcDbEntity
  8
0
100
AcDbSpline
 70
0
 71
2
 72
6
 73
3
 74
0
 40
0.0
 40
0.0
 40
0.0
 40
1.0
 40
1.0
 40
1.0
 10
-19.423828125
 20
0.143229166666665
 30
0.0
 10
-19.8567708333333
 20
-0.354817708333334
 30
0.0
 10
-20.5794270833334
 20
-0.354817708333334
 30
0.0
  0
LINE
  5
362
330
17
100
AcDbEntity
  8
0
100
AcDbLine
 10
36.8913845486111
 20
-9.350000000000001
 30
0.0
 11
38.3913845486111
 21
-9.350000000000001
 31
0.0
  0
LINE
  5
363
330
17
100
AcDbEntity
  8
0
100
AcDbLine
 10
38.3913845486111
 20
-9.350000000000001
 30
0.0
 11
38.3913845486111
 21
-8.75
 31
0.0
  0
LINE
  5
364
330
17
100
AcDbEntity
  8
0
100
AcDbLine
 10
38.3913845486111
 20
-8.75
 30
0.0
 11
36.8913845486111
 21
-8.75
 31
0.0
  0
LINE
  5
365
330
17
100
AcDbEntity
  8
0
100
AcDbLine
 10
36.8913845486111
 20
-8.75
 30
0.0
 11
36.8913845486111
 21
-9.350000000000001
 31
0.0
  0
ARC
  5
366
330
17
100
AcDbEntity
  8
0
100
AcDbCircle
 10
-23.161524862228898
 20
4.14397175915826
 30
0.0
 40
4.51814671826461
100
AcDbArc
 50
261.89069497437913
 51
270.25676888917155
  0
ARC
  5
367
330
17
100
AcDbEntity
  8
0
100
AcDbCircle
 10
-23.6111921438774
 20
1.10949989024875
 30
0.0
 40
1.44977025657932
100
AcDbArc
 50
239.69415876461605
 51
262.56717781445604
  0
SPLINE
  5
368
330
17
100
AcDbEntity
  8
0
100
AcDbSpline
 70
0
 71
2
 72
6
 73
3
 74
0
 40
0.0
 40
0.0
 40
0.0
 40
1.0
 40
1.0
 40
1.0
 10
-24.3424479166667
 20
-0.141601562500001
 30
0.0
 10
-24.5768229166667
 20
-1.5178830414797102e-15
 30
0.0
 10
-24.7135416666667
 20
0.279947916666665
 30
0.0
  0
SPLINE
  5
369
330
17
100
AcDbEntity
  8
0
100
AcDbSpline
 70
0
 71
2
 72
6
 73
3
 74
0
 40
0.0
 40
0.0
 40
0.0
 40
1.0
 40
1.0
 40
1.0
 10
-24.7135416666667
 20
0.279947916666665
 30
0.0
 10
-24.8502604166667
 20
0.5598958333333319
 30
0.0
 10
-24.8502604166667
 20
1.01888020833333
 30
0.0
  0
LINE
  5
36A
330
17
100
AcDbEntity
  8
0
100
AcDbLine
 10
-24.8502604166667
 20
1.01888020833333
 30
0.0
 11
-24.8502604166667
 21
7.62044270833333
 31
0.0
  0
SPLINE
  5
36B
330
17
100
AcDbEntity
  8
0
100
AcDbSpline
 70
0
 71
2
 72
6
 73
3
 74
0
 40
0.0
 40
0.0
 40
0.0
 40
1.0
 40
1.0
 40
1.0
 10
-24.8502604166667
 20
7.62044270833333
 30
0.0
 10
-24.8502604166667
 20
8.07942708333333
 30
0.0
 10
-24.7135416666667
 20
8.359375
 30
0.0
  0
ARC
  5
36C
330
17
100
AcDbEntity
  8
0
100
AcDbCircle
 10
-23.7643331717888
 20
7.92177448066584
 30
0.0
 40
1.0443393169594402
100
AcDbArc
 50
123.63659149244295
 51
155.24953158155293
  0
ARC
  5
36D
330
17
100
AcDbEntity
  8
0
100
AcDbCircle
 10
-23.583419547345297
 20
7.58202201896436
 30
0.0
 40
1.42780865937522
100
AcDbArc
 50
98.67325070417144
 51
122.12838298848723
  0
ARC
  5
36E
330
17
100
AcDbEntity
  8
0
100
AcDbCircle
 10
-23.161126197129697
 20
5.08259249843211
 30
0.0
 40
3.96343668819522
100
AcDbArc
 50
89.71306095584896
 51
99.25954890526923
  0
LINE
  5
36F
330
17
100
AcDbEntity
  8
0
100
AcDbLine
 10
-23.1412766538381
 20
9.04622395833333
 30
0.0
 11
-23.0826822916666
 21
9.04622395833333
 31
0.0
  0
LINE
  5
370
330
17
100
AcDbEntity
  8
0
100
AcDbLine
 10
-23.0826822916666
 20
9.04622395833333
 30
0.0
 11
-23.0826822916666
 21
9.918619791666659
 31
0.0
  0
LINE
  5
371
330
17
100
AcDbEntity
  8
0
100
AcDbLine
 10
-23.0826822916666
 20
9.918619791666659
 30
0.0
 11
-26.8033854166667
 21
9.918619791666659
 31
0.0
  0
LINE
  5
372
330
17
100
AcDbEntity
  8
0
100
AcDbLine
 10
-26.8033854166667
 20
9.918619791666659
 30
0.0
 11
-26.8033854166667
 21
1.1197916666666599
 31
0.0
  0
SPLINE
  5
373
330
17
100
AcDbEntity
  8
0
100
AcDbSpline
 70
0
 71
2
 72
6
 73
3
 74
0
 40
0.0
 40
0.0
 40
0.0
 40
1.0
 40
1.0
 40
1.0
 10
-26.8033854166667
 20
1.11979166666666
 30
0.0
 10
-26.8033854166667
 20
0.631510416666665
 30
0.0
 10
-26.9417317708333
 20
0.336914062499998
 30
0.0
  0
SPLINE
  5
374
330
17
100
AcDbEntity
  8
0
100
AcDbSpline
 70
0
 71
2
 72
6
 73
3
 74
0
 40
0.0
 40
0.0
 40
0.0
 40
1.0
 40
1.0
 40
1.0
 10
-26.9417317708333
 20
0.336914062499998
 30
0.0
 10
-27.080078125
 20
0.042317708333331996
 30
0.0
 10
-27.3079427083334
 20
-0.115559895833335
 30
0.0
  0
SPLINE
  5
375
330
17
100
AcDbEntity
  8
0
100
AcDbSpline
 70
0
 71
2
 72
6
 73
3
 74
0
 40
0.0
 40
0.0
 40
0.0
 40
1.0
 40
1.0
 40
1.0
 10
-27.3079427083334
 20
-0.115559895833335
 30
0.0
 10
-27.5358072916667
 20
-0.2734375
 30
0.0
 10
-27.8515625
 20
-0.323893229166668
 30
0.0
  0
ARC
  5
376
330
17
100
AcDbEntity
  8
0
100
AcDbCircle
 10
-28.497597751361198
 20
3.8128865763320996
 30
0.0
 40
4.1870905986453
100
AcDbArc
 50
269.79786853497575
 51
278.8761082694621
  0
LINE
  5
377
330
17
100
AcDbEntity
  8
0
100
AcDbLine
 10
-28.5123694900478
 20
-0.37434895833333404
 30
0.0
 11
-28.7890625
 21
-0.37434895833333404
 31
0.0
  0
LINE
  5
378
330
17
100
AcDbEntity
  8
0
100
AcDbLine
 10
-28.7890625
 20
-0.374348958333335
 30
0.0
 11
-28.7890625
 21
-1.25
 31
0.0
  0
LINE
  5
379
330
17
100
AcDbEntity
  8
0
100
AcDbLine
 10
-28.7890625
 20
-1.25
 30
0.0
 11
-22.8678385416667
 21
-1.25
 31
0.0
  0
LINE
  5
37A
330
17
100
AcDbEntity
  8
0
100
AcDbLine
 10
-22.8678385416667
 20
-1.25
 30
0.0
 11
-22.8678385416667
 21
-0.37434895833333404
 31
0.0
  0
LINE
  5
37B
330
17
100
AcDbEntity
  8
0
100
AcDbLine
 10
-22.8678385416667
 20
-0.37434895833333404
 30
0.0
 11
-23.1412765332175
 21
-0.37434895833333404
 31
0.0
  0
ENDSEC
  0
SECTION
  2
OBJECTS
  0
DICTIONARY
  5
A
330
0
100
AcDbDictionary
281
1
  3
ACAD_COLOR
350
B
  3
ACAD_GROUP
350
C
  3
ACAD_LAYOUT
350
D
  3
ACAD_MATERIAL
350
E
  3
ACAD_MLEADERSTYLE
350
F
  3
ACAD_MLINESTYLE
350
10
  3
ACAD_PLOTSETTINGS
350
11
  3
ACAD_PLOTSTYLENAME
350
12
  3
ACAD_SCALELIST
350
14
  3
ACAD_TABLESTYLE
350
15
  3
ACAD_VISUALSTYLE
350
16
  3
EZDXF_META
350
2D
  0
DICTIONARY
  5
B
330
A
100
AcDbDictionary
281
1
  0
DICTIONARY
  5
C
330
A
100
AcDbDictionary
281
1
  0
DICTIONARY
  5
D
330
A
100
AcDbDictionary
281
1
  3
Model
350
1A
  3
Layout1
350
1E
  0
DICTIONARY
  5
E
330
A
100
AcDbDictionary
281
1
  3
ByBlock
350
1F
  3
ByLayer
350
20
  3
Global
350
21
  0
DICTIONARY
  5
F
330
A
100
AcDbDictionary
281
1
  3
Standard
350
2C
  0
DICTIONARY
  5
10
330
A
100
AcDbDictionary
281
1
  3
Standard
350
22
  0
DICTIONARY
  5
11
330
A
100
AcDbDictionary
281
1
  0
ACDBDICTIONARYWDFLT
  5
12
330
A
100
AcDbDictionary
281
1
  3
Normal
350
13
100
AcDbDictionaryWithDefault
340
13
  0
ACDBPLACEHOLDER
  5
13
330
12
  0
DICTIONARY
  5
14
330
A
100
AcDbDictionary
281
1
  0
DICTIONARY
  5
15
330
A
100
AcDbDictionary
281
1
  0
DICTIONARY
  5
16
330
A
100
AcDbDictionary
281
1
  0
LAYOUT
  5
1A
330
D
100
AcDbPlotSettings
  1

  4
A3
  6

 40
7.5
 41
20.0
 42
7.5
 43
20.0
 44
420.0
 45
297.0
 46
0.0
 47
0.0
 48
0.0
 49
0.0
140
0.0
141
0.0
142
1.0
143
1.0
 70
1024
 72
1
 73
0
 74
5
  7

 75
16
 76
0
 77
2
 78
300
147
1.0
148
0.0
149
0.0
100
AcDbLayout
  1
Model
 70
1
 71
0
 10
0.0
 20
0.0
 11
420.0
 21
297.0
 12
0.0
 22
0.0
 32
0.0
 14
1e+20
 24
1e+20
 34
1e+20
 15
-1e+20
 25
-1e+20
 35
-1e+20
146
0.0
 13
0.0
 23
0.0
 33
0.0
 16
1.0
 26
0.0
 36
0.0
 17
0.0
 27
1.0
 37
0.0
 76
1
330
17
  0
LAYOUT
  5
1E
330
D
100
AcDbPlotSettings
  1

  4
A3
  6

 40
7.5
 41
20.0
 42
7.5
 43
20.0
 44
420.0
 45
297.0
 46
0.0
 47
0.0
 48
0.0
 49
0.0
140
0.0
141
0.0
142
1.0
143
1.0
 70
0
 72
1
 73
0
 74
5
  7

 75
16
 76
0
 77
2
 78
300
147
1.0
148
0.0
149
0.0
100
AcDbLayout
  1
Layout1
 70
1
 71
1
 10
0.0
 20
0.0
 11
420.0
 21
297.0
 12
0.0
 22
0.0
 32
0.0
 14
1e+20
 24
1e+20
 34
1e+20
 15
-1e+20
 25
-1e+20
 35
-1e+20
146
0.0
 13
0.0
 23
0.0
 33
0.0
 16
1.0
 26
0.0
 36
0.0
 17
0.0
 27
1.0
 37
0.0
 76
1
330
1B
  0
MATERIAL
  5
1F
102
{ACAD_REACTORS
330
E
102
}
330
E
100
AcDbMaterial
  1
ByBlock
  2

 70
0
 40
1.0
 71
1
 41
1.0
 91
-1023410177
 42
1.0
 72
1
  3

 73
1
 74
1
 75
1
 44
0.5
 73
0
 45
1.0
 46
1.0
 77
1
  4

 78
1
 79
1
170
1
 48
1.0
171
1
  6

172
1
173
1
174
1
140
1.0
141
1.0
175
1
  7

176
1
177
1
178
1
143
1.0
179
1
  8

270
1
271
1
272
1
145
1.0
146
1.0
273
1
  9

274
1
275
1
276
1
 42
1.0
 72
1
  3

 73
1
 74
1
 75
1
 94
63
  0
MATERIAL
  5
20
102
{ACAD_REACTORS
330
E
102
}
330
E
100
AcDbMaterial
  1
ByLayer
  2

 70
0
 40
1.0
 71
1
 41
1.0
 91
-1023410177
 42
1.0
 72
1
  3

 73
1
 74
1
 75
1
 44
0.5
 73
0
 45
1.0
 46
1.0
 77
1
  4

 78
1
 79
1
170
1
 48
1.0
171
1
  6

172
1
173
1
174
1
140
1.0
141
1.0
175
1
  7

176
1
177
1
178
1
143
1.0
179
1
  8

270
1
271
1
272
1
145
1.0
146
1.0
273
1
  9

274
1
275
1
276
1
 42
1.0
 72
1
  3

 73
1
 74
1
 75
1
 94
63
  0
MATERIAL
  5
21
102
{ACAD_REACTORS
330
E
102
}
330
E
100
AcDbMaterial
  1
Global
  2

 70
0
 40
1.0
 71
1
 41
1.0
 91
-1023410177
 42
1.0
 72
1
  3

 73
1
 74
1
 75
1
 44
0.5
 73
0
 45
1.0
 46
1.0
 77
1
  4

 78
1
 79
1
170
1
 48
1.0
171
1
  6

172
1
173
1
174
1
140
1.0
141
1.0
175
1
  7

176
1
177
1
178
1
143
1.0
179
1
  8

270
1
271
1
272
1
145
1.0
146
1.0
273
1
  9

274
1
275
1
276
1
 42
1.0
 72
1
  3

 73
1
 74
1
 75
1
 94
63
  0
MLINESTYLE
  5
22
102
{ACAD_REACTORS
330
10
102
}
330
10
100
AcDbMlineStyle
  2
Standard
 70
0
  3

 62
256
 51
90.0
 52
90.0
 71
2
 49
0.5
 62
256
  6
BYLAYER
 49
-0.5
 62
256
  6
BYLAYER
  0
MLEADERSTYLE
  5
2C
102
{ACAD_REACTORS
330
F
102
}
330
F
100
AcDbMLeaderStyle
179
2
170
2
171
1
172
0
 90
2
 40
0.0
 41
0.0
173
1
 91
-1056964608
 92
-2
290
1
 42
2.0
291
1
 43
8.0
  3
Standard
 44
4.0
300

342
29
174
1
175
1
176
0
178
1
 93
-1056964608
 45
4.0
292
0
297
0
 46
4.0
 94
-1056964608
 47
1.0
 49
1.0
140
1.0
294
1
141
0.0
177
0
142
1.0
295
0
296
0
143
3.75
271
0
272
9
273
9
  0
DICTIONARY
  5
2D
330
A
100
AcDbDictionary
280
1
281
1
  3
CREATED_BY_EZDXF
350
2E
  3
WRITTEN_BY_EZDXF
350
37F
  0
DICTIONARYVAR
  5
2E
330
2D
100
DictionaryVariables
280
0
  1
1.4.4 @ 2026-09-02T12:30:51.979226+00:00
  0
DICTIONARYVAR
  5
37F
330
2D
100
DictionaryVariables
280
0
  1
1.4.4 @ 2026-09-02T12:30:52.303983+00:00
  0
ENDSEC
  0
EOF
