  0
SECTION
  2
HEADER
  9
$ACADVER
  1
AC1027
  9
$ACADMAINTVER
 70
105
  9
$DWGCODEPAGE
  3
ANSI_1252
  9
$LASTSAVEDBY
  1
ezdxf
  9
$REQUIREDVERSIONS
160
0
  9
$INSBASE
 10
0.0
 20
0.0
 30
0.0
  9
$EXTMIN
 10
1e+20
 20
1e+20
 30
1e+20
  9
$EXTMAX
 10
-1e+20
 20
-1e+20
 30
-1e+20
  9
$LIMMIN
 10
0.0
 20
0.0
  9
$LIMMAX
 10
420.0
 20
297.0
  9
$ORTHOMODE
 70
0
  9
$REGENMODE
 70
1
  9
$FILLMODE
 70
1
  9
$QTEXTMODE
 70
0
  9
$MIRRTEXT
 70
1
  9
$LTSCALE
 40
1.0
  9
$ATTMODE
 70
1
  9
$TEXTSIZE
 40
2.5
  9
$TRACEWID
 40
1.0
  9
$TEXTSTYLE
  7
Standard
  9
$CLAYER
  8
0
  9
$CELTYPE
  6
ByLayer
  9
$CECOLOR
 62
256
  9
$CELTSCALE
 40
1.0
  9
$DISPSILH
 70
0
  9
$DIMSCALE
 40
1.0
  9
$DIMASZ
 40
2.5
  9
$DIMEXO
 40
0.625
  9
$DIMDLI
 40
3.75
  9
$DIMRND
 40
0.0
  9
$DIMDLE
 40
0.0
  9
$DIMEXE
 40
1.25
  9
$DIMTP
 40
0.0
  9
$DIMTM
 40
0.0
  9
$DIMTXT
 40
2.5
  9
$DIMCEN
 40
2.5
  9
$DIMTSZ
 40
0.0
  9
$DIMTOL
 70
0
  9
$DIMLIM
 70
0
  9
$DIMTIH
 70
0
  9
$DIMTOH
 70
0
  9
$DIMSE1
 70
0
  9
$DIMSE2
 70
0
  9
$DIMTAD
 70
1
  9
$DIMZIN
 70
8
  9
$DIMBLK
  1

  9
$DIMASO
 70
1
  9
$DIMSHO
 70
1
  9
$DIMPOST
  1

  9
$DIMAPOST
  1

  9
$DIMALT
 70
0
  9
$DIMALTD
 70
3
  9
$DIMALTF
 40
0.03937007874
  9
$DIMLFAC
 40
1.0
  9
$DIMTOFL
 70
1
  9
$DIMTVP
 40
0.0
  9
$DIMTIX
 70
0
  9
$DIMSOXD
 70
0
  9
$DIMSAH
 70
0
  9
$DIMBLK1
  1

  9
$DIMBLK2
  1

  9
$DIMSTYLE
  2
ISO-25
  9
$DIMCLRD
 70
0
  9
$DIMCLRE
 70
0
  9
$DIMCLRT
 70
0
  9
$DIMTFAC
 40
1.0
  9
$DIMGAP
 40
0.625
  9
$DIMJUST
 70
0
  9
$DIMSD1
 70
0
  9
$DIMSD2
 70
0
  9
$DIMTOLJ
 70
0
  9
$DIMTZIN
 70
8
  9
$DIMALTZ
 70
0
  9
$DIMALTTZ
 70
0
  9
$DIMUPT
 70
0
  9
$DIMDEC
 70
2
  9
$DIMTDEC
 70
2
  9
$DIMALTU
 70
2
  9
$DIMALTTD
 70
3
  9
$DIMTXSTY
  7
Standard
  9
$DIMAUNIT
 70
0
  9
$DIMADEC
 70
0
  9
$DIMALTRND
 40
0.0
  9
$DIMAZIN
 70
0
  9
$DIMDSEP
 70
44
  9
$DIMATFIT
 70
3
  9
$DIMFRAC
 70
0
  9
$DIMLDRBLK
  1

  9
$DIMLUNIT
 70
2
  9
$DIMLWD
 70
-2
  9
$DIMLWE
 70
-2
  9
$DIMTMOVE
 70
0
  9
$DIMFXL
 40
1.0
  9
$DIMFXLON
 70
0
  9
$DIMJOGANG
 40
0.785398163397
  9
$DIMTFILL
 70
0
  9
$DIMTFILLCLR
 70
0
  9
$DIMARCSYM
 70
0
  9
$DIMLTYPE
  6

  9
$DIMLTEX1
  6

  9
$DIMLTEX2
  6

  9
$DIMTXTDIRECTION
 70
0
  9
$LUNITS
 70
2
  9
$LUPREC
 70
4
  9
$SKETCHINC
 40
1.0
  9
$FILLETRAD
 40
10.0
  9
$AUNITS
 70
0
  9
$AUPREC
 70
2
  9
$MENU
  1
.
  9
$ELEVATION
 40
0.0
  9
$PELEVATION
 40
0.0
  9
$THICKNESS
 40
0.0
  9
$LIMCHECK
 70
0
  9
$CHAMFERA
 40
0.0
  9
$CHAMFERB
 40
0.0
  9
$CHAMFERC
 40
0.0
  9
$CHAMFERD
 40
0.0
  9
$SKPOLY
 70
0
  9
$TDCREATE
 40
2461286.701747685
  9
$TDUCREATE
 40
2458532.153996898
  9
$TDUPDATE
 40
2461286.701759259
  9
$TDUUPDATE
 40
2458532.1544311
  9
$TDINDWG
 40
0.0
  9
$TDUSRTIMER
 40
0.0
  9
$USRTIMER
 70
1
  9
$ANGBASE
 50
0.0
  9
$ANGDIR
 70
0
  9
$PDMODE
 70
0
  9
$PDSIZE
 40
0.0
  9
$PLINEWID
 40
0.0
  9
$SPLFRAME
 70
0
  9
$SPLINETYPE
 70
6
  9
$SPLINESEGS
 70
8
  9
$HANDSEED
  5
182
  9
$SURFTAB1
 70
6
  9
$SURFTAB2
 70
6
  9
$SURFTYPE
 70
6
  9
$SURFU
 70
6
  9
$SURFV
 70
6
  9
$UCSBASE
  2

  9
$UCSNAME
  2

  9
$UCSORG
 10
0.0
 20
0.0
 30
0.0
  9
$UCSXDIR
 10
1.0
 20
0.0
 30
0.0
  9
$UCSYDIR
 10
0.0
 20
1.0
 30
0.0
  9
$UCSORTHOREF
  2

  9
$UCSORTHOVIEW
 70
0
  9
$UCSORGTOP
 10
0.0
 20
0.0
 30
0.0
  9
$UCSORGBOTTOM
 10
0.0
 20
0.0
 30
0.0
  9
$UCSORGLEFT
 10
0.0
 20
0.0
 30
0.0
  9
$UCSORGRIGHT
 10
0.0
 20
0.0
 30
0.0
  9
$UCSORGFRONT
 10
0.0
 20
0.0
 30
0.0
  9
$UCSORGBACK
 10
0.0
 20
0.0
 30
0.0
  9
$PUCSBASE
  2

  9
$PUCSNAME
  2

  9
$PUCSORG
 10
0.0
 20
0.0
 30
0.0
  9
$PUCSXDIR
 10
1.0
 20
0.0
 30
0.0
  9
$PUCSYDIR
 10
0.0
 20
1.0
 30
0.0
  9
$PUCSORTHOREF
  2

  9
$PUCSORTHOVIEW
 70
0
  9
$PUCSORGTOP
 10
0.0
 20
0.0
 30
0.0
  9
$PUCSORGBOTTOM
 10
0.0
 20
0.0
 30
0.0
  9
$PUCSORGLEFT
 10
0.0
 20
0.0
 30
0.0
  9
$PUCSORGRIGHT
 10
0.0
 20
0.0
 30
0.0
  9
$PUCSORGFRONT
 10
0.0
 20
0.0
 30
0.0
  9
$PUCSORGBACK
 10
0.0
 20
0.0
 30
0.0
  9
$USERI1
 70
0
  9
$USERI2
 70
0
  9
$USERI3
 70
0
  9
$USERI4
 70
0
  9
$USERI5
 70
0
  9
$USERR1
 40
0.0
  9
$USERR2
 40
0.0
  9
$USERR3
 40
0.0
  9
$USERR4
 40
0.0
  9
$USERR5
 40
0.0
  9
$WORLDVIEW
 70
1
  9
$SHADEDGE
 70
3
  9
$SHADEDIF
 70
70
  9
$TILEMODE
 70
1
  9
$MAXACTVP
 70
64
  9
$PINSBASE
 10
0.0
 20
0.0
 30
0.0
  9
$PLIMCHECK
 70
0
  9
$PEXTMIN
 10
1e+20
 20
1e+20
 30
1e+20
  9
$PEXTMAX
 10
-1e+20
 20
-1e+20
 30
-1e+20
  9
$PLIMMIN
 10
0.0
 20
0.0
  9
$PLIMMAX
 10
420.0
 20
297.0
  9
$UNITMODE
 70
0
  9
$VISRETAIN
 70
1
  9
$PLINEGEN
 70
0
  9
$PSLTSCALE
 70
1
  9
$TREEDEPTH
 70
3020
  9
$CMLSTYLE
  2
Standard
  9
$CMLJUST
 70
0
  9
$CMLSCALE
 40
20.0
  9
$PROXYGRAPHICS
 70
1
  9
$MEASUREMENT
 70
1
  9
$CELWEIGHT
370
-1
  9
$ENDCAPS
280
0
  9
$JOINSTYLE
280
0
  9
$LWDISPLAY
290
0
  9
$INSUNITS
 70
4
  9
$HYPERLINKBASE
  1

  9
$STYLESHEET
  1

  9
$XEDIT
290
1
  9
$CEPSNTYPE
380
0
  9
$PSTYLEMODE
290
1
  9
$FINGERPRINTGUID
  2
{4F7DBA9D-40A2-4930-B699-B4B99A019D4D}
  9
$VERSIONGUID
  2
{00152956-D682-4739-920C-4AC4CB763599}
  9
$EXTNAMES
290
1
  9
$PSVPSCALE
 40
0.0
  9
$OLESTARTUP
290
0
  9
$SORTENTS
280
127
  9
$INDEXCTL
280
0
  9
$HIDETEXT
280
1
  9
$XCLIPFRAME
280
1
  9
$HALOGAP
280
0
  9
$OBSCOLOR
 70
257
  9
$OBSLTYPE
280
0
  9
$INTERSECTIONDISPLAY
280
0
  9
$INTERSECTIONCOLOR
 70
257
  9
$DIMASSOC
280
2
  9
$PROJECTNAME
  1

  9
$CAMERADISPLAY
290
0
  9
$LENSLENGTH
 40
50.0
  9
$CAMERAHEIGHT
 40
0.0
  9
$STEPSPERSEC
 40
24.0
  9
$STEPSIZE
 40
100.0
  9
$3DDWFPREC
 40
2.0
  9
$PSOLWIDTH
 40
0.005
  9
$PSOLHEIGHT
 40
0.08
  9
$LOFTANG1
 40
1.570796326795
  9
$LOFTANG2
 40
1.570796326795
  9
$LOFTMAG1
 40
0.0
  9
$LOFTMAG2
 40
0.0
  9
$LOFTPARAM
 70
7
  9
$LOFTNORMALS
280
1
  9
$LATITUDE
 40
37.795
  9
$LONGITUDE
 40
-122.394
  9
$NORTHDIRECTION
 40
0.0
  9
$TIMEZONE
 70
-8000
  9
$LIGHTGLYPHDISPLAY
280
1
  9
$TILEMODELIGHTSYNCH
280
1
  9
$CMATERIAL
347
20
  9
$SOLIDHIST
280
0
  9
$SHOWHIST
280
1
  9
$DWFFRAME
280
2
  9
$DGNFRAME
280
2
  9
$REALWORLDSCALE
290
1
  9
$INTERFERECOLOR
 62
256
  9
$CSHADOW
280
0
  9
$SHADOWPLANELOCATION
 40
0.0
  0
ENDSEC
  0
SECTION
  2
CLASSES
  0
CLASS
  1
ACDBDICTIONARYWDFLT
  2
AcDbDictionaryWithDefault
  3
ObjectDBX Classes
 90
0
 91
0
280
0
281
0
  0
CLASS
  1
SUN
  2
AcDbSun
  3
SCENEOE
 90
1153
 91
0
280
0
281
0
  0
CLASS
  1
VISUALSTYLE
  2
AcDbVisualStyle
  3
ObjectDBX Classes
 90
4095
 91
0
280
0
281
0
  0
CLASS
  1
MATERIAL
  2
AcDbMaterial
  3
ObjectDBX Classes
 90
1153
 91
0
280
0
281
0
  0
CLASS
  1
SCALE
  2
AcDbScale
  3
ObjectDBX Classes
 90
1153
 91
0
280
0
281
0
  0
CLASS
  1
TABLESTYLE
  2
AcDbTableStyle
  3
ObjectDBX Classes
 90
4095
 91
0
280
0
281
0
  0
CLASS
  1
MLEADERSTYLE
  2
AcDbMLeaderStyle
  3
ACDB_MLEADERSTYLE_CLASS
 90
4095
 91
0
280
0
281
0
  0
CLASS
  1
DICTIONARYVAR
  2
AcDbDictionaryVar
  3
ObjectDBX Classes
 90
0
 91
0
280
0
281
0
  0
CLASS
  1
CELLSTYLEMAP
  2
AcDbCellStyleMap
  3
ObjectDBX Classes
 90
1152
 91
0
280
0
281
0
  0
CLASS
  1
MENTALRAYRENDERSETTINGS
  2
AcDbMentalRayRenderSettings
  3
SCENEOE
 90
1024
 91
0
280
0
281
0
  0
CLASS
  1
ACDBDETAILVIEWSTYLE
  2
AcDbDetailViewStyle
  3
ObjectDBX Classes
 90
1025
 91
0
280
0
281
0
  0
CLASS
  1
ACDBSECTIONVIEWSTYLE
  2
AcDbSectionViewStyle
  3
ObjectDBX Classes
 90
1025
 91
0
280
0
281
0
  0
CLASS
  1
RASTERVARIABLES
  2
AcDbRasterVariables
  3
ISM
 90
0
 91
0
280
0
281
0
  0
CLASS
  1
ACDBPLACEHOLDER
  2
AcDbPlaceHolder
  3
ObjectDBX Classes
 90
0
 91
0
280
0
281
0
  0
CLASS
  1
LAYOUT
  2
AcDbLayout
  3
ObjectDBX Classes
 90
0
 91
0
280
0
281
0
  0
ENDSEC
  0
SECTION
  2
TABLES
  0
TABLE
  2
VPORT
  5
8
330
0
100
AcDbSymbolTable
 70
1
  0
VPORT
  5
17E
330
8
100
AcDbSymbolTableRecord
100
AcDbViewportTableRecord
  2
*Active
 70
0
 10
0.0
 20
0.0
 11
1.0
 21
1.0
 12
0.6914952529502756
 22
0.06810842636248005
 13
0.0
 23
0.0
 14
0.5
 24
0.5
 15
0.5
 25
0.5
 16
0.0
 26
0.0
 36
1.0
 17
0.0
 27
0.0
 37
0.0
 40
54.627042127950276
 41
1.34
 42
50.0
 43
0.0
 44
0.0
 50
0.0
 51
0.0
 71
0
 72
1000
 73
1
 74
3
 75
0
 76
0
 77
0
 78
0
281
0
 65
1
110
0.0
120
0.0
130
0.0
111
1.0
121
0.0
131
0.0
112
0.0
122
1.0
132
0.0
 79
0
146
0.0
  0
ENDTAB
  0
TABLE
  2
LTYPE
  5
2
330
0
100
AcDbSymbolTable
 70
3
  0
LTYPE
  5
24
330
2
100
AcDbSymbolTableRecord
100
AcDbLinetypeTableRecord
  2
ByBlock
 70
0
  3

 72
65
 73
0
 40
0.0
  0
LTYPE
  5
25
330
2
100
AcDbSymbolTableRecord
100
AcDbLinetypeTableRecord
  2
ByLayer
 70
0
  3

 72
65
 73
0
 40
0.0
  0
LTYPE
  5
26
330
2
100
AcDbSymbolTableRecord
100
AcDbLinetypeTableRecord
  2
Continuous
 70
0
  3

 72
65
 73
0
 40
0.0
  0
ENDTAB
  0
TABLE
  2
LAYER
  5
1
330
0
100
AcDbSymbolTable
 70
2
  0
LAYER
  5
27
330
1
100
AcDbSymbolTableRecord
100
AcDbLayerTableRecord
  2
0
 70
0
 62
7
  6
Continuous
370
-3
390
13
347
21
  0
LAYER
  5
28
330
1
100
AcDbSymbolTableRecord
100
AcDbLayerTableRecord
  2
Defpoints
 70
0
 62
7
  6
Continuous
290
0
370
-3
390
13
347
21
  0
ENDTAB
  0
TABLE
  2
STYLE
  5
5
330
0
100
AcDbSymbolTable
 70
1
  0
STYLE
  5
29
330
5
100
AcDbSymbolTableRecord
100
AcDbTextStyleTableRecord
  2
Standard
 70
0
 40
0.0
 41
1.0
 50
0.0
 71
0
 42
2.5
  3
txt
  4

  0
ENDTAB
  0
TABLE
  2
VIEW
  5
7
330
0
100
AcDbSymbolTable
 70
0
  0
ENDTAB
  0
TABLE
  2
UCS
  5
6
330
0
100
AcDbSymbolTable
 70
0
  0
ENDTAB
  0
TABLE
  2
APPID
  5
3
330
0
100
AcDbSymbolTable
 70
3
  0
APPID
  5
2A
330
3
100
AcDbSymbolTableRecord
100
AcDbRegAppTableRecord
  2
ACAD
 70
0
  0
APPID
  5
17F
330
3
100
AcDbSymbolTableRecord
100
AcDbRegAppTableRecord
  2
HATCHBACKGROUNDCOLOR
 70
0
  0
APPID
  5
180
330
3
100
AcDbSymbolTableRecord
100
AcDbRegAppTableRecord
  2
EZDXF
 70
0
  0
ENDTAB
  0
TABLE
  2
DIMSTYLE
  5
4
330
0
100
AcDbSymbolTable
 70
1
100
AcDbDimStyleTable
  0
DIMSTYLE
105
2B
330
4
100
AcDbSymbolTableRecord
100
AcDbDimStyleTableRecord
  2
Standard
 70
0
 40
1.0
 41
2.5
 42
0.625
 43
3.75
 44
1.25
 45
0.0
 46
0.0
 47
0.0
 48
0.0
 49
2.5
140
2.5
141
2.5
142
0.0
143
0.03937007874
144
1.0
145
0.0
146
1.0
147
0.625
148
0.0
 69
0
 70
0
 71
0
 72
0
 73
0
 74
0
 75
0
 76
0
 77
1
 78
8
 79
3
170
0
171
3
172
1
173
0
174
0
175
0
176
0
177
0
178
0
179
2
271
2
272
2
273
2
274
3
275
0
276
0
277
2
278
44
279
0
280
0
281
0
282
0
283
0
284
8
285
0
286
0
288
0
289
3
290
0
371
-2
372
-2
  0
ENDTAB
  0
TABLE
  2
BLOCK_RECORD
  5
9
330
0
100
AcDbSymbolTable
 70
2
  0
BLOCK_RECORD
  5
17
330
9
100
AcDbSymbolTableRecord
100
AcDbBlockTableRecord
  2
*Model_Space
340
1A
 70
0
280
1
281
0
  0
BLOCK_RECORD
  5
1B
330
9
100
AcDbSymbolTableRecord
100
AcDbBlockTableRecord
  2
*Paper_Space
340
1E
 70
0
280
1
281
0
  0
ENDTAB
  0
ENDSEC
  0
SECTION
  2
BLOCKS
  0
BLOCK
  5
18
330
17
100
AcDbEntity
  8
0
100
AcDbBlockBegin
  2
*Model_Space
 70
0
 10
0.0
 20
0.0
 30
0.0
  3
*Model_Space
  1

  0
ENDBLK
  5
19
330
17
100
AcDbEntity
  8
0
100
AcDbBlockEnd
  0
BLOCK
  5
1C
330
1B
100
AcDbEntity
  8
0
100
AcDbBlockBegin
  2
*Paper_Space
 70
0
 10
0.0
 20
0.0
 30
0.0
  3
*Paper_Space
  1

  0
ENDBLK
  5
1D
330
1B
100
AcDbEntity
  8
0
100
AcDbBlockEnd
  0
ENDSEC
  0
SECTION
  2
ENTITIES
  0
ARC
  5
2F
330
17
100
AcDbEntity
  8
0
100
AcDbCircle
 10
14.0915473785911
 20
-1.4513054782715527
 30
0.0
 40
3.8701019652951603
100
AcDbArc
 50
111.14502600407091
 51
138.93684902479467
  0
SPLINE
  5
30
330
17
100
AcDbEntity
  8
0
100
AcDbSpline
 70
0
 71
2
 72
14
 73
11
 74
0
 40
0.0
 40
0.0
 40
0.0
 40
1.0
 40
1.0
 40
2.000000000000016
 40
2.000000000000016
 40
4.006666666666715
 40
4.006666666666715
 40
6.0133333333334384
 40
6.0133333333334384
 40
6.958127544097879
 40
6.958127544097879
 40
6.958127544097879
 10
11.1735026041667
 20
1.090964196335408
 30
0.0
 10
10.546875
 20
0.3748183630020767
 30
0.0
 10
10.216471354166671
 20
-0.7091660119979135
 30
0.0
 10
9.88606770833334
 20
-1.7931503869979215
 30
0.0
 10
9.886067708333337
 20
-3.2579941369979224
 30
0.0
 10
9.88606770833334
 20
-6.197447261997922
 30
0.0
 10
11.132812500000012
 20
-7.6329941369979135
 30
0.0
 10
12.3795572916667
 20
-9.068541011997922
 30
0.0
 10
14.7786458333333
 20
-9.068541011997922
 30
0.0
 10
15.908203125
 20
-9.068541011997922
 30
0.0
 10
16.8033854166666
 20
-8.712095699497922
 30
0.0
  0
ARC
  5
31
330
17
100
AcDbEntity
  8
0
100
AcDbCircle
 10
15.382792200515
 20
-5.095011796675912
 30
0.0
 40
3.8856329904318
100
AcDbArc
 50
291.44219181744216
 51
319.2204475336808
  0
SPLINE
  5
32
330
17
100
AcDbEntity
  8
0
100
AcDbSpline
 70
0
 71
2
 72
14
 73
11
 74
0
 40
0.0
 40
0.0
 40
0.0
 40
1.0
 40
1.0
 40
2.000000000000001
 40
2.000000000000001
 40
3.993333333333336
 40
3.993333333333336
 40
5.9866666666665616
 40
5.9866666666665616
 40
6.91760430686384
 40
6.91760430686384
 40
6.91760430686384
 10
18.3251953125
 20
-7.632994136997924
 30
0.0
 10
18.9518229166666
 20
-6.910337886997922
 30
0.0
 10
19.282226562499996
 20
-5.816587886997922
 30
0.0
 10
19.6126302083334
 20
-4.722837886997922
 30
0.0
 10
19.612630208333403
 20
-3.2579941369979224
 30
0.0
 10
19.612630208333407
 20
-0.3380722619979224
 30
0.0
 10
18.37565104166667
 20
1.0860813838354666
 30
0.0
 10
17.138671874999993
 20
2.5102350296687757
 30
0.0
 10
14.7200520833333
 20
2.5102350296687774
 30
0.0
 10
13.590494791666703
 20
2.510235029668779
 30
0.0
 10
12.6953125
 20
2.1586725296687383
 30
0.0
  0
SPLINE
  5
33
330
17
100
AcDbEntity
  8
0
100
AcDbSpline
 70
0
 71
3
 72
44
 73
40
 74
0
 40
0.0
 40
0.0
 40
0.0
 40
0.0
 40
1.0
 40
1.0
 40
1.0
 40
2.0000000000000275
 40
2.0000000000000275
 40
2.0000000000000275
 40
3.0000000000001963
 40
3.0000000000001963
 40
3.0000000000001963
 40
4.000000000000503
 40
4.000000000000503
 40
4.000000000000503
 40
5.000000000000682
 40
5.000000000000682
 40
5.000000000000682
 40
6.000000000000723
 40
6.000000000000723
 40
6.000000000000723
 40
7.0000000000006946
 40
7.0000000000006946
 40
7.0000000000006946
 40
8.000000000000657
 40
8.000000000000657
 40
8.000000000000657
 40
10.000000000000611
 40
10.000000000000611
 40
10.000000000000611
 40
12.000000000000771
 40
12.000000000000771
 40
12.000000000000771
 40
13.00416666666748
 40
13.00416666666748
 40
13.00416666666748
 40
14.008333333333896
 40
14.008333333333896
 40
14.008333333333896
 40
16.01666666666636
 40
16.01666666666636
 40
16.01666666666636
 40
16.01666666666636
 10
17.59765625
 20
-3.2579941369979224
 30
0.0
 10
17.597656249999996
 20
-4.030563581442369
 30
0.0
 10
17.546657986111093
 20
-4.711987192553476
 30
0.0
 10
17.4446614583333
 20
-5.302264970331245
 30
0.0
 10
17.342664930555518
 20
-5.892542748109029
 30
0.0
 10
17.178276909722165
 20
-6.386249345331242
 30
0.0
 10
16.951497395833325
 20
-6.783384761997881
 30
0.0
 10
16.724717881944454
 20
-7.180520178664574
 30
0.0
 10
16.430121527777796
 20
-7.480541880053471
 30
0.0
 10
16.067708333333385
 20
-7.683449866164568
 30
0.0
 10
15.705295138888935
 20
-7.886357852275694
 30
0.0
 10
15.262586805555564
 20
-7.987811845331256
 30
0.0
 10
14.739583333333302
 20
-7.987811845331256
 30
0.0
 10
14.21657986111111
 20
-7.987811845331256
 30
0.0
 10
13.775499131944432
 20
-7.886357852275694
 30
0.0
 10
13.41634114583331
 20
-7.683449866164568
 30
0.0
 10
13.057183159722243
 20
-7.480541880053471
 30
0.0
 10
12.765842013888907
 20
-7.180520178664582
 30
0.0
 10
12.542317708333337
 20
-6.783384761997902
 30
0.0
 10
12.318793402777782
 20
-6.386249345331247
 30
0.0
 10
12.157660590277777
 20
-5.892542748109033
 30
0.0
 10
12.05891927083335
 20
-5.3022649703312545
 30
0.0
 10
11.960177951388914
 20
-4.7119871925534795
 30
0.0
 10
11.910807291666703
 20
-4.03056358144237
 30
0.0
 10
11.9108072916667
 20
-3.2579941369979224
 30
0.0
 10
11.913859262147055
 20
-1.713703017686873
 30
0.0
 10
12.10198275174188
 20
-0.5417600826978122
 30
0.0
 10
12.552083333333336
 20
0.23647200883538844
 30
0.0
 10
13.001844807093692
 20
1.015043208199808
 30
0.0
 10
13.714735054017437
 20
1.4104832747488025
 30
0.0
 10
14.7591145833333
 20
1.4099746130020776
 30
0.0
 10
15.282118055555491
 20
1.4099746130020687
 30
0.0
 10
15.723198784722193
 20
1.3117758282798473
 30
0.0
 10
16.082356770833385
 20
1.115378258835369
 30
0.0
 10
16.441514756944454
 20
0.9189806893909527
 30
0.0
 10
16.73285590277777
 20
0.6260119393909562
 30
0.0
 10
16.95638020833333
 20
0.23647200883536534
 30
0.0
 10
17.40648078992467
 20
-0.5417600826977909
 30
0.0
 10
17.59460427951967
 20
-1.713703017686865
 30
0.0
 10
17.59765625
 20
-3.2579941369979224
 30
0.0
  0
SPLINE
  5
34
330
17
100
AcDbEntity
  8
0
100
AcDbSpline
 70
0
 71
2
 72
14
 73
11
 74
0
 40
0.0
 40
0.0
 40
0.0
 40
1.0
 40
1.0
 40
1.999999999999949
 40
1.999999999999949
 40
4.006666666666513
 40
4.006666666666513
 40
6.013333333333144
 40
6.013333333333144
 40
6.9581275440975405
 40
6.9581275440975405
 40
6.9581275440975405
 10
-38.6409505208333
 20
1.090964196335408
 30
0.0
 10
-39.267578125000014
 20
0.3748183630020776
 30
0.0
 10
-39.59798177083331
 20
-0.7091660119979508
 30
0.0
 10
-39.928385416666586
 20
-1.7931503869979224
 30
0.0
 10
-39.9283854166666
 20
-3.2579941369979224
 30
0.0
 10
-39.9283854166666
 20
-6.197447261997921
 30
0.0
 10
-38.68164062499997
 20
-7.632994136997899
 30
0.0
 10
-37.43489583333331
 20
-9.068541011997922
 30
0.0
 10
-35.0358072916667
 20
-9.068541011997922
 30
0.0
 10
-33.90624999999999
 20
-9.068541011997922
 30
0.0
 10
-33.0110677083333
 20
-8.712095699497922
 30
0.0
  0
ARC
  5
35
330
17
100
AcDbEntity
  8
0
100
AcDbCircle
 10
-34.4316609244851
 20
-5.095011796675832
 30
0.0
 40
3.88563299043194
100
AcDbArc
 50
291.4421918174445
 51
319.22044753368095
  0
SPLINE
  5
36
330
17
100
AcDbEntity
  8
0
100
AcDbSpline
 70
0
 71
2
 72
14
 73
11
 74
0
 40
0.0
 40
0.0
 40
0.0
 40
1.0
 40
1.0
 40
2.0
 40
2.0
 40
3.993333333333333
 40
3.993333333333333
 40
5.986666666666767
 40
5.986666666666767
 40
6.9176043068642645
 40
6.9176043068642645
 40
6.9176043068642645
 10
-31.489257812499996
 20
-7.632994136997924
 30
0.0
 10
-30.862630208333293
 20
-6.910337886997922
 30
0.0
 10
-30.5322265625
 20
-5.816587886997922
 30
0.0
 10
-30.2018229166667
 20
-4.722837886997922
 30
0.0
 10
-30.2018229166667
 20
-3.2579941369979224
 30
0.0
 10
-30.2018229166667
 20
-0.3380722619979224
 30
0.0
 10
-31.438802083333318
 20
1.086081383835392
 30
0.0
 10
-32.67578125
 20
2.5102350296687774
 30
0.0
 10
-35.0944010416666
 20
2.5102350296687774
 30
0.0
 10
-36.223958333333314
 20
2.5102350296687828
 30
0.0
 10
-37.119140625
 20
2.1586725296687383
 30
0.0
  0
ARC
  5
37
330
17
100
AcDbEntity
  8
0
100
AcDbCircle
 10
-35.7229057464084
 20
-1.451305478272122
 30
0.0
 40
3.87010196529592
100
AcDbArc
 50
111.14502600407475
 51
138.93684902479316
  0
SPLINE
  5
38
330
17
100
AcDbEntity
  8
0
100
AcDbSpline
 70
0
 71
3
 72
44
 73
40
 74
0
 40
0.0
 40
0.0
 40
0.0
 40
0.0
 40
1.0
 40
1.0
 40
1.0
 40
1.999999999999971
 40
1.999999999999971
 40
1.999999999999971
 40
3.0000000000000115
 40
3.0000000000000115
 40
3.0000000000000115
 40
4.000000000000051
 40
4.000000000000051
 40
4.000000000000051
 40
5.00000000000009
 40
5.00000000000009
 40
5.00000000000009
 40
6.000000000000131
 40
6.000000000000131
 40
6.000000000000131
 40
7.000000000000174
 40
7.000000000000174
 40
7.000000000000174
 40
8.000000000000265
 40
8.000000000000265
 40
8.000000000000265
 40
10.000000000000457
 40
10.000000000000457
 40
10.000000000000457
 40
12.000000000000545
 40
12.000000000000545
 40
12.000000000000545
 40
13.004166666667018
 40
13.004166666667018
 40
13.004166666667018
 40
14.008333333333626
 40
14.008333333333626
 40
14.008333333333626
 40
16.01666666666668
 40
16.01666666666668
 40
16.01666666666668
 40
16.01666666666668
 10
-32.216796875
 20
-3.2579941369979224
 30
0.0
 10
-32.21679687499999
 20
-4.030563581442369
 30
0.0
 10
-32.267795138888886
 20
-4.711987192553484
 30
0.0
 10
-32.36979166666666
 20
-5.3022649703312705
 30
0.0
 10
-32.471788194444436
 20
-5.892542748109037
 30
0.0
 10
-32.63617621527773
 20
-6.386249345331249
 30
0.0
 10
-32.86295572916664
 20
-6.783384761997901
 30
0.0
 10
-33.089735243055536
 20
-7.180520178664582
 30
0.0
 10
-33.384331597222214
 20
-7.480541880053478
 30
0.0
 10
-33.7467447916667
 20
-7.683449866164589
 30
0.0
 10
-34.10915798611115
 20
-7.886357852275701
 30
0.0
 10
-34.5518663194445
 20
-7.987811845331256
 30
0.0
 10
-35.0748697916667
 20
-7.987811845331256
 30
0.0
 10
-35.597873263888886
 20
-7.987811845331256
 30
0.0
 10
-36.03895399305557
 20
-7.886357852275701
 30
0.0
 10
-36.3981119791667
 20
-7.683449866164589
 30
0.0
 10
-36.757269965277864
 20
-7.480541880053478
 30
0.0
 10
-37.04861111111115
 20
-7.180520178664589
 30
0.0
 10
-37.2721354166667
 20
-6.783384761997923
 30
0.0
 10
-37.495659722222264
 20
-6.386249345331254
 30
0.0
 10
-37.65679253472222
 20
-5.89254274810904
 30
0.0
 10
-37.7555338541667
 20
-5.302264970331278
 30
0.0
 10
-37.85427517361118
 20
-4.71198719255349
 30
0.0
 10
-37.90364583333339
 20
-4.030563581442369
 30
0.0
 10
-37.9036458333334
 20
-3.2579941369979224
 30
0.0
 10
-37.900593862853064
 20
-1.7137030176868908
 30
0.0
 10
-37.71247037325811
 20
-0.5417600826978246
 30
0.0
 10
-37.2623697916667
 20
0.23647200883541064
 30
0.0
 10
-36.81260831790642
 20
1.0150432081997405
 30
0.0
 10
-36.099718070982696
 20
1.410483274748815
 30
0.0
 10
-35.0553385416666
 20
1.4099746130020776
 30
0.0
 10
-34.53233506944439
 20
1.4099746130020794
 30
0.0
 10
-34.091254340277764
 20
1.311775828279858
 30
0.0
 10
-33.732096354166686
 20
1.115378258835431
 30
0.0
 10
-33.37293836805556
 20
0.9189806893909722
 30
0.0
 10
-33.081597222222236
 20
0.6260119393909651
 30
0.0
 10
-32.85807291666663
 20
0.23647200883538844
 30
0.0
 10
-32.40797233507519
 20
-0.5417600826978122
 30
0.0
 10
-32.21984884548034
 20
-1.713703017686914
 30
0.0
 10
-32.21679687499999
 20
-3.2579941369979224
 30
0.0
  0
ARC
  5
39
330
17
100
AcDbEntity
  8
0
100
AcDbCircle
 10
53.7581264254626
 20
-6.600674711947402
 30
0.0
 40
1.35021871595222
100
AcDbArc
 50
236.72263187699528
 51
261.68734337671674
  0
SPLINE
  5
3A
330
17
100
AcDbEntity
  8
0
100
AcDbSpline
 70
0
 71
2
 72
8
 73
5
 74
0
 40
0.0
 40
0.0
 40
0.0
 40
1.0
 40
1.0
 40
2.0000000000000027
 40
2.0000000000000027
 40
2.0000000000000027
 10
53.017578125
 20
-7.729022782831257
 30
0.0
 10
52.783203125
 20
-7.57114517866459
 30
0.0
 10
52.6513671875
 20
-7.276548824497924
 30
0.0
 10
52.51953125
 20
-6.981952470331257
 30
0.0
 10
52.51953125
 20
-6.4936712203312625
 30
0.0
  0
LINE
  5
3B
330
17
100
AcDbEntity
  8
0
100
AcDbLine
 10
52.51953125
 20
-6.493671220331253
 30
0.0
 11
52.51953125
 21
2.0987185851438266
 31
0.0
  0
ARC
  5
3C
330
17
100
AcDbEntity
  8
0
100
AcDbCircle
 10
51.4615885416667
 20
5.571758467168676
 30
0.0
 40
3.63059895833334
100
AcDbArc
 50
286.9415624543425
 51
613.2194752618822
  0
LINE
  5
3D
330
17
100
AcDbEntity
  8
0
100
AcDbLine
 10
50.4134114583333
 20
2.0957588126483184
 30
0.0
 11
50.4134114583333
 21
-6.493671220331263
 31
0.0
  0
SPLINE
  5
3E
330
17
100
AcDbEntity
  8
0
100
AcDbSpline
 70
0
 71
3
 72
11
 73
7
 74
0
 40
0.0
 40
0.0
 40
0.0
 40
0.0
 40
1.0
 40
1.0
 40
1.0
 40
2.9999999999999907
 40
2.9999999999999907
 40
2.9999999999999907
 40
2.9999999999999907
 10
50.4134114583333
 20
-6.4936712203312625
 30
0.0
 10
50.413411458333286
 20
-6.819192053664593
 30
0.0
 10
50.367838541666636
 20
-7.0801512550534795
 30
0.0
 10
50.2766927083333
 20
-7.276548824497924
 30
0.0
 10
50.0950792573289
 20
-7.672395933867153
 30
0.0
 10
49.78556310378213
 20
-7.8670298401286916
 30
0.0
 10
49.365234375
 20
-7.93735611616459
 30
0.0
  0
ARC
  5
3F
330
17
100
AcDbEntity
  8
0
100
AcDbCircle
 10
48.719199123638795
 20
-3.8005763106661625
 30
0.0
 40
4.18709059864496
100
AcDbArc
 50
269.79786853497444
 51
278.8761082694629
  0
LINE
  5
40
330
17
100
AcDbEntity
  8
0
100
AcDbLine
 10
48.7044273849521
 20
-7.987811845331256
 30
0.0
 11
48.4309895833333
 21
-7.987811845331256
 31
0.0
  0
LINE
  5
41
330
17
100
AcDbEntity
  8
0
100
AcDbLine
 10
48.4309895833333
 20
-7.987811845331257
 30
0.0
 11
48.4309895833333
 21
-8.863462886997922
 31
0.0
  0
LINE
  5
42
330
17
100
AcDbEntity
  8
0
100
AcDbLine
 10
48.4309895833333
 20
-8.863462886997922
 30
0.0
 11
54.4921875
 21
-8.863462886997922
 31
0.0
  0
LINE
  5
43
330
17
100
AcDbEntity
  8
0
100
AcDbLine
 10
54.4921875
 20
-8.863462886997922
 30
0.0
 11
54.4921875
 21
-7.987811845331256
 31
0.0
  0
LINE
  5
44
330
17
100
AcDbEntity
  8
0
100
AcDbLine
 10
54.4921875
 20
-7.987811845331256
 30
0.0
 11
54.2285148972067
 21
-7.987811845331256
 31
0.0
  0
ARC
  5
45
330
17
100
AcDbEntity
  8
0
100
AcDbCircle
 10
54.2059826371867
 20
-3.8235783072282623
 30
0.0
 40
4.16402549630357
100
AcDbArc
 50
261.1141384756688
 51
270.31002884190724
  0
ARC
  5
46
330
17
100
AcDbEntity
  8
0
100
AcDbCircle
 10
48.719199123638795
 20
0.9466974116694065
 30
0.0
 40
4.18709059864585
100
AcDbArc
 50
81.12379823005843
 51
90.20213146502552
  0
ARC
  5
47
330
17
100
AcDbEntity
  8
0
100
AcDbCircle
 10
49.1833246672672
 20
3.779673363028678
 30
0.0
 40
1.31559407517563
100
AcDbArc
 50
56.42438222692506
 51
82.0571755374653
  0
SPLINE
  5
48
330
17
100
AcDbEntity
  8
0
100
AcDbSpline
 70
0
 71
2
 72
8
 73
5
 74
0
 40
0.0
 40
0.0
 40
0.0
 40
1.0
 40
1.0
 40
2.0
 40
2.0
 40
2.0
 10
49.9104817708333
 20
4.875143883835378
 30
0.0
 10
50.13997395833329
 20
4.717266279668777
 30
0.0
 10
50.2766927083333
 20
4.422669925502078
 30
0.0
 10
50.41341145833329
 20
4.128073571335378
 30
0.0
 10
50.4134114583333
 20
3.639792321335378
 30
0.0
  0
LINE
  5
49
330
17
100
AcDbEntity
  8
0
100
AcDbLine
 10
50.4134114583333
 20
3.639792321335378
 30
0.0
 11
50.4134114583333
 21
2.728194708744077
 31
0.0
  0
ARC
  5
4A
330
17
100
AcDbEntity
  8
0
100
AcDbCircle
 10
51.4615885416667
 20
5.571758467168676
 30
0.0
 40
3.03059895833334
100
AcDbArc
 50
188.30649162890842
 51
249.76541314079074
  0
LINE
  5
4B
330
17
100
AcDbEntity
  8
0
100
AcDbLine
 10
48.4627823025845
 20
5.133932946335378
 30
0.0
 11
48.7044273849521
 21
5.133932946335378
 31
0.0
  0
ARC
  5
4C
330
17
100
AcDbEntity
  8
0
100
AcDbCircle
 10
51.4615885416667
 20
5.571758467168676
 30
0.0
 40
3.03059895833334
100
AcDbArc
 50
290.43148232490876
 51
351.69350837109135
  0
LINE
  5
4D
330
17
100
AcDbEntity
  8
0
100
AcDbLine
 10
52.51953125
 20
2.7318135254250784
 30
0.0
 11
52.51953125
 21
3.639792321335378
 31
0.0
  0
SPLINE
  5
4E
330
17
100
AcDbEntity
  8
0
100
AcDbSpline
 70
0
 71
2
 72
8
 73
5
 74
0
 40
0.0
 40
0.0
 40
0.0
 40
1.0
 40
1.0
 40
2.0
 40
2.0
 40
2.0
 10
52.51953125
 20
3.639792321335378
 30
0.0
 10
52.51953125
 20
4.128073571335378
 30
0.0
 10
52.6513671875
 20
4.422669925502078
 30
0.0
 10
52.783203125
 20
4.717266279668777
 30
0.0
 10
53.017578125
 20
4.875143883835378
 30
0.0
  0
ARC
  5
4F
330
17
100
AcDbEntity
  8
0
100
AcDbCircle
 10
53.7581264254657
 20
3.746795812943377
 30
0.0
 40
1.35021871596086
100
AcDbArc
 50
98.312656623367
 51
123.2773681229249
  0
ARC
  5
50
330
17
100
AcDbEntity
  8
0
100
AcDbCircle
 10
54.2059826371867
 20
0.9696994082317776
 30
0.0
 40
4.164025496304189
100
AcDbArc
 50
89.6899711580928
 51
98.88586152433106
  0
LINE
  5
51
330
17
100
AcDbEntity
  8
0
100
AcDbLine
 10
54.2285148972067
 20
5.133932946335378
 30
0.0
 11
54.4603947807488
 21
5.133932946335378
 31
0.0
  0
ARC
  5
52
330
17
100
AcDbEntity
  8
0
100
AcDbCircle
 10
51.4615885416667
 20
5.571758467168676
 30
0.0
 40
3.03059895833334
100
AcDbArc
 50
8.306491628910603
 51
171.69350837108968
  0
LINE
  5
53
330
17
100
AcDbEntity
  8
0
100
AcDbLine
 10
54.4603947807488
 20
6.009583988002078
 30
0.0
 11
48.4627823025845
 21
6.009583988002078
 31
0.0
  0
SPLINE
  5
54
330
17
100
AcDbEntity
  8
0
100
AcDbSpline
 70
0
 71
2
 72
12
 73
9
 74
0
 40
0.0
 40
0.0
 40
0.0
 40
1.0
 40
1.0
 40
1.9390862944162457
 40
1.9390862944162457
 40
2.8781725888324656
 40
2.8781725888324656
 40
3.817258883248718
 40
3.817258883248718
 40
3.817258883248718
 10
-9.93489583333333
 20
1.2830214880020776
 30
0.0
 10
-9.55403645833332
 20
1.4718235713354062
 30
0.0
 10
-8.91276041666666
 20
1.4718235713354062
 30
0.0
 10
-8.310546875
 20
1.4718235713354026
 30
0.0
 10
-7.939453124999989
 20
1.304180342168742
 30
0.0
 10
-7.5683593749999885
 20
1.1365371130020776
 30
0.0
 10
-7.360026041666659
 20
0.8305475296687508
 30
0.0
 10
-7.1516927083333215
 20
0.5245579463354098
 30
0.0
 10
-7.080078124999989
 20
0.10789127966874901
 30
0.0
  0
ARC
  5
55
330
17
100
AcDbEntity
  8
0
100
AcDbCircle
 10
-12.3711379198838
 20
-0.7605398209378631
 30
0.0
 40
5.36233465827682
100
AcDbArc
 50
359.60985378627663
 51
369.32095183943227
  0
SPLINE
  5
56
330
17
100
AcDbEntity
  8
0
100
AcDbSpline
 70
0
 71
2
 72
14
 73
11
 74
0
 40
0.0
 40
0.0
 40
0.0
 40
1.0
 40
1.0
 40
1.9999999999999887
 40
1.9999999999999887
 40
2.7477477477477352
 40
2.7477477477477352
 40
3.495495495495505
 40
3.495495495495505
 40
4.243243243243275
 40
4.243243243243275
 40
4.243243243243275
 10
-7.008463541666659
 20
-0.7970566369979224
 30
0.0
 10
-6.1458333333333215
 20
-0.7970566369979233
 30
0.0
 10
-5.693359374999987
 20
-0.5024602828312563
 30
0.0
 10
-5.240885416666661
 20
-0.2078639286645929
 30
0.0
 10
-5.24088541666666
 20
0.514792321335408
 30
0.0
 10
-5.240885416666659
 20
1.0551569046687472
 30
0.0
 10
-5.535481770833321
 20
1.4311334671687366
 30
0.0
 10
-5.83007812499999
 20
1.807110029668742
 30
0.0
 10
-6.342773437499991
 20
2.0463678421687366
 30
0.0
 10
-6.8554687499999885
 20
2.2856256546687383
 30
0.0
 10
-7.53743489583333
 20
2.3979303421687774
 30
0.0
  0
ARC
  5
57
330
17
100
AcDbEntity
  8
0
100
AcDbCircle
 10
-8.94671026612168
 20
-6.470692734204302
 30
0.0
 40
8.98047964740611
100
AcDbArc
 50
80.97086338359291
 51
90.30258946412583
  0
SPLINE
  5
58
330
17
100
AcDbEntity
  8
0
100
AcDbSpline
 70
0
 71
2
 72
12
 73
9
 74
0
 40
0.0
 40
0.0
 40
0.0
 40
1.0
 40
1.0
 40
1.9999999999999305
 40
1.9999999999999305
 40
2.99999999999985
 40
2.99999999999985
 40
3.9999999999997087
 40
3.9999999999997087
 40
3.9999999999997087
 10
-8.994140624999991
 20
2.5102350296687774
 30
0.0
 10
-9.947916666666663
 20
2.5102350296687774
 30
0.0
 10
-10.660807291666703
 20
2.3214329463354204
 30
0.0
 10
-11.373697916666703
 20
2.132630863002074
 30
0.0
 10
-11.852213541666703
 20
1.7061985713354133
 30
0.0
 10
-12.3307291666667
 20
1.279766279668749
 30
0.0
 10
-12.569986979166657
 20
0.592917321335392
 30
0.0
 10
-12.8092447916666
 20
-0.0939316369979224
 30
0.0
 10
-12.8092447916666
 20
-1.0900253869979224
 30
0.0
  0
LINE
  5
59
330
17
100
AcDbEntity
  8
0
100
AcDbLine
 10
-12.8092447916666
 20
-1.0900253869979224
 30
0.0
 11
-12.8092447916666
 21
-6.493671220331262
 31
0.0
  0
SPLINE
  5
5A
330
17
100
AcDbEntity
  8
0
100
AcDbSpline
 70
0
 71
2
 72
8
 73
5
 74
0
 40
0.0
 40
0.0
 40
0.0
 40
1.0
 40
1.0
 40
2.0000000000000036
 40
2.0000000000000036
 40
2.0000000000000036
 10
-12.8092447916666
 20
-6.4936712203312625
 30
0.0
 10
-12.8092447916666
 20
-6.929869136997924
 30
0.0
 10
-12.879231770833298
 20
-7.21469986616459
 30
0.0
 10
-12.94921875
 20
-7.499530595331257
 30
0.0
 10
-13.1022135416667
 20
-7.672056636997924
 30
0.0
  0
ARC
  5
5B
330
17
100
AcDbEntity
  8
0
100
AcDbCircle
 10
-13.7138720405269
 20
-7.113071466463494
 30
0.0
 40
0.829225888046622
100
AcDbArc
 50
284.62950311532893
 51
317.5762965013418
  0
SPLINE
  5
5C
330
17
100
AcDbEntity
  8
0
100
AcDbSpline
 70
0
 71
2
 72
6
 73
3
 74
0
 40
0.0
 40
0.0
 40
0.0
 40
1.0
 40
1.0
 40
1.0
 10
-13.5042317708333
 20
-7.916197261997924
 30
0.0
 10
-13.753255208333298
 20
-7.987811845331256
 30
0.0
 10
-14.0983072916667
 20
-7.987811845331256
 30
0.0
  0
LINE
  5
5D
330
17
100
AcDbEntity
  8
0
100
AcDbLine
 10
-14.0983072916667
 20
-7.987811845331256
 30
0.0
 11
-14.16015625
 21
-7.987811845331256
 31
0.0
  0
LINE
  5
5E
330
17
100
AcDbEntity
  8
0
100
AcDbLine
 10
-14.16015625
 20
-7.987811845331257
 30
0.0
 11
-14.16015625
 21
-8.863462886997922
 31
0.0
  0
LINE
  5
5F
330
17
100
AcDbEntity
  8
0
100
AcDbLine
 10
-14.16015625
 20
-8.863462886997922
 30
0.0
 11
-11.3444010416667
 21
-8.863462886997922
 31
0.0
  0
LINE
  5
60
330
17
100
AcDbEntity
  8
0
100
AcDbLine
 10
-11.344401041666664
 20
-8.86346288699793
 30
0.0
 11
-11.018880208333336
 21
-7.073098303664584
 31
0.0
  0
LINE
  5
61
330
17
100
AcDbEntity
  8
0
100
AcDbLine
 10
-11.0188802083333
 20
-7.07309830366459
 30
0.0
 11
-10.8429164026543
 21
-7.07309830366459
 31
0.0
  0
ARC
  5
62
330
17
100
AcDbEntity
  8
0
100
AcDbCircle
 10
4.8878988283522595
 20
4.619800937594977
 30
0.0
 40
19.600572453332
100
AcDbArc
 50
216.62385452548133
 51
219.60581078716464
  0
ARC
  5
63
330
17
100
AcDbEntity
  8
0
100
AcDbCircle
 10
-7.37641324777034
 20
-5.538000043174883
 30
0.0
 40
3.67551174146195
100
AcDbArc
 50
219.48830499971086
 51
233.88510016928282
  0
ARC
  5
64
330
17
100
AcDbEntity
  8
0
100
AcDbCircle
 10
-7.843950074744191
 20
-6.133351117819262
 30
0.0
 40
2.9192984592955
100
AcDbArc
 50
234.41093321036823
 51
252.65944629793344
  0
SPLINE
  5
65
330
17
100
AcDbEntity
  8
0
100
AcDbSpline
 70
0
 71
2
 72
8
 73
5
 74
0
 40
0.0
 40
0.0
 40
0.0
 40
1.0
 40
1.0
 40
2.0650000000000075
 40
2.0650000000000075
 40
2.0650000000000075
 10
-8.714192708333329
 20
-8.920429032831253
 30
0.0
 10
-8.251953125
 20
-9.068541011997922
 30
0.0
 10
-7.60091145833333
 20
-9.068541011997922
 30
0.0
 10
-6.907552083333319
 20
-9.068541011997922
 30
0.0
 10
-6.31184895833332
 20
-8.869973303664592
 30
0.0
  0
ARC
  5
66
330
17
100
AcDbEntity
  8
0
100
AcDbCircle
 10
-7.13939632533676
 20
-6.3082601568733425
 30
0.0
 40
2.69134550520818
100
AcDbArc
 50
287.90276585632654
 51
313.56698726869786
  0
SPLINE
  5
67
330
17
100
AcDbEntity
  8
0
100
AcDbSpline
 70
0
 71
2
 72
12
 73
9
 74
0
 40
0.0
 40
0.0
 40
0.0
 40
1.0
 40
1.0
 40
2.000000000000008
 40
2.000000000000008
 40
3.94656488549618
 40
3.94656488549618
 40
5.893129770992332
 40
5.893129770992332
 40
5.893129770992332
 10
-5.28483072916666
 20
-8.257994136997924
 30
0.0
 10
-4.853515624999989
 20
-7.84458267866459
 30
0.0
 10
-4.609374999999992
 20
-7.219582678664594
 30
0.0
 10
-4.365234374999989
 20
-6.594582678664592
 30
0.0
 10
-4.36523437499999
 20
-5.741718095331253
 30
0.0
 10
-4.36523437499999
 20
-4.081561845331262
 30
0.0
 10
-5.54524739583333
 20
-3.2775253869979233
 30
0.0
 10
-6.725260416666659
 20
-2.473488928664592
 30
0.0
 10
-9.11458333333332
 20
-2.405129553664593
 30
0.0
  0
LINE
  5
68
330
17
100
AcDbEntity
  8
0
100
AcDbLine
 10
-9.11458333333332
 20
-2.4051295536645894
 30
0.0
 11
-10.8430989583333
 21
-2.343280595331257
 31
0.0
  0
LINE
  5
69
330
17
100
AcDbEntity
  8
0
100
AcDbLine
 10
-10.8430989583333
 20
-2.3432805953312528
 30
0.0
 11
-10.8430989583333
 21
-1.0900242950854127
 31
0.0
  0
ARC
  5
6A
330
17
100
AcDbEntity
  8
0
100
AcDbCircle
 10
-2.62858630700578
 20
-1.0465393189217824
 30
0.0
 40
8.214215223963441
100
AcDbArc
 50
173.09993284942726
 51
180.3033101292321
  0
SPLINE
  5
6B
330
17
100
AcDbEntity
  8
0
100
AcDbSpline
 70
0
 71
2
 72
6
 73
3
 74
0
 40
0.0
 40
0.0
 40
0.0
 40
1.0
 40
1.0
 40
1.0
 10
-10.782877604166702
 20
-0.059751949497922396
 30
0.0
 10
-10.72265625
 20
0.4138808630020776
 30
0.0
 10
-10.5192057291666
 20
0.754050133835408
 30
0.0
  0
ARC
  5
6C
330
17
100
AcDbEntity
  8
0
100
AcDbCircle
 10
-9.347910328029359
 20
0.04364182809477768
 30
0.0
 40
1.3704377520631201
100
AcDbArc
 50
115.34281277148
 51
148.76255743167735
  0
ARC
  5
6D
330
17
100
AcDbEntity
  8
0
100
AcDbCircle
 10
-8.2459683639981
 20
-5.324383164215153
 30
0.0
 40
1.7880091004977898
100
AcDbArc
 50
18.277391226422093
 51
48.959017863559566
  0
SPLINE
  5
6E
330
17
100
AcDbEntity
  8
0
100
AcDbSpline
 70
0
 71
2
 72
12
 73
9
 74
0
 40
0.0
 40
0.0
 40
0.0
 40
1.0
 40
1.0
 40
2.595744680851052
 40
2.595744680851052
 40
4.191489361702102
 40
4.191489361702102
 40
5.3596949016459
 40
5.3596949016459
 40
5.3596949016459
 10
-6.547851562499989
 20
-4.763527991164592
 30
0.0
 10
-6.389973958333319
 20
-5.230650386997922
 30
0.0
 10
-6.38997395833332
 20
-5.842629553664592
 30
0.0
 10
-6.38997395833332
 20
-6.81919205366459
 30
0.0
 10
-6.801757812499989
 20
-7.30259049116459
 30
0.0
 10
-7.213541666666661
 20
-7.78598892866459
 30
0.0
 10
-8.07617187499999
 20
-7.78598892866459
 30
0.0
 10
-8.70768229166666
 20
-7.78598892866459
 30
0.0
 10
-9.22200520833332
 20
-7.582538407831257
 30
0.0
  0
ARC
  5
6F
330
17
100
AcDbEntity
  8
0
100
AcDbCircle
 10
-8.3494859966875
 20
-5.312535560273773
 30
0.0
 40
2.4312382482294104
100
AcDbArc
 50
224.01275356633565
 51
248.97477690044622
  0
ARC
  5
70
330
17
100
AcDbEntity
  8
0
100
AcDbCircle
 10
-8.247881318466131
 20
-5.264118009839722
 30
0.0
 40
2.53855032829919
100
AcDbArc
 50
198.86240860270462
 51
223.20513173994445
  0
SPLINE
  5
71
330
17
100
AcDbEntity
  8
0
100
AcDbSpline
 70
0
 71
2
 72
6
 73
3
 74
0
 40
0.0
 40
0.0
 40
0.0
 40
1.0
 40
1.0
 40
1.0
 10
-10.6510416666667
 20
-6.085142574497922
 30
0.0
 10
-10.8430989583333
 20
-5.546405595331262
 30
0.0
 10
-10.8430989583333
 20
-4.885598303664592
 30
0.0
  0
LINE
  5
72
330
17
100
AcDbEntity
  8
0
100
AcDbLine
 10
-10.8430989583333
 20
-4.885598303664592
 30
0.0
 11
-10.8430989583333
 21
-3.196145178664592
 31
0.0
  0
LINE
  5
73
330
17
100
AcDbEntity
  8
0
100
AcDbLine
 10
-10.8430989583333
 20
-3.196145178664599
 30
0.0
 11
-9.51171874999999
 21
-3.2579941369979304
 31
0.0
  0
SPLINE
  5
74
330
17
100
AcDbEntity
  8
0
100
AcDbSpline
 70
0
 71
2
 72
8
 73
5
 74
0
 40
0.0
 40
0.0
 40
0.0
 40
1.0
 40
1.0
 40
2.0000000000000133
 40
2.0000000000000133
 40
2.0000000000000133
 10
-9.51171874999999
 20
-3.2579941369979224
 30
0.0
 10
-8.626302083333321
 20
-3.300311845331252
 30
0.0
 10
-8.03222656249999
 20
-3.4777206994979206
 30
0.0
 10
-7.43815104166665
 20
-3.655129553664592
 30
0.0
 10
-7.07194010416666
 20
-3.9757675744979224
 30
0.0
  0
ARC
  5
75
330
17
100
AcDbEntity
  8
0
100
AcDbCircle
 10
41.5313404890114
 20
-3.4611671417183016
 30
0.0
 40
4.52648965285422
100
AcDbArc
 50
269.77636153532484
 51
278.1063928486926
  0
LINE
  5
76
330
17
100
AcDbEntity
  8
0
100
AcDbLine
 10
41.5136722448945
 20
-7.987811845331256
 30
0.0
 11
41.4518229166666
 21
-7.987811845331256
 31
0.0
  0
LINE
  5
77
330
17
100
AcDbEntity
  8
0
100
AcDbLine
 10
41.4518229166666
 20
-7.987811845331256
 30
0.0
 11
41.4518229166666
 21
-8.863462886997922
 31
0.0
  0
LINE
  5
78
330
17
100
AcDbEntity
  8
0
100
AcDbLine
 10
41.4518229166666
 20
-8.863462886997922
 30
0.0
 11
47.0572916666667
 21
-8.863462886997922
 31
0.0
  0
LINE
  5
79
330
17
100
AcDbEntity
  8
0
100
AcDbLine
 10
47.0572916666667
 20
-8.863462886997922
 30
0.0
 11
47.0572916666667
 21
-7.987811845331256
 31
0.0
  0
LINE
  5
7A
330
17
100
AcDbEntity
  8
0
100
AcDbLine
 10
47.0572916666667
 20
-7.987811845331256
 30
0.0
 11
46.8847647156546
 21
-7.987811845331256
 31
0.0
  0
ARC
  5
7B
330
17
100
AcDbEntity
  8
0
100
AcDbCircle
 10
46.8597143807312
 20
-3.8305089752889123
 30
0.0
 40
4.15707652598672
100
AcDbArc
 50
261.1115036088992
 51
270.34525105356903
  0
ARC
  5
7C
330
17
100
AcDbEntity
  8
0
100
AcDbCircle
 10
46.405991476539896
 20
-6.640677487107618
 30
0.0
 40
1.30959944869623
100
AcDbArc
 50
236.24739918650002
 51
261.7268139247011
  0
SPLINE
  5
7D
330
17
100
AcDbEntity
  8
0
100
AcDbSpline
 70
0
 71
2
 72
6
 73
3
 74
0
 40
0.0
 40
0.0
 40
0.0
 40
1.0
 40
1.0
 40
1.0
 10
45.6787109375
 20
-7.729022782831257
 30
0.0
 10
45.44921875
 20
-7.57114517866459
 30
0.0
 10
45.3125
 20
-7.276548824497924
 30
0.0
  0
SPLINE
  5
7E
330
17
100
AcDbEntity
  8
0
100
AcDbSpline
 70
0
 71
2
 72
6
 73
3
 74
0
 40
0.0
 40
0.0
 40
0.0
 40
1.0
 40
1.0
 40
1.0
 10
45.3125
 20
-7.276548824497924
 30
0.0
 10
45.17578125
 20
-6.981952470331257
 30
0.0
 10
45.17578125
 20
-6.4936712203312625
 30
0.0
  0
LINE
  5
7F
330
17
100
AcDbEntity
  8
0
100
AcDbLine
 10
45.17578125
 20
-6.4936712203312625
 30
0.0
 11
45.17578125
 21
0.006979821335407976
 31
0.0
  0
SPLINE
  5
80
330
17
100
AcDbEntity
  8
0
100
AcDbSpline
 70
0
 71
2
 72
6
 73
3
 74
0
 40
0.0
 40
0.0
 40
0.0
 40
1.0
 40
1.0
 40
1.0
 10
45.17578125
 20
0.006979821335407976
 30
0.0
 10
45.17578125
 20
0.465964196335408
 30
0.0
 10
45.3125
 20
0.7459121130020776
 30
0.0
  0
ARC
  5
81
330
17
100
AcDbEntity
  8
0
100
AcDbCircle
 10
46.261708494877794
 20
0.30831159366795724
 30
0.0
 40
1.04433931695938
100
AcDbArc
 50
123.63659149244401
 51
155.24953158155242
  0
ARC
  5
82
330
17
100
AcDbEntity
  8
0
100
AcDbCircle
 10
46.442622119321406
 20
-0.0314408680336431
 30
0.0
 40
1.4278086593752901
100
AcDbArc
 50
98.67325070417095
 51
122.12838298848916
  0
ARC
  5
83
330
17
100
AcDbEntity
  8
0
100
AcDbCircle
 10
46.8649154695368
 20
-2.5308703885643924
 30
0.0
 40
3.9634366881938004
100
AcDbArc
 50
89.71306095584582
 51
99.25954890526951
  0
LINE
  5
84
330
17
100
AcDbEntity
  8
0
100
AcDbLine
 10
46.8847650128286
 20
1.432761071335408
 30
0.0
 11
46.943359375
 21
1.432761071335408
 31
0.0
  0
LINE
  5
85
330
17
100
AcDbEntity
  8
0
100
AcDbLine
 10
46.943359375
 20
1.432761071335408
 30
0.0
 11
46.943359375
 21
2.3051569046687366
 31
0.0
  0
LINE
  5
86
330
17
100
AcDbEntity
  8
0
100
AcDbLine
 10
46.943359375
 20
2.3051569046687366
 30
0.0
 11
43.5774739583333
 21
2.3051569046687366
 31
0.0
  0
LINE
  5
87
330
17
100
AcDbEntity
  8
0
100
AcDbLine
 10
43.5774739583333
 20
2.3051569046687366
 30
0.0
 11
43.3040364583333
 21
0.6189589880020936
 31
0.0
  0
LINE
  5
88
330
17
100
AcDbEntity
  8
0
100
AcDbLine
 10
43.3040364583334
 20
0.6189589880020776
 30
0.0
 11
43.1998697916667
 21
0.6189589880020776
 31
0.0
  0
SPLINE
  5
89
330
17
100
AcDbEntity
  8
0
100
AcDbSpline
 70
0
 71
2
 72
6
 73
3
 74
0
 40
0.0
 40
0.0
 40
0.0
 40
1.0
 40
1.0
 40
1.0
 10
43.1998697916667
 20
0.6189589880020776
 30
0.0
 10
42.8743489583333
 20
1.198386071335408
 30
0.0
 10
42.5146484375
 20
1.569479821335408
 30
0.0
  0
SPLINE
  5
8A
330
17
100
AcDbEntity
  8
0
100
AcDbSpline
 70
0
 71
2
 72
6
 73
3
 74
0
 40
0.0
 40
0.0
 40
0.0
 40
1.0
 40
1.0
 40
1.0
 10
42.5146484375
 20
1.569479821335408
 30
0.0
 10
42.1549479166667
 20
1.940573571335408
 30
0.0
 10
41.7529296875
 20
2.1489069046687366
 30
0.0
  0
ARC
  5
8B
330
17
100
AcDbEntity
  8
0
100
AcDbCircle
 10
40.4224949409775
 20
-0.41989928152693246
 30
0.0
 40
2.8929383361687497
100
AcDbArc
 50
62.619481239008564
 51
80.53111569546957
  0
ARC
  5
8C
330
17
100
AcDbEntity
  8
0
100
AcDbCircle
 10
39.9692498140072
 20
-3.2124548954491026
 30
0.0
 40
5.72244070241972
100
AcDbArc
 50
80.65466509491291
 51
90.2461779957335
  0
SPLINE
  5
8D
330
17
100
AcDbEntity
  8
0
100
AcDbSpline
 70
0
 71
2
 72
6
 73
3
 74
0
 40
0.0
 40
0.0
 40
0.0
 40
1.0
 40
1.0
 40
1.0
 10
39.9446614583333
 20
2.5102350296687774
 30
0.0
 10
39.12109375
 20
2.5102350296687774
 30
0.0
 10
38.4749348958333
 20
2.2709772171687366
 30
0.0
  0
ARC
  5
8E
330
17
100
AcDbEntity
  8
0
100
AcDbCircle
 10
39.4180697380527
 20
-0.33701511509022186
 30
0.0
 40
2.77269460851087
100
AcDbArc
 50
109.88163827575431
 51
137.42937692076646
  0
SPLINE
  5
8F
330
17
100
AcDbEntity
  8
0
100
AcDbSpline
 70
0
 71
2
 72
6
 73
3
 74
0
 40
0.0
 40
0.0
 40
0.0
 40
1.0
 40
1.0
 40
1.0
 10
37.3763020833333
 20
1.5385553421687366
 30
0.0
 10
36.923828125
 20
1.045391279668749
 30
0.0
 10
36.6845703125
 20
0.2722793005020767
 30
0.0
  0
SPLINE
  5
90
330
17
100
AcDbEntity
  8
0
100
AcDbSpline
 70
0
 71
2
 72
6
 73
3
 74
0
 40
0.0
 40
0.0
 40
0.0
 40
1.0
 40
1.0
 40
1.0
 10
36.6845703125
 20
0.2722793005020767
 30
0.0
 10
36.4453125
 20
-0.5008326786645929
 30
0.0
 10
36.4453125
 20
-1.5685410119979224
 30
0.0
  0
LINE
  5
91
330
17
100
AcDbEntity
  8
0
100
AcDbLine
 10
36.4453125
 20
-1.5685410119979224
 30
0.0
 11
36.4453125
 21
-6.493671220331262
 31
0.0
  0
SPLINE
  5
92
330
17
100
AcDbEntity
  8
0
100
AcDbSpline
 70
0
 71
2
 72
6
 73
3
 74
0
 40
0.0
 40
0.0
 40
0.0
 40
1.0
 40
1.0
 40
1.0
 10
36.4453125
 20
-6.4936712203312625
 30
0.0
 10
36.4453125
 20
-6.981952470331257
 30
0.0
 10
36.3297526041667
 20
-7.276548824497924
 30
0.0
  0
SPLINE
  5
93
330
17
100
AcDbEntity
  8
0
100
AcDbSpline
 70
0
 71
2
 72
6
 73
3
 74
0
 40
0.0
 40
0.0
 40
0.0
 40
1.0
 40
1.0
 40
1.0
 10
36.3297526041667
 20
-7.276548824497924
 30
0.0
 10
36.2141927083333
 20
-7.57114517866459
 30
0.0
 10
35.9993489583334
 20
-7.729022782831257
 30
0.0
  0
ARC
  5
94
330
17
100
AcDbEntity
  8
0
100
AcDbCircle
 10
35.3111247433069
 20
-6.765707461049614
 30
0.0
 40
1.1845006057807401
100
AcDbArc
 50
278.676035316909
 51
305.5432637043854
  0
ARC
  5
95
330
17
100
AcDbEntity
  8
0
100
AcDbCircle
 10
34.875999238912
 20
-4.184366320327642
 30
0.0
 40
3.8032066809040304
100
AcDbArc
 50
269.6122717248665
 51
279.2901544798552
  0
LINE
  5
96
330
17
100
AcDbEntity
  8
0
100
AcDbLine
 10
34.8502615194761
 20
-7.987811845331256
 30
0.0
 11
34.7786458333334
 21
-7.987811845331256
 31
0.0
  0
LINE
  5
97
330
17
100
AcDbEntity
  8
0
100
AcDbLine
 10
34.7786458333334
 20
-7.987811845331257
 30
0.0
 11
34.7786458333334
 21
-8.863462886997922
 31
0.0
  0
LINE
  5
98
330
17
100
AcDbEntity
  8
0
100
AcDbLine
 10
34.7786458333334
 20
-8.863462886997922
 30
0.0
 11
38.4114583333333
 21
-8.863462886997922
 31
0.0
  0
LINE
  5
99
330
17
100
AcDbEntity
  8
0
100
AcDbLine
 10
38.4114583333333
 20
-8.863462886997922
 30
0.0
 11
38.4114583333333
 21
-1.672707678664593
 31
0.0
  0
SPLINE
  5
9A
330
17
100
AcDbEntity
  8
0
100
AcDbSpline
 70
0
 71
2
 72
6
 73
3
 74
0
 40
0.0
 40
0.0
 40
0.0
 40
1.0
 40
1.0
 40
1.0
 10
38.4114583333333
 20
-1.672707678664593
 30
0.0
 10
38.4114583333333
 20
-0.9891139286645929
 30
0.0
 10
38.5335286458333
 20
-0.4601425744979224
 30
0.0
  0
SPLINE
  5
9B
330
17
100
AcDbEntity
  8
0
100
AcDbSpline
 70
0
 71
2
 72
6
 73
3
 74
0
 40
0.0
 40
0.0
 40
0.0
 40
1.0
 40
1.0
 40
1.0
 10
38.5335286458333
 20
-0.4601425744979224
 30
0.0
 10
38.6555989583333
 20
0.06882877966874723
 30
0.0
 10
38.9241536458333
 20
0.435039717168749
 30
0.0
  0
ARC
  5
9C
330
17
100
AcDbEntity
  8
0
100
AcDbCircle
 10
40.267964185648594
 20
-0.5559051598888418
 30
0.0
 40
1.67001262278194
100
AcDbArc
 50
112.42864114186908
 51
143.594412361646
  0
SPLINE
  5
9D
330
17
100
AcDbEntity
  8
0
100
AcDbSpline
 70
0
 71
2
 72
6
 73
3
 74
0
 40
0.0
 40
0.0
 40
0.0
 40
1.0
 40
1.0
 40
1.0
 10
39.6305338541666
 20
0.988425133835408
 30
0.0
 10
40.068359375
 20
1.1755996130020776
 30
0.0
 10
40.6998697916667
 20
1.1755996130020776
 30
0.0
  0
SPLINE
  5
9E
330
17
100
AcDbEntity
  8
0
100
AcDbSpline
 70
0
 71
2
 72
6
 73
3
 74
0
 40
0.0
 40
0.0
 40
0.0
 40
1.0
 40
1.0
 40
1.0
 10
40.6998697916667
 20
1.1755996130020776
 30
0.0
 10
41.4095052083333
 20
1.1755996130020776
 30
0.0
 10
41.8929036458334
 20
0.9021621130020776
 30
0.0
  0
ARC
  5
9F
330
17
100
AcDbEntity
  8
0
100
AcDbCircle
 10
40.8308701949105
 20
-0.9941157344957325
 30
0.0
 40
2.1732371829002903
100
AcDbArc
 50
32.073688512583
 51
60.7484628545366
  0
SPLINE
  5
A0
330
17
100
AcDbEntity
  8
0
100
AcDbSpline
 70
0
 71
2
 72
6
 73
3
 74
0
 40
0.0
 40
0.0
 40
0.0
 40
1.0
 40
1.0
 40
1.0
 10
42.6725260416667
 20
0.1599746130020776
 30
0.0
 10
42.96875
 20
-0.3087753869979224
 30
0.0
 10
43.095703125
 20
-0.9191269494979224
 30
0.0
  0
ARC
  5
A1
330
17
100
AcDbEntity
  8
0
100
AcDbCircle
 10
36.9421369314244
 20
-2.171724936854292
 30
0.0
 40
6.2801631367612405
100
AcDbArc
 50
359.7415854737502
 51
371.5057291720598
  0
LINE
  5
A2
330
17
100
AcDbEntity
  8
0
100
AcDbLine
 10
43.22265625
 20
-2.2000504813920525
 30
0.0
 11
43.22265625
 21
-6.594582678664592
 31
0.0
  0
SPLINE
  5
A3
330
17
100
AcDbEntity
  8
0
100
AcDbSpline
 70
0
 71
2
 72
6
 73
3
 74
0
 40
0.0
 40
0.0
 40
0.0
 40
1.0
 40
1.0
 40
1.0
 10
43.22265625
 20
-6.594582678664592
 30
0.0
 10
43.22265625
 20
-7.05356705366459
 30
0.0
 10
43.0843098958333
 20
-7.333514970331257
 30
0.0
  0
SPLINE
  5
A4
330
17
100
AcDbEntity
  8
0
100
AcDbSpline
 70
0
 71
2
 72
6
 73
3
 74
0
 40
0.0
 40
0.0
 40
0.0
 40
1.0
 40
1.0
 40
1.0
 10
43.0843098958333
 20
-7.333514970331257
 30
0.0
 10
42.9459635416667
 20
-7.613462886997924
 30
0.0
 10
42.7132161458334
 20
-7.755064449497923
 30
0.0
  0
ARC
  5
A5
330
17
100
AcDbEntity
  8
0
100
AcDbCircle
 10
41.9864537171503
 20
-6.516210392184592
 30
0.0
 40
1.43699095566115
100
AcDbArc
 50
277.3184002470464
 51
300.39762834545274
  0
ARC
  5
A6
330
17
100
AcDbEntity
  8
0
100
AcDbCircle
 10
28.0938404890114
 20
-3.461167141718432
 30
0.0
 40
4.52648965285409
100
AcDbArc
 50
269.77636153532484
 51
278.1063928486929
  0
LINE
  5
A7
330
17
100
AcDbEntity
  8
0
100
AcDbLine
 10
28.0761722448945
 20
-7.987811845331256
 30
0.0
 11
28.0143229166667
 21
-7.987811845331256
 31
0.0
  0
LINE
  5
A8
330
17
100
AcDbEntity
  8
0
100
AcDbLine
 10
28.0143229166667
 20
-7.987811845331256
 30
0.0
 11
28.0143229166667
 21
-8.863462886997922
 31
0.0
  0
LINE
  5
A9
330
17
100
AcDbEntity
  8
0
100
AcDbLine
 10
28.0143229166667
 20
-8.863462886997922
 30
0.0
 11
33.6197916666667
 21
-8.863462886997922
 31
0.0
  0
LINE
  5
AA
330
17
100
AcDbEntity
  8
0
100
AcDbLine
 10
33.6197916666667
 20
-8.863462886997922
 30
0.0
 11
33.6197916666667
 21
-7.987811845331256
 31
0.0
  0
LINE
  5
AB
330
17
100
AcDbEntity
  8
0
100
AcDbLine
 10
33.6197916666667
 20
-7.987811845331256
 30
0.0
 11
33.447264715654605
 21
-7.987811845331256
 31
0.0
  0
ARC
  5
AC
330
17
100
AcDbEntity
  8
0
100
AcDbCircle
 10
33.422214380731205
 20
-3.830508975287452
 30
0.0
 40
4.15707652598819
100
AcDbArc
 50
261.11150360890224
 51
270.3452510535689
  0
ARC
  5
AD
330
17
100
AcDbEntity
  8
0
100
AcDbCircle
 10
32.9684914765399
 20
-6.640677487107667
 30
0.0
 40
1.3095994486961902
100
AcDbArc
 50
236.24739918649854
 51
261.72681392470054
  0
SPLINE
  5
AE
330
17
100
AcDbEntity
  8
0
100
AcDbSpline
 70
0
 71
2
 72
6
 73
3
 74
0
 40
0.0
 40
0.0
 40
0.0
 40
1.0
 40
1.0
 40
1.0
 10
32.2412109375
 20
-7.729022782831257
 30
0.0
 10
32.01171875
 20
-7.57114517866459
 30
0.0
 10
31.875
 20
-7.276548824497924
 30
0.0
  0
SPLINE
  5
AF
330
17
100
AcDbEntity
  8
0
100
AcDbSpline
 70
0
 71
2
 72
6
 73
3
 74
0
 40
0.0
 40
0.0
 40
0.0
 40
1.0
 40
1.0
 40
1.0
 10
31.875
 20
-7.276548824497924
 30
0.0
 10
31.73828125
 20
-6.981952470331257
 30
0.0
 10
31.73828125
 20
-6.4936712203312625
 30
0.0
  0
LINE
  5
B0
330
17
100
AcDbEntity
  8
0
100
AcDbLine
 10
31.73828125
 20
-6.4936712203312625
 30
0.0
 11
31.73828125
 21
0.006979821335407976
 31
0.0
  0
SPLINE
  5
B1
330
17
100
AcDbEntity
  8
0
100
AcDbSpline
 70
0
 71
2
 72
6
 73
3
 74
0
 40
0.0
 40
0.0
 40
0.0
 40
1.0
 40
1.0
 40
1.0
 10
31.73828125
 20
0.006979821335407976
 30
0.0
 10
31.73828125
 20
0.465964196335408
 30
0.0
 10
31.875
 20
0.7459121130020776
 30
0.0
  0
ARC
  5
B2
330
17
100
AcDbEntity
  8
0
100
AcDbCircle
 10
32.8242084948779
 20
0.30831159366794747
 30
0.0
 40
1.04433931695939
100
AcDbArc
 50
123.63659149244859
 51
155.24953158155438
  0
ARC
  5
B3
330
17
100
AcDbEntity
  8
0
100
AcDbCircle
 10
33.005122119319196
 20
-0.0314408680275422
 30
0.0
 40
1.42780865936884
100
AcDbArc
 50
98.67325070412441
 51
122.12838298854426
  0
ARC
  5
B4
330
17
100
AcDbEntity
  8
0
100
AcDbCircle
 10
33.427415469536896
 20
-2.530870388565532
 30
0.0
 40
3.9634366881949403
100
AcDbArc
 50
89.71306095584734
 51
99.25954890526984
  0
LINE
  5
B5
330
17
100
AcDbEntity
  8
0
100
AcDbLine
 10
33.4472650128286
 20
1.432761071335408
 30
0.0
 11
33.505859375
 21
1.432761071335408
 31
0.0
  0
LINE
  5
B6
330
17
100
AcDbEntity
  8
0
100
AcDbLine
 10
33.505859375
 20
1.432761071335408
 30
0.0
 11
33.505859375
 21
2.3051569046687366
 31
0.0
  0
LINE
  5
B7
330
17
100
AcDbEntity
  8
0
100
AcDbLine
 10
33.505859375
 20
2.3051569046687366
 30
0.0
 11
30.1399739583333
 21
2.3051569046687366
 31
0.0
  0
LINE
  5
B8
330
17
100
AcDbEntity
  8
0
100
AcDbLine
 10
30.139973958333396
 20
2.3051569046687206
 30
0.0
 11
29.8665364583334
 21
0.6189589880020616
 31
0.0
  0
LINE
  5
B9
330
17
100
AcDbEntity
  8
0
100
AcDbLine
 10
29.8665364583333
 20
0.6189589880020776
 30
0.0
 11
29.7623697916666
 21
0.6189589880020776
 31
0.0
  0
SPLINE
  5
BA
330
17
100
AcDbEntity
  8
0
100
AcDbSpline
 70
0
 71
2
 72
6
 73
3
 74
0
 40
0.0
 40
0.0
 40
0.0
 40
1.0
 40
1.0
 40
1.0
 10
29.7623697916666
 20
0.6189589880020776
 30
0.0
 10
29.4368489583333
 20
1.198386071335408
 30
0.0
 10
29.0771484375
 20
1.569479821335408
 30
0.0
  0
SPLINE
  5
BB
330
17
100
AcDbEntity
  8
0
100
AcDbSpline
 70
0
 71
2
 72
6
 73
3
 74
0
 40
0.0
 40
0.0
 40
0.0
 40
1.0
 40
1.0
 40
1.0
 10
29.0771484375
 20
1.569479821335408
 30
0.0
 10
28.7174479166667
 20
1.940573571335408
 30
0.0
 10
28.3154296875
 20
2.1489069046687366
 30
0.0
  0
ARC
  5
BC
330
17
100
AcDbEntity
  8
0
100
AcDbCircle
 10
26.9849949409775
 20
-0.41989928152696265
 30
0.0
 40
2.8929383361687804
100
AcDbArc
 50
62.619481239008834
 51
80.53111569546967
  0
ARC
  5
BD
330
17
100
AcDbEntity
  8
0
100
AcDbCircle
 10
26.5317498140073
 20
-3.2124548954486327
 30
0.0
 40
5.72244070241925
100
AcDbArc
 50
80.65466509491314
 51
90.24617799573453
  0
SPLINE
  5
BE
330
17
100
AcDbEntity
  8
0
100
AcDbSpline
 70
0
 71
2
 72
6
 73
3
 74
0
 40
0.0
 40
0.0
 40
0.0
 40
1.0
 40
1.0
 40
1.0
 10
26.5071614583333
 20
2.5102350296687774
 30
0.0
 10
25.68359375
 20
2.5102350296687774
 30
0.0
 10
25.0374348958334
 20
2.2709772171687366
 30
0.0
  0
ARC
  5
BF
330
17
100
AcDbEntity
  8
0
100
AcDbCircle
 10
25.980569738053
 20
-0.33701511509064197
 30
0.0
 40
2.7726946085113697
100
AcDbArc
 50
109.88163827575524
 51
137.42937692076424
  0
SPLINE
  5
C0
330
17
100
AcDbEntity
  8
0
100
AcDbSpline
 70
0
 71
2
 72
6
 73
3
 74
0
 40
0.0
 40
0.0
 40
0.0
 40
1.0
 40
1.0
 40
1.0
 10
23.9388020833333
 20
1.5385553421687366
 30
0.0
 10
23.486328125
 20
1.045391279668749
 30
0.0
 10
23.2470703125
 20
0.2722793005020767
 30
0.0
  0
SPLINE
  5
C1
330
17
100
AcDbEntity
  8
0
100
AcDbSpline
 70
0
 71
2
 72
6
 73
3
 74
0
 40
0.0
 40
0.0
 40
0.0
 40
1.0
 40
1.0
 40
1.0
 10
23.2470703125
 20
0.2722793005020767
 30
0.0
 10
23.0078125
 20
-0.5008326786645929
 30
0.0
 10
23.0078125
 20
-1.5685410119979224
 30
0.0
  0
LINE
  5
C2
330
17
100
AcDbEntity
  8
0
100
AcDbLine
 10
23.0078125
 20
-1.5685410119979224
 30
0.0
 11
23.0078125
 21
-6.493671220331262
 31
0.0
  0
SPLINE
  5
C3
330
17
100
AcDbEntity
  8
0
100
AcDbSpline
 70
0
 71
2
 72
6
 73
3
 74
0
 40
0.0
 40
0.0
 40
0.0
 40
1.0
 40
1.0
 40
1.0
 10
23.0078125
 20
-6.4936712203312625
 30
0.0
 10
23.0078125
 20
-6.981952470331257
 30
0.0
 10
22.8922526041666
 20
-7.276548824497924
 30
0.0
  0
SPLINE
  5
C4
330
17
100
AcDbEntity
  8
0
100
AcDbSpline
 70
0
 71
2
 72
6
 73
3
 74
0
 40
0.0
 40
0.0
 40
0.0
 40
1.0
 40
1.0
 40
1.0
 10
22.8922526041666
 20
-7.276548824497924
 30
0.0
 10
22.7766927083334
 20
-7.57114517866459
 30
0.0
 10
22.5618489583333
 20
-7.729022782831257
 30
0.0
  0
ARC
  5
C5
330
17
100
AcDbEntity
  8
0
100
AcDbCircle
 10
21.873624743306898
 20
-6.76570746104969
 30
0.0
 40
1.18450060578066
100
AcDbArc
 50
278.6760353169096
 51
305.5432637043836
  0
ARC
  5
C6
330
17
100
AcDbEntity
  8
0
100
AcDbCircle
 10
21.4384992389121
 20
-4.184366320328572
 30
0.0
 40
3.80320668090308
100
AcDbArc
 50
269.6122717248649
 51
279.290154479856
  0
LINE
  5
C7
330
17
100
AcDbEntity
  8
0
100
AcDbLine
 10
21.4127615194761
 20
-7.987811845331256
 30
0.0
 11
21.3411458333334
 21
-7.987811845331256
 31
0.0
  0
LINE
  5
C8
330
17
100
AcDbEntity
  8
0
100
AcDbLine
 10
21.3411458333334
 20
-7.987811845331257
 30
0.0
 11
21.3411458333334
 21
-8.863462886997922
 31
0.0
  0
LINE
  5
C9
330
17
100
AcDbEntity
  8
0
100
AcDbLine
 10
21.3411458333334
 20
-8.863462886997922
 30
0.0
 11
24.9739583333334
 21
-8.863462886997922
 31
0.0
  0
LINE
  5
CA
330
17
100
AcDbEntity
  8
0
100
AcDbLine
 10
24.9739583333334
 20
-8.863462886997922
 30
0.0
 11
24.9739583333334
 21
-1.672707678664593
 31
0.0
  0
SPLINE
  5
CB
330
17
100
AcDbEntity
  8
0
100
AcDbSpline
 70
0
 71
2
 72
6
 73
3
 74
0
 40
0.0
 40
0.0
 40
0.0
 40
1.0
 40
1.0
 40
1.0
 10
24.9739583333334
 20
-1.672707678664593
 30
0.0
 10
24.9739583333334
 20
-0.9891139286645929
 30
0.0
 10
25.0960286458334
 20
-0.4601425744979224
 30
0.0
  0
SPLINE
  5
CC
330
17
100
AcDbEntity
  8
0
100
AcDbSpline
 70
0
 71
2
 72
6
 73
3
 74
0
 40
0.0
 40
0.0
 40
0.0
 40
1.0
 40
1.0
 40
1.0
 10
25.0960286458334
 20
-0.4601425744979224
 30
0.0
 10
25.2180989583333
 20
0.06882877966874723
 30
0.0
 10
25.4866536458334
 20
0.435039717168749
 30
0.0
  0
ARC
  5
CD
330
17
100
AcDbEntity
  8
0
100
AcDbCircle
 10
26.8304641856439
 20
-0.5559051598834017
 30
0.0
 40
1.67001262277484
100
AcDbArc
 50
112.42864114178832
 51
143.59441236169863
  0
SPLINE
  5
CE
330
17
100
AcDbEntity
  8
0
100
AcDbSpline
 70
0
 71
2
 72
6
 73
3
 74
0
 40
0.0
 40
0.0
 40
0.0
 40
1.0
 40
1.0
 40
1.0
 10
26.1930338541667
 20
0.988425133835408
 30
0.0
 10
26.630859375
 20
1.1755996130020776
 30
0.0
 10
27.2623697916667
 20
1.1755996130020776
 30
0.0
  0
SPLINE
  5
CF
330
17
100
AcDbEntity
  8
0
100
AcDbSpline
 70
0
 71
2
 72
6
 73
3
 74
0
 40
0.0
 40
0.0
 40
0.0
 40
1.0
 40
1.0
 40
1.0
 10
27.2623697916667
 20
1.1755996130020776
 30
0.0
 10
27.9720052083334
 20
1.1755996130020776
 30
0.0
 10
28.4554036458334
 20
0.9021621130020776
 30
0.0
  0
ARC
  5
D0
330
17
100
AcDbEntity
  8
0
100
AcDbCircle
 10
27.3933701949103
 20
-0.9941157344959723
 30
0.0
 40
2.1732371829006203
100
AcDbArc
 50
32.07368851258552
 51
60.74846285453502
  0
SPLINE
  5
D1
330
17
100
AcDbEntity
  8
0
100
AcDbSpline
 70
0
 71
2
 72
6
 73
3
 74
0
 40
0.0
 40
0.0
 40
0.0
 40
1.0
 40
1.0
 40
1.0
 10
29.2350260416667
 20
0.1599746130020776
 30
0.0
 10
29.53125
 20
-0.3087753869979224
 30
0.0
 10
29.658203125
 20
-0.9191269494979224
 30
0.0
  0
ARC
  5
D2
330
17
100
AcDbEntity
  8
0
100
AcDbCircle
 10
23.5046369314247
 20
-2.171724936854332
 30
0.0
 40
6.28016313676098
100
AcDbArc
 50
359.7415854737506
 51
371.5057291720607
  0
LINE
  5
D3
330
17
100
AcDbEntity
  8
0
100
AcDbLine
 10
29.78515625
 20
-2.2000504813920525
 30
0.0
 11
29.78515625
 21
-6.594582678664592
 31
0.0
  0
SPLINE
  5
D4
330
17
100
AcDbEntity
  8
0
100
AcDbSpline
 70
0
 71
2
 72
6
 73
3
 74
0
 40
0.0
 40
0.0
 40
0.0
 40
1.0
 40
1.0
 40
1.0
 10
29.78515625
 20
-6.594582678664592
 30
0.0
 10
29.78515625
 20
-7.05356705366459
 30
0.0
 10
29.6468098958334
 20
-7.333514970331257
 30
0.0
  0
SPLINE
  5
D5
330
17
100
AcDbEntity
  8
0
100
AcDbSpline
 70
0
 71
2
 72
6
 73
3
 74
0
 40
0.0
 40
0.0
 40
0.0
 40
1.0
 40
1.0
 40
1.0
 10
29.6468098958334
 20
-7.333514970331257
 30
0.0
 10
29.5084635416666
 20
-7.613462886997924
 30
0.0
 10
29.2757161458334
 20
-7.755064449497923
 30
0.0
  0
ARC
  5
D6
330
17
100
AcDbEntity
  8
0
100
AcDbCircle
 10
28.5489537171503
 20
-6.516210392184592
 30
0.0
 40
1.43699095566114
100
AcDbArc
 50
277.3184002470462
 51
300.39762834545263
  0
LINE
  5
D7
330
17
100
AcDbEntity
  8
0
100
AcDbLine
 10
-47.2005204634387
 20
-7.987811845331256
 30
0.0
 11
-47.2623697916667
 21
-7.987811845331256
 31
0.0
  0
LINE
  5
D8
330
17
100
AcDbEntity
  8
0
100
AcDbLine
 10
-47.2623697916667
 20
-7.987811845331256
 30
0.0
 11
-47.2623697916667
 21
-8.863462886997922
 31
0.0
  0
LINE
  5
D9
330
17
100
AcDbEntity
  8
0
100
AcDbLine
 10
-47.2623697916667
 20
-8.863462886997922
 30
0.0
 11
-41.6569010416667
 21
-8.863462886997922
 31
0.0
  0
LINE
  5
DA
330
17
100
AcDbEntity
  8
0
100
AcDbLine
 10
-41.6569010416667
 20
-8.863462886997922
 30
0.0
 11
-41.6569010416667
 21
-7.987811845331256
 31
0.0
  0
LINE
  5
DB
330
17
100
AcDbEntity
  8
0
100
AcDbLine
 10
-41.6569010416667
 20
-7.987811845331256
 30
0.0
 11
-41.829427992678696
 21
-7.987811845331256
 31
0.0
  0
ARC
  5
DC
330
17
100
AcDbEntity
  8
0
100
AcDbCircle
 10
-41.854478327602
 20
-3.830508975287322
 30
0.0
 40
4.15707652598832
100
AcDbArc
 50
261.1115036089013
 51
270.3452510535676
  0
ARC
  5
DD
330
17
100
AcDbEntity
  8
0
100
AcDbCircle
 10
-42.3082012317935
 20
-6.640677487107727
 30
0.0
 40
1.30959944869612
100
AcDbArc
 50
236.24739918650073
 51
261.7268139247044
  0
SPLINE
  5
DE
330
17
100
AcDbEntity
  8
0
100
AcDbSpline
 70
0
 71
2
 72
6
 73
3
 74
0
 40
0.0
 40
0.0
 40
0.0
 40
1.0
 40
1.0
 40
1.0
 10
-43.0354817708333
 20
-7.729022782831257
 30
0.0
 10
-43.2649739583333
 20
-7.57114517866459
 30
0.0
 10
-43.4016927083333
 20
-7.276548824497924
 30
0.0
  0
SPLINE
  5
DF
330
17
100
AcDbEntity
  8
0
100
AcDbSpline
 70
0
 71
2
 72
6
 73
3
 74
0
 40
0.0
 40
0.0
 40
0.0
 40
1.0
 40
1.0
 40
1.0
 10
-43.4016927083333
 20
-7.276548824497924
 30
0.0
 10
-43.5384114583333
 20
-6.981952470331257
 30
0.0
 10
-43.5384114583333
 20
-6.4936712203312625
 30
0.0
  0
LINE
  5
E0
330
17
100
AcDbEntity
  8
0
100
AcDbLine
 10
-43.5384114583333
 20
-6.4936712203312625
 30
0.0
 11
-43.5384114583333
 21
0.006979821335407976
 31
0.0
  0
SPLINE
  5
E1
330
17
100
AcDbEntity
  8
0
100
AcDbSpline
 70
0
 71
2
 72
6
 73
3
 74
0
 40
0.0
 40
0.0
 40
0.0
 40
1.0
 40
1.0
 40
1.0
 10
-43.5384114583333
 20
0.006979821335407976
 30
0.0
 10
-43.5384114583333
 20
0.465964196335408
 30
0.0
 10
-43.4016927083333
 20
0.7459121130020776
 30
0.0
  0
ARC
  5
E2
330
17
100
AcDbEntity
  8
0
100
AcDbCircle
 10
-42.4524842134554
 20
0.3083115936679679
 30
0.0
 40
1.0443393169594402
100
AcDbArc
 50
123.6365914924492
 51
155.24953158155546
  0
ARC
  5
E3
330
17
100
AcDbEntity
  8
0
100
AcDbCircle
 10
-42.271570589015994
 20
-0.031440868025492286
 30
0.0
 40
1.42780865936629
100
AcDbArc
 50
98.67325070406258
 51
122.12838298852375
  0
ARC
  5
E4
330
17
100
AcDbEntity
  8
0
100
AcDbCircle
 10
-41.8492772387964
 20
-2.530870388565412
 30
0.0
 40
3.9634366881948195
100
AcDbArc
 50
89.71306095584744
 51
99.25954890527045
  0
LINE
  5
E5
330
17
100
AcDbEntity
  8
0
100
AcDbLine
 10
-41.8294276955047
 20
1.432761071335408
 30
0.0
 11
-41.7708333333333
 21
1.432761071335408
 31
0.0
  0
LINE
  5
E6
330
17
100
AcDbEntity
  8
0
100
AcDbLine
 10
-41.7708333333333
 20
1.432761071335408
 30
0.0
 11
-41.7708333333333
 21
2.3051569046687366
 31
0.0
  0
LINE
  5
E7
330
17
100
AcDbEntity
  8
0
100
AcDbLine
 10
-41.7708333333333
 20
2.3051569046687366
 30
0.0
 11
-45.13671875
 21
2.3051569046687366
 31
0.0
  0
LINE
  5
E8
330
17
100
AcDbEntity
  8
0
100
AcDbLine
 10
-45.13671875
 20
2.3051569046687366
 30
0.0
 11
-45.41015625
 21
0.6189589880020776
 31
0.0
  0
LINE
  5
E9
330
17
100
AcDbEntity
  8
0
100
AcDbLine
 10
-45.41015625
 20
0.6189589880020776
 30
0.0
 11
-45.5143229166667
 21
0.6189589880020776
 31
0.0
  0
SPLINE
  5
EA
330
17
100
AcDbEntity
  8
0
100
AcDbSpline
 70
0
 71
2
 72
6
 73
3
 74
0
 40
0.0
 40
0.0
 40
0.0
 40
1.0
 40
1.0
 40
1.0
 10
-45.5143229166667
 20
0.6189589880020776
 30
0.0
 10
-45.83984375
 20
1.198386071335408
 30
0.0
 10
-46.1995442708333
 20
1.569479821335408
 30
0.0
  0
SPLINE
  5
EB
330
17
100
AcDbEntity
  8
0
100
AcDbSpline
 70
0
 71
2
 72
6
 73
3
 74
0
 40
0.0
 40
0.0
 40
0.0
 40
1.0
 40
1.0
 40
1.0
 10
-46.1995442708333
 20
1.569479821335408
 30
0.0
 10
-46.5592447916667
 20
1.940573571335408
 30
0.0
 10
-46.9612630208333
 20
2.1489069046687366
 30
0.0
  0
ARC
  5
EC
330
17
100
AcDbEntity
  8
0
100
AcDbCircle
 10
-48.291697767356
 20
-0.41989928152756306
 30
0.0
 40
2.8929383361694097
100
AcDbArc
 50
62.6194812390108
 51
80.53111569546778
  0
ARC
  5
ED
330
17
100
AcDbEntity
  8
0
100
AcDbCircle
 10
-48.7449428943261
 20
-3.2124548954497625
 30
0.0
 40
5.72244070242038
100
AcDbArc
 50
80.654665094914
 51
90.24617799573345
  0
SPLINE
  5
EE
330
17
100
AcDbEntity
  8
0
100
AcDbSpline
 70
0
 71
2
 72
6
 73
3
 74
0
 40
0.0
 40
0.0
 40
0.0
 40
1.0
 40
1.0
 40
1.0
 10
-48.76953125
 20
2.5102350296687774
 30
0.0
 10
-49.5930989583333
 20
2.5102350296687774
 30
0.0
 10
-50.2392578125
 20
2.2709772171687366
 30
0.0
  0
ARC
  5
EF
330
17
100
AcDbEntity
  8
0
100
AcDbCircle
 10
-49.2961229702807
 20
-0.33701511509025295
 30
0.0
 40
2.77269460851092
100
AcDbArc
 50
109.88163827575215
 51
137.42937692076467
  0
SPLINE
  5
F0
330
17
100
AcDbEntity
  8
0
100
AcDbSpline
 70
0
 71
2
 72
6
 73
3
 74
0
 40
0.0
 40
0.0
 40
0.0
 40
1.0
 40
1.0
 40
1.0
 10
-51.337890625
 20
1.5385553421687366
 30
0.0
 10
-51.7903645833333
 20
1.045391279668749
 30
0.0
 10
-52.0296223958333
 20
0.2722793005020767
 30
0.0
  0
SPLINE
  5
F1
330
17
100
AcDbEntity
  8
0
100
AcDbSpline
 70
0
 71
2
 72
6
 73
3
 74
0
 40
0.0
 40
0.0
 40
0.0
 40
1.0
 40
1.0
 40
1.0
 10
-52.0296223958333
 20
0.2722793005020767
 30
0.0
 10
-52.2688802083333
 20
-0.5008326786645929
 30
0.0
 10
-52.2688802083333
 20
-1.5685410119979224
 30
0.0
  0
LINE
  5
F2
330
17
100
AcDbEntity
  8
0
100
AcDbLine
 10
-52.2688802083333
 20
-1.5685410119979224
 30
0.0
 11
-52.2688802083333
 21
-6.493671220331262
 31
0.0
  0
SPLINE
  5
F3
330
17
100
AcDbEntity
  8
0
100
AcDbSpline
 70
0
 71
2
 72
6
 73
3
 74
0
 40
0.0
 40
0.0
 40
0.0
 40
1.0
 40
1.0
 40
1.0
 10
-52.2688802083333
 20
-6.4936712203312625
 30
0.0
 10
-52.2688802083333
 20
-6.981952470331257
 30
0.0
 10
-52.3844401041667
 20
-7.276548824497924
 30
0.0
  0
SPLINE
  5
F4
330
17
100
AcDbEntity
  8
0
100
AcDbSpline
 70
0
 71
2
 72
6
 73
3
 74
0
 40
0.0
 40
0.0
 40
0.0
 40
1.0
 40
1.0
 40
1.0
 10
-52.3844401041667
 20
-7.276548824497924
 30
0.0
 10
-52.5
 20
-7.57114517866459
 30
0.0
 10
-52.71484375
 20
-7.729022782831257
 30
0.0
  0
ARC
  5
F5
330
17
100
AcDbEntity
  8
0
100
AcDbCircle
 10
-53.4030679650265
 20
-6.765707461049614
 30
0.0
 40
1.1845006057807401
100
AcDbArc
 50
278.676035316909
 51
305.5432637043854
  0
ARC
  5
F6
330
17
100
AcDbEntity
  8
0
100
AcDbCircle
 10
-53.8381934694213
 20
-4.1843663203281425
 30
0.0
 40
3.80320668090352
100
AcDbArc
 50
269.61227172486645
 51
279.29015447985495
  0
LINE
  5
F7
330
17
100
AcDbEntity
  8
0
100
AcDbLine
 10
-53.8639311888572
 20
-7.987811845331256
 30
0.0
 11
-53.935546875
 21
-7.987811845331256
 31
0.0
  0
LINE
  5
F8
330
17
100
AcDbEntity
  8
0
100
AcDbLine
 10
-53.935546875
 20
-7.987811845331257
 30
0.0
 11
-53.935546875
 21
-8.863462886997922
 31
0.0
  0
LINE
  5
F9
330
17
100
AcDbEntity
  8
0
100
AcDbLine
 10
-53.935546875
 20
-8.863462886997922
 30
0.0
 11
-50.302734375
 21
-8.863462886997922
 31
0.0
  0
LINE
  5
FA
330
17
100
AcDbEntity
  8
0
100
AcDbLine
 10
-50.302734375
 20
-8.863462886997922
 30
0.0
 11
-50.302734375
 21
-1.672707678664593
 31
0.0
  0
SPLINE
  5
FB
330
17
100
AcDbEntity
  8
0
100
AcDbSpline
 70
0
 71
2
 72
6
 73
3
 74
0
 40
0.0
 40
0.0
 40
0.0
 40
1.0
 40
1.0
 40
1.0
 10
-50.302734375
 20
-1.672707678664593
 30
0.0
 10
-50.302734375
 20
-0.9891139286645929
 30
0.0
 10
-50.1806640625
 20
-0.4601425744979224
 30
0.0
  0
SPLINE
  5
FC
330
17
100
AcDbEntity
  8
0
100
AcDbSpline
 70
0
 71
2
 72
6
 73
3
 74
0
 40
0.0
 40
0.0
 40
0.0
 40
1.0
 40
1.0
 40
1.0
 10
-50.1806640625
 20
-0.4601425744979224
 30
0.0
 10
-50.05859375
 20
0.06882877966874723
 30
0.0
 10
-49.7900390625
 20
0.435039717168749
 30
0.0
  0
ARC
  5
FD
330
17
100
AcDbEntity
  8
0
100
AcDbCircle
 10
-48.4462285226848
 20
-0.5559051598888525
 30
0.0
 40
1.67001262278194
100
AcDbArc
 50
112.42864114186601
 51
143.59441236164383
  0
SPLINE
  5
FE
330
17
100
AcDbEntity
  8
0
100
AcDbSpline
 70
0
 71
2
 72
6
 73
3
 74
0
 40
0.0
 40
0.0
 40
0.0
 40
1.0
 40
1.0
 40
1.0
 10
-49.0836588541667
 20
0.988425133835408
 30
0.0
 10
-48.6458333333333
 20
1.1755996130020776
 30
0.0
 10
-48.0143229166667
 20
1.1755996130020776
 30
0.0
  0
SPLINE
  5
FF
330
17
100
AcDbEntity
  8
0
100
AcDbSpline
 70
0
 71
2
 72
6
 73
3
 74
0
 40
0.0
 40
0.0
 40
0.0
 40
1.0
 40
1.0
 40
1.0
 10
-48.0143229166667
 20
1.1755996130020776
 30
0.0
 10
-47.3046875
 20
1.1755996130020776
 30
0.0
 10
-46.8212890625
 20
0.9021621130020776
 30
0.0
  0
ARC
  5
100
330
17
100
AcDbEntity
  8
0
100
AcDbCircle
 10
-47.8833225134231
 20
-0.9941157344960025
 30
0.0
 40
2.17323718290065
100
AcDbArc
 50
32.073688512586145
 51
60.7484628545353
  0
SPLINE
  5
101
330
17
100
AcDbEntity
  8
0
100
AcDbSpline
 70
0
 71
2
 72
6
 73
3
 74
0
 40
0.0
 40
0.0
 40
0.0
 40
1.0
 40
1.0
 40
1.0
 10
-46.0416666666667
 20
0.1599746130020776
 30
0.0
 10
-45.7454427083333
 20
-0.3087753869979224
 30
0.0
 10
-45.6184895833333
 20
-0.9191269494979224
 30
0.0
  0
ARC
  5
102
330
17
100
AcDbEntity
  8
0
100
AcDbCircle
 10
-51.7720557769084
 20
-2.171724936854292
 30
0.0
 40
6.280163136760811
100
AcDbArc
 50
359.7415854737502
 51
371.5057291720607
  0
LINE
  5
103
330
17
100
AcDbEntity
  8
0
100
AcDbLine
 10
-45.4915364583333
 20
-2.2000504813920525
 30
0.0
 11
-45.4915364583333
 21
-6.594582678664592
 31
0.0
  0
SPLINE
  5
104
330
17
100
AcDbEntity
  8
0
100
AcDbSpline
 70
0
 71
2
 72
6
 73
3
 74
0
 40
0.0
 40
0.0
 40
0.0
 40
1.0
 40
1.0
 40
1.0
 10
-45.4915364583333
 20
-6.594582678664592
 30
0.0
 10
-45.4915364583333
 20
-7.05356705366459
 30
0.0
 10
-45.6298828125
 20
-7.333514970331257
 30
0.0
  0
SPLINE
  5
105
330
17
100
AcDbEntity
  8
0
100
AcDbSpline
 70
0
 71
2
 72
6
 73
3
 74
0
 40
0.0
 40
0.0
 40
0.0
 40
1.0
 40
1.0
 40
1.0
 10
-45.6298828125
 20
-7.333514970331257
 30
0.0
 10
-45.7682291666667
 20
-7.613462886997924
 30
0.0
 10
-46.0009765625
 20
-7.755064449497923
 30
0.0
  0
ARC
  5
106
330
17
100
AcDbEntity
  8
0
100
AcDbCircle
 10
-46.727738991182896
 20
-6.516210392184902
 30
0.0
 40
1.43699095566083
100
AcDbArc
 50
277.31840024703297
 51
300.397628345452
  0
ARC
  5
107
330
17
100
AcDbEntity
  8
0
100
AcDbCircle
 10
-47.1828522181795
 20
-3.461167158224182
 30
0.0
 40
4.52648963632495
100
AcDbArc
 50
269.77636152004993
 51
278.1063928638387
  0
ARC
  5
108
330
17
100
AcDbEntity
  8
0
100
AcDbCircle
 10
8.55365259683822
 20
-0.9394392142944428
 30
0.0
 40
2.3718360450717304
100
AcDbArc
 50
89.03161920096971
 51
101.89874319864475
  0
LINE
  5
109
330
17
100
AcDbEntity
  8
0
100
AcDbLine
 10
8.59374405858045
 20
1.432761071335408
 30
0.0
 11
8.655598958333341
 21
1.432761071335408
 31
0.0
  0
LINE
  5
10A
330
17
100
AcDbEntity
  8
0
100
AcDbLine
 10
8.655598958333341
 20
1.432761071335408
 30
0.0
 11
8.655598958333341
 21
2.3051569046687366
 31
0.0
  0
LINE
  5
10B
330
17
100
AcDbEntity
  8
0
100
AcDbLine
 10
8.655598958333341
 20
2.3051569046687366
 30
0.0
 11
3.4472656250000098
 21
2.3051569046687366
 31
0.0
  0
LINE
  5
10C
330
17
100
AcDbEntity
  8
0
100
AcDbLine
 10
3.4472656250000098
 20
2.3051569046687366
 30
0.0
 11
3.4472656250000098
 21
1.432761071335408
 31
0.0
  0
LINE
  5
10D
330
17
100
AcDbEntity
  8
0
100
AcDbLine
 10
3.4472656250000098
 20
1.432761071335408
 30
0.0
 11
3.7109375000000098
 21
1.432761071335408
 31
0.0
  0
SPLINE
  5
10E
330
17
100
AcDbEntity
  8
0
100
AcDbSpline
 70
0
 71
2
 72
6
 73
3
 74
0
 40
0.0
 40
0.0
 40
0.0
 40
1.0
 40
1.0
 40
1.0
 10
3.7109375000000098
 20
1.432761071335408
 30
0.0
 10
4.34244791666668
 20
1.432761071335408
 30
0.0
 10
4.65332031250001
 20
1.188620446335408
 30
0.0
  0
SPLINE
  5
10F
330
17
100
AcDbEntity
  8
0
100
AcDbSpline
 70
0
 71
2
 72
6
 73
3
 74
0
 40
0.0
 40
0.0
 40
0.0
 40
1.0
 40
1.0
 40
1.0
 10
4.65332031250001
 20
1.188620446335408
 30
0.0
 10
4.96419270833334
 20
0.944479821335408
 30
0.0
 10
4.96419270833334
 20
0.4236464880020776
 30
0.0
  0
ARC
  5
110
330
17
100
AcDbEntity
  8
0
100
AcDbCircle
 10
3.4023359336877097
 20
0.4287396085662376
 30
0.0
 40
1.56195217554819
100
AcDbArc
 50
346.86273000618803
 51
359.81316258746415
  0
ARC
  5
111
330
17
100
AcDbEntity
  8
0
100
AcDbCircle
 10
0.9751770620455771
 20
1.026046321127268
 30
0.0
 40
4.06186843169921
100
AcDbArc
 50
340.37807049930905
 51
346.43928000422727
  0
LINE
  5
112
330
17
100
AcDbEntity
  8
0
100
AcDbLine
 10
4.801432166261402
 20
-0.33807261082636675
 30
0.0
 11
3.3854165998369683
 21
-4.276874531225374
 31
0.0
  0
ARC
  5
113
330
17
100
AcDbEntity
  8
0
100
AcDbCircle
 10
30.3162484175391
 20
-13.841558336766422
 30
0.0
 40
28.5789911860845
100
AcDbArc
 50
160.44712941646804
 51
162.1559878338544
  0
ARC
  5
114
330
17
100
AcDbEntity
  8
0
100
AcDbCircle
 10
39.9064886471274
 20
-17.000533148394382
 30
0.0
 40
38.676015494722904
100
AcDbArc
 50
162.0547981228023
 51
163.40317730156698
  0
ARC
  5
115
330
17
100
AcDbEntity
  8
0
100
AcDbCircle
 10
32.3333262536786
 20
-14.761446017227023
 30
0.0
 40
30.778729903158602
100
AcDbArc
 50
163.37086341812852
 51
164.936180993243
  0
ARC
  5
116
330
17
100
AcDbEntity
  8
0
100
AcDbCircle
 10
8.41961509220887
 20
-8.384758034928804
 30
0.0
 40
6.02915562709169
100
AcDbArc
 50
164.38993023324022
 51
170.6803675310949
  0
LINE
  5
117
330
17
100
AcDbEntity
  8
0
100
AcDbLine
 10
2.47004260272716
 20
-7.408384761997924
 30
0.0
 11
2.3996742232609702
 21
-7.408384761997924
 31
0.0
  0
ARC
  5
118
330
17
100
AcDbEntity
  8
0
100
AcDbCircle
 10
-3.0519314221174696
 20
-8.762702557129652
 30
0.0
 40
5.61731081594499
100
AcDbArc
 50
13.95130583403543
 51
19.869068440338346
  0
ARC
  5
119
330
17
100
AcDbEntity
  8
0
100
AcDbCircle
 10
-25.924527738122297
 20
-16.74708112308244
 30
0.0
 40
29.8437408876021
100
AcDbArc
 50
19.360928206338784
 51
20.834901629974652
  0
ARC
  5
11A
330
17
100
AcDbEntity
  8
0
100
AcDbCircle
 10
-101.75897419369299
 20
-45.47202737170472
 30
0.0
 40
110.93623775533699
100
AcDbArc
 50
20.76986712465684
 51
21.211047050578014
  0
ARC
  5
11B
330
17
100
AcDbEntity
  8
0
100
AcDbCircle
 10
105.263154810472
 20
34.88219268307547
 30
0.0
 40
111.133476727357
100
AcDbArc
 50
200.7824836312769
 51
201.21571120233986
  0
LINE
  5
11C
330
17
100
AcDbEntity
  8
0
100
AcDbLine
 10
1.3606771017126156
 20
-4.550311895263636
 30
0.0
 11
-0.13346505840966816
 21
-0.49106293301419335
 31
0.0
  0
ARC
  5
11D
330
17
100
AcDbEntity
  8
0
100
AcDbCircle
 10
2.4147535179178004
 20
0.5425758126982778
 30
0.0
 40
2.74960884087489
100
AcDbArc
 50
191.44109382378508
 51
202.0791355791349
  0
ARC
  5
11E
330
17
100
AcDbEntity
  8
0
100
AcDbCircle
 10
1.87105523092846
 20
0.44982229204764757
 30
0.0
 40
2.19760920436867
100
AcDbArc
 50
181.1920567926006
 51
191.88261970361938
  0
SPLINE
  5
11F
330
17
100
AcDbEntity
  8
0
100
AcDbSpline
 70
0
 71
2
 72
6
 73
3
 74
0
 40
0.0
 40
0.0
 40
0.0
 40
1.0
 40
1.0
 40
1.0
 10
-0.325520833333329
 20
0.4041152380020776
 30
0.0
 10
-0.325520833333329
 20
0.944479821335408
 30
0.0
 10
0.014648437500007501
 20
1.188620446335408
 30
0.0
  0
SPLINE
  5
120
330
17
100
AcDbEntity
  8
0
100
AcDbSpline
 70
0
 71
2
 72
6
 73
3
 74
0
 40
0.0
 40
0.0
 40
0.0
 40
1.0
 40
1.0
 40
1.0
 10
0.014648437500007501
 20
1.188620446335408
 30
0.0
 10
0.354817708333343
 20
1.432761071335408
 30
0.0
 10
1.04492187500001
 20
1.432761071335408
 30
0.0
  0
LINE
  5
121
330
17
100
AcDbEntity
  8
0
100
AcDbLine
 10
1.04492187500001
 20
1.432761071335408
 30
0.0
 11
1.19791666666667
 21
1.432761071335408
 31
0.0
  0
LINE
  5
122
330
17
100
AcDbEntity
  8
0
100
AcDbLine
 10
1.19791666666667
 20
1.432761071335408
 30
0.0
 11
1.19791666666667
 21
2.3051569046687366
 31
0.0
  0
LINE
  5
123
330
17
100
AcDbEntity
  8
0
100
AcDbLine
 10
1.1979166666666698
 20
2.3051569046687366
 30
0.0
 11
-3.26822916666665
 21
2.3051569046687366
 31
0.0
  0
LINE
  5
124
330
17
100
AcDbEntity
  8
0
100
AcDbLine
 10
-3.26822916666665
 20
2.3051569046687366
 30
0.0
 11
-3.26822916666665
 21
1.432761071335408
 31
0.0
  0
LINE
  5
125
330
17
100
AcDbEntity
  8
0
100
AcDbLine
 10
-3.26822916666665
 20
1.432761071335408
 30
0.0
 11
-3.01106770833333
 21
1.432761071335408
 31
0.0
  0
SPLINE
  5
126
330
17
100
AcDbEntity
  8
0
100
AcDbSpline
 70
0
 71
2
 72
6
 73
3
 74
0
 40
0.0
 40
0.0
 40
0.0
 40
1.0
 40
1.0
 40
1.0
 10
-3.01106770833333
 20
1.432761071335408
 30
0.0
 10
-2.70833333333332
 20
1.432761071335408
 30
0.0
 10
-2.4934895833333304
 20
1.3660293005020776
 30
0.0
  0
ARC
  5
127
330
17
100
AcDbEntity
  8
0
100
AcDbCircle
 10
-2.76978701361901
 20
0.518759537823037
 30
0.0
 40
0.891730413707717
100
AcDbArc
 50
41.95467688255952
 51
71.93868381527568
  0
SPLINE
  5
128
330
17
100
AcDbEntity
  8
0
100
AcDbSpline
 70
0
 71
2
 72
6
 73
3
 74
0
 40
0.0
 40
0.0
 40
0.0
 40
1.0
 40
1.0
 40
1.0
 10
-2.10611979166666
 20
1.115378258835408
 30
0.0
 10
-1.93359374999999
 20
0.9314589880020776
 30
0.0
 10
-1.7757161458333302
 20
0.6173313838354062
 30
0.0
  0
ARC
  5
129
330
17
100
AcDbEntity
  8
0
100
AcDbCircle
 10
-10.347539926490901
 20
-3.5404889770139327
 30
0.0
 40
9.52777469473096
100
AcDbArc
 50
20.555968523989794
 51
25.876014135046137
  0
LINE
  5
12A
330
17
100
AcDbEntity
  8
0
100
AcDbLine
 10
-1.4257816508086714
 20
-0.19484203749825824
 30
0.0
 11
1.8587239583333404
 21
-8.863462886997922
 31
0.0
  0
LINE
  5
12B
330
17
100
AcDbEntity
  8
0
100
AcDbLine
 10
1.8587239583333401
 20
-8.863462886997922
 30
0.0
 11
3.76302083333333
 21
-8.863462886997922
 31
0.0
  0
LINE
  5
12C
330
17
100
AcDbEntity
  8
0
100
AcDbLine
 10
3.763020833333333
 20
-8.863462886997922
 30
0.0
 11
7.109375000000002
 21
0.32273502966874723
 31
0.0
  0
SPLINE
  5
12D
330
17
100
AcDbEntity
  8
0
100
AcDbSpline
 70
0
 71
2
 72
6
 73
3
 74
0
 40
0.0
 40
0.0
 40
0.0
 40
1.0
 40
1.0
 40
1.0
 10
7.109375
 20
0.3227350296687481
 30
0.0
 10
7.22981770833334
 20
0.6482558630020776
 30
0.0
 10
7.36328125000001
 20
0.8614720088354062
 30
0.0
  0
ARC
  5
12E
330
17
100
AcDbEntity
  8
0
100
AcDbCircle
 10
8.40825148078444
 20
0.23354275170976724
 30
0.0
 40
1.21850466536537
100
AcDbArc
 50
127.35551832778174
 51
148.99807449200068
  0
ARC
  5
12F
330
17
100
AcDbEntity
  8
0
100
AcDbCircle
 10
8.29769055913232
 20
0.3366773300473582
 30
0.0
 40
1.06937191910667
100
AcDbArc
 50
102.57624092572074
 51
125.99964138789005
  0
ARC
  5
130
330
17
100
AcDbEntity
  8
0
100
AcDbCircle
 10
-20.6124615489283
 20
-2.541699320054782
 30
0.0
 40
5.4263612157893
100
AcDbArc
 50
263.0273280740082
 51
270.34878535513184
  0
SPLINE
  5
131
330
17
100
AcDbEntity
  8
0
100
AcDbSpline
 70
0
 71
2
 72
6
 73
3
 74
0
 40
0.0
 40
0.0
 40
0.0
 40
1.0
 40
1.0
 40
1.0
 10
-19.423828125
 20
-7.470233720331257
 30
0.0
 10
-19.8567708333333
 20
-7.968280595331256
 30
0.0
 10
-20.5794270833334
 20
-7.968280595331256
 30
0.0
  0
SPLINE
  5
132
330
17
100
AcDbEntity
  8
0
100
AcDbSpline
 70
0
 71
2
 72
6
 73
3
 74
0
 40
0.0
 40
0.0
 40
0.0
 40
1.0
 40
1.0
 40
1.0
 10
-18.9908854166667
 20
-5.904478511997922
 30
0.0
 10
-18.9908854166667
 20
-6.972186845331257
 30
0.0
 10
-19.423828125
 20
-7.470233720331257
 30
0.0
  0
LINE
  5
133
330
17
100
AcDbEntity
  8
0
100
AcDbLine
 10
-18.9908854166667
 20
-5.904478511997922
 30
0.0
 11
-18.9908854166667
 21
1.1170058630020776
 31
0.0
  0
LINE
  5
134
330
17
100
AcDbEntity
  8
0
100
AcDbLine
 10
-18.9908854166667
 20
1.1170058630020776
 30
0.0
 11
-21.71875
 21
1.1170058630020776
 31
0.0
  0
LINE
  5
135
330
17
100
AcDbEntity
  8
0
100
AcDbLine
 10
-21.71875
 20
1.1170058630020776
 30
0.0
 11
-21.71875
 21
2.3051569046687366
 31
0.0
  0
LINE
  5
136
330
17
100
AcDbEntity
  8
0
100
AcDbLine
 10
-21.71875
 20
2.3051569046687366
 30
0.0
 11
-18.9908854166667
 21
2.3051569046687366
 31
0.0
  0
LINE
  5
137
330
17
100
AcDbEntity
  8
0
100
AcDbLine
 10
-18.9908854166667
 20
2.3051569046687366
 30
0.0
 11
-18.9908854166667
 21
4.870261071335378
 31
0.0
  0
LINE
  5
138
330
17
100
AcDbEntity
  8
0
100
AcDbLine
 10
-18.9908854166667
 20
4.870261071335378
 30
0.0
 11
-18.037109375
 21
4.870261071335378
 31
0.0
  0
SPLINE
  5
139
330
17
100
AcDbEntity
  8
0
100
AcDbSpline
 70
0
 71
2
 72
6
 73
3
 74
0
 40
0.0
 40
0.0
 40
0.0
 40
1.0
 40
1.0
 40
1.0
 10
-17.6546223958334
 20
3.532370446335378
 30
0.0
 10
-17.8743489583333
 20
4.066224613002078
 30
0.0
 10
-18.037109375
 20
4.870261071335378
 30
0.0
  0
ARC
  5
13A
330
17
100
AcDbEntity
  8
0
100
AcDbCircle
 10
-14.7827985024739
 20
4.678401958861079
 30
0.0
 40
3.09121597807939
100
AcDbArc
 50
201.754990396516
 51
221.98299410039635
  0
ARC
  5
13B
330
17
100
AcDbEntity
  8
0
100
AcDbCircle
 10
-15.643001203954901
 20
3.985118157130577
 30
0.0
 40
1.9877236255256099
100
AcDbArc
 50
223.71366035620903
 51
251.22894681543494
  0
SPLINE
  5
13C
330
17
100
AcDbEntity
  8
0
100
AcDbSpline
 70
0
 71
2
 72
6
 73
3
 74
0
 40
0.0
 40
0.0
 40
0.0
 40
1.0
 40
1.0
 40
1.0
 10
-15.4524739583333
 20
1.950339196335408
 30
0.0
 10
-15.830078125
 20
1.950339196335408
 30
0.0
 10
-16.2825520833333
 20
2.1033339880020776
 30
0.0
  0
LINE
  5
13D
330
17
100
AcDbEntity
  8
0
100
AcDbLine
 10
-15.4524739583333
 20
1.950339196335408
 30
0.0
 11
-15.4524739583333
 21
1.1170058630020776
 31
0.0
  0
LINE
  5
13E
330
17
100
AcDbEntity
  8
0
100
AcDbLine
 10
-15.4524739583333
 20
1.1170058630020776
 30
0.0
 11
-17.0377604166667
 21
1.1170058630020776
 31
0.0
  0
LINE
  5
13F
330
17
100
AcDbEntity
  8
0
100
AcDbLine
 10
-17.0377604166667
 20
1.1170058630020776
 30
0.0
 11
-17.0377604166667
 21
-5.842629553664592
 31
0.0
  0
SPLINE
  5
140
330
17
100
AcDbEntity
  8
0
100
AcDbSpline
 70
0
 71
2
 72
6
 73
3
 74
0
 40
0.0
 40
0.0
 40
0.0
 40
1.0
 40
1.0
 40
1.0
 10
-17.216796875
 20
-7.357929032831257
 30
0.0
 10
-17.0377604166667
 20
-6.737811845331257
 30
0.0
 10
-17.0377604166667
 20
-5.842629553664592
 30
0.0
  0
SPLINE
  5
141
330
17
100
AcDbEntity
  8
0
100
AcDbSpline
 70
0
 71
2
 72
6
 73
3
 74
0
 40
0.0
 40
0.0
 40
0.0
 40
1.0
 40
1.0
 40
1.0
 10
-17.7620442708333
 20
-8.354022782831258
 30
0.0
 10
-17.3958333333333
 20
-7.978046220331256
 30
0.0
 10
-17.216796875
 20
-7.357929032831257
 30
0.0
  0
SPLINE
  5
142
330
17
100
AcDbEntity
  8
0
100
AcDbSpline
 70
0
 71
2
 72
6
 73
3
 74
0
 40
0.0
 40
0.0
 40
0.0
 40
1.0
 40
1.0
 40
1.0
 10
-18.6979166666667
 20
-8.899270178664592
 30
0.0
 10
-18.1282552083333
 20
-8.729999345331253
 30
0.0
 10
-17.7620442708333
 20
-8.354022782831258
 30
0.0
  0
SPLINE
  5
143
330
17
100
AcDbEntity
  8
0
100
AcDbSpline
 70
0
 71
2
 72
6
 73
3
 74
0
 40
0.0
 40
0.0
 40
0.0
 40
1.0
 40
1.0
 40
1.0
 10
-20.0618489583334
 20
-9.068541011997922
 30
0.0
 10
-19.267578125
 20
-9.068541011997922
 30
0.0
 10
-18.6979166666667
 20
-8.899270178664592
 30
0.0
  0
ARC
  5
144
330
17
100
AcDbEntity
  8
0
100
AcDbCircle
 10
-20.0430268138234
 20
-3.5895826702796425
 30
0.0
 40
5.479115579949711
100
AcDbArc
 50
264.38192158822545
 51
269.80316966617244
  0
ARC
  5
145
330
17
100
AcDbEntity
  8
0
100
AcDbCircle
 10
-20.009521761121402
 20
-2.929733982467562
 30
0.0
 40
6.13919701853027
100
AcDbArc
 50
259.75047436962865
 51
264.67359977848025
  0
ARC
  5
146
330
17
100
AcDbEntity
  8
0
100
AcDbCircle
 10
-20.2510704435206
 20
-4.230521121607652
 30
0.0
 40
4.81599062100087
100
AcDbArc
 50
254.15766745090275
 51
259.82468639304983
  0
ARC
  5
147
330
17
100
AcDbEntity
  8
0
100
AcDbCircle
 10
-20.9452644454922
 20
-6.569389098553122
 30
0.0
 40
2.37602619960405
100
AcDbArc
 50
246.02307015900865
 51
254.86500646171774
  0
LINE
  5
148
330
17
100
AcDbEntity
  8
0
100
AcDbLine
 10
-21.9108072916667
 20
-8.740385992472172
 30
0.0
 11
-21.9108072916667
 21
-7.82501447756657
 31
0.0
  0
ARC
  5
149
330
17
100
AcDbEntity
  8
0
100
AcDbCircle
 10
-19.8500651541049
 20
2.9758724323247776
 30
0.0
 40
10.995718084681101
100
AcDbArc
 50
259.19814320179586
 51
262.5742702970656
  0
ARC
  5
14A
330
17
100
AcDbEntity
  8
0
100
AcDbCircle
 10
-23.161524862228898
 20
-3.469491127839662
 30
0.0
 40
4.51814671826461
100
AcDbArc
 50
261.89069497437913
 51
270.25676888917155
  0
LINE
  5
14B
330
17
100
AcDbEntity
  8
0
100
AcDbLine
 10
-23.1412765332175
 20
-7.987811845331256
 30
0.0
 11
-22.8678385416667
 21
-7.987811845331256
 31
0.0
  0
LINE
  5
14C
330
17
100
AcDbEntity
  8
0
100
AcDbLine
 10
-22.8678385416667
 20
-7.987811845331256
 30
0.0
 11
-22.8678385416667
 21
-8.863462886997922
 31
0.0
  0
LINE
  5
14D
330
17
100
AcDbEntity
  8
0
100
AcDbLine
 10
-22.8678385416667
 20
-8.863462886997922
 30
0.0
 11
-28.7890625
 21
-8.863462886997922
 31
0.0
  0
LINE
  5
14E
330
17
100
AcDbEntity
  8
0
100
AcDbLine
 10
-28.7890625
 20
-8.863462886997922
 30
0.0
 11
-28.7890625
 21
-7.987811845331257
 31
0.0
  0
LINE
  5
14F
330
17
100
AcDbEntity
  8
0
100
AcDbLine
 10
-28.7890625
 20
-7.987811845331256
 30
0.0
 11
-28.5123694900478
 21
-7.987811845331256
 31
0.0
  0
ARC
  5
150
330
17
100
AcDbEntity
  8
0
100
AcDbCircle
 10
-28.497597751361198
 20
-3.800576310665823
 30
0.0
 40
4.1870905986453
100
AcDbArc
 50
269.79786853497575
 51
278.8761082694621
  0
SPLINE
  5
151
330
17
100
AcDbEntity
  8
0
100
AcDbSpline
 70
0
 71
2
 72
6
 73
3
 74
0
 40
0.0
 40
0.0
 40
0.0
 40
1.0
 40
1.0
 40
1.0
 10
-27.3079427083334
 20
-7.729022782831257
 30
0.0
 10
-27.5358072916667
 20
-7.886900386997922
 30
0.0
 10
-27.8515625
 20
-7.93735611616459
 30
0.0
  0
SPLINE
  5
152
330
17
100
AcDbEntity
  8
0
100
AcDbSpline
 70
0
 71
2
 72
6
 73
3
 74
0
 40
0.0
 40
0.0
 40
0.0
 40
1.0
 40
1.0
 40
1.0
 10
-26.9417317708333
 20
-7.276548824497924
 30
0.0
 10
-27.080078125
 20
-7.57114517866459
 30
0.0
 10
-27.3079427083334
 20
-7.729022782831257
 30
0.0
  0
SPLINE
  5
153
330
17
100
AcDbEntity
  8
0
100
AcDbSpline
 70
0
 71
2
 72
6
 73
3
 74
0
 40
0.0
 40
0.0
 40
0.0
 40
1.0
 40
1.0
 40
1.0
 10
-26.8033854166667
 20
-6.4936712203312625
 30
0.0
 10
-26.8033854166667
 20
-6.981952470331257
 30
0.0
 10
-26.9417317708333
 20
-7.276548824497924
 30
0.0
  0
LINE
  5
154
330
17
100
AcDbEntity
  8
0
100
AcDbLine
 10
-26.8033854166667
 20
-6.493671220331263
 30
0.0
 11
-26.8033854166667
 21
2.3051569046687366
 31
0.0
  0
LINE
  5
155
330
17
100
AcDbEntity
  8
0
100
AcDbLine
 10
-26.8033854166667
 20
2.3051569046687366
 30
0.0
 11
-23.0826822916666
 21
2.3051569046687366
 31
0.0
  0
LINE
  5
156
330
17
100
AcDbEntity
  8
0
100
AcDbLine
 10
-23.0826822916666
 20
2.3051569046687366
 30
0.0
 11
-23.0826822916666
 21
1.432761071335408
 31
0.0
  0
LINE
  5
157
330
17
100
AcDbEntity
  8
0
100
AcDbLine
 10
-23.0826822916666
 20
1.432761071335408
 30
0.0
 11
-23.1412766538381
 21
1.432761071335408
 31
0.0
  0
ARC
  5
158
330
17
100
AcDbEntity
  8
0
100
AcDbCircle
 10
-23.161126197129697
 20
-2.5308703885658126
 30
0.0
 40
3.96343668819522
100
AcDbArc
 50
89.71306095584896
 51
99.25954890526924
  0
ARC
  5
159
330
17
100
AcDbEntity
  8
0
100
AcDbCircle
 10
-23.583419547345297
 20
-0.031440868033562275
 30
0.0
 40
1.42780865937522
100
AcDbArc
 50
98.67325070417144
 51
122.12838298848726
  0
ARC
  5
15A
330
17
100
AcDbEntity
  8
0
100
AcDbCircle
 10
-23.7643331717888
 20
0.30831159366791727
 30
0.0
 40
1.0443393169594402
100
AcDbArc
 50
123.63659149244295
 51
155.24953158155296
  0
SPLINE
  5
15B
330
17
100
AcDbEntity
  8
0
100
AcDbSpline
 70
0
 71
2
 72
6
 73
3
 74
0
 40
0.0
 40
0.0
 40
0.0
 40
1.0
 40
1.0
 40
1.0
 10
-24.8502604166667
 20
0.006979821335407976
 30
0.0
 10
-24.8502604166667
 20
0.465964196335408
 30
0.0
 10
-24.7135416666667
 20
0.7459121130020776
 30
0.0
  0
LINE
  5
15C
330
17
100
AcDbEntity
  8
0
100
AcDbLine
 10
-24.8502604166667
 20
0.006979821335407976
 30
0.0
 11
-24.8502604166667
 21
-6.594582678664592
 31
0.0
  0
SPLINE
  5
15D
330
17
100
AcDbEntity
  8
0
100
AcDbSpline
 70
0
 71
2
 72
6
 73
3
 74
0
 40
0.0
 40
0.0
 40
0.0
 40
1.0
 40
1.0
 40
1.0
 10
-24.7135416666667
 20
-7.333514970331257
 30
0.0
 10
-24.8502604166667
 20
-7.05356705366459
 30
0.0
 10
-24.8502604166667
 20
-6.594582678664592
 30
0.0
  0
SPLINE
  5
15E
330
17
100
AcDbEntity
  8
0
100
AcDbSpline
 70
0
 71
2
 72
6
 73
3
 74
0
 40
0.0
 40
0.0
 40
0.0
 40
1.0
 40
1.0
 40
1.0
 10
-24.3424479166667
 20
-7.755064449497923
 30
0.0
 10
-24.5768229166667
 20
-7.613462886997924
 30
0.0
 10
-24.7135416666667
 20
-7.333514970331257
 30
0.0
  0
ARC
  5
15F
330
17
100
AcDbEntity
  8
0
100
AcDbCircle
 10
-23.6111921438774
 20
-6.5039629967491726
 30
0.0
 40
1.44977025657932
100
AcDbArc
 50
239.69415876461605
 51
262.56717781445604
  0
ARC
  5
160
330
17
100
AcDbEntity
  8
0
100
AcDbCircle
 10
-25.9719478252444
 20
6.074446301360178
 30
0.0
 40
0.862076856681194
100
AcDbArc
 50
105.64159040101362
 51
134.44136366108393
  0
ARC
  5
161
330
17
100
AcDbEntity
  8
0
100
AcDbCircle
 10
-25.7592588544324
 20
5.8928711913815786
 30
0.0
 40
1.1416444655931302
100
AcDbArc
 50
135.68240343792274
 51
147.74256423075462
  0
LINE
  5
162
330
17
100
AcDbEntity
  8
0
100
AcDbLine
 10
-26.724700272443098
 20
6.502194549057188
 30
0.0
 11
-27.92335038946029
 21
6.970872861951204
 31
0.0
  0
LINE
  5
163
330
17
100
AcDbEntity
  8
0
100
AcDbLine
 10
-27.923350389460307
 20
6.970872861951181
 30
0.0
 11
-28.141844977146892
 21
6.412070468298774
 31
0.0
  0
LINE
  5
164
330
17
100
AcDbEntity
  8
0
100
AcDbLine
 10
-28.14184497714689
 20
6.412070468298806
 30
0.0
 11
-26.914340151427808
 21
5.932109817046452
 31
0.0
  0
ARC
  5
165
330
17
100
AcDbEntity
  8
0
100
AcDbCircle
 10
-24.789324216809398
 20
5.702464440527278
 30
0.0
 40
2.13738852840066
100
AcDbArc
 50
173.83211892616833
 51
180.4931752932643
  0
SPLINE
  5
166
330
17
100
AcDbEntity
  8
0
100
AcDbSpline
 70
0
 71
2
 72
6
 73
3
 74
0
 40
0.0
 40
0.0
 40
0.0
 40
0.9080630840055309
 40
0.9080630840055309
 40
0.9080630840055309
 10
-26.9270833333334
 20
5.684063154668777
 30
0.0
 10
-26.9270833333334
 20
5.3500425541068175
 30
0.0
 10
-26.84655808289058
 20
5.118020604105688
 30
0.0
  0
LINE
  5
167
330
17
100
AcDbEntity
  8
0
100
AcDbLine
 10
-26.846558086911067
 20
5.1180206079686865
 30
0.0
 11
-27.76573955188112
 21
4.161372159606795
 31
0.0
  0
LINE
  5
168
330
17
100
AcDbEntity
  8
0
100
AcDbLine
 10
-27.765739551881104
 20
4.161372159606774
 30
0.0
 11
-27.333087716436445
 21
3.7456650640619333
 31
0.0
  0
LINE
  5
169
330
17
100
AcDbEntity
  8
0
100
AcDbLine
 10
-27.333087716436467
 20
3.7456650640618463
 30
0.0
 11
-26.500900455172278
 21
4.611773316430556
 31
0.0
  0
ARC
  5
16A
330
17
100
AcDbEntity
  8
0
100
AcDbCircle
 10
-25.940145864140398
 20
5.334182666130177
 30
0.0
 40
0.914505866518443
100
AcDbArc
 50
232.18037328171224
 51
253.20657172048814
  0
ARC
  5
16B
330
17
100
AcDbEntity
  8
0
100
AcDbCircle
 10
-25.7575493861299
 20
5.931725984180977
 30
0.0
 40
1.53976828283541
100
AcDbArc
 50
253.12596866492882
 51
270.45055879519634
  0
ARC
  5
16C
330
17
100
AcDbEntity
  8
0
100
AcDbCircle
 10
-25.7273455388069
 20
5.951856089659378
 30
0.0
 40
1.5598132992938198
100
AcDbArc
 50
269.33539019636044
 51
286.7348280213442
  0
ARC
  5
16D
330
17
100
AcDbEntity
  8
0
100
AcDbCircle
 10
-25.5647747037719
 20
5.385607935595278
 30
0.0
 40
0.970301788426589
100
AcDbArc
 50
287.16941769052846
 51
297.39542808341156
  0
LINE
  5
16E
330
17
100
AcDbEntity
  8
0
100
AcDbLine
 10
-25.11831077029344
 20
4.524123451273738
 30
0.0
 11
-24.219496504937965
 21
3.6605111027876127
 31
0.0
  0
LINE
  5
16F
330
17
100
AcDbEntity
  8
0
100
AcDbLine
 10
-24.219496504937997
 20
3.6605111027875736
 30
0.0
 11
-23.803789409393154
 21
4.093162938232233
 31
0.0
  0
LINE
  5
170
330
17
100
AcDbEntity
  8
0
100
AcDbLine
 10
-23.803789409393218
 20
4.093162938232259
 30
0.0
 11
-24.699118920558995
 21
4.953427012368879
 31
0.0
  0
ARC
  5
171
330
17
100
AcDbEntity
  8
0
100
AcDbCircle
 10
-25.6079293046901
 20
5.404829041746577
 30
0.0
 40
1.01474139879621
100
AcDbArc
 50
333.58661600359875
 51
340.873811464157
  0
SPLINE
  5
172
330
17
100
AcDbEntity
  8
0
100
AcDbSpline
 70
0
 71
2
 72
6
 73
3
 74
0
 40
0.0
 40
0.0
 40
0.0
 40
1.0
 40
1.0
 40
1.0
 10
-24.6484375
 20
5.072083988002078
 30
0.0
 10
-24.5572916666667
 20
5.316224613002078
 30
0.0
 10
-24.5572916666667
 20
5.684063154668777
 30
0.0
  0
SPLINE
  5
173
330
17
100
AcDbEntity
  8
0
100
AcDbSpline
 70
0
 71
2
 72
6
 73
3
 74
0
 40
0.0
 40
0.0
 40
0.0
 40
0.10763940621081626
 40
0.10763940621081626
 40
0.10763940621081626
 10
-24.5572916666667
 20
5.684063154668777
 30
0.0
 10
-24.5572916666667
 20
5.7233066881831345
 30
0.0
 10
-24.558347704327975
 20
5.761154743359377
 30
0.0
  0
LINE
  5
174
330
17
100
AcDbEntity
  8
0
100
AcDbLine
 10
-24.558347700946776
 20
5.761154735636325
 30
0.0
 11
-23.289960559874107
 21
6.316466354562397
 31
0.0
  0
LINE
  5
175
330
17
100
AcDbEntity
  8
0
100
AcDbLine
 10
-23.289960559874046
 20
6.316466354562401
 30
0.0
 11
-23.530594517163227
 21
6.8660983210631095
 31
0.0
  0
LINE
  5
176
330
17
100
AcDbEntity
  8
0
100
AcDbLine
 10
-23.530594517163294
 20
6.86609832106306
 30
0.0
 11
-24.677118754017915
 21
6.36413940844961
 31
0.0
  0
ARC
  5
177
330
17
100
AcDbEntity
  8
0
100
AcDbCircle
 10
-25.6212060480299
 20
5.954435598208578
 30
0.0
 40
1.02915403649839
100
AcDbArc
 50
23.459307555285257
 51
45.65473269259633
  0
ARC
  5
178
330
17
100
AcDbEntity
  8
0
100
AcDbCircle
 10
-25.530142442834002
 20
6.027917640820677
 30
0.0
 40
0.9122607401159459
100
AcDbArc
 50
46.51865315488435
 51
73.97661802705676
  0
ARC
  5
179
330
17
100
AcDbEntity
  8
0
100
AcDbCircle
 10
-25.7268101513668
 20
5.291595257903877
 30
0.0
 40
1.6747360488992602
100
AcDbArc
 50
74.46316881667452
 51
77.4446524254737
  0
LINE
  5
17A
330
17
100
AcDbEntity
  8
0
100
AcDbLine
 10
-25.362751654280103
 20
6.9262824586188785
 30
0.0
 11
-25.388025250290944
 21
8.191635660897779
 31
0.0
  0
LINE
  5
17B
330
17
100
AcDbEntity
  8
0
100
AcDbLine
 10
-25.3880252502909
 20
8.191635660897779
 30
0.0
 11
-25.9879056032738
 21
8.179653920409173
 31
0.0
  0
LINE
  5
17C
330
17
100
AcDbEntity
  8
0
100
AcDbLine
 10
-25.987905603273745
 20
8.17965392040928
 30
0.0
 11
-25.963417134606328
 21
6.95360906973068
 31
0.0
  0
ARC
  5
17D
330
17
100
AcDbEntity
  8
0
100
AcDbCircle
 10
-25.7581151621545
 20
5.313470482525878
 30
0.0
 40
1.6529378346238301
100
AcDbArc
 50
97.13480694565109
 51
105.66725664583588
  0
ENDSEC
  0
SECTION
  2
OBJECTS
  0
DICTIONARY
  5
A
330
0
100
AcDbDictionary
281
1
  3
ACAD_COLOR
350
B
  3
ACAD_GROUP
350
C
  3
ACAD_LAYOUT
350
D
  3
ACAD_MATERIAL
350
E
  3
ACAD_MLEADERSTYLE
350
F
  3
ACAD_MLINESTYLE
350
10
  3
ACAD_PLOTSETTINGS
350
11
  3
ACAD_PLOTSTYLENAME
350
12
  3
ACAD_SCALELIST
350
14
  3
ACAD_TABLESTYLE
350
15
  3
ACAD_VISUALSTYLE
350
16
  3
EZDXF_META
350
2D
  0
DICTIONARY
  5
B
330
A
100
AcDbDictionary
281
1
  0
DICTIONARY
  5
C
330
A
100
AcDbDictionary
281
1
  0
DICTIONARY
  5
D
330
A
100
AcDbDictionary
281
1
  3
Model
350
1A
  3
Layout1
350
1E
  0
DICTIONARY
  5
E
330
A
100
AcDbDictionary
281
1
  3
ByBlock
350
1F
  3
ByLayer
350
20
  3
Global
350
21
  0
DICTIONARY
  5
F
330
A
100
AcDbDictionary
281
1
  3
Standard
350
2C
  0
DICTIONARY
  5
10
330
A
100
AcDbDictionary
281
1
  3
Standard
350
22
  0
DICTIONARY
  5
11
330
A
100
AcDbDictionary
281
1
  0
ACDBDICTIONARYWDFLT
  5
12
330
A
100
AcDbDictionary
281
1
  3
Normal
350
13
100
AcDbDictionaryWithDefault
340
13
  0
ACDBPLACEHOLDER
  5
13
330
12
  0
DICTIONARY
  5
14
330
A
100
AcDbDictionary
281
1
  0
DICTIONARY
  5
15
330
A
100
AcDbDictionary
281
1
  0
DICTIONARY
  5
16
330
A
100
AcDbDictionary
281
1
  0
LAYOUT
  5
1A
330
D
100
AcDbPlotSettings
  1

  4
A3
  6

 40
7.5
 41
20.0
 42
7.5
 43
20.0
 44
420.0
 45
297.0
 46
0.0
 47
0.0
 48
0.0
 49
0.0
140
0.0
141
0.0
142
1.0
143
1.0
 70
1024
 72
1
 73
0
 74
5
  7

 75
16
 76
0
 77
2
 78
300
147
1.0
148
0.0
149
0.0
100
AcDbLayout
  1
Model
 70
1
 71
0
 10
0.0
 20
0.0
 11
420.0
 21
297.0
 12
0.0
 22
0.0
 32
0.0
 14
1e+20
 24
1e+20
 34
1e+20
 15
-1e+20
 25
-1e+20
 35
-1e+20
146
0.0
 13
0.0
 23
0.0
 33
0.0
 16
1.0
 26
0.0
 36
0.0
 17
0.0
 27
1.0
 37
0.0
 76
1
330
17
  0
LAYOUT
  5
1E
330
D
100
AcDbPlotSettings
  1

  4
A3
  6

 40
7.5
 41
20.0
 42
7.5
 43
20.0
 44
420.0
 45
297.0
 46
0.0
 47
0.0
 48
0.0
 49
0.0
140
0.0
141
0.0
142
1.0
143
1.0
 70
0
 72
1
 73
0
 74
5
  7

 75
16
 76
0
 77
2
 78
300
147
1.0
148
0.0
149
0.0
100
AcDbLayout
  1
Layout1
 70
1
 71
1
 10
0.0
 20
0.0
 11
420.0
 21
297.0
 12
0.0
 22
0.0
 32
0.0
 14
1e+20
 24
1e+20
 34
1e+20
 15
-1e+20
 25
-1e+20
 35
-1e+20
146
0.0
 13
0.0
 23
0.0
 33
0.0
 16
1.0
 26
0.0
 36
0.0
 17
0.0
 27
1.0
 37
0.0
 76
1
330
1B
  0
MATERIAL
  5
1F
102
{ACAD_REACTORS
330
E
102
}
330
E
100
AcDbMaterial
  1
ByBlock
  2

 70
0
 40
1.0
 71
1
 41
1.0
 91
-1023410177
 42
1.0
 72
1
  3

 73
1
 74
1
 75
1
 44
0.5
 73
0
 45
1.0
 46
1.0
 77
1
  4

 78
1
 79
1
170
1
 48
1.0
171
1
  6

172
1
173
1
174
1
140
1.0
141
1.0
175
1
  7

176
1
177
1
178
1
143
1.0
179
1
  8

270
1
271
1
272
1
145
1.0
146
1.0
273
1
  9

274
1
275
1
276
1
 42
1.0
 72
1
  3

 73
1
 74
1
 75
1
 94
63
  0
MATERIAL
  5
20
102
{ACAD_REACTORS
330
E
102
}
330
E
100
AcDbMaterial
  1
ByLayer
  2

 70
0
 40
1.0
 71
1
 41
1.0
 91
-1023410177
 42
1.0
 72
1
  3

 73
1
 74
1
 75
1
 44
0.5
 73
0
 45
1.0
 46
1.0
 77
1
  4

 78
1
 79
1
170
1
 48
1.0
171
1
  6

172
1
173
1
174
1
140
1.0
141
1.0
175
1
  7

176
1
177
1
178
1
143
1.0
179
1
  8

270
1
271
1
272
1
145
1.0
146
1.0
273
1
  9

274
1
275
1
276
1
 42
1.0
 72
1
  3

 73
1
 74
1
 75
1
 94
63
  0
MATERIAL
  5
21
102
{ACAD_REACTORS
330
E
102
}
330
E
100
AcDbMaterial
  1
Global
  2

 70
0
 40
1.0
 71
1
 41
1.0
 91
-1023410177
 42
1.0
 72
1
  3

 73
1
 74
1
 75
1
 44
0.5
 73
0
 45
1.0
 46
1.0
 77
1
  4

 78
1
 79
1
170
1
 48
1.0
171
1
  6

172
1
173
1
174
1
140
1.0
141
1.0
175
1
  7

176
1
177
1
178
1
143
1.0
179
1
  8

270
1
271
1
272
1
145
1.0
146
1.0
273
1
  9

274
1
275
1
276
1
 42
1.0
 72
1
  3

 73
1
 74
1
 75
1
 94
63
  0
MLINESTYLE
  5
22
102
{ACAD_REACTORS
330
10
102
}
330
10
100
AcDbMlineStyle
  2
Standard
 70
0
  3

 62
256
 51
90.0
 52
90.0
 71
2
 49
0.5
 62
256
  6
BYLAYER
 49
-0.5
 62
256
  6
BYLAYER
  0
MLEADERSTYLE
  5
2C
102
{ACAD_REACTORS
330
F
102
}
330
F
100
AcDbMLeaderStyle
179
2
170
2
171
1
172
0
 90
2
 40
0.0
 41
0.0
173
1
 91
-1056964608
 92
-2
290
1
 42
2.0
291
1
 43
8.0
  3
Standard
 44
4.0
300

342
29
174
1
175
1
176
0
178
1
 93
-1056964608
 45
4.0
292
0
297
0
 46
4.0
 94
-1056964608
 47
1.0
 49
1.0
140
1.0
294
1
141
0.0
177
0
142
1.0
295
0
296
0
143
3.75
271
0
272
9
273
9
  0
DICTIONARY
  5
2D
330
A
100
AcDbDictionary
280
1
281
1
  3
CREATED_BY_EZDXF
350
2E
  3
WRITTEN_BY_EZDXF
350
181
  0
DICTIONARYVAR
  5
2E
330
2D
100
DictionaryVariables
280
0
  1
1.4.4 @ 2026-09-02T16:50:31.797845+00:00
  0
DICTIONARYVAR
  5
181
330
2D
100
DictionaryVariables
280
0
  1
1.4.4 @ 2026-09-02T16:50:32.214300+00:00
  0
ENDSEC
  0
EOF
